<svg xmlns="http://www.w3.org/2000/svg" xmlns:xlink="http://www.w3.org/1999/xlink" xmlns:inkscape="http://www.inkscape.org/namespaces/inkscape" version="1.1" width="603.3599853515625pt" height="774.0pt" viewBox="0.0 0.0 603.3599853515625 774.0">
<defs>
<clipPath id="clip_1">
<path transform="matrix(1,0,0,-1,0,783)" d="M0 9H603.36V783H0Z" clip-rule="evenodd"/>
</clipPath>
<path id="font_2_54" d="M.651001 .71777346H.49798585V.24528504C.49798585 .15838623 .45599366 .108444217 .35299684 .108444217 .2829895 .108444217 .22499085 .15238953 .22499085 .25227357V.71777346H.07199097V.24229431C.07398987 .17036438 .08898926 .11242676 .12799073 .06843567 .19198609-.0025634766 .2899933-.018554688 .35598756-.018554688 .5369873-.018554688 .651001 .062438966 .651001 .25128175V.71777346Z"/>
<path id="font_2_79" d="M.54599 .36790467C.54599 .4848938 .46499635 .54589846 .36099244 .54589846 .2599945 .54589846 .21998596 .48588563 .20098877 .45388795H.19898987V.53222659H.06498718V0H.20498657V.30514527C.20498657 .38589479 .25299073 .42788697 .31498719 .42788697 .4039917 .42788697 .4059906 .36190797 .4059906 .32292176V0H.54599V.36790467Z"/>
<path id="font_2_66" d="M.49598695 .39190675C.49598695 .5228882 .35899354 .54589846 .28399659 .54589846 .1749878 .54589846 .06199646 .5228882 .04598999 .35990907H.18099976C.18499756 .39089967 .19699097 .43388368 .2669983 .43388368 .30299378 .43388368 .35899354 .43089295 .35899354 .37190248 .35899354 .34191896 .33198548 .33291627 .30999757 .32991029L.18399048 .3109131C.09498596 .29792787 .0289917 .24493408 .0289917 .1409607 .0289917 .031326295 .11099243-.013671875 .19099427-.013671875 .28599549-.013671875 .33099366 .030319214 .36299134 .063323978 .3659973 .032989503 .36799623 .024993897 .37599183 0H.5269928V.020996094C.5099945 .026992798 .49598695 .040985109 .49598695 .10397339V.39190675M.35899354 .19094849C.35899354 .12626648 .29599 .08631897 .23399353 .08631897 .20698548 .08631897 .16899109 .1013031 .16899109 .15023804 .16899109 .20817566 .21199036 .22116089 .2639923 .23014832 .32199098 .23913574 .34498597 .24812317 .35899354 .2591095V.19094849Z"/>
<path id="font_2_86" d="M.54499819 .53222659H.40499879V.22529602C.40499879 .13031006 .34298707 .10432434 .29699708 .10432434 .2539978 .10432434 .20599365 .12031555 .20599365 .20230103V.53222659H.06599426V.18229676C.06599426 .046325685 .14199829-.013671875 .24699402-.013671875 .32099916-.013671875 .3769989 .018325806 .40899659 .07531738H.41099549V0H.54499819V.53222659Z"/>
<path id="font_2_85" d="M.22200012 .67622378H.08198547V.53222659H.009994507V.43222047H.08198547V.10913086C.08198547 .040130617 .10398865-.005859375 .22499085-.005859375H.24299622C.2649994-.005859375 .2869873-.0048675539 .30899049-.0038604737V.102127078C.29899598 .101135257 .2889862 .100128177 .27999879 .100128177 .22299195 .100128177 .22200012 .11213684 .22200012 .1431427V.43222047H.30899049V.53222659H.22200012V.67622378Z"/>
<path id="font_2_73" d="M.54599 .36790467C.54599 .4848938 .46499635 .54589846 .36099244 .54589846 .2849884 .54589846 .22499085 .506897 .20698548 .46289063H.20498657V.71777346H.06498718V0H.20498657V.30491639C.20498657 .38589479 .25299073 .42788697 .31498719 .42788697 .4039917 .42788697 .4059906 .36190797 .4059906 .32292176V0H.54599V.36790467Z"/>
<path id="font_2_80" d="M.5779877 .26611329C.5779877 .45788575 .44898988 .54589846 .30599977 .54589846 .16299439 .54589846 .033996583 .45788575 .033996583 .26611329 .033996583 .07432556 .16299439-.013671875 .30599977-.013671875 .44898988-.013671875 .5779877 .07432556 .5779877 .26611329M.43399049 .26611329C.43399049 .19819641 .4139862 .10432434 .30599977 .10432434 .19799805 .10432434 .17799378 .19819641 .17799378 .26611329 .17799378 .3340149 .19799805 .42788697 .30599977 .42788697 .4139862 .42788697 .43399049 .3340149 .43399049 .26611329Z"/>
<path id="font_2_83" d="M.06399536 0H.20399475V.27719117C.20399475 .33624269 .22399903 .40429688 .33299256 .40429688 .34599305 .40429688 .36099244 .40429688 .37298585 .4022827V.54389956C.3639984 .54489138 .35499574 .54589846 .34599305 .54589846 .26098634 .54589846 .22898865 .4940338 .19999695 .44018556H.19799805V.53222659H.06399536V0Z"/>
<path id="font_2_74" d="M.068984989 .53222659V0H.20899964V.53222659H.068984989M.20899964 .7246094H.068984989V.5946045H.20899964V.7246094Z"/>
<path id="font_2_91" d="M.46998597 .41722108V.53222659H.038986207V.4202118H.29299928L.019989014 .10899353V0H.47999574V.114990238H.20098877L.46998597 .41722108Z"/>
<path id="font_2_70" d="M.37799073 .1563263C.36698915 .11831665 .32699586 .09832764 .28799439 .09832764 .1749878 .09832764 .16699219 .18832398 .16299439 .22833252H.5279999V.25332643C.5279999 .4958954 .3829956 .54589846 .27799989 .54589846 .04499817 .54589846 .022994996 .34124757 .022994996 .2773285 .022994996 .05831909 .13798523-.013671875 .28799439-.013671875 .3789978-.013671875 .4850006 .028320313 .5219879 .1563263H.37799073M.16699219 .31933595C.1749878 .38905335 .20999146 .43089295 .27598573 .43089295 .32099916 .43089295 .37599183 .40499879 .38398744 .31933595H.16699219Z"/>
<path id="font_2_69" d="M.5509949 .71777346H.41099549V.46289063H.40899659C.3869934 .4968872 .34498597 .54589846 .25498963 .54589846 .13798523 .54589846 .033996583 .45588685 .033996583 .27209474 .033996583 .12628174 .099990848-.013671875 .2579956-.013671875 .31599427-.013671875 .37799073 .0073242189 .4119873 .06732178H.4139862V0H.5509949V.71777346M.17799378 .26210023C.17799378 .34599305 .20799256 .42489625 .29699708 .42489625 .3929901 .42489625 .4169922 .33900453 .4169922 .25411988 .4169922 .17521668 .38198854 .10131836 .29299928 .10131836 .20298767 .10131836 .17799378 .19918823 .17799378 .26210023Z"/>
<path id="font_2_1" d="M0 0Z"/>
<path id="font_2_68" d="M.3809967 .19419861C.3809967 .16923523 .35699464 .10131836 .28599549 .10131836 .17999268 .10131836 .17799378 .21617127 .17799378 .27409364 .17799378 .3400116 .20098877 .42788697 .2889862 .42788697 .35398866 .43188478 .37599183 .37695313 .38198854 .3420105H.5239868C.5109863 .5078888 .37298585 .54589846 .2889862 .54589846 .10899353 .54589846 .033996583 .42289735 .033996583 .25112916 .033996583 .13926697 .07998657-.013671875 .27999879-.013671875 .47499085-.013671875 .5179901 .13926697 .522995 .19419861H.3809967Z"/>
<path id="font_2_81" d="M.19599915 .25411988C.19599915 .33900453 .21899414 .42489625 .31498719 .42489625 .4039917 .42489625 .43399049 .34599305 .43399049 .26210023 .43399049 .19918823 .40899659 .10131836 .31900025 .10131836 .22999573 .10131836 .19599915 .17521668 .19599915 .25411988M.19599915 .53222659H.06199646V-.20703125H.20199585V.0683136H.20399475C.22099304 .0393219 .2559967-.013671875 .35398866-.013671875 .5119934-.013671875 .5779877 .12631226 .5779877 .27226258 .5779877 .45588685 .47399903 .54589846 .35699464 .54589846 .2630005 .54589846 .22399903 .4968872 .19799805 .45489503H.19599915V.53222659Z"/>
<path id="font_2_90" d="M.5389862 .53222659H.3909912L.28199769 .14016724H.27999879L.1659851 .53222659H.009994507L.20599365-.021865845C.19299317-.09487915 .16499329-.101867679 .11399841-.101867679 .101989749-.101867679 .09298706-.100875858 .08699036-.099868778V-.21186829C.10699463-.21287537 .1309967-.21386719 .1499939-.21386719 .27198792-.21386719 .2899933-.18788147 .35598756 .009140015L.5389862 .53222659Z"/>
<path id="font_2_72" d="M.4189911 .53222659V.45289613H.4169922C.3999939 .48788453 .3600006 .54589846 .26098634 .54589846 .14399719 .54589846 .039993287 .45588685 .039993287 .27197267 .039993287 .08605957 .14099121-.0029296876 .2689972-.0029296876 .35299684-.0029296876 .3880005 .03605652 .41099549 .077056888L.41299439 .07505798V.011062622C.41299439-.07484436 .3769989-.110809329 .3019867-.110809329 .22099304-.110809329 .20999146-.08383179 .20399475-.056869508H.051986696C.057998659-.1697998 .17399597-.21679688 .28399659-.21679688 .54599-.21679688 .5529938-.06385803 .5529938 .028060914V.53222659H.4189911M.18399048 .26313783C.18399048 .3869171 .24198914 .42489625 .2939911 .42489625 .37199403 .42489625 .4139862 .3549347 .4139862 .26898194 .4139862 .1960144 .3899994 .11506653 .29499818 .11506653 .21199036 .11506653 .18399048 .19509888 .18399048 .26313783Z"/>
<path id="font_2_84" d="M.5029907 .37002564C.49198915 .51989749 .36799623 .54589846 .2639923 .54589846 .09799194 .54589846 .04899597 .44589234 .04899597 .36802674 .04899597 .1691742 .3789978 .23609925 .3789978 .1472168 .3789978 .1272583 .3619995 .092315677 .2899933 .092315677 .20199585 .092315677 .17399597 .1252594 .17399597 .17016602H.02999878C.033996583 .028320313 .16499329-.013671875 .28599549-.013671875 .36898805-.013671875 .5189972 .014328003 .5189972 .1691742 .5189972 .365036 .18598938 .3040924 .18598938 .38798524 .18598938 .4109497 .19599915 .43989564 .27198792 .43989564 .34799195 .43989564 .3600006 .40396119 .3659973 .37002564H.5029907Z"/>
<path id="font_2_71" d="M.22698975 .43222047H.31799317V.53222659H.22698975V.55303958C.22698975 .5966797 .22799683 .611557 .27598573 .611557H.31498719V.72454836C.30299378 .7255554 .28399659 .7265625 .24299622 .7265625 .14698792 .7265625 .08699036 .68455508 .08699036 .5748596V.53222659H.009994507V.43222047H.08699036V0H.22698975V.43222047Z"/>
<path id="font_2_77" d="M.20899964 .71777346H.068984989V0H.20899964V.71777346Z"/>
<path id="font_2_15" d="M.21398926 .1459961H.06399536V0H.21398926V.1459961Z"/>
<path id="font_3_21" d="M.4119873 .2548828V.68847659H.33198548C.23999024 .56829836 .10798645 .39907838 .018997193 .2568817V.14387512H.2669983V0H.4119873V.14387512H.47499085V.2548828H.4119873M.2689972 .2548828H.05999756L.2669983 .5492859H.2689972V.2548828Z"/>
<path id="font_4_1" d="M0 0Z"/>
<path id="font_3_47" d="M.015991211 0H.24299622V.024993897C.16899109 .032989503 .147995 .051986696 .147995 .1239624V.52381899H.1499939L.59498599-.017578125H.6230011V.57084658C.6230011 .61880496 .6289978 .64178469 .70098879 .6507721V.67578127H.48599244V.6507721C.5669861 .64479067 .57899478 .6118164 .57899478 .5518646V.24916077H.57699587L.22999573 .67578127H.018997193V.6507721C.03199768 .6507721 .04798889 .6477814 .10398865 .57884219V.10496521C.10398865 .038986207 .07598877 .031982423 .015991211 .024993897V0Z"/>
<path id="font_3_48" d="M.3889923 .6584015C.5289917 .6584015 .56599429 .48240663 .56599429 .33642579 .56599429 .24942017 .55999758 .014434814 .3889923 .014434814 .21798706 .014434814 .21199036 .24942017 .21199036 .33642579 .21199036 .48240663 .24899292 .6584015 .3889923 .6584015M.3889923 .69140627C.19599915 .69140627 .034988405 .55441287 .034988405 .33642579 .034988405 .12643433 .18399048-.018554688 .3889923-.018554688 .59399417-.018554688 .7429962 .12643433 .7429962 .33642579 .7429962 .55441287 .58200076 .69140627 .3889923 .69140627Z"/>
<path id="font_3_1" d="M0 0Z"/>
<path id="font_3_36" d="M.6569977 .1524353C.57398989 .059432985 .49899293 .029434205 .42099 .029434205 .3899994 .029434205 .31098939 .044433595 .2689972 .11643982 .23199463 .18043518 .22599793 .27642823 .22599793 .33642579 .22599793 .50541689 .2649994 .6584015 .41099549 .6584015 .5249939 .6584015 .60899356 .54141238 .6439972 .45440675H.6689911V.68840029H.6419983C.6319885 .6633911 .6230011 .642395 .59599307 .642395 .56999209 .642395 .49299623 .69140627 .40299989 .69140627 .19299317 .69140627 .04899597 .53541567 .04899597 .33241273 .04899597 .14543152 .1749878-.018554688 .4079895-.018554688 .5359955-.018554688 .6139984 .044433595 .68699648 .12742615L.6569977 .1524353Z"/>
<path id="font_3_34" d="M.68899539 .024993897C.6409912 .022994996 .625 .057037355 .5799866 .16419983L.35699464 .6904297H.32899476L.10699463 .14216614C.07699585 .06706238 .06298828 .03300476 .008987427 .024993897V0H.21199036V.024993897C.17799378 .026992798 .12998963 .02999878 .12998963 .0680542 .12998963 .08407593 .1459961 .12515259 .17399597 .19726563H.39898683C.41299439 .16520691 .44499208 .09109497 .44499208 .0640564 .44499208 .03100586 .4269867 .02999878 .36499024 .024993897V0H.68899539V.024993897M.18899536 .23625183 .2829895 .4793396 .38398744 .23625183H.18899536Z"/>
<path id="font_3_45" d="M.6380005 .22692871H.60899356C.5629883 .113967899 .5069885 .0309906 .35598756 .0309906 .2889862 .0309906 .2669983 .038986207 .2669983 .0869751V.5588074C.2669983 .6467743 .2979889 .6477661 .36799623 .6507721V.67578127H.018997193V.6507721C.06399536 .6477661 .10499573 .6457672 .10499573 .57980349V.095962528C.10499573 .034988405 .07499695 .031982423 .018997193 .024993897V0H.5970001L.6380005 .22692871Z"/>
<path id="font_3_54" d="M.70098879 .67578127H.48098756V.6507721C.5669861 .6467743 .57899478 .6128082 .57899478 .5518799V.24720764C.57899478 .18327332 .57699587 .030441285 .40098573 .030441285 .25698854 .030441285 .25698854 .16828919 .25698854 .22523499V.5588684C.25698854 .6467743 .28799439 .6477814 .35398866 .6507721V.67578127H.015991211V.6507721C.07199097 .6447754 .09799194 .6427765 .09799194 .5588684V.22523499C.09799194 .11734009 .12399292 .0823822 .16699219 .044418336 .23199463-.012557983 .32598878-.018554688 .36999513-.018554688 .42999269-.018554688 .5169983 .00044250489 .5669861 .05441284 .60899356 .099365238 .6230011 .18826294 .6230011 .24720764V.56585696C.6230011 .63179019 .6459961 .6427765 .70098879 .6507721V.67578127Z"/>
<path id="font_3_53" d="M.5130005 .024993897C.43899537 .02998352 .4149933 .031982423 .4149933 .11695862V.6437683C.48399354 .6397705 .58699038 .6347809 .6069946 .47483827H.6359863L.6339874 .67578127H.033996583L.0309906 .47483827H.05999756C.07998657 .6347809 .18299866 .6397705 .25299073 .6437683V.11695862C.25299073 .032989503 .22898865 .0309906 .1559906 .024993897V0H.5130005V.024993897Z"/>
<path id="font_3_51" d="M.27598573 .59976199C.2809906 .6307678 .2829895 .6417694 .33799745 .6417694 .41799928 .6417694 .45899964 .59877017 .45899964 .4977417 .45899964 .36772157 .40699769 .34571839 .27598573 .34472657V.59976199M.71499636 .024993897C.7029877 .024993897 .6879883 .025985718 .673996 .04397583L.47299195 .3287201C.5269928 .34571839 .6299896 .37672425 .6299896 .4997406 .6299896 .6677704 .41799928 .67578127 .34799195 .67578127H.025985718V.6507721C.08299255 .6467743 .11399841 .6447754 .11399841 .5587616V.11689758C.11399841 .035980226 .09399414 .032989503 .025985718 .024993897V0H.3639984V.024993897C.2979889 .033981325 .27598573 .036987306 .27598573 .11689758V.31271363H.30299378L.5099945 0H.71499636V.024993897Z"/>
<path id="font_3_56" d="M.98098757 .67578127H.798996V.6507721C.83299258 .6487732 .8679962 .6477661 .8679962 .6068115 .8679962 .5858307 .8639984 .5748291 .86099246 .56484988L.75 .22514344H.7480011L.6409912 .55784609C.6349945 .576828 .6269989 .6008148 .6269989 .6128082 .6269989 .6467743 .6559906 .6477661 .69898989 .6507721V.67578127H.3869934V.6507721C.43499757 .6487732 .44599916 .63778689 .45899964 .61579897L.49398805 .5198822 .3769989 .21514893H.375L.2559967 .5758362C.2519989 .5868225 .24899292 .59780886 .24899292 .6088104 .24899292 .6457672 .2769928 .6477661 .31298829 .6507721V.67578127H.018997193V.6507721C.06098938 .6447754 .070999149 .6347809 .08799744 .5868225L.2999878-.0146484379H.32798768L.5099945 .4529419H.5169983L.68499758-.0146484379H.71199038L.9119873 .5868225C.923996 .62379458 .94599917 .6477661 .98098757 .6507721V.67578127Z"/>
<path id="font_3_38" d="M.015991211 .6507721C.06199646 .6477814 .10398865 .6457825 .10398865 .57984927V.0960083C.10398865 .033996583 .07299805 .0309906 .015991211 .024993897V0H.6009979L.6409912 .20805359H.61299136C.5499878 .057006837 .44799806 .0309906 .34999085 .0309906 .2849884 .0309906 .2659912 .042999269 .2659912 .087005618V.32910157C.36499024 .32910157 .41600038 .29908753 .42799378 .17404175H.45399476V.5119171H.42799378C.41299439 .38806153 .3619995 .36209107 .2659912 .36309815V.5948334C.2659912 .6377716 .28399659 .6417694 .33898927 .6417694 .47399903 .6417694 .54499819 .61680606 .56799319 .47496034H.59298709V.67578127H.015991211V.6507721Z"/>
<path id="font_3_37" d="M.01399231 0H.32998658C.58200076 .0079956059 .6899872 .16394043 .6899872 .34788514 .6899872 .50183108 .598999 .67578127 .31900025 .67578127H.01399231V.6507721C.052993776 .6467743 .09700012 .6447754 .09700012 .58380129V.0909729C.09700012 .053985597 .07699585 .024993897 .01399231 .024993897V0M.25898744 .5947876C.2579956 .6167908 .25698854 .6417694 .32099916 .6417694 .49299623 .6417694 .5159912 .42884828 .5159912 .33789063 .5159912 .098968509 .42799378 .034988405 .31599427 .034988405 .2679901 .034988405 .25898744 .052978517 .25898744 .0929718V.5947876Z"/>
<path id="font_4_36" d="M.6199951 .450943 .61099246 .67578127H.58999636C.58200076 .6427765 .548996 .6427765 .5439911 .6427765 .5219879 .6427765 .45700074 .67578127 .36799623 .67578127 .19599915 .67578127 .027999878 .5548401 .027999878 .3310547 .027999878 .08227539 .20098877-.013671875 .3619995-.013671875 .54599-.013671875 .6319885 .11125183 .6329956 .11325073L.61499026 .13122559C.58399966 .101257327 .5119934 .030319214 .3889923 .030319214 .2630005 .030319214 .14399719 .117248538 .14399719 .3290558 .14399719 .47291566 .18798828 .53686526 .22698975 .5748291 .2689972 .6157837 .32699586 .6357727 .3769989 .6357727 .5 .6357727 .57199099 .55584719 .5970001 .450943H.6199951Z"/>
<path id="font_4_80" d="M.24499512 .45996095C.11099243 .45996095 .0289917 .35101319 .0289917 .22808838 .0289917 .093170169 .11898804-.009765625 .24798584-.009765625 .3999939-.009765625 .46998597 .12915039 .46998597 .22808838 .46998597 .3730011 .37599183 .45996095 .24499512 .45996095M.2619934 .018234253C.14199829 .018234253 .11898804 .20210266 .11898804 .276062 .11898804 .37998963 .17399597 .4319458 .23699951 .4319458 .32899476 .4319458 .37998963 .32302857 .37998963 .19911194 .37998963 .05619812 .31298829 .018234253 .2619934 .018234253Z"/>
<path id="font_4_79" d="M.07998657 .08998108C.07998657 .0309906 .06498718 .017990113 .017990113 .01499939V0H.22999573V.01499939C.17799378 .017990113 .1639862 .033996583 .1639862 .066986087V.34796144C.20199585 .38494874 .23298645 .404953 .2630005 .404953 .32199098 .404953 .33999635 .36895753 .33999635 .30796815V.098983768C.33999635 .022994996 .31399537 .017990113 .2769928 .01499939V0H.4850006V.01499939C.43598939 .018997193 .42399598 .033996583 .42399598 .08097839V.30996705C.42399598 .43295289 .35299684 .45996095 .30699159 .45996095 .24798584 .45996095 .20999146 .42495729 .16099549 .37895204V.45794679L.1539917 .45996095C.10798645 .44303895 .06098938 .4280243 .015991211 .41503907V.3980255C.019989014 .40003968 .0309906 .40203858 .04499817 .40203858 .06098938 .40203858 .07998657 .4010315 .07998657 .33802796V.08998108Z"/>
<path id="font_4_85" d="M.25498963 .4501953H.1539917V.5661926C.1539917 .57418826 .1539917 .5791931 .14698792 .5791931 .10998535 .5261841 .09498596 .5041809 .056991579 .4651947 .034988405 .44319154 .0129852299 .43719483 .0129852299 .42518617 .0129852299 .42218019 .01499939 .41918946 .016998291 .41818238H.069992069V.11721802C.069992069 .017227173 .11099243-.009765625 .1619873-.009765625 .20799256-.009765625 .25498963 .023223877 .2789917 .066223148L.2659912 .07722473C.25498963 .06422424 .23699951 .04222107 .20498657 .04222107 .1539917 .04222107 .1539917 .10122681 .1539917 .1322174V.41818238H.25498963V.4501953Z"/>
<path id="font_4_74" d="M.015991211 0H.25299073V.01499939C.18399048 .018997193 .1789856 .036010744 .1789856 .10205078V.4569702L.1749878 .45996095C.12298584 .4410553 .07199097 .42216493 .019989014 .40527345V.3902588C.032989503 .3922577 .04598999 .39427186 .05999756 .39427186 .07598877 .39427186 .09498596 .39326478 .09498596 .33422853V.10205078C.09498596 .024002076 .07798767 .017990113 .015991211 .01499939V0M.07798767 .63160708C.07798767 .61260989 .09199524 .5806122 .12799073 .5806122 .1579895 .5806122 .17999268 .60261538 .17999268 .63160708 .17999268 .65960696 .1579895 .6826172 .12799073 .6826172 .09298706 .6826172 .07798767 .65060427 .07798767 .63160708Z"/>
<path id="font_4_86" d="M.47898866 .050125123C.4189911 .04812622 .4169922 .071121219 .4169922 .10713196V.4501953H.25898744V.43318177C.32899476 .43118287 .33299256 .41018678 .33299256 .37017823V.13522339C.33299256 .10221863 .32598878 .09222412 .31698609 .084228519 .2899933 .06222534 .2599945 .048233034 .22999573 .048233034 .1639862 .048233034 .15499878 .11021423 .15499878 .1242218V.4501953H.008987427V.43618775C.038986207 .43418885 .070999149 .43218995 .070999149 .37219239V.120224C.070999149 .014221191 .14898682-.009765625 .18998719-.009765625 .20799256-.009765625 .2559967-.0057678224 .29499818 .033233644L.33799745 .07621765V-.0067749025L.33999635-.008773804C.3869934 .008117676 .4249878 .022125245 .47898866 .036132814V.050125123Z"/>
<path id="font_4_70" d="M.4079895 .16427613C.3849945 .1272583 .34199525 .05921936 .25299073 .05921936 .18699646 .05921936 .10598755 .100250247 .09399414 .27734376H.40499879C.3939972 .40800477 .32299806 .45996095 .22898865 .45996095 .14898682 .45996095 .024993897 .3990326 .024993897 .21430969 .024993897 .07223511 .100997928-.009765625 .21199036-.009765625 .35598756-.009765625 .4139862 .12626648 .42399598 .15727234L.4079895 .16427613M.09700012 .30934144C.11299133 .39704896 .1519928 .4239502 .20698548 .4239502 .28599549 .4239502 .29599 .35717774 .30299378 .30934144H.09700012Z"/>
<path id="font_4_81" d="M.07499695-.13079834C.07499695-.1737976 .070999149-.19480896 .004989624-.19979859V-.21679688H.24699402V-.19880677C.1749878-.19880677 .15899658-.18780518 .15899658-.123794559V.033218385C.19198609 .0012207031 .21998596-.009765625 .2599945-.009765625 .39898683-.009765625 .46998597 .13014221 .46998597 .24507141 .46998597 .3779602 .3939972 .45996095 .30499269 .45996095 .22799683 .45996095 .18199158 .4109497 .16099549 .3829651L.15899658 .384964V.45794679L.15299988 .45996095C.10499573 .44117738 .056991579 .42417909 .008987427 .4091797V.39317323C.017990113 .39416505 .027999878 .39416505 .036987306 .39416505 .07199097 .39416505 .07499695 .377182 .07499695 .33717347V-.13079834M.15899658 .33399964C.16499329 .37197877 .22099304 .39994813 .25698854 .39994813 .3789978 .39994813 .38398744 .23806763 .38398744 .21508789 .38398744 .04121399 .2939911 .022232056 .26098634 .022232056 .20599365 .022232056 .15899658 .065200809 .15899658 .08818054V.33399964Z"/>
<path id="font_4_83" d="M.07598877 .083984378C.07598877 .02798462 .05999756 .024993897 .004989624 .01499939V0H.24499512V.01499939C.19400025 .016998291 .1599884 .020996094 .1599884 .08998108V.31495667C.1599884 .34695436 .20399475 .3969574 .22799683 .3969574 .2519989 .3969574 .2619934 .36195375 .29699708 .36195375 .32099916 .36195375 .33499146 .38095094 .33499146 .40596009 .33499146 .43894959 .31498719 .45996095 .2809906 .45996095 .24299622 .45996095 .20899964 .43995667 .1619873 .36895753H.1599884V.45794679L.15499878 .45996095C.10598755 .44024659 .055999757 .4222412 .0069885256 .40625V.39024354C.015991211 .39224244 .026992798 .39424134 .040985109 .39424134 .056991579 .39424134 .07598877 .39323426 .07598877 .334198V.083984378Z"/>
<path id="font_4_67" d="M.15299988 .32200624C.15699768 .3789673 .22099304 .3969574 .25299073 .3969574 .34399415 .3969574 .37998963 .2940216 .37998963 .20109558 .37998963 .1351471 .3639984 .022232056 .24899292 .022232056 .22399903 .022232056 .15299988 .035217287 .15299988 .07019043V.32200624M.068984989 .05419922C.068984989 .017227173 .17399597-.009765625 .22399903-.009765625 .40899659-.009765625 .46798707 .14813233 .46798707 .23806763 .46798707 .34498597 .41099549 .45996095 .2899933 .45996095 .21398926 .45996095 .16099549 .40194703 .15499878 .3789673H.15299988V.6806183L.147995 .6826172C.099990848 .66563418 .050994874 .65164187 .0029907227 .6386719V.6226654C.008987427 .6236572 .018997193 .6236572 .024993897 .6236572 .068984989 .6236572 .068984989 .6027069 .068984989 .5727539V.05419922Z"/>
<path id="font_4_77" d="M.020996094 0H.25698854V.01499939C.19898987 .017990113 .18199158 .025985718 .18199158 .08395386V.680603L.17799378 .6826172C.125 .66563418 .07199097 .65164187 .018997193 .6386719V.6226654C.0309906 .6236725 .039993287 .6246643 .052993776 .6246643 .09199524 .6246643 .09799194 .6086731 .09799194 .56370547V.08695984C.09799194 .031982423 .07998657 .018997193 .020996094 .01499939V0Z"/>
<path id="font_4_78" d="M.085998538 .084991458C.085998538 .017990113 .055999757 .015991211 .015991211 .01499939V0H.23799134V.01499939C.20298767 .015991211 .16999817 .017990113 .16999817 .066986087V.34895326C.16999817 .35395814 .21598816 .40795899 .2849884 .40795899 .33699037 .40795899 .35398866 .36895753 .35398866 .30296327V.08598328C.35398866 .020996094 .33099366 .017990113 .28599549 .01499939V0H.5099945V.01499939C.46899415 .015991211 .43798829 .018997193 .43798829 .09498596V.34695436C.45999146 .38095094 .49398805 .40795899 .548996 .40795899 .62098696 .40795899 .621994 .34895326 .621994 .29795838V.08699036C.621994 .022994996 .60598757 .020996094 .55599978 .01499939V0H.7749939V.01499939L.7489929 .016998291C.7049866 .023986817 .70599368 .053985597 .70599368 .07598877V.28196717C.70599368 .35595704 .69200137 .45996095 .58799746 .45996095 .5089874 .45996095 .44799806 .39994813 .4269867 .3759613 .41600038 .4179535 .3849945 .45996095 .31999208 .45996095 .2659912 .45996095 .22499085 .427948 .1659851 .38294984V.45794679L.15899658 .45996095C.11299133 .44303895 .06599426 .4280243 .018997193 .41503907V.3980255C.026992798 .40003968 .036987306 .40203858 .050994874 .40203858 .066986087 .40203858 .085998538 .4010315 .085998538 .33802796V.084991458Z"/>
<path id="font_4_21" d="M.47200013 .23098755H.36999513V.67578127H.32598878L.011993408 .23098755V.16699219H.29299928V0H.36999513V.16699219H.47200013V.23098755M.2919922 .23098755H.051986696L.2899933 .57081606H.2919922V.23098755Z"/>
<path id="font_4_66" d="M.2869873 .1230011C.2869873 .09309387 .28399659 .08113098 .25299073 .06617737 .24398804 .061187746 .21299744 .048217775 .19099427 .048217775 .1539917 .048217775 .125 .07913208 .125 .12599182V.12799073C.125 .1618805 .13598633 .21772766 .2869873 .26757813V.1230011M.44198609 .06617737C.43099977 .05718994 .41799928 .047225954 .39698792 .047225954 .36799623 .047225954 .36799623 .07614136 .36799623 .10505676V.29963685C.36799623 .359787 .36799623 .45996095 .21899414 .45996095 .102996829 .45996095 .055999757 .38883973 .055999757 .34875489 .055999757 .3327179 .067993167 .30465699 .09899902 .30465699 .125 .30465699 .14399719 .32670594 .14399719 .3477478 .14399719 .356781 .13899231 .3718109 .13899231 .38684083 .13899231 .4179077 .1769867 .43595887 .20999146 .43595887 .23999024 .43595887 .2869873 .42492677 .2869873 .35276795V.29162599C.12399292 .22769165 .036987306 .19378662 .036987306 .09408569 .036987306 .02722168 .08898926-.009765625 .14299011-.009765625 .19799805-.009765625 .25099183 .030227662 .28799439 .063186649 .29299928-.008773804 .33499146-.009765625 .35299684-.009765625 .36898805-.009765625 .3999939-.008773804 .44198609 .040222169V.06617737Z"/>
<path id="font_4_72" d="M.09799194-.08985901C.09799194-.059890748 .115997318-.03892517 .14698792-.001953125 .19400025-.011657715 .21598816-.011657715 .30999757-.0146484379 .38398744-.016662598 .43299867-.018661499 .43299867-.063705448 .43299867-.116744998 .36499024-.16078186 .24798584-.16078186 .13398743-.16078186 .09799194-.12081909 .09799194-.08985901M.1519928 .3421173C.1519928 .40899659 .19099427 .4319458 .22698975 .4319458 .31298829 .4319458 .32899476 .29818727 .32899476 .27023316 .32899476 .24827576 .32398988 .17440796 .2559967 .17440796 .17799378 .17440796 .1519928 .26324464 .1519928 .3421173M.46998597 .38775636V.4267578H.3929901C.3769989 .4267578 .35899354 .428833 .33799745 .43695069 .2979889 .45195008 .27598573 .45996095 .24099732 .45996095 .16499329 .45996095 .068984989 .4119873 .068984989 .29319764 .068984989 .23530579 .102996829 .18937683 .1619873 .16340637 .07299805 .084365848 .07299805 .0713501 .07299805 .054336549 .07299805 .02633667 .09899902 .014343262 .12599182 .0013427734 .07499695-.03466797 .027999878-.07571411 .027999878-.1207428 .027999878-.17378235 .102996829-.21777344 .20498657-.21777344 .29499818-.21777344 .46099855-.16177368 .46099855-.048690797 .46099855-.0206604 .44699098 .053344728 .33999635 .05834961L.21099854 .06434631C.18099976 .06535339 .1329956 .068344119 .1329956 .09136963 .1329956 .1113739 .17298889 .15240479 .19299317 .15440369 .19898987 .15440369 .23498535 .14941406 .24699402 .14941406 .30299378 .14941406 .4059906 .18836975 .4059906 .29603578 .4059906 .34588624 .39698792 .3648224 .3869934 .38775636H.46998597Z"/>
<path id="font_4_18" d="M.117996219 0H.3939972V.01499939C.31900025 .01499939 .29899598 .025985718 .29899598 .07397461V.67378237L.29100038 .67578127 .11099243 .58480837V.57081606C.16699219 .59280398 .16699219 .59280398 .1789856 .59280398 .21299744 .59280398 .21299744 .56681826 .21299744 .54582217V.0929718C.21299744 .018997193 .17599488 .016998291 .117996219 .01499939V0Z"/>
<path id="font_4_24" d="M.44898988 .6621094H.07899475L.06298828 .618103 .019989014 .5151062 .036987306 .5071106C.069992069 .55911257 .08799744 .58810427 .15299988 .58810427H.36999513L.17199707-.0078125H.23699951L.44898988 .6461029V.6621094Z"/>
<path id="font_4_15" d="M.125-.0107421879C.1459961-.0107421879 .18099976 .0062561037 .18099976 .04324341 .18099976 .07424927 .15499878 .100250247 .125 .100250247 .09498596 .100250247 .069992069 .07525635 .069992069 .04324341 .069992069 .0052490236 .10398865-.0107421879 .125-.0107421879Z"/>
<path id="font_2_14" d="M.30599977 .34483338H.026992798V.21484375H.30599977V.34483338Z"/>
<path id="font_2_18" d="M.068984989 .48890687H.23799134V0H.37799073V.70996096H.2630005C.2599945 .65693667 .22399903 .58691409 .08898926 .58691409H.068984989V.48890687Z"/>
<path id="font_2_23" d="M.5059967 .53009036C.49299623 .60494998 .47898866 .62594607 .43998719 .6639557 .40499879 .69895938 .32398988 .70996096 .29499818 .70996096 .04899597 .70996096 .0309906 .4731903 .0309906 .33836366 .0309906 .16142273 .07299805-.018554688 .28799439-.018554688 .4249878-.018554688 .519989 .08543396 .519989 .24038697 .519989 .34664918 .44999696 .45965577 .30299378 .45965577 .22399903 .45965577 .18899536 .426651 .16999817 .40065003L.16799927 .40264894C.17298889 .49447633 .19400025 .59794619 .2849884 .59794619 .33699037 .59794619 .36299134 .5700989 .36698915 .5302887L.5059967 .53009036M.37998963 .22854615C.37998963 .1324768 .33299256 .093444827 .28199769 .093444827 .21499634 .093444827 .17098999 .14848328 .17098999 .22555542 .17098999 .31462098 .22499085 .34765626 .27799989 .34765626 .32199098 .34765626 .37998963 .31861878 .37998963 .22854615Z"/>
<path id="font_4_53" d="M.45199586 .018997193C.36799623 .021987915 .35598756 .041000368 .35598756 .10900879V.6201019H.4099884C.519989 .6201019 .5479889 .60209658 .56900027 .4920807H.59298709L.58699038 .6621094H.022994996L.016998291 .4920807H.040985109C.06298828 .60110476 .08999634 .6201019 .19999695 .6201019H.2539978V.120010379C.2539978 .04598999 .25099183 .022994996 .1599884 .018997193V0H.45199586V.018997193Z"/>
<path id="font_4_73" d="M.4869995 .01499939C.43699647 .023986817 .4269867 .0289917 .4269867 .101989749V.30096437C.4269867 .34095765 .42599488 .45996095 .30299378 .45996095 .24299622 .45996095 .19400025 .427948 .15899658 .3779602H.15699768V.6796112L.1519928 .6826172C.10398865 .66563418 .054992677 .65164187 .009994507 .6386719V.6226654C.0129852299 .6236572 .022994996 .6236572 .0289917 .6236572 .07299805 .6236572 .07299805 .6027069 .07299805 .5727539V.101989749C.07299805 .0289917 .06298828 .021987915 .008987427 .01499939V0H.22499085V.01499939C.17599488 .019989014 .15699768 .024993897 .15699768 .101989749V.34295655C.19799805 .3909607 .23699951 .40596009 .2659912 .40596009 .32099916 .40596009 .34298707 .36695863 .34298707 .29995729V.101989749C.34298707 .024993897 .32398988 .019989014 .2749939 .01499939V0H.4869995V.01499939Z"/>
<path id="font_4_71" d="M.30899049 .4501953H.18598938V.56585696C.18598938 .6027527 .19099427 .65460208 .24598694 .65460208 .29299928 .65460208 .2979889 .5798187 .33999635 .5798187 .3600006 .5798187 .3829956 .5927887 .3829956 .6217041 .3829956 .65560916 .33898927 .6826172 .2829895 .6826172 .102996829 .6826172 .102996829 .5060272 .102996829 .4501953H.020996094V.41818238H.102996829V.104034427C.102996829 .026992798 .085998538 .017990113 .019989014 .01499939V0H.27999879V.01499939C.18798828 .016998291 .18699646 .042999269 .18699646 .104034427V.41818238H.30899049V.4501953Z"/>
<path id="font_4_68" d="M.397995 .15615845C.3639984 .10519409 .32699586 .06222534 .25498963 .06222534 .17098999 .06222534 .101989749 .13816834 .101989749 .25308229 .101989749 .39997865 .19400025 .43095399 .23098755 .43095399 .28399659 .43095399 .2889862 .41296388 .29699708 .3829956L.30299378 .3610077C.30899049 .33901979 .32598878 .31303407 .35198976 .31503297 .38198854 .31703187 .397995 .33602906 .397995 .3590088 .397995 .3769989 .3849945 .40797425 .35499574 .42895509 .32998658 .4449463 .2849884 .45996095 .24899292 .45996095 .14099121 .45996095 .024993897 .3769989 .024993897 .2131195 .024993897 .055221559 .13198853-.009765625 .21199036-.009765625 .29299928-.009765625 .35798646 .033233644 .4119873 .14717102L.397995 .15615845Z"/>
<path id="font_5_71" d="M.034988405 .39572145H.125L.036987306-.024108887C.0289917-.064086917 .0029907227-.18603516-.06100464-.18603516-.073013309-.18603516-.08000183-.17803955-.08000183-.17004395-.08000183-.15904236-.071014408-.15904236-.071014408-.14205933-.071014408-.11706543-.09701538-.10406494-.11100769-.10507202-.14700318-.10707092-.14700318-.14505005-.14700318-.14805603-.14100647-.19404602-.1000061-.20703125-.069000247-.20703125 .04798889-.20703125 .10398865-.0460968 .13198853 .07585144L.20399475 .39572145H.31298829L.31900025 .42773438H.21099854C.21998596 .47872926 .25 .6557312 .33198548 .6557312 .34498597 .6557312 .35499574 .6517334 .35499574 .64372256 .35499574 .63272097 .34498597 .63272097 .34498597 .61073306 .34498597 .59973147 .35099793 .5727234 .3829956 .5727234 .4059906 .5727234 .42399598 .59272769 .42399598 .61273196 .42399598 .63272097 .4079895 .6777344 .33599855 .6777344 .20999146 .6777344 .1599884 .51272585 .13398743 .42773438H.041992189L.034988405 .39572145Z"/>
<path id="font_4_84" d="M.31498719 .31404115 .31098939 .45117188H.2999878C.29699708 .44696046 .2919922 .43995667 .2829895 .43995667 .2659912 .43995667 .23498535 .45996095 .19099427 .45996095 .09399414 .45996095 .050994874 .39398194 .050994874 .3380127 .050994874 .2640686 .10598755 .22709656 .16799927 .19210816L.22599793 .15913391C.2579956 .1411438 .27799989 .11715698 .27799989 .08517456 .27799989 .028213501 .23098755 .01222229 .19699097 .01222229 .09899902 .01222229 .07998657 .09916687 .067993167 .15213013H.051986696V-.00390625H.06498718C.070999149 .0052337648 .07499695 .008224487 .08699036 .008224487 .114990238 .009231567 .1579895-.009765625 .20298767-.009765625 .2669983-.009765625 .34799195 .032211305 .34799195 .119155887 .34799195 .17912293 .31298829 .20710755 .2639923 .2370758L.1559906 .30104066C.11898804 .32302857 .11299133 .352005 .11299133 .37199403 .11299133 .39797975 .13398743 .43695069 .18899536 .43695069 .23298645 .43695069 .27799989 .41596986 .2999878 .31404115H.31498719Z"/>
<path id="font_4_69" d="M.33999635 .10218811C.33198548 .066207889 .29299928 .04222107 .25099183 .04222107 .18499756 .04222107 .11299133 .09819031 .11299133 .24708557 .11299133 .3829956 .18099976 .4319458 .23699951 .4319458 .28399659 .4319458 .33299256 .39997865 .33999635 .33203126V.10218811M.4909973 .0579834C.42399598 .052978517 .42399598 .07298279 .42399598 .113983158V.6806183L.4189911 .6826172C.37098695 .66563418 .32199098 .65164187 .27198792 .6386719V.6226654C.27999879 .6236572 .2899933 .6236572 .29599 .6236572 .33999635 .6236572 .33999635 .6027069 .33999635 .5727539V.41696168C.30699159 .44595338 .2769928 .45996095 .23399353 .45996095 .12199402 .45996095 .026992798 .34501649 .026992798 .21411133 .026992798 .010223389 .16999817-.009765625 .20899964-.009765625 .2829895-.009765625 .31999208 .02722168 .33799745 .054214479H.33999635V-.0067749025L.34399415-.009765625C.39698792 .008987427 .44299317 .024978638 .4909973 .041992189V.0579834Z"/>
<path id="font_4_90" d="M.47499085 .4501953H.33999635V.43518067C.37199403 .43618775 .3880005 .42619325 .3880005 .4071808 .3880005 .39819337 .375 .36619569 .36499024 .33918763L.2869873 .11720276 .17199707 .37019349C.16899109 .37719728 .1619873 .39318849 .1619873 .40618897 .1619873 .43318177 .19699097 .43418885 .21998596 .43518067V.4501953H.01399231V.43618775C.026992798 .43418885 .052993776 .42918397 .06498718 .40419007L.1789856 .15820313C.19299317 .12719727 .24099732 .035202028 .24099732 .020202637 .24099732 .004211426 .20098877-.1337738 .14898682-.1337738 .13598633-.1337738 .10499573-.11578369 .07798767-.11578369 .03199768-.11578369 .02999878-.15377808 .02999878-.15977478 .02999878-.18577576 .052993776-.21777344 .102996829-.21777344 .17799378-.21777344 .22200012-.15177918 .272995-.017791748L.4269867 .3901825C.44198609 .43118287 .46199037 .43318177 .47499085 .43518067V.4501953Z"/>
<path id="font_6_11" d="M.30000306-.17440796 .29000855-.19140625C.2773336-.19273885 .2506663-.17340088 .21000672-.13339234 .16466777-.0900472 .13066609-.047032674 .10800171-.004348755 .07132975 .06566874 .052993776 .1473592 .052993776 .24072266 .052993776 .3340861 .07132975 .41577659 .10800171 .48579408 .13066609 .52847799 .16466777 .5714925 .21000672 .61483767 .2506663 .6548462 .2773336 .67418417 .29000855 .67285159L.30000306 .6558533C.2500051 .61583456 .21366883 .5734863 .19099427 .5288086 .18433126 .5154724 .17399597 .48546348 .1599884 .43878175 .1446584 .3881022 .13699341 .32208253 .13699341 .24072266 .13699341 .1593628 .1446584 .0933431 .1599884 .042663576 .17399597-.004018148 .18433126-.0340271 .19099427-.04736328 .21366883-.092041019 .2500051-.13438924 .30000306-.17440796Z"/>
<path id="font_6_12" d="M.039993287-.19140625 .02999878-.17440796C.07999674-.13438924 .11632792-.092041019 .13899231-.04736328 .14566548-.0340271 .15600078-.004018148 .16999817 .042663576 .18532817 .0933431 .19299317 .15935771 .19299317 .2407074 .19299317 .32272849 .18532817 .38907878 .16999817 .4397583 .15600078 .48644004 .14566548 .516449 .13899231 .52978518 .11632792 .5744629 .07999674 .6168111 .02999878 .65682986L.039993287 .6738281C.05265808 .6751607 .079325359 .65582278 .11999512 .6158142 .1653239 .57246908 .19932556 .5294545 .22200012 .48677064 .2586619 .41675315 .2769928 .33473207 .2769928 .2407074 .2769928 .14735413 .2586619 .06566874 .22200012-.004348755 .19932556-.047032674 .1653239-.0900472 .11999512-.13339234 .079325359-.17340088 .05265808-.19273885 .039993287-.19140625Z"/>
<path id="font_4_19" d="M.47499085 .13696289 .46199037 .14196778C.4229889 .07899475 .4039917 .07598877 .36698915 .07598877H.12799073L.29599 .2519226C.33999635 .29890443 .42399598 .38986207 .42399598 .4958191 .42399598 .6077728 .33399964 .67578127 .24299622 .67578127 .15499878 .67578127 .06098938 .6277771 .0309906 .4768219L.051986696 .47183229C.07398987 .5258026 .10398865 .6017761 .19499207 .6017761 .31298829 .6017761 .33799745 .5098114 .33799745 .4588318 .33799745 .38386537 .29499818 .29389955 .20799256 .200943L.02999878 .011993408V0H.41999818L.47499085 .13696289Z"/>
<path id="font_4_22" d="M.18099976 .58309939H.3769989C.3880005 .58309939 .39698792 .58309939 .3999939 .59210208L.43798829 .68110659 .42900086 .6880951C.41799928 .6730957 .40899659 .6621094 .3829956 .6621094H.17399597L.06498718 .4251709C.06199646 .4181671 .06498718 .4121704 .070999149 .4121704 .1789856 .4081726 .35598756 .3611908 .35598756 .20124817 .35598756 .07929993 .28199769 .02331543 .21699524 .02331543 .16299439 .02331543 .13598633 .08529663 .07199097 .08529663 .03199768 .08529663 .03199768 .05630493 .03199768 .046310426 .03199768 .010314941 .07899475-.013671875 .1579895-.013671875 .31599427-.013671875 .42599488 .092300418 .42599488 .22525025 .42599488 .31420899 .4149933 .34320069 .37199403 .39517213 .31298829 .46714784 .21899414 .48414613 .13899231 .49813844L.18099976 .58309939Z"/>
<path id="font_5_89" d="M.4019928 .11128235C.375 .08126831 .35499574 .04425049 .33399964 .04425049 .31399537 .04425049 .30699159 .06925964 .30299378 .08526611 .29699708 .11027527 .2630005 .24633789 .2630005 .26434327 .2630005 .26434327 .33099366 .38539125 .3600006 .38539125 .38198854 .38539125 .3889923 .36839295 .41299439 .36839295 .43699647 .36839295 .44699098 .3874054 .44699098 .4053955 .44699098 .42939759 .4249878 .44140626 .4059906 .44140626 .35398866 .44140626 .30699159 .3804016 .25498963 .2983551L.24398804 .3533783C.22599793 .44140626 .21099854 .44140626 .18899536 .44140626 .15699768 .44140626 .09098816 .41740418 .06399536 .4084015L.067993167 .3934021C.099990848 .4013977 .11399841 .4044037 .12298584 .4044037 .1499939 .4044037 .1539917 .39039613 .16299439 .359375 .1639862 .35438539 .19799805 .22132874 .19799805 .21232605 .10798645 .08126831 .08198547 .04725647 .06498718 .04725647 .04699707 .04725647 .0289917 .06625366 .0069885256 .06625366-.015014648 .06625366-.027008057 .04824829-.027008057 .03225708-.027008057 .008255005-.011001587-.0107421879 .021987915-.0107421879 .052993776-.0107421879 .06498718 .00024414063 .08198547 .019256592 .115997318 .056259157 .1579895 .11027527 .20599365 .17630005L.23599243 .056259157C.24899292 .003250122 .2639923-.0107421879 .29299928-.0107421879 .31599427-.0107421879 .34498597-.0107421879 .41600038 .103271488L.4019928 .11128235Z"/>
<path id="font_6_32" d="M.53700259 .38964845V.3350067H.011001587V.38964845H.53700259M.53700259 .19599915V.140625H.011001587V.19599915H.53700259Z"/>
<path id="font_6_16" d="M.011001587 .23339844V.28808595H.53500369V.23339844H.011001587Z"/>
<path id="font_6_133" d="M.029006958 0V.054992677H.526001V0H.029006958M.029006958 .3468628V.40881349L.526001 .6386719V.57670596L.09300232 .37783814 .526001 .17897034V.117004398L.029006958 .3468628Z"/>
<path id="font_4_9" d="M.29499818 .67578127C.13999939 .58377078 .04798889 .43377687 .04798889 .2617798 .04798889 .1237793 .08099365 .05177307 .12998963-.020233155 .16799927-.07623291 .23399353-.14622498 .2919922-.17723084L.3039856-.16122437C.13398743-.052230836 .13398743 .16677857 .13398743 .2687683 .13398743 .5227661 .22999573 .60076907 .3039856 .6597748L.29499818 .67578127Z"/>
<path id="font_4_10" d="M.037994386-.17723084C.19299317-.08522034 .2849884 .06477356 .2849884 .23677063 .2849884 .37477113 .2519989 .44677735 .20298767 .5187683 .16499329 .57476809 .09899902 .6447754 .040985109 .67578127L.0289917 .6597748C.19898987 .550766 .19898987 .33177186 .19898987 .22976685 .19898987-.024230957 .102996829-.10223389 .0289917-.16122437L.037994386-.17723084Z"/>
<path id="font_4_39" d="M.47898866 .23109436V.4631195H.45599366C.44599916 .38813783 .42799378 .36813355 .34599305 .36813355H.20098877V.59010317C.20098877 .6201019 .20799256 .62409976 .23298645 .62409976H.36898805C.47999574 .62409976 .5059967 .6081085 .5209961 .51911929H.54599L.54299929 .6621094H.011993408V.6430969C.07499695 .6381073 .09899902 .63209536 .09899902 .55311587V.12004089C.09899902 .037994386 .08699036 .022994996 .011993408 .018997193V0H.2919922V.018997193C.22099304 .021987915 .20098877 .033996583 .20098877 .10903931V.32814027L.34599305 .32614137C.42099 .32513429 .44499208 .31513978 .45599366 .23109436H.47898866Z"/>
<path id="font_6_132" d="M.22499085 .66926577 .06399536 .46499635C.06065877 .46098838 .055989583 .45898438 .049987794 .45898438 .034657796 .45898438 .026992798 .46532694 .026992798 .47801209 .026992798 .48001609 .027328492 .48202006 .027999878 .48402406L.13600159 .7243347C.139328 .73167929 .1483256 .73535159 .16299439 .73535159 .17899578 .73535159 .19166057 .7323456 .20098877 .7263336 .20632935 .722997 .21216329 .71632388 .2184906 .7063141 .22482808 .6963043 .22799683 .68762716 .22799683 .6802826 .22799683 .6756032 .22699483 .67193099 .22499085 .66926577Z"/>
<path id="font_4_56" d="M.9319916 .6621094H.73399356V.6430969C.7679901 .6401062 .8029938 .6361084 .8029938 .5971222 .8029938 .5761261 .79499819 .5461273 .7869873 .5251312L.6619873 .186203 .5299988 .5271301C.5149994 .56611636 .5029907 .5881195 .5029907 .6051178 .5029907 .6411133 .548996 .6430969 .5799866 .6430969V.6621094H.31298829V.6430969C.3659973 .6421051 .3809967 .6361084 .4139862 .5531311L.44699098 .47114564 .33999635 .18920899 .19599915 .5651245C.19099427 .578125 .18499756 .5951233 .18499756 .6091156 .18499756 .6351013 .20498657 .6411133 .25 .6430969V.6621094H.004989624V.6430969C.06199646 .6381073 .07598877 .6091156 .10798645 .5261383 .1459961 .42614747 .25 .14221192 .30099488-.0107421879H.31599427L.46998597 .41215516C.5130005 .30317689 .59498599 .0932312 .6299896-.0107421879H.644989C.70399478 .1822052 .7839966 .39616395 .8529968 .5821228 .86698916 .621109 .8829956 .6351013 .9319916 .6430969V.6621094Z"/>
<path id="font_4_82" d="M.3600006 .42495729C.32099916 .44696046 .2979889 .45996095 .24699402 .45996095 .12199402 .45996095 .023986817 .3500061 .023986817 .21211243 .023986817 .06121826 .09899902-.009765625 .18798828-.009765625 .24899292-.009765625 .31900025 .032226564 .33599855 .06222534H.34098817V-.123794559C.34098817-.1737976 .32699586-.19680786 .2519989-.19979859V-.21679688H.48799134V-.20280457C.44299317-.19281006 .4249878-.188797 .4249878-.14079285V.4560547L.42099 .4600525 .4139862 .4570465 .3600006 .42495729M.34098817 .12719727C.33999635 .095214847 .33999635 .079208377 .28799439 .06022644 .269989 .053222658 .25299073 .051223756 .23799134 .051223756 .14898682 .051223756 .10998535 .1461792 .10998535 .23814392 .10998535 .3590088 .1639862 .4319458 .24499512 .4319458 .33999635 .4319458 .34098817 .3610077 .34098817 .33302308V.12719727Z"/>
<path id="font_4_20" d="M.15299988 .33003236C.22200012 .33203126 .24699402 .32704164 .2829895 .3080597 .34700013 .27508546 .35899354 .20115662 .35899354 .17617798 .35899354 .101242069 .31799317 .022323609 .22499085 .022323609 .1659851 .022323609 .12799073 .07826233 .08198547 .07826233 .06599426 .07826233 .042999269 .0712738 .042999269 .043304445 .042999269-.008682251 .12998963-.013671875 .1539917-.013671875 .31098939-.013671875 .43099977 .074279788 .43099977 .21614075 .43099977 .34802247 .34599305 .38298036 .3039856 .40097047 .36999513 .44392396 .39698792 .4868927 .39698792 .5408478 .39698792 .58180239 .36999513 .67578127 .24099732 .67578127 .17399597 .67578127 .084991458 .6447754 .04499817 .51387026L.05999756 .50987246C.07499695 .5378418 .116989139 .61576846 .20799256 .61576846 .28199769 .61576846 .31799317 .56282046 .31799317 .51187136 .31799317 .4199524 .24299622 .37199403 .1519928 .34301759L.15299988 .33003236Z"/>
<path id="font_4_37" d="M.015991211 0H.2999878C.60598757 0 .68499758 .1960144 .68499758 .32904054 .68499758 .5530853 .526001 .6621094 .28599549 .6621094H.015991211V.6430969C.09298706 .6371002 .10398865 .6271057 .10398865 .5530853V.10900879C.10398865 .039001466 .09199524 .022994996 .015991211 .018997193V0M.20599365 .5860901C.20599365 .60609439 .20599365 .6251068 .25299073 .6251068 .3789978 .6251068 .43499757 .59809878 .48298646 .5550842 .5519867 .4930725 .57598879 .4120636 .57598879 .3280487 .57598879 .036987306 .32998658 .036987306 .2659912 .036987306 .21798706 .036987306 .20599365 .04399109 .20599365 .07800293V.5860901Z"/>
<path id="font_4_88" d="M.57099917 .4501953V.43518067C.59498599 .43017579 .61499026 .42616273 .61499026 .40208436 .61499026 .39004518 .60899356 .36296083 .59799197 .33787538L.5079956 .115997318 .42799378 .32984925C.41299439 .36897279 .40699769 .38000489 .40699769 .3980713 .40699769 .4271698 .43199159 .43017579 .46499635 .43518067V.4501953H.2619934V.43518067C.30299378 .43017579 .31399537 .42315675 .35099793 .30978395L.2599945 .11100769C.21398926 .2387085 .15499878 .3659668 .15499878 .40107728 .15499878 .4291687 .17799378 .43318177 .20098877 .43518067V.4501953H.020996094V.43518067C.04598999 .43318177 .053985597 .4201355 .07398987 .37197877L.20899964 .030212403C.22299195-.0037078858 .22799683-.013671875 .23498535-.013671875 .24099732-.013671875 .24598694-.0027008057 .2599945 .025222779L.37199403 .26464845 .46299745 .029220581C.47698976-.0066986086 .47898866-.013671875 .4869995-.013671875 .49499513-.013671875 .49899293-.0037078858 .5149994 .035202028L.6529999 .38101197C.66799929 .4181366 .6729889 .42816163 .69400027 .43518067V.4501953H.57099917Z"/>
</defs>
<g clip-path="url(#clip_1)">
<use data-text="U" xlink:href="#font_2_54" transform="matrix(6.9146,0,0,-6.8478,54.0204,745.7717)" fill="#231f20"/>
<use data-text="n" xlink:href="#font_2_79" transform="matrix(6.9146,0,0,-6.8478,59.01274,745.7717)" fill="#231f20"/>
<use data-text="a" xlink:href="#font_2_66" transform="matrix(6.9146,0,0,-6.8478,63.23756,745.7717)" fill="#231f20"/>
<use data-text="u" xlink:href="#font_2_86" transform="matrix(6.9146,0,0,-6.8478,67.08208,745.7717)" fill="#231f20"/>
<use data-text="t" xlink:href="#font_2_85" transform="matrix(6.9146,0,0,-6.8478,71.3069,745.7717)" fill="#231f20"/>
<use data-text="h" xlink:href="#font_2_73" transform="matrix(6.9146,0,0,-6.8478,73.60946,745.7717)" fill="#231f20"/>
<use data-text="o" xlink:href="#font_2_80" transform="matrix(6.9146,0,0,-6.8478,77.83428,745.7717)" fill="#231f20"/>
<use data-text="r" xlink:href="#font_2_83" transform="matrix(6.9146,0,0,-6.8478,82.059108,745.7717)" fill="#231f20"/>
<use data-text="i" xlink:href="#font_2_74" transform="matrix(6.9146,0,0,-6.8478,84.748889,745.7717)" fill="#231f20"/>
<use data-text="z" xlink:href="#font_2_91" transform="matrix(6.9146,0,0,-6.8478,86.67114,745.7717)" fill="#231f20"/>
<use data-text="e" xlink:href="#font_2_70" transform="matrix(6.9146,0,0,-6.8478,90.197589,745.7717)" fill="#231f20"/>
<use data-text="d" xlink:href="#font_2_69" transform="matrix(6.9146,0,0,-6.8478,94.04211,745.7717)" fill="#231f20"/>
<use data-text=" " xlink:href="#font_2_1" transform="matrix(6.9146,0,0,-6.8478,98.26693,745.7717)" fill="#231f20"/>
<use data-text="c" xlink:href="#font_2_68" transform="matrix(6.9146,0,0,-6.8478,100.189189,745.7717)" fill="#231f20"/>
<use data-text="o" xlink:href="#font_2_80" transform="matrix(6.9146,0,0,-6.8478,104.03371,745.7717)" fill="#231f20"/>
<use data-text="p" xlink:href="#font_2_81" transform="matrix(6.9146,0,0,-6.8478,108.25853,745.7717)" fill="#231f20"/>
<use data-text="y" xlink:href="#font_2_90" transform="matrix(6.9146,0,0,-6.8478,112.37963,745.7717)" fill="#231f20"/>
<use data-text="i" xlink:href="#font_2_74" transform="matrix(6.9146,0,0,-6.8478,116.22415,745.7717)" fill="#231f20"/>
<use data-text="n" xlink:href="#font_2_79" transform="matrix(6.9146,0,0,-6.8478,118.14641,745.7717)" fill="#231f20"/>
<use data-text="g" xlink:href="#font_2_72" transform="matrix(6.9146,0,0,-6.8478,122.37123,745.7717)" fill="#231f20"/>
<use data-text=" " xlink:href="#font_2_1" transform="matrix(6.9146,0,0,-6.8478,126.596057,745.7717)" fill="#231f20"/>
<use data-text="o" xlink:href="#font_2_80" transform="matrix(6.9146,0,0,-6.8478,128.51831,745.7717)" fill="#231f20"/>
<use data-text="r" xlink:href="#font_2_83" transform="matrix(6.9146,0,0,-6.8478,132.74314,745.7717)" fill="#231f20"/>
<use data-text=" " xlink:href="#font_2_1" transform="matrix(6.9146,0,0,-6.8478,135.4329,745.7717)" fill="#231f20"/>
<use data-text="r" xlink:href="#font_2_83" transform="matrix(6.9146,0,0,-6.8478,137.35517,745.7717)" fill="#231f20"/>
<use data-text="e" xlink:href="#font_2_70" transform="matrix(6.9146,0,0,-6.8478,140.04494,745.7717)" fill="#231f20"/>
<use data-text="u" xlink:href="#font_2_86" transform="matrix(6.9146,0,0,-6.8478,143.88945,745.7717)" fill="#231f20"/>
<use data-text="s" xlink:href="#font_2_84" transform="matrix(6.9146,0,0,-6.8478,148.11428,745.7717)" fill="#231f20"/>
<use data-text="e" xlink:href="#font_2_70" transform="matrix(6.9146,0,0,-6.8478,151.95879,745.7717)" fill="#231f20"/>
<use data-text=" " xlink:href="#font_2_1" transform="matrix(6.9146,0,0,-6.8478,155.8033,745.7717)" fill="#231f20"/>
<use data-text="o" xlink:href="#font_2_80" transform="matrix(6.9146,0,0,-6.8478,157.72556,745.7717)" fill="#231f20"/>
<use data-text="f" xlink:href="#font_2_71" transform="matrix(6.9146,0,0,-6.8478,161.95038,745.7717)" fill="#231f20"/>
<use data-text=" " xlink:href="#font_2_1" transform="matrix(6.9146,0,0,-6.8478,164.25295,745.7717)" fill="#231f20"/>
<use data-text="a" xlink:href="#font_2_66" transform="matrix(6.9146,0,0,-6.8478,54.0204,753.1057)" fill="#231f20"/>
<use data-text="n" xlink:href="#font_2_79" transform="matrix(6.9146,0,0,-6.8478,57.864919,753.1057)" fill="#231f20"/>
<use data-text="y" xlink:href="#font_2_90" transform="matrix(6.9146,0,0,-6.8478,61.951448,753.1057)" fill="#231f20"/>
<use data-text=" " xlink:href="#font_2_1" transform="matrix(6.9146,0,0,-6.8478,65.79597,753.1057)" fill="#231f20"/>
<use data-text="p" xlink:href="#font_2_81" transform="matrix(6.9146,0,0,-6.8478,67.71822,753.1057)" fill="#231f20"/>
<use data-text="a" xlink:href="#font_2_66" transform="matrix(6.9146,0,0,-6.8478,71.94305,753.1057)" fill="#231f20"/>
<use data-text="r" xlink:href="#font_2_83" transform="matrix(6.9146,0,0,-6.8478,75.78757,753.1057)" fill="#231f20"/>
<use data-text="t" xlink:href="#font_2_85" transform="matrix(6.9146,0,0,-6.8478,78.61564,753.1057)" fill="#231f20"/>
<use data-text=" " xlink:href="#font_2_1" transform="matrix(6.9146,0,0,-6.8478,80.9182,753.1057)" fill="#231f20"/>
<use data-text="o" xlink:href="#font_2_80" transform="matrix(6.9146,0,0,-6.8478,82.840457,753.1057)" fill="#231f20"/>
<use data-text="f" xlink:href="#font_2_71" transform="matrix(6.9146,0,0,-6.8478,87.06528,753.1057)" fill="#231f20"/>
<use data-text=" " xlink:href="#font_2_1" transform="matrix(6.9146,0,0,-6.8478,89.367839,753.1057)" fill="#231f20"/>
<use data-text="t" xlink:href="#font_2_85" transform="matrix(6.9146,0,0,-6.8478,91.29009,753.1057)" fill="#231f20"/>
<use data-text="h" xlink:href="#font_2_73" transform="matrix(6.9146,0,0,-6.8478,93.59265,753.1057)" fill="#231f20"/>
<use data-text="i" xlink:href="#font_2_74" transform="matrix(6.9146,0,0,-6.8478,97.817478,753.1057)" fill="#231f20"/>
<use data-text="s" xlink:href="#font_2_84" transform="matrix(6.9146,0,0,-6.8478,99.73973,753.1057)" fill="#231f20"/>
<use data-text=" " xlink:href="#font_2_1" transform="matrix(6.9146,0,0,-6.8478,103.58425,753.1057)" fill="#231f20"/>
<use data-text="p" xlink:href="#font_2_81" transform="matrix(6.9146,0,0,-6.8478,105.50651,753.1057)" fill="#231f20"/>
<use data-text="a" xlink:href="#font_2_66" transform="matrix(6.9146,0,0,-6.8478,109.73133,753.1057)" fill="#231f20"/>
<use data-text="g" xlink:href="#font_2_72" transform="matrix(6.9146,0,0,-6.8478,113.50671,753.1057)" fill="#231f20"/>
<use data-text="e" xlink:href="#font_2_70" transform="matrix(6.9146,0,0,-6.8478,117.800678,753.1057)" fill="#231f20"/>
<use data-text=" " xlink:href="#font_2_1" transform="matrix(6.9146,0,0,-6.8478,121.645198,753.1057)" fill="#231f20"/>
<use data-text="i" xlink:href="#font_2_74" transform="matrix(6.9146,0,0,-6.8478,123.56745,753.1057)" fill="#231f20"/>
<use data-text="s" xlink:href="#font_2_84" transform="matrix(6.9146,0,0,-6.8478,125.48971,753.1057)" fill="#231f20"/>
<use data-text=" " xlink:href="#font_2_1" transform="matrix(6.9146,0,0,-6.8478,129.33423,753.1057)" fill="#231f20"/>
<use data-text="i" xlink:href="#font_2_74" transform="matrix(6.9146,0,0,-6.8478,131.25649,753.1057)" fill="#231f20"/>
<use data-text="l" xlink:href="#font_2_77" transform="matrix(6.9146,0,0,-6.8478,133.17874,753.1057)" fill="#231f20"/>
<use data-text="l" xlink:href="#font_2_77" transform="matrix(6.9146,0,0,-6.8478,135.101,753.1057)" fill="#231f20"/>
<use data-text="e" xlink:href="#font_2_70" transform="matrix(6.9146,0,0,-6.8478,137.02326,753.1057)" fill="#231f20"/>
<use data-text="g" xlink:href="#font_2_72" transform="matrix(6.9146,0,0,-6.8478,140.86777,753.1057)" fill="#231f20"/>
<use data-text="a" xlink:href="#font_2_66" transform="matrix(6.9146,0,0,-6.8478,145.09259,753.1057)" fill="#231f20"/>
<use data-text="l" xlink:href="#font_2_77" transform="matrix(6.9146,0,0,-6.8478,148.9371,753.1057)" fill="#231f20"/>
<use data-text="." xlink:href="#font_2_15" transform="matrix(6.9146,0,0,-6.8478,150.85936,753.1057)" fill="#231f20"/>
<path transform="matrix(1.0048676,0,0,-.995163,0,783)" stroke-width=".786" stroke-linecap="butt" stroke-miterlimit="4" stroke-linejoin="miter" fill="none" stroke="#231f20" d="M51.593 26.705H165.623V44.85H51.593ZM165.623 26.705Z"/>
<path transform="matrix(1,0,0,-1,0,783)" d="M206.18 729.037H244.28099V761.542H206.18Z" fill="#e5e6e5"/>
<use data-text="4" xlink:href="#font_3_21" transform="matrix(27.2153,0,0,-25.6615,218.4136,47.97522)"/>
<use data-text="4" xlink:href="#font_3_21" transform="matrix(27.2153,0,0,-25.6615,170.62354,47.744264)"/>
<use data-text="4" xlink:href="#font_3_21" transform="matrix(27.2153,0,0,-25.6615,75.36999,47.744264)"/>
<path transform="matrix(1,0,0,-1,0,783)" d="M401.223 729.037H439.324V761.542H401.223Z" fill="#e5e6e5"/>
<path transform="matrix(1,0,0,-1,0,783)" d="M108.205 729.037H146.306V761.542H108.205Z" fill="#e5e6e5"/>
<use data-text="4" xlink:href="#font_3_21" transform="matrix(27.2153,0,0,-25.6615,120.4386,47.97522)"/>
<use data-text="4" xlink:href="#font_3_21" transform="matrix(27.2153,0,0,-25.6615,413.46574,48.36017)"/>
<use data-text="4" xlink:href="#font_3_21" transform="matrix(27.2153,0,0,-25.6615,268.0816,47.744264)"/>
<path transform="matrix(1,0,0,-1,0,783)" d="M498.745 729.037H536.846V761.542H498.745Z" fill="#e5e6e5"/>
<use data-text="4" xlink:href="#font_3_21" transform="matrix(27.2153,0,0,-25.6615,510.9781,48.368898)"/>
<path transform="matrix(1,0,0,-1,0,783)" d="M304.609 729.037H342.71003V761.542H304.609Z" fill="#e5e6e5"/>
<use data-text="4" xlink:href="#font_3_21" transform="matrix(27.2153,0,0,-25.6615,316.8423,48.368898)"/>
<use data-text="4" xlink:href="#font_3_21" transform="matrix(27.2153,0,0,-25.6615,366.72795,47.75299)"/>
<use data-text="4" xlink:href="#font_3_21" transform="matrix(27.2153,0,0,-25.6615,463.79676,47.75299)"/>
<use data-text=" " xlink:href="#font_4_1" transform="matrix(10.9591,0,0,-10.98,537.2999,55.5)"/>
<use data-text="N" xlink:href="#font_3_47" transform="matrix(13.9535,0,0,-13.98,205.68,68.58002)"/>
<use data-text="O" xlink:href="#font_3_48" transform="matrix(13.9535,0,0,-13.98,215.79767,68.58002)"/>
<use data-text=" " xlink:href="#font_3_1" transform="matrix(13.9535,0,0,-13.98,226.69675,68.58002)"/>
<use data-text="C" xlink:href="#font_3_36" transform="matrix(13.9535,0,0,-13.98,230.20606,68.58002)"/>
<use data-text="A" xlink:href="#font_3_34" transform="matrix(13.9535,0,0,-13.98,240.32373,68.58002)"/>
<use data-text="L" xlink:href="#font_3_45" transform="matrix(13.9535,0,0,-13.98,250.4414,68.58002)"/>
<use data-text="C" xlink:href="#font_3_36" transform="matrix(13.9535,0,0,-13.98,259.79167,68.58002)"/>
<use data-text="U" xlink:href="#font_3_54" transform="matrix(13.9535,0,0,-13.98,269.90934,68.58002)"/>
<use data-text="L" xlink:href="#font_3_45" transform="matrix(13.9535,0,0,-13.98,280.027,68.58002)"/>
<use data-text="A" xlink:href="#font_3_34" transform="matrix(13.9535,0,0,-13.98,289.32145,68.58002)"/>
<use data-text="T" xlink:href="#font_3_53" transform="matrix(13.9535,0,0,-13.98,299.43913,68.58002)"/>
<use data-text="O" xlink:href="#font_3_48" transform="matrix(13.9535,0,0,-13.98,308.73356,68.58002)"/>
<use data-text="R" xlink:href="#font_3_51" transform="matrix(13.9535,0,0,-13.98,319.63264,68.58002)"/>
<use data-text=" " xlink:href="#font_3_1" transform="matrix(13.9535,0,0,-13.98,329.7503,68.58002)"/>
<use data-text="A" xlink:href="#font_3_34" transform="matrix(13.9535,0,0,-13.98,333.25959,68.58002)"/>
<use data-text="L" xlink:href="#font_3_45" transform="matrix(13.9535,0,0,-13.98,343.37727,68.58002)"/>
<use data-text="L" xlink:href="#font_3_45" transform="matrix(13.9535,0,0,-13.98,352.6717,68.58002)"/>
<use data-text="O" xlink:href="#font_3_48" transform="matrix(13.9535,0,0,-13.98,362.02195,68.58002)"/>
<use data-text="W" xlink:href="#font_3_56" transform="matrix(13.9535,0,0,-13.98,372.92103,68.58002)"/>
<use data-text="E" xlink:href="#font_3_38" transform="matrix(13.9535,0,0,-13.98,386.9178,68.58002)"/>
<use data-text="D" xlink:href="#font_3_37" transform="matrix(13.9535,0,0,-13.98,396.21223,68.58002)"/>
<use data-text=" " xlink:href="#font_4_1" transform="matrix(10.9591,0,0,-10.98,406.26,68.58002)"/>
<use data-text=" " xlink:href="#font_4_1" transform="matrix(10.9591,0,0,-10.98,48.237184,81.48151)"/>
<use data-text=" " xlink:href="#font_2_1" transform="matrix(10.9591,0,0,-10.98,48.237184,745.8593)"/>
<use data-text=" " xlink:href="#font_2_1" transform="matrix(10.9591,0,0,-10.98,264.23667,745.8593)"/>
<use data-text="C" xlink:href="#font_4_36" transform="matrix(10.9591,0,0,-10.98,421.73429,745.8593)"/>
<use data-text="o" xlink:href="#font_4_80" transform="matrix(10.9591,0,0,-10.98,429.0703,745.8593)"/>
<use data-text="n" xlink:href="#font_4_79" transform="matrix(10.9591,0,0,-10.98,434.57618,745.8593)"/>
<use data-text="t" xlink:href="#font_4_85" transform="matrix(10.9591,0,0,-10.98,440.08204,745.8593)"/>
<use data-text="i" xlink:href="#font_4_74" transform="matrix(10.9591,0,0,-10.98,443.15498,745.8593)"/>
<use data-text="n" xlink:href="#font_4_79" transform="matrix(10.9591,0,0,-10.98,446.2279,745.8593)"/>
<use data-text="u" xlink:href="#font_4_86" transform="matrix(10.9591,0,0,-10.98,451.73377,745.8593)"/>
<use data-text="e" xlink:href="#font_4_70" transform="matrix(10.9591,0,0,-10.98,457.23963,745.8593)"/>
<use data-text=" " xlink:href="#font_4_1" transform="matrix(10.9591,0,0,-10.98,462.13179,745.8593)"/>
<use data-text="p" xlink:href="#font_4_81" transform="matrix(10.9591,0,0,-10.98,464.8913,745.8593)"/>
<use data-text="r" xlink:href="#font_4_83" transform="matrix(10.9591,0,0,-10.98,470.39717,745.8593)"/>
<use data-text="o" xlink:href="#font_4_80" transform="matrix(10.9591,0,0,-10.98,473.99613,745.8593)"/>
<use data-text="b" xlink:href="#font_4_67" transform="matrix(10.9591,0,0,-10.98,479.45817,745.8593)"/>
<use data-text="l" xlink:href="#font_4_77" transform="matrix(10.9591,0,0,-10.98,484.97499,745.8593)"/>
<use data-text="e" xlink:href="#font_4_70" transform="matrix(10.9591,0,0,-10.98,488.0479,745.8593)"/>
<use data-text="m" xlink:href="#font_4_78" transform="matrix(10.9591,0,0,-10.98,492.94007,745.8593)"/>
<use data-text=" " xlink:href="#font_4_1" transform="matrix(10.9591,0,0,-10.98,501.49256,745.8593)"/>
<use data-text="4" xlink:href="#font_4_21" transform="matrix(10.9591,0,0,-10.98,504.25209,745.8593)"/>
<use data-text=" " xlink:href="#font_4_1" transform="matrix(10.9591,0,0,-10.98,509.75794,745.8593)"/>
<use data-text="o" xlink:href="#font_4_80" transform="matrix(10.9591,0,0,-10.98,512.5174,745.8593)"/>
<use data-text="n" xlink:href="#font_4_79" transform="matrix(10.9591,0,0,-10.98,518.02328,745.8593)"/>
<use data-text=" " xlink:href="#font_4_1" transform="matrix(10.9591,0,0,-10.98,523.5291,745.8593)"/>
<use data-text="p" xlink:href="#font_4_81" transform="matrix(10.9591,0,0,-10.98,526.2886,745.8593)"/>
<use data-text="a" xlink:href="#font_4_66" transform="matrix(10.9591,0,0,-10.98,531.79446,745.8593)"/>
<use data-text="g" xlink:href="#font_4_72" transform="matrix(10.9591,0,0,-10.98,536.59896,745.8593)"/>
<use data-text="e" xlink:href="#font_4_70" transform="matrix(10.9591,0,0,-10.98,542.1048,745.8593)"/>
<use data-text=" " xlink:href="#font_4_1" transform="matrix(10.9591,0,0,-10.98,546.99697,745.8593)"/>
<use data-text="1" xlink:href="#font_4_18" transform="matrix(10.9591,0,0,-10.98,549.7564,745.8593)"/>
<use data-text="7" xlink:href="#font_4_24" transform="matrix(10.9591,0,0,-10.98,555.26229,745.8593)"/>
<use data-text="." xlink:href="#font_4_15" transform="matrix(10.9591,0,0,-10.98,560.7681,745.8593)"/>
<use data-text=" " xlink:href="#font_4_1" transform="matrix(10.9591,0,0,-10.98,563.5342,745.8593)"/>
<use data-text="-" xlink:href="#font_2_14" transform="matrix(10.9591,0,0,-10.98,296.20875,758.8816)"/>
<use data-text="1" xlink:href="#font_2_18" transform="matrix(10.9591,0,0,-10.98,299.87675,758.8816)"/>
<use data-text="6" xlink:href="#font_2_23" transform="matrix(10.9591,0,0,-10.98,305.98863,758.8816)"/>
<use data-text="-" xlink:href="#font_2_14" transform="matrix(10.9591,0,0,-10.98,312.1005,758.8816)"/>
<use data-text=" " xlink:href="#font_2_1" transform="matrix(10.9591,0,0,-10.98,315.7685,758.8816)"/>
<use data-text=" " xlink:href="#font_4_1" transform="matrix(10.9591,0,0,-10.98,48.226228,93.72424)"/>
<use data-text=" " xlink:href="#font_4_1" transform="matrix(10.9591,0,0,-10.98,48.226228,111.182437)"/>
<use data-text="4" xlink:href="#font_4_21" transform="matrix(10.9591,0,0,-10.98,51.346284,111.182437)"/>
<use data-text="." xlink:href="#font_4_15" transform="matrix(10.9591,0,0,-10.98,56.849946,111.182437)"/>
<use data-text=" " xlink:href="#font_4_1" transform="matrix(10.9591,0,0,-10.98,59.548078,111.182437)"/>
<use data-text="T" xlink:href="#font_4_53" transform="matrix(10.9591,0,0,-10.98,65.48462,111.182437)"/>
<use data-text="h" xlink:href="#font_4_73" transform="matrix(10.9591,0,0,-10.98,72.20474,111.182437)"/>
<use data-text="e" xlink:href="#font_4_70" transform="matrix(10.9591,0,0,-10.98,77.708408,111.182437)"/>
<use data-text=" " xlink:href="#font_4_1" transform="matrix(10.9591,0,0,-10.98,82.59836,111.182437)"/>
<use data-text="f" xlink:href="#font_4_71" transform="matrix(10.9591,0,0,-10.98,85.356769,111.182437)"/>
<use data-text="u" xlink:href="#font_4_86" transform="matrix(10.9591,0,0,-10.98,89.03026,111.182437)"/>
<use data-text="n" xlink:href="#font_4_79" transform="matrix(10.9591,0,0,-10.98,94.53392,111.182437)"/>
<use data-text="c" xlink:href="#font_4_68" transform="matrix(10.9591,0,0,-10.98,100.03758,111.182437)"/>
<use data-text="t" xlink:href="#font_4_85" transform="matrix(10.9591,0,0,-10.98,104.927539,111.182437)"/>
<use data-text="i" xlink:href="#font_4_74" transform="matrix(10.9591,0,0,-10.98,107.998279,111.182437)"/>
<use data-text="o" xlink:href="#font_4_80" transform="matrix(10.9591,0,0,-10.98,111.069019,111.182437)"/>
<use data-text="n" xlink:href="#font_4_79" transform="matrix(10.9591,0,0,-10.98,116.57268,111.182437)"/>
<use data-text=" " xlink:href="#font_4_1" transform="matrix(10.9591,0,0,-10.98,122.07634,111.182437)"/>
<use data-text="f" xlink:href="#font_5_71" transform="matrix(10.9591,0,0,-10.98,126.58379,111.182437)"/>
<use data-text=" " xlink:href="#font_4_1" transform="matrix(10.9591,0,0,-10.98,129.64139,111.182437)"/>
<use data-text="i" xlink:href="#font_4_74" transform="matrix(10.9591,0,0,-10.98,134.19818,111.182437)"/>
<use data-text="s" xlink:href="#font_4_84" transform="matrix(10.9591,0,0,-10.98,137.26345,111.182437)"/>
<use data-text=" " xlink:href="#font_4_1" transform="matrix(10.9591,0,0,-10.98,141.54517,111.182437)"/>
<use data-text="d" xlink:href="#font_4_69" transform="matrix(10.9591,0,0,-10.98,144.30467,111.182437)"/>
<use data-text="e" xlink:href="#font_4_70" transform="matrix(10.9591,0,0,-10.98,149.80286,111.182437)"/>
<use data-text="f" xlink:href="#font_4_71" transform="matrix(10.9591,0,0,-10.98,154.68733,111.182437)"/>
<use data-text="i" xlink:href="#font_4_74" transform="matrix(10.9591,0,0,-10.98,158.35535,111.182437)"/>
<use data-text="n" xlink:href="#font_4_79" transform="matrix(10.9591,0,0,-10.98,161.42061,111.182437)"/>
<use data-text="e" xlink:href="#font_4_70" transform="matrix(10.9591,0,0,-10.98,166.9188,111.182437)"/>
<use data-text="d" xlink:href="#font_4_69" transform="matrix(10.9591,0,0,-10.98,171.80327,111.182437)"/>
<use data-text=" " xlink:href="#font_4_1" transform="matrix(10.9591,0,0,-10.98,177.30146,111.182437)"/>
<use data-text="b" xlink:href="#font_4_67" transform="matrix(10.9591,0,0,-10.98,180.06096,111.182437)"/>
<use data-text="y" xlink:href="#font_4_90" transform="matrix(10.9591,0,0,-10.98,185.5153,111.182437)"/>
<use data-text=" " xlink:href="#font_4_1" transform="matrix(10.9591,0,0,-10.98,191.0354,111.182437)"/>
<use data-text="(" xlink:href="#font_6_11" transform="matrix(11.111,0,0,-13.2365,202.38,111.53998)"/>
<use data-text=")" xlink:href="#font_6_12" transform="matrix(11.111,0,0,-13.2365,212.4599,111.53998)"/>
<path transform="matrix(1,0,0,-1,230.46,107.34003)" stroke-width=".06" stroke-linecap="butt" stroke-miterlimit="10" stroke-linejoin="miter" fill="none" stroke="#000000" d="M0 0 1.08 .66M1.08 .66 3.06-3.96M3.06-3.96 5.34 8.22M5.34 8.22H40.74"/>
<path transform="matrix(1,0,0,-1,230.4,107.22003)" d="M0 0 1.44 .84 3.12-2.76 5.22 8.34H40.8V7.8H5.64L3.42-4.08H2.88L.84 .12 .12-.24" fill-rule="evenodd"/>
<use data-text="2" xlink:href="#font_4_19" transform="matrix(7.9767,0,0,-7.9919,265.44,106.26001)"/>
<use data-text="2" xlink:href="#font_4_19" transform="matrix(10.9681,0,0,-10.9889,236.22,111.17999)"/>
<use data-text="5" xlink:href="#font_4_22" transform="matrix(10.9681,0,0,-10.9889,241.67992,111.17999)"/>
<use data-text="f" xlink:href="#font_5_71" transform="matrix(10.9681,0,0,-10.9889,197.28325,111.17999)"/>
<use data-text="x" xlink:href="#font_5_89" transform="matrix(10.9681,0,0,-10.9889,206.94286,111.17999)"/>
<use data-text="x" xlink:href="#font_5_89" transform="matrix(10.9681,0,0,-10.9889,259.9813,111.17999)"/>
<use data-text="=" xlink:href="#font_6_32" transform="matrix(10.9681,0,0,-10.9889,220.08592,111.17999)"/>
<use data-text="-" xlink:href="#font_6_16" transform="matrix(10.9681,0,0,-10.9889,250.1462,111.17999)"/>
<use data-text=" " xlink:href="#font_4_1" transform="matrix(10.9591,0,0,-10.98,273.72,111.17999)"/>
<use data-text="f" xlink:href="#font_4_71" transform="matrix(10.9591,0,0,-10.98,276.4795,111.17999)"/>
<use data-text="o" xlink:href="#font_4_80" transform="matrix(10.9591,0,0,-10.98,280.1475,111.17999)"/>
<use data-text="r" xlink:href="#font_4_83" transform="matrix(10.9591,0,0,-10.98,285.64567,111.17999)"/>
<use data-text=" " xlink:href="#font_4_1" transform="matrix(10.9591,0,0,-10.98,289.31367,111.17999)"/>
<use data-text="5" xlink:href="#font_4_22" transform="matrix(10.9927,0,0,-11.0138,300.06,111.17999)"/>
<use data-text="5" xlink:href="#font_4_22" transform="matrix(10.9927,0,0,-11.0138,338.70045,111.17999)"/>
<use data-text="." xlink:href="#font_4_15" transform="matrix(10.9927,0,0,-11.0138,344.21989,111.17999)"/>
<use data-text="x" xlink:href="#font_5_89" transform="matrix(10.9927,0,0,-11.0138,319.73695,111.17999)"/>
<use data-text="-" xlink:href="#font_6_16" transform="matrix(10.9927,0,0,-11.0138,294.05799,111.17999)"/>
<use data-text="&#x00a3;" xlink:href="#font_6_133" transform="matrix(10.9927,0,0,-11.0138,309.05754,111.17999)"/>
<use data-text="&#x00a3;" xlink:href="#font_6_133" transform="matrix(10.9927,0,0,-11.0138,328.674,111.17999)"/>
<use data-text=" " xlink:href="#font_4_1" transform="matrix(10.9591,0,0,-10.98,349.08,111.17999)"/>
<use data-text="(" xlink:href="#font_4_9" transform="matrix(10.9591,0,0,-10.98,66.23657,133.14002)"/>
<use data-text="a" xlink:href="#font_4_66" transform="matrix(10.9591,0,0,-10.98,69.90678,133.14002)"/>
<use data-text=")" xlink:href="#font_4_10" transform="matrix(10.9591,0,0,-10.98,74.79344,133.14002)"/>
<use data-text=" " xlink:href="#font_4_1" transform="matrix(10.9591,0,0,-10.98,78.463649,133.14002)"/>
<use data-text="F" xlink:href="#font_4_39" transform="matrix(10.9591,0,0,-10.98,84.28403,133.14002)"/>
<use data-text="i" xlink:href="#font_4_74" transform="matrix(10.9591,0,0,-10.98,90.39811,133.14002)"/>
<use data-text="n" xlink:href="#font_4_79" transform="matrix(10.9591,0,0,-10.98,93.46556,133.14002)"/>
<use data-text="d" xlink:href="#font_4_69" transform="matrix(10.9591,0,0,-10.98,98.965938,133.14002)"/>
<use data-text=" " xlink:href="#font_4_1" transform="matrix(10.9591,0,0,-10.98,104.46631,133.14002)"/>
<use data-text="(" xlink:href="#font_6_11" transform="matrix(11.1211,0,0,-13.2665,119.04,133.43988)"/>
<use data-text=")" xlink:href="#font_6_12" transform="matrix(11.1211,0,0,-13.2665,129.12017,133.43988)"/>
<use data-text="." xlink:href="#font_4_15" transform="matrix(10.9927,0,0,-11.0138,133.14,133.14002)"/>
<use data-text="f" xlink:href="#font_5_71" transform="matrix(10.9927,0,0,-11.0138,110.7039,133.14002)"/>
<use data-text="x" xlink:href="#font_5_89" transform="matrix(10.9927,0,0,-11.0138,123.54448,133.14002)"/>
<use data-text="&#x00a2;" xlink:href="#font_6_132" transform="matrix(10.9927,0,0,-11.0138,116.10132,133.14002)"/>
<use data-text=" " xlink:href="#font_4_1" transform="matrix(10.9591,0,0,-10.98,138.18,133.14002)"/>
<use data-text=" " xlink:href="#font_4_1" transform="matrix(10.9591,0,0,-10.98,48.238664,154.02399)"/>
<use data-text=" " xlink:href="#font_4_1" transform="matrix(10.9591,0,0,-10.98,48.238664,166.3216)"/>
<use data-text=" " xlink:href="#font_4_1" transform="matrix(10.9591,0,0,-10.98,48.238664,178.56427)"/>
<use data-text=" " xlink:href="#font_4_1" transform="matrix(10.9591,0,0,-10.98,48.238664,190.86188)"/>
<use data-text=" " xlink:href="#font_4_1" transform="matrix(10.9591,0,0,-10.98,48.238664,203.10456)"/>
<use data-text=" " xlink:href="#font_4_1" transform="matrix(10.9591,0,0,-10.98,48.238664,215.40216)"/>
<use data-text=" " xlink:href="#font_4_1" transform="matrix(10.9591,0,0,-10.98,65.51897,215.40216)"/>
<use data-text=" " xlink:href="#font_4_1" transform="matrix(10.9591,0,0,-10.98,199.73726,215.40216)"/>
<use data-text=" " xlink:href="#font_4_1" transform="matrix(10.9591,0,0,-10.98,48.238664,227.69977)"/>
<use data-text=" " xlink:href="#font_4_1" transform="matrix(10.9591,0,0,-10.98,66.233509,239.94245)"/>
<use data-text=" " xlink:href="#font_4_1" transform="matrix(10.9591,0,0,-10.98,48.238664,258.2461)"/>
<use data-text=" " xlink:href="#font_4_1" transform="matrix(10.9591,0,0,-10.98,48.238664,270.48878)"/>
<use data-text=" " xlink:href="#font_4_1" transform="matrix(10.9591,0,0,-10.98,48.238664,282.78639)"/>
<use data-text=" " xlink:href="#font_4_1" transform="matrix(10.9591,0,0,-10.98,48.238664,295.08399)"/>
<use data-text=" " xlink:href="#font_4_1" transform="matrix(10.9591,0,0,-10.98,48.238664,307.3267)"/>
<use data-text=" " xlink:href="#font_4_1" transform="matrix(10.9591,0,0,-10.98,48.238664,319.6243)"/>
<use data-text=" " xlink:href="#font_4_1" transform="matrix(10.9591,0,0,-10.98,48.238664,331.867)"/>
<use data-text=" " xlink:href="#font_4_1" transform="matrix(10.9591,0,0,-10.98,48.238664,344.1646)"/>
<use data-text=" " xlink:href="#font_4_1" transform="matrix(10.9591,0,0,-10.98,48.238664,356.46223)"/>
<use data-text=" " xlink:href="#font_4_1" transform="matrix(10.9591,0,0,-10.98,48.238664,368.70494)"/>
<use data-text=" " xlink:href="#font_4_1" transform="matrix(10.9591,0,0,-10.98,48.238664,381.00254)"/>
<use data-text=" " xlink:href="#font_4_1" transform="matrix(10.9591,0,0,-10.98,48.238664,393.24525)"/>
<use data-text=" " xlink:href="#font_4_1" transform="matrix(10.9591,0,0,-10.98,48.238664,405.54286)"/>
<use data-text=" " xlink:href="#font_4_1" transform="matrix(10.9591,0,0,-10.98,48.238664,417.84046)"/>
<use data-text="(" xlink:href="#font_4_9" transform="matrix(10.9591,0,0,-10.98,66.233509,430.20393)"/>
<use data-text="b" xlink:href="#font_4_67" transform="matrix(10.9591,0,0,-10.98,69.90261,430.20393)"/>
<use data-text=")" xlink:href="#font_4_10" transform="matrix(10.9591,0,0,-10.98,75.401889,430.20393)"/>
<use data-text=" " xlink:href="#font_4_1" transform="matrix(10.9591,0,0,-10.98,79.07099,430.20393)"/>
<use data-text="W" xlink:href="#font_4_56" transform="matrix(10.9591,0,0,-10.98,84.23053,430.20393)"/>
<use data-text="r" xlink:href="#font_4_83" transform="matrix(10.9591,0,0,-10.98,94.59565,430.20393)"/>
<use data-text="i" xlink:href="#font_4_74" transform="matrix(10.9591,0,0,-10.98,98.264759,430.20393)"/>
<use data-text="t" xlink:href="#font_4_85" transform="matrix(10.9591,0,0,-10.98,101.33111,430.20393)"/>
<use data-text="e" xlink:href="#font_4_70" transform="matrix(10.9591,0,0,-10.98,104.39746,430.20393)"/>
<use data-text=" " xlink:href="#font_4_1" transform="matrix(10.9591,0,0,-10.98,109.28303,430.20393)"/>
<use data-text="a" xlink:href="#font_4_66" transform="matrix(10.9591,0,0,-10.98,112.04253,430.20393)"/>
<use data-text="n" xlink:href="#font_4_79" transform="matrix(10.9591,0,0,-10.98,116.92809,430.20393)"/>
<use data-text=" " xlink:href="#font_4_1" transform="matrix(10.9591,0,0,-10.98,122.42737,430.20393)"/>
<use data-text="e" xlink:href="#font_4_70" transform="matrix(10.9591,0,0,-10.98,125.18687,430.20393)"/>
<use data-text="q" xlink:href="#font_4_82" transform="matrix(10.9591,0,0,-10.98,130.07244,430.20393)"/>
<use data-text="u" xlink:href="#font_4_86" transform="matrix(10.9591,0,0,-10.98,135.57172,430.20393)"/>
<use data-text="a" xlink:href="#font_4_66" transform="matrix(10.9591,0,0,-10.98,141.071,430.20393)"/>
<use data-text="t" xlink:href="#font_4_85" transform="matrix(10.9591,0,0,-10.98,145.95658,430.20393)"/>
<use data-text="i" xlink:href="#font_4_74" transform="matrix(10.9591,0,0,-10.98,149.02294,430.20393)"/>
<use data-text="o" xlink:href="#font_4_80" transform="matrix(10.9591,0,0,-10.98,152.0893,430.20393)"/>
<use data-text="n" xlink:href="#font_4_79" transform="matrix(10.9591,0,0,-10.98,157.58858,430.20393)"/>
<use data-text=" " xlink:href="#font_4_1" transform="matrix(10.9591,0,0,-10.98,163.08786,430.20393)"/>
<use data-text="f" xlink:href="#font_4_71" transform="matrix(10.9591,0,0,-10.98,165.84737,430.20393)"/>
<use data-text="o" xlink:href="#font_4_80" transform="matrix(10.9591,0,0,-10.98,169.51648,430.20393)"/>
<use data-text="r" xlink:href="#font_4_83" transform="matrix(10.9591,0,0,-10.98,175.01576,430.20393)"/>
<use data-text=" " xlink:href="#font_4_1" transform="matrix(10.9591,0,0,-10.98,178.68488,430.20393)"/>
<use data-text="t" xlink:href="#font_4_85" transform="matrix(10.9591,0,0,-10.98,181.44438,430.20393)"/>
<use data-text="h" xlink:href="#font_4_73" transform="matrix(10.9591,0,0,-10.98,184.51074,430.20393)"/>
<use data-text="e" xlink:href="#font_4_70" transform="matrix(10.9591,0,0,-10.98,190.01003,430.20393)"/>
<use data-text=" " xlink:href="#font_4_1" transform="matrix(10.9591,0,0,-10.98,194.8956,430.20393)"/>
<use data-text="l" xlink:href="#font_4_77" transform="matrix(10.9591,0,0,-10.98,197.6551,430.20393)"/>
<use data-text="i" xlink:href="#font_4_74" transform="matrix(10.9591,0,0,-10.98,200.65572,430.20393)"/>
<use data-text="n" xlink:href="#font_4_79" transform="matrix(10.9591,0,0,-10.98,203.71112,430.20393)"/>
<use data-text="e" xlink:href="#font_4_70" transform="matrix(10.9591,0,0,-10.98,209.2104,430.20393)"/>
<use data-text=" " xlink:href="#font_4_1" transform="matrix(10.9591,0,0,-10.98,214.09598,430.20393)"/>
<use data-text="t" xlink:href="#font_4_85" transform="matrix(10.9591,0,0,-10.98,216.85549,430.20393)"/>
<use data-text="a" xlink:href="#font_4_66" transform="matrix(10.9591,0,0,-10.98,219.92185,430.20393)"/>
<use data-text="n" xlink:href="#font_4_79" transform="matrix(10.9591,0,0,-10.98,224.80742,430.20393)"/>
<use data-text="g" xlink:href="#font_4_72" transform="matrix(10.9591,0,0,-10.98,230.3067,430.20393)"/>
<use data-text="e" xlink:href="#font_4_70" transform="matrix(10.9591,0,0,-10.98,235.80599,430.20393)"/>
<use data-text="n" xlink:href="#font_4_79" transform="matrix(10.9591,0,0,-10.98,240.69156,430.20393)"/>
<use data-text="t" xlink:href="#font_4_85" transform="matrix(10.9591,0,0,-10.98,246.19084,430.20393)"/>
<use data-text=" " xlink:href="#font_4_1" transform="matrix(10.9591,0,0,-10.98,249.2572,430.20393)"/>
<use data-text="t" xlink:href="#font_4_85" transform="matrix(10.9591,0,0,-10.98,252.01671,430.20393)"/>
<use data-text="o" xlink:href="#font_4_80" transform="matrix(10.9591,0,0,-10.98,255.08307,430.20393)"/>
<use data-text=" " xlink:href="#font_4_1" transform="matrix(10.9591,0,0,-10.98,260.5385,430.20393)"/>
<use data-text="t" xlink:href="#font_4_85" transform="matrix(10.9591,0,0,-10.98,263.298,430.20393)"/>
<use data-text="h" xlink:href="#font_4_73" transform="matrix(10.9591,0,0,-10.98,266.36436,430.20393)"/>
<use data-text="e" xlink:href="#font_4_70" transform="matrix(10.9591,0,0,-10.98,271.86363,430.20393)"/>
<use data-text=" " xlink:href="#font_4_1" transform="matrix(10.9591,0,0,-10.98,276.74919,430.20393)"/>
<use data-text="g" xlink:href="#font_4_72" transform="matrix(10.9591,0,0,-10.98,279.50868,430.20393)"/>
<use data-text="r" xlink:href="#font_4_83" transform="matrix(10.9591,0,0,-10.98,285.00794,430.20393)"/>
<use data-text="a" xlink:href="#font_4_66" transform="matrix(10.9591,0,0,-10.98,288.67704,430.20393)"/>
<use data-text="p" xlink:href="#font_4_81" transform="matrix(10.9591,0,0,-10.98,293.5626,430.20393)"/>
<use data-text="h" xlink:href="#font_4_73" transform="matrix(10.9591,0,0,-10.98,299.06187,430.20393)"/>
<use data-text=" " xlink:href="#font_4_1" transform="matrix(10.9591,0,0,-10.98,304.56114,430.20393)"/>
<use data-text="o" xlink:href="#font_4_80" transform="matrix(10.9591,0,0,-10.98,307.32063,430.20393)"/>
<use data-text="f" xlink:href="#font_4_71" transform="matrix(10.9591,0,0,-10.98,312.8199,430.20393)"/>
<use data-text=" " xlink:href="#font_4_1" transform="matrix(10.9591,0,0,-10.98,316.42323,430.20393)"/>
<use data-text="f" xlink:href="#font_5_71" transform="matrix(10.9591,0,0,-10.98,320.93394,430.20393)"/>
<use data-text=" " xlink:href="#font_4_1" transform="matrix(10.9591,0,0,-10.98,323.99153,430.20393)"/>
<use data-text="a" xlink:href="#font_4_66" transform="matrix(10.9591,0,0,-10.98,328.5516,430.20393)"/>
<use data-text="t" xlink:href="#font_4_85" transform="matrix(10.9591,0,0,-10.98,333.42185,430.20393)"/>
<use data-text=" " xlink:href="#font_4_1" transform="matrix(10.9591,0,0,-10.98,336.47288,430.20393)"/>
<use data-text="3" xlink:href="#font_4_20" transform="matrix(10.9927,0,0,-11.0138,367.2,430.2)"/>
<use data-text="." xlink:href="#font_4_15" transform="matrix(10.9927,0,0,-11.0138,372.72056,430.2)"/>
<use data-text="x" xlink:href="#font_5_89" transform="matrix(10.9927,0,0,-11.0138,341.57603,430.2)"/>
<use data-text="=" xlink:href="#font_6_32" transform="matrix(10.9927,0,0,-11.0138,350.87586,430.2)"/>
<use data-text="-" xlink:href="#font_6_16" transform="matrix(10.9927,0,0,-11.0138,361.25627,430.2)"/>
<use data-text=" " xlink:href="#font_4_1" transform="matrix(10.9591,0,0,-10.98,377.22,430.2)"/>
<use data-text=" " xlink:href="#font_4_1" transform="matrix(10.9591,0,0,-10.98,48.2388,449.0966)"/>
<use data-text=" " xlink:href="#font_4_1" transform="matrix(10.9591,0,0,-10.98,344.51808,449.0966)"/>
<use data-text=" " xlink:href="#font_4_1" transform="matrix(10.9591,0,0,-10.98,48.2388,461.3393)"/>
<use data-text=" " xlink:href="#font_4_1" transform="matrix(10.9591,0,0,-10.98,48.2388,473.6369)"/>
<use data-text=" " xlink:href="#font_4_1" transform="matrix(10.9591,0,0,-10.98,48.2388,485.9345)"/>
<use data-text=" " xlink:href="#font_4_1" transform="matrix(10.9591,0,0,-10.98,48.2388,498.17723)"/>
<use data-text=" " xlink:href="#font_4_1" transform="matrix(10.9591,0,0,-10.98,48.2388,510.47483)"/>
<use data-text=" " xlink:href="#font_4_1" transform="matrix(10.9591,0,0,-10.98,48.2388,522.7175)"/>
<use data-text=" " xlink:href="#font_4_1" transform="matrix(10.9591,0,0,-10.98,48.2388,535.01516)"/>
<use data-text=" " xlink:href="#font_4_1" transform="matrix(10.9591,0,0,-10.98,48.2388,547.31277)"/>
<use data-text=" " xlink:href="#font_4_1" transform="matrix(10.9591,0,0,-10.98,48.2388,559.5554)"/>
<use data-text=" " xlink:href="#font_4_1" transform="matrix(10.9591,0,0,-10.98,48.2388,571.853)"/>
<use data-text=" " xlink:href="#font_4_1" transform="matrix(10.9591,0,0,-10.98,48.2388,584.09579)"/>
<use data-text=" " xlink:href="#font_4_1" transform="matrix(10.9591,0,0,-10.98,48.2388,596.3934)"/>
<use data-text=" " xlink:href="#font_4_1" transform="matrix(10.9591,0,0,-10.98,48.2388,608.691)"/>
<use data-text=" " xlink:href="#font_4_1" transform="matrix(10.9591,0,0,-10.98,48.2388,620.9337)"/>
<use data-text=" " xlink:href="#font_4_1" transform="matrix(10.9591,0,0,-10.98,48.2388,633.2313)"/>
<use data-text=" " xlink:href="#font_4_1" transform="matrix(10.9591,0,0,-10.98,48.2388,645.474)"/>
<use data-text="D" xlink:href="#font_4_37" transform="matrix(0,-10.9591,-10.98,-0,22.74,458.76)"/>
<use data-text="o" xlink:href="#font_4_80" transform="matrix(0,-10.9591,-10.98,-0,22.74,450.82673)"/>
<use data-text=" " xlink:href="#font_4_1" transform="matrix(0,-10.9591,-10.98,-0,22.74,445.32637)"/>
<use data-text="n" xlink:href="#font_4_79" transform="matrix(0,-10.9591,-10.98,-0,22.74,442.56687)"/>
<use data-text="o" xlink:href="#font_4_80" transform="matrix(0,-10.9591,-10.98,-0,22.74,437.0665)"/>
<use data-text="t" xlink:href="#font_4_85" transform="matrix(0,-10.9591,-10.98,-0,22.74,431.56614)"/>
<use data-text=" " xlink:href="#font_4_1" transform="matrix(0,-10.9591,-10.98,-0,22.74,428.4987)"/>
<use data-text="w" xlink:href="#font_4_88" transform="matrix(0,-10.9591,-10.98,-0,22.74,425.7392)"/>
<use data-text="r" xlink:href="#font_4_83" transform="matrix(0,-10.9591,-10.98,-0,22.74,417.8059)"/>
<use data-text="i" xlink:href="#font_4_74" transform="matrix(0,-10.9591,-10.98,-0,22.74,414.1357)"/>
<use data-text="t" xlink:href="#font_4_85" transform="matrix(0,-10.9591,-10.98,-0,22.74,411.06828)"/>
<use data-text="e" xlink:href="#font_4_70" transform="matrix(0,-10.9591,-10.98,-0,22.74,408.00083)"/>
<use data-text=" " xlink:href="#font_4_1" transform="matrix(0,-10.9591,-10.98,-0,22.74,403.11418)"/>
<use data-text="b" xlink:href="#font_4_67" transform="matrix(0,-10.9591,-10.98,-0,22.74,400.35469)"/>
<use data-text="e" xlink:href="#font_4_70" transform="matrix(0,-10.9591,-10.98,-0,22.74,394.8543)"/>
<use data-text="y" xlink:href="#font_4_90" transform="matrix(0,-10.9591,-10.98,-0,22.74,389.96766)"/>
<use data-text="o" xlink:href="#font_4_80" transform="matrix(0,-10.9591,-10.98,-0,22.74,384.4673)"/>
<use data-text="n" xlink:href="#font_4_79" transform="matrix(0,-10.9591,-10.98,-0,22.74,378.96693)"/>
<use data-text="d" xlink:href="#font_4_69" transform="matrix(0,-10.9591,-10.98,-0,22.74,373.46656)"/>
<use data-text=" " xlink:href="#font_4_1" transform="matrix(0,-10.9591,-10.98,-0,22.74,367.9662)"/>
<use data-text="t" xlink:href="#font_4_85" transform="matrix(0,-10.9591,-10.98,-0,22.74,365.2067)"/>
<use data-text="h" xlink:href="#font_4_73" transform="matrix(0,-10.9591,-10.98,-0,22.74,362.20503)"/>
<use data-text="i" xlink:href="#font_4_74" transform="matrix(0,-10.9591,-10.98,-0,22.74,356.68275)"/>
<use data-text="s" xlink:href="#font_4_84" transform="matrix(0,-10.9591,-10.98,-0,22.74,353.6153)"/>
<use data-text=" " xlink:href="#font_4_1" transform="matrix(0,-10.9591,-10.98,-0,22.74,349.3314)"/>
<use data-text="b" xlink:href="#font_4_67" transform="matrix(0,-10.9591,-10.98,-0,22.74,346.5719)"/>
<use data-text="o" xlink:href="#font_4_80" transform="matrix(0,-10.9591,-10.98,-0,22.74,341.11537)"/>
<use data-text="r" xlink:href="#font_4_83" transform="matrix(0,-10.9591,-10.98,-0,22.74,335.59309)"/>
<use data-text="d" xlink:href="#font_4_69" transform="matrix(0,-10.9591,-10.98,-0,22.74,331.92289)"/>
<use data-text="e" xlink:href="#font_4_70" transform="matrix(0,-10.9591,-10.98,-0,22.74,326.42253)"/>
<use data-text="r" xlink:href="#font_4_83" transform="matrix(0,-10.9591,-10.98,-0,22.74,321.53587)"/>
<use data-text="." xlink:href="#font_4_15" transform="matrix(0,-10.9591,-10.98,-0,22.74,317.86567)"/>
<use data-text=" " xlink:href="#font_4_1" transform="matrix(0,-10.9591,-10.98,-0,22.74,315.10508)"/>
<use data-text="D" xlink:href="#font_4_37" transform="matrix(0,10.9591,10.98,0,589.2599,315.18)"/>
<use data-text="o" xlink:href="#font_4_80" transform="matrix(0,10.9591,10.98,0,589.2599,323.11329)"/>
<use data-text=" " xlink:href="#font_4_1" transform="matrix(0,10.9591,10.98,0,589.2599,328.61366)"/>
<use data-text="n" xlink:href="#font_4_79" transform="matrix(0,10.9591,10.98,0,589.2599,331.37315)"/>
<use data-text="o" xlink:href="#font_4_80" transform="matrix(0,10.9591,10.98,0,589.2599,336.8735)"/>
<use data-text="t" xlink:href="#font_4_85" transform="matrix(0,10.9591,10.98,0,589.2599,342.37388)"/>
<use data-text=" " xlink:href="#font_4_1" transform="matrix(0,10.9591,10.98,0,589.2599,345.4413)"/>
<use data-text="w" xlink:href="#font_4_88" transform="matrix(0,10.9591,10.98,0,589.2599,348.2008)"/>
<use data-text="r" xlink:href="#font_4_83" transform="matrix(0,10.9591,10.98,0,589.2599,356.1341)"/>
<use data-text="i" xlink:href="#font_4_74" transform="matrix(0,10.9591,10.98,0,589.2599,359.8043)"/>
<use data-text="t" xlink:href="#font_4_85" transform="matrix(0,10.9591,10.98,0,589.2599,362.87174)"/>
<use data-text="e" xlink:href="#font_4_70" transform="matrix(0,10.9591,10.98,0,589.2599,365.93919)"/>
<use data-text=" " xlink:href="#font_4_1" transform="matrix(0,10.9591,10.98,0,589.2599,370.82585)"/>
<use data-text="b" xlink:href="#font_4_67" transform="matrix(0,10.9591,10.98,0,589.2599,373.58534)"/>
<use data-text="e" xlink:href="#font_4_70" transform="matrix(0,10.9591,10.98,0,589.2599,379.0857)"/>
<use data-text="y" xlink:href="#font_4_90" transform="matrix(0,10.9591,10.98,0,589.2599,383.97236)"/>
<use data-text="o" xlink:href="#font_4_80" transform="matrix(0,10.9591,10.98,0,589.2599,389.47273)"/>
<use data-text="n" xlink:href="#font_4_79" transform="matrix(0,10.9591,10.98,0,589.2599,394.97309)"/>
<use data-text="d" xlink:href="#font_4_69" transform="matrix(0,10.9591,10.98,0,589.2599,400.47346)"/>
<use data-text=" " xlink:href="#font_4_1" transform="matrix(0,10.9591,10.98,0,589.2599,405.97383)"/>
<use data-text="t" xlink:href="#font_4_85" transform="matrix(0,10.9591,10.98,0,589.2599,408.7333)"/>
<use data-text="h" xlink:href="#font_4_73" transform="matrix(0,10.9591,10.98,0,589.2599,411.735)"/>
<use data-text="i" xlink:href="#font_4_74" transform="matrix(0,10.9591,10.98,0,589.2599,417.25727)"/>
<use data-text="s" xlink:href="#font_4_84" transform="matrix(0,10.9591,10.98,0,589.2599,420.3247)"/>
<use data-text=" " xlink:href="#font_4_1" transform="matrix(0,10.9591,10.98,0,589.2599,424.6086)"/>
<use data-text="b" xlink:href="#font_4_67" transform="matrix(0,10.9591,10.98,0,589.2599,427.3681)"/>
<use data-text="o" xlink:href="#font_4_80" transform="matrix(0,10.9591,10.98,0,589.2599,432.82466)"/>
<use data-text="r" xlink:href="#font_4_83" transform="matrix(0,10.9591,10.98,0,589.2599,438.34693)"/>
<use data-text="d" xlink:href="#font_4_69" transform="matrix(0,10.9591,10.98,0,589.2599,442.01713)"/>
<use data-text="e" xlink:href="#font_4_70" transform="matrix(0,10.9591,10.98,0,589.2599,447.5175)"/>
<use data-text="r" xlink:href="#font_4_83" transform="matrix(0,10.9591,10.98,0,589.2599,452.40415)"/>
<use data-text="." xlink:href="#font_4_15" transform="matrix(0,10.9591,10.98,0,589.2599,456.07435)"/>
<use data-text=" " xlink:href="#font_4_1" transform="matrix(0,10.9591,10.98,0,589.2599,458.83494)"/>
<path transform="matrix(1,0,0,-1,49.020006,402.66)" stroke-width="1.26" stroke-linecap="butt" stroke-linejoin="round" fill="none" stroke="#000000" d="M0 0H509.58"/>
<path transform="matrix(1,0,0,-1,0,783)" d="M27.78 699.12H28.26V699.6H27.78Z"/>
<path transform="matrix(1,0,0,-1,0,783)" d="M27.78 699.12H584.22006V699.6H27.78Z"/>
<path transform="matrix(1,0,0,-1,0,783)" d="M583.74 699.12H584.22V699.6H583.74Z"/>
<path transform="matrix(1,0,0,-1,0,783)" d="M27.78 50.4H28.26V699.12H27.78Z"/>
<path transform="matrix(1,0,0,-1,0,783)" d="M583.74 50.4H584.22V699.12H583.74Z"/>
<path transform="matrix(1,0,0,-1,0,783)" d="M27.78 49.92H28.26V50.399999H27.78Z"/>
<path transform="matrix(1,0,0,-1,0,783)" d="M27.78 49.92H584.22006V50.399999H27.78Z"/>
<path transform="matrix(1,0,0,-1,0,783)" d="M583.74 49.92H584.22V50.399999H583.74Z"/>
</g>
</svg>
