<svg xmlns="http://www.w3.org/2000/svg" xmlns:xlink="http://www.w3.org/1999/xlink" xmlns:inkscape="http://www.inkscape.org/namespaces/inkscape" version="1.1" width="612.0pt" height="792.0pt" viewBox="0.0 0.0 612.0 792.0">
<defs>
<path id="font_1_20" d="M.3256836 .67578127V.13476563C.3256836 .09372965 .32747398 .06755066 .3310547 .056228639 .3346354 .044906618 .3421224 .035634359 .35351563 .028411866 .36490885 .021189372 .38313804 .017578125 .40820313 .017578125H.42333985V0H.07470703V.017578125H.092285159C.12060547 .017578125 .14078777 .020858765 .15283203 .027420044 .1648763 .033991498 .17301433 .04301961 .1772461 .054504396 .18147786 .06599935 .18359375 .09275309 .18359375 .13476563V.47753907C.18359375 .508138 .1821289 .5272624 .17919922 .5349121 .17626953 .5425618 .17081706 .54907229 .1628418 .55444338 .15486653 .55981448 .14567058 .5625 .1352539 .5625 .118652347 .5625 .098470058 .5572917 .07470703 .546875L.06591797 .5644531 .3095703 .67578127H.3256836Z"/>
<path id="font_1_28" d="M.030761719-.013671875V0C.08479818 .012379964 .13061524 .03062439 .16821289 .054733278 .20581055 .07884216 .2355957 .10865275 .25756837 .14416504 .27954103 .17967732 .29492188 .2205658 .30371095 .26683045 .28352867 .2565155 .26635743 .24933879 .25219728 .2453003 .23803711 .24127198 .22314453 .23925781 .20751953 .23925781 .15738933 .23925781 .11564127 .25730387 .08227539 .293396 .048909505 .32948814 .032226564 .37891136 .032226564 .44166566 .032226564 .4852346 .041259767 .5251465 .059326173 .56140139 .07739258 .59765627 .1031901 .62578329 .13671875 .6457825 .17024739 .6657817 .20507813 .67578127 .24121094 .67578127 .2799479 .67578127 .316569 .66471359 .35107423 .6425781 .38557945 .6204427 .41308595 .5883789 .43359376 .5463867 .45410157 .50439456 .46435548 .45654298 .46435548 .40283204 .46435548 .33317057 .44767253 .2664388 .41430665 .20263672 .38094078 .13883464 .33121745 .087646488 .26513673 .049072267 .19905599 .010498047 .12093099-.010416667 .030761719-.013671875M.31103517 .3076172C.31429038 .34407554 .31591798 .3761393 .31591798 .4038086 .31591798 .46305339 .30908204 .5182292 .29541017 .56933596 .28759767 .59765627 .27604167 .61848959 .2607422 .63183596 .25260417 .6389974 .24202474 .6425781 .2290039 .6425781 .21272786 .6425781 .20003255 .6355794 .19091797 .62158206 .17822266 .6023763 .171875 .5657552 .171875 .51171877 .171875 .42154948 .18261719 .359375 .20410156 .3251953 .21809896 .3030599 .23697917 .2919922 .2607422 .2919922 .2734375 .2919922 .2902018 .29720054 .31103517 .3076172Z"/>
<path id="font_1_19" d="M.4633789 .3310547C.4633789 .26497398 .45410157 .20328777 .43554688 .1459961 .42447917 .110839847 .40958659 .08203125 .39086915 .059570314 .3721517 .037109376 .35091148 .01928711 .32714845 .0061035158 .3033854-.007080078 .2775065-.013671875 .24951172-.013671875 .21761067-.013671875 .18880208-.005533854 .16308594 .0107421879 .1373698 .027018229 .114583339 .05029297 .09472656 .080566409 .08040365 .10270182 .067871097 .13216146 .057128908 .16894531 .04313151 .21875 .036132814 .27018229 .036132814 .3232422 .036132814 .39518229 .046223958 .46126304 .06640625 .5214844 .08300781 .57128909 .10823568 .60945639 .14208985 .6359863 .17594402 .6625163 .2117513 .67578127 .24951172 .67578127 .2879232 .67578127 .32381187 .662679 .35717774 .6364746 .3905436 .6102702 .41503907 .57503256 .43066407 .5307617 .45247398 .4698893 .4633789 .4033203 .4633789 .3310547M.31298829 .33203126C.31298829 .44773356 .31233726 .5151723 .31103517 .53434756 .30777995 .57952377 .29996745 .6100769 .28759767 .6260071 .27945964 .6364034 .26627604 .64160159 .24804688 .64160159 .23404949 .64160159 .22298177 .6377004 .21484375 .6298981 .20279949 .6185252 .19466146 .5984548 .19042969 .5696869 .18619792 .54092916 .18408203 .44058738 .18408203 .2686615 .18408203 .17505391 .18733724 .112325038 .19384766 .08047485 .19873047 .057403566 .20572917 .041966756 .21484375 .03416443 .22395833 .0263621 .23600261 .022460938 .25097657 .022460938 .2672526 .022460938 .27945964 .027659098 .28759767 .03805542 .30126954 .05626424 .30908204 .0843811 .31103517 .122406009L.31298829 .33203126Z"/>
<path id="font_1_3" d="M0 0Z"/>
<path id="font_1_36" d="M.41601563 .18945313H.1821289L.15429688 .124679569C.1451823 .10296122 .140625 .08502706 .140625 .070877078 .140625 .05212911 .14811199 .038309736 .16308594 .029418946 .171875 .02415975 .19352214 .020212809 .22802735 .017578125V0H.0078125V.017578125C.03157552 .021189372 .05110677 .03112793 .06640625 .0473938 .08170573 .06366984 .10058594 .09727987 .123046878 .14822388L.35986329 .6767578H.36914063L.60791018 .13349915C.6306966 .08153788 .64941409 .04881795 .6640625 .035339357 .6751302 .025146485 .6907552 .019226075 .7109375 .017578125V0H.390625V.017578125H.4038086C.42952476 .017578125 .44759117 .021219889 .4580078 .028503418 .46516929 .033793134 .46875 .04140727 .46875 .051345827 .46875 .057296754 .46777345 .063420619 .4658203 .06971741 .46516929 .07268778 .46028648 .08509827 .45117188 .10694885L.41601563 .18945313M.39941407 .22558594 .30078126 .45388795 .19921875 .22558594H.39941407Z"/>
<path id="font_1_37" d="M.44482423 .35107423C.5076497 .33642579 .5517578 .3186849 .57714846 .29785157 .61360678 .26822917 .63183596 .2298177 .63183596 .18261719 .63183596 .1328125 .6118164 .09163412 .57177737 .05908203 .5226237 .01969401 .45117188 0 .35742188 0H.020996094V.017578125C.05159505 .017578125 .07234701 .02044169 .08325195 .026168824 .0941569 .031895956 .10180664 .03933716 .10620117 .04849243 .1105957 .057647706 .11279297 .08022054 .11279297 .11621094V.54589846C.11279297 .58188888 .1105957 .60454306 .10620117 .6138611 .10180664 .6231893 .09407552 .6306305 .08300781 .6361847 .0719401 .6417491 .05126953 .64453127 .020996094 .64453127V.6621094H.3383789C.41422526 .6621094 .4679362 .6553548 .49951173 .6418457 .5310872 .6283366 .55598959 .6081543 .57421877 .5812988 .59244796 .55444338 .6015625 .5258789 .6015625 .49560548 .6015625 .46370445 .59000656 .43530274 .56689456 .4104004 .54378256 .38549806 .50309249 .36572267 .44482423 .35107423M.26708985 .3642578C.3133138 .3642578 .3474121 .36946617 .36938478 .3798828 .39135743 .39029948 .40820313 .4049479 .41992188 .42382813 .43164063 .44270835 .4375 .46679688 .4375 .49609376 .4375 .5253906 .43172203 .54939779 .42016603 .56811526 .40861003 .5868327 .39208985 .6010742 .37060548 .61083987 .3491211 .62060549 .31461589 .6253255 .26708985 .625V.3642578M.26708985 .32617188V.11376953L.26660157 .089660648C.26660157 .07230631 .27107749 .059209188 .2800293 .050369264 .2889811 .04152934 .3022461 .037109376 .31982423 .037109376 .34586589 .037109376 .36987306 .042867025 .3918457 .054382326 .41381837 .06589762 .43066407 .082605998 .4423828 .10450745 .45410157 .12640889 .45996095 .15082295 .45996095 .17774964 .45996095 .20856221 .45279948 .23621623 .43847657 .26071168 .42415367 .28520713 .40445964 .3023224 .37939454 .3120575 .35432945 .3217926 .31689454 .3264974 .26708985 .32617188Z"/>
<path id="font_1_23" d="M.024902344 .25 .33935548 .67578127H.39892579V.25H.45947267V.1484375H.39892579V0H.26464845V.1484375H.024902344V.25M.072265628 .25H.26464845V.5104828L.072265628 .25Z"/>
<path id="font_1_54" d="M.46972657 .6767578 .47509767 .4560547H.45507813C.44563804 .5112508 .42244468 .5556488 .38549806 .58924868 .34855143 .6228485 .30859376 .63964846 .265625 .63964846 .23242188 .63964846 .20613607 .6308034 .18676758 .6131134 .1673991 .59543356 .15771485 .57507327 .15771485 .5520325 .15771485 .5374349 .16113281 .5244548 .16796875 .51309207 .17740886 .4978434 .19254558 .48275758 .2133789 .46783448 .22867839 .4571228 .2639974 .43813578 .31933595 .4108734 .3968099 .37290956 .449056 .3370463 .47607423 .3032837 .5027669 .26953126 .5161133 .23090618 .5161133 .18740845 .5161133 .13223267 .49454753 .08476257 .45141603 .04499817 .40828453 .0052337648 .35351563-.0146484379 .28710938-.0146484379 .26627604-.0146484379 .24658203-.012532552 .22802735-.008300781 .20947266-.0040690104 .18619792 .00390625 .15820313 .015625 .14257813 .022135416 .12972005 .025390625 .119628909 .025390625 .11116537 .025390625 .10221354 .022094727 .09277344 .01550293 .083333339 .008911133 .075683597-.0011393229 .06982422-.0146484379H.051757814V.23535156H.06982422C.08414713 .16520183 .11173502 .111694339 .15258789 .0748291 .19344075 .037963869 .23746746 .01953125 .28466798 .01953125 .3211263 .01953125 .35017906 .029429118 .37182618 .049224855 .3934733 .06902059 .40429688 .09206136 .40429688 .11834717 .40429688 .13392131 .40014649 .14900716 .3918457 .16360474 .38354493 .17821248 .370931 .19208782 .3540039 .20523072 .3370768 .21837361 .3071289 .23548889 .26416017 .25657655 .2039388 .2861074 .16064453 .3112742 .13427735 .33207704 .107910159 .35287986 .087646488 .376119 .07348633 .40179444 .059326173 .42746989 .052246095 .45574443 .052246095 .48661805 .052246095 .53927108 .071614589 .5841217 .11035156 .62117007 .14908855 .6582286 .19791667 .6767578 .25683595 .6767578 .2783203 .6767578 .29915367 .6741231 .31933595 .66885378 .3346354 .6649068 .35327149 .6575877 .37524415 .64689639 .3972168 .636205 .41259767 .6308594 .42138673 .6308594 .42985026 .6308594 .43652345 .63348898 .44140626 .63874819 .44628907 .6440175 .45084635 .65668746 .45507813 .6767578H.46972657Z"/>
<path id="font_1_82" d="M.24902344 .47070313C.28873698 .47070313 .3256836 .46043907 .35986329 .4399109 .39404298 .41938273 .42000328 .3902181 .43774415 .352417 .45548503 .31461589 .46435548 .27323405 .46435548 .22827149 .46435548 .16343181 .44791667 .109176639 .41503907 .06550598 .37532554 .012720744 .32047526-.013671875 .25048829-.013671875 .18180339-.013671875 .12890625 .010442098 .091796878 .058670045 .0546875 .10689799 .036132814 .16278076 .036132814 .22631836 .036132814 .29180909 .055094404 .34891258 .09301758 .39762879 .13094075 .446345 .1829427 .47070313 .24902344 .47070313M.25097657 .43652345C.234375 .43652345 .22013347 .43024699 .20825196 .4176941 .19637044 .40515138 .18855794 .38038636 .18481446 .34339906 .18107097 .30641175 .17919922 .2549998 .17919922 .18916321 .17919922 .1542918 .18147786 .12169901 .18603516 .09138489 .18961589 .06825256 .19726563 .050654096 .20898438 .038589479 .22070313 .026535035 .23404949 .020507813 .24902344 .020507813 .26367188 .020507813 .2758789 .02458191 .28564454 .032730104 .29833985 .043807985 .30680339 .05929057 .31103517 .07917786 .31754557 .11013285 .32080079 .17270406 .32080079 .26689149 .32080079 .32229106 .31770835 .3603363 .31152345 .38102723 .30533854 .4017283 .29622398 .416804 .2841797 .42625428 .27571617 .43310038 .26464845 .43652345 .25097657 .43652345Z"/>
<path id="font_1_79" d="M.21240235 .6621094V.09472656C.21240235 .0625 .21614583 .04191081 .22363281 .032958986 .2311198 .024007163 .24576824 .018880209 .26757813 .017578125V0H.020996094V.017578125C.041178388 .018229166 .056152345 .024088541 .06591797 .03515625 .07242838 .04264323 .075683597 .0625 .075683597 .09472656V.5673828C.075683597 .5994873 .0719401 .6200409 .064453128 .6290436 .056966146 .63805648 .04248047 .643219 .020996094 .64453127V.6621094H.21240235Z"/>
<path id="font_1_88" d="M.47460938 .45703126V.099609378C.47460938 .064565028 .4778646 .042704267 .484375 .0340271 .4908854 .025349936 .50406906 .019866944 .5239258 .017578125V0H.33789063V.061035158C.31608073 .03499349 .29427085 .0160319 .27246095 .0041503908 .25065104-.0077311198 .22623699-.013671875 .19921875-.013671875 .17350261-.013671875 .15063477-.0057779948 .13061524 .010009766 .1105957 .025797526 .09716797 .044270833 .09033203 .06542969 .083496097 .08658854 .080078128 .123535159 .080078128 .17626953V.35742188C.080078128 .39234416 .0769043 .41408793 .07055664 .4226532 .064208988 .43121849 .05094401 .43681846 .030761719 .43945313V.45703126H.21679688V.14463806C.21679688 .11204529 .2183431 .091023769 .22143555 .08157349 .224528 .07212321 .22941081 .06495158 .23608399 .060058595 .24275716 .05517578 .25048829 .052734376 .25927735 .052734376 .2709961 .052734376 .28157554 .055826826 .29101563 .06201172 .30403648 .07047526 .31966148 .0875651 .33789063 .11328125V.35742188C.33789063 .39234416 .3347168 .41408793 .32836915 .4226532 .32202149 .43121849 .3087565 .43681846 .28857423 .43945313V.45703126H.47460938Z"/>
<path id="font_1_87" d="M.21484375 .625V.45703126H.3232422V.4091797H.21484375V.12667847C.21484375 .100240077 .21606446 .08318583 .21850586 .07551575 .22094727 .067845668 .22526042 .061640424 .23144531 .056900026 .2376302 .0521698 .24332683 .049804689 .24853516 .049804689 .269694 .049804689 .28971354 .06608073 .30859376 .09863281L.3232422 .08778381C.296875 .02470398 .254069-.0068359377 .19482422-.0068359377 .16585286-.0068359377 .14135742 .0012461344 .12133789 .017410279 .10131836 .033584596 .088541667 .051635744 .08300781 .07156372 .0797526 .08267212 .078125 .112726848 .078125 .1617279V.4091797H.018554688V.4263153C.059570314 .4553477 .09448242 .48585 .123291019 .51782229 .15209961 .5497945 .1772461 .58552047 .19873047 .625H.21484375Z"/>
<path id="font_1_76" d="M.14355469 .6767578C.16471355 .6767578 .18261719 .6693268 .19726563 .6544647 .21191406 .63961288 .21923828 .6217346 .21923828 .6008301 .21923828 .57992556 .21183269 .5621236 .19702149 .5474243 .18221028 .53273519 .16438802 .5253906 .14355469 .5253906 .12272135 .5253906 .10498047 .53273519 .09033203 .5474243 .075683597 .5621236 .068359378 .57992556 .068359378 .6008301 .068359378 .6217346 .075683597 .63961288 .09033203 .6544647 .10498047 .6693268 .12272135 .6767578 .14355469 .6767578M.21191406 .45703126V.09472656C.21191406 .0625 .21565755 .04191081 .22314453 .032958986 .23063152 .024007163 .24527996 .018880209 .26708985 .017578125V0H.020507813V.017578125C.040690107 .018229166 .055664064 .024088541 .06542969 .03515625 .0719401 .04264323 .07519531 .0625 .07519531 .09472656V.36132813C.07519531 .39396159 .07145182 .41481019 .063964847 .4238739 .056477865 .43293763 .041992189 .4381307 .020507813 .43945313V.45703126H.21191406Z"/>
<path id="font_1_81" d="M.22021485 .45703126V.39746095C.24365235 .4230245 .26611329 .44161988 .28759767 .45324708 .30908204 .46488444 .332194 .47070313 .3569336 .47070313 .386556 .47070313 .4111328 .46247355 .43066407 .4460144 .4501953 .42955528 .46321617 .4091034 .46972657 .3846588 .4749349 .3660736 .47753907 .3303782 .47753907 .27757264V.099609378C.47753907 .064453128 .4807129 .042561849 .48706056 .033935548 .4934082 .025309245 .50667318 .019856772 .52685549 .017578125V0H.29589845V.017578125C.31315104 .019856772 .32552085 .027018229 .3330078 .0390625 .33821617 .04720052 .3408203 .06738281 .3408203 .099609378V.30273438C.3408203 .34016929 .33935548 .36376954 .33642579 .37353517 .3334961 .38330079 .3285319 .39086915 .3215332 .39624024 .31453453 .40161134 .30680339 .40429688 .29833985 .40429688 .27034507 .40429688 .24430339 .3841146 .22021485 .34375V.099609378C.22021485 .06542969 .22338867 .04378255 .22973633 .03466797 .23608399 .025553385 .24788411 .019856772 .26513673 .017578125V0H.034179689V.017578125C.053385419 .01953125 .06705729 .025716147 .07519531 .036132814 .080729167 .04329427 .083496097 .064453128 .083496097 .099609378V.35742188C.083496097 .39234416 .080322269 .41408793 .07397461 .4226532 .06762695 .43121849 .05436198 .43681846 .034179689 .43945313V.45703126H.22021485Z"/>
<path id="font_2_11" d="M.31054688-.1953125V-.21386719C.26139323-.18912761 .22037761-.16015625 .1875-.12695313 .140625-.0797526 .10449219-.024088541 .07910156 .040039064 .053710939 .104166667 .041015626 .17073567 .041015626 .2397461 .041015626 .34065757 .06591797 .43269859 .115722659 .51586917 .16552735 .59903976 .23046875 .6585286 .31054688 .69433596V.6738281C.2705078 .6517029 .2376302 .6214447 .21191406 .5830536 .18619792 .5446625 .16699219 .49602256 .15429688 .4371338 .14160156 .37825523 .1352539 .31676737 .1352539 .2526703 .1352539 .18304952 .140625 .119771327 .15136719 .06283569 .15983074 .017944336 .17008464-.018081665 .1821289-.04524231 .19417317-.072413127 .21036785-.09852091 .23071289-.123565677 .25105796-.1486206 .27766929-.17253621 .31054688-.1953125Z"/>
<path id="font_2_68" d="M.28466798 .063934329C.23876953 .028462729 .20996094 .007965088 .19824219 .0024414063 .18066406-.0056966149 .16194661-.009765625 .14208985-.009765625 .11116537-.009765625 .08569336 .00081380209 .06567383 .021972657 .045654298 .04313151 .03564453 .07096354 .03564453 .10546875 .03564453 .12727864 .040527345 .14615886 .05029297 .16210938 .06363932 .1842448 .08683268 .20507813 .11987305 .22460938 .1529134 .24414063 .20784505 .26790367 .28466798 .29589845V.31341554C.28466798 .35784913 .2775879 .38833619 .26342774 .4048767 .24926758 .42141725 .22867839 .4296875 .20166016 .4296875 .18115235 .4296875 .1648763 .42415367 .15283203 .41308595 .14046224 .40201823 .13427735 .3893229 .13427735 .375L.1352539 .3466797C.1352539 .33170573 .13142903 .32014976 .1237793 .31201173 .116129558 .3038737 .10611979 .2998047 .09375 .2998047 .08170573 .2998047 .07185873 .30404664 .064208988 .31253053 .056559247 .32102458 .052734376 .33261619 .052734376 .3473053 .052734376 .37539164 .06705729 .40118919 .095703128 .42469789 .12434896 .44820658 .16455078 .45996095 .2163086 .45996095 .25602214 .45996095 .28857423 .45329795 .31396485 .43997193 .33317057 .42989097 .34733073 .41411845 .3564453 .39265443 .3623047 .37867738 .36523438 .35006715 .36523438 .30682374V.15515137C.36523438 .112559 .3660482 .08646647 .36767579 .07687378 .36930339 .06728109 .37198893 .060857137 .37573243 .05760193 .37947593 .05435689 .38378907 .052734376 .38867188 .052734376 .39388023 .052734376 .3984375 .0538737 .40234376 .056152345 .4091797 .060384115 .42236329 .072265628 .44189454 .091796878V.064453128C.4054362 .015625 .37060548-.0087890629 .33740235-.0087890629 .3214518-.0087890629 .3087565-.0032958985 .2993164 .0076904299 .2898763 .01868693 .2849935 .037434896 .28466798 .063934329M.28466798 .09559631V.265625C.23551433 .24613445 .20377605 .23233032 .18945313 .22421265 .16373699 .20992024 .14534505 .1949768 .13427735 .17938233 .12320963 .16379802 .11767578 .14674886 .11767578 .12823487 .11767578 .10484823 .12467448 .08543905 .13867188 .070007327 .15266927 .054585775 .16878255 .046875 .18701172 .046875 .2117513 .046875 .24430339 .06311544 .28466798 .09559631Z"/>
<path id="font_2_12" d="M.022460938 .6738281V.69433596C.0719401 .6699219 .11311849 .6411133 .1459961 .60791018 .19254558 .5603841 .22851563 .5046387 .25390626 .44067384 .27929688 .37670899 .2919922 .3100586 .2919922 .24072266 .2919922 .1398112 .26717124 .047770185 .2175293-.03540039 .16788738-.11857096 .102864589-.17805989 .022460938-.21386719V-.1953125C.0625-.17286174 .095458988-.14252217 .12133789-.10429382 .1472168-.06606547 .16642253-.017430624 .17895508 .041610719 .19148763 .10066223 .1977539 .16223145 .1977539 .22631836 .1977539 .29562379 .19238281 .35890199 .18164063 .41615296 .17350261 .46105448 .16333008 .49700419 .15112305 .5240021 .13891602 .55101016 .12272135 .57703658 .10253906 .6020813 .08235677 .62713626 .055664064 .6510518 .022460938 .6738281Z"/>
<path id="font_2_3" d="M0 0Z"/>
<path id="font_3_9" d="M.2999878-.15501404C.2659912-.13200379 .25-.117004398 .22999573-.09100342 .17599488-.019012452 .14498902 .10499573 .14498902 .2539978 .14498902 .3899994 .17098999 .5079956 .21699524 .5799866 .23899842 .61499026 .2579956 .6339874 .2999878 .6629944L.2869873 .6799927C.24099732 .6559906 .22099304 .6419983 .19499207 .6179962 .10499573 .5349884 .052993776 .40098573 .052993776 .2539978 .052993776 .116989139 .09799194-.009002686 .17799378-.09300232 .20899964-.12600708 .23298645-.14300537 .2869873-.17201233L.2999878-.15501404Z"/>
<path id="font_3_10" d="M.042999269-.17201233C.08898926-.14700318 .10899353-.13400269 .1349945-.11000061 .22499085-.027008057 .2769928 .10798645 .2769928 .2539978 .2769928 .3909912 .23199463 .5169983 .1519928 .60198977 .11999512 .6339874 .09700012 .6519928 .042999269 .6799927L.02999878 .6629944C.06498718 .6389923 .07998657 .625 .099990848 .598999 .1539917 .5269928 .18499756 .40299989 .18499756 .2539978 .18499756 .117996219 .15899658 0 .11299133-.072006229 .08999634-.10700989 .069992069-.12701416 .02999878-.15501404L.042999269-.17201233Z"/>
<path id="font_2_21" d="M.4584961 .12890625 .41210938 0H.021484375V.018432618C.13639324 .12313843 .21728516 .20865886 .26416017 .2749939 .31103517 .3413391 .33447267 .40201823 .33447267 .45703126 .33447267 .498881 .3216146 .5332692 .29589845 .5601959 .27018229 .5871226 .23942058 .60058596 .20361328 .60058596 .1710612 .60058596 .1418457 .5911458 .1159668 .5722656 .09008789 .55339559 .07096354 .5257263 .05859375 .4892578H.040527345C.048665365 .5493266 .06958008 .59542849 .103271488 .6275635 .13696289 .6597087 .17903646 .67578127 .22949219 .67578127 .28320313 .67578127 .3280436 .6585286 .36401368 .62402346 .39998374 .58951827 .41796876 .5488281 .41796876 .5019531 .41796876 .46842448 .41015626 .43489585 .39453126 .4013672 .37044273 .3486328 .33138023 .292806 .27734376 .23388672 .19628906 .14552816 .14567058 .09263102 .12548828 .07519531H.29833985C.3334961 .07519531 .3581543 .0764974 .37231446 .07910156 .3864746 .08170573 .3992513 .086995448 .41064454 .0949707 .42203776 .10294596 .43196617 .11425781 .4404297 .12890625H.4584961Z"/>
<path id="font_2_22" d="M.05078125 .5361328C.06966146 .5807292 .09350586 .615153 .12231445 .6394043 .15112305 .6636556 .18701172 .67578127 .22998047 .67578127 .28304038 .67578127 .32373048 .6585286 .35205079 .62402346 .37353517 .5983073 .38427735 .5708008 .38427735 .5415039 .38427735 .4933268 .3540039 .44352214 .29345704 .39208985 .33414714 .3761393 .36490885 .35335288 .3857422 .32373048 .40657554 .29410807 .4169922 .25927735 .4169922 .21923828 .4169922 .16194661 .39876304 .11230469 .3623047 .0703125 .31477867 .015625 .24593099-.01171875 .15576172-.01171875 .11116537-.01171875 .08081055-.006184896 .064697269 .0048828127 .048583986 .015950522 .040527345 .027832032 .040527345 .040527345 .040527345 .04996745 .044352216 .05826823 .052001954 .06542969 .05965169 .07259115 .068847659 .076171878 .079589847 .076171878 .08772787 .076171878 .09602865 .07488505 .10449219 .0723114 .11002604 .07069397 .122558597 .06481425 .14208985 .05467224 .1616211 .04453023 .1751302 .03849284 .18261719 .03656006 .19466146 .03302002 .20751953 .03125 .2211914 .03125 .25439454 .03125 .28328453 .044108076 .30786134 .06982422 .33243815 .09554037 .34472657 .12597656 .34472657 .16113281 .34472657 .18684896 .33902995 .21191406 .32763673 .23632813 .3191732 .25455729 .30989585 .26839195 .2998047 .27783204 .28580729 .29085288 .26660157 .30265299 .2421875 .31323243 .21777344 .32381187 .1928711 .32910157 .16748047 .32910157H.15185547V.34375C.17757161 .34699504 .20336914 .35625205 .22924805 .371521 .25512696 .38680015 .27392579 .40516154 .28564454 .42660523 .29736329 .44804893 .30322267 .4716085 .30322267 .49728395 .30322267 .5307414 .2927246 .55778506 .27172853 .5784149 .25073243 .599055 .22460938 .609375 .19335938 .609375 .14290364 .609375 .100748699 .58235678 .06689453 .5283203L.05078125 .5361328Z"/>
<path id="font_2_23" d="M.46533204 .24414063V.17480469H.37646485V0H.29589845V.17480469H.015625V.23730469L.3227539 .67578127H.37646485V.24414063H.46533204M.29589845 .24414063V.5725708L.06347656 .24414063H.29589845Z"/>
<path id="font_2_55" d="M.5786133 .6621094 .5859375 .50634768H.5673828C.56380209 .5336914 .55891928 .55322268 .5527344 .5649414 .54264327 .5838216 .5292155 .5977376 .5124512 .60668948 .49568687 .6156413 .4736328 .6201172 .44628907 .6201172H.35302735V.115234378C.35302735 .07454427 .35742188 .049153646 .36621095 .0390625 .37858073 .025390625 .3976237 .018554688 .42333985 .018554688H.44628907V0H.16552735V.018554688H.18896485C.21695964 .018554688 .2368164 .027018229 .24853516 .043945314 .25569663 .05436198 .25927735 .078125 .25927735 .115234378V.6201172H.1796875C.14876302 .6201172 .12679036 .61783859 .11376953 .61328127 .096842449 .6070964 .08235677 .59521487 .0703125 .5776367 .05826823 .5600586 .05110677 .5362956 .048828126 .50634768H.030273438L.038085939 .6621094H.5786133Z"/>
<path id="font_2_75" d="M.16259766 .69433596V.36628724C.19873047 .4061737 .2273763 .4317576 .24853516 .44303895 .269694 .45432029 .29085288 .45996095 .31201173 .45996095 .33740235 .45996095 .35921226 .4529775 .3774414 .43901063 .39567057 .42505393 .4091797 .4031423 .41796876 .37327577 .42415367 .35250346 .4272461 .31452433 .4272461 .25933839V.1015625C.4272461 .07307943 .42952476 .05359904 .43408204 .043121339 .43733726 .035257978 .4428711 .029032389 .4506836 .02444458 .4584961 .019866944 .472819 .017578125 .49365235 .017578125V0H.27392579V.017578125H.2841797C.30501304 .017578125 .3194987 .020767212 .32763673 .027145386 .33577476 .033533735 .34147135 .042948408 .34472657 .055389406 .34570313 .060628255 .3461914 .07601929 .3461914 .1015625V.25898744C.3461914 .30758158 .3436686 .3394877 .33862306 .3547058 .33357749 .36993409 .32552085 .38135276 .31445313 .3889618 .3033854 .39658103 .29003907 .40039063 .27441407 .40039063 .25846354 .40039063 .24186199 .39616905 .22460938 .38772584 .20735677 .37928263 .1866862 .3622335 .16259766 .33657838V.1015625C.16259766 .07078043 .16430664 .05162557 .16772461 .0440979 .17114258 .036570234 .17749024 .03026835 .18676758 .02519226 .19604492 .02011617 .21207683 .017578125 .23486328 .017578125V0H.013183594V.017578125C.033040365 .017578125 .048665365 .020690918 .060058595 .026916504 .06656901 .030181885 .071777347 .036397298 .075683597 .045562746 .079589847 .05473836 .08154297 .073404949 .08154297 .1015625V.5058594C.08154297 .5567525 .080322269 .588033 .07788086 .5997009 .07543945 .61136886 .07169596 .61931356 .06665039 .62353518 .061604818 .6277669 .05485026 .6298828 .04638672 .6298828 .03955078 .6298828 .028483073 .6272786 .013183594 .6220703L.0063476564 .63964846 .14013672 .69433596H.16259766Z"/>
<path id="font_2_72" d="M.10644531 .2783203C.10611979 .21221924 .12223307 .16037496 .15478516 .122787479 .18733724 .08519999 .22558594 .06640625 .26953126 .06640625 .29882813 .06640625 .32430015 .0744985 .34594728 .09068298 .3675944 .10686747 .3857422 .13458252 .40039063 .17382813L.41552735 .16401673C.4086914 .1191864 .38883464 .07836405 .35595704 .041549684 .32307945 .004735311 .28190104-.013671875 .23242188-.013671875 .17871094-.013671875 .13273113 .007197062 .09448242 .048934938 .056233724 .09068298 .037109376 .14680481 .037109376 .21730042 .037109376 .29363505 .056722005 .35315959 .095947269 .39587403 .13517253 .43859864 .18440755 .45996095 .24365235 .45996095 .29378257 .45996095 .33496095 .44348146 .3671875 .41052247 .39941407 .37757365 .41552735 .33350627 .41552735 .2783203H.10644531M.10644531 .30664063H.31347657C.31184898 .3350525 .308431 .35506694 .30322267 .36668397 .29508464 .38477073 .28295899 .39897666 .2668457 .40930177 .25073243 .41963706 .23388672 .4248047 .2163086 .4248047 .18929036 .4248047 .16512044 .4143931 .14379883 .39356996 .12247721 .3727468 .11002604 .34377036 .10644531 .30664063Z"/>
<path id="font_2_85" d="M.16210938 .45996095V.359375C.19954427 .42643229 .23795574 .45996095 .27734376 .45996095 .2952474 .45996095 .3100586 .45450846 .32177735 .44360353 .3334961 .43269859 .33935548 .42008464 .33935548 .40576173 .33935548 .3930664 .3351237 .38232423 .32666017 .37353517 .31819663 .3647461 .30810548 .36035157 .29638673 .36035157 .2849935 .36035157 .2722168 .3658854 .25805665 .37695313 .24389649 .38802085 .23339844 .3935547 .2265625 .3935547 .22070313 .3935547 .21435547 .39032493 .20751953 .38386537 .1928711 .37061057 .17773438 .34879557 .16210938 .3184204V.10449219C.16210938 .07973226 .16520183 .06100464 .17138672 .048309328 .17561849 .03951009 .18310547 .03218587 .19384766 .02633667 .20458985 .02049764 .22005208 .017578125 .24023438 .017578125V0H.011230469V.017578125C.034016927 .017578125 .05094401 .021199545 .06201172 .028442383 .07014974 .03371175 .07584635 .042109174 .07910156 .053634645 .080729167 .059239706 .08154297 .07521566 .08154297 .1015625V.2734375C.08154297 .32552085 .08048502 .3565267 .07836914 .36645509 .07625326 .37638346 .07234701 .3836263 .06665039 .3881836 .060953779 .39274089 .0538737 .39501954 .045410158 .39501954 .03531901 .39501954 .023925782 .39257813 .011230469 .3876953L.0063476564 .40527345 .14160156 .45996095H.16210938Z"/>
<path id="font_2_73" d="M.20605469 .41210938V.11816406C.20605469 .0764974 .21061199 .050130208 .21972656 .0390625 .23177083 .024739584 .24788411 .017578125 .2680664 .017578125H.30859376V0H.041503908V.017578125H.061523439C.07454427 .017578125 .08642578 .020833334 .09716797 .02734375 .107910159 .033854169 .11531576 .04264323 .119384769 .053710939 .12345377 .06477865 .12548828 .08626302 .12548828 .11816406V.41210938H.03857422V.44726563H.12548828V.47668458C.12548828 .52145388 .13264974 .55936178 .14697266 .5904083 .16129558 .6214549 .18318685 .6465352 .21264649 .6656494 .24210613 .68477377 .27522788 .69433596 .31201173 .69433596 .3461914 .69433596 .37760417 .68326827 .40625 .6611328 .42513023 .6464844 .4345703 .6300456 .4345703 .6118164 .4345703 .6020508 .43033854 .5928548 .421875 .5842285 .41341148 .57560226 .40429688 .57128909 .39453126 .57128909 .38704429 .57128909 .3791504 .5739746 .3708496 .5793457 .36254884 .5847168 .3523763 .59627279 .34033204 .6140137 .32828776 .6317546 .31722007 .64371749 .3071289 .64990237 .29703776 .6560872 .28580729 .6591797 .2734375 .6591797 .25846354 .6591797 .24576824 .6551717 .23535156 .64715579 .22493489 .63914999 .21744792 .62672427 .21289063 .60987856 .20833333 .59303286 .20605469 .5496216 .20605469 .47964479V.44726563H.32128907V.41210938H.20605469Z"/>
<path id="font_2_82" d="M.25 .45996095C.31770835 .45996095 .3720703 .43427024 .41308595 .3828888 .44791667 .33899436 .46533204 .28858949 .46533204 .2316742 .46533204 .19167583 .45572917 .15118917 .43652345 .11021423 .41731773 .06924947 .39086915 .038360597 .35717774 .017547608 .32348634-.0032653809 .28597007-.013671875 .2446289-.013671875 .1772461-.013671875 .123697917 .013158162 .083984378 .06681824 .05045573 .11201477 .033691408 .16274007 .033691408 .21899414 .033691408 .2599691 .043863935 .30069987 .064208988 .34118653 .08455404 .3816732 .111328128 .41159059 .14453125 .43093873 .17773438 .45028688 .21289063 .45996095 .25 .45996095M.23486328 .42773438C.21761067 .42773438 .20027669 .42262269 .18286133 .4123993 .16544597 .40218608 .15136719 .38426719 .140625 .35864259 .12988281 .33301798 .12451172 .3000997 .12451172 .2598877 .12451172 .1950175 .13745117 .13906352 .16333008 .09202576 .18920899 .04499817 .2233073 .021484375 .265625 .021484375 .29720054 .021484375 .3232422 .03445943 .34375 .060409547 .3642578 .08635966 .37451173 .13095601 .37451173 .19419861 .37451173 .27334086 .35742188 .33561708 .3232422 .38102723 .30013023 .4121653 .27067057 .42773438 .23486328 .42773438Z"/>
<path id="font_2_90" d="M.0063476564 .44726563H.19384766V.4296875C.17659505 .42837525 .1652832 .42525736 .15991211 .42033387 .15454102 .41542054 .15185547 .40837608 .15185547 .39920045 .15185547 .38902793 .15462239 .37672935 .16015625 .3623047L.25585938 .105529788 .35205079 .31497193 .32666017 .3803711C.31884767 .4000956 .30859376 .41374208 .29589845 .42131043 .28873698 .42590843 .27539063 .42870078 .25585938 .4296875V.44726563H.46875V.4296875C.4453125 .42870078 .42871095 .42441813 .4189453 .4168396 .4124349 .41156007 .4091797 .40315248 .4091797 .39161683 .4091797 .3851064 .41048179 .37842814 .41308595 .37158204L.51464846 .114471439 .6088867 .3623047C.61539718 .38001506 .61865237 .39411418 .61865237 .40460206 .61865237 .4108378 .6154785 .41641236 .60913088 .42132569 .6027832 .42624919 .59033206 .42903648 .57177737 .4296875V.44726563H.7128906V.4296875C.6845703 .4254354 .663737 .4061432 .6503906 .3718109L.50097659-.013671875H.48095704L.36914063 .27145387 .23876953-.013671875H.22070313L.07714844 .3623047C.067708339 .38624064 .05843099 .40238954 .049316408 .41075135 .040201826 .41911317 .025878907 .4254252 .0063476564 .4296875V.44726563Z"/>
<path id="font_2_81" d="M.1616211 .36572267C.21402996 .4285482 .2639974 .45996095 .31152345 .45996095 .3359375 .45996095 .3569336 .45387269 .37451173 .44169618 .39208985 .42952983 .40608726 .40948487 .4165039 .38156129 .42366538 .3620809 .4272461 .33221437 .4272461 .29196168V.1015625C.4272461 .07307943 .42952476 .0537618 .43408204 .04360962 .43766276 .035420736 .44344078 .029032389 .45141603 .02444458 .45939128 .019866944 .4741211 .017578125 .49560548 .017578125V0H.27441407V.017578125H.2836914C.30452476 .017578125 .3190918 .020767212 .32739259 .027145386 .33569337 .033533735 .34147135 .042948408 .34472657 .055389406 .34602867 .060302736 .3466797 .075693767 .3466797 .1015625V.2843628C.3466797 .32499186 .34138999 .3544871 .33081056 .3728485 .3202311 .39120994 .30240885 .40039063 .27734376 .40039063 .23860677 .40039063 .20003255 .37923179 .1616211 .33691407V.1015625C.1616211 .07111613 .16341146 .052286786 .16699219 .045074464 .17154949 .035583497 .17781575 .028625489 .18579102 .02420044 .19376628 .019785563 .20996094 .017578125 .234375 .017578125V0H.013183594V.017578125H.022949219C.045735677 .017578125 .061116537 .023386637 .0690918 .035003663 .077067058 .04663086 .08105469 .06881714 .08105469 .1015625V.26660157C.08105469 .3203125 .079833988 .35302735 .07739258 .3647461 .07495117 .37646485 .07120768 .3844401 .06616211 .38867188 .061116537 .39290367 .05436198 .39501954 .045898439 .39501954 .036783857 .39501954 .025878907 .39257813 .013183594 .3876953L.005859375 .40527345 .140625 .45996095H.1616211V.36572267Z"/>
<path id="font_2_20" d="M.1171875 .59765627 .2783203 .67578127H.2944336V.1171875C.2944336 .080078128 .29597984 .056966146 .29907228 .047851564 .3021647 .03873698 .30859376 .03173828 .31835938 .026855469 .328125 .021972657 .34798179 .019205729 .3779297 .018554688V0H.12890625V.018554688C.16015625 .019205729 .18033855 .021891276 .18945313 .026611329 .1985677 .03133138 .20491536 .037679037 .2084961 .045654298 .21207683 .05362956 .21386719 .07747396 .21386719 .1171875V.47460938C.21386719 .5225728 .21223958 .5533549 .20898438 .56695559 .20670574 .57733157 .20255535 .58496096 .1965332 .58984377 .19051107 .59472659 .18326824 .59716799 .17480469 .59716799 .16276042 .59716799 .1459961 .5921224 .12451172 .58203127L.1171875 .59765627Z"/>
<path id="font_2_19" d="M.036132814 .32714845C.036132814 .40266929 .047526044 .46769206 .0703125 .5222168 .09309896 .5767415 .1233724 .6173503 .16113281 .64404299 .19042969 .66520187 .22070313 .67578127 .25195313 .67578127 .30273438 .67578127 .34830729 .64990237 .38867188 .59814456 .4391276 .5340169 .46435548 .44710288 .46435548 .33740235 .46435548 .26057945 .45328776 .1953125 .43115235 .14160156 .40901695 .087890628 .38077799 .048909505 .34643556 .024658204 .3120931 .00040690104 .27897135-.01171875 .24707031-.01171875 .18391927-.01171875 .13134766 .025553385 .08935547 .100097659 .0538737 .16292317 .036132814 .23860677 .036132814 .32714845M.13183594 .3152008C.13183594 .22412618 .1430664 .14980062 .16552735 .09222412 .18408203 .043762208 .2117513 .01953125 .24853516 .01953125 .26611329 .01953125 .28434245 .027420044 .30322267 .04319763 .32210288 .05897522 .33642579 .08540344 .3461914 .1224823 .36116538 .17842102 .36865235 .2572988 .36865235 .3591156 .36865235 .4345754 .36083985 .49751283 .34521485 .54792788 .3334961 .5853322 .31835938 .61184188 .2998047 .62745669 .28645835 .63818868 .27034507 .6435547 .25146485 .6435547 .22932942 .6435547 .20963542 .6336365 .19238281 .61380007 .16894531 .5868022 .1529948 .54435226 .14453125 .4864502 .1360677 .42855836 .13183594 .37147523 .13183594 .3152008Z"/>
<path id="font_2_15" d="M.053710939-.16699219V-.14544678C.087239589-.13434856 .11319987-.117126468 .1315918-.09378052 .14998372-.07043457 .15917969-.04570516 .15917969-.019592286 .15917969-.013387044 .15771485-.008163452 .15478516-.003921509 .15250652-.0009816488 .15022786 .00048828127 .14794922 .00048828127 .14436849 .00048828127 .13655599-.002766927 .12451172-.009277344 .118652347-.012207031 .112467449-.013671875 .10595703-.013671875 .09000651-.013671875 .077311199-.008951823 .067871097 .00048828127 .05843099 .009928386 .053710939 .022949219 .053710939 .03955078 .053710939 .0555013 .059814454 .06917318 .072021488 .080566409 .084228519 .09195963 .099121097 .09765625 .11669922 .09765625 .1381836 .09765625 .15730794 .08827718 .17407227 .06951904 .1908366 .050771078 .19921875 .025909424 .19921875-.005065918 .19921875-.03866577 .18758138-.069895427 .16430664-.09875488 .1410319-.12761434 .104166667-.1503601 .053710939-.16699219Z"/>
<path id="font_2_17" d="M.125 .09472656C.14029949 .09472656 .15315755 .08943685 .16357422 .07885742 .17399089 .06827799 .17919922 .0555013 .17919922 .040527345 .17919922 .025553385 .1739095 .012776692 .16333008 .0021972657 .15275066-.008382161 .13997396-.013671875 .125-.013671875 .11002604-.013671875 .09724935-.008382161 .08666992 .0021972657 .07609049 .012776692 .07080078 .025553385 .07080078 .040527345 .07080078 .055826826 .07609049 .0686849 .08666992 .07910156 .09724935 .08951823 .11002604 .09472656 .125 .09472656Z"/>
<path id="font_2_25" d="M.4482422 .67578127V.65625C.40527345 .65204879 .37019859 .64355978 .34301759 .6307831 .31583659 .61801657 .2889811 .5985362 .26245118 .5723419 .23592122 .54615786 .21394857 .51697799 .1965332 .48480226 .17911785 .45263673 .16455078 .4144033 .15283203 .37010194 .19970703 .40266419 .2467448 .4189453 .2939453 .4189453 .33919273 .4189453 .37841798 .40067546 .4116211 .36413575 .44482423 .32759605 .46142579 .28061424 .46142579 .22319031 .46142579 .16772969 .44466148 .11715698 .4111328 .07147217 .37076823 .016011557 .3173828-.01171875 .25097657-.01171875 .20572917-.01171875 .1673177 .0032552083 .13574219 .033203126 .07389323 .09147135 .04296875 .16699219 .04296875 .25976563 .04296875 .3190104 .05485026 .37532554 .07861328 .42871095 .102376308 .48209635 .13631185 .52945968 .18041992 .5708008 .224528 .6121419 .2667643 .63997396 .3071289 .6542969 .3474935 .6686198 .38509117 .67578127 .41992188 .67578127H.4482422M.14453125 .33441163C.13867188 .29040528 .13574219 .25487773 .13574219 .22782898 .13574219 .19653829 .14152019 .16255696 .15307617 .12588501 .16463216 .08921305 .18180339 .06011963 .20458985 .038604738 .2211914 .023284913 .2413737 .015625 .26513673 .015625 .29345704 .015625 .31876628 .028986613 .34106446 .05570984 .36336265 .08244324 .37451173 .12058512 .37451173 .1701355 .37451173 .22587078 .363444 .2741089 .3413086 .31484986 .3191732 .35560099 .2877604 .37597657 .24707031 .37597657 .23470052 .37597657 .22143555 .3733673 .20727539 .3681488 .19311524 .36294047 .17220052 .35169474 .14453125 .33441163Z"/>
<path id="font_2_70" d="M.4111328 .16992188C.39908854 .1110026 .37548829 .06567383 .34033204 .033935548 .30517579 .0021972657 .26627604-.013671875 .22363281-.013671875 .17285156-.013671875 .12858074 .007624308 .09082031 .050216676 .053059896 .092819217 .034179689 .15038045 .034179689 .22290039 .034179689 .2931417 .055094404 .35020957 .09692383 .394104 .13875325 .43800865 .18896485 .45996095 .2475586 .45996095 .2915039 .45996095 .32763673 .44828288 .35595704 .42492677 .38427735 .4015808 .3984375 .3773346 .3984375 .3521881 .3984375 .33977763 .39444987 .32973228 .3864746 .322052 .37849937 .31438194 .36735026 .31054688 .35302735 .31054688 .33382163 .31054688 .31933595 .31678263 .3095703 .32925416 .30403648 .33615113 .30037437 .34928385 .29858399 .36865235 .2967936 .38802085 .2902018 .40279136 .2788086 .41296388 .26741538 .42281089 .2516276 .42773438 .23144531 .42773438 .19889324 .42773438 .1726888 .4156901 .15283203 .39160157 .12646485 .35970054 .11328125 .31754557 .11328125 .26513673 .11328125 .2117513 .12638347 .16463216 .15258789 .1237793 .17879232 .08292643 .2141927 .0625 .25878907 .0625 .2906901 .0625 .31933595 .073404949 .34472657 .095214847 .36263023 .110188808 .38004557 .1373698 .39697267 .17675781L.4111328 .16992188Z"/>
<path id="font_2_80" d="M.1640625 .36390687C.19661458 .39674378 .21582031 .415624 .22167969 .4205475 .23632813 .43302918 .25211589 .4427185 .26904298 .44961549 .28597007 .45651246 .30273438 .45996095 .31933595 .45996095 .34733073 .45996095 .37141929 .4517517 .39160157 .43533326 .41178385 .4189148 .42529298 .395106 .4321289 .36390687 .46565757 .40331523 .49397788 .4291738 .51708987 .44148255 .54020187 .45380149 .56396487 .45996095 .5883789 .45996095 .6121419 .45996095 .6332194 .45387269 .6516113 .44169618 .67000326 .42952983 .6845703 .4096476 .6953125 .38204957 .70247396 .3632202 .7060547 .3336792 .7060547 .2934265V.1015625C.7060547 .073404949 .7081706 .054087324 .71240237 .04360962 .71565756 .03640747 .7216797 .03026835 .73046877 .02519226 .7392578 .02011617 .75358077 .017578125 .7734375 .017578125V0H.5527344V.017578125H.5620117C.58121749 .017578125 .5961914 .021341959 .6069336 .028869629 .6144206 .03410848 .6197917 .042460126 .6230469 .05392456 .62434896 .059488935 .625 .07536825 .625 .1015625V.2926941C.625 .32891847 .62060549 .35446678 .6118164 .369339 .5991211 .39004008 .57877609 .40039063 .55078127 .40039063 .5335286 .40039063 .51619467 .39609275 .4987793 .38749696 .48136393 .37890116 .46028648 .3629303 .43554688 .33958436L.4345703 .33422853 .43554688 .313385V.1015625C.43554688 .07078043 .43725587 .05162557 .44067384 .0440979 .4440918 .036570234 .45052085 .03026835 .45996095 .02519226 .46940104 .02011617 .4855143 .017578125 .5083008 .017578125V0H.28222657V.017578125C.30696617 .017578125 .3239746 .020523072 .33325196 .026412964 .3425293 .03231303 .34895835 .041152955 .35253907 .05293274 .35416667 .058507284 .35498048 .0747172 .35498048 .1015625V.29257203C.35498048 .32877604 .34960938 .354894 .3388672 .3709259 .32454429 .39187113 .30452476 .40234376 .2788086 .40234376 .26123048 .40234376 .24381511 .39760337 .2265625 .38812257 .19954427 .37373863 .17871094 .3575592 .1640625 .33958436V.1015625C.1640625 .07209269 .166097 .052937826 .17016602 .0440979 .17423503 .035257978 .18025716 .028625489 .18823242 .02420044 .19620769 .019785563 .21240235 .017578125 .2368164 .017578125V0H.015625V.017578125C.036132814 .017578125 .05045573 .019785563 .05859375 .02420044 .06673177 .028625489 .072916667 .035664876 .07714844 .045318605 .08138021 .054982503 .083496097 .07373047 .083496097 .1015625V.27148438C.083496097 .32063804 .08203125 .3523763 .07910156 .36669923 .076822917 .3774414 .07324219 .38484703 .068359378 .38891603 .06347656 .39298503 .056803388 .39501954 .048339845 .39501954 .03922526 .39501954 .028320313 .39257813 .015625 .3876953L.008300781 .40527345 .1430664 .45996095H.1640625V.36390687Z"/>
<path id="font_2_18" d="M.28027345 .69433596 .040527345-.013671875H.0014648438L.24121094 .69433596H.28027345Z"/>
<path id="font_2_86" d="M.3203125 .45996095V.3076172H.30419923C.29182945 .35527549 .2759603 .3876953 .2565918 .4048767 .23722331 .42206828 .21256511 .43066407 .18261719 .43066407 .15983074 .43066407 .1414388 .42466227 .1274414 .4126587 .11344401 .40065513 .10644531 .38735453 .10644531 .37275697 .10644531 .354599 .11165365 .33902995 .12207031 .3260498 .13216146 .3127543 .15266927 .29864503 .18359375 .28372193L.2548828 .24917603C.32096354 .21699016 .3540039 .17456563 .3540039 .121902469 .3540039 .08126322 .33862306 .04850769 .30786134 .023635865 .2770996-.0012359619 .24267578-.013671875 .20458985-.013671875 .1772461-.013671875 .1459961-.009033203 .110839847 .00024414063 .100097659 .0033365887 .091308597 .0048828127 .084472659 .0048828127 .07698568 .0048828127 .071126308 .0009765625 .06689453-.0068359377H.05078125V.15332031H.06689453C.07600912 .1077474 .09342448 .073404949 .119140628 .05029297 .14485677 .02718099 .17366536 .015625 .2055664 .015625 .22802735 .015625 .24633789 .022181193 .26049806 .03529358 .2746582 .048416139 .28173829 .064208988 .28173829 .08267212 .28173829 .10502116 .2738444 .123804729 .25805665 .13902283 .24226888 .1542511 .21077474 .17348226 .16357422 .19671631 .116373699 .21996053 .08544922 .24103801 .07080078 .25994874 .056152345 .27853395 .048828126 .30200706 .048828126 .33036805 .048828126 .36721293 .06144206 .39802043 .08666992 .42279054 .11189779 .4475708 .14453125 .45996095 .18457031 .45996095 .20214844 .45996095 .22347005 .45621745 .24853516 .44873048 .26513673 .44384767 .27620445 .44140626 .28173829 .44140626 .28694663 .44140626 .29101563 .44254557 .2939453 .44482423 .296875 .44710288 .30029298 .45214845 .30419923 .45996095H.3203125Z"/>
<path id="font_4_71" d="M.5410156 .69433596 .37304688 .11816406C.36393229 .08691406 .359375 .06640625 .359375 .056640626 .359375 .053385419 .36075846 .05029297 .3635254 .04736328 .36629234 .044433595 .36914063 .04296875 .3720703 .04296875 .3763021 .04296875 .38134767 .045084638 .38720704 .049316408 .39827476 .057128908 .41682945 .076660159 .4428711 .107910159L.45947267 .09765625C.43603517 .065104167 .41235353 .03873698 .38842774 .018554688 .36450196-.0016276041 .3421224-.01171875 .32128907-.01171875 .31022135-.01171875 .30110679-.0078125 .2939453 0 .28678385 .0078125 .28320313 .018880209 .28320313 .033203126 .28320313 .051757814 .28808595 .076660159 .29785157 .107910159L.31689454 .16622925C.269694 .09421793 .22672527 .044387819 .18798828 .016738892 .16129558-.0022328695 .13574219-.01171875 .111328128-.01171875 .08658854-.01171875 .06502279-.00072224935 .04663086 .021270752 .028238932 .043273927 .019042969 .07317606 .019042969 .11097717 .019042969 .15953064 .034505208 .21133931 .06542969 .2664032 .096354167 .32147727 .13720703 .36628724 .18798828 .40083314 .22802735 .42853294 .2648112 .4423828 .29833985 .4423828 .31591798 .4423828 .3310547 .43883769 .34375 .43174745 .3564453 .42466737 .36897788 .4129181 .38134767 .39649964L.42919923 .56533816C.43277995 .5776265 .43570964 .58742269 .43798829 .59472659 .44189454 .60786947 .44384767 .6187083 .44384767 .62724307 .44384767 .63414 .44140626 .6398875 .43652345 .6444855 .4296875 .65004989 .42089845 .65283206 .41015626 .65283206 .40266929 .65283206 .39029948 .6516927 .37304688 .64941409V.6669922L.5410156 .69433596M.35986329 .3482666C.35986329 .36921183 .35384117 .38606263 .34179688 .39881898 .3297526 .41158549 .31445313 .41796876 .29589845 .41796876 .2548828 .41796876 .2121582 .38393656 .16772461 .3158722 .123291019 .24780782 .10107422 .1826884 .10107422 .120513919 .10107422 .09596761 .10644531 .07722982 .1171875 .06430054 .12792969 .051381429 .14078777 .044921876 .15576172 .044921876 .18961589 .044921876 .23209636 .081736247 .28320313 .15536499 .3343099 .22899373 .35986329 .29329429 .35986329 .3482666Z"/>
<path id="font_4_57" d="M.15185547-.0146484379 .20654297 .5366211C.20914714 .5646159 .21044922 .5834961 .21044922 .5932617 .21044922 .60791018 .20499675 .6201172 .1940918 .6298828 .18318685 .63964846 .16601563 .64453127 .14257813 .64453127H.125L.12988281 .6621094H.39111329L.3857422 .64453127C.35742188 .64420577 .33797203 .6412608 .32739259 .6356964 .31681315 .630132 .308431 .6206462 .3022461 .60723879 .29899089 .6000366 .2955729 .5795848 .2919922 .5458832L.2529297 .1512146 .51123049 .5034332C.5392253 .5416514 .5568034 .5682729 .56396487 .5832977 .56884768 .5934194 .57128909 .6022339 .57128909 .6097412 .57128909 .6185608 .5675456 .62623599 .5600586 .6327667 .5525716 .6393077 .5385742 .6432292 .5180664 .64453127L.5239258 .6621094H.72314456L.7182617 .64453127C.7023112 .6432292 .6896159 .6401367 .6801758 .6352539 .66227218 .62679037 .6444499 .6139323 .626709 .5966797 .6089681 .57942709 .5808919 .5445964 .54248049 .4921875L.1694336-.0146484379H.15185547Z"/>
<path id="font_4_85" d="M.052246095 .41503907 .22070313 .4423828 .15039063 .20458985C.20735677 .30212403 .2591146 .3703003 .30566407 .40911866 .33203126 .43129478 .35351563 .4423828 .3701172 .4423828 .38085938 .4423828 .3893229 .43919374 .3955078 .43281556 .40169273 .42644755 .40478517 .41721598 .40478517 .40512086 .40478517 .38355509 .3992513 .3629659 .3881836 .34335328 .3803711 .3286438 .36914063 .32128907 .3544922 .32128907 .34700523 .32128907 .34057618 .32373048 .33520509 .32861329 .32983399 .3334961 .3264974 .34098307 .3251953 .35107423 .32454429 .35725913 .32307945 .36132813 .32080079 .36328126 .31819663 .3658854 .31510417 .3671875 .31152345 .3671875 .3059896 .3671875 .30078126 .3658854 .29589845 .36328126 .2874349 .35872398 .2745768 .34603373 .25732423 .32521058 .23030599 .29330955 .20100911 .25197349 .1694336 .2012024 .15576172 .1797282 .14404297 .15548198 .13427735 .12846375 .12060547 .09136454 .11279297 .06907145 .110839847 .061584474L.095214847 0H.020507813L.110839847 .30371095C.12125651 .3390503 .12646485 .36424766 .12646485 .37930299 .12646485 .38519288 .12402344 .3901011 .119140628 .3940277 .11263021 .39924623 .104003909 .40185548 .09326172 .40185548 .08642578 .40185548 .07389323 .40039063 .055664064 .39746095L.052246095 .41503907Z"/>
<path id="font_4_87" d="M.25976563 .5625 .22167969 .43066407H.29833985L.29003907 .39941407H.21386719L.12988281 .11128235C.12076823 .08030701 .11621094 .060251874 .11621094 .051116945 .11621094 .04559326 .11751302 .041371664 .12011719 .03845215 .12272135 .035532636 .1258138 .034072877 .12939453 .034072877 .13753255 .034072877 .14827474 .03975423 .1616211 .051116945 .1694336 .05762736 .18684896 .07764689 .21386719 .11117554L.22998047 .098968509C.20003255 .05537923 .17171224 .024653117 .14501953 .006790161 .12679036-.005549113 .10839844-.01171875 .08984375-.01171875 .075520839-.01171875 .063802089-.0072428386 .0546875 .0017089844 .045572919 .010660808 .041015626 .022135416 .041015626 .036132814 .041015626 .053710939 .046223958 .080566409 .056640626 .11669922L.1381836 .39941407H.064453128L.06933594 .4187622C.10514323 .42863975 .13492839 .44322715 .1586914 .4625244 .18245442 .4818217 .20898438 .5151469 .23828125 .5625H.25976563Z"/>
<path id="font_3_81" d="M.02999878 .34799195C.05999756 .397995 .07798767 .4099884 .12799073 .41099549H.17399597L.147995 .18899536C.14399719 .16099549 .1309967 .13999939 .09700012 .10798645 .06599426 .07998657 .056991579 .06498718 .056991579 .041992189 .056991579 .010986328 .08099365-.013000488 .11199951-.013000488 .14299011-.013000488 .16699219 .009994507 .17999268 .052993776 .18899536 .07899475 .20298767 .18099976 .21199036 .28199769L.22399903 .41099549H.33299256C.32099916 .32998658 .31199647 .22599793 .31199647 .16699219 .31199647 .054992677 .34899903-.013000488 .41099549-.013000488 .44999696-.013000488 .4850006 .01399231 .5089874 .06098938 .522995 .08898926 .5269928 .10798645 .5299988 .1579895H.5059967C.5009918 .10998535 .48199464 .084991458 .44898988 .084991458 .42900086 .084991458 .4079895 .09899902 .39698792 .11999512 .3880005 .13798523 .3849945 .1539917 .3849945 .18699646 .3849945 .2649994 .3899994 .35499574 .39698792 .41099549H.522995V.5H.17298889C.09199524 .5049896 .039993287 .45700074 .009994507 .34799195H.02999878Z"/>
<path id="font_3_30" d="M.5369873 .3909912H.010986328V.33599855H.5369873V.3909912M.5369873 .19699097H.010986328V.14199829H.5369873V.19699097Z"/>
<path id="font_3_152" d="M.11999512 .31098939C.09199524 .31098939 .068984989 .28799439 .068984989 .2599945 .068984989 .23199463 .09098816 .20899964 .11898804 .20899964 .14698792 .20899964 .16899109 .23199463 .16899109 .2599945 .16899109 .28799439 .14698792 .31098939 .11999512 .31098939Z"/>
<path id="font_2_69" d="M.1538086 .36875917C.19710286 .42956034 .24381511 .45996095 .2939453 .45996095 .33984376 .45996095 .3798828 .44036866 .4140625 .40118409 .4482422 .3619995 .46533204 .3084259 .46533204 .24046326 .46533204 .16111756 .43896485 .097218837 .38623048 .04876709 .34098307 .0071411135 .29052735-.013671875 .23486328-.013671875 .20882161-.013671875 .18237305-.008921306 .15551758 .000579834 .12866211 .010080974 .10123698 .024337769 .07324219 .04335022V.5058594C.07324219 .5566406 .072021488 .5878906 .06958008 .5996094 .06713867 .6113281 .063313808 .6193034 .05810547 .62353518 .052897138 .6277669 .04638672 .6298828 .03857422 .6298828 .029459635 .6298828 .018066407 .6272786 .0043945314 .6220703L-.0024414063 .63964846 .13183594 .69433596H.1538086V.36875917M.1538086 .337677V.071517948C.17041016 .055323285 .18758138 .043095907 .20532227 .034835817 .22306316 .026585898 .24121094 .022460938 .25976563 .022460938 .28938804 .022460938 .31697593 .038650514 .3425293 .07102966 .36808268 .10340881 .38085938 .15052288 .38085938 .21237183 .38085938 .2693583 .36808268 .31315104 .3425293 .34375 .31697593 .37434898 .2879232 .38964845 .2553711 .38964845 .23811849 .38964845 .22086589 .38527934 .20361328 .37654115 .19059246 .37006126 .17399089 .35710655 .1538086 .337677Z"/>
<path id="font_2_26" d="M.10058594 .6621094H.4555664V.6437073L.23486328-.013671875H.18017578L.3779297 .58203127H.19580078C.15901692 .58203127 .1328125 .5776367 .1171875 .56884768 .08984375 .5538737 .067871097 .5307617 .05126953 .49951173L.037109376 .5048828 .10058594 .6621094Z"/>
<path id="font_2_24" d="M.43408204 .6621094 .3959961 .57910159H.19677735L.15332031 .491333C.23958333 .47860719 .30794273 .44647218 .35839845 .39492799 .40169273 .35056559 .42333985 .29837037 .42333985 .23834229 .42333985 .20343018 .41625978 .1711324 .4020996 .14144898 .38793946 .11176554 .3701172 .08648173 .3486328 .065597537 .32714845 .04472351 .30322267 .027923584 .27685548 .015197754 .23942058-.002746582 .20100911-.01171875 .1616211-.01171875 .121907558-.01171875 .09301758-.004964193 .07495117 .008544922 .056884767 .022054038 .047851564 .036946615 .047851564 .053222658 .047851564 .06233724 .05159505 .07039388 .05908203 .07739258 .06656901 .08439127 .07600912 .087890628 .087402347 .087890628 .09586588 .087890628 .103271488 .08658854 .10961914 .083984378 .1159668 .08138021 .12679036 .07470703 .14208985 .063964847 .1665039 .04703776 .19124349 .038411458 .2163086 .038085939 .25439454 .038085939 .2878418 .052525838 .3166504 .08140564 .34545899 .110295619 .35986329 .14546712 .35986329 .18692017 .35986329 .22706096 .34700523 .2645111 .32128907 .29927064 .2955729 .3340403 .26009117 .36089073 .21484375 .37982179 .17936199 .39450074 .13102214 .40298463 .06982422 .40527345L.19677735 .6621094H.43408204Z"/>
<path id="font_4_36" d="M.5151367 .6767578 .46484376 .12646485C.4622396 .1006368 .4609375 .08363342 .4609375 .07545471 .4609375 .062372846 .4633789 .05239868 .46826173 .045532228 .47444663 .036051435 .48282878 .029022217 .4934082 .02444458 .5039876 .019866944 .5218099 .017578125 .546875 .017578125L.5415039 0H.28076173L.2861328 .017578125H.29736329C.31852214 .017578125 .33577476 .022155762 .3491211 .031311037 .3585612 .037516279 .3658854 .04781087 .37109376 .062194826 .37467448 .07232666 .37809245 .096191409 .38134767 .13378906L.38916017 .21777344H.19970703L.13232422 .12644959C.11702474 .10585022 .107421878 .09105428 .103515628 .08206177 .099609378 .07307943 .09765625 .06466166 .09765625 .05680847 .09765625 .046351118 .10188802 .0373586 .11035156 .029830933 .1188151 .022313437 .1328125 .018229166 .15234375 .017578125L.14697266 0H-.048828126L-.04345703 .017578125C-.01936849 .01856486 .0018717448 .02667745 .020263672 .041915895 .038655599 .05715434 .06608073 .08968607 .10253906 .13951111L.49804688 .6767578H.5151367M.41845704 .5153656 .2265625 .25390626H.3930664L.41845704 .5153656Z"/>
<path id="font_3_159" d="M.04499817 .16699219V.11199951H.73999026C.7220001 .09199524 .70999148 .07699585 .69799807 .06199646 .67900088 .036987306 .6669922 .020996094 .6619873 .01499939L.7049866-.019012452C.7769928 .07398987 .8699951 .17098999 .95399478 .24398804 .87098696 .31498719 .776001 .4139862 .7049866 .5059967L.6619873 .47200013C.69699099 .42799378 .72299197 .394989 .73999026 .375H.04499817V.31999208L.7869873 .32099916 .7939911 .31399537 .82699587 .2809906C.84399417 .2639923 .85198977 .2559967 .86698916 .24398804 .8509979 .22999573 .84199526 .22099304 .82699587 .20599365 .81599429 .19400025 .8049927 .18399048 .79499819 .17298889 .79299929 .17199707 .79100039 .16899109 .7869873 .1659851L.04499817 .16699219Z"/>
<path id="font_5_24" d="M.44898988 .6619873H.07899475L.019989014 .5149994 .036987306 .5069885C.07798767 .57398989 .09700012 .58699038 .15299988 .58799746H.36999513L.17199707-.008010864H.23699951L.44898988 .6459961V.6619873Z"/>
<path id="font_5_23" d="M.44599916 .6839905C.33198548 .673996 .27398683 .6549988 .20098877 .60398867 .09298706 .5269928 .033996583 .41299439 .033996583 .2789917 .033996583 .19198609 .06098938 .10398865 .10398865 .053985597 .14199829 .009994507 .19599915-.014007568 .2579956-.014007568 .38198854-.014007568 .46798707 .08099365 .46798707 .21899414 .46798707 .34799195 .3959961 .42799378 .2789917 .42799378 .23498535 .42799378 .21499634 .42099 .1519928 .3829956 .1789856 .5339966 .29100038 .6419983 .44799806 .66799929L.44599916 .6839905M.24198914 .38198854C.32899476 .38198854 .37799073 .30999757 .37799073 .18499756 .37799073 .07499695 .33898927 .01399231 .2689972 .01399231 .18099976 .01399231 .1269989 .10798645 .1269989 .2630005 .1269989 .31399537 .1349945 .34199525 .15499878 .35699464 .17599488 .37298585 .20698548 .38198854 .24198914 .38198854Z"/>
</defs>
<use data-text="1" xlink:href="#font_1_20" transform="matrix(11.9773,0,0,-12,90,83.15997)"/>
<use data-text="9" xlink:href="#font_1_28" transform="matrix(11.9773,0,0,-12,95.99464,83.15997)"/>
<use data-text="9" xlink:href="#font_1_28" transform="matrix(11.9773,0,0,-12,101.98927,83.15997)"/>
<use data-text="0" xlink:href="#font_1_19" transform="matrix(11.9773,0,0,-12,107.98391,83.15997)"/>
<use data-text=" " xlink:href="#font_1_3" transform="matrix(11.9773,0,0,-12,113.978549,83.15997)"/>
<use data-text="A" xlink:href="#font_1_36" transform="matrix(11.9773,0,0,-12,116.97886,83.15997)"/>
<use data-text="B" xlink:href="#font_1_37" transform="matrix(11.9773,0,0,-12,125.63246,83.15997)"/>
<use data-text="4" xlink:href="#font_1_23" transform="matrix(11.9773,0,0,-12,133.6273,83.15997)"/>
<use data-text=" " xlink:href="#font_1_3" transform="matrix(11.9773,0,0,-12,139.62195,83.15997)"/>
<use data-text="S" xlink:href="#font_1_54" transform="matrix(11.9773,0,0,-12,90,96.9599)"/>
<use data-text="o" xlink:href="#font_1_82" transform="matrix(11.9773,0,0,-12,96.67375,96.9599)"/>
<use data-text="l" xlink:href="#font_1_79" transform="matrix(11.9773,0,0,-12,102.67677,96.9599)"/>
<use data-text="u" xlink:href="#font_1_88" transform="matrix(11.9773,0,0,-12,106.020839,96.9599)"/>
<use data-text="t" xlink:href="#font_1_87" transform="matrix(11.9773,0,0,-12,112.69459,96.9599)"/>
<use data-text="i" xlink:href="#font_1_76" transform="matrix(11.9773,0,0,-12,116.6974,96.9599)"/>
<use data-text="o" xlink:href="#font_1_82" transform="matrix(11.9773,0,0,-12,120.041469,96.9599)"/>
<use data-text="n" xlink:href="#font_1_81" transform="matrix(11.9773,0,0,-12,126.04449,96.9599)"/>
<use data-text=" " xlink:href="#font_1_3" transform="matrix(11.9773,0,0,-12,132.71825,96.9599)"/>
<use data-text=" " xlink:href="#font_1_3" transform="matrix(11.9773,0,0,-12,90,110.75989)"/>
<use data-text=" " xlink:href="#font_1_3" transform="matrix(11.9773,0,0,-12,90,144.4198)"/>
<use data-text="(" xlink:href="#font_2_11" transform="matrix(11.9602,0,0,-11.9827,126,144.41999)"/>
<use data-text="a" xlink:href="#font_2_68" transform="matrix(11.9602,0,0,-11.9827,130.01863,144.41999)"/>
<use data-text=")" xlink:href="#font_2_12" transform="matrix(11.9602,0,0,-11.9827,135.36484,144.41999)"/>
<use data-text=" " xlink:href="#font_2_3" transform="matrix(11.9602,0,0,-11.9827,139.38347,144.41999)"/>
<path transform="matrix(1,0,0,-1,0,792)" stroke-width=".593" stroke-linecap="round" stroke-linejoin="round" fill="none" stroke="#000000" d="M144.3 650.64H160.62M173.34 650.64H180.48M212.04 650.64H224.58M259.98 618.3H272.58M144.3 586.02H160.62"/>
<use data-text="(" xlink:href="#font_3_9" transform="matrix(13.0868,0,0,-15.7088,204.18,209.88)"/>
<use data-text=")" xlink:href="#font_3_10" transform="matrix(13.0868,0,0,-15.7088,230.57999,209.88)"/>
<use data-text="2" xlink:href="#font_2_21" transform="matrix(6.9199,0,0,-6.9331,205.56,139.02002)"/>
<use data-text="2" xlink:href="#font_2_21" transform="matrix(6.9199,0,0,-6.9331,198.2401,203.64069)"/>
<use data-text="3" xlink:href="#font_2_22" transform="matrix(6.9199,0,0,-6.9331,283.3798,203.64069)"/>
<use data-text="4" xlink:href="#font_2_23" transform="matrix(11.9602,0,0,-11.9827,174.12,136.85999)"/>
<use data-text="3" xlink:href="#font_2_22" transform="matrix(11.9602,0,0,-11.9827,186.5396,144.41999)"/>
<use data-text="3" xlink:href="#font_2_22" transform="matrix(11.9602,0,0,-11.9827,174.12,153.7796)"/>
<use data-text="T" xlink:href="#font_2_55" transform="matrix(11.9602,0,0,-11.9827,143.9395,176.70008)"/>
<use data-text="h" xlink:href="#font_2_75" transform="matrix(11.9602,0,0,-11.9827,151.441,176.70008)"/>
<use data-text="e" xlink:href="#font_2_72" transform="matrix(11.9602,0,0,-11.9827,157.4415,176.70008)"/>
<use data-text="r" xlink:href="#font_2_85" transform="matrix(11.9602,0,0,-11.9827,162.73628,176.70008)"/>
<use data-text="e" xlink:href="#font_2_72" transform="matrix(11.9602,0,0,-11.9827,166.70348,176.70008)"/>
<use data-text="f" xlink:href="#font_2_73" transform="matrix(11.9602,0,0,-11.9827,171.99826,176.70008)"/>
<use data-text="o" xlink:href="#font_2_82" transform="matrix(11.9602,0,0,-11.9827,175.96546,176.70008)"/>
<use data-text="r" xlink:href="#font_2_85" transform="matrix(11.9602,0,0,-11.9827,181.93001,176.70008)"/>
<use data-text="e" xlink:href="#font_2_72" transform="matrix(11.9602,0,0,-11.9827,185.8972,176.70008)"/>
<use data-text=" " xlink:href="#font_2_3" transform="matrix(11.9602,0,0,-11.9827,191.19199,176.70008)"/>
<use data-text="w" xlink:href="#font_2_90" transform="matrix(11.9602,0,0,-11.9827,194.1916,176.70008)"/>
<use data-text="h" xlink:href="#font_2_75" transform="matrix(11.9602,0,0,-11.9827,202.81133,176.70008)"/>
<use data-text="e" xlink:href="#font_2_72" transform="matrix(11.9602,0,0,-11.9827,208.77588,176.70008)"/>
<use data-text="n" xlink:href="#font_2_81" transform="matrix(11.9602,0,0,-11.9827,214.07067,176.70008)"/>
<use data-text=" " xlink:href="#font_2_3" transform="matrix(11.9602,0,0,-11.9827,220.03522,176.70008)"/>
<use data-text="1" xlink:href="#font_2_20" transform="matrix(11.9602,0,0,-11.9827,239.1757,176.70008)"/>
<use data-text="0" xlink:href="#font_2_19" transform="matrix(11.9602,0,0,-11.9827,245.14026,176.70008)"/>
<use data-text="," xlink:href="#font_2_15" transform="matrix(11.9602,0,0,-11.9827,250.9602,176.70008)"/>
<use data-text="0" xlink:href="#font_2_19" transform="matrix(11.9602,0,0,-11.9827,285.0408,176.70008)"/>
<use data-text="." xlink:href="#font_2_17" transform="matrix(11.9602,0,0,-11.9827,291.0413,176.70008)"/>
<use data-text="0" xlink:href="#font_2_19" transform="matrix(11.9602,0,0,-11.9827,294.01579,176.70008)"/>
<use data-text="4" xlink:href="#font_2_23" transform="matrix(11.9602,0,0,-11.9827,299.98033,176.70008)"/>
<use data-text="4" xlink:href="#font_2_23" transform="matrix(11.9602,0,0,-11.9827,173.2194,209.0401)"/>
<use data-text="1" xlink:href="#font_2_20" transform="matrix(11.9602,0,0,-11.9827,185.93907,209.0401)"/>
<use data-text="0" xlink:href="#font_2_19" transform="matrix(11.9602,0,0,-11.9827,191.9397,209.0401)"/>
<use data-text="0" xlink:href="#font_2_19" transform="matrix(11.9602,0,0,-11.9827,208.9794,209.0401)"/>
<use data-text="." xlink:href="#font_2_17" transform="matrix(11.9602,0,0,-11.9827,214.9799,209.0401)"/>
<use data-text="0" xlink:href="#font_2_19" transform="matrix(11.9602,0,0,-11.9827,217.9797,209.0401)"/>
<use data-text="4" xlink:href="#font_2_23" transform="matrix(11.9602,0,0,-11.9827,223.9802,209.0401)"/>
<use data-text="1" xlink:href="#font_2_20" transform="matrix(11.9602,0,0,-11.9827,245.2204,209.0401)"/>
<use data-text="6" xlink:href="#font_2_25" transform="matrix(11.9602,0,0,-11.9827,251.2209,209.0401)"/>
<use data-text=" " xlink:href="#font_2_3" transform="matrix(11.9602,0,0,-11.9827,265.5015,209.0401)"/>
<use data-text="c" xlink:href="#font_2_70" transform="matrix(11.9602,0,0,-11.9827,268.5011,209.0401)"/>
<use data-text="m" xlink:href="#font_2_80" transform="matrix(11.9602,0,0,-11.9827,273.7231,209.0401)"/>
<use data-text="/" xlink:href="#font_2_18" transform="matrix(11.9602,0,0,-11.9827,287.4057,209.0401)"/>
<use data-text="s" xlink:href="#font_2_86" transform="matrix(11.9602,0,0,-11.9827,290.7678,209.0401)"/>
<use data-text="e" xlink:href="#font_2_72" transform="matrix(11.9602,0,0,-11.9827,295.4455,209.0401)"/>
<use data-text="c" xlink:href="#font_2_70" transform="matrix(11.9602,0,0,-11.9827,300.7272,209.0401)"/>
<use data-text="d" xlink:href="#font_4_71" transform="matrix(11.9698,0,0,-11.9925,145.08,136.85999)"/>
<use data-text="V" xlink:href="#font_4_57" transform="matrix(11.9698,0,0,-11.9925,151.08046,136.85999)"/>
<use data-text="d" xlink:href="#font_4_71" transform="matrix(11.9698,0,0,-11.9925,212.823,136.85999)"/>
<use data-text="r" xlink:href="#font_4_85" transform="matrix(11.9698,0,0,-11.9925,218.82346,136.85999)"/>
<use data-text="r" xlink:href="#font_4_85" transform="matrix(11.9698,0,0,-11.9925,199.8,144.4201)"/>
<use data-text="d" xlink:href="#font_4_71" transform="matrix(11.9698,0,0,-11.9925,147.5998,153.78028)"/>
<use data-text="t" xlink:href="#font_4_87" transform="matrix(11.9698,0,0,-11.9925,153.60025,153.78028)"/>
<use data-text="d" xlink:href="#font_4_71" transform="matrix(11.9698,0,0,-11.9925,213.4827,153.78028)"/>
<use data-text="t" xlink:href="#font_4_87" transform="matrix(11.9698,0,0,-11.9925,219.48316,153.78028)"/>
<use data-text="d" xlink:href="#font_4_71" transform="matrix(11.9698,0,0,-11.9925,260.7598,169.14032)"/>
<use data-text="r" xlink:href="#font_4_85" transform="matrix(11.9698,0,0,-11.9925,266.76026,169.14032)"/>
<use data-text="r" xlink:href="#font_4_85" transform="matrix(11.9698,0,0,-11.9925,222.8994,176.70038)"/>
<use data-text="d" xlink:href="#font_4_71" transform="matrix(11.9698,0,0,-11.9925,261.4194,186.06061)"/>
<use data-text="t" xlink:href="#font_4_87" transform="matrix(11.9698,0,0,-11.9925,267.41987,186.06061)"/>
<use data-text="d" xlink:href="#font_4_71" transform="matrix(11.9698,0,0,-11.9925,145.0789,201.48053)"/>
<use data-text="V" xlink:href="#font_4_57" transform="matrix(11.9698,0,0,-11.9925,151.07936,201.48053)"/>
<use data-text="d" xlink:href="#font_4_71" transform="matrix(11.9698,0,0,-11.9925,147.5985,218.40082)"/>
<use data-text="t" xlink:href="#font_4_87" transform="matrix(11.9698,0,0,-11.9925,153.59896,218.40082)"/>
<use data-text="&#x03c0;" xlink:href="#font_3_81" transform="matrix(11.9602,0,4.0906,-11.9827,191.4,144.41999)"/>
<use data-text="&#x03c0;" xlink:href="#font_3_81" transform="matrix(11.9602,0,4.0906,-11.9827,178.4395,209.0404)"/>
<use data-text="&#x03c0;" xlink:href="#font_3_81" transform="matrix(11.9602,0,4.0906,-11.9827,256.50013,209.0404)"/>
<use data-text="=" xlink:href="#font_3_30" transform="matrix(11.9698,0,0,-11.9925,163.8,144.41999)"/>
<use data-text="&#x22c5;" xlink:href="#font_3_152" transform="matrix(11.9698,0,0,-11.9925,182.39987,144.41999)"/>
<use data-text="=" xlink:href="#font_3_30" transform="matrix(11.9698,0,0,-11.9925,230.9398,176.70008)"/>
<use data-text="=" xlink:href="#font_3_30" transform="matrix(11.9698,0,0,-11.9925,275.75953,176.70008)"/>
<use data-text="=" xlink:href="#font_3_30" transform="matrix(11.9698,0,0,-11.9925,163.8,209.04029)"/>
<use data-text="=" xlink:href="#font_3_30" transform="matrix(11.9698,0,0,-11.9925,237.18087,209.04029)"/>
<use data-text=" " xlink:href="#font_2_3" transform="matrix(11.9602,0,0,-11.9827,308.34,144.41999)"/>
<use data-text=" " xlink:href="#font_2_3" transform="matrix(11.9602,0,0,-11.9827,89.9993,232.44)"/>
<use data-text=" " xlink:href="#font_2_3" transform="matrix(11.9602,0,0,-11.9827,89.9993,246.2406)"/>
<use data-text="(" xlink:href="#font_2_11" transform="matrix(11.9602,0,0,-11.9827,125.9994,260.04109)"/>
<use data-text="b" xlink:href="#font_2_69" transform="matrix(11.9602,0,0,-11.9827,130.01563,260.04109)"/>
<use data-text=")" xlink:href="#font_2_12" transform="matrix(11.9602,0,0,-11.9827,136.02922,260.04109)"/>
<use data-text=" " xlink:href="#font_2_3" transform="matrix(11.9602,0,0,-11.9827,140.04546,260.04109)"/>
<use data-text=" " xlink:href="#font_2_3" transform="matrix(11.9602,0,0,-11.9827,143.04508,260.04109)"/>
<use data-text="V" xlink:href="#font_4_57" transform="matrix(11.9747,0,0,-11.9974,144.6605,260.8192)"/>
<use data-text="r" xlink:href="#font_4_85" transform="matrix(11.9747,0,0,-11.9974,235.26229,260.8192)"/>
<use data-text="r" xlink:href="#font_4_85" transform="matrix(11.9747,0,0,-11.9974,313.379,260.8192)"/>
<path transform="matrix(1,0,0,-1,0,792)" stroke-width=".593" stroke-linecap="round" stroke-linejoin="round" fill="none" stroke="#000000" d="M226.02 534.24H233.16M145.98 482.46H160.2M193.62 482.46H206.16M275.34 450.12H287.88M145.98 417.84H160.2"/>
<use data-text="(" xlink:href="#font_3_9" transform="matrix(13.0865,0,0,-15.7186,198.9,378.06)"/>
<use data-text=")" xlink:href="#font_3_10" transform="matrix(13.0865,0,0,-15.7186,225.2994,378.06)"/>
<path transform="matrix(1,0,0,-1,0,792)" stroke-width=".593" stroke-linecap="round" stroke-linejoin="round" fill="none" stroke="#000000" d="M241.38 417.84H256.2"/>
<use data-text="3" xlink:href="#font_2_22" transform="matrix(6.9227,0,0,-6.9359,240.72,255.41999)"/>
<use data-text="3" xlink:href="#font_2_22" transform="matrix(6.9227,0,0,-6.9359,267.7199,255.41999)"/>
<use data-text="2" xlink:href="#font_2_21" transform="matrix(6.9227,0,0,-6.9359,179.1004,281.6398)"/>
<use data-text="2" xlink:href="#font_2_21" transform="matrix(6.9227,0,0,-6.9359,315.9595,371.8203)"/>
<use data-text="4" xlink:href="#font_2_23" transform="matrix(11.9747,0,0,-11.9974,226.8,253.25989)"/>
<use data-text="3" xlink:href="#font_2_22" transform="matrix(11.9747,0,0,-11.9974,165.4799,260.8194)"/>
<use data-text="6" xlink:href="#font_2_25" transform="matrix(11.9747,0,0,-11.9974,171.48043,260.8194)"/>
<use data-text="3" xlink:href="#font_2_22" transform="matrix(11.9747,0,0,-11.9974,201.9009,260.8194)"/>
<use data-text="6" xlink:href="#font_2_25" transform="matrix(11.9747,0,0,-11.9974,207.90142,260.8194)"/>
<use data-text="2" xlink:href="#font_2_21" transform="matrix(11.9747,0,0,-11.9974,284.282,260.8194)"/>
<use data-text="7" xlink:href="#font_2_26" transform="matrix(11.9747,0,0,-11.9974,290.28254,260.8194)"/>
<use data-text="3" xlink:href="#font_2_22" transform="matrix(11.9747,0,0,-11.9974,330.4229,260.8194)"/>
<use data-text="3" xlink:href="#font_2_22" transform="matrix(11.9747,0,0,-11.9974,226.8,270.1798)"/>
<use data-text="2" xlink:href="#font_2_21" transform="matrix(11.9747,0,0,-11.9974,172.8,312.6002)"/>
<use data-text="T" xlink:href="#font_2_55" transform="matrix(11.9747,0,0,-11.9974,145.6198,344.8804)"/>
<use data-text="h" xlink:href="#font_2_75" transform="matrix(11.9747,0,0,-11.9974,153.1219,344.8804)"/>
<use data-text="e" xlink:href="#font_2_72" transform="matrix(11.9747,0,0,-11.9974,159.1225,344.8804)"/>
<use data-text="r" xlink:href="#font_2_85" transform="matrix(11.9747,0,0,-11.9974,164.41292,344.8804)"/>
<use data-text="e" xlink:href="#font_2_72" transform="matrix(11.9747,0,0,-11.9974,168.37415,344.8804)"/>
<use data-text="f" xlink:href="#font_2_73" transform="matrix(11.9747,0,0,-11.9974,173.66457,344.8804)"/>
<use data-text="o" xlink:href="#font_2_82" transform="matrix(11.9747,0,0,-11.9974,177.6258,344.8804)"/>
<use data-text="r" xlink:href="#font_2_85" transform="matrix(11.9747,0,0,-11.9974,183.58679,344.8804)"/>
<use data-text="e" xlink:href="#font_2_72" transform="matrix(11.9747,0,0,-11.9974,187.54802,344.8804)"/>
<use data-text=" " xlink:href="#font_2_3" transform="matrix(11.9747,0,0,-11.9974,192.83844,344.8804)"/>
<use data-text="w" xlink:href="#font_2_90" transform="matrix(11.9747,0,0,-11.9974,195.8381,344.8804)"/>
<use data-text="h" xlink:href="#font_2_75" transform="matrix(11.9747,0,0,-11.9974,204.45749,344.8804)"/>
<use data-text="e" xlink:href="#font_2_72" transform="matrix(11.9747,0,0,-11.9974,210.41849,344.8804)"/>
<use data-text="n" xlink:href="#font_2_81" transform="matrix(11.9747,0,0,-11.9974,215.70891,344.8804)"/>
<use data-text=" " xlink:href="#font_2_3" transform="matrix(11.9747,0,0,-11.9974,221.6699,344.8804)"/>
<use data-text="3" xlink:href="#font_2_22" transform="matrix(11.9747,0,0,-11.9974,245.4306,344.8804)"/>
<use data-text="6" xlink:href="#font_2_25" transform="matrix(11.9747,0,0,-11.9974,251.3916,344.8804)"/>
<use data-text="," xlink:href="#font_2_15" transform="matrix(11.9747,0,0,-11.9974,265.1315,344.8804)"/>
<use data-text="0" xlink:href="#font_2_19" transform="matrix(11.9747,0,0,-11.9974,300.3515,344.8804)"/>
<use data-text="." xlink:href="#font_2_17" transform="matrix(11.9747,0,0,-11.9974,306.352,344.8804)"/>
<use data-text="0" xlink:href="#font_2_19" transform="matrix(11.9747,0,0,-11.9974,309.3193,344.8804)"/>
<use data-text="4" xlink:href="#font_2_23" transform="matrix(11.9747,0,0,-11.9974,315.2803,344.8804)"/>
<use data-text="6" xlink:href="#font_2_25" transform="matrix(11.9747,0,0,-11.9974,241.9801,369.6598)"/>
<use data-text="2" xlink:href="#font_2_21" transform="matrix(11.9747,0,0,-11.9974,172.7998,377.2193)"/>
<use data-text="3" xlink:href="#font_2_22" transform="matrix(11.9747,0,0,-11.9974,192.1199,377.2193)"/>
<use data-text="0" xlink:href="#font_2_19" transform="matrix(11.9747,0,0,-11.9974,203.6396,377.2193)"/>
<use data-text="." xlink:href="#font_2_17" transform="matrix(11.9747,0,0,-11.9974,209.62815,377.2193)"/>
<use data-text="0" xlink:href="#font_2_19" transform="matrix(11.9747,0,0,-11.9974,212.62302,377.2193)"/>
<use data-text="4" xlink:href="#font_2_23" transform="matrix(11.9747,0,0,-11.9974,218.61156,377.2193)"/>
<use data-text="0" xlink:href="#font_2_19" transform="matrix(11.9747,0,0,-11.9974,268.5919,377.2193)"/>
<use data-text="." xlink:href="#font_2_17" transform="matrix(11.9747,0,0,-11.9974,274.58045,377.2193)"/>
<use data-text="2" xlink:href="#font_2_21" transform="matrix(11.9747,0,0,-11.9974,277.57533,377.2193)"/>
<use data-text="4" xlink:href="#font_2_23" transform="matrix(11.9747,0,0,-11.9974,283.56388,377.2193)"/>
<use data-text=" " xlink:href="#font_2_3" transform="matrix(11.9747,0,0,-11.9974,297.7842,377.2193)"/>
<use data-text="c" xlink:href="#font_2_70" transform="matrix(11.9747,0,0,-11.9974,300.78388,377.2193)"/>
<use data-text="m" xlink:href="#font_2_80" transform="matrix(11.9747,0,0,-11.9974,306.10185,377.2193)"/>
<use data-text="/" xlink:href="#font_2_18" transform="matrix(11.9747,0,0,-11.9974,320.2046,377.2193)"/>
<use data-text="s" xlink:href="#font_2_86" transform="matrix(11.9747,0,0,-11.9974,323.53477,377.2193)"/>
<use data-text="e" xlink:href="#font_2_72" transform="matrix(11.9747,0,0,-11.9974,328.19413,377.2193)"/>
<use data-text="c" xlink:href="#font_2_70" transform="matrix(11.9747,0,0,-11.9974,333.5121,377.2193)"/>
<use data-text="2" xlink:href="#font_2_21" transform="matrix(11.9747,0,0,-11.9974,243.1201,386.5797)"/>
<use data-text="5" xlink:href="#font_2_24" transform="matrix(11.9747,0,0,-11.9974,249.12062,386.5797)"/>
<use data-text="r" xlink:href="#font_4_85" transform="matrix(11.9747,0,0,-11.9974,262.2004,260.8192)"/>
<use data-text="A" xlink:href="#font_4_36" transform="matrix(11.9747,0,0,-11.9974,146.7608,287.0396)"/>
<use data-text="r" xlink:href="#font_4_85" transform="matrix(11.9747,0,0,-11.9974,173.40332,287.0396)"/>
<use data-text="d" xlink:href="#font_4_71" transform="matrix(11.9747,0,0,-11.9974,146.7608,305.0394)"/>
<use data-text="A" xlink:href="#font_4_36" transform="matrix(11.9747,0,0,-11.9974,152.76132,305.0394)"/>
<use data-text="d" xlink:href="#font_4_71" transform="matrix(11.9747,0,0,-11.9974,194.4034,305.0394)"/>
<use data-text="r" xlink:href="#font_4_85" transform="matrix(11.9747,0,0,-11.9974,200.40392,305.0394)"/>
<use data-text="r" xlink:href="#font_4_85" transform="matrix(11.9747,0,0,-11.9974,186.481,312.5989)"/>
<use data-text="d" xlink:href="#font_4_71" transform="matrix(11.9747,0,0,-11.9974,148.2613,321.9592)"/>
<use data-text="t" xlink:href="#font_4_87" transform="matrix(11.9747,0,0,-11.9974,154.26183,321.9592)"/>
<use data-text="d" xlink:href="#font_4_71" transform="matrix(11.9747,0,0,-11.9974,195.0034,321.9592)"/>
<use data-text="t" xlink:href="#font_4_87" transform="matrix(11.9747,0,0,-11.9974,201.00392,321.9592)"/>
<use data-text="d" xlink:href="#font_4_71" transform="matrix(11.9747,0,0,-11.9974,276.1213,337.3195)"/>
<use data-text="r" xlink:href="#font_4_85" transform="matrix(11.9747,0,0,-11.9974,282.12184,337.3195)"/>
<use data-text="V" xlink:href="#font_4_57" transform="matrix(11.9747,0,0,-11.9974,224.5811,344.8791)"/>
<use data-text="d" xlink:href="#font_4_71" transform="matrix(11.9747,0,0,-11.9974,276.7813,354.2995)"/>
<use data-text="t" xlink:href="#font_4_87" transform="matrix(11.9747,0,0,-11.9974,282.78184,354.2995)"/>
<use data-text="d" xlink:href="#font_4_71" transform="matrix(11.9747,0,0,-11.9974,146.7612,369.6598)"/>
<use data-text="A" xlink:href="#font_4_36" transform="matrix(11.9747,0,0,-11.9974,152.76172,369.6598)"/>
<use data-text="d" xlink:href="#font_4_71" transform="matrix(11.9747,0,0,-11.9974,148.2617,386.5797)"/>
<use data-text="t" xlink:href="#font_4_87" transform="matrix(11.9747,0,0,-11.9974,154.26222,386.5797)"/>
<use data-text="&#x03c0;" xlink:href="#font_3_81" transform="matrix(11.9747,0,4.0955,-11.9974,176.76,260.8199)"/>
<use data-text="&#x03c0;" xlink:href="#font_3_81" transform="matrix(11.9747,0,4.0955,-11.9974,164.9402,287.0402)"/>
<use data-text="&#x03c0;" xlink:href="#font_3_81" transform="matrix(11.9747,0,4.0955,-11.9974,178.0806,312.6006)"/>
<use data-text="&#x03c0;" xlink:href="#font_3_81" transform="matrix(11.9747,0,4.0955,-11.9974,256.6201,344.8808)"/>
<use data-text="&#x03c0;" xlink:href="#font_3_81" transform="matrix(11.9747,0,4.0955,-11.9974,247.2608,369.6603)"/>
<use data-text="&#x03c0;" xlink:href="#font_3_81" transform="matrix(11.9747,0,4.0955,-11.9974,178.0805,377.2198)"/>
<use data-text="&#x03c0;" xlink:href="#font_3_81" transform="matrix(11.9747,0,4.0955,-11.9974,288.84049,377.2198)"/>
<use data-text="=" xlink:href="#font_3_30" transform="matrix(11.9747,0,0,-11.9974,156.48,260.8199)"/>
<use data-text="&#x21d2;" xlink:href="#font_3_159" transform="matrix(11.9747,0,0,-11.9974,187.59027,260.8199)"/>
<use data-text="=" xlink:href="#font_3_30" transform="matrix(11.9747,0,0,-11.9974,216.4504,260.8199)"/>
<use data-text="&#x21d2;" xlink:href="#font_3_159" transform="matrix(11.9747,0,0,-11.9974,247.56067,260.8199)"/>
<use data-text="=" xlink:href="#font_3_30" transform="matrix(11.9747,0,0,-11.9974,274.9204,260.8199)"/>
<use data-text="&#x21d2;" xlink:href="#font_3_159" transform="matrix(11.9747,0,0,-11.9974,298.7404,260.8199)"/>
<use data-text="=" xlink:href="#font_3_30" transform="matrix(11.9747,0,0,-11.9974,321.4204,260.8199)"/>
<use data-text="=" xlink:href="#font_3_30" transform="matrix(11.9747,0,0,-11.9974,156.48,287.0402)"/>
<use data-text="=" xlink:href="#font_3_30" transform="matrix(11.9747,0,0,-11.9974,163.4398,312.6006)"/>
<use data-text="=" xlink:href="#font_3_30" transform="matrix(11.9747,0,0,-11.9974,236.3394,344.8808)"/>
<use data-text="=" xlink:href="#font_3_30" transform="matrix(11.9747,0,0,-11.9974,291.12007,344.8808)"/>
<use data-text="=" xlink:href="#font_3_30" transform="matrix(11.9747,0,0,-11.9974,163.4398,377.2211)"/>
<use data-text="&#x22c5;" xlink:href="#font_3_152" transform="matrix(11.9747,0,0,-11.9974,187.97956,377.2211)"/>
<use data-text="=" xlink:href="#font_3_30" transform="matrix(11.9747,0,0,-11.9974,231.8394,377.2211)"/>
<use data-text="=" xlink:href="#font_3_30" transform="matrix(11.9747,0,0,-11.9974,259.4399,377.2211)"/>
<use data-text=" " xlink:href="#font_2_3" transform="matrix(11.9602,0,0,-11.9827,89.9993,273.8416)"/>
<use data-text=" " xlink:href="#font_2_3" transform="matrix(11.9602,0,0,-11.9827,89.9993,287.6421)"/>
<use data-text=" " xlink:href="#font_2_3" transform="matrix(11.9602,0,0,-11.9827,89.9993,301.4426)"/>
<use data-text=" " xlink:href="#font_2_3" transform="matrix(11.9602,0,0,-11.9827,89.9993,315.2431)"/>
<use data-text=" " xlink:href="#font_2_3" transform="matrix(11.9602,0,0,-11.9827,89.9993,329.0436)"/>
<use data-text=" " xlink:href="#font_2_3" transform="matrix(11.9602,0,0,-11.9827,89.9993,342.8441)"/>
<use data-text=" " xlink:href="#font_2_3" transform="matrix(11.9602,0,0,-11.9827,89.9993,356.6446)"/>
<use data-text=" " xlink:href="#font_2_3" transform="matrix(11.9602,0,0,-11.9827,89.9993,370.4451)"/>
<use data-text=" " xlink:href="#font_2_3" transform="matrix(11.9602,0,0,-11.9827,89.9993,384.2456)"/>
<use data-text=" " xlink:href="#font_2_3" transform="matrix(11.9602,0,0,-11.9827,89.9993,398.0461)"/>
<use data-text="(" xlink:href="#font_2_11" transform="matrix(11.9602,0,0,-11.9827,125.9994,437.7664)"/>
<use data-text="c" xlink:href="#font_2_70" transform="matrix(11.9602,0,0,-11.9827,130.01204,437.7664)"/>
<use data-text=")" xlink:href="#font_2_12" transform="matrix(11.9602,0,0,-11.9827,135.35227,437.7664)"/>
<use data-text=" " xlink:href="#font_2_3" transform="matrix(11.9602,0,0,-11.9827,139.36492,437.7664)"/>
<use data-text=" " xlink:href="#font_2_3" transform="matrix(11.9602,0,0,-11.9827,142.36452,437.7664)"/>
<use data-text=" " xlink:href="#font_2_3" transform="matrix(11.9602,0,0,-11.9827,145.36412,437.7664)"/>
<path transform="matrix(1,0,0,-1,0,792)" stroke-width=".593" stroke-linecap="round" stroke-linejoin="round" fill="none" stroke="#000000" d="M150.3 357.24H166.62M179.34 357.24H191.94M175.98 324.9H188.58M201.3 324.9H213.9M224.76 292.62H239.76"/>
<path transform="matrix(1,0,0,-1,0,792)" stroke-width=".06" stroke-linecap="round" stroke-linejoin="round" fill="none" stroke="#000000" d="M282 282.3 283.26 282.96 286.14 278.16 289.32 290.82H297.96"/>
<path transform="matrix(1,0,0,-1,0,792)" d="M281.94 282.42 283.56 283.32 286.2 279.42 289.14 291.12H297.96V290.52H289.56L286.44 278.16H285.84L282.96 282.6 282.12 282.12" fill-rule="evenodd"/>
<path transform="matrix(1,0,0,-1,0,792)" stroke-width=".593" stroke-linecap="round" stroke-linejoin="round" fill="none" stroke="#000000" d="M274.8 292.62H298.86"/>
<use data-text="2" xlink:href="#font_2_21" transform="matrix(6.9227,0,0,-6.9359,169.56,464.7)"/>
<use data-text="2" xlink:href="#font_2_21" transform="matrix(6.9227,0,0,-6.9359,250.73973,464.7)"/>
<use data-text="2" xlink:href="#font_2_21" transform="matrix(6.9227,0,0,-6.9359,207.7796,497.04)"/>
<use data-text="4" xlink:href="#font_2_23" transform="matrix(11.9747,0,0,-11.9974,150.12,470.1)"/>
<use data-text="4" xlink:href="#font_2_23" transform="matrix(11.9747,0,0,-11.9974,231.35996,470.1)"/>
<use data-text="1" xlink:href="#font_2_20" transform="matrix(11.9747,0,0,-11.9974,266.2196,470.1)"/>
<use data-text="1" xlink:href="#font_2_20" transform="matrix(11.9747,0,0,-11.9974,229.2596,494.8194)"/>
<use data-text="1" xlink:href="#font_2_20" transform="matrix(11.9747,0,0,-11.9974,283.85945,494.8194)"/>
<use data-text="T" xlink:href="#font_2_55" transform="matrix(11.9747,0,0,-11.9974,149.9393,502.3789)"/>
<use data-text="h" xlink:href="#font_2_75" transform="matrix(11.9747,0,0,-11.9974,157.4414,502.3789)"/>
<use data-text="e" xlink:href="#font_2_72" transform="matrix(11.9747,0,0,-11.9974,163.4418,502.3789)"/>
<use data-text="r" xlink:href="#font_2_85" transform="matrix(11.9747,0,0,-11.9974,168.71187,502.3789)"/>
<use data-text="e" xlink:href="#font_2_72" transform="matrix(11.9747,0,0,-11.9974,172.65274,502.3789)"/>
<use data-text="f" xlink:href="#font_2_73" transform="matrix(11.9747,0,0,-11.9974,177.9228,502.3789)"/>
<use data-text="o" xlink:href="#font_2_82" transform="matrix(11.9747,0,0,-11.9974,181.86368,502.3789)"/>
<use data-text="r" xlink:href="#font_2_85" transform="matrix(11.9747,0,0,-11.9974,187.80432,502.3789)"/>
<use data-text="e" xlink:href="#font_2_72" transform="matrix(11.9747,0,0,-11.9974,191.7452,502.3789)"/>
<use data-text=" " xlink:href="#font_2_3" transform="matrix(11.9747,0,0,-11.9974,197.01526,502.3789)"/>
<use data-text=" " xlink:href="#font_2_3" transform="matrix(11.9747,0,0,-11.9974,301.176,502.3789)"/>
<use data-text="c" xlink:href="#font_2_70" transform="matrix(11.9747,0,0,-11.9974,304.175,502.3789)"/>
<use data-text="m" xlink:href="#font_2_80" transform="matrix(11.9747,0,0,-11.9974,309.44508,502.3789)"/>
<use data-text="4" xlink:href="#font_2_23" transform="matrix(11.9747,0,0,-11.9974,225.5391,511.7993)"/>
<use data-text="2" xlink:href="#font_2_21" transform="matrix(11.9747,0,0,-11.9974,275.579,512.6991)"/>
<use data-text="d" xlink:href="#font_4_71" transform="matrix(11.9747,0,0,-11.9974,151.0793,430.2588)"/>
<use data-text="V" xlink:href="#font_4_57" transform="matrix(11.9747,0,0,-11.9974,157.07982,430.2588)"/>
<use data-text="d" xlink:href="#font_4_71" transform="matrix(11.9747,0,0,-11.9974,180.1215,430.2588)"/>
<use data-text="r" xlink:href="#font_4_85" transform="matrix(11.9747,0,0,-11.9974,186.12203,430.2588)"/>
<use data-text="d" xlink:href="#font_4_71" transform="matrix(11.9747,0,0,-11.9974,153.5988,447.1787)"/>
<use data-text="t" xlink:href="#font_4_87" transform="matrix(11.9747,0,0,-11.9974,159.59932,447.1787)"/>
<use data-text="d" xlink:href="#font_4_71" transform="matrix(11.9747,0,0,-11.9974,180.7813,447.1787)"/>
<use data-text="t" xlink:href="#font_4_87" transform="matrix(11.9747,0,0,-11.9974,186.78182,447.1787)"/>
<use data-text="d" xlink:href="#font_4_71" transform="matrix(11.9747,0,0,-11.9974,176.759,462.539)"/>
<use data-text="r" xlink:href="#font_4_85" transform="matrix(11.9747,0,0,-11.9974,182.75952,462.539)"/>
<use data-text="d" xlink:href="#font_4_71" transform="matrix(11.9747,0,0,-11.9974,202.0771,462.539)"/>
<use data-text="r" xlink:href="#font_4_85" transform="matrix(11.9747,0,0,-11.9974,208.07762,462.539)"/>
<use data-text="r" xlink:href="#font_4_85" transform="matrix(11.9747,0,0,-11.9974,163.7987,470.0985)"/>
<use data-text="r" xlink:href="#font_4_85" transform="matrix(11.9747,0,0,-11.9974,245.03746,470.0985)"/>
<use data-text="d" xlink:href="#font_4_71" transform="matrix(11.9747,0,0,-11.9974,177.4188,479.4589)"/>
<use data-text="t" xlink:href="#font_4_87" transform="matrix(11.9747,0,0,-11.9974,183.41931,479.4589)"/>
<use data-text="d" xlink:href="#font_4_71" transform="matrix(11.9747,0,0,-11.9974,202.7417,479.4589)"/>
<use data-text="t" xlink:href="#font_4_87" transform="matrix(11.9747,0,0,-11.9974,208.74222,479.4589)"/>
<use data-text="r" xlink:href="#font_4_85" transform="matrix(11.9747,0,0,-11.9974,202.0783,502.3787)"/>
<use data-text="r" xlink:href="#font_4_85" transform="matrix(11.9747,0,0,-11.9974,257.21699,502.3787)"/>
<use data-text="&#x03c0;" xlink:href="#font_3_81" transform="matrix(11.9747,0,4.0955,-11.9974,155.4,470.1)"/>
<use data-text="&#x03c0;" xlink:href="#font_3_81" transform="matrix(11.9747,0,4.0955,-11.9974,236.58008,470.1)"/>
<use data-text="&#x03c0;" xlink:href="#font_3_81" transform="matrix(11.9747,0,4.0955,-11.9974,230.7599,511.7993)"/>
<use data-text="&#x03c0;" xlink:href="#font_3_81" transform="matrix(11.9747,0,4.0955,-11.9974,288.9599,512.6991)"/>
<use data-text="=" xlink:href="#font_3_30" transform="matrix(11.9747,0,0,-11.9974,169.8,437.82)"/>
<use data-text="=" xlink:href="#font_3_30" transform="matrix(11.9747,0,0,-11.9974,191.7603,470.1002)"/>
<use data-text="&#x21d2;" xlink:href="#font_3_159" transform="matrix(11.9747,0,0,-11.9974,216.72037,470.1002)"/>
<use data-text="=" xlink:href="#font_3_30" transform="matrix(11.9747,0,0,-11.9974,258.1804,470.1002)"/>
<use data-text="=" xlink:href="#font_3_30" transform="matrix(11.9747,0,0,-11.9974,215.22,502.3804)"/>
<use data-text="&#x21d2;" xlink:href="#font_3_159" transform="matrix(11.9747,0,0,-11.9974,242.5798,502.3804)"/>
<use data-text="=" xlink:href="#font_3_30" transform="matrix(11.9747,0,0,-11.9974,265.2598,502.3804)"/>
<use data-text=" " xlink:href="#font_2_3" transform="matrix(11.9747,0,0,-11.9974,321.3004,437.76)"/>
<use data-text=" " xlink:href="#font_2_3" transform="matrix(11.9747,0,0,-11.9974,89.9995,527.8198)"/>
<use data-text=" " xlink:href="#font_2_3" transform="matrix(11.9747,0,0,-11.9974,89.9995,541.61929)"/>
<use data-text=" " xlink:href="#font_2_3" transform="matrix(11.9747,0,0,-11.9974,89.9995,555.4188)"/>
<use data-text=" " xlink:href="#font_2_3" transform="matrix(11.9747,0,0,-11.9974,89.9995,569.2183)"/>
<use data-text=" " xlink:href="#font_2_3" transform="matrix(11.9747,0,0,-11.9974,89.9995,583.0178)"/>
<use data-text="7" xlink:href="#font_5_24" transform="matrix(12,0,0,-12,300,753.41)"/>
<use data-text="6" xlink:href="#font_5_23" transform="matrix(12,0,0,-12,306,753.41)"/>
</svg>
