<svg xmlns="http://www.w3.org/2000/svg" xmlns:xlink="http://www.w3.org/1999/xlink" xmlns:inkscape="http://www.inkscape.org/namespaces/inkscape" version="1.1" width="603.3599853515625pt" height="704.1550750732422pt" viewBox="0.0 69.84492492675781 603.3599853515625 704.1550750732422">
<defs>
<clipPath id="clip_1">
<path transform="matrix(1,0,0,-1,0,783)" d="M0 9H603.36V783H0Z" clip-rule="evenodd"/>
</clipPath>
<path id="font_2_54" d="M.651001 .71777346H.49798585V.24528504C.49798585 .15838623 .45599366 .108444217 .35299684 .108444217 .2829895 .108444217 .22499085 .15238953 .22499085 .25227357V.71777346H.07199097V.24229431C.07398987 .17036438 .08898926 .11242676 .12799073 .06843567 .19198609-.0025634766 .2899933-.018554688 .35598756-.018554688 .5369873-.018554688 .651001 .062438966 .651001 .25128175V.71777346Z"/>
<path id="font_2_79" d="M.54599 .36790467C.54599 .4848938 .46499635 .54589846 .36099244 .54589846 .2599945 .54589846 .21998596 .48588563 .20098877 .45388795H.19898987V.53222659H.06498718V0H.20498657V.30514527C.20498657 .38589479 .25299073 .42788697 .31498719 .42788697 .4039917 .42788697 .4059906 .36190797 .4059906 .32292176V0H.54599V.36790467Z"/>
<path id="font_2_66" d="M.49598695 .39190675C.49598695 .5228882 .35899354 .54589846 .28399659 .54589846 .1749878 .54589846 .06199646 .5228882 .04598999 .35990907H.18099976C.18499756 .39089967 .19699097 .43388368 .2669983 .43388368 .30299378 .43388368 .35899354 .43089295 .35899354 .37190248 .35899354 .34191896 .33198548 .33291627 .30999757 .32991029L.18399048 .3109131C.09498596 .29792787 .0289917 .24493408 .0289917 .1409607 .0289917 .031326295 .11099243-.013671875 .19099427-.013671875 .28599549-.013671875 .33099366 .030319214 .36299134 .063323978 .3659973 .032989503 .36799623 .024993897 .37599183 0H.5269928V.020996094C.5099945 .026992798 .49598695 .040985109 .49598695 .10397339V.39190675M.35899354 .19094849C.35899354 .12626648 .29599 .08631897 .23399353 .08631897 .20698548 .08631897 .16899109 .1013031 .16899109 .15023804 .16899109 .20817566 .21199036 .22116089 .2639923 .23014832 .32199098 .23913574 .34498597 .24812317 .35899354 .2591095V.19094849Z"/>
<path id="font_2_86" d="M.54499819 .53222659H.40499879V.22529602C.40499879 .13031006 .34298707 .10432434 .29699708 .10432434 .2539978 .10432434 .20599365 .12031555 .20599365 .20230103V.53222659H.06599426V.18229676C.06599426 .046325685 .14199829-.013671875 .24699402-.013671875 .32099916-.013671875 .3769989 .018325806 .40899659 .07531738H.41099549V0H.54499819V.53222659Z"/>
<path id="font_2_85" d="M.22200012 .67622378H.08198547V.53222659H.009994507V.43222047H.08198547V.10913086C.08198547 .040130617 .10398865-.005859375 .22499085-.005859375H.24299622C.2649994-.005859375 .2869873-.0048675539 .30899049-.0038604737V.102127078C.29899598 .101135257 .2889862 .100128177 .27999879 .100128177 .22299195 .100128177 .22200012 .11213684 .22200012 .1431427V.43222047H.30899049V.53222659H.22200012V.67622378Z"/>
<path id="font_2_73" d="M.54599 .36790467C.54599 .4848938 .46499635 .54589846 .36099244 .54589846 .2849884 .54589846 .22499085 .506897 .20698548 .46289063H.20498657V.71777346H.06498718V0H.20498657V.30491639C.20498657 .38589479 .25299073 .42788697 .31498719 .42788697 .4039917 .42788697 .4059906 .36190797 .4059906 .32292176V0H.54599V.36790467Z"/>
<path id="font_2_80" d="M.5779877 .26611329C.5779877 .45788575 .44898988 .54589846 .30599977 .54589846 .16299439 .54589846 .033996583 .45788575 .033996583 .26611329 .033996583 .07432556 .16299439-.013671875 .30599977-.013671875 .44898988-.013671875 .5779877 .07432556 .5779877 .26611329M.43399049 .26611329C.43399049 .19819641 .4139862 .10432434 .30599977 .10432434 .19799805 .10432434 .17799378 .19819641 .17799378 .26611329 .17799378 .3340149 .19799805 .42788697 .30599977 .42788697 .4139862 .42788697 .43399049 .3340149 .43399049 .26611329Z"/>
<path id="font_2_83" d="M.06399536 0H.20399475V.27719117C.20399475 .33624269 .22399903 .40429688 .33299256 .40429688 .34599305 .40429688 .36099244 .40429688 .37298585 .4022827V.54389956C.3639984 .54489138 .35499574 .54589846 .34599305 .54589846 .26098634 .54589846 .22898865 .4940338 .19999695 .44018556H.19799805V.53222659H.06399536V0Z"/>
<path id="font_2_74" d="M.068984989 .53222659V0H.20899964V.53222659H.068984989M.20899964 .7246094H.068984989V.5946045H.20899964V.7246094Z"/>
<path id="font_2_91" d="M.46998597 .41722108V.53222659H.038986207V.4202118H.29299928L.019989014 .10899353V0H.47999574V.114990238H.20098877L.46998597 .41722108Z"/>
<path id="font_2_70" d="M.37799073 .1563263C.36698915 .11831665 .32699586 .09832764 .28799439 .09832764 .1749878 .09832764 .16699219 .18832398 .16299439 .22833252H.5279999V.25332643C.5279999 .4958954 .3829956 .54589846 .27799989 .54589846 .04499817 .54589846 .022994996 .34124757 .022994996 .2773285 .022994996 .05831909 .13798523-.013671875 .28799439-.013671875 .3789978-.013671875 .4850006 .028320313 .5219879 .1563263H.37799073M.16699219 .31933595C.1749878 .38905335 .20999146 .43089295 .27598573 .43089295 .32099916 .43089295 .37599183 .40499879 .38398744 .31933595H.16699219Z"/>
<path id="font_2_69" d="M.5509949 .71777346H.41099549V.46289063H.40899659C.3869934 .4968872 .34498597 .54589846 .25498963 .54589846 .13798523 .54589846 .033996583 .45588685 .033996583 .27209474 .033996583 .12628174 .099990848-.013671875 .2579956-.013671875 .31599427-.013671875 .37799073 .0073242189 .4119873 .06732178H.4139862V0H.5509949V.71777346M.17799378 .26210023C.17799378 .34599305 .20799256 .42489625 .29699708 .42489625 .3929901 .42489625 .4169922 .33900453 .4169922 .25411988 .4169922 .17521668 .38198854 .10131836 .29299928 .10131836 .20298767 .10131836 .17799378 .19918823 .17799378 .26210023Z"/>
<path id="font_2_1" d="M0 0Z"/>
<path id="font_2_68" d="M.3809967 .19419861C.3809967 .16923523 .35699464 .10131836 .28599549 .10131836 .17999268 .10131836 .17799378 .21617127 .17799378 .27409364 .17799378 .3400116 .20098877 .42788697 .2889862 .42788697 .35398866 .43188478 .37599183 .37695313 .38198854 .3420105H.5239868C.5109863 .5078888 .37298585 .54589846 .2889862 .54589846 .10899353 .54589846 .033996583 .42289735 .033996583 .25112916 .033996583 .13926697 .07998657-.013671875 .27999879-.013671875 .47499085-.013671875 .5179901 .13926697 .522995 .19419861H.3809967Z"/>
<path id="font_2_81" d="M.19599915 .25411988C.19599915 .33900453 .21899414 .42489625 .31498719 .42489625 .4039917 .42489625 .43399049 .34599305 .43399049 .26210023 .43399049 .19918823 .40899659 .10131836 .31900025 .10131836 .22999573 .10131836 .19599915 .17521668 .19599915 .25411988M.19599915 .53222659H.06199646V-.20703125H.20199585V.0683136H.20399475C.22099304 .0393219 .2559967-.013671875 .35398866-.013671875 .5119934-.013671875 .5779877 .12631226 .5779877 .27226258 .5779877 .45588685 .47399903 .54589846 .35699464 .54589846 .2630005 .54589846 .22399903 .4968872 .19799805 .45489503H.19599915V.53222659Z"/>
<path id="font_2_90" d="M.5389862 .53222659H.3909912L.28199769 .14016724H.27999879L.1659851 .53222659H.009994507L.20599365-.021865845C.19299317-.09487915 .16499329-.101867679 .11399841-.101867679 .101989749-.101867679 .09298706-.100875858 .08699036-.099868778V-.21186829C.10699463-.21287537 .1309967-.21386719 .1499939-.21386719 .27198792-.21386719 .2899933-.18788147 .35598756 .009140015L.5389862 .53222659Z"/>
<path id="font_2_72" d="M.4189911 .53222659V.45289613H.4169922C.3999939 .48788453 .3600006 .54589846 .26098634 .54589846 .14399719 .54589846 .039993287 .45588685 .039993287 .27197267 .039993287 .08605957 .14099121-.0029296876 .2689972-.0029296876 .35299684-.0029296876 .3880005 .03605652 .41099549 .077056888L.41299439 .07505798V.011062622C.41299439-.07484436 .3769989-.110809329 .3019867-.110809329 .22099304-.110809329 .20999146-.08383179 .20399475-.056869508H.051986696C.057998659-.1697998 .17399597-.21679688 .28399659-.21679688 .54599-.21679688 .5529938-.06385803 .5529938 .028060914V.53222659H.4189911M.18399048 .26313783C.18399048 .3869171 .24198914 .42489625 .2939911 .42489625 .37199403 .42489625 .4139862 .3549347 .4139862 .26898194 .4139862 .1960144 .3899994 .11506653 .29499818 .11506653 .21199036 .11506653 .18399048 .19509888 .18399048 .26313783Z"/>
<path id="font_2_84" d="M.5029907 .37002564C.49198915 .51989749 .36799623 .54589846 .2639923 .54589846 .09799194 .54589846 .04899597 .44589234 .04899597 .36802674 .04899597 .1691742 .3789978 .23609925 .3789978 .1472168 .3789978 .1272583 .3619995 .092315677 .2899933 .092315677 .20199585 .092315677 .17399597 .1252594 .17399597 .17016602H.02999878C.033996583 .028320313 .16499329-.013671875 .28599549-.013671875 .36898805-.013671875 .5189972 .014328003 .5189972 .1691742 .5189972 .365036 .18598938 .3040924 .18598938 .38798524 .18598938 .4109497 .19599915 .43989564 .27198792 .43989564 .34799195 .43989564 .3600006 .40396119 .3659973 .37002564H.5029907Z"/>
<path id="font_2_71" d="M.22698975 .43222047H.31799317V.53222659H.22698975V.55303958C.22698975 .5966797 .22799683 .611557 .27598573 .611557H.31498719V.72454836C.30299378 .7255554 .28399659 .7265625 .24299622 .7265625 .14698792 .7265625 .08699036 .68455508 .08699036 .5748596V.53222659H.009994507V.43222047H.08699036V0H.22698975V.43222047Z"/>
<path id="font_2_77" d="M.20899964 .71777346H.068984989V0H.20899964V.71777346Z"/>
<path id="font_2_15" d="M.21398926 .1459961H.06399536V0H.21398926V.1459961Z"/>
<path id="font_3_18" d="M.44198609 .023986817C.34298707 .023986817 .33399964 .05101013 .33399964 .11805725V.68847659H.31698609L.06498718 .5793915V.55337527C.09899902 .56637576 .1329956 .5783844 .14698792 .5783844 .18598938 .5783844 .18598938 .5343628 .18598938 .5093384V.124069217C.18598938 .062026979 .18299866 .022994996 .066986087 .023986817V0H.44198609V.023986817Z"/>
<path id="font_4_1" d="M0 0Z"/>
<path id="font_4_36" d="M.6199951 .450943 .61099246 .67578127H.58999636C.58200076 .6427765 .548996 .6427765 .5439911 .6427765 .5219879 .6427765 .45700074 .67578127 .36799623 .67578127 .19599915 .67578127 .027999878 .5548401 .027999878 .3310547 .027999878 .08227539 .20098877-.013671875 .3619995-.013671875 .54599-.013671875 .6319885 .11125183 .6329956 .11325073L.61499026 .13122559C.58399966 .101257327 .5119934 .030319214 .3889923 .030319214 .2630005 .030319214 .14399719 .117248538 .14399719 .3290558 .14399719 .47291566 .18798828 .53686526 .22698975 .5748291 .2689972 .6157837 .32699586 .6357727 .3769989 .6357727 .5 .6357727 .57199099 .55584719 .5970001 .450943H.6199951Z"/>
<path id="font_4_80" d="M.24499512 .45996095C.11099243 .45996095 .0289917 .35101319 .0289917 .22808838 .0289917 .093170169 .11898804-.009765625 .24798584-.009765625 .3999939-.009765625 .46998597 .12915039 .46998597 .22808838 .46998597 .3730011 .37599183 .45996095 .24499512 .45996095M.2619934 .018234253C.14199829 .018234253 .11898804 .20210266 .11898804 .276062 .11898804 .37998963 .17399597 .4319458 .23699951 .4319458 .32899476 .4319458 .37998963 .32302857 .37998963 .19911194 .37998963 .05619812 .31298829 .018234253 .2619934 .018234253Z"/>
<path id="font_4_79" d="M.07998657 .08998108C.07998657 .0309906 .06498718 .017990113 .017990113 .01499939V0H.22999573V.01499939C.17799378 .017990113 .1639862 .033996583 .1639862 .066986087V.34796144C.20199585 .38494874 .23298645 .404953 .2630005 .404953 .32199098 .404953 .33999635 .36895753 .33999635 .30796815V.098983768C.33999635 .022994996 .31399537 .017990113 .2769928 .01499939V0H.4850006V.01499939C.43598939 .018997193 .42399598 .033996583 .42399598 .08097839V.30996705C.42399598 .43295289 .35299684 .45996095 .30699159 .45996095 .24798584 .45996095 .20999146 .42495729 .16099549 .37895204V.45794679L.1539917 .45996095C.10798645 .44303895 .06098938 .4280243 .015991211 .41503907V.3980255C.019989014 .40003968 .0309906 .40203858 .04499817 .40203858 .06098938 .40203858 .07998657 .4010315 .07998657 .33802796V.08998108Z"/>
<path id="font_4_85" d="M.25498963 .4501953H.1539917V.5661926C.1539917 .57418826 .1539917 .5791931 .14698792 .5791931 .10998535 .5261841 .09498596 .5041809 .056991579 .4651947 .034988405 .44319154 .0129852299 .43719483 .0129852299 .42518617 .0129852299 .42218019 .01499939 .41918946 .016998291 .41818238H.069992069V.11721802C.069992069 .017227173 .11099243-.009765625 .1619873-.009765625 .20799256-.009765625 .25498963 .023223877 .2789917 .066223148L.2659912 .07722473C.25498963 .06422424 .23699951 .04222107 .20498657 .04222107 .1539917 .04222107 .1539917 .10122681 .1539917 .1322174V.41818238H.25498963V.4501953Z"/>
<path id="font_4_74" d="M.015991211 0H.25299073V.01499939C.18399048 .018997193 .1789856 .036010744 .1789856 .10205078V.4569702L.1749878 .45996095C.12298584 .4410553 .07199097 .42216493 .019989014 .40527345V.3902588C.032989503 .3922577 .04598999 .39427186 .05999756 .39427186 .07598877 .39427186 .09498596 .39326478 .09498596 .33422853V.10205078C.09498596 .024002076 .07798767 .017990113 .015991211 .01499939V0M.07798767 .63160708C.07798767 .61260989 .09199524 .5806122 .12799073 .5806122 .1579895 .5806122 .17999268 .60261538 .17999268 .63160708 .17999268 .65960696 .1579895 .6826172 .12799073 .6826172 .09298706 .6826172 .07798767 .65060427 .07798767 .63160708Z"/>
<path id="font_4_86" d="M.47898866 .050125123C.4189911 .04812622 .4169922 .071121219 .4169922 .10713196V.4501953H.25898744V.43318177C.32899476 .43118287 .33299256 .41018678 .33299256 .37017823V.13522339C.33299256 .10221863 .32598878 .09222412 .31698609 .084228519 .2899933 .06222534 .2599945 .048233034 .22999573 .048233034 .1639862 .048233034 .15499878 .11021423 .15499878 .1242218V.4501953H.008987427V.43618775C.038986207 .43418885 .070999149 .43218995 .070999149 .37219239V.120224C.070999149 .014221191 .14898682-.009765625 .18998719-.009765625 .20799256-.009765625 .2559967-.0057678224 .29499818 .033233644L.33799745 .07621765V-.0067749025L.33999635-.008773804C.3869934 .008117676 .4249878 .022125245 .47898866 .036132814V.050125123Z"/>
<path id="font_4_70" d="M.4079895 .16427613C.3849945 .1272583 .34199525 .05921936 .25299073 .05921936 .18699646 .05921936 .10598755 .100250247 .09399414 .27734376H.40499879C.3939972 .40800477 .32299806 .45996095 .22898865 .45996095 .14898682 .45996095 .024993897 .3990326 .024993897 .21430969 .024993897 .07223511 .100997928-.009765625 .21199036-.009765625 .35598756-.009765625 .4139862 .12626648 .42399598 .15727234L.4079895 .16427613M.09700012 .30934144C.11299133 .39704896 .1519928 .4239502 .20698548 .4239502 .28599549 .4239502 .29599 .35717774 .30299378 .30934144H.09700012Z"/>
<path id="font_4_81" d="M.07499695-.13079834C.07499695-.1737976 .070999149-.19480896 .004989624-.19979859V-.21679688H.24699402V-.19880677C.1749878-.19880677 .15899658-.18780518 .15899658-.123794559V.033218385C.19198609 .0012207031 .21998596-.009765625 .2599945-.009765625 .39898683-.009765625 .46998597 .13014221 .46998597 .24507141 .46998597 .3779602 .3939972 .45996095 .30499269 .45996095 .22799683 .45996095 .18199158 .4109497 .16099549 .3829651L.15899658 .384964V.45794679L.15299988 .45996095C.10499573 .44117738 .056991579 .42417909 .008987427 .4091797V.39317323C.017990113 .39416505 .027999878 .39416505 .036987306 .39416505 .07199097 .39416505 .07499695 .377182 .07499695 .33717347V-.13079834M.15899658 .33399964C.16499329 .37197877 .22099304 .39994813 .25698854 .39994813 .3789978 .39994813 .38398744 .23806763 .38398744 .21508789 .38398744 .04121399 .2939911 .022232056 .26098634 .022232056 .20599365 .022232056 .15899658 .065200809 .15899658 .08818054V.33399964Z"/>
<path id="font_4_83" d="M.07598877 .083984378C.07598877 .02798462 .05999756 .024993897 .004989624 .01499939V0H.24499512V.01499939C.19400025 .016998291 .1599884 .020996094 .1599884 .08998108V.31495667C.1599884 .34695436 .20399475 .3969574 .22799683 .3969574 .2519989 .3969574 .2619934 .36195375 .29699708 .36195375 .32099916 .36195375 .33499146 .38095094 .33499146 .40596009 .33499146 .43894959 .31498719 .45996095 .2809906 .45996095 .24299622 .45996095 .20899964 .43995667 .1619873 .36895753H.1599884V.45794679L.15499878 .45996095C.10598755 .44024659 .055999757 .4222412 .0069885256 .40625V.39024354C.015991211 .39224244 .026992798 .39424134 .040985109 .39424134 .056991579 .39424134 .07598877 .39323426 .07598877 .334198V.083984378Z"/>
<path id="font_4_67" d="M.15299988 .32200624C.15699768 .3789673 .22099304 .3969574 .25299073 .3969574 .34399415 .3969574 .37998963 .2940216 .37998963 .20109558 .37998963 .1351471 .3639984 .022232056 .24899292 .022232056 .22399903 .022232056 .15299988 .035217287 .15299988 .07019043V.32200624M.068984989 .05419922C.068984989 .017227173 .17399597-.009765625 .22399903-.009765625 .40899659-.009765625 .46798707 .14813233 .46798707 .23806763 .46798707 .34498597 .41099549 .45996095 .2899933 .45996095 .21398926 .45996095 .16099549 .40194703 .15499878 .3789673H.15299988V.6806183L.147995 .6826172C.099990848 .66563418 .050994874 .65164187 .0029907227 .6386719V.6226654C.008987427 .6236572 .018997193 .6236572 .024993897 .6236572 .068984989 .6236572 .068984989 .6027069 .068984989 .5727539V.05419922Z"/>
<path id="font_4_77" d="M.020996094 0H.25698854V.01499939C.19898987 .017990113 .18199158 .025985718 .18199158 .08395386V.680603L.17799378 .6826172C.125 .66563418 .07199097 .65164187 .018997193 .6386719V.6226654C.0309906 .6236725 .039993287 .6246643 .052993776 .6246643 .09199524 .6246643 .09799194 .6086731 .09799194 .56370547V.08695984C.09799194 .031982423 .07998657 .018997193 .020996094 .01499939V0Z"/>
<path id="font_4_78" d="M.085998538 .084991458C.085998538 .017990113 .055999757 .015991211 .015991211 .01499939V0H.23799134V.01499939C.20298767 .015991211 .16999817 .017990113 .16999817 .066986087V.34895326C.16999817 .35395814 .21598816 .40795899 .2849884 .40795899 .33699037 .40795899 .35398866 .36895753 .35398866 .30296327V.08598328C.35398866 .020996094 .33099366 .017990113 .28599549 .01499939V0H.5099945V.01499939C.46899415 .015991211 .43798829 .018997193 .43798829 .09498596V.34695436C.45999146 .38095094 .49398805 .40795899 .548996 .40795899 .62098696 .40795899 .621994 .34895326 .621994 .29795838V.08699036C.621994 .022994996 .60598757 .020996094 .55599978 .01499939V0H.7749939V.01499939L.7489929 .016998291C.7049866 .023986817 .70599368 .053985597 .70599368 .07598877V.28196717C.70599368 .35595704 .69200137 .45996095 .58799746 .45996095 .5089874 .45996095 .44799806 .39994813 .4269867 .3759613 .41600038 .4179535 .3849945 .45996095 .31999208 .45996095 .2659912 .45996095 .22499085 .427948 .1659851 .38294984V.45794679L.15899658 .45996095C.11299133 .44303895 .06599426 .4280243 .018997193 .41503907V.3980255C.026992798 .40003968 .036987306 .40203858 .050994874 .40203858 .066986087 .40203858 .085998538 .4010315 .085998538 .33802796V.084991458Z"/>
<path id="font_4_18" d="M.117996219 0H.3939972V.01499939C.31900025 .01499939 .29899598 .025985718 .29899598 .07397461V.67378237L.29100038 .67578127 .11099243 .58480837V.57081606C.16699219 .59280398 .16699219 .59280398 .1789856 .59280398 .21299744 .59280398 .21299744 .56681826 .21299744 .54582217V.0929718C.21299744 .018997193 .17599488 .016998291 .117996219 .01499939V0Z"/>
<path id="font_4_66" d="M.2869873 .1230011C.2869873 .09309387 .28399659 .08113098 .25299073 .06617737 .24398804 .061187746 .21299744 .048217775 .19099427 .048217775 .1539917 .048217775 .125 .07913208 .125 .12599182V.12799073C.125 .1618805 .13598633 .21772766 .2869873 .26757813V.1230011M.44198609 .06617737C.43099977 .05718994 .41799928 .047225954 .39698792 .047225954 .36799623 .047225954 .36799623 .07614136 .36799623 .10505676V.29963685C.36799623 .359787 .36799623 .45996095 .21899414 .45996095 .102996829 .45996095 .055999757 .38883973 .055999757 .34875489 .055999757 .3327179 .067993167 .30465699 .09899902 .30465699 .125 .30465699 .14399719 .32670594 .14399719 .3477478 .14399719 .356781 .13899231 .3718109 .13899231 .38684083 .13899231 .4179077 .1769867 .43595887 .20999146 .43595887 .23999024 .43595887 .2869873 .42492677 .2869873 .35276795V.29162599C.12399292 .22769165 .036987306 .19378662 .036987306 .09408569 .036987306 .02722168 .08898926-.009765625 .14299011-.009765625 .19799805-.009765625 .25099183 .030227662 .28799439 .063186649 .29299928-.008773804 .33499146-.009765625 .35299684-.009765625 .36898805-.009765625 .3999939-.008773804 .44198609 .040222169V.06617737Z"/>
<path id="font_4_72" d="M.09799194-.08985901C.09799194-.059890748 .115997318-.03892517 .14698792-.001953125 .19400025-.011657715 .21598816-.011657715 .30999757-.0146484379 .38398744-.016662598 .43299867-.018661499 .43299867-.063705448 .43299867-.116744998 .36499024-.16078186 .24798584-.16078186 .13398743-.16078186 .09799194-.12081909 .09799194-.08985901M.1519928 .3421173C.1519928 .40899659 .19099427 .4319458 .22698975 .4319458 .31298829 .4319458 .32899476 .29818727 .32899476 .27023316 .32899476 .24827576 .32398988 .17440796 .2559967 .17440796 .17799378 .17440796 .1519928 .26324464 .1519928 .3421173M.46998597 .38775636V.4267578H.3929901C.3769989 .4267578 .35899354 .428833 .33799745 .43695069 .2979889 .45195008 .27598573 .45996095 .24099732 .45996095 .16499329 .45996095 .068984989 .4119873 .068984989 .29319764 .068984989 .23530579 .102996829 .18937683 .1619873 .16340637 .07299805 .084365848 .07299805 .0713501 .07299805 .054336549 .07299805 .02633667 .09899902 .014343262 .12599182 .0013427734 .07499695-.03466797 .027999878-.07571411 .027999878-.1207428 .027999878-.17378235 .102996829-.21777344 .20498657-.21777344 .29499818-.21777344 .46099855-.16177368 .46099855-.048690797 .46099855-.0206604 .44699098 .053344728 .33999635 .05834961L.21099854 .06434631C.18099976 .06535339 .1329956 .068344119 .1329956 .09136963 .1329956 .1113739 .17298889 .15240479 .19299317 .15440369 .19898987 .15440369 .23498535 .14941406 .24699402 .14941406 .30299378 .14941406 .4059906 .18836975 .4059906 .29603578 .4059906 .34588624 .39698792 .3648224 .3869934 .38775636H.46998597Z"/>
<path id="font_4_22" d="M.18099976 .58309939H.3769989C.3880005 .58309939 .39698792 .58309939 .3999939 .59210208L.43798829 .68110659 .42900086 .6880951C.41799928 .6730957 .40899659 .6621094 .3829956 .6621094H.17399597L.06498718 .4251709C.06199646 .4181671 .06498718 .4121704 .070999149 .4121704 .1789856 .4081726 .35598756 .3611908 .35598756 .20124817 .35598756 .07929993 .28199769 .02331543 .21699524 .02331543 .16299439 .02331543 .13598633 .08529663 .07199097 .08529663 .03199768 .08529663 .03199768 .05630493 .03199768 .046310426 .03199768 .010314941 .07899475-.013671875 .1579895-.013671875 .31599427-.013671875 .42599488 .092300418 .42599488 .22525025 .42599488 .31420899 .4149933 .34320069 .37199403 .39517213 .31298829 .46714784 .21899414 .48414613 .13899231 .49813844L.18099976 .58309939Z"/>
<path id="font_4_15" d="M.125-.0107421879C.1459961-.0107421879 .18099976 .0062561037 .18099976 .04324341 .18099976 .07424927 .15499878 .100250247 .125 .100250247 .09498596 .100250247 .069992069 .07525635 .069992069 .04324341 .069992069 .0052490236 .10398865-.0107421879 .125-.0107421879Z"/>
<path id="font_2_14" d="M.30599977 .34483338H.026992798V.21484375H.30599977V.34483338Z"/>
<path id="font_2_21" d="M.12998963 .2662201 .30799867 .57095339H.30999757C.30999757 .54896548 .30699159 .43806459 .30699159 .2662201H.12998963M.526001 .2662201H.44699098V.70996096H.28799439L.026992798 .2782135V.15722656H.30699159V0H.44699098V.15722656H.526001V.2662201Z"/>
<path id="font_3_1" d="M0 0Z"/>
<path id="font_4_53" d="M.45199586 .018997193C.36799623 .021987915 .35598756 .041000368 .35598756 .10900879V.6201019H.4099884C.519989 .6201019 .5479889 .60209658 .56900027 .4920807H.59298709L.58699038 .6621094H.022994996L.016998291 .4920807H.040985109C.06298828 .60110476 .08999634 .6201019 .19999695 .6201019H.2539978V.120010379C.2539978 .04598999 .25099183 .022994996 .1599884 .018997193V0H.45199586V.018997193Z"/>
<path id="font_4_73" d="M.4869995 .01499939C.43699647 .023986817 .4269867 .0289917 .4269867 .101989749V.30096437C.4269867 .34095765 .42599488 .45996095 .30299378 .45996095 .24299622 .45996095 .19400025 .427948 .15899658 .3779602H.15699768V.6796112L.1519928 .6826172C.10398865 .66563418 .054992677 .65164187 .009994507 .6386719V.6226654C.0129852299 .6236572 .022994996 .6236572 .0289917 .6236572 .07299805 .6236572 .07299805 .6027069 .07299805 .5727539V.101989749C.07299805 .0289917 .06298828 .021987915 .008987427 .01499939V0H.22499085V.01499939C.17599488 .019989014 .15699768 .024993897 .15699768 .101989749V.34295655C.19799805 .3909607 .23699951 .40596009 .2659912 .40596009 .32099916 .40596009 .34298707 .36695863 .34298707 .29995729V.101989749C.34298707 .024993897 .32398988 .019989014 .2749939 .01499939V0H.4869995V.01499939Z"/>
<path id="font_4_68" d="M.397995 .15615845C.3639984 .10519409 .32699586 .06222534 .25498963 .06222534 .17098999 .06222534 .101989749 .13816834 .101989749 .25308229 .101989749 .39997865 .19400025 .43095399 .23098755 .43095399 .28399659 .43095399 .2889862 .41296388 .29699708 .3829956L.30299378 .3610077C.30899049 .33901979 .32598878 .31303407 .35198976 .31503297 .38198854 .31703187 .397995 .33602906 .397995 .3590088 .397995 .3769989 .3849945 .40797425 .35499574 .42895509 .32998658 .4449463 .2849884 .45996095 .24899292 .45996095 .14099121 .45996095 .024993897 .3769989 .024993897 .2131195 .024993897 .055221559 .13198853-.009765625 .21199036-.009765625 .29299928-.009765625 .35798646 .033233644 .4119873 .14717102L.397995 .15615845Z"/>
<path id="font_4_87" d="M.47698976 .4501953H.33799745V.43518067C.36299134 .43418885 .3849945 .42518617 .3849945 .40219117 .3849945 .36621095 .31399537 .21025086 .27999879 .11428833L.17799378 .37020875C.1749878 .37820436 .16899109 .39320375 .16899109 .40519715 .16899109 .43019105 .19099427 .43318177 .21499634 .43518067V.4501953H.018997193V.43518067C.038986207 .43418885 .05899048 .42819215 .07398987 .39819337 .10998535 .32722474 .20599365 .09529114 .22999573 .033309938 .24598694-.009674072 .24798584-.013671875 .25698854-.013671875 .2639923-.013671875 .272995 .009307861 .28399659 .03630066L.4119873 .35720826C.43598939 .41619874 .44299317 .43218995 .47698976 .43518067V.4501953Z"/>
<path id="font_5_36" d="M.6519928 .4651184 .68899539 .66400149H.66799929C.6629944 .65400698 .6569977 .64201357 .6279907 .64201357 .6049957 .64201357 .5439911 .6660156 .47200013 .6660156 .24299622 .6660156 .06599426 .4451294 .06599426 .2522583 .06599426 .05239868 .21199036-.017578125 .32798768-.017578125 .47399903-.017578125 .5629883 .087371829 .59999087 .13134766L.58299258 .14533997C.5349884 .09837341 .46499635 .027420044 .35198976 .027420044 .23298645 .027420044 .17799378 .11035156 .17799378 .24127198 .17799378 .38816834 .27999879 .6300049 .47999574 .6300049 .6230011 .6300049 .6319885 .49609376 .6339874 .4681244L.6519928 .4651184Z"/>
<path id="font_5_89" d="M.4019928 .11128235C.375 .08126831 .35499574 .04425049 .33399964 .04425049 .31399537 .04425049 .30699159 .06925964 .30299378 .08526611 .29699708 .11027527 .2630005 .24633789 .2630005 .26434327 .2630005 .26434327 .33099366 .38539125 .3600006 .38539125 .38198854 .38539125 .3889923 .36839295 .41299439 .36839295 .43699647 .36839295 .44699098 .3874054 .44699098 .4053955 .44699098 .42939759 .4249878 .44140626 .4059906 .44140626 .35398866 .44140626 .30699159 .3804016 .25498963 .2983551L.24398804 .3533783C.22599793 .44140626 .21099854 .44140626 .18899536 .44140626 .15699768 .44140626 .09098816 .41740418 .06399536 .4084015L.067993167 .3934021C.099990848 .4013977 .11399841 .4044037 .12298584 .4044037 .1499939 .4044037 .1539917 .39039613 .16299439 .359375 .1639862 .35438539 .19799805 .22132874 .19799805 .21232605 .10798645 .08126831 .08198547 .04725647 .06498718 .04725647 .04699707 .04725647 .0289917 .06625366 .0069885256 .06625366-.015014648 .06625366-.027008057 .04824829-.027008057 .03225708-.027008057 .008255005-.011001587-.0107421879 .021987915-.0107421879 .052993776-.0107421879 .06498718 .00024414063 .08198547 .019256592 .115997318 .056259157 .1579895 .11027527 .20599365 .17630005L.23599243 .056259157C.24899292 .003250122 .2639923-.0107421879 .29299928-.0107421879 .31599427-.0107421879 .34498597-.0107421879 .41600038 .103271488L.4019928 .11128235Z"/>
<path id="font_5_90" d="M.01499939 .4002838C.026992798 .4032898 .033996583 .40429688 .04899597 .40429688 .10598755 .40429688 .11898804 .36125184 .1459961 .27020265 .16299439 .21617127 .20498657 .0410614 .20498657 .003036499 .20498657-.023986817 .16299439-.073013309 .13798523-.10203552 .10398865-.14205933 .09098816-.15106201 .07499695-.15106201 .056991579-.15106201 .04399109-.123062137 .01399231-.123062137-.007003784-.123062137-.024002076-.14006043-.024002076-.16105652-.024002076-.20306397 .018997193-.20605469 .026992798-.20605469 .1459961-.20605469 .42599488 .2602539 .42599488 .37934876 .42599488 .41537477 .4059906 .44140626 .36898805 .44140626 .34298707 .44140626 .33198548 .42037965 .33198548 .40637208 .33198548 .3603363 .38598634 .3713379 .38598634 .330307 .38598634 .27726747 .30699159 .14216614 .2639923 .07211304L.24398804 .1882019C.23098755 .2632599 .17199707 .44239808 .15899658 .44140626 .14099121 .44140626 .06298828 .42538453 .01499939 .41737367V.4002838Z"/>
<path id="font_4_14" d="M.038986207 .25683595V.1938324H.2849884V.25683595H.038986207Z"/>
<path id="font_4_84" d="M.31498719 .31404115 .31098939 .45117188H.2999878C.29699708 .44696046 .2919922 .43995667 .2829895 .43995667 .2659912 .43995667 .23498535 .45996095 .19099427 .45996095 .09399414 .45996095 .050994874 .39398194 .050994874 .3380127 .050994874 .2640686 .10598755 .22709656 .16799927 .19210816L.22599793 .15913391C.2579956 .1411438 .27799989 .11715698 .27799989 .08517456 .27799989 .028213501 .23098755 .01222229 .19699097 .01222229 .09899902 .01222229 .07998657 .09916687 .067993167 .15213013H.051986696V-.00390625H.06498718C.070999149 .0052337648 .07499695 .008224487 .08699036 .008224487 .114990238 .009231567 .1579895-.009765625 .20298767-.009765625 .2669983-.009765625 .34799195 .032211305 .34799195 .119155887 .34799195 .17912293 .31298829 .20710755 .2639923 .2370758L.1559906 .30104066C.11898804 .32302857 .11299133 .352005 .11299133 .37199403 .11299133 .39797975 .13398743 .43695069 .18899536 .43695069 .23298645 .43695069 .27799989 .41596986 .2999878 .31404115H.31498719Z"/>
<path id="font_4_90" d="M.47499085 .4501953H.33999635V.43518067C.37199403 .43618775 .3880005 .42619325 .3880005 .4071808 .3880005 .39819337 .375 .36619569 .36499024 .33918763L.2869873 .11720276 .17199707 .37019349C.16899109 .37719728 .1619873 .39318849 .1619873 .40618897 .1619873 .43318177 .19699097 .43418885 .21998596 .43518067V.4501953H.01399231V.43618775C.026992798 .43418885 .052993776 .42918397 .06498718 .40419007L.1789856 .15820313C.19299317 .12719727 .24099732 .035202028 .24099732 .020202637 .24099732 .004211426 .20098877-.1337738 .14898682-.1337738 .13598633-.1337738 .10499573-.11578369 .07798767-.11578369 .03199768-.11578369 .02999878-.15377808 .02999878-.15977478 .02999878-.18577576 .052993776-.21777344 .102996829-.21777344 .17799378-.21777344 .22200012-.15177918 .272995-.017791748L.4269867 .3901825C.44198609 .43118287 .46199037 .43318177 .47499085 .43518067V.4501953Z"/>
<path id="font_6_11" d="M.30000306-.17440796 .29000855-.19140625C.2773336-.19273885 .2506663-.17340088 .21000672-.13339234 .16466777-.0900472 .13066609-.047032674 .10800171-.004348755 .07132975 .06566874 .052993776 .1473592 .052993776 .24072266 .052993776 .3340861 .07132975 .41577659 .10800171 .48579408 .13066609 .52847799 .16466777 .5714925 .21000672 .61483767 .2506663 .6548462 .2773336 .67418417 .29000855 .67285159L.30000306 .6558533C.2500051 .61583456 .21366883 .5734863 .19099427 .5288086 .18433126 .5154724 .17399597 .48546348 .1599884 .43878175 .1446584 .3881022 .13699341 .32208253 .13699341 .24072266 .13699341 .1593628 .1446584 .0933431 .1599884 .042663576 .17399597-.004018148 .18433126-.0340271 .19099427-.04736328 .21366883-.092041019 .2500051-.13438924 .30000306-.17440796Z"/>
<path id="font_6_12" d="M.039993287-.19140625 .02999878-.17440796C.07999674-.13438924 .11632792-.092041019 .13899231-.04736328 .14566548-.0340271 .15600078-.004018148 .16999817 .042663576 .18532817 .0933431 .19299317 .15935771 .19299317 .2407074 .19299317 .32272849 .18532817 .38907878 .16999817 .4397583 .15600078 .48644004 .14566548 .516449 .13899231 .52978518 .11632792 .5744629 .07999674 .6168111 .02999878 .65682986L.039993287 .6738281C.05265808 .6751607 .079325359 .65582278 .11999512 .6158142 .1653239 .57246908 .19932556 .5294545 .22200012 .48677064 .2586619 .41675315 .2769928 .33473207 .2769928 .2407074 .2769928 .14735413 .2586619 .06566874 .22200012-.004348755 .19932556-.047032674 .1653239-.0900472 .11999512-.13339234 .079325359-.17340088 .05265808-.19273885 .039993287-.19140625Z"/>
<path id="font_5_85" d="M.29599 .42773438H.21598816L.24398804 .5307312C.24598694 .5387268 .24398804 .5477295 .23699951 .5457306 .22799683 .5477295 .22399903 .5387268 .21998596 .5337219 .19198609 .49873353 .14399719 .4537201 .11099243 .4367218 .09399414 .42773438 .06599426 .4207306 .05999756 .4117279 .056991579 .40672303 .056991579 .4017334 .057998659 .39572145H.13198853L.05999756 .12112427C.055999757 .105148319 .036987306 .04423523 .036987306 .029251099 .036987306-.00074768069 .06498718-.0107421879 .084991458-.0107421879 .13699341-.0107421879 .17599488 .0332489 .22698975 .11013794L.21398926 .11714172C.18899536 .08517456 .1539917 .038253786 .13398743 .038253786 .12298584 .038253786 .117996219 .04623413 .117996219 .055221559 .117996219 .05822754 .117996219 .06021118 .11898804 .06321716L.20698548 .39572145H.29100038L.29599 .42773438Z"/>
<path id="font_4_13" d="M.08299255-.1409607C.11299133-.13087464 .19499207-.06486511 .19499207 .006134033 .19499207 .08912659 .13699341 .102127078 .11399841 .102127078 .08898926 .102127078 .055999757 .087127689 .055999757 .044128419 .055999757 .004135132 .09199524-.005859375 .117996219-.005859375 .125-.005859375 .12998963-.0048675539 .1329956-.0038604737 .13699341-.0028686524 .13999939-.0018615723 .14199829-.0018615723 .14898682-.001953125 .1559906-.006958008 .1559906-.015960694 .1559906-.034957887 .13999939-.079956058 .07398987-.1219635L.08299255-.1409607Z"/>
<path id="font_4_88" d="M.57099917 .4501953V.43518067C.59498599 .43017579 .61499026 .42616273 .61499026 .40208436 .61499026 .39004518 .60899356 .36296083 .59799197 .33787538L.5079956 .115997318 .42799378 .32984925C.41299439 .36897279 .40699769 .38000489 .40699769 .3980713 .40699769 .4271698 .43199159 .43017579 .46499635 .43518067V.4501953H.2619934V.43518067C.30299378 .43017579 .31399537 .42315675 .35099793 .30978395L.2599945 .11100769C.21398926 .2387085 .15499878 .3659668 .15499878 .40107728 .15499878 .4291687 .17799378 .43318177 .20098877 .43518067V.4501953H.020996094V.43518067C.04598999 .43318177 .053985597 .4201355 .07398987 .37197877L.20899964 .030212403C.22299195-.0037078858 .22799683-.013671875 .23498535-.013671875 .24099732-.013671875 .24598694-.0027008057 .2599945 .025222779L.37199403 .26464845 .46299745 .029220581C.47698976-.0066986086 .47898866-.013671875 .4869995-.013671875 .49499513-.013671875 .49899293-.0037078858 .5149994 .035202028L.6529999 .38101197C.66799929 .4181366 .6729889 .42816163 .69400027 .43518067V.4501953H.57099917Z"/>
<path id="font_4_19" d="M.47499085 .13696289 .46199037 .14196778C.4229889 .07899475 .4039917 .07598877 .36698915 .07598877H.12799073L.29599 .2519226C.33999635 .29890443 .42399598 .38986207 .42399598 .4958191 .42399598 .6077728 .33399964 .67578127 .24299622 .67578127 .15499878 .67578127 .06098938 .6277771 .0309906 .4768219L.051986696 .47183229C.07398987 .5258026 .10398865 .6017761 .19499207 .6017761 .31298829 .6017761 .33799745 .5098114 .33799745 .4588318 .33799745 .38386537 .29499818 .29389955 .20799256 .200943L.02999878 .011993408V0H.41999818L.47499085 .13696289Z"/>
<path id="font_4_20" d="M.15299988 .33003236C.22200012 .33203126 .24699402 .32704164 .2829895 .3080597 .34700013 .27508546 .35899354 .20115662 .35899354 .17617798 .35899354 .101242069 .31799317 .022323609 .22499085 .022323609 .1659851 .022323609 .12799073 .07826233 .08198547 .07826233 .06599426 .07826233 .042999269 .0712738 .042999269 .043304445 .042999269-.008682251 .12998963-.013671875 .1539917-.013671875 .31098939-.013671875 .43099977 .074279788 .43099977 .21614075 .43099977 .34802247 .34599305 .38298036 .3039856 .40097047 .36999513 .44392396 .39698792 .4868927 .39698792 .5408478 .39698792 .58180239 .36999513 .67578127 .24099732 .67578127 .17399597 .67578127 .084991458 .6447754 .04499817 .51387026L.05999756 .50987246C.07499695 .5378418 .116989139 .61576846 .20799256 .61576846 .28199769 .61576846 .31799317 .56282046 .31799317 .51187136 .31799317 .4199524 .24299622 .37199403 .1519928 .34301759L.15299988 .33003236Z"/>
<path id="font_5_69" d="M.16299439 .037246705C.101989749 .037246705 .101989749 .0942688 .101989749 .11128235 .101989749 .20231629 .19699097 .418396 .30899049 .418396 .35598756 .418396 .35598756 .3743744 .35598756 .3513794 .35598756 .22732544 .2579956 .037246705 .16299439 .037246705M.46299745 .111312869C.42099 .063308719 .40098573 .040298463 .3809967 .040298463 .37098695 .040298463 .36299134 .047302247 .36299134 .062301637 .36299134 .078308109 .48399354 .5042267 .5269928 .6777344L.5219879 .682724C.47099305 .67214968 .41999818 .6651459 .36898805 .66015627V.6431427C.42399598 .6421509 .43099977 .63716128 .43099977 .6141815 .43099977 .60020449 .42399598 .57522585 .41600038 .5472717L.37298585 .38838197 .37098695 .38638307C.36698915 .4084015 .3600006 .44140626 .3039856 .44140626 .18499756 .44140626 .01499939 .2583313 .01499939 .107284549 .01499939 .055252077 .035995485-.0107421879 .11898804-.0107421879 .16899109-.0107421879 .22499085 .0062561037 .29699708 .11628723L.29899598 .11427307C.29100038 .079315189 .2869873 .05630493 .2869873 .033294679 .2869873 .012298584 .29499818-.0126953129 .33399964-.0126953129 .36698915-.0126953129 .43199159 .034301759 .47499085 .10131836L.46299745 .111312869Z"/>
<path id="font_6_32" d="M.53700259 .38964845V.3350067H.011001587V.38964845H.53700259M.53700259 .19599915V.140625H.011001587V.19599915H.53700259Z"/>
<path id="font_4_69" d="M.33999635 .10218811C.33198548 .066207889 .29299928 .04222107 .25099183 .04222107 .18499756 .04222107 .11299133 .09819031 .11299133 .24708557 .11299133 .3829956 .18099976 .4319458 .23699951 .4319458 .28399659 .4319458 .33299256 .39997865 .33999635 .33203126V.10218811M.4909973 .0579834C.42399598 .052978517 .42399598 .07298279 .42399598 .113983158V.6806183L.4189911 .6826172C.37098695 .66563418 .32199098 .65164187 .27198792 .6386719V.6226654C.27999879 .6236572 .2899933 .6236572 .29599 .6236572 .33999635 .6236572 .33999635 .6027069 .33999635 .5727539V.41696168C.30699159 .44595338 .2769928 .45996095 .23399353 .45996095 .12199402 .45996095 .026992798 .34501649 .026992798 .21411133 .026992798 .010223389 .16999817-.009765625 .20899964-.009765625 .2829895-.009765625 .31999208 .02722168 .33799745 .054214479H.33999635V-.0067749025L.34399415-.009765625C.39698792 .008987427 .44299317 .024978638 .4909973 .041992189V.0579834Z"/>
<path id="font_4_21" d="M.47200013 .23098755H.36999513V.67578127H.32598878L.011993408 .23098755V.16699219H.29299928V0H.36999513V.16699219H.47200013V.23098755M.2919922 .23098755H.051986696L.2899933 .57081606H.2919922V.23098755Z"/>
<path id="font_6_200" d="M.09199524-.29296876H.039993287V.12895203C.039993287 .3209076 .067993167 .47920738 .12399292 .6038513 .16599529 .6971639 .21533203 .770813 .27200318 .8247986 .30866496 .85945639 .35899864 .89311727 .42300416 .92578127L.43600465 .91578677C.3780009 .87846377 .32933045 .83580526 .2899933 .7878113 .24599712 .7338257 .20666504 .6658376 .17199707 .58384707 .1499939 .53052267 .13132732 .46220399 .115997318 .378891 .09999593 .2915802 .09199524 .20926412 .09199524 .13194275V-.29296876Z"/>
<path id="font_6_216" d="M.44999696-.29296876H.397995V.13194275C.397995 .20926412 .3899943 .2915802 .37399293 .378891 .35866294 .46220399 .33999635 .53052267 .31799317 .58384707 .2833252 .6658376 .24399312 .7338257 .19999695 .7878113 .16066997 .83580526 .1120046 .87846377 .054000856 .91578677L.06700134 .92578127C.1309967 .89311727 .18133037 .85945639 .21800232 .8247986 .2746633 .770813 .32399497 .6971639 .3659973 .6038513 .42199708 .47920738 .44999696 .3209076 .44999696 .12895203V-.29296876Z"/>
<path id="font_6_201" d="M.039993287 .9248047H.09199524V-.08496094H.039993287V.9248047Z"/>
<path id="font_6_217" d="M.397995 .9248047H.44999696V-.08496094H.397995V.9248047Z"/>
<path id="font_6_202" d="M.039993287 .92578127H.09199524V.50086978C.09199524 .42354838 .09999593 .3412323 .115997318 .2539215 .13132732 .17060852 .1499939 .10228983 .17199707 .048965455 .20666504-.033025106 .24599712-.10101318 .2899933-.15499878 .32933045-.20299275 .3780009-.24565125 .43600465-.28297425L.42300416-.29296876C.35899864-.26030479 .30866496-.22664388 .27200318-.19198609 .21533203-.13800049 .16599529-.0643514 .12399292 .028961182 .067993167 .15360515 .039993287 .3119049 .039993287 .5038605V.92578127Z"/>
<path id="font_6_218" d="M.397995 .92578127H.44999696V.5038605C.44999696 .3119049 .42199708 .15360515 .3659973 .028961182 .32399497-.0643514 .2746633-.13800049 .21800232-.19198609 .18133037-.22664388 .1309967-.26030479 .06700134-.29296876L.054000856-.28297425C.1120046-.24565125 .16066997-.20299275 .19999695-.15499878 .24399312-.10101318 .2833252-.033025106 .31799317 .048965455 .33999635 .10228983 .35866294 .17060852 .37399293 .2539215 .3899943 .3412323 .397995 .42354838 .397995 .50086978V.92578127Z"/>
<path id="font_4_71" d="M.30899049 .4501953H.18598938V.56585696C.18598938 .6027527 .19099427 .65460208 .24598694 .65460208 .29299928 .65460208 .2979889 .5798187 .33999635 .5798187 .3600006 .5798187 .3829956 .5927887 .3829956 .6217041 .3829956 .65560916 .33898927 .6826172 .2829895 .6826172 .102996829 .6826172 .102996829 .5060272 .102996829 .4501953H.020996094V.41818238H.102996829V.104034427C.102996829 .026992798 .085998538 .017990113 .019989014 .01499939V0H.27999879V.01499939C.18798828 .016998291 .18699646 .042999269 .18699646 .104034427V.41818238H.30899049V.4501953Z"/>
<path id="font_6_133" d="M.029006958 0V.054992677H.526001V0H.029006958M.029006958 .3468628V.40881349L.526001 .6386719V.57670596L.09300232 .37783814 .526001 .17897034V.117004398L.029006958 .3468628Z"/>
<path id="font_4_23" d="M.44599916 .68359377C.20399475 .6755829 .033996583 .49375917 .033996583 .2909546 .033996583 .08123779 .13598633-.013671875 .2539978-.013671875 .43199159-.013671875 .46798707 .1451416 .46798707 .2180481 .46798707 .35186769 .3899994 .42782594 .28399659 .42782594 .22799683 .42782594 .20698548 .41583253 .1519928 .38282777 .17098999 .5047455 .269989 .6396179 .44799806 .6675873L.44599916 .68359377M.24198914 .38183595C.34799195 .38183595 .37799073 .28196717 .37799073 .1790924 .37799073 .06625366 .33198548 .014328003 .2689972 .014328003 .19400025 .014328003 .1269989 .08822632 .1269989 .2559967 .1269989 .31591798 .13699341 .33988954 .14698792 .34986878 .17199707 .37384034 .20799256 .38183595 .24198914 .38183595Z"/>
<path id="font_4_9" d="M.29499818 .67578127C.13999939 .58377078 .04798889 .43377687 .04798889 .2617798 .04798889 .1237793 .08099365 .05177307 .12998963-.020233155 .16799927-.07623291 .23399353-.14622498 .2919922-.17723084L.3039856-.16122437C.13398743-.052230836 .13398743 .16677857 .13398743 .2687683 .13398743 .5227661 .22999573 .60076907 .3039856 .6597748L.29499818 .67578127Z"/>
<path id="font_4_10" d="M.037994386-.17723084C.19299317-.08522034 .2849884 .06477356 .2849884 .23677063 .2849884 .37477113 .2519989 .44677735 .20298767 .5187683 .16499329 .57476809 .09899902 .6447754 .040985109 .67578127L.0289917 .6597748C.19898987 .550766 .19898987 .33177186 .19898987 .22976685 .19898987-.024230957 .102996829-.10223389 .0289917-.16122437L.037994386-.17723084Z"/>
<path id="font_4_39" d="M.47898866 .23109436V.4631195H.45599366C.44599916 .38813783 .42799378 .36813355 .34599305 .36813355H.20098877V.59010317C.20098877 .6201019 .20799256 .62409976 .23298645 .62409976H.36898805C.47999574 .62409976 .5059967 .6081085 .5209961 .51911929H.54599L.54299929 .6621094H.011993408V.6430969C.07499695 .6381073 .09899902 .63209536 .09899902 .55311587V.12004089C.09899902 .037994386 .08699036 .022994996 .011993408 .018997193V0H.2919922V.018997193C.22099304 .021987915 .20098877 .033996583 .20098877 .10903931V.32814027L.34599305 .32614137C.42099 .32513429 .44499208 .31513978 .45599366 .23109436H.47898866Z"/>
<path id="font_4_32" d="M.24398804 .16412354C.2579956 .25006105 .28399659 .29003907 .33898927 .35398866 .36898805 .3889618 .4139862 .45890809 .4139862 .50987246 .4139862 .5618286 .40499879 .5848236 .37799073 .61779788 .35398866 .6467743 .28799439 .67578127 .23098755 .67578127 .1619873 .67578127 .067993167 .632782 .067993167 .53186038 .067993167 .49787904 .07798767 .4689026 .117996219 .4689026 .1459961 .4689026 .15699768 .4928894 .15699768 .50987246 .15699768 .54585269 .11898804 .5578308 .11898804 .5848236 .11898804 .61779788 .16999817 .6457672 .21199036 .6457672 .2889862 .6457672 .32199098 .5788269 .32199098 .51885989 .32199098 .4788971 .30299378 .40994264 .2849884 .36997987L.25698854 .30603028C.25099183 .29203797 .22698975 .2230835 .22698975 .16412354H.24398804M.23699951-.0078125C.26098634-.0078125 .2919922 .0071868898 .2919922 .043182374 .2919922 .07217407 .2679901 .09718323 .23699951 .09718323 .20799256 .09718323 .18399048 .07417297 .18399048 .043182374 .18399048 .0051727297 .21598816-.0078125 .23699951-.0078125Z"/>
<path id="font_4_37" d="M.015991211 0H.2999878C.60598757 0 .68499758 .1960144 .68499758 .32904054 .68499758 .5530853 .526001 .6621094 .28599549 .6621094H.015991211V.6430969C.09298706 .6371002 .10398865 .6271057 .10398865 .5530853V.10900879C.10398865 .039001466 .09199524 .022994996 .015991211 .018997193V0M.20599365 .5860901C.20599365 .60609439 .20599365 .6251068 .25299073 .6251068 .3789978 .6251068 .43499757 .59809878 .48298646 .5550842 .5519867 .4930725 .57598879 .4120636 .57598879 .3280487 .57598879 .036987306 .32998658 .036987306 .2659912 .036987306 .21798706 .036987306 .20599365 .04399109 .20599365 .07800293V.5860901Z"/>
</defs>
<g clip-path="url(#clip_1)">
<use data-text="U" xlink:href="#font_2_54" transform="matrix(6.9146,0,0,-6.8478,54.0204,745.7717)" fill="#231f20"/>
<use data-text="n" xlink:href="#font_2_79" transform="matrix(6.9146,0,0,-6.8478,59.01274,745.7717)" fill="#231f20"/>
<use data-text="a" xlink:href="#font_2_66" transform="matrix(6.9146,0,0,-6.8478,63.23756,745.7717)" fill="#231f20"/>
<use data-text="u" xlink:href="#font_2_86" transform="matrix(6.9146,0,0,-6.8478,67.08208,745.7717)" fill="#231f20"/>
<use data-text="t" xlink:href="#font_2_85" transform="matrix(6.9146,0,0,-6.8478,71.3069,745.7717)" fill="#231f20"/>
<use data-text="h" xlink:href="#font_2_73" transform="matrix(6.9146,0,0,-6.8478,73.60946,745.7717)" fill="#231f20"/>
<use data-text="o" xlink:href="#font_2_80" transform="matrix(6.9146,0,0,-6.8478,77.83428,745.7717)" fill="#231f20"/>
<use data-text="r" xlink:href="#font_2_83" transform="matrix(6.9146,0,0,-6.8478,82.059108,745.7717)" fill="#231f20"/>
<use data-text="i" xlink:href="#font_2_74" transform="matrix(6.9146,0,0,-6.8478,84.748889,745.7717)" fill="#231f20"/>
<use data-text="z" xlink:href="#font_2_91" transform="matrix(6.9146,0,0,-6.8478,86.67114,745.7717)" fill="#231f20"/>
<use data-text="e" xlink:href="#font_2_70" transform="matrix(6.9146,0,0,-6.8478,90.197589,745.7717)" fill="#231f20"/>
<use data-text="d" xlink:href="#font_2_69" transform="matrix(6.9146,0,0,-6.8478,94.04211,745.7717)" fill="#231f20"/>
<use data-text=" " xlink:href="#font_2_1" transform="matrix(6.9146,0,0,-6.8478,98.26693,745.7717)" fill="#231f20"/>
<use data-text="c" xlink:href="#font_2_68" transform="matrix(6.9146,0,0,-6.8478,100.189189,745.7717)" fill="#231f20"/>
<use data-text="o" xlink:href="#font_2_80" transform="matrix(6.9146,0,0,-6.8478,104.03371,745.7717)" fill="#231f20"/>
<use data-text="p" xlink:href="#font_2_81" transform="matrix(6.9146,0,0,-6.8478,108.25853,745.7717)" fill="#231f20"/>
<use data-text="y" xlink:href="#font_2_90" transform="matrix(6.9146,0,0,-6.8478,112.37963,745.7717)" fill="#231f20"/>
<use data-text="i" xlink:href="#font_2_74" transform="matrix(6.9146,0,0,-6.8478,116.22415,745.7717)" fill="#231f20"/>
<use data-text="n" xlink:href="#font_2_79" transform="matrix(6.9146,0,0,-6.8478,118.14641,745.7717)" fill="#231f20"/>
<use data-text="g" xlink:href="#font_2_72" transform="matrix(6.9146,0,0,-6.8478,122.37123,745.7717)" fill="#231f20"/>
<use data-text=" " xlink:href="#font_2_1" transform="matrix(6.9146,0,0,-6.8478,126.596057,745.7717)" fill="#231f20"/>
<use data-text="o" xlink:href="#font_2_80" transform="matrix(6.9146,0,0,-6.8478,128.51831,745.7717)" fill="#231f20"/>
<use data-text="r" xlink:href="#font_2_83" transform="matrix(6.9146,0,0,-6.8478,132.74314,745.7717)" fill="#231f20"/>
<use data-text=" " xlink:href="#font_2_1" transform="matrix(6.9146,0,0,-6.8478,135.4329,745.7717)" fill="#231f20"/>
<use data-text="r" xlink:href="#font_2_83" transform="matrix(6.9146,0,0,-6.8478,137.35517,745.7717)" fill="#231f20"/>
<use data-text="e" xlink:href="#font_2_70" transform="matrix(6.9146,0,0,-6.8478,140.04494,745.7717)" fill="#231f20"/>
<use data-text="u" xlink:href="#font_2_86" transform="matrix(6.9146,0,0,-6.8478,143.88945,745.7717)" fill="#231f20"/>
<use data-text="s" xlink:href="#font_2_84" transform="matrix(6.9146,0,0,-6.8478,148.11428,745.7717)" fill="#231f20"/>
<use data-text="e" xlink:href="#font_2_70" transform="matrix(6.9146,0,0,-6.8478,151.95879,745.7717)" fill="#231f20"/>
<use data-text=" " xlink:href="#font_2_1" transform="matrix(6.9146,0,0,-6.8478,155.8033,745.7717)" fill="#231f20"/>
<use data-text="o" xlink:href="#font_2_80" transform="matrix(6.9146,0,0,-6.8478,157.72556,745.7717)" fill="#231f20"/>
<use data-text="f" xlink:href="#font_2_71" transform="matrix(6.9146,0,0,-6.8478,161.95038,745.7717)" fill="#231f20"/>
<use data-text=" " xlink:href="#font_2_1" transform="matrix(6.9146,0,0,-6.8478,164.25295,745.7717)" fill="#231f20"/>
<use data-text="a" xlink:href="#font_2_66" transform="matrix(6.9146,0,0,-6.8478,54.0204,753.1057)" fill="#231f20"/>
<use data-text="n" xlink:href="#font_2_79" transform="matrix(6.9146,0,0,-6.8478,57.864919,753.1057)" fill="#231f20"/>
<use data-text="y" xlink:href="#font_2_90" transform="matrix(6.9146,0,0,-6.8478,61.951448,753.1057)" fill="#231f20"/>
<use data-text=" " xlink:href="#font_2_1" transform="matrix(6.9146,0,0,-6.8478,65.79597,753.1057)" fill="#231f20"/>
<use data-text="p" xlink:href="#font_2_81" transform="matrix(6.9146,0,0,-6.8478,67.71822,753.1057)" fill="#231f20"/>
<use data-text="a" xlink:href="#font_2_66" transform="matrix(6.9146,0,0,-6.8478,71.94305,753.1057)" fill="#231f20"/>
<use data-text="r" xlink:href="#font_2_83" transform="matrix(6.9146,0,0,-6.8478,75.78757,753.1057)" fill="#231f20"/>
<use data-text="t" xlink:href="#font_2_85" transform="matrix(6.9146,0,0,-6.8478,78.61564,753.1057)" fill="#231f20"/>
<use data-text=" " xlink:href="#font_2_1" transform="matrix(6.9146,0,0,-6.8478,80.9182,753.1057)" fill="#231f20"/>
<use data-text="o" xlink:href="#font_2_80" transform="matrix(6.9146,0,0,-6.8478,82.840457,753.1057)" fill="#231f20"/>
<use data-text="f" xlink:href="#font_2_71" transform="matrix(6.9146,0,0,-6.8478,87.06528,753.1057)" fill="#231f20"/>
<use data-text=" " xlink:href="#font_2_1" transform="matrix(6.9146,0,0,-6.8478,89.367839,753.1057)" fill="#231f20"/>
<use data-text="t" xlink:href="#font_2_85" transform="matrix(6.9146,0,0,-6.8478,91.29009,753.1057)" fill="#231f20"/>
<use data-text="h" xlink:href="#font_2_73" transform="matrix(6.9146,0,0,-6.8478,93.59265,753.1057)" fill="#231f20"/>
<use data-text="i" xlink:href="#font_2_74" transform="matrix(6.9146,0,0,-6.8478,97.817478,753.1057)" fill="#231f20"/>
<use data-text="s" xlink:href="#font_2_84" transform="matrix(6.9146,0,0,-6.8478,99.73973,753.1057)" fill="#231f20"/>
<use data-text=" " xlink:href="#font_2_1" transform="matrix(6.9146,0,0,-6.8478,103.58425,753.1057)" fill="#231f20"/>
<use data-text="p" xlink:href="#font_2_81" transform="matrix(6.9146,0,0,-6.8478,105.50651,753.1057)" fill="#231f20"/>
<use data-text="a" xlink:href="#font_2_66" transform="matrix(6.9146,0,0,-6.8478,109.73133,753.1057)" fill="#231f20"/>
<use data-text="g" xlink:href="#font_2_72" transform="matrix(6.9146,0,0,-6.8478,113.50671,753.1057)" fill="#231f20"/>
<use data-text="e" xlink:href="#font_2_70" transform="matrix(6.9146,0,0,-6.8478,117.800678,753.1057)" fill="#231f20"/>
<use data-text=" " xlink:href="#font_2_1" transform="matrix(6.9146,0,0,-6.8478,121.645198,753.1057)" fill="#231f20"/>
<use data-text="i" xlink:href="#font_2_74" transform="matrix(6.9146,0,0,-6.8478,123.56745,753.1057)" fill="#231f20"/>
<use data-text="s" xlink:href="#font_2_84" transform="matrix(6.9146,0,0,-6.8478,125.48971,753.1057)" fill="#231f20"/>
<use data-text=" " xlink:href="#font_2_1" transform="matrix(6.9146,0,0,-6.8478,129.33423,753.1057)" fill="#231f20"/>
<use data-text="i" xlink:href="#font_2_74" transform="matrix(6.9146,0,0,-6.8478,131.25649,753.1057)" fill="#231f20"/>
<use data-text="l" xlink:href="#font_2_77" transform="matrix(6.9146,0,0,-6.8478,133.17874,753.1057)" fill="#231f20"/>
<use data-text="l" xlink:href="#font_2_77" transform="matrix(6.9146,0,0,-6.8478,135.101,753.1057)" fill="#231f20"/>
<use data-text="e" xlink:href="#font_2_70" transform="matrix(6.9146,0,0,-6.8478,137.02326,753.1057)" fill="#231f20"/>
<use data-text="g" xlink:href="#font_2_72" transform="matrix(6.9146,0,0,-6.8478,140.86777,753.1057)" fill="#231f20"/>
<use data-text="a" xlink:href="#font_2_66" transform="matrix(6.9146,0,0,-6.8478,145.09259,753.1057)" fill="#231f20"/>
<use data-text="l" xlink:href="#font_2_77" transform="matrix(6.9146,0,0,-6.8478,148.9371,753.1057)" fill="#231f20"/>
<use data-text="." xlink:href="#font_2_15" transform="matrix(6.9146,0,0,-6.8478,150.85936,753.1057)" fill="#231f20"/>
<path transform="matrix(1.004866,0,0,-.995157,0,783)" stroke-width=".786" stroke-linecap="butt" stroke-miterlimit="4" stroke-linejoin="miter" fill="none" stroke="#231f20" d="M51.593 26.705H165.623V44.85H51.593ZM165.623 26.705Z"/>
<path transform="matrix(1,0,0,-1,0,783)" d="M206.18 728.331H244.28099V761.537H206.18Z" fill="#e5e6e5"/>
<use data-text="1" xlink:href="#font_3_18" transform="matrix(27.2153,0,0,-26.2154,218.4136,48.552186)"/>
<use data-text="1" xlink:href="#font_3_18" transform="matrix(27.2153,0,0,-26.2154,170.62354,48.316225)"/>
<use data-text="1" xlink:href="#font_3_18" transform="matrix(27.2153,0,0,-26.2154,75.36999,48.316225)"/>
<path transform="matrix(1,0,0,-1,0,783)" d="M401.223 728.331H439.324V761.537H401.223Z" fill="#e5e6e5"/>
<path transform="matrix(1,0,0,-1,0,783)" d="M108.205 728.331H146.306V761.537H108.205Z" fill="#e5e6e5"/>
<use data-text="1" xlink:href="#font_3_18" transform="matrix(27.2153,0,0,-26.2154,120.4386,48.552186)"/>
<use data-text="1" xlink:href="#font_3_18" transform="matrix(27.2153,0,0,-26.2154,413.46574,48.945436)"/>
<use data-text="1" xlink:href="#font_3_18" transform="matrix(27.2153,0,0,-26.2154,266.2854,48.316286)"/>
<path transform="matrix(1,0,0,-1,0,783)" d="M498.745 728.331H536.846V761.537H498.745Z" fill="#e5e6e5"/>
<use data-text="1" xlink:href="#font_3_18" transform="matrix(27.2153,0,0,-26.2154,510.9781,48.95453)"/>
<path transform="matrix(1,0,0,-1,0,783)" d="M304.609 728.331H342.71003V761.537H304.609Z" fill="#e5e6e5"/>
<use data-text="1" xlink:href="#font_3_18" transform="matrix(27.2153,0,0,-26.2154,316.8423,48.95453)"/>
<use data-text="1" xlink:href="#font_3_18" transform="matrix(27.2153,0,0,-26.2154,366.72795,48.32538)"/>
<use data-text="1" xlink:href="#font_3_18" transform="matrix(27.2153,0,0,-26.2154,463.79676,48.32538)"/>
<use data-text=" " xlink:href="#font_4_1" transform="matrix(10.9591,0,0,-10.98,537.2999,55.319887)"/>
<use data-text=" " xlink:href="#font_4_1" transform="matrix(10.9591,0,0,-10.98,48.239137,65.15796)"/>
<use data-text=" " xlink:href="#font_2_1" transform="matrix(10.9591,0,0,-10.98,48.239137,745.86306)"/>
<use data-text=" " xlink:href="#font_2_1" transform="matrix(10.9591,0,0,-10.98,264.23863,745.86306)"/>
<use data-text="C" xlink:href="#font_4_36" transform="matrix(10.9591,0,0,-10.98,426.24043,745.86306)"/>
<use data-text="o" xlink:href="#font_4_80" transform="matrix(10.9591,0,0,-10.98,433.57536,745.86306)"/>
<use data-text="n" xlink:href="#font_4_79" transform="matrix(10.9591,0,0,-10.98,439.0801,745.86306)"/>
<use data-text="t" xlink:href="#font_4_85" transform="matrix(10.9591,0,0,-10.98,444.58488,745.86306)"/>
<use data-text="i" xlink:href="#font_4_74" transform="matrix(10.9591,0,0,-10.98,447.6567,745.86306)"/>
<use data-text="n" xlink:href="#font_4_79" transform="matrix(10.9591,0,0,-10.98,450.72856,745.86306)"/>
<use data-text="u" xlink:href="#font_4_86" transform="matrix(10.9591,0,0,-10.98,456.2333,745.86306)"/>
<use data-text="e" xlink:href="#font_4_70" transform="matrix(10.9591,0,0,-10.98,461.73808,745.86306)"/>
<use data-text=" " xlink:href="#font_4_1" transform="matrix(10.9591,0,0,-10.98,466.62913,745.86306)"/>
<use data-text="p" xlink:href="#font_4_81" transform="matrix(10.9591,0,0,-10.98,469.3886,745.86306)"/>
<use data-text="r" xlink:href="#font_4_83" transform="matrix(10.9591,0,0,-10.98,474.89338,745.86306)"/>
<use data-text="o" xlink:href="#font_4_80" transform="matrix(10.9591,0,0,-10.98,478.49125,745.86306)"/>
<use data-text="b" xlink:href="#font_4_67" transform="matrix(10.9591,0,0,-10.98,483.95219,745.86306)"/>
<use data-text="l" xlink:href="#font_4_77" transform="matrix(10.9591,0,0,-10.98,489.4679,745.86306)"/>
<use data-text="e" xlink:href="#font_4_70" transform="matrix(10.9591,0,0,-10.98,492.53974,745.86306)"/>
<use data-text="m" xlink:href="#font_4_78" transform="matrix(10.9591,0,0,-10.98,497.4308,745.86306)"/>
<use data-text=" " xlink:href="#font_4_1" transform="matrix(10.9591,0,0,-10.98,505.98219,745.86306)"/>
<use data-text="1" xlink:href="#font_4_18" transform="matrix(10.9591,0,0,-10.98,508.74168,745.86306)"/>
<use data-text=" " xlink:href="#font_4_1" transform="matrix(10.9591,0,0,-10.98,514.2464,745.86306)"/>
<use data-text="o" xlink:href="#font_4_80" transform="matrix(10.9591,0,0,-10.98,517.00588,745.86306)"/>
<use data-text="n" xlink:href="#font_4_79" transform="matrix(10.9591,0,0,-10.98,522.5106,745.86306)"/>
<use data-text=" " xlink:href="#font_4_1" transform="matrix(10.9591,0,0,-10.98,528.0154,745.86306)"/>
<use data-text="p" xlink:href="#font_4_81" transform="matrix(10.9591,0,0,-10.98,530.77487,745.86306)"/>
<use data-text="a" xlink:href="#font_4_66" transform="matrix(10.9591,0,0,-10.98,536.2796,745.86306)"/>
<use data-text="g" xlink:href="#font_4_72" transform="matrix(10.9591,0,0,-10.98,541.083,745.86306)"/>
<use data-text="e" xlink:href="#font_4_70" transform="matrix(10.9591,0,0,-10.98,546.58779,745.86306)"/>
<use data-text=" " xlink:href="#font_4_1" transform="matrix(10.9591,0,0,-10.98,551.4788,745.86306)"/>
<use data-text="5" xlink:href="#font_4_22" transform="matrix(10.9591,0,0,-10.98,554.2383,745.86306)"/>
<use data-text="." xlink:href="#font_4_15" transform="matrix(10.9591,0,0,-10.98,559.74307,745.86306)"/>
<use data-text=" " xlink:href="#font_4_1" transform="matrix(10.9591,0,0,-10.98,562.508,745.86306)"/>
<use data-text="-" xlink:href="#font_2_14" transform="matrix(10.9591,0,0,-10.98,299.27925,758.8853)"/>
<use data-text="4" xlink:href="#font_2_21" transform="matrix(10.9591,0,0,-10.98,302.94398,758.8853)"/>
<use data-text="-" xlink:href="#font_2_14" transform="matrix(10.9591,0,0,-10.98,309.05259,758.8853)"/>
<use data-text=" " xlink:href="#font_2_1" transform="matrix(10.9591,0,0,-10.98,312.71733,758.8853)"/>
<use data-text=" " xlink:href="#font_3_1" transform="matrix(10.9591,0,0,-10.98,305.99717,77.88379)"/>
<use data-text=" " xlink:href="#font_4_1" transform="matrix(10.9591,0,0,-10.98,48.239137,100.326908)"/>
<use data-text="1" xlink:href="#font_4_18" transform="matrix(10.9591,0,0,-10.98,51.3593,100.326908)"/>
<use data-text="." xlink:href="#font_4_15" transform="matrix(10.9591,0,0,-10.98,56.849809,100.326908)"/>
<use data-text=" " xlink:href="#font_4_1" transform="matrix(10.9591,0,0,-10.98,59.60054,100.326908)"/>
<use data-text="T" xlink:href="#font_4_53" transform="matrix(10.9591,0,0,-10.98,65.53708,100.326908)"/>
<use data-text="h" xlink:href="#font_4_73" transform="matrix(10.9591,0,0,-10.98,72.24405,100.326908)"/>
<use data-text="e" xlink:href="#font_4_70" transform="matrix(10.9591,0,0,-10.98,77.73456,100.326908)"/>
<use data-text=" " xlink:href="#font_4_1" transform="matrix(10.9591,0,0,-10.98,82.61136,100.326908)"/>
<use data-text="c" xlink:href="#font_4_68" transform="matrix(10.9591,0,0,-10.98,85.36977,100.326908)"/>
<use data-text="u" xlink:href="#font_4_86" transform="matrix(10.9591,0,0,-10.98,90.24657,100.326908)"/>
<use data-text="r" xlink:href="#font_4_83" transform="matrix(10.9591,0,0,-10.98,95.737079,100.326908)"/>
<use data-text="v" xlink:href="#font_4_87" transform="matrix(10.9591,0,0,-10.98,99.397418,100.326908)"/>
<use data-text="e" xlink:href="#font_4_70" transform="matrix(10.9591,0,0,-10.98,104.887928,100.326908)"/>
<use data-text=" " xlink:href="#font_4_1" transform="matrix(10.9591,0,0,-10.98,109.764728,100.326908)"/>
<use data-text="C" xlink:href="#font_5_36" transform="matrix(10.9591,0,0,-10.98,114.3522,100.326908)"/>
<use data-text=" " xlink:href="#font_4_1" transform="matrix(10.9591,0,0,-10.98,121.67288,100.326908)"/>
<use data-text="i" xlink:href="#font_4_74" transform="matrix(10.9591,0,0,-10.98,126.23296,100.326908)"/>
<use data-text="n" xlink:href="#font_4_79" transform="matrix(10.9591,0,0,-10.98,129.29604,100.326908)"/>
<use data-text=" " xlink:href="#font_4_1" transform="matrix(10.9591,0,0,-10.98,134.79203,100.326908)"/>
<use data-text="t" xlink:href="#font_4_85" transform="matrix(10.9591,0,0,-10.98,137.55481,100.326908)"/>
<use data-text="h" xlink:href="#font_4_73" transform="matrix(10.9591,0,0,-10.98,140.61788,100.326908)"/>
<use data-text="e" xlink:href="#font_4_70" transform="matrix(10.9591,0,0,-10.98,146.11386,100.326908)"/>
<use data-text=" " xlink:href="#font_4_1" transform="matrix(10.9591,0,0,-10.98,150.99614,100.326908)"/>
<use data-text="x" xlink:href="#font_5_89" transform="matrix(10.9591,0,0,-10.98,153.77208,100.326908)"/>
<use data-text="y" xlink:href="#font_5_90" transform="matrix(10.9591,0,0,-10.98,158.63245,100.326908)"/>
<use data-text="-" xlink:href="#font_4_14" transform="matrix(10.9591,0,0,-10.98,163.49282,100.326908)"/>
<use data-text="p" xlink:href="#font_4_81" transform="matrix(10.9591,0,0,-10.98,167.16083,100.326908)"/>
<use data-text="l" xlink:href="#font_4_77" transform="matrix(10.9591,0,0,-10.98,172.65901,100.326908)"/>
<use data-text="a" xlink:href="#font_4_66" transform="matrix(10.9591,0,0,-10.98,175.72428,100.326908)"/>
<use data-text="n" xlink:href="#font_4_79" transform="matrix(10.9591,0,0,-10.98,180.60875,100.326908)"/>
<use data-text="e" xlink:href="#font_4_70" transform="matrix(10.9591,0,0,-10.98,186.10694,100.326908)"/>
<use data-text=" " xlink:href="#font_4_1" transform="matrix(10.9591,0,0,-10.98,190.99141,100.326908)"/>
<use data-text="i" xlink:href="#font_4_74" transform="matrix(10.9591,0,0,-10.98,193.75092,100.326908)"/>
<use data-text="s" xlink:href="#font_4_84" transform="matrix(10.9591,0,0,-10.98,196.81618,100.326908)"/>
<use data-text=" " xlink:href="#font_4_1" transform="matrix(10.9591,0,0,-10.98,201.0979,100.326908)"/>
<use data-text="g" xlink:href="#font_4_72" transform="matrix(10.9591,0,0,-10.98,203.8574,100.326908)"/>
<use data-text="i" xlink:href="#font_4_74" transform="matrix(10.9591,0,0,-10.98,209.35559,100.326908)"/>
<use data-text="v" xlink:href="#font_4_87" transform="matrix(10.9591,0,0,-10.98,212.42086,100.326908)"/>
<use data-text="e" xlink:href="#font_4_70" transform="matrix(10.9591,0,0,-10.98,217.91904,100.326908)"/>
<use data-text="n" xlink:href="#font_4_79" transform="matrix(10.9591,0,0,-10.98,222.80352,100.326908)"/>
<use data-text=" " xlink:href="#font_4_1" transform="matrix(10.9591,0,0,-10.98,228.3017,100.326908)"/>
<use data-text="p" xlink:href="#font_4_81" transform="matrix(10.9591,0,0,-10.98,231.0612,100.326908)"/>
<use data-text="a" xlink:href="#font_4_66" transform="matrix(10.9591,0,0,-10.98,236.55939,100.326908)"/>
<use data-text="r" xlink:href="#font_4_83" transform="matrix(10.9591,0,0,-10.98,241.44387,100.326908)"/>
<use data-text="a" xlink:href="#font_4_66" transform="matrix(10.9591,0,0,-10.98,245.11188,100.326908)"/>
<use data-text="m" xlink:href="#font_4_78" transform="matrix(10.9591,0,0,-10.98,249.99636,100.326908)"/>
<use data-text="e" xlink:href="#font_4_70" transform="matrix(10.9591,0,0,-10.98,258.54118,100.326908)"/>
<use data-text="t" xlink:href="#font_4_85" transform="matrix(10.9591,0,0,-10.98,263.42564,100.326908)"/>
<use data-text="r" xlink:href="#font_4_83" transform="matrix(10.9591,0,0,-10.98,266.49089,100.326908)"/>
<use data-text="i" xlink:href="#font_4_74" transform="matrix(10.9591,0,0,-10.98,270.15888,100.326908)"/>
<use data-text="c" xlink:href="#font_4_68" transform="matrix(10.9591,0,0,-10.98,273.22413,100.326908)"/>
<use data-text="a" xlink:href="#font_4_66" transform="matrix(10.9591,0,0,-10.98,278.10859,100.326908)"/>
<use data-text="l" xlink:href="#font_4_77" transform="matrix(10.9591,0,0,-10.98,282.99305,100.326908)"/>
<use data-text="l" xlink:href="#font_4_77" transform="matrix(10.9591,0,0,-10.98,286.0583,100.326908)"/>
<use data-text="y" xlink:href="#font_4_90" transform="matrix(10.9591,0,0,-10.98,289.12355,100.326908)"/>
<use data-text=" " xlink:href="#font_4_1" transform="matrix(10.9591,0,0,-10.98,294.6217,100.326908)"/>
<use data-text="b" xlink:href="#font_4_67" transform="matrix(10.9591,0,0,-10.98,297.3812,100.326908)"/>
<use data-text="y" xlink:href="#font_4_90" transform="matrix(10.9591,0,0,-10.98,302.87937,100.326908)"/>
<use data-text=" " xlink:href="#font_4_1" transform="matrix(10.9591,0,0,-10.98,308.37754,100.326908)"/>
<use data-text="(" xlink:href="#font_6_11" transform="matrix(10.8563,0,0,-13.3903,322.44,100.619998)"/>
<use data-text=")" xlink:href="#font_6_12" transform="matrix(10.8563,0,0,-13.3903,330.23484,100.673587)"/>
<use data-text="(" xlink:href="#font_6_11" transform="matrix(10.8563,0,0,-13.3903,345.83534,100.619998)"/>
<use data-text=")" xlink:href="#font_6_12" transform="matrix(10.8563,0,0,-13.3903,353.63017,100.673587)"/>
<use data-text="(" xlink:href="#font_6_11" transform="matrix(10.9216,0,0,-13.6088,312.54,100.73999)"/>
<use data-text=")" xlink:href="#font_6_12" transform="matrix(10.9216,0,0,-13.6088,357.36225,100.79443)"/>
<use data-text="x" xlink:href="#font_5_89" transform="matrix(10.9662,0,0,-10.987,317.0418,100.319889)"/>
<use data-text="t" xlink:href="#font_5_85" transform="matrix(10.9662,0,0,-10.987,326.28193,100.319889)"/>
<use data-text="y" xlink:href="#font_5_90" transform="matrix(10.9662,0,0,-10.987,340.74198,100.319889)"/>
<use data-text="t" xlink:href="#font_5_85" transform="matrix(10.9662,0,0,-10.987,349.686,100.319889)"/>
<use data-text="," xlink:href="#font_4_13" transform="matrix(10.9662,0,0,-10.987,334.5,100.319889)"/>
<use data-text="," xlink:href="#font_4_13" transform="matrix(10.9662,0,0,-10.987,361.6205,100.319889)"/>
<use data-text=" " xlink:href="#font_4_1" transform="matrix(10.9591,0,0,-10.98,366.06,100.319889)"/>
<use data-text="w" xlink:href="#font_4_88" transform="matrix(10.9591,0,0,-10.98,368.8195,100.319889)"/>
<use data-text="h" xlink:href="#font_4_73" transform="matrix(10.9591,0,0,-10.98,376.74073,100.319889)"/>
<use data-text="e" xlink:href="#font_4_70" transform="matrix(10.9591,0,0,-10.98,382.22904,100.319889)"/>
<use data-text="r" xlink:href="#font_4_83" transform="matrix(10.9591,0,0,-10.98,387.10365,100.319889)"/>
<use data-text="e" xlink:href="#font_4_70" transform="matrix(10.9591,0,0,-10.98,390.76179,100.319889)"/>
<use data-text=" " xlink:href="#font_4_1" transform="matrix(10.9591,0,0,-10.98,395.63639,100.319889)"/>
<path transform="matrix(1,0,0,-1,400.44,97.380008)" stroke-width=".53" stroke-linecap="round" stroke-linejoin="round" fill="none" stroke="#000000" d="M0 0H12.48M51.36 0H62.22"/>
<use data-text="(" xlink:href="#font_6_11" transform="matrix(10.8556,0,0,-27.2381,447.54,103.97998)"/>
<use data-text=")" xlink:href="#font_6_12" transform="matrix(10.8556,0,0,-27.2381,463.38053,103.97998)"/>
<use data-text="2" xlink:href="#font_4_19" transform="matrix(10.9868,0,0,-11.0077,452.64,94.380008)"/>
<use data-text="s" xlink:href="#font_4_84" transform="matrix(10.9868,0,0,-11.0077,433.62187,100.32416)"/>
<use data-text="i" xlink:href="#font_4_74" transform="matrix(10.9868,0,0,-11.0077,437.8221,100.32416)"/>
<use data-text="n" xlink:href="#font_4_79" transform="matrix(10.9868,0,0,-11.0077,440.87974,100.32416)"/>
<use data-text="3" xlink:href="#font_4_20" transform="matrix(10.9868,0,0,-11.0077,454.61766,107.347049)"/>
<use data-text="d" xlink:href="#font_5_69" transform="matrix(10.9868,0,0,-11.0077,401.4635,94.39099)"/>
<use data-text="x" xlink:href="#font_5_89" transform="matrix(10.9868,0,0,-11.0077,406.92396,94.39099)"/>
<use data-text="t" xlink:href="#font_5_85" transform="matrix(10.9868,0,0,-11.0077,458.3422,94.39099)"/>
<use data-text="t" xlink:href="#font_5_85" transform="matrix(10.9868,0,0,-11.0077,427.74394,100.335147)"/>
<use data-text="d" xlink:href="#font_5_69" transform="matrix(10.9868,0,0,-11.0077,402.2985,107.35803)"/>
<use data-text="t" xlink:href="#font_5_85" transform="matrix(10.9868,0,0,-11.0077,407.75895,107.35803)"/>
<use data-text="=" xlink:href="#font_6_32" transform="matrix(10.9868,0,0,-11.0077,417.53718,100.335147)"/>
<use data-text=" " xlink:href="#font_4_1" transform="matrix(10.9591,0,0,-10.98,468.48,100.319889)"/>
<use data-text="a" xlink:href="#font_4_66" transform="matrix(10.9591,0,0,-10.98,471.23954,100.319889)"/>
<use data-text="n" xlink:href="#font_4_79" transform="matrix(10.9591,0,0,-10.98,476.13279,100.319889)"/>
<use data-text="d" xlink:href="#font_4_69" transform="matrix(10.9591,0,0,-10.98,481.63975,100.319889)"/>
<use data-text=" " xlink:href="#font_4_1" transform="matrix(10.9591,0,0,-10.98,487.1467,100.319889)"/>
<path transform="matrix(1,0,0,-1,491.88,97.380008)" stroke-width=".53" stroke-linecap="round" stroke-linejoin="round" fill="none" stroke="#000000" d="M0 0H12.24M48.6 0H59.04"/>
<use data-text="2" xlink:href="#font_4_19" transform="matrix(7.9894,0,0,-8.0046,545.16,89.400028)"/>
<use data-text="c" xlink:href="#font_4_68" transform="matrix(10.9854,0,0,-11.0063,518.9999,100.319889)"/>
<use data-text="o" xlink:href="#font_4_80" transform="matrix(10.9854,0,0,-11.0063,523.91256,100.319889)"/>
<use data-text="s" xlink:href="#font_4_84" transform="matrix(10.9854,0,0,-11.0063,529.44039,100.319889)"/>
<use data-text="4" xlink:href="#font_4_21" transform="matrix(10.9854,0,0,-11.0063,543.12387,107.34192)"/>
<use data-text="d" xlink:href="#font_5_69" transform="matrix(10.9854,0,0,-11.0063,492.8986,93.83716)"/>
<use data-text="y" xlink:href="#font_5_90" transform="matrix(10.9854,0,0,-11.0063,498.35835,93.83716)"/>
<use data-text="t" xlink:href="#font_5_85" transform="matrix(10.9854,0,0,-11.0063,541.2014,94.376468)"/>
<use data-text="d" xlink:href="#font_5_69" transform="matrix(10.9854,0,0,-11.0063,493.55775,107.33087)"/>
<use data-text="t" xlink:href="#font_5_85" transform="matrix(10.9854,0,0,-11.0063,499.0779,107.33087)"/>
<use data-text="&#x00ca;" xlink:href="#font_6_200" transform="matrix(10.9854,0,0,-11.0063,534.72006,93.286808)"/>
<use data-text="&#x02c6;" xlink:href="#font_6_216" transform="matrix(10.9854,0,0,-11.0063,551.52,93.286808)"/>
<use data-text="=" xlink:href="#font_6_32" transform="matrix(10.9854,0,0,-11.0063,508.68464,100.30884)"/>
<use data-text="&#x00c1;" xlink:href="#font_6_201" transform="matrix(10.9854,0,0,-11.0063,534.72006,103.852848)"/>
<use data-text="&#x02dc;" xlink:href="#font_6_217" transform="matrix(10.9854,0,0,-11.0063,551.52,103.852848)"/>
<use data-text="&#x00cb;" xlink:href="#font_6_202" transform="matrix(10.9854,0,0,-11.0063,534.72006,108.53052)"/>
<use data-text="&#x00af;" xlink:href="#font_6_218" transform="matrix(10.9854,0,0,-11.0063,551.52,108.53052)"/>
<use data-text=" " xlink:href="#font_4_1" transform="matrix(10.9591,0,0,-10.98,558.9,100.319889)"/>
<use data-text="f" xlink:href="#font_4_71" transform="matrix(10.9591,0,0,-10.98,65.5213,124.25629)"/>
<use data-text="o" xlink:href="#font_4_80" transform="matrix(10.9591,0,0,-10.98,69.189319,124.25629)"/>
<use data-text="r" xlink:href="#font_4_83" transform="matrix(10.9591,0,0,-10.98,74.6875,124.25629)"/>
<use data-text=" " xlink:href="#font_4_1" transform="matrix(10.9591,0,0,-10.98,78.355518,124.25629)"/>
<use data-text="1" xlink:href="#font_4_18" transform="matrix(10.996,0,0,-11.0168,81.9,124.25989)"/>
<use data-text="t" xlink:href="#font_5_85" transform="matrix(10.996,0,0,-11.0168,100.6152,124.25989)"/>
<use data-text="&#x00a3;" xlink:href="#font_6_133" transform="matrix(10.996,0,0,-11.0168,90.53186,124.25989)"/>
<use data-text="&#x00a3;" xlink:href="#font_6_133" transform="matrix(10.996,0,0,-11.0168,108.291507,124.25989)"/>
<use data-text="6" xlink:href="#font_4_23" transform="matrix(10.996,0,0,-11.0168,118.38473,124.25989)"/>
<use data-text="." xlink:href="#font_4_15" transform="matrix(10.996,0,0,-11.0168,123.84974,124.25989)"/>
<use data-text=" " xlink:href="#font_4_1" transform="matrix(10.9591,0,0,-10.98,128.1,124.25989)"/>
<use data-text="(" xlink:href="#font_4_9" transform="matrix(10.9591,0,0,-10.98,66.235889,143.27722)"/>
<use data-text="a" xlink:href="#font_4_66" transform="matrix(10.9591,0,0,-10.98,69.898418,143.27722)"/>
<use data-text=")" xlink:href="#font_4_10" transform="matrix(10.9591,0,0,-10.98,74.777408,143.27722)"/>
<use data-text=" " xlink:href="#font_4_1" transform="matrix(10.9591,0,0,-10.98,78.43993,143.27722)"/>
<use data-text="F" xlink:href="#font_4_39" transform="matrix(10.9591,0,0,-10.98,84.25702,143.27722)"/>
<use data-text="i" xlink:href="#font_4_74" transform="matrix(10.9591,0,0,-10.98,90.363437,143.27722)"/>
<use data-text="n" xlink:href="#font_4_79" transform="matrix(10.9591,0,0,-10.98,93.42322,143.27722)"/>
<use data-text="d" xlink:href="#font_4_69" transform="matrix(10.9591,0,0,-10.98,98.91592,143.27722)"/>
<use data-text=" " xlink:href="#font_4_1" transform="matrix(10.9591,0,0,-10.98,104.408618,143.27722)"/>
<use data-text="t" xlink:href="#font_4_85" transform="matrix(10.9591,0,0,-10.98,107.16812,143.27722)"/>
<use data-text="h" xlink:href="#font_4_73" transform="matrix(10.9591,0,0,-10.98,110.227909,143.27722)"/>
<use data-text="e" xlink:href="#font_4_70" transform="matrix(10.9591,0,0,-10.98,115.720607,143.27722)"/>
<use data-text=" " xlink:href="#font_4_1" transform="matrix(10.9591,0,0,-10.98,120.599597,143.27722)"/>
<use data-text="s" xlink:href="#font_4_84" transform="matrix(10.9591,0,0,-10.98,123.3591,143.27722)"/>
<use data-text="l" xlink:href="#font_4_77" transform="matrix(10.9591,0,0,-10.98,127.63534,143.27722)"/>
<use data-text="o" xlink:href="#font_4_80" transform="matrix(10.9591,0,0,-10.98,130.69512,143.27722)"/>
<use data-text="p" xlink:href="#font_4_81" transform="matrix(10.9591,0,0,-10.98,136.18782,143.27722)"/>
<use data-text="e" xlink:href="#font_4_70" transform="matrix(10.9591,0,0,-10.98,141.68053,143.27722)"/>
<use data-text=" " xlink:href="#font_4_1" transform="matrix(10.9591,0,0,-10.98,146.55953,143.27722)"/>
<use data-text="o" xlink:href="#font_4_80" transform="matrix(10.9591,0,0,-10.98,149.31903,143.27722)"/>
<use data-text="f" xlink:href="#font_4_71" transform="matrix(10.9591,0,0,-10.98,154.81174,143.27722)"/>
<use data-text=" " xlink:href="#font_4_1" transform="matrix(10.9591,0,0,-10.98,158.47428,143.27722)"/>
<use data-text="t" xlink:href="#font_4_85" transform="matrix(10.9591,0,0,-10.98,161.23378,143.27722)"/>
<use data-text="h" xlink:href="#font_4_73" transform="matrix(10.9591,0,0,-10.98,164.29357,143.27722)"/>
<use data-text="e" xlink:href="#font_4_70" transform="matrix(10.9591,0,0,-10.98,169.78627,143.27722)"/>
<use data-text=" " xlink:href="#font_4_1" transform="matrix(10.9591,0,0,-10.98,174.66527,143.27722)"/>
<use data-text="l" xlink:href="#font_4_77" transform="matrix(10.9591,0,0,-10.98,177.42478,143.27722)"/>
<use data-text="i" xlink:href="#font_4_74" transform="matrix(10.9591,0,0,-10.98,180.48456,143.27722)"/>
<use data-text="n" xlink:href="#font_4_79" transform="matrix(10.9591,0,0,-10.98,183.54434,143.27722)"/>
<use data-text="e" xlink:href="#font_4_70" transform="matrix(10.9591,0,0,-10.98,189.03705,143.27722)"/>
<use data-text=" " xlink:href="#font_4_1" transform="matrix(10.9591,0,0,-10.98,193.91605,143.27722)"/>
<use data-text="t" xlink:href="#font_4_85" transform="matrix(10.9591,0,0,-10.98,196.67555,143.27722)"/>
<use data-text="a" xlink:href="#font_4_66" transform="matrix(10.9591,0,0,-10.98,199.73534,143.27722)"/>
<use data-text="n" xlink:href="#font_4_79" transform="matrix(10.9591,0,0,-10.98,204.61434,143.27722)"/>
<use data-text="g" xlink:href="#font_4_72" transform="matrix(10.9591,0,0,-10.98,210.10704,143.27722)"/>
<use data-text="e" xlink:href="#font_4_70" transform="matrix(10.9591,0,0,-10.98,215.59975,143.27722)"/>
<use data-text="n" xlink:href="#font_4_79" transform="matrix(10.9591,0,0,-10.98,220.47875,143.27722)"/>
<use data-text="t" xlink:href="#font_4_85" transform="matrix(10.9591,0,0,-10.98,225.97145,143.27722)"/>
<use data-text=" " xlink:href="#font_4_1" transform="matrix(10.9591,0,0,-10.98,229.03124,143.27722)"/>
<use data-text="t" xlink:href="#font_4_85" transform="matrix(10.9591,0,0,-10.98,231.79074,143.27722)"/>
<use data-text="o" xlink:href="#font_4_80" transform="matrix(10.9591,0,0,-10.98,234.85053,143.27722)"/>
<use data-text=" " xlink:href="#font_4_1" transform="matrix(10.9591,0,0,-10.98,240.34323,143.27722)"/>
<use data-text="t" xlink:href="#font_4_85" transform="matrix(10.9591,0,0,-10.98,243.10274,143.27722)"/>
<use data-text="h" xlink:href="#font_4_73" transform="matrix(10.9591,0,0,-10.98,246.16252,143.27722)"/>
<use data-text="e" xlink:href="#font_4_70" transform="matrix(10.9591,0,0,-10.98,251.65523,143.27722)"/>
<use data-text=" " xlink:href="#font_4_1" transform="matrix(10.9591,0,0,-10.98,256.5342,143.27722)"/>
<use data-text="c" xlink:href="#font_4_68" transform="matrix(10.9591,0,0,-10.98,259.2389,143.27722)"/>
<use data-text="u" xlink:href="#font_4_86" transform="matrix(10.9591,0,0,-10.98,264.1179,143.27722)"/>
<use data-text="r" xlink:href="#font_4_83" transform="matrix(10.9591,0,0,-10.98,269.6106,143.27722)"/>
<use data-text="v" xlink:href="#font_4_87" transform="matrix(10.9591,0,0,-10.98,273.27314,143.27722)"/>
<use data-text="e" xlink:href="#font_4_70" transform="matrix(10.9591,0,0,-10.98,278.76585,143.27722)"/>
<use data-text=" " xlink:href="#font_4_1" transform="matrix(10.9591,0,0,-10.98,283.64485,143.27722)"/>
<use data-text="C" xlink:href="#font_5_36" transform="matrix(10.9591,0,0,-10.98,288.23439,143.27722)"/>
<use data-text=" " xlink:href="#font_4_1" transform="matrix(10.9591,0,0,-10.98,295.55506,143.27722)"/>
<use data-text="a" xlink:href="#font_4_66" transform="matrix(10.9591,0,0,-10.98,300.11189,143.27722)"/>
<use data-text="t" xlink:href="#font_4_85" transform="matrix(10.9591,0,0,-10.98,304.99198,143.27722)"/>
<use data-text=" " xlink:href="#font_4_1" transform="matrix(10.9591,0,0,-10.98,308.05287,143.27722)"/>
<use data-text="t" xlink:href="#font_4_85" transform="matrix(10.9591,0,0,-10.98,310.81239,143.27722)"/>
<use data-text="h" xlink:href="#font_4_73" transform="matrix(10.9591,0,0,-10.98,313.87327,143.27722)"/>
<use data-text="e" xlink:href="#font_4_70" transform="matrix(10.9591,0,0,-10.98,319.36708,143.27722)"/>
<use data-text=" " xlink:href="#font_4_1" transform="matrix(10.9591,0,0,-10.98,324.24717,143.27722)"/>
<use data-text="p" xlink:href="#font_4_81" transform="matrix(10.9591,0,0,-10.98,327.00669,143.27722)"/>
<use data-text="o" xlink:href="#font_4_80" transform="matrix(10.9591,0,0,-10.98,332.5005,143.27722)"/>
<use data-text="i" xlink:href="#font_4_74" transform="matrix(10.9591,0,0,-10.98,337.9943,143.27722)"/>
<use data-text="n" xlink:href="#font_4_79" transform="matrix(10.9591,0,0,-10.98,341.05519,143.27722)"/>
<use data-text="t" xlink:href="#font_4_85" transform="matrix(10.9591,0,0,-10.98,346.54899,143.27722)"/>
<use data-text=" " xlink:href="#font_4_1" transform="matrix(10.9591,0,0,-10.98,349.60987,143.27722)"/>
<use data-text="w" xlink:href="#font_4_88" transform="matrix(10.9591,0,0,-10.98,352.3694,143.27722)"/>
<use data-text="h" xlink:href="#font_4_73" transform="matrix(10.9591,0,0,-10.98,360.2961,143.27722)"/>
<use data-text="e" xlink:href="#font_4_70" transform="matrix(10.9591,0,0,-10.98,365.78993,143.27722)"/>
<use data-text="r" xlink:href="#font_4_83" transform="matrix(10.9591,0,0,-10.98,370.67,143.27722)"/>
<use data-text="e" xlink:href="#font_4_70" transform="matrix(10.9591,0,0,-10.98,374.33366,143.27722)"/>
<use data-text=" " xlink:href="#font_4_1" transform="matrix(10.9591,0,0,-10.98,379.21376,143.27722)"/>
<use data-text="3" xlink:href="#font_4_20" transform="matrix(10.996,0,0,-11.0168,401.52,143.28003)"/>
<use data-text="t" xlink:href="#font_5_85" transform="matrix(10.996,0,0,-11.0168,383.6405,143.28003)"/>
<use data-text="=" xlink:href="#font_6_32" transform="matrix(10.996,0,0,-11.0168,391.43669,143.28003)"/>
<use data-text="." xlink:href="#font_4_15" transform="matrix(10.996,0,0,-11.0168,407.04,143.28003)"/>
<use data-text=" " xlink:href="#font_4_1" transform="matrix(10.9591,0,0,-10.98,412.02,143.28003)"/>
<use data-text="(" xlink:href="#font_4_9" transform="matrix(10.9591,0,0,-10.98,66.238468,432.2297)"/>
<use data-text="b" xlink:href="#font_4_67" transform="matrix(10.9591,0,0,-10.98,69.90867,432.2297)"/>
<use data-text=")" xlink:href="#font_4_10" transform="matrix(10.9591,0,0,-10.98,75.40904,432.2297)"/>
<use data-text=" " xlink:href="#font_4_1" transform="matrix(10.9591,0,0,-10.98,79.07925,432.2297)"/>
<use data-text="F" xlink:href="#font_4_39" transform="matrix(10.9591,0,0,-10.98,84.23879,432.2297)"/>
<use data-text="o" xlink:href="#font_4_80" transform="matrix(10.9591,0,0,-10.98,90.352878,432.2297)"/>
<use data-text="r" xlink:href="#font_4_83" transform="matrix(10.9591,0,0,-10.98,95.85325,432.2297)"/>
<use data-text=" " xlink:href="#font_4_1" transform="matrix(10.9591,0,0,-10.98,99.52345,432.2297)"/>
<use data-text="1" xlink:href="#font_4_18" transform="matrix(10.9634,0,0,-10.9842,103.02,432.24)"/>
<use data-text="&#x00a3;" xlink:href="#font_6_133" transform="matrix(10.9634,0,0,-10.9842,111.67012,432.24)"/>
<use data-text="t" xlink:href="#font_5_85" transform="matrix(10.9634,0,0,-10.9842,121.74548,432.24)"/>
<use data-text="&#x00a3;" xlink:href="#font_6_133" transform="matrix(10.9634,0,0,-10.9842,129.43083,432.24)"/>
<use data-text="6" xlink:href="#font_4_23" transform="matrix(10.9634,0,0,-10.9842,139.49524,432.24)"/>
<use data-text="," xlink:href="#font_4_13" transform="matrix(10.9634,0,0,-10.9842,144.76863,432.24)"/>
<use data-text=" " xlink:href="#font_4_1" transform="matrix(10.9591,0,0,-10.98,149.22,432.24)"/>
<use data-text="w" xlink:href="#font_4_88" transform="matrix(10.9591,0,0,-10.98,151.9795,432.24)"/>
<use data-text="h" xlink:href="#font_4_73" transform="matrix(10.9591,0,0,-10.98,159.90514,432.24)"/>
<use data-text="a" xlink:href="#font_4_66" transform="matrix(10.9591,0,0,-10.98,165.39785,432.24)"/>
<use data-text="t" xlink:href="#font_4_85" transform="matrix(10.9591,0,0,-10.98,170.27684,432.24)"/>
<use data-text=" " xlink:href="#font_4_1" transform="matrix(10.9591,0,0,-10.98,173.33663,432.24)"/>
<use data-text="i" xlink:href="#font_4_74" transform="matrix(10.9591,0,0,-10.98,176.09613,432.24)"/>
<use data-text="s" xlink:href="#font_4_84" transform="matrix(10.9591,0,0,-10.98,179.15592,432.24)"/>
<use data-text=" " xlink:href="#font_4_1" transform="matrix(10.9591,0,0,-10.98,183.43216,432.24)"/>
<use data-text="t" xlink:href="#font_4_85" transform="matrix(10.9591,0,0,-10.98,186.19167,432.24)"/>
<use data-text="h" xlink:href="#font_4_73" transform="matrix(10.9591,0,0,-10.98,189.30625,432.24)"/>
<use data-text="e" xlink:href="#font_4_70" transform="matrix(10.9591,0,0,-10.98,194.82086,432.24)"/>
<use data-text=" " xlink:href="#font_4_1" transform="matrix(10.9591,0,0,-10.98,199.69986,432.24)"/>
<use data-text="v" xlink:href="#font_4_87" transform="matrix(10.9591,0,0,-10.98,202.45937,432.24)"/>
<use data-text="a" xlink:href="#font_4_66" transform="matrix(10.9591,0,0,-10.98,207.95207,432.24)"/>
<use data-text="l" xlink:href="#font_4_77" transform="matrix(10.9591,0,0,-10.98,212.83107,432.24)"/>
<use data-text="u" xlink:href="#font_4_86" transform="matrix(10.9591,0,0,-10.98,215.89086,432.24)"/>
<use data-text="e" xlink:href="#font_4_70" transform="matrix(10.9591,0,0,-10.98,221.38356,432.24)"/>
<use data-text=" " xlink:href="#font_4_1" transform="matrix(10.9591,0,0,-10.98,226.26256,432.24)"/>
<use data-text="o" xlink:href="#font_4_80" transform="matrix(10.9591,0,0,-10.98,229.02207,432.24)"/>
<use data-text="f" xlink:href="#font_4_71" transform="matrix(10.9591,0,0,-10.98,234.51477,432.24)"/>
<use data-text=" " xlink:href="#font_4_1" transform="matrix(10.9591,0,0,-10.98,238.1773,432.24)"/>
<use data-text="t" xlink:href="#font_5_85" transform="matrix(10.9591,0,0,-10.98,242.75592,432.24)"/>
<use data-text=" " xlink:href="#font_4_1" transform="matrix(10.9591,0,0,-10.98,245.8135,432.24)"/>
<use data-text="a" xlink:href="#font_4_66" transform="matrix(10.9591,0,0,-10.98,250.3155,432.24)"/>
<use data-text="t" xlink:href="#font_4_85" transform="matrix(10.9591,0,0,-10.98,255.19559,432.24)"/>
<use data-text=" " xlink:href="#font_4_1" transform="matrix(10.9591,0,0,-10.98,258.25648,432.24)"/>
<use data-text="w" xlink:href="#font_4_88" transform="matrix(10.9591,0,0,-10.98,261.016,432.24)"/>
<use data-text="h" xlink:href="#font_4_73" transform="matrix(10.9591,0,0,-10.98,268.94273,432.24)"/>
<use data-text="i" xlink:href="#font_4_74" transform="matrix(10.9591,0,0,-10.98,274.43653,432.24)"/>
<use data-text="c" xlink:href="#font_4_68" transform="matrix(10.9591,0,0,-10.98,277.4974,432.24)"/>
<use data-text="h" xlink:href="#font_4_73" transform="matrix(10.9591,0,0,-10.98,282.3775,432.24)"/>
<use data-text=" " xlink:href="#font_4_1" transform="matrix(10.9591,0,0,-10.98,287.8713,432.24)"/>
<use data-text="t" xlink:href="#font_4_85" transform="matrix(10.9591,0,0,-10.98,290.63084,432.24)"/>
<use data-text="h" xlink:href="#font_4_73" transform="matrix(10.9591,0,0,-10.98,293.6917,432.24)"/>
<use data-text="e" xlink:href="#font_4_70" transform="matrix(10.9591,0,0,-10.98,299.18553,432.24)"/>
<use data-text=" " xlink:href="#font_4_1" transform="matrix(10.9591,0,0,-10.98,304.0656,432.24)"/>
<use data-text="l" xlink:href="#font_4_77" transform="matrix(10.9591,0,0,-10.98,306.82514,432.24)"/>
<use data-text="i" xlink:href="#font_4_74" transform="matrix(10.9591,0,0,-10.98,309.88603,432.24)"/>
<use data-text="n" xlink:href="#font_4_79" transform="matrix(10.9591,0,0,-10.98,312.9469,432.24)"/>
<use data-text="e" xlink:href="#font_4_70" transform="matrix(10.9591,0,0,-10.98,318.4407,432.24)"/>
<use data-text=" " xlink:href="#font_4_1" transform="matrix(10.9591,0,0,-10.98,323.3208,432.24)"/>
<use data-text="t" xlink:href="#font_4_85" transform="matrix(10.9591,0,0,-10.98,326.08033,432.24)"/>
<use data-text="a" xlink:href="#font_4_66" transform="matrix(10.9591,0,0,-10.98,329.1412,432.24)"/>
<use data-text="n" xlink:href="#font_4_79" transform="matrix(10.9591,0,0,-10.98,334.0213,432.24)"/>
<use data-text="g" xlink:href="#font_4_72" transform="matrix(10.9591,0,0,-10.98,339.5151,432.24)"/>
<use data-text="e" xlink:href="#font_4_70" transform="matrix(10.9591,0,0,-10.98,345.0089,432.24)"/>
<use data-text="n" xlink:href="#font_4_79" transform="matrix(10.9591,0,0,-10.98,349.889,432.24)"/>
<use data-text="t" xlink:href="#font_4_85" transform="matrix(10.9591,0,0,-10.98,355.3828,432.24)"/>
<use data-text=" " xlink:href="#font_4_1" transform="matrix(10.9591,0,0,-10.98,358.4437,432.24)"/>
<use data-text="t" xlink:href="#font_4_85" transform="matrix(10.9591,0,0,-10.98,361.20323,432.24)"/>
<use data-text="o" xlink:href="#font_4_80" transform="matrix(10.9591,0,0,-10.98,364.2641,432.24)"/>
<use data-text=" " xlink:href="#font_4_1" transform="matrix(10.9591,0,0,-10.98,369.7579,432.24)"/>
<use data-text="t" xlink:href="#font_4_85" transform="matrix(10.9591,0,0,-10.98,372.51744,432.24)"/>
<use data-text="h" xlink:href="#font_4_73" transform="matrix(10.9591,0,0,-10.98,375.5783,432.24)"/>
<use data-text="e" xlink:href="#font_4_70" transform="matrix(10.9591,0,0,-10.98,381.0721,432.24)"/>
<use data-text=" " xlink:href="#font_4_1" transform="matrix(10.9591,0,0,-10.98,385.9522,432.24)"/>
<use data-text="c" xlink:href="#font_4_68" transform="matrix(10.9591,0,0,-10.98,388.71174,432.24)"/>
<use data-text="u" xlink:href="#font_4_86" transform="matrix(10.9591,0,0,-10.98,393.59184,432.24)"/>
<use data-text="r" xlink:href="#font_4_83" transform="matrix(10.9591,0,0,-10.98,399.08564,432.24)"/>
<use data-text="v" xlink:href="#font_4_87" transform="matrix(10.9591,0,0,-10.98,402.74928,432.24)"/>
<use data-text="e" xlink:href="#font_4_70" transform="matrix(10.9591,0,0,-10.98,408.24308,432.24)"/>
<use data-text=" " xlink:href="#font_4_1" transform="matrix(10.9591,0,0,-10.98,413.12318,432.24)"/>
<use data-text="C" xlink:href="#font_5_36" transform="matrix(10.9591,0,0,-10.98,417.71797,432.24)"/>
<use data-text=" " xlink:href="#font_4_1" transform="matrix(10.9591,0,0,-10.98,425.03865,432.24)"/>
<use data-text="i" xlink:href="#font_4_74" transform="matrix(10.9591,0,0,-10.98,429.5987,432.24)"/>
<use data-text="s" xlink:href="#font_4_84" transform="matrix(10.9591,0,0,-10.98,432.65299,432.24)"/>
<use data-text=" " xlink:href="#font_4_1" transform="matrix(10.9591,0,0,-10.98,436.92375,432.24)"/>
<use data-text="v" xlink:href="#font_4_87" transform="matrix(10.9591,0,0,-10.98,439.6865,432.24)"/>
<use data-text="e" xlink:href="#font_4_70" transform="matrix(10.9591,0,0,-10.98,445.1737,432.24)"/>
<use data-text="r" xlink:href="#font_4_83" transform="matrix(10.9591,0,0,-10.98,450.0472,432.24)"/>
<use data-text="t" xlink:href="#font_4_85" transform="matrix(10.9591,0,0,-10.98,453.70426,432.24)"/>
<use data-text="i" xlink:href="#font_4_74" transform="matrix(10.9591,0,0,-10.98,456.75856,432.24)"/>
<use data-text="c" xlink:href="#font_4_68" transform="matrix(10.9591,0,0,-10.98,459.81285,432.24)"/>
<use data-text="a" xlink:href="#font_4_66" transform="matrix(10.9591,0,0,-10.98,464.68635,432.24)"/>
<use data-text="l" xlink:href="#font_4_77" transform="matrix(10.9591,0,0,-10.98,469.55986,432.24)"/>
<use data-text="?" xlink:href="#font_4_32" transform="matrix(10.9591,0,0,-10.98,472.61415,432.24)"/>
<use data-text=" " xlink:href="#font_4_1" transform="matrix(10.9591,0,0,-10.98,477.48765,432.24)"/>
<use data-text=" " xlink:href="#font_4_1" transform="matrix(10.9591,0,0,-10.98,48.24286,452.1577)"/>
<use data-text=" " xlink:href="#font_4_1" transform="matrix(10.9591,0,0,-10.98,48.24286,464.45533)"/>
<use data-text=" " xlink:href="#font_4_1" transform="matrix(10.9591,0,0,-10.98,48.24286,476.69804)"/>
<use data-text="D" xlink:href="#font_4_37" transform="matrix(0,-10.9591,-10.98,-0,22.74,458.76)"/>
<use data-text="o" xlink:href="#font_4_80" transform="matrix(0,-10.9591,-10.98,-0,22.74,450.82673)"/>
<use data-text=" " xlink:href="#font_4_1" transform="matrix(0,-10.9591,-10.98,-0,22.74,445.32637)"/>
<use data-text="n" xlink:href="#font_4_79" transform="matrix(0,-10.9591,-10.98,-0,22.74,442.56687)"/>
<use data-text="o" xlink:href="#font_4_80" transform="matrix(0,-10.9591,-10.98,-0,22.74,437.0665)"/>
<use data-text="t" xlink:href="#font_4_85" transform="matrix(0,-10.9591,-10.98,-0,22.74,431.56614)"/>
<use data-text=" " xlink:href="#font_4_1" transform="matrix(0,-10.9591,-10.98,-0,22.74,428.4987)"/>
<use data-text="w" xlink:href="#font_4_88" transform="matrix(0,-10.9591,-10.98,-0,22.74,425.7392)"/>
<use data-text="r" xlink:href="#font_4_83" transform="matrix(0,-10.9591,-10.98,-0,22.74,417.8059)"/>
<use data-text="i" xlink:href="#font_4_74" transform="matrix(0,-10.9591,-10.98,-0,22.74,414.1357)"/>
<use data-text="t" xlink:href="#font_4_85" transform="matrix(0,-10.9591,-10.98,-0,22.74,411.06828)"/>
<use data-text="e" xlink:href="#font_4_70" transform="matrix(0,-10.9591,-10.98,-0,22.74,408.00083)"/>
<use data-text=" " xlink:href="#font_4_1" transform="matrix(0,-10.9591,-10.98,-0,22.74,403.11418)"/>
<use data-text="b" xlink:href="#font_4_67" transform="matrix(0,-10.9591,-10.98,-0,22.74,400.35469)"/>
<use data-text="e" xlink:href="#font_4_70" transform="matrix(0,-10.9591,-10.98,-0,22.74,394.8543)"/>
<use data-text="y" xlink:href="#font_4_90" transform="matrix(0,-10.9591,-10.98,-0,22.74,389.96766)"/>
<use data-text="o" xlink:href="#font_4_80" transform="matrix(0,-10.9591,-10.98,-0,22.74,384.4673)"/>
<use data-text="n" xlink:href="#font_4_79" transform="matrix(0,-10.9591,-10.98,-0,22.74,378.96693)"/>
<use data-text="d" xlink:href="#font_4_69" transform="matrix(0,-10.9591,-10.98,-0,22.74,373.46656)"/>
<use data-text=" " xlink:href="#font_4_1" transform="matrix(0,-10.9591,-10.98,-0,22.74,367.9662)"/>
<use data-text="t" xlink:href="#font_4_85" transform="matrix(0,-10.9591,-10.98,-0,22.74,365.2067)"/>
<use data-text="h" xlink:href="#font_4_73" transform="matrix(0,-10.9591,-10.98,-0,22.74,362.20503)"/>
<use data-text="i" xlink:href="#font_4_74" transform="matrix(0,-10.9591,-10.98,-0,22.74,356.68275)"/>
<use data-text="s" xlink:href="#font_4_84" transform="matrix(0,-10.9591,-10.98,-0,22.74,353.6153)"/>
<use data-text=" " xlink:href="#font_4_1" transform="matrix(0,-10.9591,-10.98,-0,22.74,349.3314)"/>
<use data-text="b" xlink:href="#font_4_67" transform="matrix(0,-10.9591,-10.98,-0,22.74,346.5719)"/>
<use data-text="o" xlink:href="#font_4_80" transform="matrix(0,-10.9591,-10.98,-0,22.74,341.11537)"/>
<use data-text="r" xlink:href="#font_4_83" transform="matrix(0,-10.9591,-10.98,-0,22.74,335.59309)"/>
<use data-text="d" xlink:href="#font_4_69" transform="matrix(0,-10.9591,-10.98,-0,22.74,331.92289)"/>
<use data-text="e" xlink:href="#font_4_70" transform="matrix(0,-10.9591,-10.98,-0,22.74,326.42253)"/>
<use data-text="r" xlink:href="#font_4_83" transform="matrix(0,-10.9591,-10.98,-0,22.74,321.53587)"/>
<use data-text="." xlink:href="#font_4_15" transform="matrix(0,-10.9591,-10.98,-0,22.74,317.86567)"/>
<use data-text=" " xlink:href="#font_4_1" transform="matrix(0,-10.9591,-10.98,-0,22.74,315.10508)"/>
<use data-text="D" xlink:href="#font_4_37" transform="matrix(0,10.9591,10.98,0,589.2599,315.18)"/>
<use data-text="o" xlink:href="#font_4_80" transform="matrix(0,10.9591,10.98,0,589.2599,323.11329)"/>
<use data-text=" " xlink:href="#font_4_1" transform="matrix(0,10.9591,10.98,0,589.2599,328.61366)"/>
<use data-text="n" xlink:href="#font_4_79" transform="matrix(0,10.9591,10.98,0,589.2599,331.37315)"/>
<use data-text="o" xlink:href="#font_4_80" transform="matrix(0,10.9591,10.98,0,589.2599,336.8735)"/>
<use data-text="t" xlink:href="#font_4_85" transform="matrix(0,10.9591,10.98,0,589.2599,342.37388)"/>
<use data-text=" " xlink:href="#font_4_1" transform="matrix(0,10.9591,10.98,0,589.2599,345.4413)"/>
<use data-text="w" xlink:href="#font_4_88" transform="matrix(0,10.9591,10.98,0,589.2599,348.2008)"/>
<use data-text="r" xlink:href="#font_4_83" transform="matrix(0,10.9591,10.98,0,589.2599,356.1341)"/>
<use data-text="i" xlink:href="#font_4_74" transform="matrix(0,10.9591,10.98,0,589.2599,359.8043)"/>
<use data-text="t" xlink:href="#font_4_85" transform="matrix(0,10.9591,10.98,0,589.2599,362.87174)"/>
<use data-text="e" xlink:href="#font_4_70" transform="matrix(0,10.9591,10.98,0,589.2599,365.93919)"/>
<use data-text=" " xlink:href="#font_4_1" transform="matrix(0,10.9591,10.98,0,589.2599,370.82585)"/>
<use data-text="b" xlink:href="#font_4_67" transform="matrix(0,10.9591,10.98,0,589.2599,373.58534)"/>
<use data-text="e" xlink:href="#font_4_70" transform="matrix(0,10.9591,10.98,0,589.2599,379.0857)"/>
<use data-text="y" xlink:href="#font_4_90" transform="matrix(0,10.9591,10.98,0,589.2599,383.97236)"/>
<use data-text="o" xlink:href="#font_4_80" transform="matrix(0,10.9591,10.98,0,589.2599,389.47273)"/>
<use data-text="n" xlink:href="#font_4_79" transform="matrix(0,10.9591,10.98,0,589.2599,394.97309)"/>
<use data-text="d" xlink:href="#font_4_69" transform="matrix(0,10.9591,10.98,0,589.2599,400.47346)"/>
<use data-text=" " xlink:href="#font_4_1" transform="matrix(0,10.9591,10.98,0,589.2599,405.97383)"/>
<use data-text="t" xlink:href="#font_4_85" transform="matrix(0,10.9591,10.98,0,589.2599,408.7333)"/>
<use data-text="h" xlink:href="#font_4_73" transform="matrix(0,10.9591,10.98,0,589.2599,411.735)"/>
<use data-text="i" xlink:href="#font_4_74" transform="matrix(0,10.9591,10.98,0,589.2599,417.25727)"/>
<use data-text="s" xlink:href="#font_4_84" transform="matrix(0,10.9591,10.98,0,589.2599,420.3247)"/>
<use data-text=" " xlink:href="#font_4_1" transform="matrix(0,10.9591,10.98,0,589.2599,424.6086)"/>
<use data-text="b" xlink:href="#font_4_67" transform="matrix(0,10.9591,10.98,0,589.2599,427.3681)"/>
<use data-text="o" xlink:href="#font_4_80" transform="matrix(0,10.9591,10.98,0,589.2599,432.82466)"/>
<use data-text="r" xlink:href="#font_4_83" transform="matrix(0,10.9591,10.98,0,589.2599,438.34693)"/>
<use data-text="d" xlink:href="#font_4_69" transform="matrix(0,10.9591,10.98,0,589.2599,442.01713)"/>
<use data-text="e" xlink:href="#font_4_70" transform="matrix(0,10.9591,10.98,0,589.2599,447.5175)"/>
<use data-text="r" xlink:href="#font_4_83" transform="matrix(0,10.9591,10.98,0,589.2599,452.40415)"/>
<use data-text="." xlink:href="#font_4_15" transform="matrix(0,10.9591,10.98,0,589.2599,456.07435)"/>
<use data-text=" " xlink:href="#font_4_1" transform="matrix(0,10.9591,10.98,0,589.2599,458.83494)"/>
<path transform="matrix(1,0,0,-1,52.74,411.48)" stroke-width="1.26" stroke-linecap="butt" stroke-linejoin="round" fill="none" stroke="#000000" d="M0 0H509.58"/>
<path transform="matrix(1,0,0,-1,0,783)" d="M27.78 715.38H28.26V715.86H27.78Z"/>
<path transform="matrix(1,0,0,-1,0,783)" d="M27.78 715.38H584.22006V715.86H27.78Z"/>
<path transform="matrix(1,0,0,-1,0,783)" d="M583.74 715.38H584.22V715.86H583.74Z"/>
<path transform="matrix(1,0,0,-1,0,783)" d="M27.78 50.4H28.26V715.38H27.78Z"/>
<path transform="matrix(1,0,0,-1,0,783)" d="M583.74 50.4H584.22V715.38H583.74Z"/>
<path transform="matrix(1,0,0,-1,0,783)" d="M27.78 49.92H28.26V50.399999H27.78Z"/>
<path transform="matrix(1,0,0,-1,0,783)" d="M27.78 49.92H584.22006V50.399999H27.78Z"/>
<path transform="matrix(1,0,0,-1,0,783)" d="M583.74 49.92H584.22V50.399999H583.74Z"/>
</g>
</svg>
