<svg xmlns="http://www.w3.org/2000/svg" xmlns:xlink="http://www.w3.org/1999/xlink" xmlns:inkscape="http://www.inkscape.org/namespaces/inkscape" version="1.1" width="603.3599853515625pt" height="477.253662109375pt" viewBox="0.0 270.746337890625 603.3599853515625 477.253662109375">
<defs>
<clipPath id="clip_1">
<path transform="matrix(1,0,0,-1,0,783)" d="M0 9H603.36V783H0Z" clip-rule="evenodd"/>
</clipPath>
<path id="font_2_1" d="M0 0Z"/>
<path id="font_3_34" d="M.68899539 .024993897C.6409912 .022994996 .625 .057037355 .5799866 .16419983L.35699464 .6904297H.32899476L.10699463 .14216614C.07699585 .06706238 .06298828 .03300476 .008987427 .024993897V0H.21199036V.024993897C.17799378 .026992798 .12998963 .02999878 .12998963 .0680542 .12998963 .08407593 .1459961 .12515259 .17399597 .19726563H.39898683C.41299439 .16520691 .44499208 .09109497 .44499208 .0640564 .44499208 .03100586 .4269867 .02999878 .36499024 .024993897V0H.68899539V.024993897M.18899536 .23625183 .2829895 .4793396 .38398744 .23625183H.18899536Z"/>
<path id="font_3_1" d="M0 0Z"/>
<path id="font_4_54" d="M.651001 .71777346H.49798585V.24528504C.49798585 .15838623 .45599366 .108444217 .35299684 .108444217 .2829895 .108444217 .22499085 .15238953 .22499085 .25227357V.71777346H.07199097V.24229431C.07398987 .17036438 .08898926 .11242676 .12799073 .06843567 .19198609-.0025634766 .2899933-.018554688 .35598756-.018554688 .5369873-.018554688 .651001 .062438966 .651001 .25128175V.71777346Z"/>
<path id="font_4_79" d="M.54599 .36790467C.54599 .4848938 .46499635 .54589846 .36099244 .54589846 .2599945 .54589846 .21998596 .48588563 .20098877 .45388795H.19898987V.53222659H.06498718V0H.20498657V.30514527C.20498657 .38589479 .25299073 .42788697 .31498719 .42788697 .4039917 .42788697 .4059906 .36190797 .4059906 .32292176V0H.54599V.36790467Z"/>
<path id="font_4_66" d="M.49598695 .39190675C.49598695 .5228882 .35899354 .54589846 .28399659 .54589846 .1749878 .54589846 .06199646 .5228882 .04598999 .35990907H.18099976C.18499756 .39089967 .19699097 .43388368 .2669983 .43388368 .30299378 .43388368 .35899354 .43089295 .35899354 .37190248 .35899354 .34191896 .33198548 .33291627 .30999757 .32991029L.18399048 .3109131C.09498596 .29792787 .0289917 .24493408 .0289917 .1409607 .0289917 .031326295 .11099243-.013671875 .19099427-.013671875 .28599549-.013671875 .33099366 .030319214 .36299134 .063323978 .3659973 .032989503 .36799623 .024993897 .37599183 0H.5269928V.020996094C.5099945 .026992798 .49598695 .040985109 .49598695 .10397339V.39190675M.35899354 .19094849C.35899354 .12626648 .29599 .08631897 .23399353 .08631897 .20698548 .08631897 .16899109 .1013031 .16899109 .15023804 .16899109 .20817566 .21199036 .22116089 .2639923 .23014832 .32199098 .23913574 .34498597 .24812317 .35899354 .2591095V.19094849Z"/>
<path id="font_4_86" d="M.54499819 .53222659H.40499879V.22529602C.40499879 .13031006 .34298707 .10432434 .29699708 .10432434 .2539978 .10432434 .20599365 .12031555 .20599365 .20230103V.53222659H.06599426V.18229676C.06599426 .046325685 .14199829-.013671875 .24699402-.013671875 .32099916-.013671875 .3769989 .018325806 .40899659 .07531738H.41099549V0H.54499819V.53222659Z"/>
<path id="font_4_85" d="M.22200012 .67622378H.08198547V.53222659H.009994507V.43222047H.08198547V.10913086C.08198547 .040130617 .10398865-.005859375 .22499085-.005859375H.24299622C.2649994-.005859375 .2869873-.0048675539 .30899049-.0038604737V.102127078C.29899598 .101135257 .2889862 .100128177 .27999879 .100128177 .22299195 .100128177 .22200012 .11213684 .22200012 .1431427V.43222047H.30899049V.53222659H.22200012V.67622378Z"/>
<path id="font_4_73" d="M.54599 .36790467C.54599 .4848938 .46499635 .54589846 .36099244 .54589846 .2849884 .54589846 .22499085 .506897 .20698548 .46289063H.20498657V.71777346H.06498718V0H.20498657V.30491639C.20498657 .38589479 .25299073 .42788697 .31498719 .42788697 .4039917 .42788697 .4059906 .36190797 .4059906 .32292176V0H.54599V.36790467Z"/>
<path id="font_4_80" d="M.5779877 .26611329C.5779877 .45788575 .44898988 .54589846 .30599977 .54589846 .16299439 .54589846 .033996583 .45788575 .033996583 .26611329 .033996583 .07432556 .16299439-.013671875 .30599977-.013671875 .44898988-.013671875 .5779877 .07432556 .5779877 .26611329M.43399049 .26611329C.43399049 .19819641 .4139862 .10432434 .30599977 .10432434 .19799805 .10432434 .17799378 .19819641 .17799378 .26611329 .17799378 .3340149 .19799805 .42788697 .30599977 .42788697 .4139862 .42788697 .43399049 .3340149 .43399049 .26611329Z"/>
<path id="font_4_83" d="M.06399536 0H.20399475V.27719117C.20399475 .33624269 .22399903 .40429688 .33299256 .40429688 .34599305 .40429688 .36099244 .40429688 .37298585 .4022827V.54389956C.3639984 .54489138 .35499574 .54589846 .34599305 .54589846 .26098634 .54589846 .22898865 .4940338 .19999695 .44018556H.19799805V.53222659H.06399536V0Z"/>
<path id="font_4_74" d="M.068984989 .53222659V0H.20899964V.53222659H.068984989M.20899964 .7246094H.068984989V.5946045H.20899964V.7246094Z"/>
<path id="font_4_91" d="M.46998597 .41722108V.53222659H.038986207V.4202118H.29299928L.019989014 .10899353V0H.47999574V.114990238H.20098877L.46998597 .41722108Z"/>
<path id="font_4_70" d="M.37799073 .1563263C.36698915 .11831665 .32699586 .09832764 .28799439 .09832764 .1749878 .09832764 .16699219 .18832398 .16299439 .22833252H.5279999V.25332643C.5279999 .4958954 .3829956 .54589846 .27799989 .54589846 .04499817 .54589846 .022994996 .34124757 .022994996 .2773285 .022994996 .05831909 .13798523-.013671875 .28799439-.013671875 .3789978-.013671875 .4850006 .028320313 .5219879 .1563263H.37799073M.16699219 .31933595C.1749878 .38905335 .20999146 .43089295 .27598573 .43089295 .32099916 .43089295 .37599183 .40499879 .38398744 .31933595H.16699219Z"/>
<path id="font_4_69" d="M.5509949 .71777346H.41099549V.46289063H.40899659C.3869934 .4968872 .34498597 .54589846 .25498963 .54589846 .13798523 .54589846 .033996583 .45588685 .033996583 .27209474 .033996583 .12628174 .099990848-.013671875 .2579956-.013671875 .31599427-.013671875 .37799073 .0073242189 .4119873 .06732178H.4139862V0H.5509949V.71777346M.17799378 .26210023C.17799378 .34599305 .20799256 .42489625 .29699708 .42489625 .3929901 .42489625 .4169922 .33900453 .4169922 .25411988 .4169922 .17521668 .38198854 .10131836 .29299928 .10131836 .20298767 .10131836 .17799378 .19918823 .17799378 .26210023Z"/>
<path id="font_4_1" d="M0 0Z"/>
<path id="font_4_68" d="M.3809967 .19419861C.3809967 .16923523 .35699464 .10131836 .28599549 .10131836 .17999268 .10131836 .17799378 .21617127 .17799378 .27409364 .17799378 .3400116 .20098877 .42788697 .2889862 .42788697 .35398866 .43188478 .37599183 .37695313 .38198854 .3420105H.5239868C.5109863 .5078888 .37298585 .54589846 .2889862 .54589846 .10899353 .54589846 .033996583 .42289735 .033996583 .25112916 .033996583 .13926697 .07998657-.013671875 .27999879-.013671875 .47499085-.013671875 .5179901 .13926697 .522995 .19419861H.3809967Z"/>
<path id="font_4_81" d="M.19599915 .25411988C.19599915 .33900453 .21899414 .42489625 .31498719 .42489625 .4039917 .42489625 .43399049 .34599305 .43399049 .26210023 .43399049 .19918823 .40899659 .10131836 .31900025 .10131836 .22999573 .10131836 .19599915 .17521668 .19599915 .25411988M.19599915 .53222659H.06199646V-.20703125H.20199585V.0683136H.20399475C.22099304 .0393219 .2559967-.013671875 .35398866-.013671875 .5119934-.013671875 .5779877 .12631226 .5779877 .27226258 .5779877 .45588685 .47399903 .54589846 .35699464 .54589846 .2630005 .54589846 .22399903 .4968872 .19799805 .45489503H.19599915V.53222659Z"/>
<path id="font_4_90" d="M.5389862 .53222659H.3909912L.28199769 .14016724H.27999879L.1659851 .53222659H.009994507L.20599365-.021865845C.19299317-.09487915 .16499329-.101867679 .11399841-.101867679 .101989749-.101867679 .09298706-.100875858 .08699036-.099868778V-.21186829C.10699463-.21287537 .1309967-.21386719 .1499939-.21386719 .27198792-.21386719 .2899933-.18788147 .35598756 .009140015L.5389862 .53222659Z"/>
<path id="font_4_72" d="M.4189911 .53222659V.45289613H.4169922C.3999939 .48788453 .3600006 .54589846 .26098634 .54589846 .14399719 .54589846 .039993287 .45588685 .039993287 .27197267 .039993287 .08605957 .14099121-.0029296876 .2689972-.0029296876 .35299684-.0029296876 .3880005 .03605652 .41099549 .077056888L.41299439 .07505798V.011062622C.41299439-.07484436 .3769989-.110809329 .3019867-.110809329 .22099304-.110809329 .20999146-.08383179 .20399475-.056869508H.051986696C.057998659-.1697998 .17399597-.21679688 .28399659-.21679688 .54599-.21679688 .5529938-.06385803 .5529938 .028060914V.53222659H.4189911M.18399048 .26313783C.18399048 .3869171 .24198914 .42489625 .2939911 .42489625 .37199403 .42489625 .4139862 .3549347 .4139862 .26898194 .4139862 .1960144 .3899994 .11506653 .29499818 .11506653 .21199036 .11506653 .18399048 .19509888 .18399048 .26313783Z"/>
<path id="font_4_84" d="M.5029907 .37002564C.49198915 .51989749 .36799623 .54589846 .2639923 .54589846 .09799194 .54589846 .04899597 .44589234 .04899597 .36802674 .04899597 .1691742 .3789978 .23609925 .3789978 .1472168 .3789978 .1272583 .3619995 .092315677 .2899933 .092315677 .20199585 .092315677 .17399597 .1252594 .17399597 .17016602H.02999878C.033996583 .028320313 .16499329-.013671875 .28599549-.013671875 .36898805-.013671875 .5189972 .014328003 .5189972 .1691742 .5189972 .365036 .18598938 .3040924 .18598938 .38798524 .18598938 .4109497 .19599915 .43989564 .27198792 .43989564 .34799195 .43989564 .3600006 .40396119 .3659973 .37002564H.5029907Z"/>
<path id="font_4_71" d="M.22698975 .43222047H.31799317V.53222659H.22698975V.55303958C.22698975 .5966797 .22799683 .611557 .27598573 .611557H.31498719V.72454836C.30299378 .7255554 .28399659 .7265625 .24299622 .7265625 .14698792 .7265625 .08699036 .68455508 .08699036 .5748596V.53222659H.009994507V.43222047H.08699036V0H.22698975V.43222047Z"/>
<path id="font_4_77" d="M.20899964 .71777346H.068984989V0H.20899964V.71777346Z"/>
<path id="font_4_15" d="M.21398926 .1459961H.06399536V0H.21398926V.1459961Z"/>
<path id="font_4_40" d="M.41299439 .26660157H.5799866C.548996 .1214447 .43899537 .108444217 .4059906 .108444217 .3039856 .108444217 .19699097 .15948487 .19699097 .35559083 .19699097 .5393982 .29599 .6132965 .40299989 .6132965 .5089874 .6132965 .55999758 .52342227 .55999758 .49545289H.70999148C.70199587 .59432986 .61499026 .7373047 .394989 .7373047 .15299988 .7382965 .04399109 .55337527 .04399109 .35758973 .04399109 .10543823 .20098877-.018554688 .37399293-.018554688 .5049896-.018554688 .55999758 .046432496 .59799197 .09043884L.61299136 0H.71299746V.3875885H.41299439V.26660157Z"/>
<path id="font_4_48" d="M.04399109 .359375C.04399109 .02243042 .2939911-.018554688 .3889923-.018554688 .48399354-.018554688 .73399356 .02243042 .73399356 .359375 .73399356 .6963043 .48399354 .7373047 .3889923 .7373047 .2939911 .7373047 .04399109 .6963043 .04399109 .359375M.19400025 .359375C.19400025 .560318 .30799867 .6102905 .3889923 .6102905 .46998597 .6102905 .58399966 .560318 .58399966 .359375 .58399966 .15841675 .46998597 .108444217 .3889923 .108444217 .30799867 .108444217 .19400025 .15841675 .19400025 .359375Z"/>
<path id="font_4_47" d="M.5139923 .21792603H.5119934L.22698975 .71777346H.068984989V0H.20899964V.5118408H.21099854L.5039978 0H.6539917V.71777346H.5139923V.21792603Z"/>
<path id="font_4_53" d="M.3809967 .5907593H.59799197V.71777346H.01399231V.5907593H.23098755V0H.3809967V.5907593Z"/>
<path id="font_4_41" d="M.5009918 .32226563V0H.651001V.71777346H.5009918V.44625855H.22099304V.71777346H.070999149V0H.22099304V.32226563H.5009918Z"/>
<path id="font_4_38" d="M.60398867 .71777346H.07598877V0H.62098696V.1269989H.22299195V.3125H.57299807V.4394989H.22299195V.5907593H.60398867V.71777346Z"/>
<path id="font_4_57" d="M.4189911 .37287904 .6380005 .71777346H.46499635L.33399964 .48583985 .20599365 .71777346H.026992798L.24598694 .36688233 .01399231 0H.18899536L.33399964 .24491883 .46998597 0H.6529999L.4189911 .37287904Z"/>
<path id="font_4_49" d="M.22599793 .25880433H.397995C.59098818 .25880433 .6269989 .42279054 .6269989 .4877777 .6269989 .6287689 .54299929 .71777346 .4039917 .71777346H.07598877V0H.22599793V.25880433M.22599793 .3828125V.59376528H.34498597C.43798829 .59376528 .47698976 .56477358 .47698976 .4947815 .47698976 .4627838 .47698976 .3828125 .36499024 .3828125H.22599793Z"/>
<path id="font_4_34" d="M.22799683 .1474762H.49299623L.5389862 0H.70199587L.44898988 .71777346H.27598573L.019989014 0H.17799378L.22799683 .1474762M.3600006 .55566409H.3619995L.45098878 .27148438H.2679901L.3600006 .55566409Z"/>
<path id="font_4_14" d="M.30599977 .34483338H.026992798V.21484375H.30599977V.34483338Z"/>
<path id="font_4_22" d="M.19898987 .5802307H.48799134V.6982422H.09799194L.04899597 .3085022 .17399597 .30249024C.20098877 .35250855 .24899292 .35351563 .2679901 .35351563 .34199525 .35351563 .37199403 .28948976 .37199403 .22647095 .37199403 .15045166 .33299256 .093444827 .2659912 .093444827 .20399475 .093444827 .17298889 .13244629 .16699219 .1904602H.026992798C.033996583 .047439577 .14698792-.018554688 .2579956-.018554688 .46699525-.018554688 .5159912 .13945008 .5159912 .23648072 .5159912 .39950563 .3959961 .46551515 .30099488 .46551515 .23199463 .46551515 .19999695 .44450379 .17399597 .42651368L.19898987 .5802307Z"/>
<path id="font_2_20" d="M.15299988 .33003236C.22200012 .33203126 .24699402 .32704164 .2829895 .3080597 .34700013 .27508546 .35899354 .20115662 .35899354 .17617798 .35899354 .101242069 .31799317 .022323609 .22499085 .022323609 .1659851 .022323609 .12799073 .07826233 .08198547 .07826233 .06599426 .07826233 .042999269 .0712738 .042999269 .043304445 .042999269-.008682251 .12998963-.013671875 .1539917-.013671875 .31098939-.013671875 .43099977 .074279788 .43099977 .21614075 .43099977 .34802247 .34599305 .38298036 .3039856 .40097047 .36999513 .44392396 .39698792 .4868927 .39698792 .5408478 .39698792 .58180239 .36999513 .67578127 .24099732 .67578127 .17399597 .67578127 .084991458 .6447754 .04499817 .51387026L.05999756 .50987246C.07499695 .5378418 .116989139 .61576846 .20799256 .61576846 .28199769 .61576846 .31799317 .56282046 .31799317 .51187136 .31799317 .4199524 .24299622 .37199403 .1519928 .34301759L.15299988 .33003236Z"/>
<path id="font_2_15" d="M.125-.0107421879C.1459961-.0107421879 .18099976 .0062561037 .18099976 .04324341 .18099976 .07424927 .15499878 .100250247 .125 .100250247 .09498596 .100250247 .069992069 .07525635 .069992069 .04324341 .069992069 .0052490236 .10398865-.0107421879 .125-.0107421879Z"/>
<path id="font_2_36" d="M.6199951 .450943 .61099246 .67578127H.58999636C.58200076 .6427765 .548996 .6427765 .5439911 .6427765 .5219879 .6427765 .45700074 .67578127 .36799623 .67578127 .19599915 .67578127 .027999878 .5548401 .027999878 .3310547 .027999878 .08227539 .20098877-.013671875 .3619995-.013671875 .54599-.013671875 .6319885 .11125183 .6329956 .11325073L.61499026 .13122559C.58399966 .101257327 .5119934 .030319214 .3889923 .030319214 .2630005 .030319214 .14399719 .117248538 .14399719 .3290558 .14399719 .47291566 .18798828 .53686526 .22698975 .5748291 .2689972 .6157837 .32699586 .6357727 .3769989 .6357727 .5 .6357727 .57199099 .55584719 .5970001 .450943H.6199951Z"/>
<path id="font_2_80" d="M.24499512 .45996095C.11099243 .45996095 .0289917 .35101319 .0289917 .22808838 .0289917 .093170169 .11898804-.009765625 .24798584-.009765625 .3999939-.009765625 .46998597 .12915039 .46998597 .22808838 .46998597 .3730011 .37599183 .45996095 .24499512 .45996095M.2619934 .018234253C.14199829 .018234253 .11898804 .20210266 .11898804 .276062 .11898804 .37998963 .17399597 .4319458 .23699951 .4319458 .32899476 .4319458 .37998963 .32302857 .37998963 .19911194 .37998963 .05619812 .31298829 .018234253 .2619934 .018234253Z"/>
<path id="font_2_79" d="M.07998657 .08998108C.07998657 .0309906 .06498718 .017990113 .017990113 .01499939V0H.22999573V.01499939C.17799378 .017990113 .1639862 .033996583 .1639862 .066986087V.34796144C.20199585 .38494874 .23298645 .404953 .2630005 .404953 .32199098 .404953 .33999635 .36895753 .33999635 .30796815V.098983768C.33999635 .022994996 .31399537 .017990113 .2769928 .01499939V0H.4850006V.01499939C.43598939 .018997193 .42399598 .033996583 .42399598 .08097839V.30996705C.42399598 .43295289 .35299684 .45996095 .30699159 .45996095 .24798584 .45996095 .20999146 .42495729 .16099549 .37895204V.45794679L.1539917 .45996095C.10798645 .44303895 .06098938 .4280243 .015991211 .41503907V.3980255C.019989014 .40003968 .0309906 .40203858 .04499817 .40203858 .06098938 .40203858 .07998657 .4010315 .07998657 .33802796V.08998108Z"/>
<path id="font_2_84" d="M.31498719 .31404115 .31098939 .45117188H.2999878C.29699708 .44696046 .2919922 .43995667 .2829895 .43995667 .2659912 .43995667 .23498535 .45996095 .19099427 .45996095 .09399414 .45996095 .050994874 .39398194 .050994874 .3380127 .050994874 .2640686 .10598755 .22709656 .16799927 .19210816L.22599793 .15913391C.2579956 .1411438 .27799989 .11715698 .27799989 .08517456 .27799989 .028213501 .23098755 .01222229 .19699097 .01222229 .09899902 .01222229 .07998657 .09916687 .067993167 .15213013H.051986696V-.00390625H.06498718C.070999149 .0052337648 .07499695 .008224487 .08699036 .008224487 .114990238 .009231567 .1579895-.009765625 .20298767-.009765625 .2669983-.009765625 .34799195 .032211305 .34799195 .119155887 .34799195 .17912293 .31298829 .20710755 .2639923 .2370758L.1559906 .30104066C.11898804 .32302857 .11299133 .352005 .11299133 .37199403 .11299133 .39797975 .13398743 .43695069 .18899536 .43695069 .23298645 .43695069 .27799989 .41596986 .2999878 .31404115H.31498719Z"/>
<path id="font_2_74" d="M.015991211 0H.25299073V.01499939C.18399048 .018997193 .1789856 .036010744 .1789856 .10205078V.4569702L.1749878 .45996095C.12298584 .4410553 .07199097 .42216493 .019989014 .40527345V.3902588C.032989503 .3922577 .04598999 .39427186 .05999756 .39427186 .07598877 .39427186 .09498596 .39326478 .09498596 .33422853V.10205078C.09498596 .024002076 .07798767 .017990113 .015991211 .01499939V0M.07798767 .63160708C.07798767 .61260989 .09199524 .5806122 .12799073 .5806122 .1579895 .5806122 .17999268 .60261538 .17999268 .63160708 .17999268 .65960696 .1579895 .6826172 .12799073 .6826172 .09298706 .6826172 .07798767 .65060427 .07798767 .63160708Z"/>
<path id="font_2_69" d="M.33999635 .10218811C.33198548 .066207889 .29299928 .04222107 .25099183 .04222107 .18499756 .04222107 .11299133 .09819031 .11299133 .24708557 .11299133 .3829956 .18099976 .4319458 .23699951 .4319458 .28399659 .4319458 .33299256 .39997865 .33999635 .33203126V.10218811M.4909973 .0579834C.42399598 .052978517 .42399598 .07298279 .42399598 .113983158V.6806183L.4189911 .6826172C.37098695 .66563418 .32199098 .65164187 .27198792 .6386719V.6226654C.27999879 .6236572 .2899933 .6236572 .29599 .6236572 .33999635 .6236572 .33999635 .6027069 .33999635 .5727539V.41696168C.30699159 .44595338 .2769928 .45996095 .23399353 .45996095 .12199402 .45996095 .026992798 .34501649 .026992798 .21411133 .026992798 .010223389 .16999817-.009765625 .20899964-.009765625 .2829895-.009765625 .31999208 .02722168 .33799745 .054214479H.33999635V-.0067749025L.34399415-.009765625C.39698792 .008987427 .44299317 .024978638 .4909973 .041992189V.0579834Z"/>
<path id="font_2_70" d="M.4079895 .16427613C.3849945 .1272583 .34199525 .05921936 .25299073 .05921936 .18699646 .05921936 .10598755 .100250247 .09399414 .27734376H.40499879C.3939972 .40800477 .32299806 .45996095 .22898865 .45996095 .14898682 .45996095 .024993897 .3990326 .024993897 .21430969 .024993897 .07223511 .100997928-.009765625 .21199036-.009765625 .35598756-.009765625 .4139862 .12626648 .42399598 .15727234L.4079895 .16427613M.09700012 .30934144C.11299133 .39704896 .1519928 .4239502 .20698548 .4239502 .28599549 .4239502 .29599 .35717774 .30299378 .30934144H.09700012Z"/>
<path id="font_2_83" d="M.07598877 .083984378C.07598877 .02798462 .05999756 .024993897 .004989624 .01499939V0H.24499512V.01499939C.19400025 .016998291 .1599884 .020996094 .1599884 .08998108V.31495667C.1599884 .34695436 .20399475 .3969574 .22799683 .3969574 .2519989 .3969574 .2619934 .36195375 .29699708 .36195375 .32099916 .36195375 .33499146 .38095094 .33499146 .40596009 .33499146 .43894959 .31498719 .45996095 .2809906 .45996095 .24299622 .45996095 .20899964 .43995667 .1619873 .36895753H.1599884V.45794679L.15499878 .45996095C.10598755 .44024659 .055999757 .4222412 .0069885256 .40625V.39024354C.015991211 .39224244 .026992798 .39424134 .040985109 .39424134 .056991579 .39424134 .07598877 .39323426 .07598877 .334198V.083984378Z"/>
<path id="font_2_85" d="M.25498963 .4501953H.1539917V.5661926C.1539917 .57418826 .1539917 .5791931 .14698792 .5791931 .10998535 .5261841 .09498596 .5041809 .056991579 .4651947 .034988405 .44319154 .0129852299 .43719483 .0129852299 .42518617 .0129852299 .42218019 .01499939 .41918946 .016998291 .41818238H.069992069V.11721802C.069992069 .017227173 .11099243-.009765625 .1619873-.009765625 .20799256-.009765625 .25498963 .023223877 .2789917 .066223148L.2659912 .07722473C.25498963 .06422424 .23699951 .04222107 .20498657 .04222107 .1539917 .04222107 .1539917 .10122681 .1539917 .1322174V.41818238H.25498963V.4501953Z"/>
<path id="font_2_73" d="M.4869995 .01499939C.43699647 .023986817 .4269867 .0289917 .4269867 .101989749V.30096437C.4269867 .34095765 .42599488 .45996095 .30299378 .45996095 .24299622 .45996095 .19400025 .427948 .15899658 .3779602H.15699768V.6796112L.1519928 .6826172C.10398865 .66563418 .054992677 .65164187 .009994507 .6386719V.6226654C.0129852299 .6236572 .022994996 .6236572 .0289917 .6236572 .07299805 .6236572 .07299805 .6027069 .07299805 .5727539V.101989749C.07299805 .0289917 .06298828 .021987915 .008987427 .01499939V0H.22499085V.01499939C.17599488 .019989014 .15699768 .024993897 .15699768 .101989749V.34295655C.19799805 .3909607 .23699951 .40596009 .2659912 .40596009 .32099916 .40596009 .34298707 .36695863 .34298707 .29995729V.101989749C.34298707 .024993897 .32398988 .019989014 .2749939 .01499939V0H.4869995V.01499939Z"/>
<path id="font_2_18" d="M.117996219 0H.3939972V.01499939C.31900025 .01499939 .29899598 .025985718 .29899598 .07397461V.67378237L.29100038 .67578127 .11099243 .58480837V.57081606C.16699219 .59280398 .16699219 .59280398 .1789856 .59280398 .21299744 .59280398 .21299744 .56681826 .21299744 .54582217V.0929718C.21299744 .018997193 .17599488 .016998291 .117996219 .01499939V0Z"/>
<path id="font_5_79" d="M.45999146 .117248538C.4229889 .07022095 .397995 .038208009 .37799073 .038208009 .37599183 .038208009 .3619995 .04020691 .3619995 .0552063 .3619995 .08508301 .44198609 .33233644 .44198609 .37538148 .44198609 .41740418 .4189911 .44140626 .37298585 .44140626 .2899933 .44140626 .19799805 .30230714 .15098572 .22822571L.14898682 .23023987 .21299744 .4393921 .20999146 .44140626C.1559906 .43052674 .101989749 .42051698 .04798889 .41052247V.39453126C.101989749 .39453126 .11199951 .3835144 .11199951 .3684845 .11199951 .3474579 .04499817 .11314392 .01399231 0H.08898926C.12998963 .13616944 .14299011 .17922974 .18899536 .24832154 .22499085 .30430604 .28799439 .39039613 .33599855 .39039613 .35499574 .39039613 .36099244 .37638856 .36099244 .35836793 .36099244 .31835938 .2869873 .07421875 .2869873 .050216676 .2869873 .021209717 .2889862-.0087890629 .33499146-.0087890629 .3889923-.0087890629 .42399598 .037200929 .47399903 .10423279L.45999146 .117248538Z"/>
<path id="font_5_66" d="M.46398927 .11026001C.4189911 .0662384 .39898683 .041229249 .38398744 .041229249 .37599183 .041229249 .36999513 .047225954 .36999513 .054229738 .36999513 .085250858 .46199037 .4263916 .46499635 .43840028L.45799256 .44140626 .39698792 .43440248 .3939972 .43139649 .38398744 .38739015H.38198854C.3789978 .41539 .34599305 .44140626 .30299378 .44140626 .16999817 .44140626 .016998291 .2543335 .016998291 .107284549 .016998291 .07826233 .019989014-.0107421879 .11999512-.0107421879 .17999268-.0107421879 .23298645 .019256592 .31599427 .14129639L.31799317 .13928223C.3019867 .07824707 .29699708 .056228639 .29699708 .033233644 .29699708 .016220093 .29699708-.009765625 .33898927-.009765625 .38198854-.009765625 .41600038 .026229859 .47599793 .100250247L.46398927 .11026001M.100997928 .10928345C.100997928 .1993103 .19099427 .41940309 .30799867 .41940309 .33699037 .41940309 .36499024 .40039063 .36499024 .35237123 .36499024 .2543335 .2669983 .038253786 .16099549 .038253786 .13398743 .038253786 .100997928 .056259157 .100997928 .10928345Z"/>
<path id="font_6_32" d="M.53700259 .38964845V.3350067H.011001587V.38964845H.53700259M.53700259 .19599915V.140625H.011001587V.19599915H.53700259Z"/>
<path id="font_6_135" d="M.3570099 .29699708C.41033427 .34513346 .45333354 .3765564 .4860077 .39126588 .5060069 .39995323 .52633669 .40429688 .5469971 .40429688 .5829976 .40429688 .61466476 .39211528 .6419983 .36775209 .66933187 .34339906 .68466696 .3138682 .68800356 .27915956 .69200137 .23979187 .68000289 .20375569 .65200808 .17105103 .6220093 .13635254 .5850067 .1210022 .54100039 .125 .4976654 .1289978 .45700074 .14532979 .41900636 .17399597 .39833579 .19266255 .3776703 .21166484 .3570099 .23100281 .33633933 .21166484 .31566874 .19266255 .29499818 .17399597 .25700379 .14532979 .21633911 .1289978 .17300415 .125 .1289978 .1210022 .09199524 .13635254 .06199646 .17105103 .034001668 .20375569 .022003174 .23979187 .026000977 .27915956 .029337565 .3138682 .04467265 .34339906 .072006229 .36775209 .099339809 .39211528 .13100688 .40429688 .16700745 .40429688 .18766785 .40429688 .20799764 .39995323 .22799683 .39126588 .260671 .3765564 .30367533 .34513346 .3570099 .29699708M.32400514 .26400758C.27067057 .30867515 .23100281 .335673 .20500183 .34500123 .19166565 .3496704 .17866516 .352005 .16600037 .352005 .13800557 .352005 .11534119 .34100343 .0980072 .31900025 .08266703 .30033366 .07533264 .28033448 .07600403 .2590027 .076675418 .2343343 .0863444 .21366374 .10501099 .19699097 .123677577 .18032837 .14533997 .17199707 .16999817 .17199707 .17733257 .17199707 .18466695 .17299907 .19200135 .17500305 .21800232 .18099468 .2396698 .19032796 .25700379 .20300293 .26767478 .21099854 .29000855 .23133342 .32400514 .26400758M.3899994 .26400758C.42399598 .23133342 .44632975 .21099854 .45700074 .20300293 .47433473 .19032796 .4960022 .18099468 .5220032 .17500305 .5293376 .17299907 .53667196 .17199707 .54400637 .17199707 .56866458 .17199707 .59032699 .18032837 .60899356 .19699097 .6276601 .21366374 .6373291 .2343343 .6380005 .2590027 .6386719 .28033448 .63133749 .30033366 .6159973 .31900025 .59866335 .34100343 .57599899 .352005 .54800418 .352005 .53533938 .352005 .52233889 .3496704 .5090027 .34500123 .4830017 .335673 .44333396 .30867515 .3899994 .26400758Z"/>
<path id="font_6_199" d="M.6170044 .7451172 .6230011 .58599856H.6029968C.58967086 .6293335 .5776723 .65633139 .56700137 .6669922 .54566958 .68899539 .5066681 .69999697 .44999696 .69999697H.18699646L.4600067 .34199525 .16600037 .0030059815H.53700259C.57500717 .0030059815 .603007 .0106709799 .6210022 .026000977 .6370036 .03999837 .65400698 .069997157 .6720123 .115997318H.6950073C.68167117 .061238607 .67300418 .023839316 .66900637 .0037994385 .66367599-.022242228 .6580098-.05964152 .65200808-.10839844 .6046753-.10079956 .57901-.09700012 .5750122-.09700012H.072006229C.06534322-.09700012 .055674238-.09749857 .042999269-.09849548 .030334473-.09950256 .020670573-.1000061 .014007568-.1000061L.3630066 .29797364 .01600647 .7519531C.095342 .7473958 .13000997 .7451172 .120010379 .7451172H.6170044Z"/>
<path id="font_2_42" d="M.017990113 0H.31498719V.018997193C.24099732 .020996094 .21699524 .0309906 .21699524 .10900879V.5530853C.21699524 .6331024 .24198914 .6401062 .31498719 .6430969V.6621094H.017990113V.6430969C.100997928 .6390991 .114990238 .6271057 .114990238 .5530853V.10900879C.114990238 .037994386 .102996829 .020996094 .017990113 .018997193V0Z"/>
<path id="font_2_71" d="M.30899049 .4501953H.18598938V.56585696C.18598938 .6027527 .19099427 .65460208 .24598694 .65460208 .29299928 .65460208 .2979889 .5798187 .33999635 .5798187 .3600006 .5798187 .3829956 .5927887 .3829956 .6217041 .3829956 .65560916 .33898927 .6826172 .2829895 .6826172 .102996829 .6826172 .102996829 .5060272 .102996829 .4501953H.020996094V.41818238H.102996829V.104034427C.102996829 .026992798 .085998538 .017990113 .019989014 .01499939V0H.27999879V.01499939C.18798828 .016998291 .18699646 .042999269 .18699646 .104034427V.41818238H.30899049V.4501953Z"/>
<path id="font_2_23" d="M.44599916 .68359377C.20399475 .6755829 .033996583 .49375917 .033996583 .2909546 .033996583 .08123779 .13598633-.013671875 .2539978-.013671875 .43199159-.013671875 .46798707 .1451416 .46798707 .2180481 .46798707 .35186769 .3899994 .42782594 .28399659 .42782594 .22799683 .42782594 .20698548 .41583253 .1519928 .38282777 .17098999 .5047455 .269989 .6396179 .44799806 .6675873L.44599916 .68359377M.24198914 .38183595C.34799195 .38183595 .37799073 .28196717 .37799073 .1790924 .37799073 .06625366 .33198548 .014328003 .2689972 .014328003 .19400025 .014328003 .1269989 .08822632 .1269989 .2559967 .1269989 .31591798 .13699341 .33988954 .14698792 .34986878 .17199707 .37384034 .20799256 .38183595 .24198914 .38183595Z"/>
<path id="font_2_66" d="M.2869873 .1230011C.2869873 .09309387 .28399659 .08113098 .25299073 .06617737 .24398804 .061187746 .21299744 .048217775 .19099427 .048217775 .1539917 .048217775 .125 .07913208 .125 .12599182V.12799073C.125 .1618805 .13598633 .21772766 .2869873 .26757813V.1230011M.44198609 .06617737C.43099977 .05718994 .41799928 .047225954 .39698792 .047225954 .36799623 .047225954 .36799623 .07614136 .36799623 .10505676V.29963685C.36799623 .359787 .36799623 .45996095 .21899414 .45996095 .102996829 .45996095 .055999757 .38883973 .055999757 .34875489 .055999757 .3327179 .067993167 .30465699 .09899902 .30465699 .125 .30465699 .14399719 .32670594 .14399719 .3477478 .14399719 .356781 .13899231 .3718109 .13899231 .38684083 .13899231 .4179077 .1769867 .43595887 .20999146 .43595887 .23999024 .43595887 .2869873 .42492677 .2869873 .35276795V.29162599C.12399292 .22769165 .036987306 .19378662 .036987306 .09408569 .036987306 .02722168 .08898926-.009765625 .14299011-.009765625 .19799805-.009765625 .25099183 .030227662 .28799439 .063186649 .29299928-.008773804 .33499146-.009765625 .35299684-.009765625 .36898805-.009765625 .3999939-.008773804 .44198609 .040222169V.06617737Z"/>
<path id="font_2_19" d="M.47499085 .13696289 .46199037 .14196778C.4229889 .07899475 .4039917 .07598877 .36698915 .07598877H.12799073L.29599 .2519226C.33999635 .29890443 .42399598 .38986207 .42399598 .4958191 .42399598 .6077728 .33399964 .67578127 .24299622 .67578127 .15499878 .67578127 .06098938 .6277771 .0309906 .4768219L.051986696 .47183229C.07398987 .5258026 .10398865 .6017761 .19499207 .6017761 .31298829 .6017761 .33799745 .5098114 .33799745 .4588318 .33799745 .38386537 .29499818 .29389955 .20799256 .200943L.02999878 .011993408V0H.41999818L.47499085 .13696289Z"/>
<path id="font_6_14" d="M.24699402 .5332031H.30200196V.29800416H.53900149V.24299622H.30200196V0H.24699402V.24299622H.009994507V.29800416H.24699402V.5332031Z"/>
<path id="font_2_77" d="M.020996094 0H.25698854V.01499939C.19898987 .017990113 .18199158 .025985718 .18199158 .08395386V.680603L.17799378 .6826172C.125 .66563418 .07199097 .65164187 .018997193 .6386719V.6226654C.0309906 .6236725 .039993287 .6246643 .052993776 .6246643 .09199524 .6246643 .09799194 .6086731 .09799194 .56370547V.08695984C.09799194 .031982423 .07998657 .018997193 .020996094 .01499939V0Z"/>
<path id="font_2_72" d="M.09799194-.08985901C.09799194-.059890748 .115997318-.03892517 .14698792-.001953125 .19400025-.011657715 .21598816-.011657715 .30999757-.0146484379 .38398744-.016662598 .43299867-.018661499 .43299867-.063705448 .43299867-.116744998 .36499024-.16078186 .24798584-.16078186 .13398743-.16078186 .09799194-.12081909 .09799194-.08985901M.1519928 .3421173C.1519928 .40899659 .19099427 .4319458 .22698975 .4319458 .31298829 .4319458 .32899476 .29818727 .32899476 .27023316 .32899476 .24827576 .32398988 .17440796 .2559967 .17440796 .17799378 .17440796 .1519928 .26324464 .1519928 .3421173M.46998597 .38775636V.4267578H.3929901C.3769989 .4267578 .35899354 .428833 .33799745 .43695069 .2979889 .45195008 .27598573 .45996095 .24099732 .45996095 .16499329 .45996095 .068984989 .4119873 .068984989 .29319764 .068984989 .23530579 .102996829 .18937683 .1619873 .16340637 .07299805 .084365848 .07299805 .0713501 .07299805 .054336549 .07299805 .02633667 .09899902 .014343262 .12599182 .0013427734 .07499695-.03466797 .027999878-.07571411 .027999878-.1207428 .027999878-.17378235 .102996829-.21777344 .20498657-.21777344 .29499818-.21777344 .46099855-.16177368 .46099855-.048690797 .46099855-.0206604 .44699098 .053344728 .33999635 .05834961L.21099854 .06434631C.18099976 .06535339 .1329956 .068344119 .1329956 .09136963 .1329956 .1113739 .17298889 .15240479 .19299317 .15440369 .19898987 .15440369 .23498535 .14941406 .24699402 .14941406 .30299378 .14941406 .4059906 .18836975 .4059906 .29603578 .4059906 .34588624 .39698792 .3648224 .3869934 .38775636H.46998597Z"/>
<path id="font_6_149" d="M.526001 .054992677V0H.029006958V.054992677H.526001M.526001 .40881349V.3468628L.029006958 .117004398V.17897034L.46200563 .37783814 .029006958 .57670596V.6386719L.526001 .40881349Z"/>
<path id="font_2_13" d="M.08299255-.1409607C.11299133-.13087464 .19499207-.06486511 .19499207 .006134033 .19499207 .08912659 .13699341 .102127078 .11399841 .102127078 .08898926 .102127078 .055999757 .087127689 .055999757 .044128419 .055999757 .004135132 .09199524-.005859375 .117996219-.005859375 .125-.005859375 .12998963-.0048675539 .1329956-.0038604737 .13699341-.0028686524 .13999939-.0018615723 .14199829-.0018615723 .14898682-.001953125 .1559906-.006958008 .1559906-.015960694 .1559906-.034957887 .13999939-.079956058 .07398987-.1219635L.08299255-.1409607Z"/>
<path id="font_2_9" d="M.29499818 .67578127C.13999939 .58377078 .04798889 .43377687 .04798889 .2617798 .04798889 .1237793 .08099365 .05177307 .12998963-.020233155 .16799927-.07623291 .23399353-.14622498 .2919922-.17723084L.3039856-.16122437C.13398743-.052230836 .13398743 .16677857 .13398743 .2687683 .13398743 .5227661 .22999573 .60076907 .3039856 .6597748L.29499818 .67578127Z"/>
<path id="font_2_34" d="M.70599368 .018997193C.6619873 .021987915 .647995 .032974245 .6159973 .10592651L.36698915 .6738281H.34700013L.13899231 .18286133C.11999512 .1388855 .08898926 .06594849 .06599426 .04096985 .04798889 .021987915 .0309906 .019989014 .01499939 .018997193V0H.21299744V.018997193C.19198609 .018997193 .14498902 .018997193 .14498902 .060958864 .14498902 .07194519 .147995 .0859375 .15299988 .09892273L.19898987 .21583557H.46099855L.5019989 .119903568C.5079956 .10592651 .5209961 .07295227 .5209961 .05696106 .5209961 .019989014 .48799134 .018997193 .45098878 .018997193V0H.70599368V.018997193M.21598816 .25683595 .33099366 .53182986 .44699098 .25683595H.21598816Z"/>
<path id="font_2_10" d="M.037994386-.17723084C.19299317-.08522034 .2849884 .06477356 .2849884 .23677063 .2849884 .37477113 .2519989 .44677735 .20298767 .5187683 .16499329 .57476809 .09899902 .6447754 .040985109 .67578127L.0289917 .6597748C.19898987 .550766 .19898987 .33177186 .19898987 .22976685 .19898987-.024230957 .102996829-.10223389 .0289917-.16122437L.037994386-.17723084Z"/>
<path id="font_2_17" d="M.25 .6497803C.37799073 .6497803 .37998963 .39898683 .37998963 .33103944 .37998963 .25212098 .37799073 .012313843 .25 .012313843 .12199402 .012313843 .11999512 .25012208 .11999512 .33103944 .11999512 .39898683 .12199402 .6497803 .25 .6497803M.25 .67578127C.06599426 .67578127 .023986817 .4489441 .023986817 .33103944 .023986817 .21014405 .06599426-.013671875 .25-.013671875 .43399049-.013671875 .47599793 .21014405 .47599793 .33103944 .47599793 .4489441 .43399049 .67578127 .25 .67578127Z"/>
<path id="font_2_35" d="M.016998291 .6430969C.09899902 .6390991 .11299133 .6271057 .11299133 .55311587V.10903931C.11299133 .038009645 .100997928 .020996094 .016998291 .018997193V0H.35099793C.57299807 0 .59298709 .13806153 .59298709 .17608643 .59298709 .2811432 .5130005 .3291626 .42599488 .34716798V.34916688C.47099305 .36016847 .5589905 .38215638 .5589905 .49313355 .5589905 .6481018 .38398744 .6621094 .29699708 .6621094H.016998291V.6430969M.21499634 .32617188C.31098939 .32617188 .34298707 .321167 .3769989 .31115724 .42900086 .29515077 .47799684 .26213075 .47799684 .18008423 .47799684 .04600525 .35699464 .036987306 .29100038 .036987306 .23298645 .036987306 .21499634 .041000368 .21499634 .07801819V.32617188M.21499634 .59510806C.21499634 .6101074 .21699524 .62409976 .23699951 .62409976 .24699402 .62409976 .26098634 .6251068 .28199769 .6251068 .35299684 .6251068 .45700074 .6061096 .45700074 .48713685 .45700074 .36816407 .33799745 .36616517 .30999757 .36616517L.21499634 .36515809V.59510806Z"/>
<path id="font_2_24" d="M.44898988 .6621094H.07899475L.06298828 .618103 .019989014 .5151062 .036987306 .5071106C.069992069 .55911257 .08799744 .58810427 .15299988 .58810427H.36999513L.17199707-.0078125H.23699951L.44898988 .6461029V.6621094Z"/>
<path id="font_2_37" d="M.015991211 0H.2999878C.60598757 0 .68499758 .1960144 .68499758 .32904054 .68499758 .5530853 .526001 .6621094 .28599549 .6621094H.015991211V.6430969C.09298706 .6371002 .10398865 .6271057 .10398865 .5530853V.10900879C.10398865 .039001466 .09199524 .022994996 .015991211 .018997193V0M.20599365 .5860901C.20599365 .60609439 .20599365 .6251068 .25299073 .6251068 .3789978 .6251068 .43499757 .59809878 .48298646 .5550842 .5519867 .4930725 .57598879 .4120636 .57598879 .3280487 .57598879 .036987306 .32998658 .036987306 .2659912 .036987306 .21798706 .036987306 .20599365 .04399109 .20599365 .07800293V.5860901Z"/>
<path id="font_2_38" d="M.5970001 .16905213H.56900027C.5249939 .06800842 .47499085 .037994386 .34999085 .037994386 .20098877 .037994386 .20098877 .038986207 .20098877 .08001709V.32814027L.35499574 .32614137C.43798829 .32513429 .45298768 .3111267 .46499635 .23109436H.48799134V.4631195H.46499635C.45399476 .39213563 .44400025 .36813355 .35499574 .36813355H.20098877V.59010317C.20098877 .62409976 .21299744 .62409976 .23399353 .62409976H.36898805C.47999574 .62409976 .5059967 .6081085 .5209961 .51911929H.54599L.54299929 .6621094H.011993408V.6430969C.07499695 .6381073 .09899902 .63209536 .09899902 .55311587V.10903931C.09899902 .03199768 .07598877 .022994996 .011993408 .018997193V0H.5519867L.5970001 .16905213Z"/>
<path id="font_2_87" d="M.47698976 .4501953H.33799745V.43518067C.36299134 .43418885 .3849945 .42518617 .3849945 .40219117 .3849945 .36621095 .31399537 .21025086 .27999879 .11428833L.17799378 .37020875C.1749878 .37820436 .16899109 .39320375 .16899109 .40519715 .16899109 .43019105 .19099427 .43318177 .21499634 .43518067V.4501953H.018997193V.43518067C.038986207 .43418885 .05899048 .42819215 .07398987 .39819337 .10998535 .32722474 .20599365 .09529114 .22999573 .033309938 .24598694-.009674072 .24798584-.013671875 .25698854-.013671875 .2639923-.013671875 .272995 .009307861 .28399659 .03630066L.4119873 .35720826C.43598939 .41619874 .44299317 .43218995 .47698976 .43518067V.4501953Z"/>
<path id="font_2_21" d="M.47200013 .23098755H.36999513V.67578127H.32598878L.011993408 .23098755V.16699219H.29299928V0H.36999513V.16699219H.47200013V.23098755M.2919922 .23098755H.051986696L.2899933 .57081606H.2919922V.23098755Z"/>
<path id="font_6_11" d="M.30000306-.17440796 .29000855-.19140625C.2773336-.19273885 .2506663-.17340088 .21000672-.13339234 .16466777-.0900472 .13066609-.047032674 .10800171-.004348755 .07132975 .06566874 .052993776 .1473592 .052993776 .24072266 .052993776 .3340861 .07132975 .41577659 .10800171 .48579408 .13066609 .52847799 .16466777 .5714925 .21000672 .61483767 .2506663 .6548462 .2773336 .67418417 .29000855 .67285159L.30000306 .6558533C.2500051 .61583456 .21366883 .5734863 .19099427 .5288086 .18433126 .5154724 .17399597 .48546348 .1599884 .43878175 .1446584 .3881022 .13699341 .32208253 .13699341 .24072266 .13699341 .1593628 .1446584 .0933431 .1599884 .042663576 .17399597-.004018148 .18433126-.0340271 .19099427-.04736328 .21366883-.092041019 .2500051-.13438924 .30000306-.17440796Z"/>
<path id="font_6_12" d="M.039993287-.19140625 .02999878-.17440796C.07999674-.13438924 .11632792-.092041019 .13899231-.04736328 .14566548-.0340271 .15600078-.004018148 .16999817 .042663576 .18532817 .0933431 .19299317 .15935771 .19299317 .2407074 .19299317 .32272849 .18532817 .38907878 .16999817 .4397583 .15600078 .48644004 .14566548 .516449 .13899231 .52978518 .11632792 .5744629 .07999674 .6168111 .02999878 .65682986L.039993287 .6738281C.05265808 .6751607 .079325359 .65582278 .11999512 .6158142 .1653239 .57246908 .19932556 .5294545 .22200012 .48677064 .2586619 .41675315 .2769928 .33473207 .2769928 .2407074 .2769928 .14735413 .2586619 .06566874 .22200012-.004348755 .19932556-.047032674 .1653239-.0900472 .11999512-.13339234 .079325359-.17340088 .05265808-.19273885 .039993287-.19140625Z"/>
<path id="font_2_22" d="M.18099976 .58309939H.3769989C.3880005 .58309939 .39698792 .58309939 .3999939 .59210208L.43798829 .68110659 .42900086 .6880951C.41799928 .6730957 .40899659 .6621094 .3829956 .6621094H.17399597L.06498718 .4251709C.06199646 .4181671 .06498718 .4121704 .070999149 .4121704 .1789856 .4081726 .35598756 .3611908 .35598756 .20124817 .35598756 .07929993 .28199769 .02331543 .21699524 .02331543 .16299439 .02331543 .13598633 .08529663 .07199097 .08529663 .03199768 .08529663 .03199768 .05630493 .03199768 .046310426 .03199768 .010314941 .07899475-.013671875 .1579895-.013671875 .31599427-.013671875 .42599488 .092300418 .42599488 .22525025 .42599488 .31420899 .4149933 .34320069 .37199403 .39517213 .31298829 .46714784 .21899414 .48414613 .13899231 .49813844L.18099976 .58309939Z"/>
<path id="font_5_89" d="M.4019928 .11128235C.375 .08126831 .35499574 .04425049 .33399964 .04425049 .31399537 .04425049 .30699159 .06925964 .30299378 .08526611 .29699708 .11027527 .2630005 .24633789 .2630005 .26434327 .2630005 .26434327 .33099366 .38539125 .3600006 .38539125 .38198854 .38539125 .3889923 .36839295 .41299439 .36839295 .43699647 .36839295 .44699098 .3874054 .44699098 .4053955 .44699098 .42939759 .4249878 .44140626 .4059906 .44140626 .35398866 .44140626 .30699159 .3804016 .25498963 .2983551L.24398804 .3533783C.22599793 .44140626 .21099854 .44140626 .18899536 .44140626 .15699768 .44140626 .09098816 .41740418 .06399536 .4084015L.067993167 .3934021C.099990848 .4013977 .11399841 .4044037 .12298584 .4044037 .1499939 .4044037 .1539917 .39039613 .16299439 .359375 .1639862 .35438539 .19799805 .22132874 .19799805 .21232605 .10798645 .08126831 .08198547 .04725647 .06498718 .04725647 .04699707 .04725647 .0289917 .06625366 .0069885256 .06625366-.015014648 .06625366-.027008057 .04824829-.027008057 .03225708-.027008057 .008255005-.011001587-.0107421879 .021987915-.0107421879 .052993776-.0107421879 .06498718 .00024414063 .08198547 .019256592 .115997318 .056259157 .1579895 .11027527 .20599365 .17630005L.23599243 .056259157C.24899292 .003250122 .2639923-.0107421879 .29299928-.0107421879 .31599427-.0107421879 .34498597-.0107421879 .41600038 .103271488L.4019928 .11128235Z"/>
<path id="font_5_90" d="M.01499939 .4002838C.026992798 .4032898 .033996583 .40429688 .04899597 .40429688 .10598755 .40429688 .11898804 .36125184 .1459961 .27020265 .16299439 .21617127 .20498657 .0410614 .20498657 .003036499 .20498657-.023986817 .16299439-.073013309 .13798523-.10203552 .10398865-.14205933 .09098816-.15106201 .07499695-.15106201 .056991579-.15106201 .04399109-.123062137 .01399231-.123062137-.007003784-.123062137-.024002076-.14006043-.024002076-.16105652-.024002076-.20306397 .018997193-.20605469 .026992798-.20605469 .1459961-.20605469 .42599488 .2602539 .42599488 .37934876 .42599488 .41537477 .4059906 .44140626 .36898805 .44140626 .34298707 .44140626 .33198548 .42037965 .33198548 .40637208 .33198548 .3603363 .38598634 .3713379 .38598634 .330307 .38598634 .27726747 .30699159 .14216614 .2639923 .07211304L.24398804 .1882019C.23098755 .2632599 .17199707 .44239808 .15899658 .44140626 .14099121 .44140626 .06298828 .42538453 .01499939 .41737367V.4002838Z"/>
<path id="font_5_69" d="M.16299439 .037246705C.101989749 .037246705 .101989749 .0942688 .101989749 .11128235 .101989749 .20231629 .19699097 .418396 .30899049 .418396 .35598756 .418396 .35598756 .3743744 .35598756 .3513794 .35598756 .22732544 .2579956 .037246705 .16299439 .037246705M.46299745 .111312869C.42099 .063308719 .40098573 .040298463 .3809967 .040298463 .37098695 .040298463 .36299134 .047302247 .36299134 .062301637 .36299134 .078308109 .48399354 .5042267 .5269928 .6777344L.5219879 .682724C.47099305 .67214968 .41999818 .6651459 .36898805 .66015627V.6431427C.42399598 .6421509 .43099977 .63716128 .43099977 .6141815 .43099977 .60020449 .42399598 .57522585 .41600038 .5472717L.37298585 .38838197 .37098695 .38638307C.36698915 .4084015 .3600006 .44140626 .3039856 .44140626 .18499756 .44140626 .01499939 .2583313 .01499939 .107284549 .01499939 .055252077 .035995485-.0107421879 .11898804-.0107421879 .16899109-.0107421879 .22499085 .0062561037 .29699708 .11628723L.29899598 .11427307C.29100038 .079315189 .2869873 .05630493 .2869873 .033294679 .2869873 .012298584 .29499818-.0126953129 .33399964-.0126953129 .36698915-.0126953129 .43199159 .034301759 .47499085 .10131836L.46299745 .111312869Z"/>
</defs>
<g clip-path="url(#clip_1)">
<use data-text=" " xlink:href="#font_2_1" transform="matrix(10.9591,0,0,-10.98,48,30.840027)"/>
<use data-text=" " xlink:href="#font_2_1" transform="matrix(10.9591,0,0,-10.98,48,43.137636)"/>
<use data-text="A" xlink:href="#font_3_34" transform="matrix(15.9895,0,0,-16.02,48,60.47998)"/>
<use data-text="A" xlink:href="#font_3_34" transform="matrix(15.9895,0,0,-16.02,64.53954,60.47998)"/>
<use data-text="A" xlink:href="#font_3_34" transform="matrix(15.9895,0,0,-16.02,81.07909,60.47998)"/>
<use data-text="A" xlink:href="#font_3_34" transform="matrix(15.9895,0,0,-16.02,97.61863,60.47998)"/>
<use data-text="A" xlink:href="#font_3_34" transform="matrix(15.9895,0,0,-16.02,114.15817,60.47998)"/>
<use data-text="A" xlink:href="#font_3_34" transform="matrix(15.9895,0,0,-16.02,130.69771,60.47998)"/>
<use data-text="A" xlink:href="#font_3_34" transform="matrix(15.9895,0,0,-16.02,147.23725,60.47998)"/>
<use data-text="A" xlink:href="#font_3_34" transform="matrix(15.9895,0,0,-16.02,163.77678,60.47998)"/>
<use data-text="A" xlink:href="#font_3_34" transform="matrix(15.9895,0,0,-16.02,180.31632,60.47998)"/>
<use data-text="A" xlink:href="#font_3_34" transform="matrix(15.9895,0,0,-16.02,196.85585,60.47998)"/>
<use data-text="A" xlink:href="#font_3_34" transform="matrix(15.9895,0,0,-16.02,213.39539,60.47998)"/>
<use data-text="A" xlink:href="#font_3_34" transform="matrix(15.9895,0,0,-16.02,229.93492,60.47998)"/>
<use data-text="A" xlink:href="#font_3_34" transform="matrix(15.9895,0,0,-16.02,246.47446,60.47998)"/>
<use data-text="A" xlink:href="#font_3_34" transform="matrix(15.9895,0,0,-16.02,263.014,60.47998)"/>
<use data-text="A" xlink:href="#font_3_34" transform="matrix(15.9895,0,0,-16.02,279.55357,60.47998)"/>
<use data-text="A" xlink:href="#font_3_34" transform="matrix(15.9895,0,0,-16.02,296.0931,60.47998)"/>
<use data-text="A" xlink:href="#font_3_34" transform="matrix(15.9895,0,0,-16.02,312.63267,60.47998)"/>
<use data-text="A" xlink:href="#font_3_34" transform="matrix(15.9895,0,0,-16.02,329.0954,60.47998)"/>
<use data-text="A" xlink:href="#font_3_34" transform="matrix(15.9895,0,0,-16.02,345.63334,60.47998)"/>
<use data-text="A" xlink:href="#font_3_34" transform="matrix(15.9895,0,0,-16.02,362.17127,60.47998)"/>
<use data-text="A" xlink:href="#font_3_34" transform="matrix(15.9895,0,0,-16.02,378.7092,60.47998)"/>
<use data-text="A" xlink:href="#font_3_34" transform="matrix(15.9895,0,0,-16.02,395.24714,60.47998)"/>
<use data-text="A" xlink:href="#font_3_34" transform="matrix(15.9895,0,0,-16.02,411.78507,60.47998)"/>
<use data-text="A" xlink:href="#font_3_34" transform="matrix(15.9895,0,0,-16.02,428.323,60.47998)"/>
<use data-text="A" xlink:href="#font_3_34" transform="matrix(15.9895,0,0,-16.02,444.86094,60.47998)"/>
<use data-text="A" xlink:href="#font_3_34" transform="matrix(15.9895,0,0,-16.02,461.39888,60.47998)"/>
<use data-text="A" xlink:href="#font_3_34" transform="matrix(15.9895,0,0,-16.02,477.9368,60.47998)"/>
<use data-text="A" xlink:href="#font_3_34" transform="matrix(15.9895,0,0,-16.02,494.47474,60.47998)"/>
<use data-text="A" xlink:href="#font_3_34" transform="matrix(15.9895,0,0,-16.02,511.01268,60.47998)"/>
<use data-text="A" xlink:href="#font_3_34" transform="matrix(15.9895,0,0,-16.02,527.5506,60.47998)"/>
<use data-text="A" xlink:href="#font_3_34" transform="matrix(15.9895,0,0,-16.02,544.08859,60.47998)"/>
<use data-text=" " xlink:href="#font_3_1" transform="matrix(15.9895,0,0,-16.02,555.6698,60.47998)"/>
<use data-text=" " xlink:href="#font_2_1" transform="matrix(10.9591,0,0,-10.98,48,73.859989)"/>
<use data-text=" " xlink:href="#font_2_1" transform="matrix(10.9591,0,0,-10.98,48,86.10266)"/>
<use data-text="U" xlink:href="#font_4_54" transform="matrix(6.942,0,0,-6.7017,53.8033,733.0876)" fill="#231f20"/>
<use data-text="n" xlink:href="#font_4_79" transform="matrix(6.942,0,0,-6.7017,58.815423,733.0876)" fill="#231f20"/>
<use data-text="a" xlink:href="#font_4_66" transform="matrix(6.942,0,0,-6.7017,63.056985,733.0876)" fill="#231f20"/>
<use data-text="u" xlink:href="#font_4_86" transform="matrix(6.942,0,0,-6.7017,66.91673,733.0876)" fill="#231f20"/>
<use data-text="t" xlink:href="#font_4_85" transform="matrix(6.942,0,0,-6.7017,71.158298,733.0876)" fill="#231f20"/>
<use data-text="h" xlink:href="#font_4_73" transform="matrix(6.942,0,0,-6.7017,73.46998,733.0876)" fill="#231f20"/>
<use data-text="o" xlink:href="#font_4_80" transform="matrix(6.942,0,0,-6.7017,77.71154,733.0876)" fill="#231f20"/>
<use data-text="r" xlink:href="#font_4_83" transform="matrix(6.942,0,0,-6.7017,81.9531,733.0876)" fill="#231f20"/>
<use data-text="i" xlink:href="#font_4_74" transform="matrix(6.942,0,0,-6.7017,84.65354,733.0876)" fill="#231f20"/>
<use data-text="z" xlink:href="#font_4_91" transform="matrix(6.942,0,0,-6.7017,86.58342,733.0876)" fill="#231f20"/>
<use data-text="e" xlink:href="#font_4_70" transform="matrix(6.942,0,0,-6.7017,90.12384,733.0876)" fill="#231f20"/>
<use data-text="d" xlink:href="#font_4_69" transform="matrix(6.942,0,0,-6.7017,93.98359,733.0876)" fill="#231f20"/>
<use data-text=" " xlink:href="#font_4_1" transform="matrix(6.942,0,0,-6.7017,98.22515,733.0876)" fill="#231f20"/>
<use data-text="c" xlink:href="#font_4_68" transform="matrix(6.942,0,0,-6.7017,100.15503,733.0876)" fill="#231f20"/>
<use data-text="o" xlink:href="#font_4_80" transform="matrix(6.942,0,0,-6.7017,104.01478,733.0876)" fill="#231f20"/>
<use data-text="p" xlink:href="#font_4_81" transform="matrix(6.942,0,0,-6.7017,108.25634,733.0876)" fill="#231f20"/>
<use data-text="y" xlink:href="#font_4_90" transform="matrix(6.942,0,0,-6.7017,112.39377,733.0876)" fill="#231f20"/>
<use data-text="i" xlink:href="#font_4_74" transform="matrix(6.942,0,0,-6.7017,116.25352,733.0876)" fill="#231f20"/>
<use data-text="n" xlink:href="#font_4_79" transform="matrix(6.942,0,0,-6.7017,118.183399,733.0876)" fill="#231f20"/>
<use data-text="g" xlink:href="#font_4_72" transform="matrix(6.942,0,0,-6.7017,122.42496,733.0876)" fill="#231f20"/>
<use data-text=" " xlink:href="#font_4_1" transform="matrix(6.942,0,0,-6.7017,126.66652,733.0876)" fill="#231f20"/>
<use data-text="o" xlink:href="#font_4_80" transform="matrix(6.942,0,0,-6.7017,128.59639,733.0876)" fill="#231f20"/>
<use data-text="r" xlink:href="#font_4_83" transform="matrix(6.942,0,0,-6.7017,132.83795,733.0876)" fill="#231f20"/>
<use data-text=" " xlink:href="#font_4_1" transform="matrix(6.942,0,0,-6.7017,135.53839,733.0876)" fill="#231f20"/>
<use data-text="r" xlink:href="#font_4_83" transform="matrix(6.942,0,0,-6.7017,137.46826,733.0876)" fill="#231f20"/>
<use data-text="e" xlink:href="#font_4_70" transform="matrix(6.942,0,0,-6.7017,140.1687,733.0876)" fill="#231f20"/>
<use data-text="u" xlink:href="#font_4_86" transform="matrix(6.942,0,0,-6.7017,144.02846,733.0876)" fill="#231f20"/>
<use data-text="s" xlink:href="#font_4_84" transform="matrix(6.942,0,0,-6.7017,148.27002,733.0876)" fill="#231f20"/>
<use data-text="e" xlink:href="#font_4_70" transform="matrix(6.942,0,0,-6.7017,152.12978,733.0876)" fill="#231f20"/>
<use data-text=" " xlink:href="#font_4_1" transform="matrix(6.942,0,0,-6.7017,155.98954,733.0876)" fill="#231f20"/>
<use data-text="o" xlink:href="#font_4_80" transform="matrix(6.942,0,0,-6.7017,157.9194,733.0876)" fill="#231f20"/>
<use data-text="f" xlink:href="#font_4_71" transform="matrix(6.942,0,0,-6.7017,162.16097,733.0876)" fill="#231f20"/>
<use data-text=" " xlink:href="#font_4_1" transform="matrix(6.942,0,0,-6.7017,164.47266,733.0876)" fill="#231f20"/>
<use data-text="a" xlink:href="#font_4_66" transform="matrix(6.942,0,0,-6.7017,53.8033,740.26516)" fill="#231f20"/>
<use data-text="n" xlink:href="#font_4_79" transform="matrix(6.942,0,0,-6.7017,57.66305,740.26516)" fill="#231f20"/>
<use data-text="y" xlink:href="#font_4_90" transform="matrix(6.942,0,0,-6.7017,61.765775,740.26516)" fill="#231f20"/>
<use data-text=" " xlink:href="#font_4_1" transform="matrix(6.942,0,0,-6.7017,65.62553,740.26516)" fill="#231f20"/>
<use data-text="p" xlink:href="#font_4_81" transform="matrix(6.942,0,0,-6.7017,67.555408,740.26516)" fill="#231f20"/>
<use data-text="a" xlink:href="#font_4_66" transform="matrix(6.942,0,0,-6.7017,71.79697,740.26516)" fill="#231f20"/>
<use data-text="r" xlink:href="#font_4_83" transform="matrix(6.942,0,0,-6.7017,75.656719,740.26516)" fill="#231f20"/>
<use data-text="t" xlink:href="#font_4_85" transform="matrix(6.942,0,0,-6.7017,78.495998,740.26516)" fill="#231f20"/>
<use data-text=" " xlink:href="#font_4_1" transform="matrix(6.942,0,0,-6.7017,80.80768,740.26516)" fill="#231f20"/>
<use data-text="o" xlink:href="#font_4_80" transform="matrix(6.942,0,0,-6.7017,82.73756,740.26516)" fill="#231f20"/>
<use data-text="f" xlink:href="#font_4_71" transform="matrix(6.942,0,0,-6.7017,86.97912,740.26516)" fill="#231f20"/>
<use data-text=" " xlink:href="#font_4_1" transform="matrix(6.942,0,0,-6.7017,89.2908,740.26516)" fill="#231f20"/>
<use data-text="t" xlink:href="#font_4_85" transform="matrix(6.942,0,0,-6.7017,91.22068,740.26516)" fill="#231f20"/>
<use data-text="h" xlink:href="#font_4_73" transform="matrix(6.942,0,0,-6.7017,93.532367,740.26516)" fill="#231f20"/>
<use data-text="i" xlink:href="#font_4_74" transform="matrix(6.942,0,0,-6.7017,97.773929,740.26516)" fill="#231f20"/>
<use data-text="s" xlink:href="#font_4_84" transform="matrix(6.942,0,0,-6.7017,99.703807,740.26516)" fill="#231f20"/>
<use data-text=" " xlink:href="#font_4_1" transform="matrix(6.942,0,0,-6.7017,103.56355,740.26516)" fill="#231f20"/>
<use data-text="p" xlink:href="#font_4_81" transform="matrix(6.942,0,0,-6.7017,105.49343,740.26516)" fill="#231f20"/>
<use data-text="a" xlink:href="#font_4_66" transform="matrix(6.942,0,0,-6.7017,109.73499,740.26516)" fill="#231f20"/>
<use data-text="g" xlink:href="#font_4_72" transform="matrix(6.942,0,0,-6.7017,113.52532,740.26516)" fill="#231f20"/>
<use data-text="e" xlink:href="#font_4_70" transform="matrix(6.942,0,0,-6.7017,117.8363,740.26516)" fill="#231f20"/>
<use data-text=" " xlink:href="#font_4_1" transform="matrix(6.942,0,0,-6.7017,121.69605,740.26516)" fill="#231f20"/>
<use data-text="i" xlink:href="#font_4_74" transform="matrix(6.942,0,0,-6.7017,123.62593,740.26516)" fill="#231f20"/>
<use data-text="s" xlink:href="#font_4_84" transform="matrix(6.942,0,0,-6.7017,125.55581,740.26516)" fill="#231f20"/>
<use data-text=" " xlink:href="#font_4_1" transform="matrix(6.942,0,0,-6.7017,129.41556,740.26516)" fill="#231f20"/>
<use data-text="i" xlink:href="#font_4_74" transform="matrix(6.942,0,0,-6.7017,131.34543,740.26516)" fill="#231f20"/>
<use data-text="l" xlink:href="#font_4_77" transform="matrix(6.942,0,0,-6.7017,133.2753,740.26516)" fill="#231f20"/>
<use data-text="l" xlink:href="#font_4_77" transform="matrix(6.942,0,0,-6.7017,135.20517,740.26516)" fill="#231f20"/>
<use data-text="e" xlink:href="#font_4_70" transform="matrix(6.942,0,0,-6.7017,137.13504,740.26516)" fill="#231f20"/>
<use data-text="g" xlink:href="#font_4_72" transform="matrix(6.942,0,0,-6.7017,140.9948,740.26516)" fill="#231f20"/>
<use data-text="a" xlink:href="#font_4_66" transform="matrix(6.942,0,0,-6.7017,145.23636,740.26516)" fill="#231f20"/>
<use data-text="l" xlink:href="#font_4_77" transform="matrix(6.942,0,0,-6.7017,149.09612,740.26516)" fill="#231f20"/>
<use data-text="." xlink:href="#font_4_15" transform="matrix(6.942,0,0,-6.7017,151.02599,740.26516)" fill="#231f20"/>
<path transform="matrix(1.017764,0,0,-.982546,0,783)" stroke-width=".78" stroke-linecap="butt" stroke-miterlimit="4" stroke-linejoin="miter" fill="none" stroke="#231f20" d="M50.717 40.189H163.747V58.175H50.717ZM163.747 40.189Z"/>
<use data-text=" " xlink:href="#font_4_1" transform="matrix(10.9591,0,0,-10.98,169.98,745.74)"/>
<use data-text=" " xlink:href="#font_4_1" transform="matrix(10.9591,0,0,-10.98,263.9981,745.74)"/>
<use data-text="G" xlink:href="#font_4_40" transform="matrix(10.9591,0,0,-10.98,408.00068,745.74)"/>
<use data-text="O" xlink:href="#font_4_48" transform="matrix(10.9591,0,0,-10.98,416.5367,745.74)"/>
<use data-text=" " xlink:href="#font_4_1" transform="matrix(10.9591,0,0,-10.98,425.07276,745.74)"/>
<use data-text="O" xlink:href="#font_4_48" transform="matrix(10.9591,0,0,-10.98,428.18736,745.74)"/>
<use data-text="N" xlink:href="#font_4_47" transform="matrix(10.9591,0,0,-10.98,436.7234,745.74)"/>
<use data-text=" " xlink:href="#font_4_1" transform="matrix(10.9591,0,0,-10.98,444.64573,745.74)"/>
<use data-text="T" xlink:href="#font_4_53" transform="matrix(10.9591,0,0,-10.98,447.7055,745.74)"/>
<use data-text="O" xlink:href="#font_4_48" transform="matrix(10.9591,0,0,-10.98,454.4881,745.74)"/>
<use data-text=" " xlink:href="#font_4_1" transform="matrix(10.9591,0,0,-10.98,463.00224,745.74)"/>
<use data-text="T" xlink:href="#font_4_53" transform="matrix(10.9591,0,0,-10.98,466.11683,745.74)"/>
<use data-text="H" xlink:href="#font_4_41" transform="matrix(10.9591,0,0,-10.98,472.8227,745.74)"/>
<use data-text="E" xlink:href="#font_4_38" transform="matrix(10.9591,0,0,-10.98,480.74504,745.74)"/>
<use data-text=" " xlink:href="#font_4_1" transform="matrix(10.9591,0,0,-10.98,488.0646,745.74)"/>
<use data-text="N" xlink:href="#font_4_47" transform="matrix(10.9591,0,0,-10.98,491.1244,745.74)"/>
<use data-text="E" xlink:href="#font_4_38" transform="matrix(10.9591,0,0,-10.98,499.04673,745.74)"/>
<use data-text="X" xlink:href="#font_4_57" transform="matrix(10.9591,0,0,-10.98,506.4211,745.74)"/>
<use data-text="T" xlink:href="#font_4_53" transform="matrix(10.9591,0,0,-10.98,513.7407,745.74)"/>
<use data-text=" " xlink:href="#font_4_1" transform="matrix(10.9591,0,0,-10.98,520.4466,745.74)"/>
<use data-text="P" xlink:href="#font_4_49" transform="matrix(10.9591,0,0,-10.98,523.5064,745.74)"/>
<use data-text="A" xlink:href="#font_4_34" transform="matrix(10.9591,0,0,-10.98,530.826,745.74)"/>
<use data-text="G" xlink:href="#font_4_40" transform="matrix(10.9591,0,0,-10.98,538.74838,745.74)"/>
<use data-text="E" xlink:href="#font_4_38" transform="matrix(10.9591,0,0,-10.98,547.2844,745.74)"/>
<use data-text="." xlink:href="#font_4_15" transform="matrix(10.9591,0,0,-10.98,554.604,745.74)"/>
<use data-text=" " xlink:href="#font_4_1" transform="matrix(10.9591,0,0,-10.98,557.6605,745.74)"/>
<use data-text="-" xlink:href="#font_4_14" transform="matrix(10.9591,0,0,-10.98,299.27546,758.88308)"/>
<use data-text="5" xlink:href="#font_4_22" transform="matrix(10.9591,0,0,-10.98,302.9402,758.88308)"/>
<use data-text="-" xlink:href="#font_4_14" transform="matrix(10.9591,0,0,-10.98,309.0488,758.88308)"/>
<use data-text=" " xlink:href="#font_4_1" transform="matrix(10.9591,0,0,-10.98,312.71354,758.88308)"/>
<use data-text="3" xlink:href="#font_2_20" transform="matrix(10.9591,0,0,-10.98,51.1154,109.55878)"/>
<use data-text="." xlink:href="#font_2_15" transform="matrix(10.9591,0,0,-10.98,56.604814,109.55878)"/>
<use data-text=" " xlink:href="#font_2_1" transform="matrix(10.9591,0,0,-10.98,59.35445,109.55878)"/>
<use data-text="C" xlink:href="#font_2_36" transform="matrix(10.9591,0,0,-10.98,65.29209,109.55878)"/>
<use data-text="o" xlink:href="#font_2_80" transform="matrix(10.9591,0,0,-10.98,72.61167,109.55878)"/>
<use data-text="n" xlink:href="#font_2_79" transform="matrix(10.9591,0,0,-10.98,78.10108,109.55878)"/>
<use data-text="s" xlink:href="#font_2_84" transform="matrix(10.9591,0,0,-10.98,83.59049,109.55878)"/>
<use data-text="i" xlink:href="#font_2_74" transform="matrix(10.9591,0,0,-10.98,87.86345,109.55878)"/>
<use data-text="d" xlink:href="#font_2_69" transform="matrix(10.9591,0,0,-10.98,90.919948,109.55878)"/>
<use data-text="e" xlink:href="#font_2_70" transform="matrix(10.9591,0,0,-10.98,96.409358,109.55878)"/>
<use data-text="r" xlink:href="#font_2_83" transform="matrix(10.9591,0,0,-10.98,101.28506,109.55878)"/>
<use data-text=" " xlink:href="#font_2_1" transform="matrix(10.9591,0,0,-10.98,104.9443,109.55878)"/>
<use data-text="t" xlink:href="#font_2_85" transform="matrix(10.9591,0,0,-10.98,107.703807,109.55878)"/>
<use data-text="h" xlink:href="#font_2_73" transform="matrix(10.9591,0,0,-10.98,110.7603,109.55878)"/>
<use data-text="e" xlink:href="#font_2_70" transform="matrix(10.9591,0,0,-10.98,116.24971,109.55878)"/>
<use data-text=" " xlink:href="#font_2_1" transform="matrix(10.9591,0,0,-10.98,121.12541,109.55878)"/>
<use data-text="s" xlink:href="#font_2_84" transform="matrix(10.9591,0,0,-10.98,123.88492,109.55878)"/>
<use data-text="e" xlink:href="#font_2_70" transform="matrix(10.9591,0,0,-10.98,128.15787,109.55878)"/>
<use data-text="r" xlink:href="#font_2_83" transform="matrix(10.9591,0,0,-10.98,133.03357,109.55878)"/>
<use data-text="i" xlink:href="#font_2_74" transform="matrix(10.9591,0,0,-10.98,136.69281,109.55878)"/>
<use data-text="e" xlink:href="#font_2_70" transform="matrix(10.9591,0,0,-10.98,139.7493,109.55878)"/>
<use data-text="s" xlink:href="#font_2_84" transform="matrix(10.9591,0,0,-10.98,144.625,109.55878)"/>
<use data-text=" " xlink:href="#font_2_1" transform="matrix(10.9591,0,0,-10.98,148.89795,109.55878)"/>
<use data-text="1" xlink:href="#font_2_18" transform="matrix(7.9802,0,0,-7.9952,162.6,121.319889)"/>
<use data-text="n" xlink:href="#font_5_79" transform="matrix(7.9802,0,0,-7.9952,173.0381,112.55713)"/>
<use data-text="n" xlink:href="#font_5_79" transform="matrix(7.9802,0,0,-7.9952,153.59833,121.319889)"/>
<use data-text="a" xlink:href="#font_5_66" transform="matrix(10.9727,0,0,-10.9936,167.46,109.56)"/>
<use data-text="=" xlink:href="#font_6_32" transform="matrix(7.9802,0,0,-7.9952,158.28,121.319889)"/>
<use data-text="&#x2022;" xlink:href="#font_6_135" transform="matrix(9.9752,0,0,-9.9942,156.18,97.08002)"/>
<use data-text="&#x00c2;" xlink:href="#font_6_199" transform="matrix(17.5502,0,0,-17.5835,153.42,112.26001)"/>
<use data-text="." xlink:href="#font_2_15" transform="matrix(10.9727,0,0,-10.9936,177.78,109.56)"/>
<use data-text=" " xlink:href="#font_2_1" transform="matrix(10.9591,0,0,-10.98,182.76,109.56)"/>
<use data-text="I" xlink:href="#font_2_42" transform="matrix(10.9591,0,0,-10.98,185.5195,109.56)"/>
<use data-text="f" xlink:href="#font_2_71" transform="matrix(10.9591,0,0,-10.98,189.18204,109.56)"/>
<use data-text=" " xlink:href="#font_2_1" transform="matrix(10.9591,0,0,-10.98,192.84458,109.56)"/>
<use data-text="1" xlink:href="#font_2_18" transform="matrix(7.9948,0,0,-8.01,202.26,112.56)"/>
<use data-text="1" xlink:href="#font_2_18" transform="matrix(10.9929,0,0,-11.0138,219.96,109.56)"/>
<use data-text="6" xlink:href="#font_2_23" transform="matrix(10.9929,0,0,-11.0138,225.47954,109.56)"/>
<use data-text="a" xlink:href="#font_5_66" transform="matrix(10.9929,0,0,-11.0138,197.45754,109.56)"/>
<use data-text="=" xlink:href="#font_6_32" transform="matrix(10.9929,0,0,-11.0138,210.83589,109.56)"/>
<use data-text=" " xlink:href="#font_2_1" transform="matrix(10.9591,0,0,-10.98,233.58,109.56)"/>
<use data-text="a" xlink:href="#font_2_66" transform="matrix(10.9591,0,0,-10.98,236.3395,109.56)"/>
<use data-text="n" xlink:href="#font_2_79" transform="matrix(10.9591,0,0,-10.98,241.23273,109.56)"/>
<use data-text="d" xlink:href="#font_2_69" transform="matrix(10.9591,0,0,-10.98,246.73967,109.56)"/>
<use data-text=" " xlink:href="#font_2_1" transform="matrix(10.9591,0,0,-10.98,252.24662,109.56)"/>
<path transform="matrix(1,0,0,-1,256.98,106.619998)" stroke-width=".53" stroke-linecap="round" stroke-linejoin="round" fill="none" stroke="#000000" d="M0 0H20.64M35.46 0H42.48"/>
<use data-text="1" xlink:href="#font_2_18" transform="matrix(7.9898,0,0,-8.0051,272.52,105.29999)"/>
<use data-text="1" xlink:href="#font_2_18" transform="matrix(10.9861,0,0,-11.0069,293.28,103.619998)"/>
<use data-text="2" xlink:href="#font_2_19" transform="matrix(10.9861,0,0,-11.0069,293.21409,116.46503)"/>
<use data-text="n" xlink:href="#font_5_79" transform="matrix(7.9898,0,0,-8.0051,263.52,105.29999)"/>
<use data-text="n" xlink:href="#font_5_79" transform="matrix(7.9898,0,0,-8.0051,267.6587,119.461)"/>
<use data-text="a" xlink:href="#font_5_66" transform="matrix(10.9861,0,0,-11.0069,257.94,102.29999)"/>
<use data-text="a" xlink:href="#font_5_66" transform="matrix(10.9861,0,0,-11.0069,262.1367,116.454837)"/>
<use data-text="+" xlink:href="#font_6_14" transform="matrix(7.9898,0,0,-8.0051,268.2,105.29999)"/>
<use data-text="=" xlink:href="#font_6_32" transform="matrix(10.9861,0,0,-11.0069,282.12,109.56)"/>
<use data-text=" " xlink:href="#font_2_1" transform="matrix(10.9591,0,0,-10.98,301.98,109.56)"/>
<use data-text="f" xlink:href="#font_2_71" transform="matrix(10.9591,0,0,-10.98,304.7395,109.56)"/>
<use data-text="o" xlink:href="#font_2_80" transform="matrix(10.9591,0,0,-10.98,308.39875,109.56)"/>
<use data-text="r" xlink:href="#font_2_83" transform="matrix(10.9591,0,0,-10.98,313.88816,109.56)"/>
<use data-text=" " xlink:href="#font_2_1" transform="matrix(10.9591,0,0,-10.98,317.5474,109.56)"/>
<use data-text="a" xlink:href="#font_2_66" transform="matrix(10.9591,0,0,-10.98,320.3069,109.56)"/>
<use data-text="l" xlink:href="#font_2_77" transform="matrix(10.9591,0,0,-10.98,325.1826,109.56)"/>
<use data-text="l" xlink:href="#font_2_77" transform="matrix(10.9591,0,0,-10.98,328.23908,109.56)"/>
<use data-text=" " xlink:href="#font_2_1" transform="matrix(10.9591,0,0,-10.98,331.29557,109.56)"/>
<use data-text="i" xlink:href="#font_2_74" transform="matrix(10.9591,0,0,-10.98,334.05506,109.56)"/>
<use data-text="n" xlink:href="#font_2_79" transform="matrix(10.9591,0,0,-10.98,337.11155,109.56)"/>
<use data-text="t" xlink:href="#font_2_85" transform="matrix(10.9591,0,0,-10.98,342.60096,109.56)"/>
<use data-text="e" xlink:href="#font_2_70" transform="matrix(10.9591,0,0,-10.98,345.65745,109.56)"/>
<use data-text="g" xlink:href="#font_2_72" transform="matrix(10.9591,0,0,-10.98,350.53315,109.56)"/>
<use data-text="e" xlink:href="#font_2_70" transform="matrix(10.9591,0,0,-10.98,356.02256,109.56)"/>
<use data-text="r" xlink:href="#font_2_83" transform="matrix(10.9591,0,0,-10.98,360.89826,109.56)"/>
<use data-text="s" xlink:href="#font_2_84" transform="matrix(10.9591,0,0,-10.98,364.5575,109.56)"/>
<use data-text=" " xlink:href="#font_2_1" transform="matrix(10.9591,0,0,-10.98,368.83045,109.56)"/>
<use data-text="1" xlink:href="#font_2_18" transform="matrix(10.9634,0,0,-10.9842,392.4,109.56)"/>
<use data-text="n" xlink:href="#font_5_79" transform="matrix(10.9634,0,0,-10.9842,373.49909,109.56)"/>
<use data-text="&#x2265;" xlink:href="#font_6_149" transform="matrix(10.9634,0,0,-10.9842,383.15785,109.56)"/>
<use data-text="," xlink:href="#font_2_13" transform="matrix(10.9634,0,0,-10.9842,396.84016,109.56)"/>
<use data-text=" " xlink:href="#font_2_1" transform="matrix(10.9591,0,0,-10.98,401.64,109.56)"/>
<use data-text="t" xlink:href="#font_2_85" transform="matrix(10.9591,0,0,-10.98,404.3995,109.56)"/>
<use data-text="h" xlink:href="#font_2_73" transform="matrix(10.9591,0,0,-10.98,407.46806,109.56)"/>
<use data-text="e" xlink:href="#font_2_70" transform="matrix(10.9591,0,0,-10.98,412.9695,109.56)"/>
<use data-text="n" xlink:href="#font_2_79" transform="matrix(10.9591,0,0,-10.98,417.85728,109.56)"/>
<use data-text=" " xlink:href="#font_2_1" transform="matrix(10.9591,0,0,-10.98,423.35874,109.56)"/>
<use data-text="1" xlink:href="#font_2_18" transform="matrix(7.9898,0,0,-8.0051,436.92,121.319889)"/>
<use data-text="n" xlink:href="#font_5_79" transform="matrix(7.9898,0,0,-8.0051,447.36268,112.56232)"/>
<use data-text="n" xlink:href="#font_5_79" transform="matrix(7.9898,0,0,-8.0051,427.9235,121.319889)"/>
<use data-text="a" xlink:href="#font_5_66" transform="matrix(10.9634,0,0,-10.9842,441.78,109.56)"/>
<use data-text="=" xlink:href="#font_6_32" transform="matrix(7.9898,0,0,-8.0051,432.6,121.319889)"/>
<use data-text="&#x2022;" xlink:href="#font_6_135" transform="matrix(9.9752,0,0,-9.9942,430.5,97.08002)"/>
<use data-text="&#x00c2;" xlink:href="#font_6_199" transform="matrix(17.5502,0,0,-17.5835,427.74,112.26001)"/>
<use data-text=" " xlink:href="#font_2_1" transform="matrix(10.9591,0,0,-10.98,454.08,109.56)"/>
<use data-text="i" xlink:href="#font_2_74" transform="matrix(10.9591,0,0,-10.98,456.83949,109.56)"/>
<use data-text="s" xlink:href="#font_2_84" transform="matrix(10.9591,0,0,-10.98,459.89598,109.56)"/>
<use data-text=" " xlink:href="#font_2_1" transform="matrix(10.9591,0,0,-10.98,464.1689,109.56)"/>
<use data-text="(" xlink:href="#font_2_9" transform="matrix(10.9591,0,0,-10.98,65.284,139.38166)"/>
<use data-text="A" xlink:href="#font_2_34" transform="matrix(10.9591,0,0,-10.98,68.9542,139.38166)"/>
<use data-text=")" xlink:href="#font_2_10" transform="matrix(10.9591,0,0,-10.98,76.8875,139.38166)"/>
<use data-text=" " xlink:href="#font_2_1" transform="matrix(10.9591,0,0,-10.98,80.5577,139.38166)"/>
<use data-text="0" xlink:href="#font_2_17" transform="matrix(10.9591,0,0,-10.98,86.07999,139.38166)"/>
<use data-text="(" xlink:href="#font_2_9" transform="matrix(10.9591,0,0,-10.98,124.58368,139.38166)"/>
<use data-text="B" xlink:href="#font_2_35" transform="matrix(10.9591,0,0,-10.98,128.25388,139.38166)"/>
<use data-text=")" xlink:href="#font_2_10" transform="matrix(10.9591,0,0,-10.98,135.58441,139.38166)"/>
<use data-text=" " xlink:href="#font_2_1" transform="matrix(10.9591,0,0,-10.98,139.25461,139.38166)"/>
<use data-text="2" xlink:href="#font_2_19" transform="matrix(10.9591,0,0,-10.98,144.7769,139.38166)"/>
<use data-text="(" xlink:href="#font_2_9" transform="matrix(10.9591,0,0,-10.98,183.28061,139.38166)"/>
<use data-text="C" xlink:href="#font_2_36" transform="matrix(10.9591,0,0,-10.98,186.9508,139.38166)"/>
<use data-text=")" xlink:href="#font_2_10" transform="matrix(10.9591,0,0,-10.98,194.28134,139.38166)"/>
<use data-text=" " xlink:href="#font_2_1" transform="matrix(10.9591,0,0,-10.98,197.95154,139.38166)"/>
<use data-text="1" xlink:href="#font_2_18" transform="matrix(10.9591,0,0,-10.98,203.46506,139.38166)"/>
<use data-text="7" xlink:href="#font_2_24" transform="matrix(10.9591,0,0,-10.98,208.96543,139.38166)"/>
<use data-text="(" xlink:href="#font_2_9" transform="matrix(10.9591,0,0,-10.98,247.4023,139.38166)"/>
<use data-text="D" xlink:href="#font_2_37" transform="matrix(10.9591,0,0,-10.98,251.0725,139.38166)"/>
<use data-text=")" xlink:href="#font_2_10" transform="matrix(10.9591,0,0,-10.98,259.0058,139.38166)"/>
<use data-text=" " xlink:href="#font_2_1" transform="matrix(10.9591,0,0,-10.98,262.676,139.38166)"/>
<use data-text="3" xlink:href="#font_2_20" transform="matrix(10.9591,0,0,-10.98,268.20487,139.38166)"/>
<use data-text="2" xlink:href="#font_2_19" transform="matrix(10.9591,0,0,-10.98,273.70524,139.38166)"/>
<use data-text="(" xlink:href="#font_2_9" transform="matrix(10.9591,0,0,-10.98,312.1377,139.38166)"/>
<use data-text="E" xlink:href="#font_2_38" transform="matrix(10.9591,0,0,-10.98,315.8079,139.38166)"/>
<use data-text=")" xlink:href="#font_2_10" transform="matrix(10.9591,0,0,-10.98,322.52473,139.38166)"/>
<use data-text=" " xlink:href="#font_2_1" transform="matrix(10.9591,0,0,-10.98,326.19493,139.38166)"/>
<use data-text="d" xlink:href="#font_2_69" transform="matrix(10.9591,0,0,-10.98,331.7245,139.38172)"/>
<use data-text="i" xlink:href="#font_2_74" transform="matrix(10.9591,0,0,-10.98,337.22486,139.38172)"/>
<use data-text="v" xlink:href="#font_2_87" transform="matrix(10.9591,0,0,-10.98,340.2923,139.38172)"/>
<use data-text="e" xlink:href="#font_2_70" transform="matrix(10.9591,0,0,-10.98,345.79267,139.38172)"/>
<use data-text="r" xlink:href="#font_2_83" transform="matrix(10.9591,0,0,-10.98,350.67933,139.38172)"/>
<use data-text="g" xlink:href="#font_2_72" transform="matrix(10.9591,0,0,-10.98,354.34953,139.38172)"/>
<use data-text="e" xlink:href="#font_2_70" transform="matrix(10.9591,0,0,-10.98,359.84989,139.38172)"/>
<use data-text="n" xlink:href="#font_2_79" transform="matrix(10.9591,0,0,-10.98,364.73655,139.38172)"/>
<use data-text="t" xlink:href="#font_2_85" transform="matrix(10.9591,0,0,-10.98,370.2369,139.38172)"/>
<use data-text="4" xlink:href="#font_2_21" transform="matrix(10.9591,0,0,-10.98,51.11673,297.1204)"/>
<use data-text="." xlink:href="#font_2_15" transform="matrix(10.9591,0,0,-10.98,56.602857,297.1204)"/>
<use data-text=" " xlink:href="#font_2_1" transform="matrix(10.9591,0,0,-10.98,59.349206,297.1204)"/>
<path transform="matrix(1,0,0,-1,0,783)" d="M46.5 518.1H565.5V519.6H46.5Z"/>
<path transform="matrix(1,0,0,-1,100.86,294.18)" stroke-width=".53" stroke-linecap="round" stroke-linejoin="round" fill="none" stroke="#000000" d="M0 0H23.76"/>
<use data-text="I" xlink:href="#font_2_42" transform="matrix(10.9591,0,0,-10.98,65.2901,297.1172)"/>
<use data-text="f" xlink:href="#font_2_71" transform="matrix(10.9591,0,0,-10.98,68.94605,297.1172)"/>
<use data-text=" " xlink:href="#font_2_1" transform="matrix(10.9591,0,0,-10.98,72.602008,297.1172)"/>
<use data-text="(" xlink:href="#font_6_11" transform="matrix(11.1173,0,0,-27.33,96.66,300.78)"/>
<use data-text=")" xlink:href="#font_6_12" transform="matrix(11.1173,0,0,-27.33,125.39934,300.78)"/>
<use data-text="5" xlink:href="#font_2_22" transform="matrix(7.9898,0,0,-8.0051,129.12,285.6)"/>
<use data-text="," xlink:href="#font_2_13" transform="matrix(10.9861,0,0,-11.0069,134.94,297.12)"/>
<use data-text="1" xlink:href="#font_2_18" transform="matrix(10.9861,0,0,-11.0069,119.28481,304.26347)"/>
<use data-text="=" xlink:href="#font_6_32" transform="matrix(10.9861,0,0,-11.0069,86.82089,297.12)"/>
<use data-text="+" xlink:href="#font_6_14" transform="matrix(10.9861,0,0,-11.0069,110.880458,304.26347)"/>
<use data-text="x" xlink:href="#font_5_89" transform="matrix(10.9861,0,0,-11.0069,110.517917,291.0662)"/>
<use data-text="y" xlink:href="#font_5_90" transform="matrix(10.9861,0,0,-11.0069,77.70244,297.13099)"/>
<use data-text="x" xlink:href="#font_5_89" transform="matrix(10.9861,0,0,-11.0069,102.300319,304.27445)"/>
<use data-text=" " xlink:href="#font_2_1" transform="matrix(10.9591,0,0,-10.98,139.38,297.12)"/>
<use data-text="t" xlink:href="#font_2_85" transform="matrix(10.9591,0,0,-10.98,142.1395,297.12)"/>
<use data-text="h" xlink:href="#font_2_73" transform="matrix(10.9591,0,0,-10.98,145.20804,297.12)"/>
<use data-text="e" xlink:href="#font_2_70" transform="matrix(10.9591,0,0,-10.98,150.7095,297.12)"/>
<use data-text="n" xlink:href="#font_2_79" transform="matrix(10.9591,0,0,-10.98,155.59726,297.12)"/>
<use data-text=" " xlink:href="#font_2_1" transform="matrix(10.9591,0,0,-10.98,161.09873,297.12)"/>
<path transform="matrix(1,0,0,-1,165.78,294.18)" stroke-width=".53" stroke-linecap="round" stroke-linejoin="round" fill="none" stroke="#000000" d="M0 0H12.36"/>
<use data-text="=" xlink:href="#font_6_32" transform="matrix(10.9868,0,0,-11.0077,182.64,297.12)"/>
<use data-text="d" xlink:href="#font_5_69" transform="matrix(10.9868,0,0,-11.0077,166.86296,290.33927)"/>
<use data-text="y" xlink:href="#font_5_90" transform="matrix(10.9868,0,0,-11.0077,172.3234,290.33927)"/>
<use data-text="d" xlink:href="#font_5_69" transform="matrix(10.9868,0,0,-11.0077,166.74211,304.31904)"/>
<use data-text="x" xlink:href="#font_5_89" transform="matrix(10.9868,0,0,-11.0077,172.26189,304.31904)"/>
<use data-text=" " xlink:href="#font_2_1" transform="matrix(10.9591,0,0,-10.98,190.8,297.12)"/>
<use data-text="(" xlink:href="#font_2_9" transform="matrix(10.9591,0,0,-10.98,65.2745,335.0998)"/>
<use data-text="A" xlink:href="#font_2_34" transform="matrix(10.9591,0,0,-10.98,68.93374,335.0998)"/>
<use data-text=")" xlink:href="#font_2_10" transform="matrix(10.9591,0,0,-10.98,76.85607,335.0998)"/>
<use data-text=" " xlink:href="#font_2_1" transform="matrix(10.9591,0,0,-10.98,80.51531,335.0998)"/>
<use data-text="(" xlink:href="#font_6_11" transform="matrix(11.1089,0,0,-13.2638,93.9,335.4)"/>
<use data-text="4" xlink:href="#font_2_21" transform="matrix(7.9898,0,0,-8.0051,124.26,329.52)"/>
<use data-text="5" xlink:href="#font_2_22" transform="matrix(10.9861,0,0,-11.0069,87.72,335.1)"/>
<use data-text="1" xlink:href="#font_2_18" transform="matrix(10.9861,0,0,-11.0069,96.89999,335.1)"/>
<use data-text="+" xlink:href="#font_6_14" transform="matrix(10.9868,0,0,-11.0077,104.88,335.1)"/>
<use data-text="x" xlink:href="#font_5_89" transform="matrix(10.9868,0,0,-11.0077,114.83404,335.1)"/>
<use data-text=")" xlink:href="#font_6_12" transform="matrix(11.1089,0,0,-13.2638,120.4203,335.4)"/>
<use data-text="(" xlink:href="#font_2_9" transform="matrix(10.9591,0,0,-10.98,162.96,335.1)"/>
<use data-text="B" xlink:href="#font_2_35" transform="matrix(10.9591,0,0,-10.98,166.67404,335.1)"/>
<use data-text=")" xlink:href="#font_2_10" transform="matrix(10.9591,0,0,-10.98,173.99582,335.1)"/>
<use data-text="(" xlink:href="#font_6_11" transform="matrix(11.1085,0,0,-13.2499,185.76,345.9)"/>
<path transform="matrix(1,0,0,-1,185.16,332.16)" stroke-width=".53" stroke-linecap="round" stroke-linejoin="round" fill="none" stroke="#000000" d="M0 0H36.9"/>
<use data-text="4" xlink:href="#font_2_21" transform="matrix(7.9898,0,0,-8.0051,204.18,324.18)"/>
<use data-text="4" xlink:href="#font_2_21" transform="matrix(7.9898,0,0,-8.0051,216.11676,339.95805)"/>
<use data-text="1" xlink:href="#font_2_18" transform="matrix(10.9634,0,0,-10.9842,207.24,345.54)"/>
<use data-text="+" xlink:href="#font_6_14" transform="matrix(10.9634,0,0,-10.9842,198.84204,345.54)"/>
<use data-text="x" xlink:href="#font_5_89" transform="matrix(10.9634,0,0,-10.9842,198.60085,329.09666)"/>
<use data-text="x" xlink:href="#font_5_89" transform="matrix(10.9634,0,0,-10.9842,190.32349,345.54)"/>
<use data-text=")" xlink:href="#font_6_12" transform="matrix(11.1085,0,0,-13.2499,212.2804,345.9)"/>
<use data-text="(" xlink:href="#font_2_9" transform="matrix(10.9591,0,0,-10.98,257.1,335.1)"/>
<use data-text="C" xlink:href="#font_2_36" transform="matrix(10.9591,0,0,-10.98,260.76036,335.1)"/>
<use data-text=")" xlink:href="#font_2_10" transform="matrix(10.9591,0,0,-10.98,268.13584,335.1)"/>
<use data-text="(" xlink:href="#font_6_11" transform="matrix(11.1085,0,0,-13.2499,279.9,345.9)"/>
<path transform="matrix(1,0,0,-1,279.3,332.16)" stroke-width=".53" stroke-linecap="round" stroke-linejoin="round" fill="none" stroke="#000000" d="M0 0H36.9"/>
<use data-text="4" xlink:href="#font_2_21" transform="matrix(7.9898,0,0,-8.0051,300.96,324.18)"/>
<use data-text="4" xlink:href="#font_2_21" transform="matrix(7.9898,0,0,-8.0051,310.26014,339.95805)"/>
<use data-text="5" xlink:href="#font_2_22" transform="matrix(10.9634,0,0,-10.9842,289.38,329.1)"/>
<use data-text="1" xlink:href="#font_2_18" transform="matrix(10.9634,0,0,-10.9842,301.38493,345.54338)"/>
<use data-text="+" xlink:href="#font_6_14" transform="matrix(10.9634,0,0,-10.9842,292.98695,345.54338)"/>
<use data-text="x" xlink:href="#font_5_89" transform="matrix(10.9634,0,0,-10.9842,295.3879,329.1)"/>
<use data-text="x" xlink:href="#font_5_89" transform="matrix(10.9634,0,0,-10.9842,284.46836,345.54338)"/>
<use data-text=")" xlink:href="#font_6_12" transform="matrix(11.1085,0,0,-13.2499,306.4204,345.9)"/>
<use data-text="(" xlink:href="#font_2_9" transform="matrix(10.9591,0,0,-10.98,351.24,335.1)"/>
<use data-text="D" xlink:href="#font_2_37" transform="matrix(10.9591,0,0,-10.98,354.89924,335.1)"/>
<use data-text=")" xlink:href="#font_2_10" transform="matrix(10.9591,0,0,-10.98,362.82377,335.1)"/>
<use data-text="(" xlink:href="#font_6_11" transform="matrix(11.1085,0,0,-13.2499,374.64,345.9)"/>
<path transform="matrix(1,0,0,-1,374.04,332.16)" stroke-width=".53" stroke-linecap="round" stroke-linejoin="round" fill="none" stroke="#000000" d="M0 0H36.66"/>
<use data-text="4" xlink:href="#font_2_21" transform="matrix(7.9898,0,0,-8.0051,395.58,324.18)"/>
<use data-text="6" xlink:href="#font_2_23" transform="matrix(7.9898,0,0,-8.0051,404.76026,339.95805)"/>
<use data-text="5" xlink:href="#font_2_22" transform="matrix(10.9634,0,0,-10.9842,384,329.1)"/>
<use data-text="1" xlink:href="#font_2_18" transform="matrix(10.9634,0,0,-10.9842,396.11457,345.54338)"/>
<use data-text="+" xlink:href="#font_6_14" transform="matrix(10.9634,0,0,-10.9842,387.7166,345.54338)"/>
<use data-text="x" xlink:href="#font_5_89" transform="matrix(10.9634,0,0,-10.9842,389.997,329.1)"/>
<use data-text="x" xlink:href="#font_5_89" transform="matrix(10.9634,0,0,-10.9842,379.19807,345.54338)"/>
<use data-text=")" xlink:href="#font_6_12" transform="matrix(11.1085,0,0,-13.2499,401.1604,345.9)"/>
<use data-text="(" xlink:href="#font_2_9" transform="matrix(10.9591,0,0,-10.98,445.9795,335.1)"/>
<use data-text="E" xlink:href="#font_2_38" transform="matrix(10.9591,0,0,-10.98,449.64314,335.1)"/>
<use data-text=")" xlink:href="#font_2_10" transform="matrix(10.9591,0,0,-10.98,456.3534,335.1)"/>
<use data-text="(" xlink:href="#font_6_11" transform="matrix(11.1101,0,0,-13.2569,486.12,328.14)"/>
<use data-text="(" xlink:href="#font_6_11" transform="matrix(11.1101,0,0,-13.2569,477.29859,345.83799)"/>
<use data-text=")" xlink:href="#font_6_12" transform="matrix(11.1101,0,0,-13.2569,503.8184,345.83799)"/>
<path transform="matrix(1,0,0,-1,467.52,332.16)" stroke-width=".53" stroke-linecap="round" stroke-linejoin="round" fill="none" stroke="#000000" d="M0 0H54.96"/>
<use data-text="4" xlink:href="#font_2_21" transform="matrix(7.9891,0,0,-8.0041,479.88,322.86)"/>
<use data-text="6" xlink:href="#font_2_23" transform="matrix(7.9891,0,0,-8.0041,507.41844,339.95674)"/>
<use data-text="5" xlink:href="#font_2_22" transform="matrix(10.9849,0,0,-11.0058,468.3,327.78)"/>
<use data-text="2" xlink:href="#font_2_19" transform="matrix(10.9849,0,0,-11.0058,489.96003,327.78)"/>
<use data-text="1" xlink:href="#font_2_18" transform="matrix(10.9849,0,0,-11.0058,498.78309,345.54338)"/>
<use data-text="+" xlink:href="#font_6_14" transform="matrix(10.9849,0,0,-11.0058,504.90168,327.78)"/>
<use data-text="+" xlink:href="#font_6_14" transform="matrix(10.9849,0,0,-11.0058,490.37965,345.54338)"/>
<use data-text="x" xlink:href="#font_5_89" transform="matrix(10.9849,0,0,-11.0058,474.29774,327.78)"/>
<use data-text="x" xlink:href="#font_5_89" transform="matrix(10.9849,0,0,-11.0058,496.31806,327.78)"/>
<use data-text="x" xlink:href="#font_5_89" transform="matrix(10.9849,0,0,-11.0058,481.8004,345.54338)"/>
<use data-text="1" xlink:href="#font_2_18" transform="matrix(10.9849,0,0,-11.0058,513.3051,327.78)"/>
<use data-text=")" xlink:href="#font_6_12" transform="matrix(11.1101,0,0,-13.2569,518.3403,328.14)"/>
</g>
</svg>
