<svg xmlns="http://www.w3.org/2000/svg" xmlns:xlink="http://www.w3.org/1999/xlink" xmlns:inkscape="http://www.inkscape.org/namespaces/inkscape" version="1.1" width="603.3599853515625pt" height="467.23944091796875pt" viewBox="0.0 280.76055908203125 603.3599853515625 467.23944091796875">
<defs>
<clipPath id="clip_1">
<path transform="matrix(1,0,0,-1,0,783)" d="M0 9H603.36V783H0Z" clip-rule="evenodd"/>
</clipPath>
<path id="font_2_34" d="M.68899539 .024993897C.6409912 .022994996 .625 .057037355 .5799866 .16419983L.35699464 .6904297H.32899476L.10699463 .14216614C.07699585 .06706238 .06298828 .03300476 .008987427 .024993897V0H.21199036V.024993897C.17799378 .026992798 .12998963 .02999878 .12998963 .0680542 .12998963 .08407593 .1459961 .12515259 .17399597 .19726563H.39898683C.41299439 .16520691 .44499208 .09109497 .44499208 .0640564 .44499208 .03100586 .4269867 .02999878 .36499024 .024993897V0H.68899539V.024993897M.18899536 .23625183 .2829895 .4793396 .38398744 .23625183H.18899536Z"/>
<path id="font_3_54" d="M.651001 .71777346H.49798585V.24528504C.49798585 .15838623 .45599366 .108444217 .35299684 .108444217 .2829895 .108444217 .22499085 .15238953 .22499085 .25227357V.71777346H.07199097V.24229431C.07398987 .17036438 .08898926 .11242676 .12799073 .06843567 .19198609-.0025634766 .2899933-.018554688 .35598756-.018554688 .5369873-.018554688 .651001 .062438966 .651001 .25128175V.71777346Z"/>
<path id="font_3_79" d="M.54599 .36790467C.54599 .4848938 .46499635 .54589846 .36099244 .54589846 .2599945 .54589846 .21998596 .48588563 .20098877 .45388795H.19898987V.53222659H.06498718V0H.20498657V.30514527C.20498657 .38589479 .25299073 .42788697 .31498719 .42788697 .4039917 .42788697 .4059906 .36190797 .4059906 .32292176V0H.54599V.36790467Z"/>
<path id="font_3_66" d="M.49598695 .39190675C.49598695 .5228882 .35899354 .54589846 .28399659 .54589846 .1749878 .54589846 .06199646 .5228882 .04598999 .35990907H.18099976C.18499756 .39089967 .19699097 .43388368 .2669983 .43388368 .30299378 .43388368 .35899354 .43089295 .35899354 .37190248 .35899354 .34191896 .33198548 .33291627 .30999757 .32991029L.18399048 .3109131C.09498596 .29792787 .0289917 .24493408 .0289917 .1409607 .0289917 .031326295 .11099243-.013671875 .19099427-.013671875 .28599549-.013671875 .33099366 .030319214 .36299134 .063323978 .3659973 .032989503 .36799623 .024993897 .37599183 0H.5269928V.020996094C.5099945 .026992798 .49598695 .040985109 .49598695 .10397339V.39190675M.35899354 .19094849C.35899354 .12626648 .29599 .08631897 .23399353 .08631897 .20698548 .08631897 .16899109 .1013031 .16899109 .15023804 .16899109 .20817566 .21199036 .22116089 .2639923 .23014832 .32199098 .23913574 .34498597 .24812317 .35899354 .2591095V.19094849Z"/>
<path id="font_3_86" d="M.54499819 .53222659H.40499879V.22529602C.40499879 .13031006 .34298707 .10432434 .29699708 .10432434 .2539978 .10432434 .20599365 .12031555 .20599365 .20230103V.53222659H.06599426V.18229676C.06599426 .046325685 .14199829-.013671875 .24699402-.013671875 .32099916-.013671875 .3769989 .018325806 .40899659 .07531738H.41099549V0H.54499819V.53222659Z"/>
<path id="font_3_85" d="M.22200012 .67622378H.08198547V.53222659H.009994507V.43222047H.08198547V.10913086C.08198547 .040130617 .10398865-.005859375 .22499085-.005859375H.24299622C.2649994-.005859375 .2869873-.0048675539 .30899049-.0038604737V.102127078C.29899598 .101135257 .2889862 .100128177 .27999879 .100128177 .22299195 .100128177 .22200012 .11213684 .22200012 .1431427V.43222047H.30899049V.53222659H.22200012V.67622378Z"/>
<path id="font_3_73" d="M.54599 .36790467C.54599 .4848938 .46499635 .54589846 .36099244 .54589846 .2849884 .54589846 .22499085 .506897 .20698548 .46289063H.20498657V.71777346H.06498718V0H.20498657V.30491639C.20498657 .38589479 .25299073 .42788697 .31498719 .42788697 .4039917 .42788697 .4059906 .36190797 .4059906 .32292176V0H.54599V.36790467Z"/>
<path id="font_3_80" d="M.5779877 .26611329C.5779877 .45788575 .44898988 .54589846 .30599977 .54589846 .16299439 .54589846 .033996583 .45788575 .033996583 .26611329 .033996583 .07432556 .16299439-.013671875 .30599977-.013671875 .44898988-.013671875 .5779877 .07432556 .5779877 .26611329M.43399049 .26611329C.43399049 .19819641 .4139862 .10432434 .30599977 .10432434 .19799805 .10432434 .17799378 .19819641 .17799378 .26611329 .17799378 .3340149 .19799805 .42788697 .30599977 .42788697 .4139862 .42788697 .43399049 .3340149 .43399049 .26611329Z"/>
<path id="font_3_83" d="M.06399536 0H.20399475V.27719117C.20399475 .33624269 .22399903 .40429688 .33299256 .40429688 .34599305 .40429688 .36099244 .40429688 .37298585 .4022827V.54389956C.3639984 .54489138 .35499574 .54589846 .34599305 .54589846 .26098634 .54589846 .22898865 .4940338 .19999695 .44018556H.19799805V.53222659H.06399536V0Z"/>
<path id="font_3_74" d="M.068984989 .53222659V0H.20899964V.53222659H.068984989M.20899964 .7246094H.068984989V.5946045H.20899964V.7246094Z"/>
<path id="font_3_91" d="M.46998597 .41722108V.53222659H.038986207V.4202118H.29299928L.019989014 .10899353V0H.47999574V.114990238H.20098877L.46998597 .41722108Z"/>
<path id="font_3_70" d="M.37799073 .1563263C.36698915 .11831665 .32699586 .09832764 .28799439 .09832764 .1749878 .09832764 .16699219 .18832398 .16299439 .22833252H.5279999V.25332643C.5279999 .4958954 .3829956 .54589846 .27799989 .54589846 .04499817 .54589846 .022994996 .34124757 .022994996 .2773285 .022994996 .05831909 .13798523-.013671875 .28799439-.013671875 .3789978-.013671875 .4850006 .028320313 .5219879 .1563263H.37799073M.16699219 .31933595C.1749878 .38905335 .20999146 .43089295 .27598573 .43089295 .32099916 .43089295 .37599183 .40499879 .38398744 .31933595H.16699219Z"/>
<path id="font_3_69" d="M.5509949 .71777346H.41099549V.46289063H.40899659C.3869934 .4968872 .34498597 .54589846 .25498963 .54589846 .13798523 .54589846 .033996583 .45588685 .033996583 .27209474 .033996583 .12628174 .099990848-.013671875 .2579956-.013671875 .31599427-.013671875 .37799073 .0073242189 .4119873 .06732178H.4139862V0H.5509949V.71777346M.17799378 .26210023C.17799378 .34599305 .20799256 .42489625 .29699708 .42489625 .3929901 .42489625 .4169922 .33900453 .4169922 .25411988 .4169922 .17521668 .38198854 .10131836 .29299928 .10131836 .20298767 .10131836 .17799378 .19918823 .17799378 .26210023Z"/>
<path id="font_3_1" d="M0 0Z"/>
<path id="font_3_68" d="M.3809967 .19419861C.3809967 .16923523 .35699464 .10131836 .28599549 .10131836 .17999268 .10131836 .17799378 .21617127 .17799378 .27409364 .17799378 .3400116 .20098877 .42788697 .2889862 .42788697 .35398866 .43188478 .37599183 .37695313 .38198854 .3420105H.5239868C.5109863 .5078888 .37298585 .54589846 .2889862 .54589846 .10899353 .54589846 .033996583 .42289735 .033996583 .25112916 .033996583 .13926697 .07998657-.013671875 .27999879-.013671875 .47499085-.013671875 .5179901 .13926697 .522995 .19419861H.3809967Z"/>
<path id="font_3_81" d="M.19599915 .25411988C.19599915 .33900453 .21899414 .42489625 .31498719 .42489625 .4039917 .42489625 .43399049 .34599305 .43399049 .26210023 .43399049 .19918823 .40899659 .10131836 .31900025 .10131836 .22999573 .10131836 .19599915 .17521668 .19599915 .25411988M.19599915 .53222659H.06199646V-.20703125H.20199585V.0683136H.20399475C.22099304 .0393219 .2559967-.013671875 .35398866-.013671875 .5119934-.013671875 .5779877 .12631226 .5779877 .27226258 .5779877 .45588685 .47399903 .54589846 .35699464 .54589846 .2630005 .54589846 .22399903 .4968872 .19799805 .45489503H.19599915V.53222659Z"/>
<path id="font_3_90" d="M.5389862 .53222659H.3909912L.28199769 .14016724H.27999879L.1659851 .53222659H.009994507L.20599365-.021865845C.19299317-.09487915 .16499329-.101867679 .11399841-.101867679 .101989749-.101867679 .09298706-.100875858 .08699036-.099868778V-.21186829C.10699463-.21287537 .1309967-.21386719 .1499939-.21386719 .27198792-.21386719 .2899933-.18788147 .35598756 .009140015L.5389862 .53222659Z"/>
<path id="font_3_72" d="M.4189911 .53222659V.45289613H.4169922C.3999939 .48788453 .3600006 .54589846 .26098634 .54589846 .14399719 .54589846 .039993287 .45588685 .039993287 .27197267 .039993287 .08605957 .14099121-.0029296876 .2689972-.0029296876 .35299684-.0029296876 .3880005 .03605652 .41099549 .077056888L.41299439 .07505798V.011062622C.41299439-.07484436 .3769989-.110809329 .3019867-.110809329 .22099304-.110809329 .20999146-.08383179 .20399475-.056869508H.051986696C.057998659-.1697998 .17399597-.21679688 .28399659-.21679688 .54599-.21679688 .5529938-.06385803 .5529938 .028060914V.53222659H.4189911M.18399048 .26313783C.18399048 .3869171 .24198914 .42489625 .2939911 .42489625 .37199403 .42489625 .4139862 .3549347 .4139862 .26898194 .4139862 .1960144 .3899994 .11506653 .29499818 .11506653 .21199036 .11506653 .18399048 .19509888 .18399048 .26313783Z"/>
<path id="font_3_84" d="M.5029907 .37002564C.49198915 .51989749 .36799623 .54589846 .2639923 .54589846 .09799194 .54589846 .04899597 .44589234 .04899597 .36802674 .04899597 .1691742 .3789978 .23609925 .3789978 .1472168 .3789978 .1272583 .3619995 .092315677 .2899933 .092315677 .20199585 .092315677 .17399597 .1252594 .17399597 .17016602H.02999878C.033996583 .028320313 .16499329-.013671875 .28599549-.013671875 .36898805-.013671875 .5189972 .014328003 .5189972 .1691742 .5189972 .365036 .18598938 .3040924 .18598938 .38798524 .18598938 .4109497 .19599915 .43989564 .27198792 .43989564 .34799195 .43989564 .3600006 .40396119 .3659973 .37002564H.5029907Z"/>
<path id="font_3_71" d="M.22698975 .43222047H.31799317V.53222659H.22698975V.55303958C.22698975 .5966797 .22799683 .611557 .27598573 .611557H.31498719V.72454836C.30299378 .7255554 .28399659 .7265625 .24299622 .7265625 .14698792 .7265625 .08699036 .68455508 .08699036 .5748596V.53222659H.009994507V.43222047H.08699036V0H.22698975V.43222047Z"/>
<path id="font_3_77" d="M.20899964 .71777346H.068984989V0H.20899964V.71777346Z"/>
<path id="font_3_15" d="M.21398926 .1459961H.06399536V0H.21398926V.1459961Z"/>
<path id="font_3_40" d="M.41299439 .26660157H.5799866C.548996 .1214447 .43899537 .108444217 .4059906 .108444217 .3039856 .108444217 .19699097 .15948487 .19699097 .35559083 .19699097 .5393982 .29599 .6132965 .40299989 .6132965 .5089874 .6132965 .55999758 .52342227 .55999758 .49545289H.70999148C.70199587 .59432986 .61499026 .7373047 .394989 .7373047 .15299988 .7382965 .04399109 .55337527 .04399109 .35758973 .04399109 .10543823 .20098877-.018554688 .37399293-.018554688 .5049896-.018554688 .55999758 .046432496 .59799197 .09043884L.61299136 0H.71299746V.3875885H.41299439V.26660157Z"/>
<path id="font_3_48" d="M.04399109 .359375C.04399109 .02243042 .2939911-.018554688 .3889923-.018554688 .48399354-.018554688 .73399356 .02243042 .73399356 .359375 .73399356 .6963043 .48399354 .7373047 .3889923 .7373047 .2939911 .7373047 .04399109 .6963043 .04399109 .359375M.19400025 .359375C.19400025 .560318 .30799867 .6102905 .3889923 .6102905 .46998597 .6102905 .58399966 .560318 .58399966 .359375 .58399966 .15841675 .46998597 .108444217 .3889923 .108444217 .30799867 .108444217 .19400025 .15841675 .19400025 .359375Z"/>
<path id="font_3_47" d="M.5139923 .21792603H.5119934L.22698975 .71777346H.068984989V0H.20899964V.5118408H.21099854L.5039978 0H.6539917V.71777346H.5139923V.21792603Z"/>
<path id="font_3_53" d="M.3809967 .5907593H.59799197V.71777346H.01399231V.5907593H.23098755V0H.3809967V.5907593Z"/>
<path id="font_3_41" d="M.5009918 .32226563V0H.651001V.71777346H.5009918V.44625855H.22099304V.71777346H.070999149V0H.22099304V.32226563H.5009918Z"/>
<path id="font_3_38" d="M.60398867 .71777346H.07598877V0H.62098696V.1269989H.22299195V.3125H.57299807V.4394989H.22299195V.5907593H.60398867V.71777346Z"/>
<path id="font_3_57" d="M.4189911 .37287904 .6380005 .71777346H.46499635L.33399964 .48583985 .20599365 .71777346H.026992798L.24598694 .36688233 .01399231 0H.18899536L.33399964 .24491883 .46998597 0H.6529999L.4189911 .37287904Z"/>
<path id="font_3_49" d="M.22599793 .25880433H.397995C.59098818 .25880433 .6269989 .42279054 .6269989 .4877777 .6269989 .6287689 .54299929 .71777346 .4039917 .71777346H.07598877V0H.22599793V.25880433M.22599793 .3828125V.59376528H.34498597C.43798829 .59376528 .47698976 .56477358 .47698976 .4947815 .47698976 .4627838 .47698976 .3828125 .36499024 .3828125H.22599793Z"/>
<path id="font_3_34" d="M.22799683 .1474762H.49299623L.5389862 0H.70199587L.44898988 .71777346H.27598573L.019989014 0H.17799378L.22799683 .1474762M.3600006 .55566409H.3619995L.45098878 .27148438H.2679901L.3600006 .55566409Z"/>
<path id="font_3_14" d="M.30599977 .34483338H.026992798V.21484375H.30599977V.34483338Z"/>
<path id="font_3_21" d="M.12998963 .2662201 .30799867 .57095339H.30999757C.30999757 .54896548 .30699159 .43806459 .30699159 .2662201H.12998963M.526001 .2662201H.44699098V.70996096H.28799439L.026992798 .2782135V.15722656H.30699159V0H.44699098V.15722656H.526001V.2662201Z"/>
<path id="font_4_18" d="M.117996219 0H.3939972V.01499939C.31900025 .01499939 .29899598 .025985718 .29899598 .07397461V.67378237L.29100038 .67578127 .11099243 .58480837V.57081606C.16699219 .59280398 .16699219 .59280398 .1789856 .59280398 .21299744 .59280398 .21299744 .56681826 .21299744 .54582217V.0929718C.21299744 .018997193 .17599488 .016998291 .117996219 .01499939V0Z"/>
<path id="font_4_15" d="M.125-.0107421879C.1459961-.0107421879 .18099976 .0062561037 .18099976 .04324341 .18099976 .07424927 .15499878 .100250247 .125 .100250247 .09498596 .100250247 .069992069 .07525635 .069992069 .04324341 .069992069 .0052490236 .10398865-.0107421879 .125-.0107421879Z"/>
<path id="font_5_11" d="M.30000306-.17440796 .29000855-.19140625C.2773336-.19273885 .2506663-.17340088 .21000672-.13339234 .16466777-.0900472 .13066609-.047032674 .10800171-.004348755 .07132975 .06566874 .052993776 .1473592 .052993776 .24072266 .052993776 .3340861 .07132975 .41577659 .10800171 .48579408 .13066609 .52847799 .16466777 .5714925 .21000672 .61483767 .2506663 .6548462 .2773336 .67418417 .29000855 .67285159L.30000306 .6558533C.2500051 .61583456 .21366883 .5734863 .19099427 .5288086 .18433126 .5154724 .17399597 .48546348 .1599884 .43878175 .1446584 .3881022 .13699341 .32208253 .13699341 .24072266 .13699341 .1593628 .1446584 .0933431 .1599884 .042663576 .17399597-.004018148 .18433126-.0340271 .19099427-.04736328 .21366883-.092041019 .2500051-.13438924 .30000306-.17440796Z"/>
<path id="font_5_12" d="M.039993287-.19140625 .02999878-.17440796C.07999674-.13438924 .11632792-.092041019 .13899231-.04736328 .14566548-.0340271 .15600078-.004018148 .16999817 .042663576 .18532817 .0933431 .19299317 .15935771 .19299317 .2407074 .19299317 .32272849 .18532817 .38907878 .16999817 .4397583 .15600078 .48644004 .14566548 .516449 .13899231 .52978518 .11632792 .5744629 .07999674 .6168111 .02999878 .65682986L.039993287 .6738281C.05265808 .6751607 .079325359 .65582278 .11999512 .6158142 .1653239 .57246908 .19932556 .5294545 .22200012 .48677064 .2586619 .41675315 .2769928 .33473207 .2769928 .2407074 .2769928 .14735413 .2586619 .06566874 .22200012-.004348755 .19932556-.047032674 .1653239-.0900472 .11999512-.13339234 .079325359-.17340088 .05265808-.19273885 .039993287-.19140625Z"/>
<path id="font_4_19" d="M.47499085 .13696289 .46199037 .14196778C.4229889 .07899475 .4039917 .07598877 .36698915 .07598877H.12799073L.29599 .2519226C.33999635 .29890443 .42399598 .38986207 .42399598 .4958191 .42399598 .6077728 .33399964 .67578127 .24299622 .67578127 .15499878 .67578127 .06098938 .6277771 .0309906 .4768219L.051986696 .47183229C.07398987 .5258026 .10398865 .6017761 .19499207 .6017761 .31298829 .6017761 .33799745 .5098114 .33799745 .4588318 .33799745 .38386537 .29499818 .29389955 .20799256 .200943L.02999878 .011993408V0H.41999818L.47499085 .13696289Z"/>
<path id="font_4_77" d="M.020996094 0H.25698854V.01499939C.19898987 .017990113 .18199158 .025985718 .18199158 .08395386V.680603L.17799378 .6826172C.125 .66563418 .07199097 .65164187 .018997193 .6386719V.6226654C.0309906 .6236725 .039993287 .6246643 .052993776 .6246643 .09199524 .6246643 .09799194 .6086731 .09799194 .56370547V.08695984C.09799194 .031982423 .07998657 .018997193 .020996094 .01499939V0Z"/>
<path id="font_4_74" d="M.015991211 0H.25299073V.01499939C.18399048 .018997193 .1789856 .036010744 .1789856 .10205078V.4569702L.1749878 .45996095C.12298584 .4410553 .07199097 .42216493 .019989014 .40527345V.3902588C.032989503 .3922577 .04598999 .39427186 .05999756 .39427186 .07598877 .39427186 .09498596 .39326478 .09498596 .33422853V.10205078C.09498596 .024002076 .07798767 .017990113 .015991211 .01499939V0M.07798767 .63160708C.07798767 .61260989 .09199524 .5806122 .12799073 .5806122 .1579895 .5806122 .17999268 .60261538 .17999268 .63160708 .17999268 .65960696 .1579895 .6826172 .12799073 .6826172 .09298706 .6826172 .07798767 .65060427 .07798767 .63160708Z"/>
<path id="font_4_78" d="M.085998538 .084991458C.085998538 .017990113 .055999757 .015991211 .015991211 .01499939V0H.23799134V.01499939C.20298767 .015991211 .16999817 .017990113 .16999817 .066986087V.34895326C.16999817 .35395814 .21598816 .40795899 .2849884 .40795899 .33699037 .40795899 .35398866 .36895753 .35398866 .30296327V.08598328C.35398866 .020996094 .33099366 .017990113 .28599549 .01499939V0H.5099945V.01499939C.46899415 .015991211 .43798829 .018997193 .43798829 .09498596V.34695436C.45999146 .38095094 .49398805 .40795899 .548996 .40795899 .62098696 .40795899 .621994 .34895326 .621994 .29795838V.08699036C.621994 .022994996 .60598757 .020996094 .55599978 .01499939V0H.7749939V.01499939L.7489929 .016998291C.7049866 .023986817 .70599368 .053985597 .70599368 .07598877V.28196717C.70599368 .35595704 .69200137 .45996095 .58799746 .45996095 .5089874 .45996095 .44799806 .39994813 .4269867 .3759613 .41600038 .4179535 .3849945 .45996095 .31999208 .45996095 .2659912 .45996095 .22499085 .427948 .1659851 .38294984V.45794679L.15899658 .45996095C.11299133 .44303895 .06599426 .4280243 .018997193 .41503907V.3980255C.026992798 .40003968 .036987306 .40203858 .050994874 .40203858 .066986087 .40203858 .085998538 .4010315 .085998538 .33802796V.084991458Z"/>
<path id="font_4_84" d="M.31498719 .31404115 .31098939 .45117188H.2999878C.29699708 .44696046 .2919922 .43995667 .2829895 .43995667 .2659912 .43995667 .23498535 .45996095 .19099427 .45996095 .09399414 .45996095 .050994874 .39398194 .050994874 .3380127 .050994874 .2640686 .10598755 .22709656 .16799927 .19210816L.22599793 .15913391C.2579956 .1411438 .27799989 .11715698 .27799989 .08517456 .27799989 .028213501 .23098755 .01222229 .19699097 .01222229 .09899902 .01222229 .07998657 .09916687 .067993167 .15213013H.051986696V-.00390625H.06498718C.070999149 .0052337648 .07499695 .008224487 .08699036 .008224487 .114990238 .009231567 .1579895-.009765625 .20298767-.009765625 .2669983-.009765625 .34799195 .032211305 .34799195 .119155887 .34799195 .17912293 .31298829 .20710755 .2639923 .2370758L.1559906 .30104066C.11898804 .32302857 .11299133 .352005 .11299133 .37199403 .11299133 .39797975 .13398743 .43695069 .18899536 .43695069 .23298645 .43695069 .27799989 .41596986 .2999878 .31404115H.31498719Z"/>
<path id="font_4_79" d="M.07998657 .08998108C.07998657 .0309906 .06498718 .017990113 .017990113 .01499939V0H.22999573V.01499939C.17799378 .017990113 .1639862 .033996583 .1639862 .066986087V.34796144C.20199585 .38494874 .23298645 .404953 .2630005 .404953 .32199098 .404953 .33999635 .36895753 .33999635 .30796815V.098983768C.33999635 .022994996 .31399537 .017990113 .2769928 .01499939V0H.4850006V.01499939C.43598939 .018997193 .42399598 .033996583 .42399598 .08097839V.30996705C.42399598 .43295289 .35299684 .45996095 .30699159 .45996095 .24798584 .45996095 .20999146 .42495729 .16099549 .37895204V.45794679L.1539917 .45996095C.10798645 .44303895 .06098938 .4280243 .015991211 .41503907V.3980255C.019989014 .40003968 .0309906 .40203858 .04499817 .40203858 .06098938 .40203858 .07998657 .4010315 .07998657 .33802796V.08998108Z"/>
<path id="font_6_89" d="M.4019928 .11128235C.375 .08126831 .35499574 .04425049 .33399964 .04425049 .31399537 .04425049 .30699159 .06925964 .30299378 .08526611 .29699708 .11027527 .2630005 .24633789 .2630005 .26434327 .2630005 .26434327 .33099366 .38539125 .3600006 .38539125 .38198854 .38539125 .3889923 .36839295 .41299439 .36839295 .43699647 .36839295 .44699098 .3874054 .44699098 .4053955 .44699098 .42939759 .4249878 .44140626 .4059906 .44140626 .35398866 .44140626 .30699159 .3804016 .25498963 .2983551L.24398804 .3533783C.22599793 .44140626 .21099854 .44140626 .18899536 .44140626 .15699768 .44140626 .09098816 .41740418 .06399536 .4084015L.067993167 .3934021C.099990848 .4013977 .11399841 .4044037 .12298584 .4044037 .1499939 .4044037 .1539917 .39039613 .16299439 .359375 .1639862 .35438539 .19799805 .22132874 .19799805 .21232605 .10798645 .08126831 .08198547 .04725647 .06498718 .04725647 .04699707 .04725647 .0289917 .06625366 .0069885256 .06625366-.015014648 .06625366-.027008057 .04824829-.027008057 .03225708-.027008057 .008255005-.011001587-.0107421879 .021987915-.0107421879 .052993776-.0107421879 .06498718 .00024414063 .08198547 .019256592 .115997318 .056259157 .1579895 .11027527 .20599365 .17630005L.23599243 .056259157C.24899292 .003250122 .2639923-.0107421879 .29299928-.0107421879 .31599427-.0107421879 .34498597-.0107421879 .41600038 .103271488L.4019928 .11128235Z"/>
<path id="font_7_83" d="M.53900149 .4501953 .5169983 .3701172H.40100099C.3876648 .3347982 .36566163 .2668152 .33499146 .16616822 .33099366 .150177 .32899476 .135849 .32899476 .123184207 .32899476 .09119161 .34299723 .07519531 .3710022 .07519531 .38633219 .07519531 .40082804 .081843059 .41448976 .09513855 .42816163 .108434047 .43766276 .124053958 .44299317 .14199829H.46299745C.45232646 .10006714 .43215943 .06429037 .40249635 .03466797 .37283326 .0050455729 .34300233-.009765625 .31300355-.009765625 .27366639-.009765625 .2539978 .01622518 .2539978 .06820679 .2539978 .09153239 .2583313 .11919149 .2669983 .15118408 .28033448 .19916789 .30599977 .2721456 .34399415 .3701172H.23999024C.22332764 .3241272 .20766194 .2818044 .19299317 .2431488 .1569926 .15051778 .12832642 .08320618 .10699463 .04121399 .09966024 .027216593 .0888265 .015218099 .07449341 .005218506 .06016032-.0047709147 .04732768-.009765625 .035995485-.009765625 .009994507-.009765625-.0030059815 .00289917-.0030059815 .02822876-.0030059815 .043548585 .012329102 .06587219 .042999269 .095199588 .07699585 .1278534 .09766134 .1535136 .10499573 .17218018L.18299866 .3701172H.14199829C.10933431 .3701172 .07667033 .35074363 .044006349 .31199647H.027999878C.08199564 .40412904 .13899739 .4501953 .19900513 .4501953H.53900149Z"/>
<path id="font_5_144" d="M.04899597 .22000122V.27600099H.84399417C.81065878 .30863444 .7536621 .37522889 .67300418 .4757843L.7080078 .5107422C.7746684 .4314982 .85833236 .3439331 .95899966 .24804688 .85833236 .15216065 .7746684 .06459554 .7080078-.0146484379L.67300418 .02029419C.7536621 .12081909 .81065878 .1873881 .84399417 .22000122H.04899597Z"/>
<path id="font_5_16" d="M.011001587 .23339844V.28808595H.53500369V.23339844H.011001587Z"/>
<path id="font_4_1" d="M0 0Z"/>
<path id="font_4_9" d="M.29499818 .67578127C.13999939 .58377078 .04798889 .43377687 .04798889 .2617798 .04798889 .1237793 .08099365 .05177307 .12998963-.020233155 .16799927-.07623291 .23399353-.14622498 .2919922-.17723084L.3039856-.16122437C.13398743-.052230836 .13398743 .16677857 .13398743 .2687683 .13398743 .5227661 .22999573 .60076907 .3039856 .6597748L.29499818 .67578127Z"/>
<path id="font_4_34" d="M.70599368 .018997193C.6619873 .021987915 .647995 .032974245 .6159973 .10592651L.36698915 .6738281H.34700013L.13899231 .18286133C.11999512 .1388855 .08898926 .06594849 .06599426 .04096985 .04798889 .021987915 .0309906 .019989014 .01499939 .018997193V0H.21299744V.018997193C.19198609 .018997193 .14498902 .018997193 .14498902 .060958864 .14498902 .07194519 .147995 .0859375 .15299988 .09892273L.19898987 .21583557H.46099855L.5019989 .119903568C.5079956 .10592651 .5209961 .07295227 .5209961 .05696106 .5209961 .019989014 .48799134 .018997193 .45098878 .018997193V0H.70599368V.018997193M.21598816 .25683595 .33099366 .53182986 .44699098 .25683595H.21598816Z"/>
<path id="font_4_10" d="M.037994386-.17723084C.19299317-.08522034 .2849884 .06477356 .2849884 .23677063 .2849884 .37477113 .2519989 .44677735 .20298767 .5187683 .16499329 .57476809 .09899902 .6447754 .040985109 .67578127L.0289917 .6597748C.19898987 .550766 .19898987 .33177186 .19898987 .22976685 .19898987-.024230957 .102996829-.10223389 .0289917-.16122437L.037994386-.17723084Z"/>
<path id="font_4_35" d="M.016998291 .6430969C.09899902 .6390991 .11299133 .6271057 .11299133 .55311587V.10903931C.11299133 .038009645 .100997928 .020996094 .016998291 .018997193V0H.35099793C.57299807 0 .59298709 .13806153 .59298709 .17608643 .59298709 .2811432 .5130005 .3291626 .42599488 .34716798V.34916688C.47099305 .36016847 .5589905 .38215638 .5589905 .49313355 .5589905 .6481018 .38398744 .6621094 .29699708 .6621094H.016998291V.6430969M.21499634 .32617188C.31098939 .32617188 .34298707 .321167 .3769989 .31115724 .42900086 .29515077 .47799684 .26213075 .47799684 .18008423 .47799684 .04600525 .35699464 .036987306 .29100038 .036987306 .23298645 .036987306 .21499634 .041000368 .21499634 .07801819V.32617188M.21499634 .59510806C.21499634 .6101074 .21699524 .62409976 .23699951 .62409976 .24699402 .62409976 .26098634 .6251068 .28199769 .6251068 .35299684 .6251068 .45700074 .6061096 .45700074 .48713685 .45700074 .36816407 .33799745 .36616517 .30999757 .36616517L.21499634 .36515809V.59510806Z"/>
<path id="font_4_36" d="M.6199951 .450943 .61099246 .67578127H.58999636C.58200076 .6427765 .548996 .6427765 .5439911 .6427765 .5219879 .6427765 .45700074 .67578127 .36799623 .67578127 .19599915 .67578127 .027999878 .5548401 .027999878 .3310547 .027999878 .08227539 .20098877-.013671875 .3619995-.013671875 .54599-.013671875 .6319885 .11125183 .6329956 .11325073L.61499026 .13122559C.58399966 .101257327 .5119934 .030319214 .3889923 .030319214 .2630005 .030319214 .14399719 .117248538 .14399719 .3290558 .14399719 .47291566 .18798828 .53686526 .22698975 .5748291 .2689972 .6157837 .32699586 .6357727 .3769989 .6357727 .5 .6357727 .57199099 .55584719 .5970001 .450943H.6199951Z"/>
<path id="font_4_17" d="M.25 .6497803C.37799073 .6497803 .37998963 .39898683 .37998963 .33103944 .37998963 .25212098 .37799073 .012313843 .25 .012313843 .12199402 .012313843 .11999512 .25012208 .11999512 .33103944 .11999512 .39898683 .12199402 .6497803 .25 .6497803M.25 .67578127C.06599426 .67578127 .023986817 .4489441 .023986817 .33103944 .023986817 .21014405 .06599426-.013671875 .25-.013671875 .43399049-.013671875 .47599793 .21014405 .47599793 .33103944 .47599793 .4489441 .43399049 .67578127 .25 .67578127Z"/>
<path id="font_4_37" d="M.015991211 0H.2999878C.60598757 0 .68499758 .1960144 .68499758 .32904054 .68499758 .5530853 .526001 .6621094 .28599549 .6621094H.015991211V.6430969C.09298706 .6371002 .10398865 .6271057 .10398865 .5530853V.10900879C.10398865 .039001466 .09199524 .022994996 .015991211 .018997193V0M.20599365 .5860901C.20599365 .60609439 .20599365 .6251068 .25299073 .6251068 .3789978 .6251068 .43499757 .59809878 .48298646 .5550842 .5519867 .4930725 .57598879 .4120636 .57598879 .3280487 .57598879 .036987306 .32998658 .036987306 .2659912 .036987306 .21798706 .036987306 .20599365 .04399109 .20599365 .07800293V.5860901Z"/>
<path id="font_4_38" d="M.5970001 .16905213H.56900027C.5249939 .06800842 .47499085 .037994386 .34999085 .037994386 .20098877 .037994386 .20098877 .038986207 .20098877 .08001709V.32814027L.35499574 .32614137C.43798829 .32513429 .45298768 .3111267 .46499635 .23109436H.48799134V.4631195H.46499635C.45399476 .39213563 .44400025 .36813355 .35499574 .36813355H.20098877V.59010317C.20098877 .62409976 .21299744 .62409976 .23399353 .62409976H.36898805C.47999574 .62409976 .5059967 .6081085 .5209961 .51911929H.54599L.54299929 .6621094H.011993408V.6430969C.07499695 .6381073 .09899902 .63209536 .09899902 .55311587V.10903931C.09899902 .03199768 .07598877 .022994996 .011993408 .018997193V0H.5519867L.5970001 .16905213Z"/>
<path id="font_4_80" d="M.24499512 .45996095C.11099243 .45996095 .0289917 .35101319 .0289917 .22808838 .0289917 .093170169 .11898804-.009765625 .24798584-.009765625 .3999939-.009765625 .46998597 .12915039 .46998597 .22808838 .46998597 .3730011 .37599183 .45996095 .24499512 .45996095M.2619934 .018234253C.14199829 .018234253 .11898804 .20210266 .11898804 .276062 .11898804 .37998963 .17399597 .4319458 .23699951 .4319458 .32899476 .4319458 .37998963 .32302857 .37998963 .19911194 .37998963 .05619812 .31298829 .018234253 .2619934 .018234253Z"/>
<path id="font_4_70" d="M.4079895 .16427613C.3849945 .1272583 .34199525 .05921936 .25299073 .05921936 .18699646 .05921936 .10598755 .100250247 .09399414 .27734376H.40499879C.3939972 .40800477 .32299806 .45996095 .22898865 .45996095 .14898682 .45996095 .024993897 .3990326 .024993897 .21430969 .024993897 .07223511 .100997928-.009765625 .21199036-.009765625 .35598756-.009765625 .4139862 .12626648 .42399598 .15727234L.4079895 .16427613M.09700012 .30934144C.11299133 .39704896 .1519928 .4239502 .20698548 .4239502 .28599549 .4239502 .29599 .35717774 .30299378 .30934144H.09700012Z"/>
<path id="font_4_89" d="M.3019867 .07310486C.30599977 .068099979 .31799317 .05607605 .31799317 .041046144 .31799317 .020004273 .30899049 .015991211 .27799989 .01499939V0H.47898866V.01499939C.46199037 .015991211 .43499757 .016998291 .39698792 .07510376L.2689972 .27148438 .35198976 .39126588C.3600006 .40423585 .3899994 .43418885 .43299867 .43518067V.4501953H.2749939V.43518067C.2919922 .43418885 .31498719 .43319703 .31498719 .41223146 .31498719 .40124513 .30899049 .3922577 .24798584 .30441285 .22898865 .33337403 .18798828 .3942566 .18798828 .41223146 .18798828 .43319703 .21299744 .43518067 .23098755 .43518067V.4501953H.023986817V.43518067C.056991579 .43618775 .068984989 .43618775 .10998535 .37528993L.20399475 .23139954 .08999634 .066085819C.057998659 .020004273 .04399109 .018005372 .016998291 .01499939V0H.1619873V.01499939C.14498902 .01499939 .12399292 .01499939 .12199402 .03302002 .12199402 .044052125 .13598633 .065093997 .14199829 .07409668L.22099304 .19734192 .3019867 .07310486Z"/>
<path id="font_4_85" d="M.25498963 .4501953H.1539917V.5661926C.1539917 .57418826 .1539917 .5791931 .14698792 .5791931 .10998535 .5261841 .09498596 .5041809 .056991579 .4651947 .034988405 .44319154 .0129852299 .43719483 .0129852299 .42518617 .0129852299 .42218019 .01499939 .41918946 .016998291 .41818238H.069992069V.11721802C.069992069 .017227173 .11099243-.009765625 .1619873-.009765625 .20799256-.009765625 .25498963 .023223877 .2789917 .066223148L.2659912 .07722473C.25498963 .06422424 .23699951 .04222107 .20498657 .04222107 .1539917 .04222107 .1539917 .10122681 .1539917 .1322174V.41818238H.25498963V.4501953Z"/>
<path id="font_4_39" d="M.47898866 .23109436V.4631195H.45599366C.44599916 .38813783 .42799378 .36813355 .34599305 .36813355H.20098877V.59010317C.20098877 .6201019 .20799256 .62409976 .23298645 .62409976H.36898805C.47999574 .62409976 .5059967 .6081085 .5209961 .51911929H.54599L.54299929 .6621094H.011993408V.6430969C.07499695 .6381073 .09899902 .63209536 .09899902 .55311587V.12004089C.09899902 .037994386 .08699036 .022994996 .011993408 .018997193V0H.2919922V.018997193C.22099304 .021987915 .20098877 .033996583 .20098877 .10903931V.32814027L.34599305 .32614137C.42099 .32513429 .44499208 .31513978 .45599366 .23109436H.47898866Z"/>
<path id="font_4_83" d="M.07598877 .083984378C.07598877 .02798462 .05999756 .024993897 .004989624 .01499939V0H.24499512V.01499939C.19400025 .016998291 .1599884 .020996094 .1599884 .08998108V.31495667C.1599884 .34695436 .20399475 .3969574 .22799683 .3969574 .2519989 .3969574 .2619934 .36195375 .29699708 .36195375 .32099916 .36195375 .33499146 .38095094 .33499146 .40596009 .33499146 .43894959 .31498719 .45996095 .2809906 .45996095 .24299622 .45996095 .20899964 .43995667 .1619873 .36895753H.1599884V.45794679L.15499878 .45996095C.10598755 .44024659 .055999757 .4222412 .0069885256 .40625V.39024354C.015991211 .39224244 .026992798 .39424134 .040985109 .39424134 .056991579 .39424134 .07598877 .39323426 .07598877 .334198V.083984378Z"/>
<path id="font_6_85" d="M.29599 .42773438H.21598816L.24398804 .5307312C.24598694 .5387268 .24398804 .5477295 .23699951 .5457306 .22799683 .5477295 .22399903 .5387268 .21998596 .5337219 .19198609 .49873353 .14399719 .4537201 .11099243 .4367218 .09399414 .42773438 .06599426 .4207306 .05999756 .4117279 .056991579 .40672303 .056991579 .4017334 .057998659 .39572145H.13198853L.05999756 .12112427C.055999757 .105148319 .036987306 .04423523 .036987306 .029251099 .036987306-.00074768069 .06498718-.0107421879 .084991458-.0107421879 .13699341-.0107421879 .17599488 .0332489 .22698975 .11013794L.21398926 .11714172C.18899536 .08517456 .1539917 .038253786 .13398743 .038253786 .12298584 .038253786 .117996219 .04623413 .117996219 .055221559 .117996219 .05822754 .117996219 .06021118 .11898804 .06321716L.20698548 .39572145H.29100038L.29599 .42773438Z"/>
<path id="font_5_33" d="M.522995 .2922516V.23020935L.026000977 0V.062057496L.45899964 .26123048 .026000977 .46040345V.52246096L.522995 .2922516Z"/>
<path id="font_4_13" d="M.08299255-.1409607C.11299133-.13087464 .19499207-.06486511 .19499207 .006134033 .19499207 .08912659 .13699341 .102127078 .11399841 .102127078 .08898926 .102127078 .055999757 .087127689 .055999757 .044128419 .055999757 .004135132 .09199524-.005859375 .117996219-.005859375 .125-.005859375 .12998963-.0048675539 .1329956-.0038604737 .13699341-.0028686524 .13999939-.0018615723 .14199829-.0018615723 .14898682-.001953125 .1559906-.006958008 .1559906-.015960694 .1559906-.034957887 .13999939-.079956058 .07398987-.1219635L.08299255-.1409607Z"/>
<path id="font_4_73" d="M.4869995 .01499939C.43699647 .023986817 .4269867 .0289917 .4269867 .101989749V.30096437C.4269867 .34095765 .42599488 .45996095 .30299378 .45996095 .24299622 .45996095 .19400025 .427948 .15899658 .3779602H.15699768V.6796112L.1519928 .6826172C.10398865 .66563418 .054992677 .65164187 .009994507 .6386719V.6226654C.0129852299 .6236572 .022994996 .6236572 .0289917 .6236572 .07299805 .6236572 .07299805 .6027069 .07299805 .5727539V.101989749C.07299805 .0289917 .06298828 .021987915 .008987427 .01499939V0H.22499085V.01499939C.17599488 .019989014 .15699768 .024993897 .15699768 .101989749V.34295655C.19799805 .3909607 .23699951 .40596009 .2659912 .40596009 .32099916 .40596009 .34298707 .36695863 .34298707 .29995729V.101989749C.34298707 .024993897 .32398988 .019989014 .2749939 .01499939V0H.4869995V.01499939Z"/>
<path id="font_4_81" d="M.07499695-.13079834C.07499695-.1737976 .070999149-.19480896 .004989624-.19979859V-.21679688H.24699402V-.19880677C.1749878-.19880677 .15899658-.18780518 .15899658-.123794559V.033218385C.19198609 .0012207031 .21998596-.009765625 .2599945-.009765625 .39898683-.009765625 .46998597 .13014221 .46998597 .24507141 .46998597 .3779602 .3939972 .45996095 .30499269 .45996095 .22799683 .45996095 .18199158 .4109497 .16099549 .3829651L.15899658 .384964V.45794679L.15299988 .45996095C.10499573 .44117738 .056991579 .42417909 .008987427 .4091797V.39317323C.017990113 .39416505 .027999878 .39416505 .036987306 .39416505 .07199097 .39416505 .07499695 .377182 .07499695 .33717347V-.13079834M.15899658 .33399964C.16499329 .37197877 .22099304 .39994813 .25698854 .39994813 .3789978 .39994813 .38398744 .23806763 .38398744 .21508789 .38398744 .04121399 .2939911 .022232056 .26098634 .022232056 .20599365 .022232056 .15899658 .065200809 .15899658 .08818054V.33399964Z"/>
<path id="font_4_71" d="M.30899049 .4501953H.18598938V.56585696C.18598938 .6027527 .19099427 .65460208 .24598694 .65460208 .29299928 .65460208 .2979889 .5798187 .33999635 .5798187 .3600006 .5798187 .3829956 .5927887 .3829956 .6217041 .3829956 .65560916 .33898927 .6826172 .2829895 .6826172 .102996829 .6826172 .102996829 .5060272 .102996829 .4501953H.020996094V.41818238H.102996829V.104034427C.102996829 .026992798 .085998538 .017990113 .019989014 .01499939V0H.27999879V.01499939C.18798828 .016998291 .18699646 .042999269 .18699646 .104034427V.41818238H.30899049V.4501953Z"/>
<path id="font_4_66" d="M.2869873 .1230011C.2869873 .09309387 .28399659 .08113098 .25299073 .06617737 .24398804 .061187746 .21299744 .048217775 .19099427 .048217775 .1539917 .048217775 .125 .07913208 .125 .12599182V.12799073C.125 .1618805 .13598633 .21772766 .2869873 .26757813V.1230011M.44198609 .06617737C.43099977 .05718994 .41799928 .047225954 .39698792 .047225954 .36799623 .047225954 .36799623 .07614136 .36799623 .10505676V.29963685C.36799623 .359787 .36799623 .45996095 .21899414 .45996095 .102996829 .45996095 .055999757 .38883973 .055999757 .34875489 .055999757 .3327179 .067993167 .30465699 .09899902 .30465699 .125 .30465699 .14399719 .32670594 .14399719 .3477478 .14399719 .356781 .13899231 .3718109 .13899231 .38684083 .13899231 .4179077 .1769867 .43595887 .20999146 .43595887 .23999024 .43595887 .2869873 .42492677 .2869873 .35276795V.29162599C.12399292 .22769165 .036987306 .19378662 .036987306 .09408569 .036987306 .02722168 .08898926-.009765625 .14299011-.009765625 .19799805-.009765625 .25099183 .030227662 .28799439 .063186649 .29299928-.008773804 .33499146-.009765625 .35299684-.009765625 .36898805-.009765625 .3999939-.008773804 .44198609 .040222169V.06617737Z"/>
<path id="font_4_68" d="M.397995 .15615845C.3639984 .10519409 .32699586 .06222534 .25498963 .06222534 .17098999 .06222534 .101989749 .13816834 .101989749 .25308229 .101989749 .39997865 .19400025 .43095399 .23098755 .43095399 .28399659 .43095399 .2889862 .41296388 .29699708 .3829956L.30299378 .3610077C.30899049 .33901979 .32598878 .31303407 .35198976 .31503297 .38198854 .31703187 .397995 .33602906 .397995 .3590088 .397995 .3769989 .3849945 .40797425 .35499574 .42895509 .32998658 .4449463 .2849884 .45996095 .24899292 .45996095 .14099121 .45996095 .024993897 .3769989 .024993897 .2131195 .024993897 .055221559 .13198853-.009765625 .21199036-.009765625 .29299928-.009765625 .35798646 .033233644 .4119873 .14717102L.397995 .15615845Z"/>
<path id="font_4_87" d="M.47698976 .4501953H.33799745V.43518067C.36299134 .43418885 .3849945 .42518617 .3849945 .40219117 .3849945 .36621095 .31399537 .21025086 .27999879 .11428833L.17799378 .37020875C.1749878 .37820436 .16899109 .39320375 .16899109 .40519715 .16899109 .43019105 .19099427 .43318177 .21499634 .43518067V.4501953H.018997193V.43518067C.038986207 .43418885 .05899048 .42819215 .07398987 .39819337 .10998535 .32722474 .20599365 .09529114 .22999573 .033309938 .24598694-.009674072 .24798584-.013671875 .25698854-.013671875 .2639923-.013671875 .272995 .009307861 .28399659 .03630066L.4119873 .35720826C.43598939 .41619874 .44299317 .43218995 .47698976 .43518067V.4501953Z"/>
<path id="font_4_72" d="M.09799194-.08985901C.09799194-.059890748 .115997318-.03892517 .14698792-.001953125 .19400025-.011657715 .21598816-.011657715 .30999757-.0146484379 .38398744-.016662598 .43299867-.018661499 .43299867-.063705448 .43299867-.116744998 .36499024-.16078186 .24798584-.16078186 .13398743-.16078186 .09799194-.12081909 .09799194-.08985901M.1519928 .3421173C.1519928 .40899659 .19099427 .4319458 .22698975 .4319458 .31298829 .4319458 .32899476 .29818727 .32899476 .27023316 .32899476 .24827576 .32398988 .17440796 .2559967 .17440796 .17799378 .17440796 .1519928 .26324464 .1519928 .3421173M.46998597 .38775636V.4267578H.3929901C.3769989 .4267578 .35899354 .428833 .33799745 .43695069 .2979889 .45195008 .27598573 .45996095 .24099732 .45996095 .16499329 .45996095 .068984989 .4119873 .068984989 .29319764 .068984989 .23530579 .102996829 .18937683 .1619873 .16340637 .07299805 .084365848 .07299805 .0713501 .07299805 .054336549 .07299805 .02633667 .09899902 .014343262 .12599182 .0013427734 .07499695-.03466797 .027999878-.07571411 .027999878-.1207428 .027999878-.17378235 .102996829-.21777344 .20498657-.21777344 .29499818-.21777344 .46099855-.16177368 .46099855-.048690797 .46099855-.0206604 .44699098 .053344728 .33999635 .05834961L.21099854 .06434631C.18099976 .06535339 .1329956 .068344119 .1329956 .09136963 .1329956 .1113739 .17298889 .15240479 .19299317 .15440369 .19898987 .15440369 .23498535 .14941406 .24699402 .14941406 .30299378 .14941406 .4059906 .18836975 .4059906 .29603578 .4059906 .34588624 .39698792 .3648224 .3869934 .38775636H.46998597Z"/>
<path id="font_6_90" d="M.01499939 .4002838C.026992798 .4032898 .033996583 .40429688 .04899597 .40429688 .10598755 .40429688 .11898804 .36125184 .1459961 .27020265 .16299439 .21617127 .20498657 .0410614 .20498657 .003036499 .20498657-.023986817 .16299439-.073013309 .13798523-.10203552 .10398865-.14205933 .09098816-.15106201 .07499695-.15106201 .056991579-.15106201 .04399109-.123062137 .01399231-.123062137-.007003784-.123062137-.024002076-.14006043-.024002076-.16105652-.024002076-.20306397 .018997193-.20605469 .026992798-.20605469 .1459961-.20605469 .42599488 .2602539 .42599488 .37934876 .42599488 .41537477 .4059906 .44140626 .36898805 .44140626 .34298707 .44140626 .33198548 .42037965 .33198548 .40637208 .33198548 .3603363 .38598634 .3713379 .38598634 .330307 .38598634 .27726747 .30699159 .14216614 .2639923 .07211304L.24398804 .1882019C.23098755 .2632599 .17199707 .44239808 .15899658 .44140626 .14099121 .44140626 .06298828 .42538453 .01499939 .41737367V.4002838Z"/>
<path id="font_4_14" d="M.038986207 .25683595V.1938324H.2849884V.25683595H.038986207Z"/>
<path id="font_4_67" d="M.15299988 .32200624C.15699768 .3789673 .22099304 .3969574 .25299073 .3969574 .34399415 .3969574 .37998963 .2940216 .37998963 .20109558 .37998963 .1351471 .3639984 .022232056 .24899292 .022232056 .22399903 .022232056 .15299988 .035217287 .15299988 .07019043V.32200624M.068984989 .05419922C.068984989 .017227173 .17399597-.009765625 .22399903-.009765625 .40899659-.009765625 .46798707 .14813233 .46798707 .23806763 .46798707 .34498597 .41099549 .45996095 .2899933 .45996095 .21398926 .45996095 .16099549 .40194703 .15499878 .3789673H.15299988V.6806183L.147995 .6826172C.099990848 .66563418 .050994874 .65164187 .0029907227 .6386719V.6226654C.008987427 .6236572 .018997193 .6236572 .024993897 .6236572 .068984989 .6236572 .068984989 .6027069 .068984989 .5727539V.05419922Z"/>
<path id="font_4_90" d="M.47499085 .4501953H.33999635V.43518067C.37199403 .43618775 .3880005 .42619325 .3880005 .4071808 .3880005 .39819337 .375 .36619569 .36499024 .33918763L.2869873 .11720276 .17199707 .37019349C.16899109 .37719728 .1619873 .39318849 .1619873 .40618897 .1619873 .43318177 .19699097 .43418885 .21998596 .43518067V.4501953H.01399231V.43618775C.026992798 .43418885 .052993776 .42918397 .06498718 .40419007L.1789856 .15820313C.19299317 .12719727 .24099732 .035202028 .24099732 .020202637 .24099732 .004211426 .20098877-.1337738 .14898682-.1337738 .13598633-.1337738 .10499573-.11578369 .07798767-.11578369 .03199768-.11578369 .02999878-.15377808 .02999878-.15977478 .02999878-.18577576 .052993776-.21777344 .102996829-.21777344 .17799378-.21777344 .22200012-.15177918 .272995-.017791748L.4269867 .3901825C.44198609 .43118287 .46199037 .43318177 .47499085 .43518067V.4501953Z"/>
<path id="font_4_20" d="M.15299988 .33003236C.22200012 .33203126 .24699402 .32704164 .2829895 .3080597 .34700013 .27508546 .35899354 .20115662 .35899354 .17617798 .35899354 .101242069 .31799317 .022323609 .22499085 .022323609 .1659851 .022323609 .12799073 .07826233 .08198547 .07826233 .06599426 .07826233 .042999269 .0712738 .042999269 .043304445 .042999269-.008682251 .12998963-.013671875 .1539917-.013671875 .31098939-.013671875 .43099977 .074279788 .43099977 .21614075 .43099977 .34802247 .34599305 .38298036 .3039856 .40097047 .36999513 .44392396 .39698792 .4868927 .39698792 .5408478 .39698792 .58180239 .36999513 .67578127 .24099732 .67578127 .17399597 .67578127 .084991458 .6447754 .04499817 .51387026L.05999756 .50987246C.07499695 .5378418 .116989139 .61576846 .20799256 .61576846 .28199769 .61576846 .31799317 .56282046 .31799317 .51187136 .31799317 .4199524 .24299622 .37199403 .1519928 .34301759L.15299988 .33003236Z"/>
<path id="font_6_70" d="M.1519928 .2523346C.18899536 .34136964 .25698854 .418396 .31098939 .418396 .33599855 .418396 .34599305 .3993988 .34599305 .37838746 .34599305 .3703766 .34098817 .2503357 .1349945 .20831299L.1519928 .2523346M.35798646 .10928345C.30799867 .06826782 .2659912 .03425598 .21199036 .03425598 .16999817 .03425598 .117996219 .057266237 .117996219 .12528992 .117996219 .14529419 .12298584 .16529846 .12799073 .18630982L.1559906 .19030762C.31799317 .21331787 .4119873 .2943573 .4119873 .37338258 .4119873 .41740418 .3809967 .44140626 .32998658 .44140626 .18899536 .44140626 .0309906 .27334596 .0309906 .1302948 .0309906 .06726074 .06298828-.0107421879 .16799927-.0107421879 .2679901-.0107421879 .35899354 .08126831 .36999513 .09727478L.35798646 .10928345Z"/>
<path id="font_4_56" d="M.9319916 .6621094H.73399356V.6430969C.7679901 .6401062 .8029938 .6361084 .8029938 .5971222 .8029938 .5761261 .79499819 .5461273 .7869873 .5251312L.6619873 .186203 .5299988 .5271301C.5149994 .56611636 .5029907 .5881195 .5029907 .6051178 .5029907 .6411133 .548996 .6430969 .5799866 .6430969V.6621094H.31298829V.6430969C.3659973 .6421051 .3809967 .6361084 .4139862 .5531311L.44699098 .47114564 .33999635 .18920899 .19599915 .5651245C.19099427 .578125 .18499756 .5951233 .18499756 .6091156 .18499756 .6351013 .20498657 .6411133 .25 .6430969V.6621094H.004989624V.6430969C.06199646 .6381073 .07598877 .6091156 .10798645 .5261383 .1459961 .42614747 .25 .14221192 .30099488-.0107421879H.31599427L.46998597 .41215516C.5130005 .30317689 .59498599 .0932312 .6299896-.0107421879H.644989C.70399478 .1822052 .7839966 .39616395 .8529968 .5821228 .86698916 .621109 .8829956 .6351013 .9319916 .6430969V.6621094Z"/>
<path id="font_5_32" d="M.53700259 .38964845V.3350067H.011001587V.38964845H.53700259M.53700259 .19599915V.140625H.011001587V.19599915H.53700259Z"/>
<path id="font_4_32" d="M.24398804 .16412354C.2579956 .25006105 .28399659 .29003907 .33898927 .35398866 .36898805 .3889618 .4139862 .45890809 .4139862 .50987246 .4139862 .5618286 .40499879 .5848236 .37799073 .61779788 .35398866 .6467743 .28799439 .67578127 .23098755 .67578127 .1619873 .67578127 .067993167 .632782 .067993167 .53186038 .067993167 .49787904 .07798767 .4689026 .117996219 .4689026 .1459961 .4689026 .15699768 .4928894 .15699768 .50987246 .15699768 .54585269 .11898804 .5578308 .11898804 .5848236 .11898804 .61779788 .16999817 .6457672 .21199036 .6457672 .2889862 .6457672 .32199098 .5788269 .32199098 .51885989 .32199098 .4788971 .30299378 .40994264 .2849884 .36997987L.25698854 .30603028C.25099183 .29203797 .22698975 .2230835 .22698975 .16412354H.24398804M.23699951-.0078125C.26098634-.0078125 .2919922 .0071868898 .2919922 .043182374 .2919922 .07217407 .2679901 .09718323 .23699951 .09718323 .20799256 .09718323 .18399048 .07417297 .18399048 .043182374 .18399048 .0051727297 .21598816-.0078125 .23699951-.0078125Z"/>
<path id="font_4_23" d="M.44599916 .68359377C.20399475 .6755829 .033996583 .49375917 .033996583 .2909546 .033996583 .08123779 .13598633-.013671875 .2539978-.013671875 .43199159-.013671875 .46798707 .1451416 .46798707 .2180481 .46798707 .35186769 .3899994 .42782594 .28399659 .42782594 .22799683 .42782594 .20698548 .41583253 .1519928 .38282777 .17098999 .5047455 .269989 .6396179 .44799806 .6675873L.44599916 .68359377M.24198914 .38183595C.34799195 .38183595 .37799073 .28196717 .37799073 .1790924 .37799073 .06625366 .33198548 .014328003 .2689972 .014328003 .19400025 .014328003 .1269989 .08822632 .1269989 .2559967 .1269989 .31591798 .13699341 .33988954 .14698792 .34986878 .17199707 .37384034 .20799256 .38183595 .24198914 .38183595Z"/>
<path id="font_4_21" d="M.47200013 .23098755H.36999513V.67578127H.32598878L.011993408 .23098755V.16699219H.29299928V0H.36999513V.16699219H.47200013V.23098755M.2919922 .23098755H.051986696L.2899933 .57081606H.2919922V.23098755Z"/>
</defs>
<g clip-path="url(#clip_1)">
<use data-text="A" xlink:href="#font_2_34" transform="matrix(15.9895,0,0,-16.02,48,60.47998)"/>
<use data-text="A" xlink:href="#font_2_34" transform="matrix(15.9895,0,0,-16.02,64.53954,60.47998)"/>
<use data-text="A" xlink:href="#font_2_34" transform="matrix(15.9895,0,0,-16.02,81.07909,60.47998)"/>
<use data-text="A" xlink:href="#font_2_34" transform="matrix(15.9895,0,0,-16.02,97.61863,60.47998)"/>
<use data-text="A" xlink:href="#font_2_34" transform="matrix(15.9895,0,0,-16.02,114.15817,60.47998)"/>
<use data-text="A" xlink:href="#font_2_34" transform="matrix(15.9895,0,0,-16.02,130.69771,60.47998)"/>
<use data-text="A" xlink:href="#font_2_34" transform="matrix(15.9895,0,0,-16.02,147.23725,60.47998)"/>
<use data-text="A" xlink:href="#font_2_34" transform="matrix(15.9895,0,0,-16.02,163.77678,60.47998)"/>
<use data-text="A" xlink:href="#font_2_34" transform="matrix(15.9895,0,0,-16.02,180.31632,60.47998)"/>
<use data-text="A" xlink:href="#font_2_34" transform="matrix(15.9895,0,0,-16.02,196.85585,60.47998)"/>
<use data-text="A" xlink:href="#font_2_34" transform="matrix(15.9895,0,0,-16.02,213.39539,60.47998)"/>
<use data-text="A" xlink:href="#font_2_34" transform="matrix(15.9895,0,0,-16.02,229.93492,60.47998)"/>
<use data-text="A" xlink:href="#font_2_34" transform="matrix(15.9895,0,0,-16.02,246.47446,60.47998)"/>
<use data-text="A" xlink:href="#font_2_34" transform="matrix(15.9895,0,0,-16.02,263.014,60.47998)"/>
<use data-text="A" xlink:href="#font_2_34" transform="matrix(15.9895,0,0,-16.02,279.55357,60.47998)"/>
<use data-text="A" xlink:href="#font_2_34" transform="matrix(15.9895,0,0,-16.02,296.0931,60.47998)"/>
<use data-text="A" xlink:href="#font_2_34" transform="matrix(15.9895,0,0,-16.02,312.63267,60.47998)"/>
<use data-text="A" xlink:href="#font_2_34" transform="matrix(15.9895,0,0,-16.02,329.0954,60.47998)"/>
<use data-text="A" xlink:href="#font_2_34" transform="matrix(15.9895,0,0,-16.02,345.63334,60.47998)"/>
<use data-text="A" xlink:href="#font_2_34" transform="matrix(15.9895,0,0,-16.02,362.17127,60.47998)"/>
<use data-text="A" xlink:href="#font_2_34" transform="matrix(15.9895,0,0,-16.02,378.7092,60.47998)"/>
<use data-text="A" xlink:href="#font_2_34" transform="matrix(15.9895,0,0,-16.02,395.24714,60.47998)"/>
<use data-text="A" xlink:href="#font_2_34" transform="matrix(15.9895,0,0,-16.02,411.78507,60.47998)"/>
<use data-text="A" xlink:href="#font_2_34" transform="matrix(15.9895,0,0,-16.02,428.323,60.47998)"/>
<use data-text="A" xlink:href="#font_2_34" transform="matrix(15.9895,0,0,-16.02,444.86094,60.47998)"/>
<use data-text="A" xlink:href="#font_2_34" transform="matrix(15.9895,0,0,-16.02,461.39888,60.47998)"/>
<use data-text="A" xlink:href="#font_2_34" transform="matrix(15.9895,0,0,-16.02,477.9368,60.47998)"/>
<use data-text="A" xlink:href="#font_2_34" transform="matrix(15.9895,0,0,-16.02,494.47474,60.47998)"/>
<use data-text="A" xlink:href="#font_2_34" transform="matrix(15.9895,0,0,-16.02,511.01268,60.47998)"/>
<use data-text="A" xlink:href="#font_2_34" transform="matrix(15.9895,0,0,-16.02,527.5506,60.47998)"/>
<use data-text="A" xlink:href="#font_2_34" transform="matrix(15.9895,0,0,-16.02,544.08859,60.47998)"/>
<use data-text="U" xlink:href="#font_3_54" transform="matrix(6.942,0,0,-6.7017,53.8033,733.0876)" fill="#231f20"/>
<use data-text="n" xlink:href="#font_3_79" transform="matrix(6.942,0,0,-6.7017,58.815423,733.0876)" fill="#231f20"/>
<use data-text="a" xlink:href="#font_3_66" transform="matrix(6.942,0,0,-6.7017,63.056985,733.0876)" fill="#231f20"/>
<use data-text="u" xlink:href="#font_3_86" transform="matrix(6.942,0,0,-6.7017,66.91673,733.0876)" fill="#231f20"/>
<use data-text="t" xlink:href="#font_3_85" transform="matrix(6.942,0,0,-6.7017,71.158298,733.0876)" fill="#231f20"/>
<use data-text="h" xlink:href="#font_3_73" transform="matrix(6.942,0,0,-6.7017,73.46998,733.0876)" fill="#231f20"/>
<use data-text="o" xlink:href="#font_3_80" transform="matrix(6.942,0,0,-6.7017,77.71154,733.0876)" fill="#231f20"/>
<use data-text="r" xlink:href="#font_3_83" transform="matrix(6.942,0,0,-6.7017,81.9531,733.0876)" fill="#231f20"/>
<use data-text="i" xlink:href="#font_3_74" transform="matrix(6.942,0,0,-6.7017,84.65354,733.0876)" fill="#231f20"/>
<use data-text="z" xlink:href="#font_3_91" transform="matrix(6.942,0,0,-6.7017,86.58342,733.0876)" fill="#231f20"/>
<use data-text="e" xlink:href="#font_3_70" transform="matrix(6.942,0,0,-6.7017,90.12384,733.0876)" fill="#231f20"/>
<use data-text="d" xlink:href="#font_3_69" transform="matrix(6.942,0,0,-6.7017,93.98359,733.0876)" fill="#231f20"/>
<use data-text=" " xlink:href="#font_3_1" transform="matrix(6.942,0,0,-6.7017,98.22515,733.0876)" fill="#231f20"/>
<use data-text="c" xlink:href="#font_3_68" transform="matrix(6.942,0,0,-6.7017,100.15503,733.0876)" fill="#231f20"/>
<use data-text="o" xlink:href="#font_3_80" transform="matrix(6.942,0,0,-6.7017,104.01478,733.0876)" fill="#231f20"/>
<use data-text="p" xlink:href="#font_3_81" transform="matrix(6.942,0,0,-6.7017,108.25634,733.0876)" fill="#231f20"/>
<use data-text="y" xlink:href="#font_3_90" transform="matrix(6.942,0,0,-6.7017,112.39377,733.0876)" fill="#231f20"/>
<use data-text="i" xlink:href="#font_3_74" transform="matrix(6.942,0,0,-6.7017,116.25352,733.0876)" fill="#231f20"/>
<use data-text="n" xlink:href="#font_3_79" transform="matrix(6.942,0,0,-6.7017,118.183399,733.0876)" fill="#231f20"/>
<use data-text="g" xlink:href="#font_3_72" transform="matrix(6.942,0,0,-6.7017,122.42496,733.0876)" fill="#231f20"/>
<use data-text=" " xlink:href="#font_3_1" transform="matrix(6.942,0,0,-6.7017,126.66652,733.0876)" fill="#231f20"/>
<use data-text="o" xlink:href="#font_3_80" transform="matrix(6.942,0,0,-6.7017,128.59639,733.0876)" fill="#231f20"/>
<use data-text="r" xlink:href="#font_3_83" transform="matrix(6.942,0,0,-6.7017,132.83795,733.0876)" fill="#231f20"/>
<use data-text=" " xlink:href="#font_3_1" transform="matrix(6.942,0,0,-6.7017,135.53839,733.0876)" fill="#231f20"/>
<use data-text="r" xlink:href="#font_3_83" transform="matrix(6.942,0,0,-6.7017,137.46826,733.0876)" fill="#231f20"/>
<use data-text="e" xlink:href="#font_3_70" transform="matrix(6.942,0,0,-6.7017,140.1687,733.0876)" fill="#231f20"/>
<use data-text="u" xlink:href="#font_3_86" transform="matrix(6.942,0,0,-6.7017,144.02846,733.0876)" fill="#231f20"/>
<use data-text="s" xlink:href="#font_3_84" transform="matrix(6.942,0,0,-6.7017,148.27002,733.0876)" fill="#231f20"/>
<use data-text="e" xlink:href="#font_3_70" transform="matrix(6.942,0,0,-6.7017,152.12978,733.0876)" fill="#231f20"/>
<use data-text=" " xlink:href="#font_3_1" transform="matrix(6.942,0,0,-6.7017,155.98954,733.0876)" fill="#231f20"/>
<use data-text="o" xlink:href="#font_3_80" transform="matrix(6.942,0,0,-6.7017,157.9194,733.0876)" fill="#231f20"/>
<use data-text="f" xlink:href="#font_3_71" transform="matrix(6.942,0,0,-6.7017,162.16097,733.0876)" fill="#231f20"/>
<use data-text=" " xlink:href="#font_3_1" transform="matrix(6.942,0,0,-6.7017,164.47266,733.0876)" fill="#231f20"/>
<use data-text="a" xlink:href="#font_3_66" transform="matrix(6.942,0,0,-6.7017,53.8033,740.26516)" fill="#231f20"/>
<use data-text="n" xlink:href="#font_3_79" transform="matrix(6.942,0,0,-6.7017,57.66305,740.26516)" fill="#231f20"/>
<use data-text="y" xlink:href="#font_3_90" transform="matrix(6.942,0,0,-6.7017,61.765775,740.26516)" fill="#231f20"/>
<use data-text=" " xlink:href="#font_3_1" transform="matrix(6.942,0,0,-6.7017,65.62553,740.26516)" fill="#231f20"/>
<use data-text="p" xlink:href="#font_3_81" transform="matrix(6.942,0,0,-6.7017,67.555408,740.26516)" fill="#231f20"/>
<use data-text="a" xlink:href="#font_3_66" transform="matrix(6.942,0,0,-6.7017,71.79697,740.26516)" fill="#231f20"/>
<use data-text="r" xlink:href="#font_3_83" transform="matrix(6.942,0,0,-6.7017,75.656719,740.26516)" fill="#231f20"/>
<use data-text="t" xlink:href="#font_3_85" transform="matrix(6.942,0,0,-6.7017,78.495998,740.26516)" fill="#231f20"/>
<use data-text=" " xlink:href="#font_3_1" transform="matrix(6.942,0,0,-6.7017,80.80768,740.26516)" fill="#231f20"/>
<use data-text="o" xlink:href="#font_3_80" transform="matrix(6.942,0,0,-6.7017,82.73756,740.26516)" fill="#231f20"/>
<use data-text="f" xlink:href="#font_3_71" transform="matrix(6.942,0,0,-6.7017,86.97912,740.26516)" fill="#231f20"/>
<use data-text=" " xlink:href="#font_3_1" transform="matrix(6.942,0,0,-6.7017,89.2908,740.26516)" fill="#231f20"/>
<use data-text="t" xlink:href="#font_3_85" transform="matrix(6.942,0,0,-6.7017,91.22068,740.26516)" fill="#231f20"/>
<use data-text="h" xlink:href="#font_3_73" transform="matrix(6.942,0,0,-6.7017,93.532367,740.26516)" fill="#231f20"/>
<use data-text="i" xlink:href="#font_3_74" transform="matrix(6.942,0,0,-6.7017,97.773929,740.26516)" fill="#231f20"/>
<use data-text="s" xlink:href="#font_3_84" transform="matrix(6.942,0,0,-6.7017,99.703807,740.26516)" fill="#231f20"/>
<use data-text=" " xlink:href="#font_3_1" transform="matrix(6.942,0,0,-6.7017,103.56355,740.26516)" fill="#231f20"/>
<use data-text="p" xlink:href="#font_3_81" transform="matrix(6.942,0,0,-6.7017,105.49343,740.26516)" fill="#231f20"/>
<use data-text="a" xlink:href="#font_3_66" transform="matrix(6.942,0,0,-6.7017,109.73499,740.26516)" fill="#231f20"/>
<use data-text="g" xlink:href="#font_3_72" transform="matrix(6.942,0,0,-6.7017,113.52532,740.26516)" fill="#231f20"/>
<use data-text="e" xlink:href="#font_3_70" transform="matrix(6.942,0,0,-6.7017,117.8363,740.26516)" fill="#231f20"/>
<use data-text=" " xlink:href="#font_3_1" transform="matrix(6.942,0,0,-6.7017,121.69605,740.26516)" fill="#231f20"/>
<use data-text="i" xlink:href="#font_3_74" transform="matrix(6.942,0,0,-6.7017,123.62593,740.26516)" fill="#231f20"/>
<use data-text="s" xlink:href="#font_3_84" transform="matrix(6.942,0,0,-6.7017,125.55581,740.26516)" fill="#231f20"/>
<use data-text=" " xlink:href="#font_3_1" transform="matrix(6.942,0,0,-6.7017,129.41556,740.26516)" fill="#231f20"/>
<use data-text="i" xlink:href="#font_3_74" transform="matrix(6.942,0,0,-6.7017,131.34543,740.26516)" fill="#231f20"/>
<use data-text="l" xlink:href="#font_3_77" transform="matrix(6.942,0,0,-6.7017,133.2753,740.26516)" fill="#231f20"/>
<use data-text="l" xlink:href="#font_3_77" transform="matrix(6.942,0,0,-6.7017,135.20517,740.26516)" fill="#231f20"/>
<use data-text="e" xlink:href="#font_3_70" transform="matrix(6.942,0,0,-6.7017,137.13504,740.26516)" fill="#231f20"/>
<use data-text="g" xlink:href="#font_3_72" transform="matrix(6.942,0,0,-6.7017,140.9948,740.26516)" fill="#231f20"/>
<use data-text="a" xlink:href="#font_3_66" transform="matrix(6.942,0,0,-6.7017,145.23636,740.26516)" fill="#231f20"/>
<use data-text="l" xlink:href="#font_3_77" transform="matrix(6.942,0,0,-6.7017,149.09612,740.26516)" fill="#231f20"/>
<use data-text="." xlink:href="#font_3_15" transform="matrix(6.942,0,0,-6.7017,151.02599,740.26516)" fill="#231f20"/>
<path transform="matrix(1.01776,0,0,-.98255,0,783)" stroke-width=".78" stroke-linecap="butt" stroke-miterlimit="4" stroke-linejoin="miter" fill="none" stroke="#231f20" d="M50.717 40.189H163.747V58.175H50.717Z"/>
<use data-text=" " xlink:href="#font_3_1" transform="matrix(10.9591,0,0,-10.98,169.98,745.74)"/>
<use data-text=" " xlink:href="#font_3_1" transform="matrix(10.9591,0,0,-10.98,263.9981,745.74)"/>
<use data-text="G" xlink:href="#font_3_40" transform="matrix(10.9591,0,0,-10.98,408.00068,745.74)"/>
<use data-text="O" xlink:href="#font_3_48" transform="matrix(10.9591,0,0,-10.98,416.5367,745.74)"/>
<use data-text=" " xlink:href="#font_3_1" transform="matrix(10.9591,0,0,-10.98,425.07276,745.74)"/>
<use data-text="O" xlink:href="#font_3_48" transform="matrix(10.9591,0,0,-10.98,428.18736,745.74)"/>
<use data-text="N" xlink:href="#font_3_47" transform="matrix(10.9591,0,0,-10.98,436.7234,745.74)"/>
<use data-text=" " xlink:href="#font_3_1" transform="matrix(10.9591,0,0,-10.98,444.64573,745.74)"/>
<use data-text="T" xlink:href="#font_3_53" transform="matrix(10.9591,0,0,-10.98,447.7055,745.74)"/>
<use data-text="O" xlink:href="#font_3_48" transform="matrix(10.9591,0,0,-10.98,454.4881,745.74)"/>
<use data-text=" " xlink:href="#font_3_1" transform="matrix(10.9591,0,0,-10.98,463.00224,745.74)"/>
<use data-text="T" xlink:href="#font_3_53" transform="matrix(10.9591,0,0,-10.98,466.11683,745.74)"/>
<use data-text="H" xlink:href="#font_3_41" transform="matrix(10.9591,0,0,-10.98,472.8227,745.74)"/>
<use data-text="E" xlink:href="#font_3_38" transform="matrix(10.9591,0,0,-10.98,480.74504,745.74)"/>
<use data-text=" " xlink:href="#font_3_1" transform="matrix(10.9591,0,0,-10.98,488.0646,745.74)"/>
<use data-text="N" xlink:href="#font_3_47" transform="matrix(10.9591,0,0,-10.98,491.1244,745.74)"/>
<use data-text="E" xlink:href="#font_3_38" transform="matrix(10.9591,0,0,-10.98,499.04673,745.74)"/>
<use data-text="X" xlink:href="#font_3_57" transform="matrix(10.9591,0,0,-10.98,506.4211,745.74)"/>
<use data-text="T" xlink:href="#font_3_53" transform="matrix(10.9591,0,0,-10.98,513.7407,745.74)"/>
<use data-text=" " xlink:href="#font_3_1" transform="matrix(10.9591,0,0,-10.98,520.4466,745.74)"/>
<use data-text="P" xlink:href="#font_3_49" transform="matrix(10.9591,0,0,-10.98,523.5064,745.74)"/>
<use data-text="A" xlink:href="#font_3_34" transform="matrix(10.9591,0,0,-10.98,530.826,745.74)"/>
<use data-text="G" xlink:href="#font_3_40" transform="matrix(10.9591,0,0,-10.98,538.74838,745.74)"/>
<use data-text="E" xlink:href="#font_3_38" transform="matrix(10.9591,0,0,-10.98,547.2844,745.74)"/>
<use data-text="." xlink:href="#font_3_15" transform="matrix(10.9591,0,0,-10.98,554.604,745.74)"/>
<use data-text=" " xlink:href="#font_3_1" transform="matrix(10.9591,0,0,-10.98,557.6605,745.74)"/>
<use data-text="-" xlink:href="#font_3_14" transform="matrix(10.9591,0,0,-10.98,299.27546,758.88308)"/>
<use data-text="4" xlink:href="#font_3_21" transform="matrix(10.9591,0,0,-10.98,302.9402,758.88308)"/>
<use data-text="-" xlink:href="#font_3_14" transform="matrix(10.9591,0,0,-10.98,309.0488,758.88308)"/>
<use data-text=" " xlink:href="#font_3_1" transform="matrix(10.9591,0,0,-10.98,312.71354,758.88308)"/>
<use data-text="1" xlink:href="#font_4_18" transform="matrix(10.9591,0,0,-10.98,51.1143,108.779178)"/>
<use data-text="." xlink:href="#font_4_15" transform="matrix(10.9591,0,0,-10.98,56.6344,108.779178)"/>
<use data-text="(" xlink:href="#font_5_11" transform="matrix(11.0716,0,0,-13.366,119.94,116.15997)"/>
<use data-text=")" xlink:href="#font_5_12" transform="matrix(11.0716,0,0,-13.366,136.44,116.15997)"/>
<path transform="matrix(1,0,0,-1,105.36,105.71997)" stroke-width=".53" stroke-linecap="round" stroke-linejoin="round" fill="none" stroke="#000000" d="M0 0H35.22"/>
<use data-text="2" xlink:href="#font_4_19" transform="matrix(8.0545,0,0,-8.07,115.38,97.67999)"/>
<use data-text="1" xlink:href="#font_4_18" transform="matrix(8.0545,0,0,-8.07,99.3596,115.91821)"/>
<use data-text="1" xlink:href="#font_4_18" transform="matrix(11.0752,0,0,-11.0963,132.12,102.65997)"/>
<use data-text="l" xlink:href="#font_4_77" transform="matrix(11.0752,0,0,-11.0963,87.59769,108.663089)"/>
<use data-text="i" xlink:href="#font_4_74" transform="matrix(11.0752,0,0,-11.0963,90.71757,108.663089)"/>
<use data-text="m" xlink:href="#font_4_78" transform="matrix(11.0752,0,0,-11.0963,93.782077,108.663089)"/>
<use data-text="s" xlink:href="#font_4_84" transform="matrix(11.0752,0,0,-11.0963,105.96037,115.798038)"/>
<use data-text="i" xlink:href="#font_4_74" transform="matrix(11.0752,0,0,-11.0963,110.23429,115.798038)"/>
<use data-text="n" xlink:href="#font_4_79" transform="matrix(11.0752,0,0,-11.0963,113.27886,115.798038)"/>
<use data-text="x" xlink:href="#font_6_89" transform="matrix(8.0545,0,0,-8.07,87.66,115.91992)"/>
<use data-text="x" xlink:href="#font_6_89" transform="matrix(11.0752,0,0,-11.0963,109.92,102.65997)"/>
<use data-text="x" xlink:href="#font_6_89" transform="matrix(11.0752,0,0,-11.0963,130.91858,115.79797)"/>
<use data-text="p" xlink:href="#font_7_83" transform="matrix(11.0752,0,0,-11.0963,124.14056,115.79797)"/>
<use data-text="&#x00c6;" xlink:href="#font_5_144" transform="matrix(8.0545,0,0,-8.07,91.74,115.91992)"/>
<use data-text="-" xlink:href="#font_5_16" transform="matrix(11.0752,0,0,-11.0963,123.78,102.65997)"/>
<use data-text=" " xlink:href="#font_4_1" transform="matrix(10.9591,0,0,-10.98,143.22,108.78003)"/>
<use data-text="i" xlink:href="#font_4_74" transform="matrix(10.9591,0,0,-10.98,145.97949,108.78003)"/>
<use data-text="s" xlink:href="#font_4_84" transform="matrix(10.9591,0,0,-10.98,149.03598,108.78003)"/>
<use data-text=" " xlink:href="#font_4_1" transform="matrix(10.9591,0,0,-10.98,153.30893,108.78003)"/>
<use data-text="(" xlink:href="#font_4_9" transform="matrix(10.9591,0,0,-10.98,65.2789,143.76233)"/>
<use data-text="A" xlink:href="#font_4_34" transform="matrix(10.9591,0,0,-10.98,68.93814,143.76233)"/>
<use data-text=")" xlink:href="#font_4_10" transform="matrix(10.9591,0,0,-10.98,76.86047,143.76233)"/>
<use data-text="2" xlink:href="#font_4_19" transform="matrix(10.979,0,0,-10.9999,94.2,143.76001)"/>
<use data-text="-" xlink:href="#font_5_16" transform="matrix(10.979,0,0,-10.9999,87.96393,143.76001)"/>
<use data-text="(" xlink:href="#font_4_9" transform="matrix(10.9591,0,0,-10.98,135.48,143.76001)"/>
<use data-text="B" xlink:href="#font_4_35" transform="matrix(10.9591,0,0,-10.98,139.19403,143.76001)"/>
<use data-text=")" xlink:href="#font_4_10" transform="matrix(10.9591,0,0,-10.98,146.51909,143.76001)"/>
<path transform="matrix(1,0,0,-1,165.06,140.88)" stroke-width=".524" stroke-linecap="round" stroke-linejoin="round" fill="none" stroke="#000000" d="M0 0H7.92"/>
<use data-text="2" xlink:href="#font_4_19" transform="matrix(10.979,0,0,-10.9999,166.38,137.81989)"/>
<use data-text="p" xlink:href="#font_7_83" transform="matrix(10.979,0,0,-10.9999,166.20435,150.84375)"/>
<use data-text="-" xlink:href="#font_5_16" transform="matrix(10.979,0,0,-10.9999,157.56388,143.75983)"/>
<use data-text="(" xlink:href="#font_4_9" transform="matrix(10.9591,0,0,-10.98,208.1395,143.76001)"/>
<use data-text="C" xlink:href="#font_4_36" transform="matrix(10.9591,0,0,-10.98,211.80532,143.76001)"/>
<use data-text=")" xlink:href="#font_4_10" transform="matrix(10.9591,0,0,-10.98,219.18627,143.76001)"/>
<use data-text=" " xlink:href="#font_4_1" transform="matrix(10.9591,0,0,-10.98,222.85208,143.76001)"/>
<use data-text="0" xlink:href="#font_4_17" transform="matrix(10.9591,0,0,-10.98,228.37438,143.76001)"/>
<use data-text="(" xlink:href="#font_4_9" transform="matrix(10.9591,0,0,-10.98,266.8145,143.76001)"/>
<use data-text="D" xlink:href="#font_4_37" transform="matrix(10.9591,0,0,-10.98,270.48036,143.76001)"/>
<use data-text=")" xlink:href="#font_4_10" transform="matrix(10.9591,0,0,-10.98,278.46406,143.76001)"/>
<path transform="matrix(1.01811,0,0,.98222,289.67939,140.87958)" stroke-width=".54" stroke-linecap="round" stroke-linejoin="round" fill="none" stroke="#000000" d="M0 0H8.251"/>
<use data-text="2" xlink:href="#font_4_19" transform="matrix(10.979,0,0,-10.9999,291.06,137.81989)"/>
<use data-text="p" xlink:href="#font_7_83" transform="matrix(10.979,0,0,-10.9999,290.88435,150.84375)"/>
<use data-text="(" xlink:href="#font_4_9" transform="matrix(10.9591,0,0,-10.98,334.0795,143.76001)"/>
<use data-text="E" xlink:href="#font_4_38" transform="matrix(10.9591,0,0,-10.98,337.7552,143.76001)"/>
<use data-text=")" xlink:href="#font_4_10" transform="matrix(10.9591,0,0,-10.98,344.4775,143.76001)"/>
<use data-text=" " xlink:href="#font_4_1" transform="matrix(10.9591,0,0,-10.98,348.1532,143.76001)"/>
<use data-text="n" xlink:href="#font_4_79" transform="matrix(10.9591,0,0,-10.98,353.67549,143.76001)"/>
<use data-text="o" xlink:href="#font_4_80" transform="matrix(10.9591,0,0,-10.98,359.18135,143.76001)"/>
<use data-text="n" xlink:href="#font_4_79" transform="matrix(10.9591,0,0,-10.98,364.6872,143.76001)"/>
<use data-text="e" xlink:href="#font_4_70" transform="matrix(10.9591,0,0,-10.98,370.19306,143.76001)"/>
<use data-text="x" xlink:href="#font_4_89" transform="matrix(10.9591,0,0,-10.98,375.0852,143.76001)"/>
<use data-text="i" xlink:href="#font_4_74" transform="matrix(10.9591,0,0,-10.98,380.59107,143.76001)"/>
<use data-text="s" xlink:href="#font_4_84" transform="matrix(10.9591,0,0,-10.98,383.664,143.76001)"/>
<use data-text="t" xlink:href="#font_4_85" transform="matrix(10.9591,0,0,-10.98,387.9534,143.76001)"/>
<use data-text="e" xlink:href="#font_4_70" transform="matrix(10.9591,0,0,-10.98,391.02635,143.76001)"/>
<use data-text="n" xlink:href="#font_4_79" transform="matrix(10.9591,0,0,-10.98,395.9185,143.76001)"/>
<use data-text="t" xlink:href="#font_4_85" transform="matrix(10.9591,0,0,-10.98,401.42436,143.76001)"/>
<use data-text=" " xlink:href="#font_4_1" transform="matrix(10.9591,0,0,-10.98,404.49729,143.76001)"/>
<use data-text="2" xlink:href="#font_4_19" transform="matrix(10.9591,0,0,-10.98,51.11554,307.1314)"/>
<use data-text="." xlink:href="#font_4_15" transform="matrix(10.9591,0,0,-10.98,56.60386,307.1314)"/>
<use data-text=" " xlink:href="#font_4_1" transform="matrix(10.9591,0,0,-10.98,59.3524,307.1314)"/>
<use data-text="F" xlink:href="#font_4_39" transform="matrix(10.9591,0,0,-10.98,65.28895,307.1314)"/>
<use data-text="o" xlink:href="#font_4_80" transform="matrix(10.9591,0,0,-10.98,71.390979,307.1314)"/>
<use data-text="r" xlink:href="#font_4_83" transform="matrix(10.9591,0,0,-10.98,76.879299,307.1314)"/>
<use data-text=" " xlink:href="#font_4_1" transform="matrix(10.9591,0,0,-10.98,80.537448,307.1314)"/>
<use data-text="t" xlink:href="#font_4_85" transform="matrix(10.9591,0,0,-10.98,83.29585,307.1314)"/>
<use data-text="i" xlink:href="#font_4_74" transform="matrix(10.9591,0,0,-10.98,86.35125,307.1314)"/>
<use data-text="m" xlink:href="#font_4_78" transform="matrix(10.9591,0,0,-10.98,89.40665,307.1314)"/>
<use data-text="e" xlink:href="#font_4_70" transform="matrix(10.9591,0,0,-10.98,97.9416,307.1314)"/>
<use data-text=" " xlink:href="#font_4_1" transform="matrix(10.9591,0,0,-10.98,102.81621,307.1314)"/>
<path transform="matrix(1,0,0,-1,0,783)" d="M46.5 506.16H565.5V507.66H46.5Z"/>
<use data-text="0" xlink:href="#font_4_17" transform="matrix(10.5869,0,0,-10.6071,125.1,307.32)"/>
<use data-text="t" xlink:href="#font_6_85" transform="matrix(10.5869,0,0,-10.6071,107.21873,307.32)"/>
<use data-text="&#x003e;" xlink:href="#font_5_33" transform="matrix(10.5869,0,0,-10.6071,114.894229,307.32)"/>
<use data-text="," xlink:href="#font_4_13" transform="matrix(10.5869,0,0,-10.6071,130.49932,307.32)"/>
<use data-text=" " xlink:href="#font_4_1" transform="matrix(10.9591,0,0,-10.98,135.6,307.14)"/>
<use data-text="t" xlink:href="#font_4_85" transform="matrix(10.9591,0,0,-10.98,138.35951,307.14)"/>
<use data-text="h" xlink:href="#font_4_73" transform="matrix(10.9591,0,0,-10.98,141.42588,307.14)"/>
<use data-text="e" xlink:href="#font_4_70" transform="matrix(10.9591,0,0,-10.98,146.92516,307.14)"/>
<use data-text=" " xlink:href="#font_4_1" transform="matrix(10.9591,0,0,-10.98,151.81073,307.14)"/>
<use data-text="p" xlink:href="#font_4_81" transform="matrix(10.9591,0,0,-10.98,154.57024,307.14)"/>
<use data-text="o" xlink:href="#font_4_80" transform="matrix(10.9591,0,0,-10.98,160.06952,307.14)"/>
<use data-text="s" xlink:href="#font_4_84" transform="matrix(10.9591,0,0,-10.98,165.5688,307.14)"/>
<use data-text="i" xlink:href="#font_4_74" transform="matrix(10.9591,0,0,-10.98,169.85163,307.14)"/>
<use data-text="t" xlink:href="#font_4_85" transform="matrix(10.9591,0,0,-10.98,172.91799,307.14)"/>
<use data-text="i" xlink:href="#font_4_74" transform="matrix(10.9591,0,0,-10.98,175.98435,307.14)"/>
<use data-text="o" xlink:href="#font_4_80" transform="matrix(10.9591,0,0,-10.98,179.0507,307.14)"/>
<use data-text="n" xlink:href="#font_4_79" transform="matrix(10.9591,0,0,-10.98,184.54999,307.14)"/>
<use data-text=" " xlink:href="#font_4_1" transform="matrix(10.9591,0,0,-10.98,190.04927,307.14)"/>
<use data-text="o" xlink:href="#font_4_80" transform="matrix(10.9591,0,0,-10.98,192.75399,307.14)"/>
<use data-text="f" xlink:href="#font_4_71" transform="matrix(10.9591,0,0,-10.98,198.25327,307.14)"/>
<use data-text=" " xlink:href="#font_4_1" transform="matrix(10.9591,0,0,-10.98,201.92238,307.14)"/>
<use data-text="a" xlink:href="#font_4_66" transform="matrix(10.9591,0,0,-10.98,204.68189,307.14)"/>
<use data-text=" " xlink:href="#font_4_1" transform="matrix(10.9591,0,0,-10.98,209.56746,307.14)"/>
<use data-text="p" xlink:href="#font_4_81" transform="matrix(10.9591,0,0,-10.98,212.27217,307.14)"/>
<use data-text="a" xlink:href="#font_4_66" transform="matrix(10.9591,0,0,-10.98,217.77146,307.14)"/>
<use data-text="r" xlink:href="#font_4_83" transform="matrix(10.9591,0,0,-10.98,222.65703,307.14)"/>
<use data-text="t" xlink:href="#font_4_85" transform="matrix(10.9591,0,0,-10.98,226.32614,307.14)"/>
<use data-text="i" xlink:href="#font_4_74" transform="matrix(10.9591,0,0,-10.98,229.3925,307.14)"/>
<use data-text="c" xlink:href="#font_4_68" transform="matrix(10.9591,0,0,-10.98,232.45886,307.14)"/>
<use data-text="l" xlink:href="#font_4_77" transform="matrix(10.9591,0,0,-10.98,237.34444,307.14)"/>
<use data-text="e" xlink:href="#font_4_70" transform="matrix(10.9591,0,0,-10.98,240.4108,307.14)"/>
<use data-text=" " xlink:href="#font_4_1" transform="matrix(10.9591,0,0,-10.98,245.29637,307.14)"/>
<use data-text="m" xlink:href="#font_4_78" transform="matrix(10.9591,0,0,-10.98,248.05588,307.14)"/>
<use data-text="o" xlink:href="#font_4_80" transform="matrix(10.9591,0,0,-10.98,256.60179,307.14)"/>
<use data-text="v" xlink:href="#font_4_87" transform="matrix(10.9591,0,0,-10.98,262.10105,307.14)"/>
<use data-text="i" xlink:href="#font_4_74" transform="matrix(10.9591,0,0,-10.98,267.6003,307.14)"/>
<use data-text="n" xlink:href="#font_4_79" transform="matrix(10.9591,0,0,-10.98,270.66667,307.14)"/>
<use data-text="g" xlink:href="#font_4_72" transform="matrix(10.9591,0,0,-10.98,276.16593,307.14)"/>
<use data-text=" " xlink:href="#font_4_1" transform="matrix(10.9591,0,0,-10.98,281.6652,307.14)"/>
<use data-text="i" xlink:href="#font_4_74" transform="matrix(10.9591,0,0,-10.98,284.42469,307.14)"/>
<use data-text="n" xlink:href="#font_4_79" transform="matrix(10.9591,0,0,-10.98,287.49104,307.14)"/>
<use data-text=" " xlink:href="#font_4_1" transform="matrix(10.9591,0,0,-10.98,292.9903,307.14)"/>
<use data-text="t" xlink:href="#font_4_85" transform="matrix(10.9591,0,0,-10.98,295.7498,307.14)"/>
<use data-text="h" xlink:href="#font_4_73" transform="matrix(10.9591,0,0,-10.98,298.75038,307.14)"/>
<use data-text="e" xlink:href="#font_4_70" transform="matrix(10.9591,0,0,-10.98,304.27156,307.14)"/>
<use data-text=" " xlink:href="#font_4_1" transform="matrix(10.9591,0,0,-10.98,309.1571,307.14)"/>
<use data-text="x" xlink:href="#font_6_89" transform="matrix(10.9591,0,0,-10.98,311.94288,307.14)"/>
<use data-text="y" xlink:href="#font_6_90" transform="matrix(10.9591,0,0,-10.98,316.80323,307.14)"/>
<use data-text="-" xlink:href="#font_4_14" transform="matrix(10.9591,0,0,-10.98,321.66358,307.14)"/>
<use data-text="p" xlink:href="#font_4_81" transform="matrix(10.9591,0,0,-10.98,325.33268,307.14)"/>
<use data-text="l" xlink:href="#font_4_77" transform="matrix(10.9591,0,0,-10.98,330.83195,307.14)"/>
<use data-text="a" xlink:href="#font_4_66" transform="matrix(10.9591,0,0,-10.98,333.8983,307.14)"/>
<use data-text="n" xlink:href="#font_4_79" transform="matrix(10.9591,0,0,-10.98,338.78385,307.14)"/>
<use data-text="e" xlink:href="#font_4_70" transform="matrix(10.9591,0,0,-10.98,344.2831,307.14)"/>
<use data-text=" " xlink:href="#font_4_1" transform="matrix(10.9591,0,0,-10.98,349.16868,307.14)"/>
<use data-text="i" xlink:href="#font_4_74" transform="matrix(10.9591,0,0,-10.98,351.92817,307.14)"/>
<use data-text="s" xlink:href="#font_4_84" transform="matrix(10.9591,0,0,-10.98,354.9945,307.14)"/>
<use data-text=" " xlink:href="#font_4_1" transform="matrix(10.9591,0,0,-10.98,359.2773,307.14)"/>
<use data-text="g" xlink:href="#font_4_72" transform="matrix(10.9591,0,0,-10.98,362.0368,307.14)"/>
<use data-text="i" xlink:href="#font_4_74" transform="matrix(10.9591,0,0,-10.98,367.53608,307.14)"/>
<use data-text="v" xlink:href="#font_4_87" transform="matrix(10.9591,0,0,-10.98,370.60243,307.14)"/>
<use data-text="e" xlink:href="#font_4_70" transform="matrix(10.9591,0,0,-10.98,376.10169,307.14)"/>
<use data-text="n" xlink:href="#font_4_79" transform="matrix(10.9591,0,0,-10.98,380.98725,307.14)"/>
<use data-text=" " xlink:href="#font_4_1" transform="matrix(10.9591,0,0,-10.98,386.4865,307.14)"/>
<use data-text="b" xlink:href="#font_4_67" transform="matrix(10.9591,0,0,-10.98,389.246,307.14)"/>
<use data-text="y" xlink:href="#font_4_90" transform="matrix(10.9591,0,0,-10.98,394.74528,307.14)"/>
<use data-text=" " xlink:href="#font_4_1" transform="matrix(10.9591,0,0,-10.98,400.24455,307.14)"/>
<use data-text="t" xlink:href="#font_4_85" transform="matrix(10.9591,0,0,-10.98,403.00404,307.14)"/>
<use data-text="h" xlink:href="#font_4_73" transform="matrix(10.9591,0,0,-10.98,406.07038,307.14)"/>
<use data-text="e" xlink:href="#font_4_70" transform="matrix(10.9591,0,0,-10.98,411.56965,307.14)"/>
<use data-text=" " xlink:href="#font_4_1" transform="matrix(10.9591,0,0,-10.98,416.4552,307.14)"/>
<use data-text="v" xlink:href="#font_4_87" transform="matrix(10.9591,0,0,-10.98,419.2147,307.14)"/>
<use data-text="e" xlink:href="#font_4_70" transform="matrix(10.9591,0,0,-10.98,424.71397,307.14)"/>
<use data-text="c" xlink:href="#font_4_68" transform="matrix(10.9591,0,0,-10.98,429.59953,307.14)"/>
<use data-text="t" xlink:href="#font_4_85" transform="matrix(10.9591,0,0,-10.98,434.48509,307.14)"/>
<use data-text="o" xlink:href="#font_4_80" transform="matrix(10.9591,0,0,-10.98,437.55143,307.14)"/>
<use data-text="r" xlink:href="#font_4_83" transform="matrix(10.9591,0,0,-10.98,443.0507,307.14)"/>
<use data-text=" " xlink:href="#font_4_1" transform="matrix(10.9591,0,0,-10.98,446.7198,307.14)"/>
<path transform="matrix(1,0,0,-1,456.72,304.26)" stroke-width=".532" stroke-linecap="round" stroke-linejoin="round" fill="none" stroke="#000000" d="M0 0H5.28M-1.38 12.72-5.1 0M-5.1 0-1.38-12.72M26.16 12.72 29.82 0M29.82 0 26.16-12.72"/>
<use data-text="3" xlink:href="#font_4_20" transform="matrix(7.9847,0,0,-7.9999,474,302.22)"/>
<use data-text="1" xlink:href="#font_4_18" transform="matrix(10.979,0,0,-10.9999,456.6,301.2)"/>
<use data-text="," xlink:href="#font_4_13" transform="matrix(10.979,0,0,-10.9999,463.1984,307.13996)"/>
<use data-text="t" xlink:href="#font_6_85" transform="matrix(7.9847,0,0,-7.9999,478.14,302.22)"/>
<use data-text="e" xlink:href="#font_6_70" transform="matrix(10.979,0,0,-10.9999,468.96,307.14)"/>
<use data-text="t" xlink:href="#font_6_85" transform="matrix(10.979,0,0,-10.9999,457.49794,314.15797)"/>
<use data-text="." xlink:href="#font_4_15" transform="matrix(10.979,0,0,-10.9999,487.9187,307.14)"/>
<use data-text=" " xlink:href="#font_4_1" transform="matrix(10.9591,0,0,-10.98,492.9,307.14)"/>
<use data-text="W" xlink:href="#font_4_56" transform="matrix(10.9591,0,0,-10.98,495.65953,307.14)"/>
<use data-text="h" xlink:href="#font_4_73" transform="matrix(10.9591,0,0,-10.98,506.02027,307.14)"/>
<use data-text="a" xlink:href="#font_4_66" transform="matrix(10.9591,0,0,-10.98,511.51518,307.14)"/>
<use data-text="t" xlink:href="#font_4_85" transform="matrix(10.9591,0,0,-10.98,516.39639,307.14)"/>
<use data-text=" " xlink:href="#font_4_1" transform="matrix(10.9591,0,0,-10.98,519.4583,307.14)"/>
<use data-text="i" xlink:href="#font_4_74" transform="matrix(10.9591,0,0,-10.98,522.21786,307.14)"/>
<use data-text="s" xlink:href="#font_4_84" transform="matrix(10.9591,0,0,-10.98,525.2798,307.14)"/>
<use data-text=" " xlink:href="#font_4_1" transform="matrix(10.9591,0,0,-10.98,529.5582,307.14)"/>
<use data-text="t" xlink:href="#font_4_85" transform="matrix(10.9591,0,0,-10.98,532.31777,307.14)"/>
<use data-text="h" xlink:href="#font_4_73" transform="matrix(10.9591,0,0,-10.98,535.3797,307.14)"/>
<use data-text="e" xlink:href="#font_4_70" transform="matrix(10.9591,0,0,-10.98,540.8746,307.14)"/>
<use data-text=" " xlink:href="#font_4_1" transform="matrix(10.9591,0,0,-10.98,545.75576,307.14)"/>
<use data-text="v" xlink:href="#font_4_87" transform="matrix(10.9591,0,0,-10.98,65.27591,329.1659)"/>
<use data-text="e" xlink:href="#font_4_70" transform="matrix(10.9591,0,0,-10.98,70.770809,329.1659)"/>
<use data-text="l" xlink:href="#font_4_77" transform="matrix(10.9591,0,0,-10.98,75.651988,329.1659)"/>
<use data-text="o" xlink:href="#font_4_80" transform="matrix(10.9591,0,0,-10.98,78.71396,329.1659)"/>
<use data-text="c" xlink:href="#font_4_68" transform="matrix(10.9591,0,0,-10.98,84.208858,329.1659)"/>
<use data-text="i" xlink:href="#font_4_74" transform="matrix(10.9591,0,0,-10.98,89.090038,329.1659)"/>
<use data-text="t" xlink:href="#font_4_85" transform="matrix(10.9591,0,0,-10.98,92.15201,329.1659)"/>
<use data-text="y" xlink:href="#font_4_90" transform="matrix(10.9591,0,0,-10.98,95.21398,329.1659)"/>
<use data-text=" " xlink:href="#font_4_1" transform="matrix(10.9591,0,0,-10.98,100.70888,329.1659)"/>
<use data-text="v" xlink:href="#font_4_87" transform="matrix(10.9591,0,0,-10.98,103.46838,329.1659)"/>
<use data-text="e" xlink:href="#font_4_70" transform="matrix(10.9591,0,0,-10.98,108.96328,329.1659)"/>
<use data-text="c" xlink:href="#font_4_68" transform="matrix(10.9591,0,0,-10.98,113.84446,329.1659)"/>
<use data-text="t" xlink:href="#font_4_85" transform="matrix(10.9591,0,0,-10.98,118.72564,329.1659)"/>
<use data-text="o" xlink:href="#font_4_80" transform="matrix(10.9591,0,0,-10.98,121.78761,329.1659)"/>
<use data-text="r" xlink:href="#font_4_83" transform="matrix(10.9591,0,0,-10.98,127.28251,329.1659)"/>
<use data-text=" " xlink:href="#font_4_1" transform="matrix(10.9591,0,0,-10.98,130.94724,329.1659)"/>
<use data-text="o" xlink:href="#font_4_80" transform="matrix(10.9591,0,0,-10.98,133.70673,329.1659)"/>
<use data-text="f" xlink:href="#font_4_71" transform="matrix(10.9591,0,0,-10.98,139.20162,329.1659)"/>
<use data-text=" " xlink:href="#font_4_1" transform="matrix(10.9591,0,0,-10.98,142.86634,329.1659)"/>
<use data-text="t" xlink:href="#font_4_85" transform="matrix(10.9591,0,0,-10.98,145.62583,329.1659)"/>
<use data-text="h" xlink:href="#font_4_73" transform="matrix(10.9591,0,0,-10.98,148.68779,329.1659)"/>
<use data-text="e" xlink:href="#font_4_70" transform="matrix(10.9591,0,0,-10.98,154.18268,329.1659)"/>
<use data-text=" " xlink:href="#font_4_1" transform="matrix(10.9591,0,0,-10.98,159.06386,329.1659)"/>
<use data-text="p" xlink:href="#font_4_81" transform="matrix(10.9591,0,0,-10.98,161.82335,329.1659)"/>
<use data-text="a" xlink:href="#font_4_66" transform="matrix(10.9591,0,0,-10.98,167.31824,329.1659)"/>
<use data-text="r" xlink:href="#font_4_83" transform="matrix(10.9591,0,0,-10.98,172.19942,329.1659)"/>
<use data-text="t" xlink:href="#font_4_85" transform="matrix(10.9591,0,0,-10.98,175.86414,329.1659)"/>
<use data-text="i" xlink:href="#font_4_74" transform="matrix(10.9591,0,0,-10.98,178.9261,329.1659)"/>
<use data-text="c" xlink:href="#font_4_68" transform="matrix(10.9591,0,0,-10.98,181.92232,329.1659)"/>
<use data-text="l" xlink:href="#font_4_77" transform="matrix(10.9591,0,0,-10.98,186.78159,329.1659)"/>
<use data-text="e" xlink:href="#font_4_70" transform="matrix(10.9591,0,0,-10.98,189.84355,329.1659)"/>
<use data-text=" " xlink:href="#font_4_1" transform="matrix(10.9591,0,0,-10.98,194.72473,329.1659)"/>
<use data-text="a" xlink:href="#font_4_66" transform="matrix(10.9591,0,0,-10.98,197.48423,329.1659)"/>
<use data-text="t" xlink:href="#font_4_85" transform="matrix(10.9591,0,0,-10.98,202.3654,329.1659)"/>
<use data-text=" " xlink:href="#font_4_1" transform="matrix(10.9591,0,0,-10.98,205.42737,329.1659)"/>
<use data-text="t" xlink:href="#font_4_85" transform="matrix(10.9591,0,0,-10.98,208.18686,329.1659)"/>
<use data-text="i" xlink:href="#font_4_74" transform="matrix(10.9591,0,0,-10.98,211.24883,329.1659)"/>
<use data-text="m" xlink:href="#font_4_78" transform="matrix(10.9591,0,0,-10.98,214.31079,329.1659)"/>
<use data-text="e" xlink:href="#font_4_70" transform="matrix(10.9591,0,0,-10.98,222.85231,329.1659)"/>
<use data-text=" " xlink:href="#font_4_1" transform="matrix(10.9591,0,0,-10.98,227.73349,329.1659)"/>
<use data-text="2" xlink:href="#font_4_19" transform="matrix(10.979,0,0,-10.9999,250.02,329.16)"/>
<use data-text="t" xlink:href="#font_6_85" transform="matrix(10.979,0,0,-10.9999,232.13521,329.16)"/>
<use data-text="=" xlink:href="#font_5_32" transform="matrix(10.979,0,0,-10.9999,239.8754,329.16)"/>
<use data-text="?" xlink:href="#font_4_32" transform="matrix(10.979,0,0,-10.9999,258.24327,329.16)"/>
<use data-text=" " xlink:href="#font_4_1" transform="matrix(10.9591,0,0,-10.98,265.08,329.16)"/>
<use data-text="(" xlink:href="#font_4_9" transform="matrix(10.9591,0,0,-10.98,65.28462,358.13624)"/>
<use data-text="A" xlink:href="#font_4_34" transform="matrix(10.9591,0,0,-10.98,68.94386,358.13624)"/>
<use data-text=")" xlink:href="#font_4_10" transform="matrix(10.9591,0,0,-10.98,76.866199,358.13624)"/>
<use data-text=" " xlink:href="#font_4_1" transform="matrix(10.9591,0,0,-10.98,80.52544,358.13624)"/>
<path transform="matrix(1,0,0,-1,93.24,355.26)" stroke-width=".53" stroke-linecap="round" stroke-linejoin="round" fill="none" stroke="#000000" d="M0 0H7.14M-1.38 12.72-4.98 0M-4.98 0-1.38-12.72M25.08 12.72 28.68 0M28.68 0 25.08-12.72"/>
<use data-text="6" xlink:href="#font_4_23" transform="matrix(7.9847,0,0,-7.9999,112.38,353.22)"/>
<use data-text="1" xlink:href="#font_4_18" transform="matrix(10.979,0,0,-10.9999,94.14,352.2)"/>
<use data-text="," xlink:href="#font_4_13" transform="matrix(10.979,0,0,-10.9999,101.58376,358.13996)"/>
<use data-text="2" xlink:href="#font_4_19" transform="matrix(10.979,0,0,-10.9999,94.085109,365.1579)"/>
<use data-text="e" xlink:href="#font_6_70" transform="matrix(10.979,0,0,-10.9999,107.28186,358.13996)"/>
<use data-text="(" xlink:href="#font_4_9" transform="matrix(10.9591,0,0,-10.98,157.98,358.14)"/>
<use data-text="B" xlink:href="#font_4_35" transform="matrix(10.9591,0,0,-10.98,161.69403,358.14)"/>
<use data-text=")" xlink:href="#font_4_10" transform="matrix(10.9591,0,0,-10.98,169.01361,358.14)"/>
<path transform="matrix(1,0,0,-1,185.4,355.26)" stroke-width=".53" stroke-linecap="round" stroke-linejoin="round" fill="none" stroke="#000000" d="M0 0H7.2M-1.38 12.72-4.98 0M-4.98 0-1.38-12.72M25.14 12.72 28.74 0M28.74 0 25.14-12.72"/>
<use data-text="6" xlink:href="#font_4_23" transform="matrix(7.9847,0,0,-7.9999,204.6,353.22)"/>
<use data-text="1" xlink:href="#font_4_18" transform="matrix(10.979,0,0,-10.9999,186.3,352.2)"/>
<use data-text="," xlink:href="#font_4_13" transform="matrix(10.979,0,0,-10.9999,193.79866,358.13996)"/>
<use data-text="4" xlink:href="#font_4_21" transform="matrix(10.979,0,0,-10.9999,186.42078,365.1579)"/>
<use data-text="e" xlink:href="#font_6_70" transform="matrix(10.979,0,0,-10.9999,199.44187,358.13996)"/>
<use data-text="(" xlink:href="#font_4_9" transform="matrix(10.9591,0,0,-10.98,250.14,358.14)"/>
<use data-text="C" xlink:href="#font_4_36" transform="matrix(10.9591,0,0,-10.98,253.80034,358.14)"/>
<use data-text=")" xlink:href="#font_4_10" transform="matrix(10.9591,0,0,-10.98,261.17585,358.14)"/>
<path transform="matrix(1,0,0,-1,277.5,355.26)" stroke-width=".526" stroke-linecap="round" stroke-linejoin="round" fill="none" stroke="#000000" d="M0 0H7.08M-1.38 12.72-4.92 0M-4.92 0-1.38-12.72M29.88 12.72 33.48 0M33.48 0 29.88-12.72"/>
<use data-text="6" xlink:href="#font_4_23" transform="matrix(7.9847,0,0,-7.9999,301.56,353.22)"/>
<use data-text="1" xlink:href="#font_4_18" transform="matrix(10.979,0,0,-10.9999,278.34,352.2)"/>
<use data-text="," xlink:href="#font_4_13" transform="matrix(10.979,0,0,-10.9999,285.78376,358.13996)"/>
<use data-text="3" xlink:href="#font_4_20" transform="matrix(10.979,0,0,-10.9999,291.12394,358.13996)"/>
<use data-text="4" xlink:href="#font_4_21" transform="matrix(10.979,0,0,-10.9999,278.46076,365.1579)"/>
<use data-text="e" xlink:href="#font_6_70" transform="matrix(10.979,0,0,-10.9999,296.45533,358.13996)"/>
<use data-text="(" xlink:href="#font_4_9" transform="matrix(10.9591,0,0,-10.98,346.8,358.14)"/>
<use data-text="D" xlink:href="#font_4_37" transform="matrix(10.9591,0,0,-10.98,350.45924,358.14)"/>
<use data-text=")" xlink:href="#font_4_10" transform="matrix(10.9591,0,0,-10.98,358.38377,358.14)"/>
<path transform="matrix(1,0,0,-1,382.68,355.26)" stroke-width=".532" stroke-linecap="round" stroke-linejoin="round" fill="none" stroke="#000000" d="M0 0H7.2M-9.12 12.72-12.84 0M-12.84 0-9.12-12.72M25.32 12.72 29.04 0M29.04 0 25.32-12.72"/>
<use data-text="6" xlink:href="#font_4_23" transform="matrix(7.9847,0,0,-7.9999,402,353.22)"/>
<use data-text="1" xlink:href="#font_4_18" transform="matrix(10.979,0,0,-10.9999,383.52,352.2)"/>
<use data-text="," xlink:href="#font_4_13" transform="matrix(10.979,0,0,-10.9999,391.1394,358.13996)"/>
<use data-text="4" xlink:href="#font_4_21" transform="matrix(10.979,0,0,-10.9999,383.64076,365.1579)"/>
<use data-text="e" xlink:href="#font_6_70" transform="matrix(10.979,0,0,-10.9999,396.8375,358.13996)"/>
<use data-text="-" xlink:href="#font_5_16" transform="matrix(10.979,0,0,-10.9999,374.81364,358.13996)"/>
<use data-text="(" xlink:href="#font_4_9" transform="matrix(10.9591,0,0,-10.98,447.0595,358.14)"/>
<use data-text="E" xlink:href="#font_4_38" transform="matrix(10.9591,0,0,-10.98,450.72315,358.14)"/>
<use data-text=")" xlink:href="#font_4_10" transform="matrix(10.9591,0,0,-10.98,457.4334,358.14)"/>
<path transform="matrix(1,0,0,-1,481.62,355.26)" stroke-width=".532" stroke-linecap="round" stroke-linejoin="round" fill="none" stroke="#000000" d="M0 0H7.26M-9.12 12.72-12.78 0M-12.78 0-9.12-12.72M30.54 12.72 34.2 0M34.2 0 30.54-12.72"/>
<use data-text="6" xlink:href="#font_4_23" transform="matrix(7.9847,0,0,-7.9999,506.1599,353.22)"/>
<use data-text="1" xlink:href="#font_4_18" transform="matrix(10.979,0,0,-10.9999,482.52,352.2)"/>
<use data-text="," xlink:href="#font_4_13" transform="matrix(10.979,0,0,-10.9999,490.08454,358.13996)"/>
<use data-text="3" xlink:href="#font_4_20" transform="matrix(10.979,0,0,-10.9999,495.5444,358.13996)"/>
<use data-text="4" xlink:href="#font_4_21" transform="matrix(10.979,0,0,-10.9999,482.64079,365.1579)"/>
<use data-text="e" xlink:href="#font_6_70" transform="matrix(10.979,0,0,-10.9999,500.99769,358.13996)"/>
<use data-text="-" xlink:href="#font_5_16" transform="matrix(10.979,0,0,-10.9999,473.81367,358.13996)"/>
</g>
</svg>
