<svg xmlns="http://www.w3.org/2000/svg" xmlns:xlink="http://www.w3.org/1999/xlink" xmlns:inkscape="http://www.inkscape.org/namespaces/inkscape" version="1.1" width="603.3599853515625pt" height="670.2903442382812pt" viewBox="0.0 77.70965576171875 603.3599853515625 670.2903442382812">
<defs>
<clipPath id="clip_1">
<path transform="matrix(1,0,0,-1,0,783)" d="M0 9H603.36V783H0Z" clip-rule="evenodd"/>
</clipPath>
<path id="font_2_1" d="M0 0Z"/>
<path id="font_3_34" d="M.68899539 .024993897C.6409912 .022994996 .625 .057037355 .5799866 .16419983L.35699464 .6904297H.32899476L.10699463 .14216614C.07699585 .06706238 .06298828 .03300476 .008987427 .024993897V0H.21199036V.024993897C.17799378 .026992798 .12998963 .02999878 .12998963 .0680542 .12998963 .08407593 .1459961 .12515259 .17399597 .19726563H.39898683C.41299439 .16520691 .44499208 .09109497 .44499208 .0640564 .44499208 .03100586 .4269867 .02999878 .36499024 .024993897V0H.68899539V.024993897M.18899536 .23625183 .2829895 .4793396 .38398744 .23625183H.18899536Z"/>
<path id="font_3_1" d="M0 0Z"/>
<path id="font_4_54" d="M.651001 .71777346H.49798585V.24528504C.49798585 .15838623 .45599366 .108444217 .35299684 .108444217 .2829895 .108444217 .22499085 .15238953 .22499085 .25227357V.71777346H.07199097V.24229431C.07398987 .17036438 .08898926 .11242676 .12799073 .06843567 .19198609-.0025634766 .2899933-.018554688 .35598756-.018554688 .5369873-.018554688 .651001 .062438966 .651001 .25128175V.71777346Z"/>
<path id="font_4_79" d="M.54599 .36790467C.54599 .4848938 .46499635 .54589846 .36099244 .54589846 .2599945 .54589846 .21998596 .48588563 .20098877 .45388795H.19898987V.53222659H.06498718V0H.20498657V.30514527C.20498657 .38589479 .25299073 .42788697 .31498719 .42788697 .4039917 .42788697 .4059906 .36190797 .4059906 .32292176V0H.54599V.36790467Z"/>
<path id="font_4_66" d="M.49598695 .39190675C.49598695 .5228882 .35899354 .54589846 .28399659 .54589846 .1749878 .54589846 .06199646 .5228882 .04598999 .35990907H.18099976C.18499756 .39089967 .19699097 .43388368 .2669983 .43388368 .30299378 .43388368 .35899354 .43089295 .35899354 .37190248 .35899354 .34191896 .33198548 .33291627 .30999757 .32991029L.18399048 .3109131C.09498596 .29792787 .0289917 .24493408 .0289917 .1409607 .0289917 .031326295 .11099243-.013671875 .19099427-.013671875 .28599549-.013671875 .33099366 .030319214 .36299134 .063323978 .3659973 .032989503 .36799623 .024993897 .37599183 0H.5269928V.020996094C.5099945 .026992798 .49598695 .040985109 .49598695 .10397339V.39190675M.35899354 .19094849C.35899354 .12626648 .29599 .08631897 .23399353 .08631897 .20698548 .08631897 .16899109 .1013031 .16899109 .15023804 .16899109 .20817566 .21199036 .22116089 .2639923 .23014832 .32199098 .23913574 .34498597 .24812317 .35899354 .2591095V.19094849Z"/>
<path id="font_4_86" d="M.54499819 .53222659H.40499879V.22529602C.40499879 .13031006 .34298707 .10432434 .29699708 .10432434 .2539978 .10432434 .20599365 .12031555 .20599365 .20230103V.53222659H.06599426V.18229676C.06599426 .046325685 .14199829-.013671875 .24699402-.013671875 .32099916-.013671875 .3769989 .018325806 .40899659 .07531738H.41099549V0H.54499819V.53222659Z"/>
<path id="font_4_85" d="M.22200012 .67622378H.08198547V.53222659H.009994507V.43222047H.08198547V.10913086C.08198547 .040130617 .10398865-.005859375 .22499085-.005859375H.24299622C.2649994-.005859375 .2869873-.0048675539 .30899049-.0038604737V.102127078C.29899598 .101135257 .2889862 .100128177 .27999879 .100128177 .22299195 .100128177 .22200012 .11213684 .22200012 .1431427V.43222047H.30899049V.53222659H.22200012V.67622378Z"/>
<path id="font_4_73" d="M.54599 .36790467C.54599 .4848938 .46499635 .54589846 .36099244 .54589846 .2849884 .54589846 .22499085 .506897 .20698548 .46289063H.20498657V.71777346H.06498718V0H.20498657V.30491639C.20498657 .38589479 .25299073 .42788697 .31498719 .42788697 .4039917 .42788697 .4059906 .36190797 .4059906 .32292176V0H.54599V.36790467Z"/>
<path id="font_4_80" d="M.5779877 .26611329C.5779877 .45788575 .44898988 .54589846 .30599977 .54589846 .16299439 .54589846 .033996583 .45788575 .033996583 .26611329 .033996583 .07432556 .16299439-.013671875 .30599977-.013671875 .44898988-.013671875 .5779877 .07432556 .5779877 .26611329M.43399049 .26611329C.43399049 .19819641 .4139862 .10432434 .30599977 .10432434 .19799805 .10432434 .17799378 .19819641 .17799378 .26611329 .17799378 .3340149 .19799805 .42788697 .30599977 .42788697 .4139862 .42788697 .43399049 .3340149 .43399049 .26611329Z"/>
<path id="font_4_83" d="M.06399536 0H.20399475V.27719117C.20399475 .33624269 .22399903 .40429688 .33299256 .40429688 .34599305 .40429688 .36099244 .40429688 .37298585 .4022827V.54389956C.3639984 .54489138 .35499574 .54589846 .34599305 .54589846 .26098634 .54589846 .22898865 .4940338 .19999695 .44018556H.19799805V.53222659H.06399536V0Z"/>
<path id="font_4_74" d="M.068984989 .53222659V0H.20899964V.53222659H.068984989M.20899964 .7246094H.068984989V.5946045H.20899964V.7246094Z"/>
<path id="font_4_91" d="M.46998597 .41722108V.53222659H.038986207V.4202118H.29299928L.019989014 .10899353V0H.47999574V.114990238H.20098877L.46998597 .41722108Z"/>
<path id="font_4_70" d="M.37799073 .1563263C.36698915 .11831665 .32699586 .09832764 .28799439 .09832764 .1749878 .09832764 .16699219 .18832398 .16299439 .22833252H.5279999V.25332643C.5279999 .4958954 .3829956 .54589846 .27799989 .54589846 .04499817 .54589846 .022994996 .34124757 .022994996 .2773285 .022994996 .05831909 .13798523-.013671875 .28799439-.013671875 .3789978-.013671875 .4850006 .028320313 .5219879 .1563263H.37799073M.16699219 .31933595C.1749878 .38905335 .20999146 .43089295 .27598573 .43089295 .32099916 .43089295 .37599183 .40499879 .38398744 .31933595H.16699219Z"/>
<path id="font_4_69" d="M.5509949 .71777346H.41099549V.46289063H.40899659C.3869934 .4968872 .34498597 .54589846 .25498963 .54589846 .13798523 .54589846 .033996583 .45588685 .033996583 .27209474 .033996583 .12628174 .099990848-.013671875 .2579956-.013671875 .31599427-.013671875 .37799073 .0073242189 .4119873 .06732178H.4139862V0H.5509949V.71777346M.17799378 .26210023C.17799378 .34599305 .20799256 .42489625 .29699708 .42489625 .3929901 .42489625 .4169922 .33900453 .4169922 .25411988 .4169922 .17521668 .38198854 .10131836 .29299928 .10131836 .20298767 .10131836 .17799378 .19918823 .17799378 .26210023Z"/>
<path id="font_4_1" d="M0 0Z"/>
<path id="font_4_68" d="M.3809967 .19419861C.3809967 .16923523 .35699464 .10131836 .28599549 .10131836 .17999268 .10131836 .17799378 .21617127 .17799378 .27409364 .17799378 .3400116 .20098877 .42788697 .2889862 .42788697 .35398866 .43188478 .37599183 .37695313 .38198854 .3420105H.5239868C.5109863 .5078888 .37298585 .54589846 .2889862 .54589846 .10899353 .54589846 .033996583 .42289735 .033996583 .25112916 .033996583 .13926697 .07998657-.013671875 .27999879-.013671875 .47499085-.013671875 .5179901 .13926697 .522995 .19419861H.3809967Z"/>
<path id="font_4_81" d="M.19599915 .25411988C.19599915 .33900453 .21899414 .42489625 .31498719 .42489625 .4039917 .42489625 .43399049 .34599305 .43399049 .26210023 .43399049 .19918823 .40899659 .10131836 .31900025 .10131836 .22999573 .10131836 .19599915 .17521668 .19599915 .25411988M.19599915 .53222659H.06199646V-.20703125H.20199585V.0683136H.20399475C.22099304 .0393219 .2559967-.013671875 .35398866-.013671875 .5119934-.013671875 .5779877 .12631226 .5779877 .27226258 .5779877 .45588685 .47399903 .54589846 .35699464 .54589846 .2630005 .54589846 .22399903 .4968872 .19799805 .45489503H.19599915V.53222659Z"/>
<path id="font_4_90" d="M.5389862 .53222659H.3909912L.28199769 .14016724H.27999879L.1659851 .53222659H.009994507L.20599365-.021865845C.19299317-.09487915 .16499329-.101867679 .11399841-.101867679 .101989749-.101867679 .09298706-.100875858 .08699036-.099868778V-.21186829C.10699463-.21287537 .1309967-.21386719 .1499939-.21386719 .27198792-.21386719 .2899933-.18788147 .35598756 .009140015L.5389862 .53222659Z"/>
<path id="font_4_72" d="M.4189911 .53222659V.45289613H.4169922C.3999939 .48788453 .3600006 .54589846 .26098634 .54589846 .14399719 .54589846 .039993287 .45588685 .039993287 .27197267 .039993287 .08605957 .14099121-.0029296876 .2689972-.0029296876 .35299684-.0029296876 .3880005 .03605652 .41099549 .077056888L.41299439 .07505798V.011062622C.41299439-.07484436 .3769989-.110809329 .3019867-.110809329 .22099304-.110809329 .20999146-.08383179 .20399475-.056869508H.051986696C.057998659-.1697998 .17399597-.21679688 .28399659-.21679688 .54599-.21679688 .5529938-.06385803 .5529938 .028060914V.53222659H.4189911M.18399048 .26313783C.18399048 .3869171 .24198914 .42489625 .2939911 .42489625 .37199403 .42489625 .4139862 .3549347 .4139862 .26898194 .4139862 .1960144 .3899994 .11506653 .29499818 .11506653 .21199036 .11506653 .18399048 .19509888 .18399048 .26313783Z"/>
<path id="font_4_84" d="M.5029907 .37002564C.49198915 .51989749 .36799623 .54589846 .2639923 .54589846 .09799194 .54589846 .04899597 .44589234 .04899597 .36802674 .04899597 .1691742 .3789978 .23609925 .3789978 .1472168 .3789978 .1272583 .3619995 .092315677 .2899933 .092315677 .20199585 .092315677 .17399597 .1252594 .17399597 .17016602H.02999878C.033996583 .028320313 .16499329-.013671875 .28599549-.013671875 .36898805-.013671875 .5189972 .014328003 .5189972 .1691742 .5189972 .365036 .18598938 .3040924 .18598938 .38798524 .18598938 .4109497 .19599915 .43989564 .27198792 .43989564 .34799195 .43989564 .3600006 .40396119 .3659973 .37002564H.5029907Z"/>
<path id="font_4_71" d="M.22698975 .43222047H.31799317V.53222659H.22698975V.55303958C.22698975 .5966797 .22799683 .611557 .27598573 .611557H.31498719V.72454836C.30299378 .7255554 .28399659 .7265625 .24299622 .7265625 .14698792 .7265625 .08699036 .68455508 .08699036 .5748596V.53222659H.009994507V.43222047H.08699036V0H.22698975V.43222047Z"/>
<path id="font_4_77" d="M.20899964 .71777346H.068984989V0H.20899964V.71777346Z"/>
<path id="font_4_15" d="M.21398926 .1459961H.06399536V0H.21398926V.1459961Z"/>
<path id="font_4_40" d="M.41299439 .26660157H.5799866C.548996 .1214447 .43899537 .108444217 .4059906 .108444217 .3039856 .108444217 .19699097 .15948487 .19699097 .35559083 .19699097 .5393982 .29599 .6132965 .40299989 .6132965 .5089874 .6132965 .55999758 .52342227 .55999758 .49545289H.70999148C.70199587 .59432986 .61499026 .7373047 .394989 .7373047 .15299988 .7382965 .04399109 .55337527 .04399109 .35758973 .04399109 .10543823 .20098877-.018554688 .37399293-.018554688 .5049896-.018554688 .55999758 .046432496 .59799197 .09043884L.61299136 0H.71299746V.3875885H.41299439V.26660157Z"/>
<path id="font_4_48" d="M.04399109 .359375C.04399109 .02243042 .2939911-.018554688 .3889923-.018554688 .48399354-.018554688 .73399356 .02243042 .73399356 .359375 .73399356 .6963043 .48399354 .7373047 .3889923 .7373047 .2939911 .7373047 .04399109 .6963043 .04399109 .359375M.19400025 .359375C.19400025 .560318 .30799867 .6102905 .3889923 .6102905 .46998597 .6102905 .58399966 .560318 .58399966 .359375 .58399966 .15841675 .46998597 .108444217 .3889923 .108444217 .30799867 .108444217 .19400025 .15841675 .19400025 .359375Z"/>
<path id="font_4_47" d="M.5139923 .21792603H.5119934L.22698975 .71777346H.068984989V0H.20899964V.5118408H.21099854L.5039978 0H.6539917V.71777346H.5139923V.21792603Z"/>
<path id="font_4_53" d="M.3809967 .5907593H.59799197V.71777346H.01399231V.5907593H.23098755V0H.3809967V.5907593Z"/>
<path id="font_4_41" d="M.5009918 .32226563V0H.651001V.71777346H.5009918V.44625855H.22099304V.71777346H.070999149V0H.22099304V.32226563H.5009918Z"/>
<path id="font_4_38" d="M.60398867 .71777346H.07598877V0H.62098696V.1269989H.22299195V.3125H.57299807V.4394989H.22299195V.5907593H.60398867V.71777346Z"/>
<path id="font_4_57" d="M.4189911 .37287904 .6380005 .71777346H.46499635L.33399964 .48583985 .20599365 .71777346H.026992798L.24598694 .36688233 .01399231 0H.18899536L.33399964 .24491883 .46998597 0H.6529999L.4189911 .37287904Z"/>
<path id="font_4_49" d="M.22599793 .25880433H.397995C.59098818 .25880433 .6269989 .42279054 .6269989 .4877777 .6269989 .6287689 .54299929 .71777346 .4039917 .71777346H.07598877V0H.22599793V.25880433M.22599793 .3828125V.59376528H.34498597C.43798829 .59376528 .47698976 .56477358 .47698976 .4947815 .47698976 .4627838 .47698976 .3828125 .36499024 .3828125H.22599793Z"/>
<path id="font_4_34" d="M.22799683 .1474762H.49299623L.5389862 0H.70199587L.44898988 .71777346H.27598573L.019989014 0H.17799378L.22799683 .1474762M.3600006 .55566409H.3619995L.45098878 .27148438H.2679901L.3600006 .55566409Z"/>
<path id="font_4_14" d="M.30599977 .34483338H.026992798V.21484375H.30599977V.34483338Z"/>
<path id="font_4_25" d="M.2789917 .4223938C.21899414 .4223938 .18798828 .46827699 .18798828 .5101776 .18798828 .56204226 .22099304 .59794619 .28399659 .59794619 .32899476 .59794619 .3659973 .56404116 .3659973 .5101776 .3659973 .4593048 .33399964 .4223938 .2789917 .4223938M.5239868 .21141052C.5239868 .30340577 .48599244 .34840394 .41799928 .3824005 .47499085 .4123993 .5 .46429444 .5 .5251312 .5 .6229553 .42199708 .70996096 .2749939 .70996096 .15098572 .70996096 .053985597 .63694766 .053985597 .51615908 .053985597 .45033265 .083999637 .4053955 .13999939 .37739564 .03199768 .32739259 .03199768 .2334137 .03199768 .19741822 .03199768 .10043335 .09498596-.018554688 .27799989-.018554688 .46598817-.018554688 .5239868 .12142944 .5239868 .21141052M.37998963 .20541382C.37998963 .1564331 .35198976 .093444827 .2789917 .093444827 .21499634 .093444827 .17599488 .13842774 .17599488 .2064209 .17599488 .2834015 .22499085 .31640626 .27598573 .31640626 .35398866 .31640626 .37998963 .25541688 .37998963 .20541382Z"/>
<path id="font_2_26" d="M.05899048-.021957398C.31298829-.0059661867 .45899964 .18421936 .45899964 .3961029 .45899964 .56288149 .36299134 .67578127 .23999024 .67578127 .10998535 .67578127 .02999878 .56788638 .02999878 .4350586 .02999878 .35316468 .07598877 .23725891 .20999146 .23725891 .2599945 .23725891 .31298829 .25526429 .35699464 .2922516L.35899354 .2902527C.35299684 .2652588 .2979889 .03807068 .055999757-.001953125L.05899048-.021957398M.3619995 .35516358C.3619995 .33718873 .35899354 .32521058 .34599305 .31521607 .32499696 .2982483 .2829895 .28027345 .25 .28027345 .14399719 .28027345 .12199402 .39711 .12199402 .4730072 .12199402 .5549011 .14498902 .6477661 .22898865 .6477661 .3619995 .6477661 .3619995 .45303346 .3619995 .39411927V.35516358Z"/>
<path id="font_2_15" d="M.125-.0107421879C.1459961-.0107421879 .18099976 .0062561037 .18099976 .04324341 .18099976 .07424927 .15499878 .100250247 .125 .100250247 .09498596 .100250247 .069992069 .07525635 .069992069 .04324341 .069992069 .0052490236 .10398865-.0107421879 .125-.0107421879Z"/>
<path id="font_2_56" d="M.9319916 .6621094H.73399356V.6430969C.7679901 .6401062 .8029938 .6361084 .8029938 .5971222 .8029938 .5761261 .79499819 .5461273 .7869873 .5251312L.6619873 .186203 .5299988 .5271301C.5149994 .56611636 .5029907 .5881195 .5029907 .6051178 .5029907 .6411133 .548996 .6430969 .5799866 .6430969V.6621094H.31298829V.6430969C.3659973 .6421051 .3809967 .6361084 .4139862 .5531311L.44699098 .47114564 .33999635 .18920899 .19599915 .5651245C.19099427 .578125 .18499756 .5951233 .18499756 .6091156 .18499756 .6351013 .20498657 .6411133 .25 .6430969V.6621094H.004989624V.6430969C.06199646 .6381073 .07598877 .6091156 .10798645 .5261383 .1459961 .42614747 .25 .14221192 .30099488-.0107421879H.31599427L.46998597 .41215516C.5130005 .30317689 .59498599 .0932312 .6299896-.0107421879H.644989C.70399478 .1822052 .7839966 .39616395 .8529968 .5821228 .86698916 .621109 .8829956 .6351013 .9319916 .6430969V.6621094Z"/>
<path id="font_2_73" d="M.4869995 .01499939C.43699647 .023986817 .4269867 .0289917 .4269867 .101989749V.30096437C.4269867 .34095765 .42599488 .45996095 .30299378 .45996095 .24299622 .45996095 .19400025 .427948 .15899658 .3779602H.15699768V.6796112L.1519928 .6826172C.10398865 .66563418 .054992677 .65164187 .009994507 .6386719V.6226654C.0129852299 .6236572 .022994996 .6236572 .0289917 .6236572 .07299805 .6236572 .07299805 .6027069 .07299805 .5727539V.101989749C.07299805 .0289917 .06298828 .021987915 .008987427 .01499939V0H.22499085V.01499939C.17599488 .019989014 .15699768 .024993897 .15699768 .101989749V.34295655C.19799805 .3909607 .23699951 .40596009 .2659912 .40596009 .32099916 .40596009 .34298707 .36695863 .34298707 .29995729V.101989749C.34298707 .024993897 .32398988 .019989014 .2749939 .01499939V0H.4869995V.01499939Z"/>
<path id="font_2_74" d="M.015991211 0H.25299073V.01499939C.18399048 .018997193 .1789856 .036010744 .1789856 .10205078V.4569702L.1749878 .45996095C.12298584 .4410553 .07199097 .42216493 .019989014 .40527345V.3902588C.032989503 .3922577 .04598999 .39427186 .05999756 .39427186 .07598877 .39427186 .09498596 .39326478 .09498596 .33422853V.10205078C.09498596 .024002076 .07798767 .017990113 .015991211 .01499939V0M.07798767 .63160708C.07798767 .61260989 .09199524 .5806122 .12799073 .5806122 .1579895 .5806122 .17999268 .60261538 .17999268 .63160708 .17999268 .65960696 .1579895 .6826172 .12799073 .6826172 .09298706 .6826172 .07798767 .65060427 .07798767 .63160708Z"/>
<path id="font_2_68" d="M.397995 .15615845C.3639984 .10519409 .32699586 .06222534 .25498963 .06222534 .17098999 .06222534 .101989749 .13816834 .101989749 .25308229 .101989749 .39997865 .19400025 .43095399 .23098755 .43095399 .28399659 .43095399 .2889862 .41296388 .29699708 .3829956L.30299378 .3610077C.30899049 .33901979 .32598878 .31303407 .35198976 .31503297 .38198854 .31703187 .397995 .33602906 .397995 .3590088 .397995 .3769989 .3849945 .40797425 .35499574 .42895509 .32998658 .4449463 .2849884 .45996095 .24899292 .45996095 .14099121 .45996095 .024993897 .3769989 .024993897 .2131195 .024993897 .055221559 .13198853-.009765625 .21199036-.009765625 .29299928-.009765625 .35798646 .033233644 .4119873 .14717102L.397995 .15615845Z"/>
<path id="font_2_80" d="M.24499512 .45996095C.11099243 .45996095 .0289917 .35101319 .0289917 .22808838 .0289917 .093170169 .11898804-.009765625 .24798584-.009765625 .3999939-.009765625 .46998597 .12915039 .46998597 .22808838 .46998597 .3730011 .37599183 .45996095 .24499512 .45996095M.2619934 .018234253C.14199829 .018234253 .11898804 .20210266 .11898804 .276062 .11898804 .37998963 .17399597 .4319458 .23699951 .4319458 .32899476 .4319458 .37998963 .32302857 .37998963 .19911194 .37998963 .05619812 .31298829 .018234253 .2619934 .018234253Z"/>
<path id="font_2_71" d="M.30899049 .4501953H.18598938V.56585696C.18598938 .6027527 .19099427 .65460208 .24598694 .65460208 .29299928 .65460208 .2979889 .5798187 .33999635 .5798187 .3600006 .5798187 .3829956 .5927887 .3829956 .6217041 .3829956 .65560916 .33898927 .6826172 .2829895 .6826172 .102996829 .6826172 .102996829 .5060272 .102996829 .4501953H.020996094V.41818238H.102996829V.104034427C.102996829 .026992798 .085998538 .017990113 .019989014 .01499939V0H.27999879V.01499939C.18798828 .016998291 .18699646 .042999269 .18699646 .104034427V.41818238H.30899049V.4501953Z"/>
<path id="font_2_85" d="M.25498963 .4501953H.1539917V.5661926C.1539917 .57418826 .1539917 .5791931 .14698792 .5791931 .10998535 .5261841 .09498596 .5041809 .056991579 .4651947 .034988405 .44319154 .0129852299 .43719483 .0129852299 .42518617 .0129852299 .42218019 .01499939 .41918946 .016998291 .41818238H.069992069V.11721802C.069992069 .017227173 .11099243-.009765625 .1619873-.009765625 .20799256-.009765625 .25498963 .023223877 .2789917 .066223148L.2659912 .07722473C.25498963 .06422424 .23699951 .04222107 .20498657 .04222107 .1539917 .04222107 .1539917 .10122681 .1539917 .1322174V.41818238H.25498963V.4501953Z"/>
<path id="font_2_70" d="M.4079895 .16427613C.3849945 .1272583 .34199525 .05921936 .25299073 .05921936 .18699646 .05921936 .10598755 .100250247 .09399414 .27734376H.40499879C.3939972 .40800477 .32299806 .45996095 .22898865 .45996095 .14898682 .45996095 .024993897 .3990326 .024993897 .21430969 .024993897 .07223511 .100997928-.009765625 .21199036-.009765625 .35598756-.009765625 .4139862 .12626648 .42399598 .15727234L.4079895 .16427613M.09700012 .30934144C.11299133 .39704896 .1519928 .4239502 .20698548 .4239502 .28599549 .4239502 .29599 .35717774 .30299378 .30934144H.09700012Z"/>
<path id="font_2_77" d="M.020996094 0H.25698854V.01499939C.19898987 .017990113 .18199158 .025985718 .18199158 .08395386V.680603L.17799378 .6826172C.125 .66563418 .07199097 .65164187 .018997193 .6386719V.6226654C.0309906 .6236725 .039993287 .6246643 .052993776 .6246643 .09199524 .6246643 .09799194 .6086731 .09799194 .56370547V.08695984C.09799194 .031982423 .07998657 .018997193 .020996094 .01499939V0Z"/>
<path id="font_2_88" d="M.57099917 .4501953V.43518067C.59498599 .43017579 .61499026 .42616273 .61499026 .40208436 .61499026 .39004518 .60899356 .36296083 .59799197 .33787538L.5079956 .115997318 .42799378 .32984925C.41299439 .36897279 .40699769 .38000489 .40699769 .3980713 .40699769 .4271698 .43199159 .43017579 .46499635 .43518067V.4501953H.2619934V.43518067C.30299378 .43017579 .31399537 .42315675 .35099793 .30978395L.2599945 .11100769C.21398926 .2387085 .15499878 .3659668 .15499878 .40107728 .15499878 .4291687 .17799378 .43318177 .20098877 .43518067V.4501953H.020996094V.43518067C.04598999 .43318177 .053985597 .4201355 .07398987 .37197877L.20899964 .030212403C.22299195-.0037078858 .22799683-.013671875 .23498535-.013671875 .24099732-.013671875 .24598694-.0027008057 .2599945 .025222779L.37199403 .26464845 .46299745 .029220581C.47698976-.0066986086 .47898866-.013671875 .4869995-.013671875 .49499513-.013671875 .49899293-.0037078858 .5149994 .035202028L.6529999 .38101197C.66799929 .4181366 .6729889 .42816163 .69400027 .43518067V.4501953H.57099917Z"/>
<path id="font_2_79" d="M.07998657 .08998108C.07998657 .0309906 .06498718 .017990113 .017990113 .01499939V0H.22999573V.01499939C.17799378 .017990113 .1639862 .033996583 .1639862 .066986087V.34796144C.20199585 .38494874 .23298645 .404953 .2630005 .404953 .32199098 .404953 .33999635 .36895753 .33999635 .30796815V.098983768C.33999635 .022994996 .31399537 .017990113 .2769928 .01499939V0H.4850006V.01499939C.43598939 .018997193 .42399598 .033996583 .42399598 .08097839V.30996705C.42399598 .43295289 .35299684 .45996095 .30699159 .45996095 .24798584 .45996095 .20999146 .42495729 .16099549 .37895204V.45794679L.1539917 .45996095C.10798645 .44303895 .06098938 .4280243 .015991211 .41503907V.3980255C.019989014 .40003968 .0309906 .40203858 .04499817 .40203858 .06098938 .40203858 .07998657 .4010315 .07998657 .33802796V.08998108Z"/>
<path id="font_2_72" d="M.09799194-.08985901C.09799194-.059890748 .115997318-.03892517 .14698792-.001953125 .19400025-.011657715 .21598816-.011657715 .30999757-.0146484379 .38398744-.016662598 .43299867-.018661499 .43299867-.063705448 .43299867-.116744998 .36499024-.16078186 .24798584-.16078186 .13398743-.16078186 .09799194-.12081909 .09799194-.08985901M.1519928 .3421173C.1519928 .40899659 .19099427 .4319458 .22698975 .4319458 .31298829 .4319458 .32899476 .29818727 .32899476 .27023316 .32899476 .24827576 .32398988 .17440796 .2559967 .17440796 .17799378 .17440796 .1519928 .26324464 .1519928 .3421173M.46998597 .38775636V.4267578H.3929901C.3769989 .4267578 .35899354 .428833 .33799745 .43695069 .2979889 .45195008 .27598573 .45996095 .24099732 .45996095 .16499329 .45996095 .068984989 .4119873 .068984989 .29319764 .068984989 .23530579 .102996829 .18937683 .1619873 .16340637 .07299805 .084365848 .07299805 .0713501 .07299805 .054336549 .07299805 .02633667 .09899902 .014343262 .12599182 .0013427734 .07499695-.03466797 .027999878-.07571411 .027999878-.1207428 .027999878-.17378235 .102996829-.21777344 .20498657-.21777344 .29499818-.21777344 .46099855-.16177368 .46099855-.048690797 .46099855-.0206604 .44699098 .053344728 .33999635 .05834961L.21099854 .06434631C.18099976 .06535339 .1329956 .068344119 .1329956 .09136963 .1329956 .1113739 .17298889 .15240479 .19299317 .15440369 .19898987 .15440369 .23498535 .14941406 .24699402 .14941406 .30299378 .14941406 .4059906 .18836975 .4059906 .29603578 .4059906 .34588624 .39698792 .3648224 .3869934 .38775636H.46998597Z"/>
<path id="font_2_87" d="M.47698976 .4501953H.33799745V.43518067C.36299134 .43418885 .3849945 .42518617 .3849945 .40219117 .3849945 .36621095 .31399537 .21025086 .27999879 .11428833L.17799378 .37020875C.1749878 .37820436 .16899109 .39320375 .16899109 .40519715 .16899109 .43019105 .19099427 .43318177 .21499634 .43518067V.4501953H.018997193V.43518067C.038986207 .43418885 .05899048 .42819215 .07398987 .39819337 .10998535 .32722474 .20599365 .09529114 .22999573 .033309938 .24598694-.009674072 .24798584-.013671875 .25698854-.013671875 .2639923-.013671875 .272995 .009307861 .28399659 .03630066L.4119873 .35720826C.43598939 .41619874 .44299317 .43218995 .47698976 .43518067V.4501953Z"/>
<path id="font_2_84" d="M.31498719 .31404115 .31098939 .45117188H.2999878C.29699708 .44696046 .2919922 .43995667 .2829895 .43995667 .2659912 .43995667 .23498535 .45996095 .19099427 .45996095 .09399414 .45996095 .050994874 .39398194 .050994874 .3380127 .050994874 .2640686 .10598755 .22709656 .16799927 .19210816L.22599793 .15913391C.2579956 .1411438 .27799989 .11715698 .27799989 .08517456 .27799989 .028213501 .23098755 .01222229 .19699097 .01222229 .09899902 .01222229 .07998657 .09916687 .067993167 .15213013H.051986696V-.00390625H.06498718C.070999149 .0052337648 .07499695 .008224487 .08699036 .008224487 .114990238 .009231567 .1579895-.009765625 .20298767-.009765625 .2669983-.009765625 .34799195 .032211305 .34799195 .119155887 .34799195 .17912293 .31298829 .20710755 .2639923 .2370758L.1559906 .30104066C.11898804 .32302857 .11299133 .352005 .11299133 .37199403 .11299133 .39797975 .13398743 .43695069 .18899536 .43695069 .23298645 .43695069 .27799989 .41596986 .2999878 .31404115H.31498719Z"/>
<path id="font_2_86" d="M.47898866 .050125123C.4189911 .04812622 .4169922 .071121219 .4169922 .10713196V.4501953H.25898744V.43318177C.32899476 .43118287 .33299256 .41018678 .33299256 .37017823V.13522339C.33299256 .10221863 .32598878 .09222412 .31698609 .084228519 .2899933 .06222534 .2599945 .048233034 .22999573 .048233034 .1639862 .048233034 .15499878 .11021423 .15499878 .1242218V.4501953H.008987427V.43618775C.038986207 .43418885 .070999149 .43218995 .070999149 .37219239V.120224C.070999149 .014221191 .14898682-.009765625 .18998719-.009765625 .20799256-.009765625 .2559967-.0057678224 .29499818 .033233644L.33799745 .07621765V-.0067749025L.33999635-.008773804C.3869934 .008117676 .4249878 .022125245 .47898866 .036132814V.050125123Z"/>
<path id="font_2_83" d="M.07598877 .083984378C.07598877 .02798462 .05999756 .024993897 .004989624 .01499939V0H.24499512V.01499939C.19400025 .016998291 .1599884 .020996094 .1599884 .08998108V.31495667C.1599884 .34695436 .20399475 .3969574 .22799683 .3969574 .2519989 .3969574 .2619934 .36195375 .29699708 .36195375 .32099916 .36195375 .33499146 .38095094 .33499146 .40596009 .33499146 .43894959 .31498719 .45996095 .2809906 .45996095 .24299622 .45996095 .20899964 .43995667 .1619873 .36895753H.1599884V.45794679L.15499878 .45996095C.10598755 .44024659 .055999757 .4222412 .0069885256 .40625V.39024354C.015991211 .39224244 .026992798 .39424134 .040985109 .39424134 .056991579 .39424134 .07598877 .39323426 .07598877 .334198V.083984378Z"/>
<path id="font_2_69" d="M.33999635 .10218811C.33198548 .066207889 .29299928 .04222107 .25099183 .04222107 .18499756 .04222107 .11299133 .09819031 .11299133 .24708557 .11299133 .3829956 .18099976 .4319458 .23699951 .4319458 .28399659 .4319458 .33299256 .39997865 .33999635 .33203126V.10218811M.4909973 .0579834C.42399598 .052978517 .42399598 .07298279 .42399598 .113983158V.6806183L.4189911 .6826172C.37098695 .66563418 .32199098 .65164187 .27198792 .6386719V.6226654C.27999879 .6236572 .2899933 .6236572 .29599 .6236572 .33999635 .6236572 .33999635 .6027069 .33999635 .5727539V.41696168C.30699159 .44595338 .2769928 .45996095 .23399353 .45996095 .12199402 .45996095 .026992798 .34501649 .026992798 .21411133 .026992798 .010223389 .16999817-.009765625 .20899964-.009765625 .2829895-.009765625 .31999208 .02722168 .33799745 .054214479H.33999635V-.0067749025L.34399415-.009765625C.39698792 .008987427 .44299317 .024978638 .4909973 .041992189V.0579834Z"/>
<path id="font_2_67" d="M.15299988 .32200624C.15699768 .3789673 .22099304 .3969574 .25299073 .3969574 .34399415 .3969574 .37998963 .2940216 .37998963 .20109558 .37998963 .1351471 .3639984 .022232056 .24899292 .022232056 .22399903 .022232056 .15299988 .035217287 .15299988 .07019043V.32200624M.068984989 .05419922C.068984989 .017227173 .17399597-.009765625 .22399903-.009765625 .40899659-.009765625 .46798707 .14813233 .46798707 .23806763 .46798707 .34498597 .41099549 .45996095 .2899933 .45996095 .21398926 .45996095 .16099549 .40194703 .15499878 .3789673H.15299988V.6806183L.147995 .6826172C.099990848 .66563418 .050994874 .65164187 .0029907227 .6386719V.6226654C.008987427 .6236572 .018997193 .6236572 .024993897 .6236572 .068984989 .6236572 .068984989 .6027069 .068984989 .5727539V.05419922Z"/>
<path id="font_2_90" d="M.47499085 .4501953H.33999635V.43518067C.37199403 .43618775 .3880005 .42619325 .3880005 .4071808 .3880005 .39819337 .375 .36619569 .36499024 .33918763L.2869873 .11720276 .17199707 .37019349C.16899109 .37719728 .1619873 .39318849 .1619873 .40618897 .1619873 .43318177 .19699097 .43418885 .21998596 .43518067V.4501953H.01399231V.43618775C.026992798 .43418885 .052993776 .42918397 .06498718 .40419007L.1789856 .15820313C.19299317 .12719727 .24099732 .035202028 .24099732 .020202637 .24099732 .004211426 .20098877-.1337738 .14898682-.1337738 .13598633-.1337738 .10499573-.11578369 .07798767-.11578369 .03199768-.11578369 .02999878-.15377808 .02999878-.15977478 .02999878-.18577576 .052993776-.21777344 .102996829-.21777344 .17799378-.21777344 .22200012-.15177918 .272995-.017791748L.4269867 .3901825C.44198609 .43118287 .46199037 .43318177 .47499085 .43518067V.4501953Z"/>
<path id="font_2_81" d="M.07499695-.13079834C.07499695-.1737976 .070999149-.19480896 .004989624-.19979859V-.21679688H.24699402V-.19880677C.1749878-.19880677 .15899658-.18780518 .15899658-.123794559V.033218385C.19198609 .0012207031 .21998596-.009765625 .2599945-.009765625 .39898683-.009765625 .46998597 .13014221 .46998597 .24507141 .46998597 .3779602 .3939972 .45996095 .30499269 .45996095 .22799683 .45996095 .18199158 .4109497 .16099549 .3829651L.15899658 .384964V.45794679L.15299988 .45996095C.10499573 .44117738 .056991579 .42417909 .008987427 .4091797V.39317323C.017990113 .39416505 .027999878 .39416505 .036987306 .39416505 .07199097 .39416505 .07499695 .377182 .07499695 .33717347V-.13079834M.15899658 .33399964C.16499329 .37197877 .22099304 .39994813 .25698854 .39994813 .3789978 .39994813 .38398744 .23806763 .38398744 .21508789 .38398744 .04121399 .2939911 .022232056 .26098634 .022232056 .20599365 .022232056 .15899658 .065200809 .15899658 .08818054V.33399964Z"/>
<path id="font_2_66" d="M.2869873 .1230011C.2869873 .09309387 .28399659 .08113098 .25299073 .06617737 .24398804 .061187746 .21299744 .048217775 .19099427 .048217775 .1539917 .048217775 .125 .07913208 .125 .12599182V.12799073C.125 .1618805 .13598633 .21772766 .2869873 .26757813V.1230011M.44198609 .06617737C.43099977 .05718994 .41799928 .047225954 .39698792 .047225954 .36799623 .047225954 .36799623 .07614136 .36799623 .10505676V.29963685C.36799623 .359787 .36799623 .45996095 .21899414 .45996095 .102996829 .45996095 .055999757 .38883973 .055999757 .34875489 .055999757 .3327179 .067993167 .30465699 .09899902 .30465699 .125 .30465699 .14399719 .32670594 .14399719 .3477478 .14399719 .356781 .13899231 .3718109 .13899231 .38684083 .13899231 .4179077 .1769867 .43595887 .20999146 .43595887 .23999024 .43595887 .2869873 .42492677 .2869873 .35276795V.29162599C.12399292 .22769165 .036987306 .19378662 .036987306 .09408569 .036987306 .02722168 .08898926-.009765625 .14299011-.009765625 .19799805-.009765625 .25099183 .030227662 .28799439 .063186649 .29299928-.008773804 .33499146-.009765625 .35299684-.009765625 .36898805-.009765625 .3999939-.008773804 .44198609 .040222169V.06617737Z"/>
<path id="font_2_78" d="M.085998538 .084991458C.085998538 .017990113 .055999757 .015991211 .015991211 .01499939V0H.23799134V.01499939C.20298767 .015991211 .16999817 .017990113 .16999817 .066986087V.34895326C.16999817 .35395814 .21598816 .40795899 .2849884 .40795899 .33699037 .40795899 .35398866 .36895753 .35398866 .30296327V.08598328C.35398866 .020996094 .33099366 .017990113 .28599549 .01499939V0H.5099945V.01499939C.46899415 .015991211 .43798829 .018997193 .43798829 .09498596V.34695436C.45999146 .38095094 .49398805 .40795899 .548996 .40795899 .62098696 .40795899 .621994 .34895326 .621994 .29795838V.08699036C.621994 .022994996 .60598757 .020996094 .55599978 .01499939V0H.7749939V.01499939L.7489929 .016998291C.7049866 .023986817 .70599368 .053985597 .70599368 .07598877V.28196717C.70599368 .35595704 .69200137 .45996095 .58799746 .45996095 .5089874 .45996095 .44799806 .39994813 .4269867 .3759613 .41600038 .4179535 .3849945 .45996095 .31999208 .45996095 .2659912 .45996095 .22499085 .427948 .1659851 .38294984V.45794679L.15899658 .45996095C.11299133 .44303895 .06599426 .4280243 .018997193 .41503907V.3980255C.026992798 .40003968 .036987306 .40203858 .050994874 .40203858 .066986087 .40203858 .085998538 .4010315 .085998538 .33802796V.084991458Z"/>
<path id="font_2_82" d="M.3600006 .42495729C.32099916 .44696046 .2979889 .45996095 .24699402 .45996095 .12199402 .45996095 .023986817 .3500061 .023986817 .21211243 .023986817 .06121826 .09899902-.009765625 .18798828-.009765625 .24899292-.009765625 .31900025 .032226564 .33599855 .06222534H.34098817V-.123794559C.34098817-.1737976 .32699586-.19680786 .2519989-.19979859V-.21679688H.48799134V-.20280457C.44299317-.19281006 .4249878-.188797 .4249878-.14079285V.4560547L.42099 .4600525 .4139862 .4570465 .3600006 .42495729M.34098817 .12719727C.33999635 .095214847 .33999635 .079208377 .28799439 .06022644 .269989 .053222658 .25299073 .051223756 .23799134 .051223756 .14898682 .051223756 .10998535 .1461792 .10998535 .23814392 .10998535 .3590088 .1639862 .4319458 .24499512 .4319458 .33999635 .4319458 .34098817 .3610077 .34098817 .33302308V.12719727Z"/>
<path id="font_5_11" d="M.30000306-.17440796 .29000855-.19140625C.2773336-.19273885 .2506663-.17340088 .21000672-.13339234 .16466777-.0900472 .13066609-.047032674 .10800171-.004348755 .07132975 .06566874 .052993776 .1473592 .052993776 .24072266 .052993776 .3340861 .07132975 .41577659 .10800171 .48579408 .13066609 .52847799 .16466777 .5714925 .21000672 .61483767 .2506663 .6548462 .2773336 .67418417 .29000855 .67285159L.30000306 .6558533C.2500051 .61583456 .21366883 .5734863 .19099427 .5288086 .18433126 .5154724 .17399597 .48546348 .1599884 .43878175 .1446584 .3881022 .13699341 .32208253 .13699341 .24072266 .13699341 .1593628 .1446584 .0933431 .1599884 .042663576 .17399597-.004018148 .18433126-.0340271 .19099427-.04736328 .21366883-.092041019 .2500051-.13438924 .30000306-.17440796Z"/>
<path id="font_5_12" d="M.039993287-.19140625 .02999878-.17440796C.07999674-.13438924 .11632792-.092041019 .13899231-.04736328 .14566548-.0340271 .15600078-.004018148 .16999817 .042663576 .18532817 .0933431 .19299317 .15935771 .19299317 .2407074 .19299317 .32272849 .18532817 .38907878 .16999817 .4397583 .15600078 .48644004 .14566548 .516449 .13899231 .52978518 .11632792 .5744629 .07999674 .6168111 .02999878 .65682986L.039993287 .6738281C.05265808 .6751607 .079325359 .65582278 .11999512 .6158142 .1653239 .57246908 .19932556 .5294545 .22200012 .48677064 .2586619 .41675315 .2769928 .33473207 .2769928 .2407074 .2769928 .14735413 .2586619 .06566874 .22200012-.004348755 .19932556-.047032674 .1653239-.0900472 .11999512-.13339234 .079325359-.17340088 .05265808-.19273885 .039993287-.19140625Z"/>
<path id="font_2_19" d="M.47499085 .13696289 .46199037 .14196778C.4229889 .07899475 .4039917 .07598877 .36698915 .07598877H.12799073L.29599 .2519226C.33999635 .29890443 .42399598 .38986207 .42399598 .4958191 .42399598 .6077728 .33399964 .67578127 .24299622 .67578127 .15499878 .67578127 .06098938 .6277771 .0309906 .4768219L.051986696 .47183229C.07398987 .5258026 .10398865 .6017761 .19499207 .6017761 .31298829 .6017761 .33799745 .5098114 .33799745 .4588318 .33799745 .38386537 .29499818 .29389955 .20799256 .200943L.02999878 .011993408V0H.41999818L.47499085 .13696289Z"/>
<path id="font_6_85" d="M.29599 .42773438H.21598816L.24398804 .5307312C.24598694 .5387268 .24398804 .5477295 .23699951 .5457306 .22799683 .5477295 .22399903 .5387268 .21998596 .5337219 .19198609 .49873353 .14399719 .4537201 .11099243 .4367218 .09399414 .42773438 .06599426 .4207306 .05999756 .4117279 .056991579 .40672303 .056991579 .4017334 .057998659 .39572145H.13198853L.05999756 .12112427C.055999757 .105148319 .036987306 .04423523 .036987306 .029251099 .036987306-.00074768069 .06498718-.0107421879 .084991458-.0107421879 .13699341-.0107421879 .17599488 .0332489 .22698975 .11013794L.21398926 .11714172C.18899536 .08517456 .1539917 .038253786 .13398743 .038253786 .12298584 .038253786 .117996219 .04623413 .117996219 .055221559 .117996219 .05822754 .117996219 .06021118 .11898804 .06321716L.20698548 .39572145H.29100038L.29599 .42773438Z"/>
<path id="font_6_89" d="M.4019928 .11128235C.375 .08126831 .35499574 .04425049 .33399964 .04425049 .31399537 .04425049 .30699159 .06925964 .30299378 .08526611 .29699708 .11027527 .2630005 .24633789 .2630005 .26434327 .2630005 .26434327 .33099366 .38539125 .3600006 .38539125 .38198854 .38539125 .3889923 .36839295 .41299439 .36839295 .43699647 .36839295 .44699098 .3874054 .44699098 .4053955 .44699098 .42939759 .4249878 .44140626 .4059906 .44140626 .35398866 .44140626 .30699159 .3804016 .25498963 .2983551L.24398804 .3533783C.22599793 .44140626 .21099854 .44140626 .18899536 .44140626 .15699768 .44140626 .09098816 .41740418 .06399536 .4084015L.067993167 .3934021C.099990848 .4013977 .11399841 .4044037 .12298584 .4044037 .1499939 .4044037 .1539917 .39039613 .16299439 .359375 .1639862 .35438539 .19799805 .22132874 .19799805 .21232605 .10798645 .08126831 .08198547 .04725647 .06498718 .04725647 .04699707 .04725647 .0289917 .06625366 .0069885256 .06625366-.015014648 .06625366-.027008057 .04824829-.027008057 .03225708-.027008057 .008255005-.011001587-.0107421879 .021987915-.0107421879 .052993776-.0107421879 .06498718 .00024414063 .08198547 .019256592 .115997318 .056259157 .1579895 .11027527 .20599365 .17630005L.23599243 .056259157C.24899292 .003250122 .2639923-.0107421879 .29299928-.0107421879 .31599427-.0107421879 .34498597-.0107421879 .41600038 .103271488L.4019928 .11128235Z"/>
<path id="font_5_32" d="M.53700259 .38964845V.3350067H.011001587V.38964845H.53700259M.53700259 .19599915V.140625H.011001587V.19599915H.53700259Z"/>
<path id="font_2_20" d="M.15299988 .33003236C.22200012 .33203126 .24699402 .32704164 .2829895 .3080597 .34700013 .27508546 .35899354 .20115662 .35899354 .17617798 .35899354 .101242069 .31799317 .022323609 .22499085 .022323609 .1659851 .022323609 .12799073 .07826233 .08198547 .07826233 .06599426 .07826233 .042999269 .0712738 .042999269 .043304445 .042999269-.008682251 .12998963-.013671875 .1539917-.013671875 .31098939-.013671875 .43099977 .074279788 .43099977 .21614075 .43099977 .34802247 .34599305 .38298036 .3039856 .40097047 .36999513 .44392396 .39698792 .4868927 .39698792 .5408478 .39698792 .58180239 .36999513 .67578127 .24099732 .67578127 .17399597 .67578127 .084991458 .6447754 .04499817 .51387026L.05999756 .50987246C.07499695 .5378418 .116989139 .61576846 .20799256 .61576846 .28199769 .61576846 .31799317 .56282046 .31799317 .51187136 .31799317 .4199524 .24299622 .37199403 .1519928 .34301759L.15299988 .33003236Z"/>
<path id="font_6_90" d="M.01499939 .4002838C.026992798 .4032898 .033996583 .40429688 .04899597 .40429688 .10598755 .40429688 .11898804 .36125184 .1459961 .27020265 .16299439 .21617127 .20498657 .0410614 .20498657 .003036499 .20498657-.023986817 .16299439-.073013309 .13798523-.10203552 .10398865-.14205933 .09098816-.15106201 .07499695-.15106201 .056991579-.15106201 .04399109-.123062137 .01399231-.123062137-.007003784-.123062137-.024002076-.14006043-.024002076-.16105652-.024002076-.20306397 .018997193-.20605469 .026992798-.20605469 .1459961-.20605469 .42599488 .2602539 .42599488 .37934876 .42599488 .41537477 .4059906 .44140626 .36898805 .44140626 .34298707 .44140626 .33198548 .42037965 .33198548 .40637208 .33198548 .3603363 .38598634 .3713379 .38598634 .330307 .38598634 .27726747 .30699159 .14216614 .2639923 .07211304L.24398804 .1882019C.23098755 .2632599 .17199707 .44239808 .15899658 .44140626 .14099121 .44140626 .06298828 .42538453 .01499939 .41737367V.4002838Z"/>
<path id="font_2_17" d="M.25 .6497803C.37799073 .6497803 .37998963 .39898683 .37998963 .33103944 .37998963 .25212098 .37799073 .012313843 .25 .012313843 .12199402 .012313843 .11999512 .25012208 .11999512 .33103944 .11999512 .39898683 .12199402 .6497803 .25 .6497803M.25 .67578127C.06599426 .67578127 .023986817 .4489441 .023986817 .33103944 .023986817 .21014405 .06599426-.013671875 .25-.013671875 .43399049-.013671875 .47599793 .21014405 .47599793 .33103944 .47599793 .4489441 .43399049 .67578127 .25 .67578127Z"/>
<path id="font_2_18" d="M.117996219 0H.3939972V.01499939C.31900025 .01499939 .29899598 .025985718 .29899598 .07397461V.67378237L.29100038 .67578127 .11099243 .58480837V.57081606C.16699219 .59280398 .16699219 .59280398 .1789856 .59280398 .21299744 .59280398 .21299744 .56681826 .21299744 .54582217V.0929718C.21299744 .018997193 .17599488 .016998291 .117996219 .01499939V0Z"/>
<path id="font_2_32" d="M.24398804 .16412354C.2579956 .25006105 .28399659 .29003907 .33898927 .35398866 .36898805 .3889618 .4139862 .45890809 .4139862 .50987246 .4139862 .5618286 .40499879 .5848236 .37799073 .61779788 .35398866 .6467743 .28799439 .67578127 .23098755 .67578127 .1619873 .67578127 .067993167 .632782 .067993167 .53186038 .067993167 .49787904 .07798767 .4689026 .117996219 .4689026 .1459961 .4689026 .15699768 .4928894 .15699768 .50987246 .15699768 .54585269 .11898804 .5578308 .11898804 .5848236 .11898804 .61779788 .16999817 .6457672 .21199036 .6457672 .2889862 .6457672 .32199098 .5788269 .32199098 .51885989 .32199098 .4788971 .30299378 .40994264 .2849884 .36997987L.25698854 .30603028C.25099183 .29203797 .22698975 .2230835 .22698975 .16412354H.24398804M.23699951-.0078125C.26098634-.0078125 .2919922 .0071868898 .2919922 .043182374 .2919922 .07217407 .2679901 .09718323 .23699951 .09718323 .20799256 .09718323 .18399048 .07417297 .18399048 .043182374 .18399048 .0051727297 .21598816-.0078125 .23699951-.0078125Z"/>
<path id="font_2_9" d="M.29499818 .67578127C.13999939 .58377078 .04798889 .43377687 .04798889 .2617798 .04798889 .1237793 .08099365 .05177307 .12998963-.020233155 .16799927-.07623291 .23399353-.14622498 .2919922-.17723084L.3039856-.16122437C.13398743-.052230836 .13398743 .16677857 .13398743 .2687683 .13398743 .5227661 .22999573 .60076907 .3039856 .6597748L.29499818 .67578127Z"/>
<path id="font_2_34" d="M.70599368 .018997193C.6619873 .021987915 .647995 .032974245 .6159973 .10592651L.36698915 .6738281H.34700013L.13899231 .18286133C.11999512 .1388855 .08898926 .06594849 .06599426 .04096985 .04798889 .021987915 .0309906 .019989014 .01499939 .018997193V0H.21299744V.018997193C.19198609 .018997193 .14498902 .018997193 .14498902 .060958864 .14498902 .07194519 .147995 .0859375 .15299988 .09892273L.19898987 .21583557H.46099855L.5019989 .119903568C.5079956 .10592651 .5209961 .07295227 .5209961 .05696106 .5209961 .019989014 .48799134 .018997193 .45098878 .018997193V0H.70599368V.018997193M.21598816 .25683595 .33099366 .53182986 .44699098 .25683595H.21598816Z"/>
<path id="font_2_10" d="M.037994386-.17723084C.19299317-.08522034 .2849884 .06477356 .2849884 .23677063 .2849884 .37477113 .2519989 .44677735 .20298767 .5187683 .16499329 .57476809 .09899902 .6447754 .040985109 .67578127L.0289917 .6597748C.19898987 .550766 .19898987 .33177186 .19898987 .22976685 .19898987-.024230957 .102996829-.10223389 .0289917-.16122437L.037994386-.17723084Z"/>
<path id="font_6_69" d="M.16299439 .037246705C.101989749 .037246705 .101989749 .0942688 .101989749 .11128235 .101989749 .20231629 .19699097 .418396 .30899049 .418396 .35598756 .418396 .35598756 .3743744 .35598756 .3513794 .35598756 .22732544 .2579956 .037246705 .16299439 .037246705M.46299745 .111312869C.42099 .063308719 .40098573 .040298463 .3809967 .040298463 .37098695 .040298463 .36299134 .047302247 .36299134 .062301637 .36299134 .078308109 .48399354 .5042267 .5269928 .6777344L.5219879 .682724C.47099305 .67214968 .41999818 .6651459 .36898805 .66015627V.6431427C.42399598 .6421509 .43099977 .63716128 .43099977 .6141815 .43099977 .60020449 .42399598 .57522585 .41600038 .5472717L.37298585 .38838197 .37098695 .38638307C.36698915 .4084015 .3600006 .44140626 .3039856 .44140626 .18499756 .44140626 .01499939 .2583313 .01499939 .107284549 .01499939 .055252077 .035995485-.0107421879 .11898804-.0107421879 .16899109-.0107421879 .22499085 .0062561037 .29699708 .11628723L.29899598 .11427307C.29100038 .079315189 .2869873 .05630493 .2869873 .033294679 .2869873 .012298584 .29499818-.0126953129 .33399964-.0126953129 .36698915-.0126953129 .43199159 .034301759 .47499085 .10131836L.46299745 .111312869Z"/>
<path id="font_5_14" d="M.24699402 .5332031H.30200196V.29800416H.53900149V.24299622H.30200196V0H.24699402V.24299622H.009994507V.29800416H.24699402V.5332031Z"/>
<path id="font_5_212" d="M.19000244 .48783876 .18899536 .27174378C.18833415 .1536916 .17700196 .055984498 .15499878-.021377564 .14766439-.047388715 .13800049-.067733768 .12600708-.08241272 .12199911-.08708191 .11399841-.0920817 .102005008-.09741211 .08799744-.10408529 .074661258-.107421878 .06199646-.107421878 .052668256-.107421878 .04466756-.1057485 .037994386-.10240173 .022664389-.09503683 .011667888-.08198547 .005004883-.06324768 .0030008953-.05788676 .0019989014-.052530927 .0019989014-.047180177 .0019989014-.030446371 .011001587-.01739502 .029006958-.008026123 .034998578-.004679362 .040664674-.0030059815 .04600525-.0030059815 .057337446-.0030059815 .07066854-.01133728 .085998538-.027999878 .090667728-.03333028 .095336917-.035995485 .1000061-.035995485 .10934448-.035995485 .11634318-.023996989 .1210022 0 .125 .021331788 .12666829 .046000165 .12600708 .07400513 .12199911 .20800781 .11999512 .312678 .11999512 .38801576V.53201296C.11999512 .680013 .12866211 .7833455 .1459961 .8420105 .15466309 .8720093 .16966248 .89367678 .19099427 .90701296 .20033264 .9130147 .21099854 .9160156 .22299195 .9160156 .23966472 .9160156 .25516764 .9111786 .26950074 .9015045 .28383384 .89184066 .29100038 .878006 .29100038 .8600006 .29100038 .8506724 .28799949 .842336 .28199769 .83499148 .27133689 .82232668 .25733949 .81599429 .2400055 .81599429 .23199971 .81599429 .22233074 .81999209 .21099854 .8279877 .19966634 .83599349 .19233704 .83999636 .18901062 .83999636 .17767842 .83999636 .17167664 .8326619 .17100525 .81799319 .17766826 .7532959 .18400066 .64324447 .19000244 .48783876Z"/>
<path id="font_2_35" d="M.016998291 .6430969C.09899902 .6390991 .11299133 .6271057 .11299133 .55311587V.10903931C.11299133 .038009645 .100997928 .020996094 .016998291 .018997193V0H.35099793C.57299807 0 .59298709 .13806153 .59298709 .17608643 .59298709 .2811432 .5130005 .3291626 .42599488 .34716798V.34916688C.47099305 .36016847 .5589905 .38215638 .5589905 .49313355 .5589905 .6481018 .38398744 .6621094 .29699708 .6621094H.016998291V.6430969M.21499634 .32617188C.31098939 .32617188 .34298707 .321167 .3769989 .31115724 .42900086 .29515077 .47799684 .26213075 .47799684 .18008423 .47799684 .04600525 .35699464 .036987306 .29100038 .036987306 .23298645 .036987306 .21499634 .041000368 .21499634 .07801819V.32617188M.21499634 .59510806C.21499634 .6101074 .21699524 .62409976 .23699951 .62409976 .24699402 .62409976 .26098634 .6251068 .28199769 .6251068 .35299684 .6251068 .45700074 .6061096 .45700074 .48713685 .45700074 .36816407 .33799745 .36616517 .30999757 .36616517L.21499634 .36515809V.59510806Z"/>
<path id="font_2_21" d="M.47200013 .23098755H.36999513V.67578127H.32598878L.011993408 .23098755V.16699219H.29299928V0H.36999513V.16699219H.47200013V.23098755M.2919922 .23098755H.051986696L.2899933 .57081606H.2919922V.23098755Z"/>
<path id="font_2_36" d="M.6199951 .450943 .61099246 .67578127H.58999636C.58200076 .6427765 .548996 .6427765 .5439911 .6427765 .5219879 .6427765 .45700074 .67578127 .36799623 .67578127 .19599915 .67578127 .027999878 .5548401 .027999878 .3310547 .027999878 .08227539 .20098877-.013671875 .3619995-.013671875 .54599-.013671875 .6319885 .11125183 .6329956 .11325073L.61499026 .13122559C.58399966 .101257327 .5119934 .030319214 .3889923 .030319214 .2630005 .030319214 .14399719 .117248538 .14399719 .3290558 .14399719 .47291566 .18798828 .53686526 .22698975 .5748291 .2689972 .6157837 .32699586 .6357727 .3769989 .6357727 .5 .6357727 .57199099 .55584719 .5970001 .450943H.6199951Z"/>
<path id="font_2_37" d="M.015991211 0H.2999878C.60598757 0 .68499758 .1960144 .68499758 .32904054 .68499758 .5530853 .526001 .6621094 .28599549 .6621094H.015991211V.6430969C.09298706 .6371002 .10398865 .6271057 .10398865 .5530853V.10900879C.10398865 .039001466 .09199524 .022994996 .015991211 .018997193V0M.20599365 .5860901C.20599365 .60609439 .20599365 .6251068 .25299073 .6251068 .3789978 .6251068 .43499757 .59809878 .48298646 .5550842 .5519867 .4930725 .57598879 .4120636 .57598879 .3280487 .57598879 .036987306 .32998658 .036987306 .2659912 .036987306 .21798706 .036987306 .20599365 .04399109 .20599365 .07800293V.5860901Z"/>
<path id="font_2_38" d="M.5970001 .16905213H.56900027C.5249939 .06800842 .47499085 .037994386 .34999085 .037994386 .20098877 .037994386 .20098877 .038986207 .20098877 .08001709V.32814027L.35499574 .32614137C.43798829 .32513429 .45298768 .3111267 .46499635 .23109436H.48799134V.4631195H.46499635C.45399476 .39213563 .44400025 .36813355 .35499574 .36813355H.20098877V.59010317C.20098877 .62409976 .21299744 .62409976 .23399353 .62409976H.36898805C.47999574 .62409976 .5059967 .6081085 .5209961 .51911929H.54599L.54299929 .6621094H.011993408V.6430969C.07499695 .6381073 .09899902 .63209536 .09899902 .55311587V.10903931C.09899902 .03199768 .07598877 .022994996 .011993408 .018997193V0H.5519867L.5970001 .16905213Z"/>
<path id="font_2_23" d="M.44599916 .68359377C.20399475 .6755829 .033996583 .49375917 .033996583 .2909546 .033996583 .08123779 .13598633-.013671875 .2539978-.013671875 .43199159-.013671875 .46798707 .1451416 .46798707 .2180481 .46798707 .35186769 .3899994 .42782594 .28399659 .42782594 .22799683 .42782594 .20698548 .41583253 .1519928 .38282777 .17098999 .5047455 .269989 .6396179 .44799806 .6675873L.44599916 .68359377M.24198914 .38183595C.34799195 .38183595 .37799073 .28196717 .37799073 .1790924 .37799073 .06625366 .33198548 .014328003 .2689972 .014328003 .19400025 .014328003 .1269989 .08822632 .1269989 .2559967 .1269989 .31591798 .13699341 .33988954 .14698792 .34986878 .17199707 .37384034 .20799256 .38183595 .24198914 .38183595Z"/>
</defs>
<g clip-path="url(#clip_1)">
<use data-text=" " xlink:href="#font_2_1" transform="matrix(10.9591,0,0,-10.98,48,30.840027)"/>
<use data-text=" " xlink:href="#font_2_1" transform="matrix(10.9591,0,0,-10.98,48,43.137636)"/>
<use data-text="A" xlink:href="#font_3_34" transform="matrix(15.9895,0,0,-16.02,48,60.47998)"/>
<use data-text="A" xlink:href="#font_3_34" transform="matrix(15.9895,0,0,-16.02,64.53954,60.47998)"/>
<use data-text="A" xlink:href="#font_3_34" transform="matrix(15.9895,0,0,-16.02,81.07909,60.47998)"/>
<use data-text="A" xlink:href="#font_3_34" transform="matrix(15.9895,0,0,-16.02,97.61863,60.47998)"/>
<use data-text="A" xlink:href="#font_3_34" transform="matrix(15.9895,0,0,-16.02,114.15817,60.47998)"/>
<use data-text="A" xlink:href="#font_3_34" transform="matrix(15.9895,0,0,-16.02,130.69771,60.47998)"/>
<use data-text="A" xlink:href="#font_3_34" transform="matrix(15.9895,0,0,-16.02,147.23725,60.47998)"/>
<use data-text="A" xlink:href="#font_3_34" transform="matrix(15.9895,0,0,-16.02,163.77678,60.47998)"/>
<use data-text="A" xlink:href="#font_3_34" transform="matrix(15.9895,0,0,-16.02,180.31632,60.47998)"/>
<use data-text="A" xlink:href="#font_3_34" transform="matrix(15.9895,0,0,-16.02,196.85585,60.47998)"/>
<use data-text="A" xlink:href="#font_3_34" transform="matrix(15.9895,0,0,-16.02,213.39539,60.47998)"/>
<use data-text="A" xlink:href="#font_3_34" transform="matrix(15.9895,0,0,-16.02,229.93492,60.47998)"/>
<use data-text="A" xlink:href="#font_3_34" transform="matrix(15.9895,0,0,-16.02,246.47446,60.47998)"/>
<use data-text="A" xlink:href="#font_3_34" transform="matrix(15.9895,0,0,-16.02,263.014,60.47998)"/>
<use data-text="A" xlink:href="#font_3_34" transform="matrix(15.9895,0,0,-16.02,279.55357,60.47998)"/>
<use data-text="A" xlink:href="#font_3_34" transform="matrix(15.9895,0,0,-16.02,296.0931,60.47998)"/>
<use data-text="A" xlink:href="#font_3_34" transform="matrix(15.9895,0,0,-16.02,312.63267,60.47998)"/>
<use data-text="A" xlink:href="#font_3_34" transform="matrix(15.9895,0,0,-16.02,329.0954,60.47998)"/>
<use data-text="A" xlink:href="#font_3_34" transform="matrix(15.9895,0,0,-16.02,345.63334,60.47998)"/>
<use data-text="A" xlink:href="#font_3_34" transform="matrix(15.9895,0,0,-16.02,362.17127,60.47998)"/>
<use data-text="A" xlink:href="#font_3_34" transform="matrix(15.9895,0,0,-16.02,378.7092,60.47998)"/>
<use data-text="A" xlink:href="#font_3_34" transform="matrix(15.9895,0,0,-16.02,395.24714,60.47998)"/>
<use data-text="A" xlink:href="#font_3_34" transform="matrix(15.9895,0,0,-16.02,411.78507,60.47998)"/>
<use data-text="A" xlink:href="#font_3_34" transform="matrix(15.9895,0,0,-16.02,428.323,60.47998)"/>
<use data-text="A" xlink:href="#font_3_34" transform="matrix(15.9895,0,0,-16.02,444.86094,60.47998)"/>
<use data-text="A" xlink:href="#font_3_34" transform="matrix(15.9895,0,0,-16.02,461.39888,60.47998)"/>
<use data-text="A" xlink:href="#font_3_34" transform="matrix(15.9895,0,0,-16.02,477.9368,60.47998)"/>
<use data-text="A" xlink:href="#font_3_34" transform="matrix(15.9895,0,0,-16.02,494.47474,60.47998)"/>
<use data-text="A" xlink:href="#font_3_34" transform="matrix(15.9895,0,0,-16.02,511.01268,60.47998)"/>
<use data-text="A" xlink:href="#font_3_34" transform="matrix(15.9895,0,0,-16.02,527.5506,60.47998)"/>
<use data-text="A" xlink:href="#font_3_34" transform="matrix(15.9895,0,0,-16.02,544.08859,60.47998)"/>
<use data-text=" " xlink:href="#font_3_1" transform="matrix(15.9895,0,0,-16.02,555.6698,60.47998)"/>
<use data-text=" " xlink:href="#font_2_1" transform="matrix(10.9591,0,0,-10.98,48,73.859989)"/>
<use data-text=" " xlink:href="#font_2_1" transform="matrix(10.9591,0,0,-10.98,48,86.10266)"/>
<use data-text="U" xlink:href="#font_4_54" transform="matrix(6.942,0,0,-6.7017,53.8033,733.0876)" fill="#231f20"/>
<use data-text="n" xlink:href="#font_4_79" transform="matrix(6.942,0,0,-6.7017,58.815423,733.0876)" fill="#231f20"/>
<use data-text="a" xlink:href="#font_4_66" transform="matrix(6.942,0,0,-6.7017,63.056985,733.0876)" fill="#231f20"/>
<use data-text="u" xlink:href="#font_4_86" transform="matrix(6.942,0,0,-6.7017,66.91673,733.0876)" fill="#231f20"/>
<use data-text="t" xlink:href="#font_4_85" transform="matrix(6.942,0,0,-6.7017,71.158298,733.0876)" fill="#231f20"/>
<use data-text="h" xlink:href="#font_4_73" transform="matrix(6.942,0,0,-6.7017,73.46998,733.0876)" fill="#231f20"/>
<use data-text="o" xlink:href="#font_4_80" transform="matrix(6.942,0,0,-6.7017,77.71154,733.0876)" fill="#231f20"/>
<use data-text="r" xlink:href="#font_4_83" transform="matrix(6.942,0,0,-6.7017,81.9531,733.0876)" fill="#231f20"/>
<use data-text="i" xlink:href="#font_4_74" transform="matrix(6.942,0,0,-6.7017,84.65354,733.0876)" fill="#231f20"/>
<use data-text="z" xlink:href="#font_4_91" transform="matrix(6.942,0,0,-6.7017,86.58342,733.0876)" fill="#231f20"/>
<use data-text="e" xlink:href="#font_4_70" transform="matrix(6.942,0,0,-6.7017,90.12384,733.0876)" fill="#231f20"/>
<use data-text="d" xlink:href="#font_4_69" transform="matrix(6.942,0,0,-6.7017,93.98359,733.0876)" fill="#231f20"/>
<use data-text=" " xlink:href="#font_4_1" transform="matrix(6.942,0,0,-6.7017,98.22515,733.0876)" fill="#231f20"/>
<use data-text="c" xlink:href="#font_4_68" transform="matrix(6.942,0,0,-6.7017,100.15503,733.0876)" fill="#231f20"/>
<use data-text="o" xlink:href="#font_4_80" transform="matrix(6.942,0,0,-6.7017,104.01478,733.0876)" fill="#231f20"/>
<use data-text="p" xlink:href="#font_4_81" transform="matrix(6.942,0,0,-6.7017,108.25634,733.0876)" fill="#231f20"/>
<use data-text="y" xlink:href="#font_4_90" transform="matrix(6.942,0,0,-6.7017,112.39377,733.0876)" fill="#231f20"/>
<use data-text="i" xlink:href="#font_4_74" transform="matrix(6.942,0,0,-6.7017,116.25352,733.0876)" fill="#231f20"/>
<use data-text="n" xlink:href="#font_4_79" transform="matrix(6.942,0,0,-6.7017,118.183399,733.0876)" fill="#231f20"/>
<use data-text="g" xlink:href="#font_4_72" transform="matrix(6.942,0,0,-6.7017,122.42496,733.0876)" fill="#231f20"/>
<use data-text=" " xlink:href="#font_4_1" transform="matrix(6.942,0,0,-6.7017,126.66652,733.0876)" fill="#231f20"/>
<use data-text="o" xlink:href="#font_4_80" transform="matrix(6.942,0,0,-6.7017,128.59639,733.0876)" fill="#231f20"/>
<use data-text="r" xlink:href="#font_4_83" transform="matrix(6.942,0,0,-6.7017,132.83795,733.0876)" fill="#231f20"/>
<use data-text=" " xlink:href="#font_4_1" transform="matrix(6.942,0,0,-6.7017,135.53839,733.0876)" fill="#231f20"/>
<use data-text="r" xlink:href="#font_4_83" transform="matrix(6.942,0,0,-6.7017,137.46826,733.0876)" fill="#231f20"/>
<use data-text="e" xlink:href="#font_4_70" transform="matrix(6.942,0,0,-6.7017,140.1687,733.0876)" fill="#231f20"/>
<use data-text="u" xlink:href="#font_4_86" transform="matrix(6.942,0,0,-6.7017,144.02846,733.0876)" fill="#231f20"/>
<use data-text="s" xlink:href="#font_4_84" transform="matrix(6.942,0,0,-6.7017,148.27002,733.0876)" fill="#231f20"/>
<use data-text="e" xlink:href="#font_4_70" transform="matrix(6.942,0,0,-6.7017,152.12978,733.0876)" fill="#231f20"/>
<use data-text=" " xlink:href="#font_4_1" transform="matrix(6.942,0,0,-6.7017,155.98954,733.0876)" fill="#231f20"/>
<use data-text="o" xlink:href="#font_4_80" transform="matrix(6.942,0,0,-6.7017,157.9194,733.0876)" fill="#231f20"/>
<use data-text="f" xlink:href="#font_4_71" transform="matrix(6.942,0,0,-6.7017,162.16097,733.0876)" fill="#231f20"/>
<use data-text=" " xlink:href="#font_4_1" transform="matrix(6.942,0,0,-6.7017,164.47266,733.0876)" fill="#231f20"/>
<use data-text="a" xlink:href="#font_4_66" transform="matrix(6.942,0,0,-6.7017,53.8033,740.26516)" fill="#231f20"/>
<use data-text="n" xlink:href="#font_4_79" transform="matrix(6.942,0,0,-6.7017,57.66305,740.26516)" fill="#231f20"/>
<use data-text="y" xlink:href="#font_4_90" transform="matrix(6.942,0,0,-6.7017,61.765775,740.26516)" fill="#231f20"/>
<use data-text=" " xlink:href="#font_4_1" transform="matrix(6.942,0,0,-6.7017,65.62553,740.26516)" fill="#231f20"/>
<use data-text="p" xlink:href="#font_4_81" transform="matrix(6.942,0,0,-6.7017,67.555408,740.26516)" fill="#231f20"/>
<use data-text="a" xlink:href="#font_4_66" transform="matrix(6.942,0,0,-6.7017,71.79697,740.26516)" fill="#231f20"/>
<use data-text="r" xlink:href="#font_4_83" transform="matrix(6.942,0,0,-6.7017,75.656719,740.26516)" fill="#231f20"/>
<use data-text="t" xlink:href="#font_4_85" transform="matrix(6.942,0,0,-6.7017,78.495998,740.26516)" fill="#231f20"/>
<use data-text=" " xlink:href="#font_4_1" transform="matrix(6.942,0,0,-6.7017,80.80768,740.26516)" fill="#231f20"/>
<use data-text="o" xlink:href="#font_4_80" transform="matrix(6.942,0,0,-6.7017,82.73756,740.26516)" fill="#231f20"/>
<use data-text="f" xlink:href="#font_4_71" transform="matrix(6.942,0,0,-6.7017,86.97912,740.26516)" fill="#231f20"/>
<use data-text=" " xlink:href="#font_4_1" transform="matrix(6.942,0,0,-6.7017,89.2908,740.26516)" fill="#231f20"/>
<use data-text="t" xlink:href="#font_4_85" transform="matrix(6.942,0,0,-6.7017,91.22068,740.26516)" fill="#231f20"/>
<use data-text="h" xlink:href="#font_4_73" transform="matrix(6.942,0,0,-6.7017,93.532367,740.26516)" fill="#231f20"/>
<use data-text="i" xlink:href="#font_4_74" transform="matrix(6.942,0,0,-6.7017,97.773929,740.26516)" fill="#231f20"/>
<use data-text="s" xlink:href="#font_4_84" transform="matrix(6.942,0,0,-6.7017,99.703807,740.26516)" fill="#231f20"/>
<use data-text=" " xlink:href="#font_4_1" transform="matrix(6.942,0,0,-6.7017,103.56355,740.26516)" fill="#231f20"/>
<use data-text="p" xlink:href="#font_4_81" transform="matrix(6.942,0,0,-6.7017,105.49343,740.26516)" fill="#231f20"/>
<use data-text="a" xlink:href="#font_4_66" transform="matrix(6.942,0,0,-6.7017,109.73499,740.26516)" fill="#231f20"/>
<use data-text="g" xlink:href="#font_4_72" transform="matrix(6.942,0,0,-6.7017,113.52532,740.26516)" fill="#231f20"/>
<use data-text="e" xlink:href="#font_4_70" transform="matrix(6.942,0,0,-6.7017,117.8363,740.26516)" fill="#231f20"/>
<use data-text=" " xlink:href="#font_4_1" transform="matrix(6.942,0,0,-6.7017,121.69605,740.26516)" fill="#231f20"/>
<use data-text="i" xlink:href="#font_4_74" transform="matrix(6.942,0,0,-6.7017,123.62593,740.26516)" fill="#231f20"/>
<use data-text="s" xlink:href="#font_4_84" transform="matrix(6.942,0,0,-6.7017,125.55581,740.26516)" fill="#231f20"/>
<use data-text=" " xlink:href="#font_4_1" transform="matrix(6.942,0,0,-6.7017,129.41556,740.26516)" fill="#231f20"/>
<use data-text="i" xlink:href="#font_4_74" transform="matrix(6.942,0,0,-6.7017,131.34543,740.26516)" fill="#231f20"/>
<use data-text="l" xlink:href="#font_4_77" transform="matrix(6.942,0,0,-6.7017,133.2753,740.26516)" fill="#231f20"/>
<use data-text="l" xlink:href="#font_4_77" transform="matrix(6.942,0,0,-6.7017,135.20517,740.26516)" fill="#231f20"/>
<use data-text="e" xlink:href="#font_4_70" transform="matrix(6.942,0,0,-6.7017,137.13504,740.26516)" fill="#231f20"/>
<use data-text="g" xlink:href="#font_4_72" transform="matrix(6.942,0,0,-6.7017,140.9948,740.26516)" fill="#231f20"/>
<use data-text="a" xlink:href="#font_4_66" transform="matrix(6.942,0,0,-6.7017,145.23636,740.26516)" fill="#231f20"/>
<use data-text="l" xlink:href="#font_4_77" transform="matrix(6.942,0,0,-6.7017,149.09612,740.26516)" fill="#231f20"/>
<use data-text="." xlink:href="#font_4_15" transform="matrix(6.942,0,0,-6.7017,151.02599,740.26516)" fill="#231f20"/>
<path transform="matrix(1.017764,0,0,-.982546,0,783)" stroke-width=".78" stroke-linecap="butt" stroke-miterlimit="4" stroke-linejoin="miter" fill="none" stroke="#231f20" d="M50.717 40.189H163.747V58.175H50.717ZM163.747 40.189Z"/>
<use data-text=" " xlink:href="#font_4_1" transform="matrix(10.9591,0,0,-10.98,169.98,745.74)"/>
<use data-text=" " xlink:href="#font_4_1" transform="matrix(10.9591,0,0,-10.98,263.9981,745.74)"/>
<use data-text="G" xlink:href="#font_4_40" transform="matrix(10.9591,0,0,-10.98,408.00068,745.74)"/>
<use data-text="O" xlink:href="#font_4_48" transform="matrix(10.9591,0,0,-10.98,416.5367,745.74)"/>
<use data-text=" " xlink:href="#font_4_1" transform="matrix(10.9591,0,0,-10.98,425.07276,745.74)"/>
<use data-text="O" xlink:href="#font_4_48" transform="matrix(10.9591,0,0,-10.98,428.18736,745.74)"/>
<use data-text="N" xlink:href="#font_4_47" transform="matrix(10.9591,0,0,-10.98,436.7234,745.74)"/>
<use data-text=" " xlink:href="#font_4_1" transform="matrix(10.9591,0,0,-10.98,444.64573,745.74)"/>
<use data-text="T" xlink:href="#font_4_53" transform="matrix(10.9591,0,0,-10.98,447.7055,745.74)"/>
<use data-text="O" xlink:href="#font_4_48" transform="matrix(10.9591,0,0,-10.98,454.4881,745.74)"/>
<use data-text=" " xlink:href="#font_4_1" transform="matrix(10.9591,0,0,-10.98,463.00224,745.74)"/>
<use data-text="T" xlink:href="#font_4_53" transform="matrix(10.9591,0,0,-10.98,466.11683,745.74)"/>
<use data-text="H" xlink:href="#font_4_41" transform="matrix(10.9591,0,0,-10.98,472.8227,745.74)"/>
<use data-text="E" xlink:href="#font_4_38" transform="matrix(10.9591,0,0,-10.98,480.74504,745.74)"/>
<use data-text=" " xlink:href="#font_4_1" transform="matrix(10.9591,0,0,-10.98,488.0646,745.74)"/>
<use data-text="N" xlink:href="#font_4_47" transform="matrix(10.9591,0,0,-10.98,491.1244,745.74)"/>
<use data-text="E" xlink:href="#font_4_38" transform="matrix(10.9591,0,0,-10.98,499.04673,745.74)"/>
<use data-text="X" xlink:href="#font_4_57" transform="matrix(10.9591,0,0,-10.98,506.4211,745.74)"/>
<use data-text="T" xlink:href="#font_4_53" transform="matrix(10.9591,0,0,-10.98,513.7407,745.74)"/>
<use data-text=" " xlink:href="#font_4_1" transform="matrix(10.9591,0,0,-10.98,520.4466,745.74)"/>
<use data-text="P" xlink:href="#font_4_49" transform="matrix(10.9591,0,0,-10.98,523.5064,745.74)"/>
<use data-text="A" xlink:href="#font_4_34" transform="matrix(10.9591,0,0,-10.98,530.826,745.74)"/>
<use data-text="G" xlink:href="#font_4_40" transform="matrix(10.9591,0,0,-10.98,538.74838,745.74)"/>
<use data-text="E" xlink:href="#font_4_38" transform="matrix(10.9591,0,0,-10.98,547.2844,745.74)"/>
<use data-text="." xlink:href="#font_4_15" transform="matrix(10.9591,0,0,-10.98,554.604,745.74)"/>
<use data-text=" " xlink:href="#font_4_1" transform="matrix(10.9591,0,0,-10.98,557.6605,745.74)"/>
<use data-text="-" xlink:href="#font_4_14" transform="matrix(10.9591,0,0,-10.98,299.27546,758.88308)"/>
<use data-text="8" xlink:href="#font_4_25" transform="matrix(10.9591,0,0,-10.98,302.9402,758.88308)"/>
<use data-text="-" xlink:href="#font_4_14" transform="matrix(10.9591,0,0,-10.98,309.0488,758.88308)"/>
<use data-text=" " xlink:href="#font_4_1" transform="matrix(10.9591,0,0,-10.98,312.71354,758.88308)"/>
<use data-text="9" xlink:href="#font_2_26" transform="matrix(10.9591,0,0,-10.98,51.1154,109.328189)"/>
<use data-text="." xlink:href="#font_2_15" transform="matrix(10.9591,0,0,-10.98,56.616868,109.328189)"/>
<use data-text=" " xlink:href="#font_2_1" transform="matrix(10.9591,0,0,-10.98,59.312807,109.328189)"/>
<use data-text="W" xlink:href="#font_2_56" transform="matrix(10.9591,0,0,-10.98,65.25044,109.328189)"/>
<use data-text="h" xlink:href="#font_2_73" transform="matrix(10.9591,0,0,-10.98,75.61775,109.328189)"/>
<use data-text="i" xlink:href="#font_2_74" transform="matrix(10.9591,0,0,-10.98,81.11922,109.328189)"/>
<use data-text="c" xlink:href="#font_2_68" transform="matrix(10.9591,0,0,-10.98,84.18777,109.328189)"/>
<use data-text="h" xlink:href="#font_2_73" transform="matrix(10.9591,0,0,-10.98,89.07552,109.328189)"/>
<use data-text=" " xlink:href="#font_2_1" transform="matrix(10.9591,0,0,-10.98,94.57699,109.328189)"/>
<use data-text="o" xlink:href="#font_2_80" transform="matrix(10.9591,0,0,-10.98,97.336498,109.328189)"/>
<use data-text="f" xlink:href="#font_2_71" transform="matrix(10.9591,0,0,-10.98,102.83796,109.328189)"/>
<use data-text=" " xlink:href="#font_2_1" transform="matrix(10.9591,0,0,-10.98,106.509258,109.328189)"/>
<use data-text="t" xlink:href="#font_2_85" transform="matrix(10.9591,0,0,-10.98,109.26876,109.328189)"/>
<use data-text="h" xlink:href="#font_2_73" transform="matrix(10.9591,0,0,-10.98,112.33731,109.328189)"/>
<use data-text="e" xlink:href="#font_2_70" transform="matrix(10.9591,0,0,-10.98,117.838779,109.328189)"/>
<use data-text=" " xlink:href="#font_2_1" transform="matrix(10.9591,0,0,-10.98,122.72653,109.328189)"/>
<use data-text="f" xlink:href="#font_2_71" transform="matrix(10.9591,0,0,-10.98,125.431247,109.328189)"/>
<use data-text="o" xlink:href="#font_2_80" transform="matrix(10.9591,0,0,-10.98,129.10254,109.328189)"/>
<use data-text="l" xlink:href="#font_2_77" transform="matrix(10.9591,0,0,-10.98,134.604,109.328189)"/>
<use data-text="l" xlink:href="#font_2_77" transform="matrix(10.9591,0,0,-10.98,137.67255,109.328189)"/>
<use data-text="o" xlink:href="#font_2_80" transform="matrix(10.9591,0,0,-10.98,140.74109,109.328189)"/>
<use data-text="w" xlink:href="#font_2_88" transform="matrix(10.9591,0,0,-10.98,146.24256,109.328189)"/>
<use data-text="i" xlink:href="#font_2_74" transform="matrix(10.9591,0,0,-10.98,154.17694,109.328189)"/>
<use data-text="n" xlink:href="#font_2_79" transform="matrix(10.9591,0,0,-10.98,157.24549,109.328189)"/>
<use data-text="g" xlink:href="#font_2_72" transform="matrix(10.9591,0,0,-10.98,162.74695,109.328189)"/>
<use data-text=" " xlink:href="#font_2_1" transform="matrix(10.9591,0,0,-10.98,168.24842,109.328189)"/>
<use data-text="g" xlink:href="#font_2_72" transform="matrix(10.9591,0,0,-10.98,170.95311,109.328189)"/>
<use data-text="i" xlink:href="#font_2_74" transform="matrix(10.9591,0,0,-10.98,176.45458,109.328189)"/>
<use data-text="v" xlink:href="#font_2_87" transform="matrix(10.9591,0,0,-10.98,179.52312,109.328189)"/>
<use data-text="e" xlink:href="#font_2_70" transform="matrix(10.9591,0,0,-10.98,184.98075,109.328189)"/>
<use data-text="s" xlink:href="#font_2_84" transform="matrix(10.9591,0,0,-10.98,189.83562,109.328189)"/>
<use data-text=" " xlink:href="#font_2_1" transform="matrix(10.9591,0,0,-10.98,194.12062,109.328189)"/>
<use data-text="t" xlink:href="#font_2_85" transform="matrix(10.9591,0,0,-10.98,196.88011,109.328189)"/>
<use data-text="h" xlink:href="#font_2_73" transform="matrix(10.9591,0,0,-10.98,199.94866,109.328189)"/>
<use data-text="e" xlink:href="#font_2_70" transform="matrix(10.9591,0,0,-10.98,205.45012,109.328189)"/>
<use data-text=" " xlink:href="#font_2_1" transform="matrix(10.9591,0,0,-10.98,210.33788,109.328189)"/>
<use data-text="l" xlink:href="#font_2_77" transform="matrix(10.9591,0,0,-10.98,213.09737,109.328189)"/>
<use data-text="e" xlink:href="#font_2_70" transform="matrix(10.9591,0,0,-10.98,216.16591,109.328189)"/>
<use data-text="n" xlink:href="#font_2_79" transform="matrix(10.9591,0,0,-10.98,221.05367,109.328189)"/>
<use data-text="g" xlink:href="#font_2_72" transform="matrix(10.9591,0,0,-10.98,226.55513,109.328189)"/>
<use data-text="t" xlink:href="#font_2_85" transform="matrix(10.9591,0,0,-10.98,232.0566,109.328189)"/>
<use data-text="h" xlink:href="#font_2_73" transform="matrix(10.9591,0,0,-10.98,235.12514,109.328189)"/>
<use data-text=" " xlink:href="#font_2_1" transform="matrix(10.9591,0,0,-10.98,240.6266,109.328189)"/>
<use data-text="o" xlink:href="#font_2_80" transform="matrix(10.9591,0,0,-10.98,243.3861,109.328189)"/>
<use data-text="f" xlink:href="#font_2_71" transform="matrix(10.9591,0,0,-10.98,248.88756,109.328189)"/>
<use data-text=" " xlink:href="#font_2_1" transform="matrix(10.9591,0,0,-10.98,252.55886,109.328189)"/>
<use data-text="t" xlink:href="#font_2_85" transform="matrix(10.9591,0,0,-10.98,255.34918,109.328189)"/>
<use data-text="h" xlink:href="#font_2_73" transform="matrix(10.9591,0,0,-10.98,258.41227,109.328189)"/>
<use data-text="e" xlink:href="#font_2_70" transform="matrix(10.9591,0,0,-10.98,263.90827,109.328189)"/>
<use data-text=" " xlink:href="#font_2_1" transform="matrix(10.9591,0,0,-10.98,268.79057,109.328189)"/>
<use data-text="c" xlink:href="#font_2_68" transform="matrix(10.9591,0,0,-10.98,271.55009,109.328189)"/>
<use data-text="u" xlink:href="#font_2_86" transform="matrix(10.9591,0,0,-10.98,276.43238,109.328189)"/>
<use data-text="r" xlink:href="#font_2_83" transform="matrix(10.9591,0,0,-10.98,281.92839,109.328189)"/>
<use data-text="v" xlink:href="#font_2_87" transform="matrix(10.9591,0,0,-10.98,285.5942,109.328189)"/>
<use data-text="e" xlink:href="#font_2_70" transform="matrix(10.9591,0,0,-10.98,291.0902,109.328189)"/>
<use data-text=" " xlink:href="#font_2_1" transform="matrix(10.9591,0,0,-10.98,295.9725,109.328189)"/>
<use data-text="d" xlink:href="#font_2_69" transform="matrix(10.9591,0,0,-10.98,298.73204,109.328189)"/>
<use data-text="e" xlink:href="#font_2_70" transform="matrix(10.9591,0,0,-10.98,304.19517,109.328189)"/>
<use data-text="f" xlink:href="#font_2_71" transform="matrix(10.9591,0,0,-10.98,309.05555,109.328189)"/>
<use data-text="i" xlink:href="#font_2_74" transform="matrix(10.9591,0,0,-10.98,312.72138,109.328189)"/>
<use data-text="n" xlink:href="#font_2_79" transform="matrix(10.9591,0,0,-10.98,315.78446,109.328189)"/>
<use data-text="e" xlink:href="#font_2_70" transform="matrix(10.9591,0,0,-10.98,321.28047,109.328189)"/>
<use data-text="d" xlink:href="#font_2_69" transform="matrix(10.9591,0,0,-10.98,326.16276,109.328189)"/>
<use data-text=" " xlink:href="#font_2_1" transform="matrix(10.9591,0,0,-10.98,331.65876,109.328189)"/>
<use data-text="b" xlink:href="#font_2_67" transform="matrix(10.9591,0,0,-10.98,334.41828,109.328189)"/>
<use data-text="y" xlink:href="#font_2_90" transform="matrix(10.9591,0,0,-10.98,339.91429,109.328189)"/>
<use data-text=" " xlink:href="#font_2_1" transform="matrix(10.9591,0,0,-10.98,345.41029,109.328189)"/>
<use data-text="t" xlink:href="#font_2_85" transform="matrix(10.9591,0,0,-10.98,348.1698,109.328189)"/>
<use data-text="h" xlink:href="#font_2_73" transform="matrix(10.9591,0,0,-10.98,351.23289,109.328189)"/>
<use data-text="e" xlink:href="#font_2_70" transform="matrix(10.9591,0,0,-10.98,356.72889,109.328189)"/>
<use data-text=" " xlink:href="#font_2_1" transform="matrix(10.9591,0,0,-10.98,361.61119,109.328189)"/>
<use data-text="p" xlink:href="#font_2_81" transform="matrix(10.9591,0,0,-10.98,364.3159,109.328189)"/>
<use data-text="a" xlink:href="#font_2_66" transform="matrix(10.9591,0,0,-10.98,369.8119,109.328189)"/>
<use data-text="r" xlink:href="#font_2_83" transform="matrix(10.9591,0,0,-10.98,374.69419,109.328189)"/>
<use data-text="a" xlink:href="#font_2_66" transform="matrix(10.9591,0,0,-10.98,378.36003,109.328189)"/>
<use data-text="m" xlink:href="#font_2_78" transform="matrix(10.9591,0,0,-10.98,383.2423,109.328189)"/>
<use data-text="e" xlink:href="#font_2_70" transform="matrix(10.9591,0,0,-10.98,391.78495,109.328189)"/>
<use data-text="t" xlink:href="#font_2_85" transform="matrix(10.9591,0,0,-10.98,396.66725,109.328189)"/>
<use data-text="r" xlink:href="#font_2_83" transform="matrix(10.9591,0,0,-10.98,399.73033,109.328189)"/>
<use data-text="i" xlink:href="#font_2_74" transform="matrix(10.9591,0,0,-10.98,403.39616,109.328189)"/>
<use data-text="c" xlink:href="#font_2_68" transform="matrix(10.9591,0,0,-10.98,406.45924,109.328189)"/>
<use data-text=" " xlink:href="#font_2_1" transform="matrix(10.9591,0,0,-10.98,411.34153,109.328189)"/>
<use data-text="e" xlink:href="#font_2_70" transform="matrix(10.9591,0,0,-10.98,414.10105,109.328189)"/>
<use data-text="q" xlink:href="#font_2_82" transform="matrix(10.9591,0,0,-10.98,418.98335,109.328189)"/>
<use data-text="u" xlink:href="#font_2_86" transform="matrix(10.9591,0,0,-10.98,424.56703,109.328189)"/>
<use data-text="a" xlink:href="#font_2_66" transform="matrix(10.9591,0,0,-10.98,430.06303,109.328189)"/>
<use data-text="t" xlink:href="#font_2_85" transform="matrix(10.9591,0,0,-10.98,434.9453,109.328189)"/>
<use data-text="i" xlink:href="#font_2_74" transform="matrix(10.9591,0,0,-10.98,438.0084,109.328189)"/>
<use data-text="o" xlink:href="#font_2_80" transform="matrix(10.9591,0,0,-10.98,441.07148,109.328189)"/>
<use data-text="n" xlink:href="#font_2_79" transform="matrix(10.9591,0,0,-10.98,446.56748,109.328189)"/>
<use data-text="s" xlink:href="#font_2_84" transform="matrix(10.9591,0,0,-10.98,452.06349,109.328189)"/>
<use data-text=" " xlink:href="#font_2_1" transform="matrix(10.9591,0,0,-10.98,456.34303,109.328189)"/>
<use data-text="(" xlink:href="#font_5_11" transform="matrix(10.9957,0,0,-13.5944,467.52,109.44)"/>
<use data-text=")" xlink:href="#font_5_12" transform="matrix(10.9957,0,0,-13.5944,475.25987,109.44)"/>
<path transform="matrix(.981946,0,0,1.018386,492.95948,106.079837)" stroke-width=".532" stroke-linecap="round" stroke-linejoin="round" fill="none" stroke="#000000" d="M0 0H10.693"/>
<use data-text="2" xlink:href="#font_2_19" transform="matrix(8.1923,0,0,-8.2078,497.58,97.79999)"/>
<use data-text="2" xlink:href="#font_2_19" transform="matrix(11.2645,0,0,-11.2859,495.5399,116.46002)"/>
<use data-text="t" xlink:href="#font_6_85" transform="matrix(11.2645,0,0,-11.2859,493.73759,102.90564)"/>
<use data-text="x" xlink:href="#font_6_89" transform="matrix(11.2645,0,0,-11.2859,461.39723,109.09033)"/>
<use data-text="t" xlink:href="#font_6_85" transform="matrix(11.2645,0,0,-11.2859,471.29759,109.09033)"/>
<use data-text="=" xlink:href="#font_5_32" transform="matrix(11.2645,0,0,-11.2859,482.7547,109.09033)"/>
<use data-text="a" xlink:href="#font_2_66" transform="matrix(10.9591,0,0,-10.98,65.2781,139.26239)"/>
<use data-text="n" xlink:href="#font_2_79" transform="matrix(10.9591,0,0,-10.98,70.17353,139.26239)"/>
<use data-text="d" xlink:href="#font_2_69" transform="matrix(10.9591,0,0,-10.98,75.68267,139.26239)"/>
<use data-text=" " xlink:href="#font_2_1" transform="matrix(10.9591,0,0,-10.98,81.19181,139.26239)"/>
<use data-text="(" xlink:href="#font_5_11" transform="matrix(10.9957,0,0,-13.2499,92.22,139.62)"/>
<use data-text=")" xlink:href="#font_5_12" transform="matrix(10.9957,0,0,-13.2499,99.95988,139.62)"/>
<path transform="matrix(1,0,0,-1,117.66,136.32)" stroke-width=".526" stroke-linecap="round" stroke-linejoin="round" fill="none" stroke="#000000" d="M0 0H10.14"/>
<use data-text="3" xlink:href="#font_2_20" transform="matrix(7.9805,0,0,-7.9957,122.16,128.34003)"/>
<use data-text="3" xlink:href="#font_2_20" transform="matrix(10.9732,0,0,-10.994,120.12,146.46002)"/>
<use data-text="t" xlink:href="#font_6_85" transform="matrix(10.9732,0,0,-10.994,118.4411,133.25623)"/>
<use data-text="y" xlink:href="#font_6_90" transform="matrix(10.9732,0,0,-10.994,86.278659,139.25897)"/>
<use data-text="t" xlink:href="#font_6_85" transform="matrix(10.9732,0,0,-10.994,95.99872,139.25897)"/>
<use data-text="=" xlink:href="#font_5_32" transform="matrix(10.9732,0,0,-10.994,107.45693,139.25897)"/>
<use data-text=" " xlink:href="#font_2_1" transform="matrix(10.9591,0,0,-10.98,130.44,139.25989)"/>
<use data-text="f" xlink:href="#font_2_71" transform="matrix(10.9591,0,0,-10.98,133.19951,139.25989)"/>
<use data-text="r" xlink:href="#font_2_83" transform="matrix(10.9591,0,0,-10.98,136.86095,139.25989)"/>
<use data-text="o" xlink:href="#font_2_80" transform="matrix(10.9591,0,0,-10.98,140.52239,139.25989)"/>
<use data-text="m" xlink:href="#font_2_78" transform="matrix(10.9591,0,0,-10.98,146.01399,139.25989)"/>
<use data-text=" " xlink:href="#font_2_1" transform="matrix(10.9591,0,0,-10.98,154.55223,139.25989)"/>
<use data-text="0" xlink:href="#font_2_17" transform="matrix(11.4014,0,0,-11.423,177.06,139.14002)"/>
<use data-text="t" xlink:href="#font_6_85" transform="matrix(11.4014,0,0,-11.423,158.94318,139.14002)"/>
<use data-text="=" xlink:href="#font_5_32" transform="matrix(11.4014,0,0,-11.423,166.74173,139.14002)"/>
<use data-text=" " xlink:href="#font_2_1" transform="matrix(10.9591,0,0,-10.98,184.32,139.25989)"/>
<use data-text="t" xlink:href="#font_2_85" transform="matrix(10.9591,0,0,-10.98,187.07952,139.25989)"/>
<use data-text="o" xlink:href="#font_2_80" transform="matrix(10.9591,0,0,-10.98,190.15026,139.25989)"/>
<use data-text=" " xlink:href="#font_2_1" transform="matrix(10.9591,0,0,-10.98,195.65392,139.25989)"/>
<use data-text="t" xlink:href="#font_6_85" transform="matrix(10.9732,0,0,-10.994,199.9252,139.25989)"/>
<use data-text="=" xlink:href="#font_5_32" transform="matrix(10.9732,0,0,-10.994,207.60645,139.25989)"/>
<use data-text="1" xlink:href="#font_2_18" transform="matrix(10.9732,0,0,-10.994,216.78005,139.25989)"/>
<use data-text="?" xlink:href="#font_2_32" transform="matrix(10.9732,0,0,-10.994,223.9202,139.25989)"/>
<use data-text=" " xlink:href="#font_2_1" transform="matrix(10.9591,0,0,-10.98,230.64,139.25989)"/>
<use data-text="(" xlink:href="#font_2_9" transform="matrix(10.9591,0,0,-10.98,65.27815,172.26575)"/>
<use data-text="A" xlink:href="#font_2_34" transform="matrix(10.9591,0,0,-10.98,68.93739,172.26575)"/>
<use data-text=")" xlink:href="#font_2_10" transform="matrix(10.9591,0,0,-10.98,76.859729,172.26575)"/>
<path transform="matrix(1,0,0,-1,98.04,168.41999)" stroke-width=".06" stroke-linecap="round" stroke-linejoin="round" fill="none" stroke="#000000" d="M0 0 1.08 .66M1.08 .66 3.06-3.96M3.06-3.96 5.34 8.22M5.34 8.22H31.5"/>
<path transform="matrix(1,0,0,-1,97.98,168.29999)" d="M0 0 1.44 .84 3.12-2.76 5.22 8.34H31.56V7.8H5.64L3.36-4.08H2.88L.84 .12 .18-.24" fill-rule="evenodd"/>
<use data-text="1" xlink:href="#font_2_18" transform="matrix(7.9805,0,0,-7.9957,93.12,163.56)"/>
<use data-text="2" xlink:href="#font_2_19" transform="matrix(7.9805,0,0,-7.9957,123.78108,167.34198)"/>
<use data-text="0" xlink:href="#font_2_17" transform="matrix(7.9805,0,0,-7.9957,92.098499,179.39948)"/>
<use data-text="1" xlink:href="#font_2_18" transform="matrix(10.9732,0,0,-10.994,102.9,172.26001)"/>
<use data-text="t" xlink:href="#font_6_85" transform="matrix(10.9732,0,0,-10.994,119.87554,172.26001)"/>
<use data-text="d" xlink:href="#font_6_69" transform="matrix(10.9732,0,0,-10.994,133.13556,172.26001)"/>
<use data-text="t" xlink:href="#font_6_85" transform="matrix(10.9732,0,0,-10.994,138.59363,172.26001)"/>
<use data-text="+" xlink:href="#font_5_14" transform="matrix(10.9732,0,0,-10.994,110.69097,172.26001)"/>
<use data-text="&#x00da;" xlink:href="#font_5_212" transform="matrix(17.5603,0,0,-17.5936,87.42,176.46002)"/>
<use data-text=" " xlink:href="#font_2_1" transform="matrix(10.9591,0,0,-10.98,143.94,172.26001)"/>
<use data-text="(" xlink:href="#font_2_9" transform="matrix(10.9591,0,0,-10.98,65.2756,205.26593)"/>
<use data-text="B" xlink:href="#font_2_35" transform="matrix(10.9591,0,0,-10.98,68.935939,205.26593)"/>
<use data-text=")" xlink:href="#font_2_10" transform="matrix(10.9591,0,0,-10.98,76.256618,205.26593)"/>
<path transform="matrix(1,0,0,-1,98.04,201.41999)" stroke-width=".06" stroke-linecap="round" stroke-linejoin="round" fill="none" stroke="#000000" d="M0 0 1.08 .66M1.08 .66 3.06-3.96M3.06-3.96 5.34 8.22M5.34 8.22H37.32"/>
<path transform="matrix(1,0,0,-1,97.98,201.29999)" d="M0 0 1.5 .84 3.12-2.76 5.22 8.34H37.38V7.8H5.64L3.42-4.08H2.88L.84 .12 .18-.24" fill-rule="evenodd"/>
<use data-text="1" xlink:href="#font_2_18" transform="matrix(7.9805,0,0,-7.9957,93.12,196.56)"/>
<use data-text="2" xlink:href="#font_2_19" transform="matrix(7.9805,0,0,-7.9957,129.66272,200.34198)"/>
<use data-text="0" xlink:href="#font_2_17" transform="matrix(7.9805,0,0,-7.9957,92.10649,212.39948)"/>
<use data-text="1" xlink:href="#font_2_18" transform="matrix(10.9732,0,0,-10.994,102.9,205.26001)"/>
<use data-text="4" xlink:href="#font_2_21" transform="matrix(10.9732,0,0,-10.994,120.1795,205.26001)"/>
<use data-text="t" xlink:href="#font_6_85" transform="matrix(10.9732,0,0,-10.994,125.70232,205.26001)"/>
<use data-text="d" xlink:href="#font_6_69" transform="matrix(10.9732,0,0,-10.994,139.02269,205.26001)"/>
<use data-text="+" xlink:href="#font_5_14" transform="matrix(10.9732,0,0,-10.994,110.70195,205.26001)"/>
<use data-text="&#x00da;" xlink:href="#font_5_212" transform="matrix(17.5603,0,0,-17.5936,87.42,209.46002)"/>
<use data-text="t" xlink:href="#font_6_85" transform="matrix(10.9732,0,0,-10.994,144.4884,205.26001)"/>
<use data-text="(" xlink:href="#font_2_9" transform="matrix(10.9591,0,0,-10.98,65.281,238.26593)"/>
<use data-text="C" xlink:href="#font_2_36" transform="matrix(10.9591,0,0,-10.98,68.94134,238.26593)"/>
<use data-text=")" xlink:href="#font_2_10" transform="matrix(10.9591,0,0,-10.98,76.26202,238.26593)"/>
<path transform="matrix(1,0,0,-1,98.04,234.41999)" stroke-width=".06" stroke-linecap="round" stroke-linejoin="round" fill="none" stroke="#000000" d="M0 0 1.08 .66M1.08 .66 3.06-3.96M3.06-3.96 5.34 8.22M5.34 8.22H31.5"/>
<path transform="matrix(1,0,0,-1,97.98,234.29999)" d="M0 0 1.44 .84 3.12-2.76 5.22 8.34H31.56V7.8H5.64L3.36-4.08H2.88L.84 .12 .18-.24" fill-rule="evenodd"/>
<use data-text="1" xlink:href="#font_2_18" transform="matrix(7.9805,0,0,-7.9957,93.12,229.56)"/>
<use data-text="4" xlink:href="#font_2_21" transform="matrix(7.9805,0,0,-7.9957,123.900798,233.34198)"/>
<use data-text="0" xlink:href="#font_2_17" transform="matrix(7.9805,0,0,-7.9957,92.0985,245.39948)"/>
<use data-text="1" xlink:href="#font_2_18" transform="matrix(10.9732,0,0,-10.994,102.9,238.25989)"/>
<use data-text="t" xlink:href="#font_6_85" transform="matrix(10.9732,0,0,-10.994,119.87554,238.25989)"/>
<use data-text="d" xlink:href="#font_6_69" transform="matrix(10.9732,0,0,-10.994,133.13556,238.25989)"/>
<use data-text="t" xlink:href="#font_6_85" transform="matrix(10.9732,0,0,-10.994,138.59363,238.25989)"/>
<use data-text="+" xlink:href="#font_5_14" transform="matrix(10.9732,0,0,-10.994,110.69097,238.25989)"/>
<use data-text="&#x00da;" xlink:href="#font_5_212" transform="matrix(17.5603,0,0,-17.5936,87.42,242.46002)"/>
<use data-text=" " xlink:href="#font_2_1" transform="matrix(10.9591,0,0,-10.98,143.94,238.25989)"/>
<use data-text="(" xlink:href="#font_2_9" transform="matrix(10.9591,0,0,-10.98,65.2756,271.2658)"/>
<use data-text="D" xlink:href="#font_2_37" transform="matrix(10.9591,0,0,-10.98,68.93484,271.2658)"/>
<use data-text=")" xlink:href="#font_2_10" transform="matrix(10.9591,0,0,-10.98,76.85717,271.2658)"/>
<path transform="matrix(1,0,0,-1,98.04,267.41999)" stroke-width=".06" stroke-linecap="round" stroke-linejoin="round" fill="none" stroke="#000000" d="M0 0 1.08 .66M1.08 .66 3.06-3.96M3.06-3.96 5.34 8.22M5.34 8.22H36.72"/>
<path transform="matrix(1,0,0,-1,97.98,267.3)" d="M0 0 1.5 .84 3.12-2.76 5.22 8.34H36.78V7.8H5.64L3.42-4.08H2.88L.84 .12 .18-.24" fill-rule="evenodd"/>
<use data-text="1" xlink:href="#font_2_18" transform="matrix(7.9805,0,0,-7.9957,93.12,262.55989)"/>
<use data-text="2" xlink:href="#font_2_19" transform="matrix(7.9805,0,0,-7.9957,107.636539,266.34187)"/>
<use data-text="4" xlink:href="#font_2_21" transform="matrix(7.9805,0,0,-7.9957,129.11685,266.34187)"/>
<use data-text="0" xlink:href="#font_2_17" transform="matrix(7.9805,0,0,-7.9957,92.0985,278.39939)"/>
<use data-text="t" xlink:href="#font_6_85" transform="matrix(10.9732,0,0,-10.994,103.68,271.2599)"/>
<use data-text="t" xlink:href="#font_6_85" transform="matrix(10.9732,0,0,-10.994,125.099689,271.2599)"/>
<use data-text="d" xlink:href="#font_6_69" transform="matrix(10.9732,0,0,-10.994,138.42116,271.2599)"/>
<use data-text="t" xlink:href="#font_6_85" transform="matrix(10.9732,0,0,-10.994,143.88582,271.2599)"/>
<use data-text="+" xlink:href="#font_5_14" transform="matrix(10.9732,0,0,-10.994,115.915119,271.2599)"/>
<use data-text="&#x00da;" xlink:href="#font_5_212" transform="matrix(17.5603,0,0,-17.5936,87.42,275.46)"/>
<use data-text=" " xlink:href="#font_2_1" transform="matrix(10.9591,0,0,-10.98,149.94,271.2599)"/>
<use data-text="(" xlink:href="#font_2_9" transform="matrix(10.9591,0,0,-10.98,65.281,308.7566)"/>
<use data-text="E" xlink:href="#font_2_38" transform="matrix(10.9591,0,0,-10.98,68.944629,308.7566)"/>
<use data-text=")" xlink:href="#font_2_10" transform="matrix(10.9591,0,0,-10.98,75.654888,308.7566)"/>
<path transform="matrix(1,0,0,-1,104.22,305.64)" stroke-width=".534" stroke-linecap="round" stroke-linejoin="round" fill="none" stroke="#000000" d="M0 0H10.5M23.76 0H34.02"/>
<path transform="matrix(1,0,0,-1,98.22,307.56)" stroke-width=".06" stroke-linecap="round" stroke-linejoin="round" fill="none" stroke="#000000" d="M0 0 1.02 1.26M1.02 1.26 3-8.46M3-8.46 5.34 17.22M5.34 17.22H41.1"/>
<path transform="matrix(1,0,0,-1,98.1,307.5)" d="M0 0 1.44 1.86 3.12-5.82 5.22 17.4H41.22V16.86H5.7L3.42-8.52H2.88L.84 .54 .24-.18" fill-rule="evenodd"/>
<use data-text="4" xlink:href="#font_2_21" transform="matrix(8.1136,0,0,-8.1288,109.02,297.6)"/>
<use data-text="6" xlink:href="#font_2_23" transform="matrix(8.1136,0,0,-8.1288,132.5397,297.6)"/>
<use data-text="1" xlink:href="#font_2_18" transform="matrix(8.1136,0,0,-8.1288,93.18225,299.76228)"/>
<use data-text="0" xlink:href="#font_2_17" transform="matrix(8.1136,0,0,-8.1288,92.10314,315.84104)"/>
<use data-text="4" xlink:href="#font_2_21" transform="matrix(11.1563,0,0,-11.1773,106.86,315.78)"/>
<use data-text="9" xlink:href="#font_2_26" transform="matrix(11.1563,0,0,-11.1773,130.37972,315.78)"/>
<use data-text="t" xlink:href="#font_6_85" transform="matrix(11.1563,0,0,-11.1773,104.94112,302.57963)"/>
<use data-text="t" xlink:href="#font_6_85" transform="matrix(11.1563,0,0,-11.1773,128.70069,302.57963)"/>
<use data-text="d" xlink:href="#font_6_69" transform="matrix(11.1563,0,0,-11.1773,142.9841,308.63774)"/>
<use data-text="t" xlink:href="#font_6_85" transform="matrix(11.1563,0,0,-11.1773,148.50424,308.63774)"/>
<use data-text="+" xlink:href="#font_5_14" transform="matrix(11.1563,0,0,-11.1773,118.328678,308.63774)"/>
<use data-text="&#x00da;" xlink:href="#font_5_212" transform="matrix(17.8435,0,0,-17.8774,87.42,312.84)"/>
<use data-text=" " xlink:href="#font_2_1" transform="matrix(10.9591,0,0,-10.98,154.44,308.7599)"/>
</g>
</svg>
