<svg xmlns="http://www.w3.org/2000/svg" xmlns:xlink="http://www.w3.org/1999/xlink" xmlns:inkscape="http://www.inkscape.org/namespaces/inkscape" version="1.1" width="612.0pt" height="792.0pt" viewBox="0.0 0.0 612.0 792.0">
<defs>
<path id="font_1_10" d="M.034988405 0H.5069885V.17999268H.3869934V.09498596H.18299866C.2619934 .17597962 .5009918 .33798219 .49699403 .47496034 .49699403 .60395815 .4079895 .66796877 .2869873 .66796877 .1499939 .66796877 .04699707 .6289673 .042999269 .4549713H.18099976C.18399048 .5159607 .20199585 .5729675 .27398683 .5729675 .32299806 .5729675 .35899354 .53996279 .35899354 .4909668 .36099244 .42497254 .29699708 .3559723 .22099304 .28897096 .1519928 .22398377 .07699585 .16499329 .034988405 .12698365V0Z"/>
<path id="font_1_8" d="M.1749878 .32714845C.1749878 .46003724 .18798828 .5729675 .27799989 .5729675 .36799623 .5729675 .3809967 .46003724 .3809967 .32714845 .3809967 .19424439 .36799623 .08131409 .27799989 .08131409 .18798828 .08131409 .1749878 .19424439 .1749878 .32714845M.036987306 .32714845C.036987306 .16426087 .084991458-.013671875 .27799989-.013671875 .47099305-.013671875 .5189972 .16426087 .5189972 .32714845 .5189972 .49002076 .47099305 .66796877 .27799989 .66796877 .084991458 .66796877 .036987306 .49002076 .036987306 .32714845Z"/>
<path id="font_1_9" d="M.147995 0H.48098756V.09498596H.3809967V.6542969H.24299622C.19898987 .6182709 .15499878 .5862427 .10398865 .55422976V.4291687C.1539917 .4622345 .20399475 .4962616 .24798584 .5362854V.09498596H.147995V0Z"/>
<path id="font_1_14" d="M.38398744 .21603394C.38398744 .15316773 .35899354 .07632446 .28399659 .07632446 .19898987 .07632446 .1769867 .14518738 .1769867 .21205139 .1769867 .27293397 .20599365 .34179688 .28199769 .34179688 .35699464 .34179688 .38398744 .2829132 .38398744 .21603394M.5089874 .4948578C.5 .6169586 .41999818 .66796877 .2999878 .66796877 .08799744 .66796877 .038986207 .4898529 .038986207 .30586244 .038986207 .1282196 .07798767-.013671875 .2749939-.013671875 .42099-.013671875 .5169983 .052322389 .5169983 .20805359 .5169983 .32182313 .44999696 .4317932 .32798768 .4317932 .25898744 .4317932 .21798706 .41479493 .1789856 .36279298H.1769867C.18199158 .438797 .19198609 .57795718 .2939911 .57795718 .34498597 .57795718 .36999513 .54792788 .37098695 .4948578H.5089874Z"/>
<path id="font_1_1" d="M0 0Z"/>
<path id="font_1_19" d="M.018997193 0H.2869873V.09498596H.20498657L.24598694 .20019531H.5169983L.55999758 .09498596H.47799684V0H.7589874V.09498596H.70399478L.47499085 .6542969H.30499269L.07398987 .09498596H.018997193V0M.2829895 .29518128 .3829956 .54629519 .48098756 .29518128H.2829895Z"/>
<path id="font_1_34" d="M.027999878 0H.36099244V.09498596H.2559967V.24414063H.3809967C.5130005 .24414063 .6139984 .2861328 .6139984 .45420838 .6139984 .6342926 .48399354 .6542969 .3809967 .6542969H.027999878V.55929568H.117996219V.09498596H.027999878V0M.2559967 .55929568H.32499696C.3999939 .55929568 .47599793 .5602875 .47599793 .4472046 .47599793 .3531494 .4079895 .3391266 .32998658 .3391266H.2559967V.55929568Z"/>
<path id="font_1_21" d="M.66999819 .6542969H.54499819V.57795718L.54299929 .57995608C.49899293 .6459656 .43399049 .66796877 .35598756 .66796877 .14698792 .66796877 .04399109 .5220032 .04399109 .32214356 .04399109 .13227844 .15499878-.013671875 .3849945-.013671875 .5139923-.013671875 .6689911 .043319704 .6719971 .22621155H.5389862C.5359955 .14027405 .47099305 .08131409 .3899994 .08131409 .25099183 .08131409 .18998719 .1852417 .18998719 .31115724 .18998719 .4410553 .23298645 .5729675 .37998963 .5729675 .47698976 .5729675 .5439911 .5110016 .54499819 .41207887L.66999819 .41229249V.6542969Z"/>
<path id="font_1_44" d="M.35699464 0H.5399933V.08999634H.47999574V.27693177C.47999574 .41941834 .43099977 .48242188 .27999879 .48242188 .16999817 .48242188 .05999756 .4604187 .051986696 .32608033H.1769867C.18099976 .38031007 .21299744 .40242005 .2649994 .40242005 .31399537 .40242005 .35499574 .38534547 .35499574 .33009339V.2939453H.30799867C.19099427 .2939453 .036987306 .28993226 .036987306 .13597107 .036987306 .036315919 .11299133-.013671875 .19999695-.013671875 .2709961-.013671875 .31399537 .0053253176 .35499574 .0683136H.35699464V0M.35499574 .21394348C.35699464 .13415528 .31199647 .07632446 .23298645 .07632446 .19198609 .07632446 .1619873 .0962677 .1619873 .14013672 .1619873 .20297241 .22299195 .21394348 .29100038 .21394348H.35499574Z"/>
<path id="font_1_55" d="M.034988405 0H.2979889V.08999634H.23298645V.66796877H.034988405V.57795718H.099990848V.08999634H.034988405V0Z"/>
<path id="font_1_46" d="M.47099305 .46777345H.37098695V.41441346H.36898805C.34298707 .4584198 .2939911 .48242188 .24198914 .48242188 .08898926 .48242188 .027999878 .3704071 .027999878 .22436524 .027999878 .12133789 .08699036-.013671875 .27198792-.013671875 .37998963-.013671875 .46998597 .044326784 .47999574 .16334534H.3600006C.35598756 .112335208 .31999208 .08131409 .272995 .08131409 .18598938 .08131409 .1659851 .16033936 .1659851 .2363739 .1659851 .3103943 .18699646 .39241029 .269989 .39241029 .30499269 .39241029 .32798768 .38241578 .34298707 .3644104 .35798646 .34576417 .36499024 .31976319 .3659973 .28675843H.47099305V.46777345Z"/>
<path id="font_1_64" d="M.5299988 .46777345H.33699037V.37776185H.39698792V.20689392C.39698792 .14720154 .36799623 .08131409 .29599 .08131409 .24198914 .08131409 .21398926 .12722779 .21398926 .17514038V.46777345H.015991211V.37776185H.08099365V.17015076C.08099365 .052322389 .12399292-.013671875 .24798584-.013671875 .31498719-.013671875 .375 .019317627 .40699769 .079315189H.40899659V0H.59498599V.08999634H.5299988V.46777345Z"/>
<path id="font_1_62" d="M.04699707 0H.14698792V.050323488H.14898682C.17599488 .012313843 .21798706-.013671875 .28799439-.013671875 .3889923-.013671875 .45498658 .05331421 .45498658 .13618469 .45498658 .3421631 .17799378 .2468872 .17799378 .3421631 .17799378 .38638307 .22299195 .39241029 .25 .39241029 .29899598 .3917694 .33599855 .36776734 .33599855 .3127594H.44099427V.46775819H.34098817V.41941834H.33898927C.30799867 .46740724 .2669983 .48240663 .21299744 .48240663 .12799073 .48240663 .04499817 .43641664 .04499817 .33831788 .04499817 .1301117 .32199098 .22789002 .32199098 .1301117 .32199098 .08628845 .2809906 .07632446 .2519989 .07632446 .19799805 .07598877 .1519928 .10598755 .1519928 .16499329H.04699707V0Z"/>
<path id="font_1_20" d="M.24798584 .29101563H.34098817C.41099549 .29101563 .48298646 .29101563 .48298646 .19700623 .48298646 .10899353 .4249878 .09498596 .33999635 .09498596H.24798584V.29101563M.24798584 .55929568H.33099366C.3919983 .55929568 .46299745 .5542755 .46299745 .4751587 .46299745 .3940277 .3929901 .38101197 .32699586 .38101197H.24798584V.55929568M.027999878 0H.33599855C.43899537 0 .62098696-.006011963 .62098696 .19099427 .62098696 .27799989 .5509949 .3400116 .46699525 .34300233V.34500123C.55599978 .3560028 .6009979 .40704347 .6009979 .4941864 .6009979 .6512909 .46099855 .6542969 .34199525 .6542969H.027999878V.55929568H.10998535V.09498596H.027999878V0Z"/>
<path id="font_1_35" d="M.6359863 .09498596C.6159973 .09498596 .6049957 .09498596 .58599856 .08699036V.08799744C.70199587 .1349945 .73399356 .25398255 .73399356 .3269806 .73399356 .5239563 .6100006 .66796877 .3889923 .66796877 .16799927 .66796877 .04399109 .5239563 .04399109 .3269806 .04399109 .13027954 .16799927-.013671875 .3889923-.013671875 .40899659-.013671875 .42999269-.009674072 .45098878-.0066833498 .47200013-.0030059815 .49398805 0 .5159912 0H.7619934V.09498596H.6359863M.18998719 .32714845C.18998719 .46704103 .24798584 .5729675 .3889923 .5729675 .5299988 .5729675 .58799746 .46704103 .58799746 .32714845 .58799746 .1872406 .5299988 .08131409 .3889923 .08131409 .24798584 .08131409 .18998719 .1872406 .18998719 .32714845Z"/>
<path id="font_1_48" d="M.1769867 .28128053C.1769867 .34436036 .21398926 .39241029 .2809906 .39241029 .34999085 .39241029 .38398744 .34835816 .38398744 .28128053H.1769867M.5169983 .19628906C.5169983 .22927857 .5169983 .26527406 .5109863 .30230714 .4909973 .41741944 .3999939 .48242188 .2869873 .48242188 .13899231 .48242188 .038986207 .3874054 .038986207 .24028015 .038986207 .08432007 .12599182-.013671875 .2899933-.013671875 .39698792-.013671875 .4889984 .032318117 .5109863 .14529419H.38598634C.37298585 .095321658 .33999635 .07632446 .2939911 .07632446 .21998596 .07632446 .1769867 .122299198 .1769867 .19628906H.5169983Z"/>
<path id="font_1_63" d="M.34298707 .46777345H.21798706V.60575869L.084991458 .5587616V.46777345H.009994507V.37776185H.084991458V.12025452C.084991458 .050323488 .14099121-.013671875 .22999573-.013671875 .34199525-.013671875 .3809967 .043319704 .3769989 .15019226H.29699708C.29699708 .12922669 .29499818 .08131409 .25698854 .08131409 .21798706 .08131409 .21798706 .118255618 .21798706 .15219116V.37776185H.34298707V.46777345Z"/>
<path id="font_1_52" d="M.034988405 0H.2979889V.08999634H.23298645V.46777345H.034988405V.37776185H.099990848V.08999634H.034988405V0M.23298645 .66796877H.09498596V.5349579H.23298645V.66796877Z"/>
<path id="font_1_58" d="M.1659851 .23435974C.1659851 .3083954 .19299317 .38742066 .27799989 .38742066 .36299134 .38742066 .3899994 .3083954 .3899994 .23435974 .3899994 .16033936 .36299134 .08131409 .27799989 .08131409 .19299317 .08131409 .1659851 .16033936 .1659851 .23435974M.27799989 .48242188C.1309967 .48242188 .027999878 .39041139 .027999878 .23435974 .027999878 .078323367 .1309967-.013671875 .27799989-.013671875 .4249878-.013671875 .5279999 .078323367 .5279999 .23435974 .5279999 .39041139 .4249878 .48242188 .27799989 .48242188Z"/>
<path id="font_1_57" d="M.04499817 0H.30299378V.08999634H.24299622V.26086427C.24299622 .32131959 .27198792 .38742066 .34399415 .38742066 .397995 .38742066 .42599488 .34135438 .42599488 .29327394V.08999634H.3659973V0H.6239929V.08999634H.5589905V.29829408C.5589905 .41641236 .5159912 .48242188 .3919983 .48242188 .32499696 .48242188 .2649994 .4494171 .23298645 .38941957H.23098755V.46777345H.04499817V.37776185H.10998535V.08999634H.04499817V0Z"/>
<path id="font_1_22" d="M.027999878 0H.36898805C.58099368 0 .71899417 .11000061 .71899417 .32814027 .71899417 .6442871 .44999696 .6542969 .3849945 .6542969H.027999878V.55929568H.10998535V.09498596H.027999878V0M.24798584 .55929568H.35899354C.5049896 .55929568 .57299807 .4682312 .57299807 .32714845 .57299807 .18504334 .5009918 .09498596 .35899354 .09498596H.24798584V.55929568Z"/>
<path id="font_1_61" d="M.04499817 0H.32299806V.08999634H.24299622V.22589112C.24798584 .307312 .2889862 .37242127 .3769989 .37242127 .39698792 .37242127 .41799928 .37242127 .43699647 .36740113V.47558595C.4189911 .4804077 .39898683 .48242188 .37998963 .48242188 .31098939 .48242188 .2639923 .43740846 .23599243 .3774109H.23399353V.46777345H.04499817V.37776185H.10998535V.08999634H.04499817V0Z"/>
<path id="font_1_59" d="M.34599305 .08131409C.24598694 .08131409 .21798706 .14221192 .21798706 .24102783 .21798706 .3183899 .2519989 .38742066 .33399964 .38742066 .4189911 .38742066 .44499208 .3113861 .44499208 .23435974 .44499208 .13322449 .40299989 .08131409 .34599305 .08131409M.027999878-.16992188H.2979889V-.07992554H.22599793V.065322879H.22799683C.2709961 .003326416 .31098939-.013671875 .3809967-.013671875 .5169983-.013671875 .58299258 .10128784 .58299258 .22705078 .58299258 .39941407 .49499513 .48242188 .37298585 .48242188 .3039856 .48242188 .2539978 .45341493 .21598816 .3854065H.21398926V.46777345H.027999878V.37776185H.09298706V-.07992554H.027999878V-.16992188Z"/>
<path id="font_1_47" d="M.5179901 .66796877H.31999208V.57795718H.3849945V.39941407H.3829956C.36099244 .44441224 .31698609 .48242188 .23799134 .48242188 .115997318 .48242188 .027999878 .39941407 .027999878 .22718811 .027999878 .10133362 .09399414-.013671875 .22999573-.013671875 .31298829-.013671875 .35398866 .012313843 .3959961 .078323367H.397995V0H.58299258V.08999634H.5179901V.66796877M.2649994 .08131409C.20799256 .08131409 .1659851 .1333313 .1659851 .23435974 .1659851 .3113861 .19198609 .38742066 .2769928 .38742066 .35899354 .38742066 .3929901 .3183899 .3929901 .24136353 .3929901 .14233399 .36499024 .08131409 .2649994 .08131409Z"/>
<path id="font_1_49" d="M.042999269 0H.34599305V.08999634H.26098634V.37776185H.3659973V.46777345H.26098634V.5047302C.26098634 .5756378 .30099488 .5816345 .35398866 .5816345 .37098695 .5816345 .38598634 .5776367 .40098573 .5736389V.67263796C.37199403 .67663577 .34098817 .6816406 .31199647 .6816406 .16099549 .6816406 .12799073 .594635 .12799073 .5196991V.46777345H.042999269V.37776185H.12799073V.08999634H.042999269V0Z"/>
<path id="font_1_56" d="M.024993897 0H.2829895V.08999634H.22299195V.26086427C.22299195 .32131959 .2519989 .38742066 .32398988 .38742066 .37799073 .38742066 .4059906 .34135438 .4059906 .29327394V.08999634H.34599305V0H.598999V.08999634H.5389862V.26623536C.5389862 .32933045 .56999209 .38742066 .6419983 .38742066 .70199587 .38742066 .7220001 .3443451 .7220001 .29327394V.08999634H.6619873V0H.91999819V.08999634H.8549957V.33033753C.85198977 .43940736 .7819977 .48242188 .67900088 .48242188 .61299136 .48242188 .55999758 .45440675 .5279999 .39541627 .49299623 .46141053 .44400025 .48242188 .37199403 .48242188 .30499269 .48242188 .24499512 .4494171 .21299744 .38941957H.21099854V.46777345H.024993897V.37776185H.08999634V.08999634H.024993897V0Z"/>
<path id="font_2_40" d="M.7609863 .11099243C.69898989 .11399841 .6319885 .10998535 .598999 .10398865 .6329956 .13600159 .70799258 .20904541 .70799258 .37313844 .70799258 .6102905 .56900027 .7373047 .38198854 .7373047 .13699341 .7373047 .033996583 .5532532 .033996583 .35614015 .033996583 .2402649 .08198547-.0107421879 .35198976-.0107421879 .36898805-.0107421879 .4169922-.007751465 .46598817-.0047454836 .5149994-.0030059815 .5649872 0 .58299258 0 .6299896 0 .71598818-.0010070801 .7609863-.0020141602V.11099243M.19400025 .36528016C.19400025 .49728395 .23999024 .6273041 .37599183 .6273041 .44599916 .6273041 .48799134 .58828738 .5059967 .5602875 .5279999 .5272827 .5509949 .47828675 .5509949 .37527467 .5509949 .25926209 .522995 .101257327 .37098695 .101257327 .22399903 .101257327 .19400025 .2632599 .19400025 .36528016Z"/>
<path id="font_2_71" d="M.05999756 .5048828V.19119263C.05999756 .16622925 .05999756 .09629822 .09298706 .05529785 .12098694 .018295289 .1769867-.0126953129 .24499512-.0126953129 .34098817-.0126953129 .3789978 .045303346 .3939972 .06729126L.39898683 0H.54299929C.54100039 .01399231 .5399933 .022994996 .5389862 .036987306 .5389862 .049987794 .5379944 .06298828 .5359955 .17196656V.5048828H.38398744V.24995423C.38398744 .16423035 .38398744 .09329224 .2889862 .09329224 .20999146 .09329224 .20999146 .16023255 .20999146 .20417786V.5048828H.05999756Z"/>
<path id="font_2_55" d="M.522995 .21559143C.5249939 .25758363 .5269928 .33155824 .49299623 .40048219 .44699098 .4944458 .36099244 .52246096 .2889862 .52246096 .23399353 .52246096 .18598938 .50645449 .14698792 .4804535 .06199646 .42144776 .041992189 .32356263 .041992189 .2415924 .041992189 .16052246 .06098938 .092453 .10699463 .044433595 .1599884-.010559082 .24198914-.018554688 .2849884-.018554688 .35899354-.018554688 .4249878 .0014343262 .46199037 .04043579 .5029907 .08343506 .5079956 .12649536 .5099945 .1505127H.375C.36099244 .094451908 .32398988 .080444339 .2869873 .080444339 .18399048 .080444339 .18399048 .18255615 .18399048 .21559143H.522995M.18899536 .30859376C.19198609 .3675232 .21899414 .42144776 .28399659 .42144776 .36999513 .42144776 .37199403 .33155824 .37199403 .30859376H.18899536Z"/>
<path id="font_2_69" d="M.0289917 .14619446C.02999878 .12225342 .032989503 .082336429 .06599426 .047348024 .11199951-.00065612795 .17399597-.0146484379 .23899842-.0146484379 .3959961-.0146484379 .47099305 .07234192 .47099305 .15916443 .47099305 .22802735 .42799378 .2749176 .33599855 .29986573L.24499512 .32481385C.20098877 .336792 .17599488 .34376527 .17599488 .3777008 .17599488 .40863038 .20599365 .42759706 .24598694 .42759706 .2689972 .42759706 .31399537 .42359925 .31799317 .36772157H.45298768C.44898988 .4685974 .36499024 .51660159 .26098634 .51660159 .12998963 .51660159 .039993287 .45658876 .039993287 .35873414 .039993287 .2559662 .1269989 .23101807 .16799927 .21903992L.2599945 .1940918C.31799317 .1781311 .32998658 .16017151 .32998658 .13722229 .32998658 .107284549 .30499269 .0773468 .2519989 .0773468 .18998719 .0773468 .16999817 .11425781 .16799927 .14619446H.0289917Z"/>
<path id="font_2_70" d="M.3619995 .10420227C.34399415 .10220337 .33399964 .10119629 .31199647 .10119629 .24598694 .10119629 .24598694 .13017273 .24499512 .17614746V.40394593H.36499024V.5019531H.24499512V.654953L.09799194 .60095217V.5019531H.0009918213V.40394593H.09799194V.127182C.09799194 .08520508 .09799194-.0087890629 .24699402-.0087890629 .2709961-.0087890629 .31399537-.00579834 .3619995 .0072021486V.10420227Z"/>
<path id="font_2_59" d="M.05999756 .5926666H.21798706V.7216797H.05999756V.5926666M.06498718 0H.21299744V.5058594H.06498718V0Z"/>
<path id="font_2_65" d="M.041992189 .24801636C.041992189 .07141113 .1559906-.017578125 .2999878-.017578125 .48298646-.017578125 .5649872 .11035156 .5649872 .2519989 .5649872 .39265443 .48599244 .51660159 .30299378 .51660159 .10398865 .51660159 .041992189 .3697052 .041992189 .24801636M.19400025 .24700928C.19400025 .2929077 .19499207 .41758729 .30299378 .41758729 .40098573 .41758729 .4139862 .32481385 .4139862 .25798036 .4139862 .124313358 .36999513 .0854187 .30499269 .0854187 .23199463 .0854187 .19400025 .1342926 .19400025 .24700928Z"/>
<path id="font_2_64" d="M.066986087 0H.21598816V.29589845C.21598816 .33462525 .22499085 .35960389 .23399353 .3725891 .25 .39656068 .2789917 .4115448 .31098939 .4115448 .34899903 .4115448 .37199403 .39056397 .3829956 .3685913 .3909912 .35261537 .3909912 .33462525 .3909912 .3136444V0H.5419922V.27268983C.5419922 .3665924 .5389862 .39256288 .5279999 .42355348 .5149994 .45854188 .47299195 .5185547 .37399293 .5185547 .2639923 .5185547 .22399903 .45355226 .20999146 .430542L.20599365 .50683596H.06399536C.066986087 .47183229 .066986087 .41685487 .066986087 .41485597V0Z"/>
<path id="font_2_1" d="M0 0Z"/>
<path id="font_2_43" d="M.22898865 0H.3849945V.6026459H.59999087V.72265627H.01399231V.6026459H.22898865V0Z"/>
<path id="font_2_66" d="M.05999756 .5048828V-.19433594H.21099854V.058151246C.22399903 .041152955 .26098634-.0068359377 .35198976-.0068359377 .49798585-.0068359377 .57199099 .12013245 .57199099 .263031 .57199099 .41664125 .49299623 .51464846 .3619995 .51464846 .33799745 .51464846 .2539978 .51364138 .20799256 .4326477L.20399475 .5048828H.05999756M.31399537 .090164188C.20498657 .090164188 .20399475 .21806336 .20399475 .24804688 .20399475 .3836975 .27198792 .41964723 .31999208 .41964723 .40699769 .41964723 .42199708 .31680299 .42199708 .25689698 .42199708 .15710449 .38398744 .090164188 .31399537 .090164188Z"/>
<path id="font_2_53" d="M.47698976 .32582093C.47599793 .46264649 .36499024 .51464846 .2709961 .51464846 .20399475 .51464846 .034988405 .4826355 .034988405 .25297547 .034988405 .1721344 .054992677 .10525513 .09899902 .05429077 .14498902 .0023040772 .20399475-.0126953129 .2709961-.0126953129 .33399964-.0126953129 .3789978 .0032958985 .4149933 .034301759 .47299195 .08329773 .47799684 .1441803 .47999574 .18310547H.33399964C.32798768 .09327698 .28199769 .08630371 .2659912 .08630371 .25498963 .08630371 .23999024 .08828735 .22599793 .103271488 .19198609 .14019776 .18899536 .23001099 .18899536 .2579651 .18899536 .31285096 .19699097 .41864015 .2669983 .41864015 .32398988 .41864015 .32998658 .34379579 .33198548 .32582093H.47698976Z"/>
<path id="font_2_34" d="M.066986087 0H.22200012V.3678131L.47499085 0H.66799929L.37998963 .3988037 .644989 .72265627H.46398927L.22200012 .4098053V.7207031H.066986087V0Z"/>
<path id="font_2_75" d="M.01399231 .5048828 .20799256-.002319336 .14399719-.19238281H.29299928L.35398866 .008682251 .54499819 .5048828H.397995L.2849884 .15473938 .17399597 .5048828H.01399231Z"/>
<path id="font_2_2" d="M.049987794 .5692291C.049987794 .4609375 .09199524 .37893678 .20999146 .37893678 .37998963 .37893678 .37998963 .529129 .37998963 .5792694 .37998963 .67352297 .35598756 .762558 .21699524 .762558 .050994874 .762558 .049987794 .62138369 .049987794 .5692291M.1579895 .5732422C.1579895 .6033325 .1579895 .6845703 .21699524 .6845703 .2679901 .6845703 .2709961 .61938479 .2709961 .5782623 .2709961 .48298646 .24699402 .4609375 .21299744 .4609375 .17098999 .4609375 .1579895 .4960327 .1579895 .5732422M.5099945 .18211365C.5099945 .07420349 .5509949-.0087890629 .6689911-.0087890629 .83999636-.0087890629 .83999636 .1411438 .83999636 .19210816 .83999636 .28501893 .8149872 .37402345 .6769867 .37402345 .5099945 .37402345 .5099945 .23306275 .5099945 .18211365M.61698916 .18510437C.61698916 .21607971 .61698916 .2960205 .6759949 .2960205 .72698977 .2960205 .73098757 .23106385 .73098757 .19010926 .73098757 .095184329 .70700076 .07319641 .6729889 .07319641 .6299896 .07319641 .61698916 .109176639 .61698916 .18510437M.59298709 .76956179 .21299744-.01171875H.28799439L.66799929 .76956179H.59298709Z"/>
<path id="font_2_26" d="M.6339874 .48675538C.6339874 .6305542 .522995 .7265625 .36499024 .7265625 .1619873 .7265625 .033996583 .5746155 .033996583 .34599305 .033996583 .1672821 .114990238-.016601563 .3639984-.016601563 .42999269-.016601563 .5109863-.0016021729 .57499697 .06439209 .6329956 .12434387 .6369934 .1912384 .6399994 .23416138H.47698976C.47399903 .13832093 .4119873 .09739685 .34700013 .09739685 .19599915 .09739685 .19599915 .302063 .19599915 .34498597 .19599915 .4937439 .24398804 .6135559 .35899354 .6135559 .46398927 .6135559 .47299195 .51171877 .47599793 .48675538H.6339874Z"/>
<path id="font_2_68" d="M.06498718 0H.21299744V.24890137C.21299744 .3118744 .22200012 .38885499 .37199403 .3748474V.5078125C.2519989 .5138092 .21899414 .45281983 .19999695 .40983583L.19699097 .50683596H.057998659C.06098938 .47784425 .06498718 .40486146 .06498718 .38087464V0Z"/>
<path id="font_3_11" d="M.19400025 .35905458C.10398865 .3400421 .041992189 .2770996 .042999269 .1882019 .042999269 .048339845 .1619873-.0146484379 .27799989-.0146484379 .3939972-.0146484379 .5130005 .048339845 .5130005 .1882019 .5130005 .2801056 .45599366 .3360443 .3639984 .3600464V.36105348C.44299317 .37904359 .5029907 .43704225 .5029907 .52104189 .5029907 .64901736 .3889923 .70703127 .27799989 .70703127 .16699219 .70703127 .052993776 .64901736 .052993776 .52104189 .052993776 .43904115 .11299133 .36904908 .19400025 .36105348V.35905458M.117996219 .52104189C.117996219 .61402896 .20098877 .6520233 .27799989 .6520233 .35499574 .6520233 .43798829 .61402896 .43798829 .52104189 .43798829 .43504334 .36999513 .39105226 .27799989 .39105226 .18598938 .39105226 .117996219 .43504334 .117996219 .52104189M.11299133 .1882019C.11299133 .28709413 .19198609 .3310547 .27799989 .3310547 .3639984 .3310547 .44299317 .28709413 .44299317 .1882019 .44299317 .08929443 .3639984 .04534912 .27799989 .04534912 .19198609 .04534912 .11299133 .08929443 .11299133 .1882019Z"/>
<path id="font_3_9" d="M.29599 .39421083C.39898683 .39421083 .44099427 .30723573 .44099427 .21627808 .44099427 .11831665 .3849945 .04534912 .2829895 .04534912 .19299317 .04534912 .1269989 .124313358 .1269989 .2112732 .1269989 .3142395 .18598938 .39421083 .29599 .39421083M.29699708 .70703127C.07299805 .70703127 .04499817 .48817445 .04499817 .31124879 .04499817 .14530945 .099990848-.0146484379 .29299928-.0146484379 .42900086-.0146484379 .5109863 .08833313 .5109863 .22027588 .5109863 .35221864 .43598939 .44921876 .29899598 .44921876 .21798706 .44921876 .147995 .4122162 .116989139 .33622743H.114990238C.114990238 .46620179 .13398743 .64701846 .2999878 .64701846 .37098695 .64701846 .42900086 .60206606 .43199159 .5301361H.5019989C.5 .6500244 .4099884 .70703127 .29699708 .70703127Z"/>
<path id="font_3_1" d="M0 0Z"/>
<path id="font_3_16" d="M.1559906 .05999756V.66166689H.2579956C.46299745 .66767886 .58799746 .5737152 .58799746 .36082459 .58799746 .17892456 .5049896 .05999756 .3019867 .05999756H.1559906M.09098816 .7216797V0H.28599549C.522995 0 .6579895 .1219635 .6579895 .36082459 .6579895 .5997009 .522995 .7216797 .28599549 .7216797H.09098816Z"/>
<path id="font_3_27" d="M.5029907 .23698426C.5029907 .39375306 .44198609 .51660159 .27398683 .51660159 .125 .51660159 .049987794 .38676454 .049987794 .25099183 .049987794 .114212039 .11999512-.0146484379 .269989-.0146484379 .3909912-.0146484379 .46598817 .04034424 .49699403 .16012573H.43399049C.4189911 .09124756 .3600006 .04034424 .2889862 .04034424 .1659851 .04034424 .116989139 .13017273 .114990238 .23698426H.5029907M.116989139 .2919922C.125 .379776 .1769867 .46159364 .2749939 .46159364 .3789978 .46159364 .43099977 .38876344 .43798829 .2919922H.116989139Z"/>
<path id="font_3_36" d="M.13999939 .3017273C.14199829 .39764405 .18899536 .46159364 .27799989 .46159364 .2899933 .46159364 .30299378 .4586029 .31498719 .45759584V.5155945C.29499818 .51660159 .2749939 .5175934 .25498963 .51660159 .20498657 .5145874 .1599884 .47859193 .14199829 .42762757H.13999939L.13699341 .5019531H.07499695C.07699585 .46795655 .08099365 .427948 .07998657 .3889618V0H.13999939V.3017273Z"/>
<path id="font_3_30" d="M.08099365 .5019531V0H.14099121V.5019531H.08099365M.1459961 .7216797H.07598877V.6466675H.1459961V.7216797Z"/>
<path id="font_3_40" d="M.01399231 .5019531 .21899414 0H.2869873L.48599244 .5019531H.41999818L.25299073 .08299255 .07998657 .5019531H.01399231Z"/>
<path id="font_3_24" d="M.100997928 .14015198C.100997928 .26591493 .2789917 .2499237 .3639984 .2529297 .36999513 .14813233 .34498597 .04034424 .21398926 .04034424 .15299988 .04034424 .100997928 .072280887 .100997928 .14015198M.3639984 .30792237C.29100038 .30392457 .20399475 .3139038 .13699341 .28492738 .07699585 .2599182 .035995485 .20800781 .035995485 .14015198 .035995485 .04234314 .10998535-.0146484379 .20298767-.0146484379 .2709961-.0146484379 .33799745 .025344849 .3600006 .06729126L.36299134 .074279788H.36499024L.36698915 0H.42900086C.4269867 .033981325 .4229889 .07397461 .42399598 .112960819V.35083009C.42599488 .46559144 .35699464 .51660159 .24598694 .51660159 .1499939 .51660159 .07299805 .4776001 .057998659 .37478639H.12199402C.12998963 .4426422 .18199158 .46159364 .24499512 .46159364 .31599427 .46159364 .35798646 .4356537 .3639984 .3538208V.30792237Z"/>
<path id="font_3_38" d="M.12298584 .13424683C.12298584 .0663147 .115997318-.0146484379 .24299622-.0146484379 .2630005-.0146484379 .2849884-.010650635 .3039856-.0056610109V.046340944C.28799439 .04133606 .269989 .04034424 .2519989 .04034424 .20599365 .04034424 .18199158 .065322879 .18299866 .11126709V.4469452H.29699708V.5019531H.18299866V.63494876L.12298584 .60894778V.5019531H.022994996V.4469452H.12298584V.13424683Z"/>
<path id="font_3_37" d="M.06298828 .37675477C.06298828 .28390504 .14299011 .2609558 .22200012 .24198914 .3019867 .22401428 .3809967 .21203614 .3809967 .14016724 .3809967 .07029724 .31399537 .04034424 .25 .04034424 .18199158 .04034424 .115997318 .062301637 .11099243 .13717652H.04598999C.04798889 .02633667 .147995-.0146484379 .23498535-.0146484379 .34098817-.0146484379 .44599916 .036346437 .44599916 .14915467 .44599916 .2030487 .41299439 .24797058 .36099244 .26594544 .22499085 .31385804 .12799073 .3068695 .12799073 .3807373 .12799073 .43963624 .18499756 .46159364 .24099732 .46159364 .30299378 .46159364 .35899354 .44062806 .36499024 .37774659H.42999269C.42199708 .4835968 .34199525 .51660159 .24699402 .51660159 .15899658 .51660159 .06298828 .48059083 .06298828 .37675477Z"/>
<path id="font_3_8" d="M.07598877 .29144288H.14299011C.15699768 .35646058 .21699524 .39648438 .2829895 .39648438 .3869934 .39648438 .43798829 .32844544 .43798829 .22840882 .43798829 .12837219 .3869934 .04534912 .2789917 .04534912 .19999695 .04534912 .13598633 .08735657 .13198853 .1703949H.06199646C.06599426 .03933716 .16899109-.0146484379 .28599549-.0146484379 .4229889-.0146484379 .5079956 .09236145 .5079956 .22541809 .5079956 .3494568 .4269867 .45648194 .29699708 .45648194 .23498535 .45648194 .18399048 .42848207 .14498902 .38346864L.14299011 .38546754 .1539917 .63237H.47299195V.6923828H.09199524L.07598877 .29144288Z"/>
<path id="font_3_4" d="M.115997318 .51828C.17199707 .5452881 .22599793 .5783081 .27198792 .6223297V0H.33699037V.6923828H.2749939C.22999573 .6473541 .1749878 .6073303 .115997318 .583313V.51828Z"/>
<path id="font_3_10" d="M.49198915 .6923828H.050994874V.63237H.42399598L.14698792 0H.22299195L.49198915 .6343689V.6923828Z"/>
<path id="font_3_20" d="M.17199707 0V.7246094H.10699463V0H.17199707Z"/>
<path id="font_3_33" d="M.13999939 .28874208C.13999939 .3786621 .18499756 .46159364 .28399659 .46159364 .3659973 .46159364 .41600038 .41064454 .41600038 .3237152V0H.47599793V.3137207C.47599793 .37167359 .46299745 .51660159 .29899598 .51660159 .23399353 .51660159 .1769867 .4875946 .14199829 .42562867L.13999939 .42762757 .13699341 .5019531H.07499695C.07699585 .46795655 .07998657 .427948 .07998657 .3889618V0H.13999939V.28874208Z"/>
<path id="font_3_28" d="M.42599488 .26161195C.42599488 .16362 .38198854 .056640626 .2669983 .056640626 .15699768 .056640626 .10998535 .1676178 .10998535 .25961305 .10998535 .35160829 .1559906 .46159364 .2649994 .46159364 .37298585 .46159364 .42599488 .35760499 .42599488 .26161195M.42599488 .42759706 .42399598 .42359925C.38398744 .4815979 .33198548 .51660159 .25898744 .51660159 .10598755 .51660159 .04499817 .39059449 .04499817 .25460816 .04499817 .116622928 .10998535 .0016326904 .26098634 .0016326904 .32598878 .0016326904 .394989 .036636354 .42399598 .09562683H.42599488V.0016326904C.42399598-.0823822 .35198976-.13739014 .27398683-.13739014 .20999146-.13739014 .13899231-.117385867 .13198853-.057373048H.066986087C.066986087-.16139221 .1749878-.19238281 .2659912-.19238281 .31298829-.19238281 .33999635-.18838501 .37998963-.16938782 .4909973-.117385867 .48599244-.012374878 .48599244 .08766174V.38887025C.48599244 .42788697 .4889984 .46792604 .4909973 .5019531H.42900086L.42599488 .42759706Z"/>
<path id="font_3_31" d="M.14099121 .7216797H.08099365V0H.14099121V.7216797Z"/>
<path id="font_3_6" d="M.22499085 .32902528C.31999208 .34301759 .4269867 .3040619 .4269867 .19317627 .4269867 .09428406 .35099793 .04534912 .25898744 .04534912 .1789856 .04534912 .102996829 .09729004 .101989749 .18319702H.03199768C.035995485 .051330568 .13798523-.0146484379 .2599945-.0146484379 .37599183-.0146484379 .49699403 .05532837 .49699403 .18518067 .49699403 .27809144 .43299867 .34101869 .34498597 .36003114V.36203004C.42199708 .37802125 .48599244 .434021 .48599244 .51802065 .48599244 .6520233 .37098695 .70703127 .2539978 .70703127 .1459961 .70703127 .041992189 .638031 .041992189 .5210266H.11199951C.12098694 .60102847 .1749878 .64701846 .2630005 .64701846 .34399415 .64701846 .41600038 .60202029 .41600038 .52201846 .41600038 .4180298 .31399537 .38201905 .22499085 .3920288V.32902528Z"/>
<path id="font_3_18" d="M.1599884 0V.3466797H.4909973V.40667726H.1599884V.66166689H.5029907V.7216797H.09498596V0H.1599884Z"/>
<path id="font_3_39" d="M.41600038 .2131958C.41600038 .12327576 .37098695 .04034424 .27198792 .04034424 .18998719 .04034424 .13999939 .091293338 .13999939 .17822266V.5019531H.07998657V.18821717C.07998657 .13026428 .09298706-.0146484379 .25698854-.0146484379 .32199098-.0146484379 .3789978 .014343262 .4139862 .076309207L.41600038 .0743103 .4189911 0H.48098756C.47898866 .033996583 .47599793 .07398987 .47599793 .112976077V.5019531H.41600038V.2131958Z"/>
<path id="font_3_25" d="M.46199037 .34779359C.45700074 .4546051 .37298585 .51660159 .269989 .51660159 .12098694 .51660159 .04598999 .386734 .04598999 .25097657 .04598999 .114212039 .115997318-.0146484379 .2659912-.0146484379 .37998963-.0146484379 .44599916 .04234314 .46199037 .15713501H.39698792C.3919983 .088256839 .33799745 .04034424 .2599945 .04034424 .16799927 .04034424 .11099243 .13717652 .11099243 .25196839 .11099243 .36576844 .16799927 .46159364 .2599945 .46159364 .34298707 .46159364 .3919983 .42466737 .39698792 .34779359H.46199037Z"/>
<path id="font_3_34" d="M.44699098 .25097657C.44699098 .15814209 .39898683 .04034424 .27799989 .04034424 .15699768 .04034424 .10899353 .15814209 .10899353 .25097657 .10899353 .34381105 .15699768 .46159364 .27799989 .46159364 .39898683 .46159364 .44699098 .34381105 .44699098 .25097657M.27799989 .51660159C.117996219 .51660159 .04399109 .3827362 .04399109 .25097657 .04399109 .11920166 .117996219-.0146484379 .27799989-.0146484379 .43798829-.0146484379 .5119934 .11920166 .5119934 .25097657 .5119934 .3827362 .43798829 .51660159 .27799989 .51660159Z"/>
<path id="font_3_2" d="M.101989749 .080963138 .05899048-.12402344H.11099243L.18299866 .080963138H.101989749Z"/>
<path id="font_3_19" d="M.3849945 .36816407V.30815126H.56599429V.07531738C.5149994 .060333253 .45999146 .04534912 .4059906 .04534912 .21099854 .04534912 .13398743 .1772461 .13398743 .36116029 .13398743 .5112152 .19898987 .67729189 .37199403 .67729189 .45799256 .67729189 .5389862 .63627627 .5519867 .5442352H.6259918C.61499026 .672287 .49198915 .7373047 .37199403 .7373047 .16299439 .7373047 .06399536 .5472412 .06399536 .36116029 .06399536 .13928223 .1749878-.0146484379 .37199403-.0146484379 .46499635-.0146484379 .5439911-.0036621094 .6309967 .030349732V.36816407H.3849945Z"/>
<path id="font_3_35" d="M.12998963 .2629547C.12998963 .36476136 .1749878 .46159364 .2919922 .46159364 .4059906 .46159364 .44499208 .35578919 .44499208 .25994874 .44499208 .16711426 .41600038 .04034424 .30099488 .04034424 .16999817 .04034424 .12998963 .14915467 .12998963 .2629547M.12998963 .07827759H.13198853C.17298889 .018341065 .23399353-.0146484379 .30699159-.0146484379 .45298768-.0146484379 .5099945 .12719727 .5099945 .2529602 .5099945 .3827362 .45298768 .51660159 .3039856 .51660159 .23699951 .51660159 .16699219 .48458863 .13198853 .42565919L.12998963 .42765809 .1269989 .5019531H.06498718C.066986087 .4679718 .070999149 .42800904 .069992069 .3890381V-.19238281H.12998963V.07827759Z"/>
<path id="font_3_29" d="M.13999939 .7216797H.07998657V0H.13999939V.28874208C.13999939 .3786621 .18499756 .46159364 .28399659 .46159364 .3659973 .46159364 .41600038 .41064454 .41600038 .3237152V0H.47599793V.3137207C.47599793 .37167359 .46299745 .51660159 .29899598 .51660159 .23399353 .51660159 .1769867 .4875946 .14199829 .42562867H.13999939V.7216797Z"/>
<path id="font_3_13" d="M.17298889 .2548828 .33198548 .66166689 .48799134 .2548828H.17298889M.07598877 0 .1519928 .19487H.5109863L.58799746 0H.6589966L.37098695 .7216797H.29499818L.008987427 0H.07598877Z"/>
<path id="font_3_26" d="M.42399598 .2629547C.42399598 .14915467 .38398744 .04034424 .25299073 .04034424 .13798523 .04034424 .11099243 .16711426 .11099243 .25994874 .11099243 .35578919 .147995 .46159364 .2619934 .46159364 .3789978 .46159364 .42399598 .36476136 .42399598 .2629547M.42900086 0H.4909973C.4889984 .033966066 .48599244 .07392883 .48599244 .11289978V.7216797H.42599488V.42762757L.42399598 .42562867C.3889923 .48458863 .31900025 .51660159 .2519989 .51660159 .102996829 .51660159 .04598999 .3826599 .04598999 .2527771 .04598999 .12719727 .102996829-.0146484379 .2519989-.0146484379 .32199098-.0146484379 .3829956 .018341065 .42399598 .07827759L.42599488 .074279788 .42900086 0Z"/>
<path id="font_3_21" d="M.5279999 0V.05999756H.16499329V.7216797H.099990848V0H.5279999Z"/>
<path id="font_3_32" d="M.13598633 .5019531H.07398987C.07598877 .46795655 .07899475 .427948 .07899475 .3889618V0H.13899231V.28897096C.13899231 .3786621 .18399048 .46159364 .2829895 .46159364 .36499024 .46159364 .4149933 .41064454 .4149933 .3237152V0H.47499085V.28874208C.47499085 .3786621 .519989 .46159364 .61898806 .46159364 .70098879 .46159364 .7509918 .41064454 .7509918 .3237152V0H.8109894V.3137207C.8109894 .37167359 .7979889 .51660159 .6339874 .51660159 .55599978 .51660159 .49798585 .46559144 .46099855 .40664674 .43899537 .4725952 .3769989 .51660159 .2979889 .51660159 .23298645 .51660159 .17599488 .4875946 .14099121 .42562867L.13899231 .42762757 .13598633 .5019531Z"/>
<path id="font_3_15" d="M.6119995 .5533142C.60198977 .68330386 .48999024 .7373047 .37199403 .7373047 .1539917 .7373047 .06098938 .5593109 .06098938 .36132813 .06098938 .16133118 .15299988-.0146484379 .37199403-.0146484379 .48799134-.0146484379 .598999 .054336549 .6199951 .17533875H.5499878C.5319977 .08534241 .45199586 .04534912 .37199403 .04534912 .18699646 .04534912 .1309967 .21333313 .1309967 .36132813 .1309967 .50930789 .18699646 .67729189 .37199403 .67729189 .45399476 .67729189 .5299988 .6412964 .5419922 .5533142H.6119995Z"/>
<path id="font_3_12" d="M.2669983 .64701846C.3619995 .64701846 .42999269 .5800781 .42999269 .4851532 .42999269 .3892212 .35899354 .32128907 .2630005 .32128907 .17199707 .32128907 .114990238 .38523866 .114990238 .47616578 .114990238 .5720825 .1639862 .64701846 .2669983 .64701846M.04699707 .17030335C.055999757 .060333253 .12599182-.0146484379 .24899292-.0146484379 .46998597-.0146484379 .5119934 .17930603 .5119934 .36524964 .5119934 .5371094 .46699525 .70703127 .2659912 .70703127 .13198853 .70703127 .04499817 .61305239 .04499817 .4811554 .04499817 .35725404 .13198853 .26628114 .25698854 .26628114 .33699037 .26628114 .4059906 .3052826 .43998719 .37223817H.44198609C.44198609 .2672882 .4249878 .04534912 .2669983 .04534912 .18199158 .04534912 .11999512 .079330448 .116989139 .17030335H.04699707Z"/>
<path id="font_3_3" d="M.27799989 .64701846C.4249878 .64701846 .43798829 .4491272 .43798829 .34617616 .43798829 .24324036 .4249878 .04534912 .27799989 .04534912 .1309967 .04534912 .117996219 .24324036 .117996219 .34617616 .117996219 .4491272 .1309967 .64701846 .27799989 .64701846M.27799989 .70703127C.08898926 .70703127 .04798889 .5220947 .04798889 .34617616 .04798889 .17027283 .08898926-.0146484379 .27799989-.0146484379 .46699525-.0146484379 .5079956 .17027283 .5079956 .34617616 .5079956 .5220947 .46699525 .70703127 .27799989 .70703127Z"/>
<path id="font_3_7" d="M.34700013 0H.4119873V.16113281H.522995V.21511841H.4119873V.6923828H.32598878L.021987915 .22413635V.16113281H.34700013V0M.34700013 .21511841H.07699585L.34498597 .6273804H.34700013V.21511841Z"/>
<path id="font_3_5" d="M.4850006 0V.05999756H.12799073C.23498535 .16299439 .47599793 .36601258 .47599793 .52801516 .47599793 .6480255 .37998963 .70703127 .2689972 .70703127 .14898682 .70703127 .056991579 .63101199 .056991579 .50901797H.1269989C.1269989 .5900116 .18399048 .64701846 .2669983 .64701846 .34199525 .64701846 .4059906 .605011 .4059906 .52401736 .4059906 .40000917 .13999939 .14900208 .049987794 .067993167V0H.4850006Z"/>
<path id="font_3_22" d="M.16499329 .66166689H.32299806C.41999818 .66166689 .5059967 .6307068 .5059967 .5178375 .5059967 .40498353 .41999818 .37402345 .32299806 .37402345H.16499329V.66166689M.16499329 0V.31401063H.2809906C.41999818 .3110199 .57598879 .3460083 .57598879 .5178375 .57598879 .68966677 .41999818 .7246704 .2809906 .7216797H.099990848V0H.16499329Z"/>
<path id="font_3_42" d="M.0079956059 .5019531 .21598816-.00030517579 .13999939-.19238281H.20599365L.48298646 .5019531H.41799928L.25 .08174133 .08099365 .5019531H.0079956059Z"/>
<path id="font_3_41" d="M.25299073 .29997254 .10598755 .5019531H.025985718L.21099854 .25697328 .018997193 .0019989014 .016998291 0H.084991458L.24299622 .2179718 .4039917 0H.48298646L.2869873 .25897218 .46699525 .5019531H.4039917L.25299073 .29997254Z"/>
<path id="font_3_23" d="M.5529938 .19033814C.5529938 .4393158 .14498902 .34632875 .14498902 .55130007 .14498902 .6392975 .23799134 .67729189 .31298829 .67729189 .3869934 .67729189 .46798707 .6542969 .46998597 .5653076H.5399933C.5239868 .7042999 .3999939 .7373047 .30499269 .7373047 .19099427 .7373047 .07499695 .66830447 .07499695 .5423126 .07499695 .38632203 .25299073 .34931947 .36999513 .310318 .43099977 .29032899 .48298646 .2563324 .48298646 .18434143 .48298646 .09234619 .3899994 .04534912 .30899049 .04534912 .21199036 .04534912 .12998963 .0773468 .12799073 .18833924H.057998659C.06098938 .06933594 .1579895-.0146484379 .272995-.0146484379 .41799928-.0146484379 .5529938 .033340455 .5529938 .19033814Z"/>
</defs>
<use data-text="2" xlink:href="#font_1_10" transform="matrix(14.04,0,0,-14.04,235.56276,60.71997)"/>
<use data-text="0" xlink:href="#font_1_8" transform="matrix(14.04,0,0,-14.04,243.369,60.71997)"/>
<use data-text="1" xlink:href="#font_1_9" transform="matrix(14.04,0,0,-14.04,251.16823,60.71997)"/>
<use data-text="6" xlink:href="#font_1_14" transform="matrix(14.04,0,0,-14.04,258.97447,60.71997)"/>
<use data-text=" " xlink:href="#font_1_1" transform="matrix(14.04,0,0,-14.04,266.77369,60.71997)"/>
<use data-text="A" xlink:href="#font_1_19" transform="matrix(14.04,0,0,-14.04,270.73295,60.71997)"/>
<use data-text="P" xlink:href="#font_1_34" transform="matrix(14.04,0,0,-14.04,281.65608,60.71997)"/>
<use data-text=" " xlink:href="#font_1_1" transform="matrix(14.04,0,0,-14.04,291.02076,60.71997)"/>
<use data-text="C" xlink:href="#font_1_21" transform="matrix(14.04,0,0,-14.04,294.85368,60.71997)"/>
<use data-text="a" xlink:href="#font_1_44" transform="matrix(14.04,0,0,-14.04,304.9344,60.71997)"/>
<use data-text="l" xlink:href="#font_1_55" transform="matrix(14.04,0,0,-14.04,312.7336,60.71997)"/>
<use data-text="c" xlink:href="#font_1_46" transform="matrix(14.04,0,0,-14.04,317.41456,60.71997)"/>
<use data-text="u" xlink:href="#font_1_64" transform="matrix(14.04,0,0,-14.04,324.3784,60.71997)"/>
<use data-text="l" xlink:href="#font_1_55" transform="matrix(14.04,0,0,-14.04,332.90068,60.71997)"/>
<use data-text="u" xlink:href="#font_1_64" transform="matrix(14.04,0,0,-14.04,337.5816,60.71997)"/>
<use data-text="s" xlink:href="#font_1_62" transform="matrix(14.04,0,0,-14.04,346.10389,60.71997)"/>
<use data-text=" " xlink:href="#font_1_1" transform="matrix(14.04,0,0,-14.04,353.06773,60.71997)"/>
<use data-text="B" xlink:href="#font_1_20" transform="matrix(14.04,0,0,-14.04,356.90766,60.71997)"/>
<use data-text="C" xlink:href="#font_1_21" transform="matrix(14.04,0,0,-14.04,366.26814,60.71997)"/>
<use data-text=" " xlink:href="#font_1_1" transform="matrix(14.04,0,0,-14.04,376.34886,60.71997)"/>
<use data-text=" " xlink:href="#font_1_1" transform="matrix(14.04,0,0,-14.04,380.1958,60.71997)"/>
<use data-text="Q" xlink:href="#font_1_35" transform="matrix(14.04,0,0,-14.04,155.40839,83.04358)"/>
<use data-text="u" xlink:href="#font_1_64" transform="matrix(14.04,0,0,-14.04,166.33152,83.04358)"/>
<use data-text="e" xlink:href="#font_1_48" transform="matrix(14.04,0,0,-14.04,174.85099,83.04358)"/>
<use data-text="s" xlink:href="#font_1_62" transform="matrix(14.04,0,0,-14.04,182.65723,83.04358)"/>
<use data-text="t" xlink:href="#font_1_63" transform="matrix(14.04,0,0,-14.04,189.61685,83.04358)"/>
<use data-text="i" xlink:href="#font_1_52" transform="matrix(14.04,0,0,-14.04,195.13739,83.04358)"/>
<use data-text="o" xlink:href="#font_1_58" transform="matrix(14.04,0,0,-14.04,199.81272,83.04358)"/>
<use data-text="n" xlink:href="#font_1_57" transform="matrix(14.04,0,0,-14.04,207.61896,83.04358)"/>
<use data-text=" " xlink:href="#font_1_1" transform="matrix(14.04,0,0,-14.04,216.97803,83.04358)"/>
<use data-text="D" xlink:href="#font_1_22" transform="matrix(14.04,0,0,-14.04,220.93732,83.04358)"/>
<use data-text="e" xlink:href="#font_1_48" transform="matrix(14.04,0,0,-14.04,231.7369,83.04358)"/>
<use data-text="s" xlink:href="#font_1_62" transform="matrix(14.04,0,0,-14.04,239.54314,83.04358)"/>
<use data-text="c" xlink:href="#font_1_46" transform="matrix(14.04,0,0,-14.04,246.50276,83.04358)"/>
<use data-text="r" xlink:href="#font_1_61" transform="matrix(14.04,0,0,-14.04,253.46239,83.04358)"/>
<use data-text="i" xlink:href="#font_1_52" transform="matrix(14.04,0,0,-14.04,259.69615,83.04358)"/>
<use data-text="p" xlink:href="#font_1_59" transform="matrix(14.04,0,0,-14.04,264.37147,83.04358)"/>
<use data-text="t" xlink:href="#font_1_63" transform="matrix(14.04,0,0,-14.04,272.89094,83.04358)"/>
<use data-text="o" xlink:href="#font_1_58" transform="matrix(14.04,0,0,-14.04,278.41145,83.04358)"/>
<use data-text="r" xlink:href="#font_1_61" transform="matrix(14.04,0,0,-14.04,286.21067,83.04358)"/>
<use data-text="s" xlink:href="#font_1_62" transform="matrix(14.04,0,0,-14.04,292.44444,83.04358)"/>
<use data-text=" " xlink:href="#font_1_1" transform="matrix(14.04,0,0,-14.04,299.40406,83.04358)"/>
<use data-text="a" xlink:href="#font_1_44" transform="matrix(14.04,0,0,-14.04,303.3633,83.04358)"/>
<use data-text="n" xlink:href="#font_1_57" transform="matrix(14.04,0,0,-14.04,311.16255,83.04358)"/>
<use data-text="d" xlink:href="#font_1_47" transform="matrix(14.04,0,0,-14.04,320.523,83.04358)"/>
<use data-text=" " xlink:href="#font_1_1" transform="matrix(14.04,0,0,-14.04,328.92314,83.04358)"/>
<use data-text="P" xlink:href="#font_1_34" transform="matrix(14.04,0,0,-14.04,332.8824,83.04358)"/>
<use data-text="e" xlink:href="#font_1_48" transform="matrix(14.04,0,0,-14.04,342.24708,83.04358)"/>
<use data-text="r" xlink:href="#font_1_61" transform="matrix(14.04,0,0,-14.04,350.0533,83.04358)"/>
<use data-text="f" xlink:href="#font_1_49" transform="matrix(14.04,0,0,-14.04,356.17195,83.04358)"/>
<use data-text="o" xlink:href="#font_1_58" transform="matrix(14.04,0,0,-14.04,361.69245,83.04358)"/>
<use data-text="r" xlink:href="#font_1_61" transform="matrix(14.04,0,0,-14.04,369.4987,83.04358)"/>
<use data-text="m" xlink:href="#font_1_56" transform="matrix(14.04,0,0,-14.04,375.6187,83.04358)"/>
<use data-text="a" xlink:href="#font_1_44" transform="matrix(14.04,0,0,-14.04,388.81773,83.04358)"/>
<use data-text="n" xlink:href="#font_1_57" transform="matrix(14.04,0,0,-14.04,396.62397,83.04358)"/>
<use data-text="c" xlink:href="#font_1_46" transform="matrix(14.04,0,0,-14.04,405.98445,83.04358)"/>
<use data-text="e" xlink:href="#font_1_48" transform="matrix(14.04,0,0,-14.04,412.94407,83.04358)"/>
<use data-text=" " xlink:href="#font_1_1" transform="matrix(14.04,0,0,-14.04,420.7433,83.04358)"/>
<use data-text="D" xlink:href="#font_1_22" transform="matrix(14.04,0,0,-14.04,424.70256,83.04358)"/>
<use data-text="a" xlink:href="#font_1_44" transform="matrix(14.04,0,0,-14.04,435.62568,83.04358)"/>
<use data-text="t" xlink:href="#font_1_63" transform="matrix(14.04,0,0,-14.04,443.30555,83.04358)"/>
<use data-text="a" xlink:href="#font_1_44" transform="matrix(14.04,0,0,-14.04,448.82466,83.04358)"/>
<use data-text=" " xlink:href="#font_1_1" transform="matrix(14.04,0,0,-14.04,456.6309,83.04358)"/>
<use data-text=" " xlink:href="#font_1_1" transform="matrix(14.04,0,0,-14.04,460.534,83.04358)"/>
<use data-text="Q" xlink:href="#font_2_40" transform="matrix(8.04,0,0,-8.04,161.4,111.119998)"/>
<use data-text="u" xlink:href="#font_2_71" transform="matrix(8.04,0,0,-8.04,167.63983,111.119998)"/>
<use data-text="e" xlink:href="#font_2_55" transform="matrix(8.04,0,0,-8.04,172.56032,111.119998)"/>
<use data-text="s" xlink:href="#font_2_69" transform="matrix(8.04,0,0,-8.04,177.00002,111.119998)"/>
<use data-text="t" xlink:href="#font_2_70" transform="matrix(8.04,0,0,-8.04,181.07952,111.119998)"/>
<use data-text="i" xlink:href="#font_2_59" transform="matrix(8.04,0,0,-8.04,184.07924,111.119998)"/>
<use data-text="o" xlink:href="#font_2_65" transform="matrix(8.04,0,0,-8.04,186.35939,111.119998)"/>
<use data-text="n" xlink:href="#font_2_64" transform="matrix(8.04,0,0,-8.04,191.27988,111.119998)"/>
<use data-text=" " xlink:href="#font_2_1" transform="matrix(8.04,0,0,-8.04,196.20037,111.119998)"/>
<use data-text="T" xlink:href="#font_2_43" transform="matrix(8.04,0,0,-8.04,279.83723,111.119998)"/>
<use data-text="o" xlink:href="#font_2_65" transform="matrix(8.04,0,0,-8.04,284.7577,111.119998)"/>
<use data-text="p" xlink:href="#font_2_66" transform="matrix(8.04,0,0,-8.04,289.67817,111.119998)"/>
<use data-text="i" xlink:href="#font_2_59" transform="matrix(8.04,0,0,-8.04,294.59864,111.119998)"/>
<use data-text="c" xlink:href="#font_2_53" transform="matrix(8.04,0,0,-8.04,296.75898,111.119998)"/>
<use data-text=" " xlink:href="#font_2_1" transform="matrix(8.04,0,0,-8.04,300.78703,111.119998)"/>
<use data-text="K" xlink:href="#font_2_34" transform="matrix(8.04,0,0,-8.04,386.27879,111.119998)"/>
<use data-text="e" xlink:href="#font_2_55" transform="matrix(8.04,0,0,-8.04,391.67845,111.119998)"/>
<use data-text="y" xlink:href="#font_2_75" transform="matrix(8.04,0,0,-8.04,396.11653,111.119998)"/>
<use data-text=" " xlink:href="#font_2_1" transform="matrix(8.04,0,0,-8.04,400.5546,111.119998)"/>
<use data-text="%" xlink:href="#font_2_2" transform="matrix(8.04,0,0,-8.04,413.5183,111.119998)"/>
<use data-text=" " xlink:href="#font_2_1" transform="matrix(8.04,0,0,-8.04,420.71815,111.119998)"/>
<use data-text="C" xlink:href="#font_2_26" transform="matrix(8.04,0,0,-8.04,422.8809,111.119998)"/>
<use data-text="o" xlink:href="#font_2_65" transform="matrix(8.04,0,0,-8.04,428.28056,111.119998)"/>
<use data-text="r" xlink:href="#font_2_68" transform="matrix(8.04,0,0,-8.04,433.20103,111.119998)"/>
<use data-text="r" xlink:href="#font_2_68" transform="matrix(8.04,0,0,-8.04,436.32054,111.119998)"/>
<use data-text="e" xlink:href="#font_2_55" transform="matrix(8.04,0,0,-8.04,439.44004,111.119998)"/>
<use data-text="c" xlink:href="#font_2_53" transform="matrix(8.04,0,0,-8.04,443.75993,111.119998)"/>
<use data-text="t" xlink:href="#font_2_70" transform="matrix(8.04,0,0,-8.04,447.8402,111.119998)"/>
<use data-text=" " xlink:href="#font_2_1" transform="matrix(8.04,0,0,-8.04,450.95973,111.119998)"/>
<use data-text="8" xlink:href="#font_3_11" transform="matrix(8.04,0,0,-8.04,174.23987,126.596988)"/>
<use data-text="6" xlink:href="#font_3_9" transform="matrix(8.04,0,0,-8.04,178.67795,126.596988)"/>
<use data-text=" " xlink:href="#font_3_1" transform="matrix(8.04,0,0,-8.04,183.11603,126.596988)"/>
<use data-text="D" xlink:href="#font_3_16" transform="matrix(8.04,0,0,-8.04,270.47868,126.596988)"/>
<use data-text="e" xlink:href="#font_3_27" transform="matrix(8.04,0,0,-8.04,276.23854,126.596988)"/>
<use data-text="r" xlink:href="#font_3_36" transform="matrix(8.04,0,0,-8.04,280.67903,126.596988)"/>
<use data-text="i" xlink:href="#font_3_30" transform="matrix(8.04,0,0,-8.04,283.31855,126.596988)"/>
<use data-text="v" xlink:href="#font_3_40" transform="matrix(8.04,0,0,-8.04,285.1187,126.596988)"/>
<use data-text="a" xlink:href="#font_3_24" transform="matrix(8.04,0,0,-8.04,289.199,126.596988)"/>
<use data-text="t" xlink:href="#font_3_38" transform="matrix(8.04,0,0,-8.04,293.2785,126.596988)"/>
<use data-text="i" xlink:href="#font_3_30" transform="matrix(8.04,0,0,-8.04,295.91883,126.596988)"/>
<use data-text="v" xlink:href="#font_3_40" transform="matrix(8.04,0,0,-8.04,297.59919,126.596988)"/>
<use data-text="e" xlink:href="#font_3_27" transform="matrix(8.04,0,0,-8.04,301.67869,126.596988)"/>
<use data-text="s" xlink:href="#font_3_37" transform="matrix(8.04,0,0,-8.04,306.11918,126.596988)"/>
<use data-text=" " xlink:href="#font_3_1" transform="matrix(8.04,0,0,-8.04,310.2035,126.596988)"/>
<use data-text="D" xlink:href="#font_3_16" transform="matrix(8.04,0,0,-8.04,390.47569,126.596988)"/>
<use data-text=" " xlink:href="#font_3_1" transform="matrix(8.04,0,0,-8.04,396.28056,126.596988)"/>
<use data-text="5" xlink:href="#font_3_8" transform="matrix(8.04,0,0,-8.04,427.7893,126.596988)"/>
<use data-text="1" xlink:href="#font_3_4" transform="matrix(8.04,0,0,-8.04,432.2274,126.596988)"/>
<use data-text=" " xlink:href="#font_3_1" transform="matrix(8.04,0,0,-8.04,436.66548,126.596988)"/>
<use data-text="8" xlink:href="#font_3_11" transform="matrix(8.04,0,0,-8.04,174.23987,142.19458)"/>
<use data-text="7" xlink:href="#font_3_10" transform="matrix(8.04,0,0,-8.04,178.67795,142.19458)"/>
<use data-text=" " xlink:href="#font_3_1" transform="matrix(8.04,0,0,-8.04,183.11603,142.19458)"/>
<use data-text="I" xlink:href="#font_3_20" transform="matrix(8.04,0,0,-8.04,274.91676,142.19458)"/>
<use data-text="n" xlink:href="#font_3_33" transform="matrix(8.04,0,0,-8.04,277.1969,142.19458)"/>
<use data-text="t" xlink:href="#font_3_38" transform="matrix(8.04,0,0,-8.04,281.63499,142.19458)"/>
<use data-text="e" xlink:href="#font_3_27" transform="matrix(8.04,0,0,-8.04,284.27534,142.19458)"/>
<use data-text="g" xlink:href="#font_3_28" transform="matrix(8.04,0,0,-8.04,288.7134,142.19458)"/>
<use data-text="r" xlink:href="#font_3_36" transform="matrix(8.04,0,0,-8.04,293.1515,142.19458)"/>
<use data-text="a" xlink:href="#font_3_24" transform="matrix(8.04,0,0,-8.04,295.79185,142.19458)"/>
<use data-text="l" xlink:href="#font_3_31" transform="matrix(8.04,0,0,-8.04,299.87135,142.19458)"/>
<use data-text="s" xlink:href="#font_3_37" transform="matrix(8.04,0,0,-8.04,301.67149,142.19458)"/>
<use data-text=" " xlink:href="#font_3_1" transform="matrix(8.04,0,0,-8.04,305.65934,142.19458)"/>
<use data-text="D" xlink:href="#font_3_16" transform="matrix(8.04,0,0,-8.04,390.47569,142.19458)"/>
<use data-text=" " xlink:href="#font_3_1" transform="matrix(8.04,0,0,-8.04,396.28056,142.19458)"/>
<use data-text="7" xlink:href="#font_3_10" transform="matrix(8.04,0,0,-8.04,427.7893,142.19458)"/>
<use data-text="3" xlink:href="#font_3_6" transform="matrix(8.04,0,0,-8.04,432.2274,142.19458)"/>
<use data-text=" " xlink:href="#font_3_1" transform="matrix(8.04,0,0,-8.04,436.66548,142.19458)"/>
<use data-text="8" xlink:href="#font_3_11" transform="matrix(8.04,0,0,-8.04,174.23987,157.67157)"/>
<use data-text="8" xlink:href="#font_3_11" transform="matrix(8.04,0,0,-8.04,178.67795,157.67157)"/>
<use data-text=" " xlink:href="#font_3_1" transform="matrix(8.04,0,0,-8.04,183.11603,157.67157)"/>
<use data-text="F" xlink:href="#font_3_18" transform="matrix(8.04,0,0,-8.04,236.75891,157.67157)"/>
<use data-text="u" xlink:href="#font_3_39" transform="matrix(8.04,0,0,-8.04,241.19699,157.67157)"/>
<use data-text="n" xlink:href="#font_3_33" transform="matrix(8.04,0,0,-8.04,245.63507,157.67157)"/>
<use data-text="c" xlink:href="#font_3_25" transform="matrix(8.04,0,0,-8.04,250.07315,157.67157)"/>
<use data-text="t" xlink:href="#font_3_38" transform="matrix(8.04,0,0,-8.04,254.15345,157.67157)"/>
<use data-text="i" xlink:href="#font_3_30" transform="matrix(8.04,0,0,-8.04,256.793,157.67157)"/>
<use data-text="o" xlink:href="#font_3_34" transform="matrix(8.04,0,0,-8.04,258.59315,157.67157)"/>
<use data-text="n" xlink:href="#font_3_33" transform="matrix(8.04,0,0,-8.04,263.03123,157.67157)"/>
<use data-text="s" xlink:href="#font_3_37" transform="matrix(8.04,0,0,-8.04,267.4693,157.67157)"/>
<use data-text="," xlink:href="#font_3_2" transform="matrix(8.04,0,0,-8.04,271.55604,157.67157)"/>
<use data-text=" " xlink:href="#font_3_1" transform="matrix(8.04,0,0,-8.04,273.71879,157.67157)"/>
<use data-text="G" xlink:href="#font_3_19" transform="matrix(8.04,0,0,-8.04,275.9941,157.67157)"/>
<use data-text="r" xlink:href="#font_3_36" transform="matrix(8.04,0,0,-8.04,281.75398,157.67157)"/>
<use data-text="a" xlink:href="#font_3_24" transform="matrix(8.04,0,0,-8.04,284.39433,157.67157)"/>
<use data-text="p" xlink:href="#font_3_35" transform="matrix(8.04,0,0,-8.04,288.47383,157.67157)"/>
<use data-text="h" xlink:href="#font_3_29" transform="matrix(8.04,0,0,-8.04,292.9143,157.67157)"/>
<use data-text="s" xlink:href="#font_3_37" transform="matrix(8.04,0,0,-8.04,297.23179,157.67157)"/>
<use data-text="," xlink:href="#font_3_2" transform="matrix(8.04,0,0,-8.04,301.31208,157.67157)"/>
<use data-text=" " xlink:href="#font_3_1" transform="matrix(8.04,0,0,-8.04,303.39445,157.67157)"/>
<use data-text="A" xlink:href="#font_3_13" transform="matrix(8.04,0,0,-8.04,305.75178,157.67157)"/>
<use data-text="n" xlink:href="#font_3_33" transform="matrix(8.04,0,0,-8.04,311.15226,157.67157)"/>
<use data-text="d" xlink:href="#font_3_26" transform="matrix(8.04,0,0,-8.04,315.59196,157.67157)"/>
<use data-text=" " xlink:href="#font_3_1" transform="matrix(8.04,0,0,-8.04,319.90943,157.67157)"/>
<use data-text="L" xlink:href="#font_3_21" transform="matrix(8.04,0,0,-8.04,322.19279,157.67157)"/>
<use data-text="i" xlink:href="#font_3_30" transform="matrix(8.04,0,0,-8.04,326.63328,157.67157)"/>
<use data-text="m" xlink:href="#font_3_32" transform="matrix(8.04,0,0,-8.04,328.43424,157.67157)"/>
<use data-text="i" xlink:href="#font_3_30" transform="matrix(8.04,0,0,-8.04,335.51426,157.67157)"/>
<use data-text="t" xlink:href="#font_3_38" transform="matrix(8.04,0,0,-8.04,337.31523,157.67157)"/>
<use data-text="s" xlink:href="#font_3_37" transform="matrix(8.04,0,0,-8.04,339.95555,157.67157)"/>
<use data-text=" " xlink:href="#font_3_1" transform="matrix(8.04,0,0,-8.04,343.9916,157.67157)"/>
<use data-text="C" xlink:href="#font_3_15" transform="matrix(8.04,0,0,-8.04,390.71687,157.67157)"/>
<use data-text=" " xlink:href="#font_3_1" transform="matrix(8.04,0,0,-8.04,396.07954,157.67157)"/>
<use data-text="9" xlink:href="#font_3_12" transform="matrix(8.04,0,0,-8.04,429.96009,157.67157)"/>
<use data-text=" " xlink:href="#font_3_1" transform="matrix(8.04,0,0,-8.04,434.43034,157.67157)"/>
<use data-text="8" xlink:href="#font_3_11" transform="matrix(8.04,0,0,-8.04,174.23986,173.14856)"/>
<use data-text="9" xlink:href="#font_3_12" transform="matrix(8.04,0,0,-8.04,178.67794,173.14856)"/>
<use data-text=" " xlink:href="#font_3_1" transform="matrix(8.04,0,0,-8.04,183.11602,173.14856)"/>
<use data-text="I" xlink:href="#font_3_20" transform="matrix(8.04,0,0,-8.04,274.91676,173.14856)"/>
<use data-text="n" xlink:href="#font_3_33" transform="matrix(8.04,0,0,-8.04,277.1969,173.14856)"/>
<use data-text="t" xlink:href="#font_3_38" transform="matrix(8.04,0,0,-8.04,281.63499,173.14856)"/>
<use data-text="e" xlink:href="#font_3_27" transform="matrix(8.04,0,0,-8.04,284.27534,173.14856)"/>
<use data-text="g" xlink:href="#font_3_28" transform="matrix(8.04,0,0,-8.04,288.7134,173.14856)"/>
<use data-text="r" xlink:href="#font_3_36" transform="matrix(8.04,0,0,-8.04,293.1515,173.14856)"/>
<use data-text="a" xlink:href="#font_3_24" transform="matrix(8.04,0,0,-8.04,295.79185,173.14856)"/>
<use data-text="l" xlink:href="#font_3_31" transform="matrix(8.04,0,0,-8.04,299.87135,173.14856)"/>
<use data-text="s" xlink:href="#font_3_37" transform="matrix(8.04,0,0,-8.04,301.67149,173.14856)"/>
<use data-text=" " xlink:href="#font_3_1" transform="matrix(8.04,0,0,-8.04,305.65934,173.14856)"/>
<use data-text="D" xlink:href="#font_3_16" transform="matrix(8.04,0,0,-8.04,390.47569,173.14856)"/>
<use data-text=" " xlink:href="#font_3_1" transform="matrix(8.04,0,0,-8.04,396.28056,173.14856)"/>
<use data-text="5" xlink:href="#font_3_8" transform="matrix(8.04,0,0,-8.04,427.7893,173.14856)"/>
<use data-text="3" xlink:href="#font_3_6" transform="matrix(8.04,0,0,-8.04,432.2274,173.14856)"/>
<use data-text=" " xlink:href="#font_3_1" transform="matrix(8.04,0,0,-8.04,436.66548,173.14856)"/>
<use data-text="9" xlink:href="#font_3_12" transform="matrix(8.04,0,0,-8.04,174.23987,188.62555)"/>
<use data-text="0" xlink:href="#font_3_3" transform="matrix(8.04,0,0,-8.04,178.67795,188.62555)"/>
<use data-text=" " xlink:href="#font_3_1" transform="matrix(8.04,0,0,-8.04,183.11603,188.62555)"/>
<use data-text="D" xlink:href="#font_3_16" transform="matrix(8.04,0,0,-8.04,270.47868,188.62555)"/>
<use data-text="e" xlink:href="#font_3_27" transform="matrix(8.04,0,0,-8.04,276.23854,188.62555)"/>
<use data-text="r" xlink:href="#font_3_36" transform="matrix(8.04,0,0,-8.04,280.67903,188.62555)"/>
<use data-text="i" xlink:href="#font_3_30" transform="matrix(8.04,0,0,-8.04,283.31855,188.62555)"/>
<use data-text="v" xlink:href="#font_3_40" transform="matrix(8.04,0,0,-8.04,285.1187,188.62555)"/>
<use data-text="a" xlink:href="#font_3_24" transform="matrix(8.04,0,0,-8.04,289.199,188.62555)"/>
<use data-text="t" xlink:href="#font_3_38" transform="matrix(8.04,0,0,-8.04,293.2785,188.62555)"/>
<use data-text="i" xlink:href="#font_3_30" transform="matrix(8.04,0,0,-8.04,295.91883,188.62555)"/>
<use data-text="v" xlink:href="#font_3_40" transform="matrix(8.04,0,0,-8.04,297.59919,188.62555)"/>
<use data-text="e" xlink:href="#font_3_27" transform="matrix(8.04,0,0,-8.04,301.67869,188.62555)"/>
<use data-text="s" xlink:href="#font_3_37" transform="matrix(8.04,0,0,-8.04,306.11918,188.62555)"/>
<use data-text=" " xlink:href="#font_3_1" transform="matrix(8.04,0,0,-8.04,310.2035,188.62555)"/>
<use data-text="A" xlink:href="#font_3_13" transform="matrix(8.04,0,0,-8.04,390.71687,188.62555)"/>
<use data-text=" " xlink:href="#font_3_1" transform="matrix(8.04,0,0,-8.04,396.07954,188.62555)"/>
<use data-text="4" xlink:href="#font_3_7" transform="matrix(8.04,0,0,-8.04,427.79734,188.62555)"/>
<use data-text="4" xlink:href="#font_3_7" transform="matrix(8.04,0,0,-8.04,432.2354,188.62555)"/>
<use data-text=" " xlink:href="#font_3_1" transform="matrix(8.04,0,0,-8.04,436.6735,188.62555)"/>
<use data-text="9" xlink:href="#font_3_12" transform="matrix(8.04,0,0,-8.04,174.23986,204.10254)"/>
<use data-text="1" xlink:href="#font_3_4" transform="matrix(8.04,0,0,-8.04,178.67794,204.10254)"/>
<use data-text=" " xlink:href="#font_3_1" transform="matrix(8.04,0,0,-8.04,183.11602,204.10254)"/>
<use data-text="I" xlink:href="#font_3_20" transform="matrix(8.04,0,0,-8.04,274.91676,204.10254)"/>
<use data-text="n" xlink:href="#font_3_33" transform="matrix(8.04,0,0,-8.04,277.1969,204.10254)"/>
<use data-text="t" xlink:href="#font_3_38" transform="matrix(8.04,0,0,-8.04,281.63499,204.10254)"/>
<use data-text="e" xlink:href="#font_3_27" transform="matrix(8.04,0,0,-8.04,284.27534,204.10254)"/>
<use data-text="g" xlink:href="#font_3_28" transform="matrix(8.04,0,0,-8.04,288.7134,204.10254)"/>
<use data-text="r" xlink:href="#font_3_36" transform="matrix(8.04,0,0,-8.04,293.1515,204.10254)"/>
<use data-text="a" xlink:href="#font_3_24" transform="matrix(8.04,0,0,-8.04,295.79185,204.10254)"/>
<use data-text="l" xlink:href="#font_3_31" transform="matrix(8.04,0,0,-8.04,299.87135,204.10254)"/>
<use data-text="s" xlink:href="#font_3_37" transform="matrix(8.04,0,0,-8.04,301.67149,204.10254)"/>
<use data-text=" " xlink:href="#font_3_1" transform="matrix(8.04,0,0,-8.04,305.65934,204.10254)"/>
<use data-text="A" xlink:href="#font_3_13" transform="matrix(8.04,0,0,-8.04,390.71687,204.10254)"/>
<use data-text=" " xlink:href="#font_3_1" transform="matrix(8.04,0,0,-8.04,396.07954,204.10254)"/>
<use data-text="4" xlink:href="#font_3_7" transform="matrix(8.04,0,0,-8.04,427.79734,204.10254)"/>
<use data-text="7" xlink:href="#font_3_10" transform="matrix(8.04,0,0,-8.04,432.2354,204.10254)"/>
<use data-text=" " xlink:href="#font_3_1" transform="matrix(8.04,0,0,-8.04,436.6735,204.10254)"/>
<use data-text="9" xlink:href="#font_3_12" transform="matrix(8.04,0,0,-8.04,174.23986,219.57953)"/>
<use data-text="2" xlink:href="#font_3_5" transform="matrix(8.04,0,0,-8.04,178.67794,219.57953)"/>
<use data-text=" " xlink:href="#font_3_1" transform="matrix(8.04,0,0,-8.04,183.11602,219.57953)"/>
<use data-text="P" xlink:href="#font_3_22" transform="matrix(8.04,0,0,-8.04,223.67781,219.57953)"/>
<use data-text="o" xlink:href="#font_3_34" transform="matrix(8.04,0,0,-8.04,228.59749,219.57953)"/>
<use data-text="l" xlink:href="#font_3_31" transform="matrix(8.04,0,0,-8.04,233.03557,219.57953)"/>
<use data-text="y" xlink:href="#font_3_42" transform="matrix(8.04,0,0,-8.04,234.83573,219.57953)"/>
<use data-text="n" xlink:href="#font_3_33" transform="matrix(8.04,0,0,-8.04,238.91522,219.57953)"/>
<use data-text="o" xlink:href="#font_3_34" transform="matrix(8.04,0,0,-8.04,243.3533,219.57953)"/>
<use data-text="m" xlink:href="#font_3_32" transform="matrix(8.04,0,0,-8.04,247.67319,219.57953)"/>
<use data-text="i" xlink:href="#font_3_30" transform="matrix(8.04,0,0,-8.04,254.87302,219.57953)"/>
<use data-text="a" xlink:href="#font_3_24" transform="matrix(8.04,0,0,-8.04,256.55259,219.57953)"/>
<use data-text="l" xlink:href="#font_3_31" transform="matrix(8.04,0,0,-8.04,260.6329,219.57953)"/>
<use data-text=" " xlink:href="#font_3_1" transform="matrix(8.04,0,0,-8.04,262.43305,219.57953)"/>
<use data-text="A" xlink:href="#font_3_13" transform="matrix(8.04,0,0,-8.04,264.59584,219.57953)"/>
<use data-text="p" xlink:href="#font_3_35" transform="matrix(8.04,0,0,-8.04,269.99629,219.57953)"/>
<use data-text="p" xlink:href="#font_3_35" transform="matrix(8.04,0,0,-8.04,274.43437,219.57953)"/>
<use data-text="r" xlink:href="#font_3_36" transform="matrix(8.04,0,0,-8.04,278.87245,219.57953)"/>
<use data-text="o" xlink:href="#font_3_34" transform="matrix(8.04,0,0,-8.04,281.512,219.57953)"/>
<use data-text="x" xlink:href="#font_3_41" transform="matrix(8.04,0,0,-8.04,285.95008,219.57953)"/>
<use data-text="i" xlink:href="#font_3_30" transform="matrix(8.04,0,0,-8.04,290.0304,219.57953)"/>
<use data-text="m" xlink:href="#font_3_32" transform="matrix(8.04,0,0,-8.04,291.71076,219.57953)"/>
<use data-text="a" xlink:href="#font_3_24" transform="matrix(8.04,0,0,-8.04,298.78996,219.57953)"/>
<use data-text="t" xlink:href="#font_3_38" transform="matrix(8.04,0,0,-8.04,302.87028,219.57953)"/>
<use data-text="i" xlink:href="#font_3_30" transform="matrix(8.04,0,0,-8.04,305.51063,219.57953)"/>
<use data-text="o" xlink:href="#font_3_34" transform="matrix(8.04,0,0,-8.04,307.31077,219.57953)"/>
<use data-text="n" xlink:href="#font_3_33" transform="matrix(8.04,0,0,-8.04,311.74885,219.57953)"/>
<use data-text=" " xlink:href="#font_3_1" transform="matrix(8.04,0,0,-8.04,316.18693,219.57953)"/>
<use data-text="A" xlink:href="#font_3_13" transform="matrix(8.04,0,0,-8.04,318.47746,219.57953)"/>
<use data-text="n" xlink:href="#font_3_33" transform="matrix(8.04,0,0,-8.04,323.87715,219.57953)"/>
<use data-text="d" xlink:href="#font_3_26" transform="matrix(8.04,0,0,-8.04,328.31764,219.57953)"/>
<use data-text=" " xlink:href="#font_3_1" transform="matrix(8.04,0,0,-8.04,332.6351,219.57953)"/>
<use data-text="S" xlink:href="#font_3_23" transform="matrix(8.04,0,0,-8.04,334.91929,219.57953)"/>
<use data-text="e" xlink:href="#font_3_27" transform="matrix(8.04,0,0,-8.04,339.83976,219.57953)"/>
<use data-text="r" xlink:href="#font_3_36" transform="matrix(8.04,0,0,-8.04,344.15724,219.57953)"/>
<use data-text="i" xlink:href="#font_3_30" transform="matrix(8.04,0,0,-8.04,346.79759,219.57953)"/>
<use data-text="e" xlink:href="#font_3_27" transform="matrix(8.04,0,0,-8.04,348.59773,219.57953)"/>
<use data-text="s" xlink:href="#font_3_37" transform="matrix(8.04,0,0,-8.04,353.0374,219.57953)"/>
<use data-text=" " xlink:href="#font_3_1" transform="matrix(8.04,0,0,-8.04,356.90467,219.57953)"/>
<use data-text="D" xlink:href="#font_3_16" transform="matrix(8.04,0,0,-8.04,390.47566,219.57953)"/>
<use data-text=" " xlink:href="#font_3_1" transform="matrix(8.04,0,0,-8.04,396.28053,219.57953)"/>
<use data-text="2" xlink:href="#font_3_5" transform="matrix(8.04,0,0,-8.04,427.78929,219.57953)"/>
<use data-text="5" xlink:href="#font_3_8" transform="matrix(8.04,0,0,-8.04,432.22737,219.57953)"/>
<use data-text=" " xlink:href="#font_3_1" transform="matrix(8.04,0,0,-8.04,436.66545,219.57953)"/>
<path transform="matrix(1,0,0,-1,0,792)" d="M155.4 691.08H155.87999V691.56H155.4Z"/>
<path transform="matrix(1,0,0,-1,0,792)" d="M155.4 691.08H155.87999V691.56H155.4Z"/>
<path transform="matrix(1,0,0,-1,0,792)" d="M155.88 691.08H201.72V691.56H155.88Z"/>
<path transform="matrix(1,0,0,-1,0,792)" d="M201.72 691.08H202.201V691.56H201.72Z"/>
<path transform="matrix(1,0,0,-1,0,792)" d="M202.2 691.08H378.72V691.56H202.2Z"/>
<path transform="matrix(1,0,0,-1,0,792)" d="M378.72 691.08H379.2V691.56H378.72Z"/>
<path transform="matrix(1,0,0,-1,0,792)" d="M379.2 691.08H407.88V691.56H379.2Z"/>
<path transform="matrix(1,0,0,-1,0,792)" d="M407.88 691.08H408.36003V691.56H407.88Z"/>
<path transform="matrix(1,0,0,-1,0,792)" d="M408.36 691.08H456.12V691.56H408.36Z"/>
<path transform="matrix(1,0,0,-1,0,792)" d="M456.12 691.08H456.6V691.56H456.12Z"/>
<path transform="matrix(1,0,0,-1,0,792)" d="M456.12 691.08H456.6V691.56H456.12Z"/>
<path transform="matrix(1,0,0,-1,0,792)" d="M155.4 676.08H155.87999V691.08H155.4Z"/>
<path transform="matrix(1,0,0,-1,0,792)" d="M201.72 676.08H202.201V691.08H201.72Z"/>
<path transform="matrix(1,0,0,-1,0,792)" d="M378.72 676.08H379.2V691.08H378.72Z"/>
<path transform="matrix(1,0,0,-1,0,792)" d="M407.88 676.08H408.36003V691.08H407.88Z"/>
<path transform="matrix(1,0,0,-1,0,792)" d="M456.12 676.08H456.6V691.08H456.12Z"/>
<path transform="matrix(1,0,0,-1,0,792)" d="M155.4 675.6H155.87999V676.07998H155.4Z"/>
<path transform="matrix(1,0,0,-1,0,792)" d="M155.88 675.6H201.72V676.07998H155.88Z"/>
<path transform="matrix(1,0,0,-1,0,792)" d="M201.72 675.6H202.201V676.07998H201.72Z"/>
<path transform="matrix(1,0,0,-1,0,792)" d="M202.2 675.6H378.72V676.07998H202.2Z"/>
<path transform="matrix(1,0,0,-1,0,792)" d="M378.72 675.6H379.2V676.07998H378.72Z"/>
<path transform="matrix(1,0,0,-1,0,792)" d="M379.2 675.6H407.88V676.07998H379.2Z"/>
<path transform="matrix(1,0,0,-1,0,792)" d="M407.88 675.6H408.36003V676.07998H407.88Z"/>
<path transform="matrix(1,0,0,-1,0,792)" d="M408.36 675.6H456.12V676.07998H408.36Z"/>
<path transform="matrix(1,0,0,-1,0,792)" d="M456.12 675.6H456.6V676.07998H456.12Z"/>
<path transform="matrix(1,0,0,-1,0,792)" d="M155.4 660.6H155.87999V675.6H155.4Z"/>
<path transform="matrix(1,0,0,-1,0,792)" d="M201.72 660.6H202.201V675.6H201.72Z"/>
<path transform="matrix(1,0,0,-1,0,792)" d="M378.72 660.6H379.2V675.6H378.72Z"/>
<path transform="matrix(1,0,0,-1,0,792)" d="M407.88 660.6H408.36003V675.6H407.88Z"/>
<path transform="matrix(1,0,0,-1,0,792)" d="M456.12 660.6H456.6V675.6H456.12Z"/>
<path transform="matrix(1,0,0,-1,0,792)" d="M155.4 660.12H155.87999V660.6H155.4Z"/>
<path transform="matrix(1,0,0,-1,0,792)" d="M155.88 660.12H201.72V660.6H155.88Z"/>
<path transform="matrix(1,0,0,-1,0,792)" d="M201.72 660.12H202.201V660.6H201.72Z"/>
<path transform="matrix(1,0,0,-1,0,792)" d="M202.2 660.12H378.72V660.6H202.2Z"/>
<path transform="matrix(1,0,0,-1,0,792)" d="M378.72 660.12H379.2V660.6H378.72Z"/>
<path transform="matrix(1,0,0,-1,0,792)" d="M379.2 660.12H407.88V660.6H379.2Z"/>
<path transform="matrix(1,0,0,-1,0,792)" d="M407.88 660.12H408.36003V660.6H407.88Z"/>
<path transform="matrix(1,0,0,-1,0,792)" d="M408.36 660.12H456.12V660.6H408.36Z"/>
<path transform="matrix(1,0,0,-1,0,792)" d="M456.12 660.12H456.6V660.6H456.12Z"/>
<path transform="matrix(1,0,0,-1,0,792)" d="M155.4 645.12H155.87999V660.12H155.4Z"/>
<path transform="matrix(1,0,0,-1,0,792)" d="M201.72 645.12H202.201V660.12H201.72Z"/>
<path transform="matrix(1,0,0,-1,0,792)" d="M378.72 645.12H379.2V660.12H378.72Z"/>
<path transform="matrix(1,0,0,-1,0,792)" d="M407.88 645.12H408.36003V660.12H407.88Z"/>
<path transform="matrix(1,0,0,-1,0,792)" d="M456.12 645.12H456.6V660.12H456.12Z"/>
<path transform="matrix(1,0,0,-1,0,792)" d="M155.4 644.64H155.87999V645.12H155.4Z"/>
<path transform="matrix(1,0,0,-1,0,792)" d="M155.88 644.64H201.72V645.12H155.88Z"/>
<path transform="matrix(1,0,0,-1,0,792)" d="M201.72 644.64H202.201V645.12H201.72Z"/>
<path transform="matrix(1,0,0,-1,0,792)" d="M202.2 644.64H378.72V645.12H202.2Z"/>
<path transform="matrix(1,0,0,-1,0,792)" d="M378.72 644.64H379.2V645.12H378.72Z"/>
<path transform="matrix(1,0,0,-1,0,792)" d="M379.2 644.64H407.88V645.12H379.2Z"/>
<path transform="matrix(1,0,0,-1,0,792)" d="M407.88 644.64H408.36003V645.12H407.88Z"/>
<path transform="matrix(1,0,0,-1,0,792)" d="M408.36 644.64H456.12V645.12H408.36Z"/>
<path transform="matrix(1,0,0,-1,0,792)" d="M456.12 644.64H456.6V645.12H456.12Z"/>
<path transform="matrix(1,0,0,-1,0,792)" d="M155.4 629.64H155.87999V644.64H155.4Z"/>
<path transform="matrix(1,0,0,-1,0,792)" d="M201.72 629.64H202.201V644.64H201.72Z"/>
<path transform="matrix(1,0,0,-1,0,792)" d="M378.72 629.64H379.2V644.64H378.72Z"/>
<path transform="matrix(1,0,0,-1,0,792)" d="M407.88 629.64H408.36003V644.64H407.88Z"/>
<path transform="matrix(1,0,0,-1,0,792)" d="M456.12 629.64H456.6V644.64H456.12Z"/>
<path transform="matrix(1,0,0,-1,0,792)" d="M155.4 629.16H155.87999V629.63998H155.4Z"/>
<path transform="matrix(1,0,0,-1,0,792)" d="M155.88 629.16H201.72V629.63998H155.88Z"/>
<path transform="matrix(1,0,0,-1,0,792)" d="M201.72 629.16H202.201V629.63998H201.72Z"/>
<path transform="matrix(1,0,0,-1,0,792)" d="M202.2 629.16H378.72V629.63998H202.2Z"/>
<path transform="matrix(1,0,0,-1,0,792)" d="M378.72 629.16H379.2V629.63998H378.72Z"/>
<path transform="matrix(1,0,0,-1,0,792)" d="M379.2 629.16H407.88V629.63998H379.2Z"/>
<path transform="matrix(1,0,0,-1,0,792)" d="M407.88 629.16H408.36003V629.63998H407.88Z"/>
<path transform="matrix(1,0,0,-1,0,792)" d="M408.36 629.16H456.12V629.63998H408.36Z"/>
<path transform="matrix(1,0,0,-1,0,792)" d="M456.12 629.16H456.6V629.63998H456.12Z"/>
<path transform="matrix(1,0,0,-1,0,792)" d="M155.4 614.04H155.87999V629.16H155.4Z"/>
<path transform="matrix(1,0,0,-1,0,792)" d="M201.72 614.04H202.201V629.16H201.72Z"/>
<path transform="matrix(1,0,0,-1,0,792)" d="M378.72 614.04H379.2V629.16H378.72Z"/>
<path transform="matrix(1,0,0,-1,0,792)" d="M407.88 614.04H408.36003V629.16H407.88Z"/>
<path transform="matrix(1,0,0,-1,0,792)" d="M456.12 614.04H456.6V629.16H456.12Z"/>
<path transform="matrix(1,0,0,-1,0,792)" d="M155.4 613.56H155.87999V614.041H155.4Z"/>
<path transform="matrix(1,0,0,-1,0,792)" d="M155.88 613.56H201.72V614.041H155.88Z"/>
<path transform="matrix(1,0,0,-1,0,792)" d="M201.72 613.56H202.201V614.041H201.72Z"/>
<path transform="matrix(1,0,0,-1,0,792)" d="M202.2 613.56H378.72V614.041H202.2Z"/>
<path transform="matrix(1,0,0,-1,0,792)" d="M378.72 613.56H379.2V614.041H378.72Z"/>
<path transform="matrix(1,0,0,-1,0,792)" d="M379.2 613.56H407.88V614.041H379.2Z"/>
<path transform="matrix(1,0,0,-1,0,792)" d="M407.88 613.56H408.36003V614.041H407.88Z"/>
<path transform="matrix(1,0,0,-1,0,792)" d="M408.36 613.56H456.12V614.041H408.36Z"/>
<path transform="matrix(1,0,0,-1,0,792)" d="M456.12 613.56H456.6V614.041H456.12Z"/>
<path transform="matrix(1,0,0,-1,0,792)" d="M155.4 598.56H155.87999V613.559H155.4Z"/>
<path transform="matrix(1,0,0,-1,0,792)" d="M201.72 598.56H202.201V613.559H201.72Z"/>
<path transform="matrix(1,0,0,-1,0,792)" d="M378.72 598.56H379.2V613.559H378.72Z"/>
<path transform="matrix(1,0,0,-1,0,792)" d="M407.88 598.56H408.36003V613.559H407.88Z"/>
<path transform="matrix(1,0,0,-1,0,792)" d="M456.12 598.56H456.6V613.559H456.12Z"/>
<path transform="matrix(1,0,0,-1,0,792)" d="M155.4 598.08H155.87999V598.56106H155.4Z"/>
<path transform="matrix(1,0,0,-1,0,792)" d="M155.88 598.08H201.72V598.56106H155.88Z"/>
<path transform="matrix(1,0,0,-1,0,792)" d="M201.72 598.08H202.201V598.56106H201.72Z"/>
<path transform="matrix(1,0,0,-1,0,792)" d="M202.2 598.08H378.72V598.56106H202.2Z"/>
<path transform="matrix(1,0,0,-1,0,792)" d="M378.72 598.08H379.2V598.56106H378.72Z"/>
<path transform="matrix(1,0,0,-1,0,792)" d="M379.2 598.08H407.88V598.56106H379.2Z"/>
<path transform="matrix(1,0,0,-1,0,792)" d="M407.88 598.08H408.36003V598.56106H407.88Z"/>
<path transform="matrix(1,0,0,-1,0,792)" d="M408.36 598.08H456.12V598.56106H408.36Z"/>
<path transform="matrix(1,0,0,-1,0,792)" d="M456.12 598.08H456.6V598.56106H456.12Z"/>
<path transform="matrix(1,0,0,-1,0,792)" d="M155.4 583.08H155.87999V598.07907H155.4Z"/>
<path transform="matrix(1,0,0,-1,0,792)" d="M201.72 583.08H202.201V598.07907H201.72Z"/>
<path transform="matrix(1,0,0,-1,0,792)" d="M378.72 583.08H379.2V598.07907H378.72Z"/>
<path transform="matrix(1,0,0,-1,0,792)" d="M407.88 583.08H408.36003V598.07907H407.88Z"/>
<path transform="matrix(1,0,0,-1,0,792)" d="M456.12 583.08H456.6V598.07907H456.12Z"/>
<path transform="matrix(1,0,0,-1,0,792)" d="M155.4 582.6H155.87999V583.081H155.4Z"/>
<path transform="matrix(1,0,0,-1,0,792)" d="M155.88 582.6H201.72V583.081H155.88Z"/>
<path transform="matrix(1,0,0,-1,0,792)" d="M201.72 582.6H202.201V583.081H201.72Z"/>
<path transform="matrix(1,0,0,-1,0,792)" d="M202.2 582.6H378.72V583.081H202.2Z"/>
<path transform="matrix(1,0,0,-1,0,792)" d="M378.72 582.6H379.2V583.081H378.72Z"/>
<path transform="matrix(1,0,0,-1,0,792)" d="M379.2 582.6H407.88V583.081H379.2Z"/>
<path transform="matrix(1,0,0,-1,0,792)" d="M407.88 582.6H408.36003V583.081H407.88Z"/>
<path transform="matrix(1,0,0,-1,0,792)" d="M408.36 582.6H456.12V583.081H408.36Z"/>
<path transform="matrix(1,0,0,-1,0,792)" d="M456.12 582.6H456.6V583.081H456.12Z"/>
<path transform="matrix(1,0,0,-1,0,792)" d="M155.4 567.6H155.87999V582.599H155.4Z"/>
<path transform="matrix(1,0,0,-1,0,792)" d="M155.4 567.12H155.87999V567.601H155.4Z"/>
<path transform="matrix(1,0,0,-1,0,792)" d="M155.4 567.12H155.87999V567.601H155.4Z"/>
<path transform="matrix(1,0,0,-1,0,792)" d="M155.88 567.12H201.72V567.601H155.88Z"/>
<path transform="matrix(1,0,0,-1,0,792)" d="M201.72 567.6H202.201V582.599H201.72Z"/>
<path transform="matrix(1,0,0,-1,0,792)" d="M201.72 567.12H202.201V567.601H201.72Z"/>
<path transform="matrix(1,0,0,-1,0,792)" d="M202.2 567.12H378.72V567.601H202.2Z"/>
<path transform="matrix(1,0,0,-1,0,792)" d="M378.72 567.6H379.2V582.599H378.72Z"/>
<path transform="matrix(1,0,0,-1,0,792)" d="M378.72 567.12H379.2V567.601H378.72Z"/>
<path transform="matrix(1,0,0,-1,0,792)" d="M379.2 567.12H407.88V567.601H379.2Z"/>
<path transform="matrix(1,0,0,-1,0,792)" d="M407.88 567.6H408.36003V582.599H407.88Z"/>
<path transform="matrix(1,0,0,-1,0,792)" d="M407.88 567.12H408.36003V567.601H407.88Z"/>
<path transform="matrix(1,0,0,-1,0,792)" d="M408.36 567.12H456.12V567.601H408.36Z"/>
<path transform="matrix(1,0,0,-1,0,792)" d="M456.12 567.6H456.6V582.599H456.12Z"/>
<path transform="matrix(1,0,0,-1,0,792)" d="M456.12 567.12H456.6V567.601H456.12Z"/>
<path transform="matrix(1,0,0,-1,0,792)" d="M456.12 567.12H456.6V567.601H456.12Z"/>
</svg>
