<svg xmlns="http://www.w3.org/2000/svg" xmlns:xlink="http://www.w3.org/1999/xlink" xmlns:inkscape="http://www.inkscape.org/namespaces/inkscape" version="1.1" width="612.0pt" height="792.0pt" viewBox="0.0 0.0 612.0 792.0">
<defs>
<path id="font_1_28" d="M.44335938 .05029297C.44335938 .040852865 .44295249 .032958986 .44213868 .026611329 .44132487 .020263672 .44010417 .015136719 .43847657 .011230469 .43684898 .0073242189 .43481446 .0044759118 .43237306 .0026855469 .42993165 .0008951823 .4272461 0 .4243164 0H.106933597C.096191409 0 .0871582 .0031738282 .079833988 .009521484 .072509769 .01586914 .068847659 .026204428 .068847659 .040527345V.5913086C.068847659 .60563156 .072509769 .6159668 .079833988 .62231448 .0871582 .6286621 .096191409 .63183596 .106933597 .63183596H.42236329C.42529298 .63183596 .42789714 .63102218 .43017579 .62939456 .43245445 .6277669 .43440757 .62491866 .43603517 .6208496 .43766276 .6167806 .43888346 .61157229 .43969728 .6052246 .44051109 .59887698 .44091798 .5908203 .44091798 .5810547 .44091798 .5719401 .44051109 .564209 .43969728 .5578613 .43888346 .5515137 .43766276 .5463867 .43603517 .54248049 .43440757 .5385742 .43245445 .5357259 .43017579 .53393557 .42789714 .5321452 .42529298 .53125 .42236329 .53125H.19677735V.3779297H.3876953C.390625 .3779297 .39331056 .37702943 .39575196 .37522889 .39819337 .37342835 .40022788 .37064616 .40185548 .36688233 .40348307 .36312867 .40470378 .35805766 .40551759 .3516693 .4063314 .34529115 .40673829 .3375244 .40673829 .32836915 .40673829 .31887818 .4063314 .311025 .40551759 .30480958 .40470378 .29859416 .40348307 .29360453 .40185548 .2898407 .40022788 .28608705 .39819337 .28339134 .39575196 .28175355 .39331056 .28011576 .390625 .27929688 .3876953 .27929688H.19677735V.10058594H.4243164C.4272461 .10058594 .42993165 .09969076 .43237306 .09790039 .43481446 .09611002 .43684898 .09326172 .43847657 .08935547 .44010417 .08544922 .44132487 .080322269 .44213868 .07397461 .44295249 .06762695 .44335938 .059733076 .44335938 .05029297Z"/>
<path id="font_1_374" d="M.47753907 .016616822C.47753907 .013361613 .4765625 .01050822 .47460938 .008056641 .47265626 .0056152346 .46940104 .0035807293 .46484376 .001953125 .46028648 .00032552085 .45402018-.0008951823 .44604493-.0017089844 .43806968-.0025227864 .42822267-.0029296876 .4165039-.0029296876 .40445964-.0029296876 .39444987-.0025227864 .3864746-.0017089844 .37849937-.0008951823 .37223307 .00032552085 .36767579 .001953125 .3631185 .0035807293 .35986329 .0056152346 .35791017 .008056641 .35595704 .010498047 .35498048 .0133463549 .35498048 .016601563V.26513673C.35498048 .28629557 .35343424 .30289714 .3503418 .3149414 .34724937 .3269857 .34277345 .33732096 .33691407 .34594728 .3310547 .35457359 .32348634 .36124674 .31420899 .3659668 .30493165 .37068687 .29410807 .37304688 .28173829 .37304688 .26611329 .37304688 .25032554 .36735026 .234375 .35595704 .21842449 .3445638 .20182292 .32796226 .18457031 .30615235V.016601563C.18457031 .0133463549 .18359375 .010498047 .18164063 .008056641 .1796875 .0056152346 .1763509 .0035807293 .17163086 .001953125 .16691081 .00032552085 .16064453-.0008951823 .15283203-.0017089844 .14501953-.0025227864 .13509114-.0029296876 .123046878-.0029296876 .1110026-.0029296876 .10107422-.0025227864 .09326172-.0017089844 .08544922-.0008951823 .079182948 .00032552085 .07446289 .001953125 .069742839 .0035807293 .06640625 .0056152346 .064453128 .008056641 .0625 .010498047 .061523439 .0133463549 .061523439 .016601563V.45214845C.061523439 .45540367 .06233724 .45825196 .063964847 .46069337 .065592449 .46313478 .06852213 .46516929 .072753909 .46679688 .07698568 .46842448 .08243815 .46964518 .08911133 .47045899 .09578451 .4712728 .104166667 .4716797 .11425781 .4716797 .12467448 .4716797 .13330078 .4712728 .14013672 .47045899 .14697266 .46964518 .15226238 .46842448 .15600586 .46679688 .15974935 .46516929 .16243489 .46313478 .1640625 .46069337 .16569011 .45825196 .1665039 .45540367 .1665039 .45214845V.40185548C.19059246 .4280599 .21508789 .44771324 .23999024 .46081544 .26489259 .47391764 .29085288 .48046876 .3178711 .48046876 .3474935 .48046876 .3724772 .47558085 .39282228 .46580506 .41316734 .45602928 .4296061 .44274903 .44213868 .42596437 .45467124 .40918986 .46370445 .38955689 .46923829 .36706544 .47477214 .34458415 .47753907 .3175405 .47753907 .28593446V.016616822Z"/>
<path id="font_1_282" d="M.47460938 .016616822C.47460938 .013036092 .47379557 .010019938 .47216798 .0075683596 .47054038 .005126953 .46777345 .003092448 .4638672 .0014648438 .45996095-.00016276042 .45467124-.0013020834 .44799806-.001953125 .44132487-.0026041668 .43310548-.0029296876 .42333985-.0029296876 .4129232-.0029296876 .40445964-.0026041668 .39794923-.001953125 .3914388-.0013122559 .38614909-.00018310547 .38208009 .0014343262 .37801109 .0030619305 .3750814 .005086263 .37329103 .007507324 .37150065 .009938558 .37060548 .012939453 .37060548 .01651001V.06460571C.34814454 .04046631 .32462565 .02170817 .30004884 .008331299 .27547203-.0050354006 .24820964-.01171875 .21826172-.01171875 .1850586-.01171875 .15698242-.005279541 .1340332 .007598877 .111083988 .020487467 .09236654 .037857057 .07788086 .05970764 .06339518 .0815684 .052897138 .10709127 .04638672 .13627625 .0398763 .16547139 .036621095 .19621277 .036621095 .22850037 .036621095 .26731874 .040771486 .30222068 .049072267 .33320619 .057373048 .36419169 .069498699 .39060975 .08544922 .41246034 .10139974 .4343109 .12125651 .45110575 .14501953 .46284486 .16878255 .47459413 .1961263 .48046876 .22705078 .48046876 .25146485 .48046876 .27360026 .47549439 .29345704 .46554566 .3133138 .45559693 .3330078 .44099937 .35253907 .42175294V.6576996C.35253907 .66096499 .35343424 .6638997 .3552246 .6665039 .35701499 .6691081 .36027018 .67130538 .36499024 .6730957 .3697103 .67488607 .37597657 .67626956 .38378907 .6772461 .39160157 .67822268 .40152995 .67871096 .41357423 .67871096 .4256185 .67871096 .43554688 .67822268 .44335938 .6772461 .45117188 .67626956 .45735679 .67488607 .46191407 .6730957 .46647135 .67130538 .46972657 .66910299 .4716797 .66648867 .4736328 .66388449 .47460938 .6609548 .47460938 .6576996V.016616822M.35253907 .30776979C.33496095 .32985435 .31811524 .34674073 .30200196 .35842896 .28588868 .37012736 .26904298 .37597657 .25146485 .37597657 .23551433 .37597657 .22176107 .37198893 .21020508 .36401368 .1986491 .35603843 .18937175 .3453776 .18237305 .33203126 .17537435 .3186849 .17016602 .30379234 .16674805 .28735353 .16333008 .2709147 .1616211 .254069 .1616211 .2368164 .1616211 .21858724 .16308594 .20084636 .16601563 .18359375 .16894531 .16634114 .17374675 .15096028 .18041992 .13745117 .1870931 .123942058 .19596355 .11311849 .20703125 .10498047 .21809896 .096842449 .23209636 .09277344 .24902344 .09277344 .25748698 .09277344 .2657064 .09398905 .27368165 .09642029 .2816569 .098861698 .28979493 .10284424 .2980957 .10836792 .30639649 .1138916 .3149414 .12111918 .32373048 .13005066 .33251954 .13899231 .3421224 .1499583 .35253907 .16294861V.30776979Z"/>
<path id="font_1_3" d="M0 0Z"/>
<path id="font_1_381" d="M.5019531 .23878479C.5019531 .20159404 .4970703 .16766866 .4873047 .13700867 .47753907 .10634867 .46272788 .079930629 .4428711 .057754518 .4230143 .03557841 .39811198 .018452963 .36816407 .006378174 .33821617-.005686442 .30322267-.01171875 .2631836-.01171875 .22444661-.01171875 .1907552-.006337484 .16210938 .004425049 .13346355 .015187581 .10970052 .0308431 .09082031 .0513916 .0719401 .0719401 .057942708 .097218837 .048828126 .12722779 .039713544 .15723674 .03515625 .19148255 .03515625 .22996521 .03515625 .26715599 .04012044 .30116273 .050048829 .33198548 .059977216 .36280824 .07486979 .3892263 .09472656 .41123963 .114583339 .43325297 .1394043 .45029197 .16918946 .46235658 .19897461 .47443138 .23388672 .48046876 .27392579 .48046876 .31298829 .48046876 .34684245 .47516886 .37548829 .4645691 .40413413 .45396934 .42781578 .43839518 .4465332 .41784669 .46525065 .3972982 .47916667 .37201945 .48828126 .3420105 .49739585 .31200157 .5019531 .277593 .5019531 .23878479M.37548829 .23388672C.37548829 .2553711 .3737793 .27514649 .37036134 .2932129 .36694337 .3112793 .36116538 .3269857 .35302735 .34033204 .3448893 .35367839 .33406578 .36409507 .32055665 .37158204 .30704753 .379069 .29003907 .3828125 .26953126 .3828125 .2513021 .3828125 .23535156 .37947593 .22167969 .37280274 .20800781 .36612956 .19677735 .35636393 .18798828 .34350587 .17919922 .3306478 .17260742 .31518556 .16821289 .29711915 .16381836 .27905274 .1616211 .25846354 .1616211 .23535156 .1616211 .21386719 .16341146 .1940918 .16699219 .17602539 .17057292 .15795899 .1763509 .14225261 .18432617 .12890625 .19230144 .1155599 .203125 .10522461 .21679688 .09790039 .23046875 .09057617 .24739583 .08691406 .26757813 .08691406 .2861328 .08691406 .3022461 .09025065 .31591798 .09692383 .32958985 .10359701 .3408203 .11328125 .34960938 .12597656 .35839845 .13867188 .36490885 .15405274 .36914063 .17211914 .3733724 .19018555 .37548829 .21077474 .37548829 .23388672Z"/>
<path id="font_1_296" d="M.32421876 .61816409C.32421876 .60872396 .32389323 .6011556 .3232422 .595459 .32259117 .5897624 .3216146 .58536788 .3203125 .5822754 .3190104 .5791829 .31754557 .5770671 .31591798 .57592776 .31429038 .5747884 .3125 .57421877 .31054688 .57421877 .30826823 .57421877 .30574546 .5747884 .30297853 .57592776 .30021159 .5770671 .2967936 .5782878 .2927246 .57958987 .2886556 .5808919 .28385417 .5821126 .2783203 .58325198 .27278648 .5843913 .26627604 .58496096 .25878907 .58496096 .25 .58496096 .24243164 .58357748 .23608399 .58081057 .22973633 .57804366 .22444661 .5736491 .22021485 .56762698 .21598308 .5616048 .21289063 .5537923 .2109375 .54418948 .20898438 .5345866 .20800781 .52278646 .20800781 .50878909V.46875H.28759767C.29052735 .46875 .2932129 .4679362 .2956543 .4663086 .2980957 .464681 .30013023 .46199546 .3017578 .45825196 .3033854 .45450846 .3046061 .4493815 .30541993 .4428711 .30623374 .4363607 .30664063 .4283854 .30664063 .4189453 .30664063 .40104167 .30501304 .38826499 .3017578 .38061524 .2985026 .37296549 .29378257 .36914063 .28759767 .36914063H.20800781V.016601563C.20800781 .0133463549 .20703125 .010498047 .20507813 .008056641 .203125 .0056152346 .1998698 .0035807293 .1953125 .001953125 .1907552 .00032552085 .18440755-.0008951823 .17626953-.0017089844 .16813152-.0025227864 .15820313-.0029296876 .14648438-.0029296876 .13476563-.0029296876 .12491862-.0025227864 .11694336-.0017089844 .1089681-.0008951823 .102620448 .00032552085 .09790039 .001953125 .093180339 .0035807293 .08992513 .0056152346 .088134769 .008056641 .0863444 .010498047 .08544922 .0133463549 .08544922 .016601563V.36914063H.030761719C.024576823 .36914063 .01993815 .37296549 .016845704 .38061524 .013753255 .38826499 .012207031 .40104167 .012207031 .4189453 .012207031 .4283854 .012613933 .4363607 .013427734 .4428711 .014241536 .4493815 .015380859 .45450846 .016845704 .45825196 .018310547 .46199546 .020263672 .464681 .022705079 .4663086 .025146485 .4679362 .027994791 .46875 .03125 .46875H.08544922V.5053711C.08544922 .53499349 .088378909 .5609538 .09423828 .58325198 .100097659 .6055501 .10929362 .6241048 .12182617 .638916 .13435872 .65372726 .15030925 .6648763 .16967774 .6723633 .18904622 .6798503 .21191406 .68359377 .23828125 .68359377 .25097657 .68359377 .26302085 .6825358 .27441407 .6804199 .28580729 .678304 .29475913 .6760254 .30126954 .673584 .30777995 .6711426 .31217448 .66886398 .31445313 .66674807 .31673179 .66463217 .31860353 .66153976 .32006837 .6574707 .3215332 .6534017 .32259117 .64819338 .3232422 .6418457 .32389323 .63549807 .32421876 .6276042 .32421876 .61816409Z"/>
<path id="font_1_94" d="M.44335938 .18927002C.44335938 .15601604 .43717448 .12683614 .4248047 .10173035 .4124349 .07662455 .39567057 .05567932 .37451173 .038894655 .35335288 .022109986 .32861329 .009475708 .30029298 .0009918213 .27197267-.007481893 .24169922-.01171875 .20947266-.01171875 .18766277-.01171875 .1673991-.0099436449 .14868164-.0063934328 .12996419-.002843221 .11344401 .0014292399 .099121097 .00642395 .08479818 .011428833 .07283529 .01667277 .06323242 .022155762 .05362956 .027638754 .04671224 .03247579 .04248047 .03666687 .0382487 .040868123 .03523763 .046976728 .033447267 .054992677 .031656904 .06300863 .030761719 .074539188 .030761719 .08958435 .030761719 .09972636 .03108724 .10823059 .03173828 .115097049 .032389326 .1219635 .033447267 .12752278 .03491211 .1317749 .036376954 .13602703 .038330079 .13905335 .040771486 .14085388 .04321289 .14265442 .0460612 .14355469 .049316408 .14355469 .0538737 .14355469 .060302736 .14086914 .068603519 .13549805 .0769043 .13012696 .0875651 .124186199 .10058594 .11767578 .11360677 .11116537 .12915039 .10522461 .1472168 .099853519 .1652832 .09448242 .18619792 .091796878 .20996094 .091796878 .22558594 .091796878 .23958333 .093673709 .25195313 .09742737 .2643229 .1011912 .27482096 .10650126 .28344728 .113357547 .29207359 .12021383 .29866538 .1287028 .30322267 .13882447 .30777995 .1489563 .3100586 .16022747 .3100586 .17263794 .3100586 .1869812 .30615235 .19928487 .29833985 .20954895 .29052735 .2198232 .28035484 .22895305 .26782228 .23693848 .2552897 .2449239 .24104817 .25242106 .22509766 .25942994 .20914714 .26644898 .19270833 .27386985 .17578125 .2816925 .15885417 .28951518 .14241536 .29839579 .12646485 .30833436 .11051432 .31828309 .09627279 .33018495 .083740238 .34403993 .07120768 .3578949 .061035158 .37427268 .053222658 .39317323 .045410158 .41208396 .041503908 .43474327 .041503908 .46115113 .041503908 .49147544 .04711914 .51812747 .05834961 .5411072 .06958008 .5640869 .0847168 .58315536 .103759769 .5983124 .122802738 .6134796 .14526367 .6248118 .17114258 .63230898 .19702149 .6398061 .22444661 .6435547 .25341798 .6435547 .26839195 .6435547 .28336589 .64241537 .29833985 .6401367 .3133138 .6378581 .3273112 .6347656 .34033204 .6308594 .35335288 .6269531 .36490885 .6225586 .375 .6176758 .38509117 .61279299 .3917643 .60872396 .39501954 .60546877 .39827476 .60221359 .40047203 .5994415 .40161134 .5971527 .40275065 .5948639 .4037272 .5918376 .40454103 .58807376 .40535484 .5843099 .40592448 .5795644 .40625 .5738373 .40657554 .5681203 .40673829 .5610097 .40673829 .5525055 .40673829 .5430145 .40649415 .5349986 .40600587 .52845767 .40551759 .5219167 .40470378 .5165202 .40356446 .51226809 .40242515 .50801596 .40079753 .50490829 .39868165 .50294497 .39656578 .5009816 .39371745 .5 .39013673 .5 .386556 .5 .38085938 .5022786 .37304688 .50683596 .36523438 .51139327 .3556315 .5163574 .34423829 .5217285 .33284507 .5270996 .31966148 .5319824 .3046875 .53637698 .28971354 .5407715 .27327476 .54296877 .2553711 .54296877 .2413737 .54296877 .22916667 .54126486 .21875 .53785708 .20833333 .5344493 .19962566 .52974447 .19262696 .5237427 .18562825 .51775106 .18041992 .51053878 .17700196 .5021057 .17358399 .4936727 .171875 .48475138 .171875 .4753418 .171875 .46132408 .17569988 .44917808 .18334961 .4389038 .19099935 .42863975 .20125325 .41951499 .21411133 .41152955 .2269694 .4035441 .24153646 .39604188 .2578125 .38902284 .27408854 .38201396 .2906901 .37459819 .3076172 .3667755 .32454429 .35895286 .34114585 .35006715 .35742188 .3401184 .3736979 .33017985 .3881836 .31828309 .4008789 .3044281 .41357423 .29057313 .42382813 .27427165 .43164063 .25552369 .43945313 .23678589 .44335938 .21470134 .44335938 .18927002Z"/>
<path id="font_1_286" d="M.4638672 .2471466C.4638672 .23214214 .4605306 .22105408 .45385743 .21388245 .44718424 .20671082 .43798829 .203125 .42626954 .203125H.16113281C.16113281 .1844991 .16333008 .16758728 .16772461 .15238953 .17211914 .13719177 .17911785 .12427775 .1887207 .11364746 .19832357 .103027347 .21069336 .094940189 .22583008 .08938599 .2409668 .08383179 .2591146 .08105469 .28027345 .08105469 .3017578 .08105469 .32063804 .08262634 .33691407 .08576965 .3531901 .088912967 .3672689 .09238688 .3791504 .096191409 .3910319 .09999593 .4008789 .10346985 .4086914 .10661316 .4165039 .10975647 .42285157 .111328128 .42773438 .111328128 .43066407 .111328128 .43310548 .11075338 .4350586 .10960388 .43701173 .10846456 .4386393 .10641988 .4399414 .10346985 .4412435 .10052999 .44213868 .09635925 .44262696 .09095764 .44311524 .08555603 .44335938 .07876587 .44335938 .07058716 .44335938 .06338501 .44319663 .05724589 .4428711 .0521698 .44254557 .04710388 .44205729 .042770387 .44140626 .03916931 .44075523 .035568239 .43977867 .032536825 .43847657 .030075074 .43717448 .027623496 .43546549 .025253296 .4333496 .022964478 .43123374 .02067566 .42545573 .017578125 .41601563 .013671875 .40657554 .009765625 .39453126 .0059407555 .3798828 .0021972657 .36523438-.001546224 .34847007-.004801432 .32958985-.0075683596 .31070964-.010335286 .29052735-.01171875 .26904298-.01171875 .23030599-.01171875 .19637044-.006825765 .16723633 .002960205 .13810222 .012746175 .11376953 .02758789 .09423828 .04748535 .07470703 .06738281 .060139974 .09249369 .05053711 .12281799 .040934247 .15315247 .036132814 .18870545 .036132814 .22947693 .036132814 .2682953 .041178388 .3032786 .05126953 .33442689 .061360677 .36557517 .07600912 .3919932 .095214847 .41368104 .11442057 .43537904 .13777669 .4519348 .1652832 .4633484 .19278972 .47476197 .22379558 .48046876 .25830079 .48046876 .29475913 .48046876 .32592774 .4750875 .35180665 .46432496 .37768556 .4535624 .39892579 .4386444 .41552735 .41957093 .4321289 .40049745 .44433595 .37791444 .45214845 .3518219 .45996095 .32573954 .4638672 .29736839 .4638672 .26670838V.2471466M.34472657 .28222657C.34570313 .31688438 .3387858 .34410096 .3239746 .36387635 .30916343 .3836619 .28629557 .3935547 .2553711 .3935547 .2397461 .3935547 .2261556 .39060975 .21459961 .38471986 .20304363 .37884013 .19344075 .37091065 .18579102 .3609314 .17814128 .3509623 .1722819 .33919273 .16821289 .32562257 .16414388 .3120626 .16178386 .29759727 .16113281 .28222657H.34472657Z"/>
<path id="font_1_272" d="M.39111329 .0859375C.39111329 .07747396 .39086915 .07039388 .39038087 .064697269 .38989259 .059000654 .38924156 .05419922 .38842774 .05029297 .38761393 .04638672 .38663737 .04321289 .38549806 .040771486 .38435874 .038330079 .38183595 .03523763 .3779297 .03149414 .37402345 .02775065 .36735026 .02319336 .35791017 .017822266 .34847007 .012451172 .33772788 .0076497399 .3256836 .0034179688 .3136393-.00081380209 .3005371-.004231771 .28637696-.0068359377 .2722168-.0094401049 .25764976-.0107421879 .24267578-.0107421879 .20914714-.0107421879 .17944336-.005533854 .15356446 .0048828127 .12768555 .0152994799 .10595703 .030680338 .088378909 .05102539 .07080078 .071370448 .05753581 .096191409 .048583986 .12548828 .03963216 .15478516 .03515625 .1883138 .03515625 .22607422 .03515625 .269694 .040608724 .30737306 .051513673 .33911134 .06241862 .3708496 .07763672 .3971354 .09716797 .41796876 .11669922 .4388021 .1398112 .4542643 .1665039 .46435548 .19319661 .47444663 .22249349 .4794922 .25439454 .4794922 .26741538 .4794922 .28019206 .47835288 .2927246 .47607423 .30525718 .47379557 .31697593 .47070313 .32788087 .46679688 .3387858 .46289063 .34855143 .4584961 .35717774 .45361329 .36580406 .44873048 .37190757 .4444987 .37548829 .44091798 .379069 .43733726 .3815918 .43432618 .38305665 .43188478 .38452149 .42944337 .3856608 .42626954 .3864746 .42236329 .38728843 .41845704 .38793946 .4136556 .38842774 .40795899 .38891603 .40226237 .38916017 .39534507 .38916017 .38720704 .38916017 .3683268 .38753257 .35506187 .38427735 .3474121 .38102214 .33976237 .37679038 .3359375 .37158204 .3359375 .3660482 .3359375 .3601888 .33821617 .3540039 .34277345 .347819 .34733073 .34049479 .3523763 .33203126 .35791017 .32356773 .363444 .31347657 .3684896 .3017578 .37304688 .29003907 .37760417 .27604167 .3798828 .25976563 .3798828 .22786458 .3798828 .20345052 .3675944 .18652344 .34301759 .16959636 .31844078 .16113281 .2823893 .16113281 .23486328 .16113281 .21142578 .1632487 .1907552 .16748047 .17285156 .17171224 .15494792 .17797852 .13997396 .1862793 .12792969 .19458008 .115885417 .20499675 .10685221 .2175293 .10083008 .23006185 .094807948 .2446289 .091796878 .26123048 .091796878 .27815757 .091796878 .2927246 .094319667 .30493165 .099365238 .31713868 .104410808 .32779948 .11002604 .33691407 .11621094 .34602867 .122395839 .35367839 .12801107 .35986329 .13305664 .3660482 .13810222 .3712565 .140625 .37548829 .140625 .37841798 .140625 .38085938 .1398112 .3828125 .1381836 .38476563 .13655599 .38631187 .13354492 .38745118 .12915039 .38859049 .12475586 .3894857 .119140628 .39013673 .11230469 .39078776 .10546875 .39111329 .09667969 .39111329 .0859375Z"/>
<path id="font_1_410" d="M.31933595 .059906007C.31933595 .045511884 .31844078 .034469606 .3166504 .026779175 .31486003 .019098917 .3125 .013702393 .3095703 .0105896 .30664063 .007486979 .30232749 .0047098796 .29663087 .0022583008 .29093424-.000193278 .28426109-.002319336 .27661134-.004119873 .26896159-.00592041 .2606608-.00730896 .25170899-.008285522 .24275716-.009272258 .23372396-.009765625 .22460938-.009765625 .20019531-.009765625 .17903646-.0066731774 .16113281-.00048828127 .14322917 .0056966149 .12841797 .015218099 .11669922 .028076172 .10498047 .040934247 .096354167 .057128908 .09082031 .076660159 .08528646 .096191409 .08251953 .11930338 .08251953 .1459961V.36914063H.030273438C.024088541 .36914063 .01936849 .37296549 .016113282 .38061524 .012858073 .38826499 .011230469 .40104167 .011230469 .4189453 .011230469 .4283854 .01163737 .4363607 .012451172 .4428711 .013264974 .4493815 .014485677 .45450846 .016113282 .45825196 .017740885 .46199546 .01977539 .464681 .022216797 .4663086 .024658204 .4679362 .02750651 .46875 .030761719 .46875H.08251953V.5663147C.08251953 .5695903 .08341471 .5725352 .08520508 .57514956 .086995448 .57776388 .09025065 .57996627 .0949707 .5817566 .09969076 .5835571 .106038417 .5848643 .11401367 .5856781 .12198893 .5865021 .13183594 .58691409 .14355469 .58691409 .15559896 .58691409 .16560872 .5865021 .17358399 .5856781 .18155925 .5848643 .18782552 .5835571 .19238281 .5817566 .19694011 .57996627 .20019531 .57776388 .20214844 .57514956 .20410156 .5725352 .20507813 .5695903 .20507813 .5663147V.46875H.2998047C.3030599 .46875 .3059082 .4679362 .3083496 .4663086 .31079103 .464681 .31282554 .46199546 .31445313 .45825196 .31608073 .45450846 .31730143 .4493815 .31811524 .4428711 .31892906 .4363607 .31933595 .4283854 .31933595 .4189453 .31933595 .40104167 .31770835 .38826499 .31445313 .38061524 .3111979 .37296549 .30647788 .36914063 .30029298 .36914063H.20507813V.16491699C.20507813 .14119466 .20882161 .123402919 .2163086 .11154175 .22379558 .09968058 .23714192 .09375 .25634767 .09375 .26285807 .09375 .26871745 .094319667 .27392579 .095458988 .27913413 .096598308 .2837728 .09790039 .2878418 .099365238 .2919108 .10083008 .29532878 .102132167 .2980957 .103271488 .30086265 .104410808 .3033854 .10498047 .30566407 .10498047 .3076172 .10498047 .30948893 .104410808 .3112793 .103271488 .31306968 .102132167 .31445313 .09984843 .3154297 .09642029 .31640626 .09300232 .31730143 .08834839 .31811524 .082458499 .31892906 .07657877 .31933595 .06906128 .31933595 .059906007Z"/>
<path id="font_1_349" d="M.18457031 .016601563C.18457031 .0133463549 .18359375 .010498047 .18164063 .008056641 .1796875 .0056152346 .1763509 .0035807293 .17163086 .001953125 .16691081 .00032552085 .16064453-.0008951823 .15283203-.0017089844 .14501953-.0025227864 .13509114-.0029296876 .123046878-.0029296876 .1110026-.0029296876 .10107422-.0025227864 .09326172-.0017089844 .08544922-.0008951823 .079182948 .00032552085 .07446289 .001953125 .069742839 .0035807293 .06640625 .0056152346 .064453128 .008056641 .0625 .010498047 .061523439 .0133463549 .061523439 .016601563V.45117188C.061523439 .4544271 .0625 .4572754 .064453128 .4597168 .06640625 .4621582 .069742839 .46427409 .07446289 .46606446 .079182948 .46785484 .08544922 .46923829 .09326172 .47021485 .10107422 .4711914 .1110026 .4716797 .123046878 .4716797 .13509114 .4716797 .14501953 .4711914 .15283203 .47021485 .16064453 .46923829 .16691081 .46785484 .17163086 .46606446 .1763509 .46427409 .1796875 .4621582 .18164063 .4597168 .18359375 .4572754 .18457031 .4544271 .18457031 .45117188V.016601563M.19384766 .5996094C.19384766 .5748698 .18880208 .55777999 .17871094 .54833987 .1686198 .5388997 .14990235 .5341797 .122558597 .5341797 .09488932 .5341797 .07625326 .538737 .06665039 .54785159 .057047529 .5569661 .052246095 .57340499 .052246095 .59716799 .052246095 .62190756 .057210287 .6390788 .06713867 .64868167 .077067058 .6582845 .09586588 .66308596 .123535159 .66308596 .1508789 .66308596 .1694336 .65844729 .17919922 .6491699 .18896485 .6398926 .19384766 .6233724 .19384766 .5996094Z"/>
<path id="font_1_1006" d="M.46679688 .052490236C.46679688 .04300944 .46638999 .034917196 .46557618 .028213501 .46476237 .021509806 .46354167 .0160319 .46191407 .011779785 .46028648 .0075276696 .45817057 .004501343 .4555664 .0027008057 .45296226 .00090026858 .45003257 0 .44677735 0H.083496097C.07633463 0 .07014974 .0006510417 .064941409 .001953125 .059733076 .0032653809 .0555013 .00579834 .052246095 .009552002 .048990888 .013315837 .04663086 .018788657 .045166017 .025970459 .043701173 .033152265 .04296875 .042460126 .04296875 .053894044 .04296875 .06467692 .04345703 .073903407 .044433595 .08157349 .045410158 .089253749 .04720052 .09611511 .049804689 .10215759 .052408857 .10821024 .05574544 .114095058 .059814454 .11981201 .06388346 .12552898 .06917318 .1318156 .075683597 .13867188L.1850586 .255661C.20686849 .27845765 .22444661 .2992147 .23779297 .31793214 .2511393 .33664958 .261556 .3537394 .26904298 .36920167 .27652995 .38467408 .2816569 .39892069 .28442384 .41194154 .28719078 .42497254 .28857423 .4373474 .28857423 .44906617 .28857423 .45975749 .28686524 .46988426 .28344728 .4794464 .2800293 .48900859 .27498374 .49735514 .26831056 .5044861 .26163737 .511617 .25325523 .51720687 .24316406 .5212555 .23307292 .52531436 .2211914 .52734377 .20751953 .52734377 .1883138 .52734377 .17130535 .52490237 .15649414 .52001956 .14168294 .5151367 .12866211 .50968429 .11743164 .5036621 .10620117 .49763999 .096842449 .4921061 .08935547 .48706056 .08186849 .48201499 .07600912 .4794922 .071777347 .4794922 .068847659 .4794922 .06632487 .48047386 .064208988 .48243714 .062093099 .48440043 .060384115 .4876658 .05908203 .49223329 .05777995 .4968109 .056722005 .5029399 .055908204 .5106201 .055094404 .51831057 .0546875 .52770999 .0546875 .53881838 .0546875 .5463359 .05493164 .55262759 .055419923 .5576935 .055908204 .5627594 .056640626 .56717428 .057617189 .5709381 .05859375 .57470199 .059895833 .5779724 .061523439 .5807495 .06315104 .5835266 .06599935 .58687338 .07006836 .5907898 .07413737 .59471639 .08162435 .59969076 .0925293 .6057129 .10343424 .61173507 .11686198 .6175944 .1328125 .623291 .14876302 .6289876 .16634114 .63378909 .18554688 .6376953 .20475261 .64160159 .22477214 .6435547 .24560547 .6435547 .27848307 .6435547 .3072103 .63939926 .3317871 .63108828 .35636393 .6227875 .37679038 .6112264 .3930664 .596405 .40934245 .5815837 .4214681 .5639903 .42944337 .5436249 .4374186 .52326968 .44140626 .5013631 .44140626 .47790528 .44140626 .45739747 .43945313 .43721519 .43554688 .4173584 .43164063 .3975118 .4235026 .3761139 .4111328 .35316468 .39876304 .33021546 .38134767 .30482484 .35888673 .2769928 .33642579 .24917095 .30664063 .21686809 .26953126 .18008423L.19580078 .10449219H.44482423C.44807945 .10449219 .45109049 .103510539 .45385743 .10154724 .45662437 .099583949 .45898438 .09655762 .4609375 .09246826 .46289063 .088378909 .46435548 .08298238 .46533204 .07627869 .4663086 .06957499 .46679688 .061645509 .46679688 .052490236Z"/>
<path id="font_1_853" d="M.20605469 .09024048C.20605469 .0771993 .20540364 .06537882 .20410156 .054779054 .20279949 .04417928 .2006836 .03414917 .1977539 .02468872 .19482422 .015238444 .19108074 .006032308 .18652344-.0029296876 .18196614-.0119018559 .17626953-.021113078 .1694336-.030563355L.104003909-.1244812C.10172526-.12774658 .09920248-.1305186 .09643555-.13279724 .09366862-.13507588 .09033203-.13686626 .08642578-.13816834 .08251953-.13948059 .07779948-.14054363 .072265628-.14135742 .06673177-.14217122 .059733076-.14257813 .05126953-.14257813 .041829427-.14257813 .034179689-.14217122 .028320313-.14135742 .022460938-.14054363 .018229166-.13931783 .015625-.13768006 .013020833-.13605245 .01163737-.13393148 .011474609-.13131714 .011311849-.12871297 .0120442709-.12562053 .013671875-.122039798L.07324219 .012969971V.09024048C.07324219 .10132853 .07454427 .110295619 .07714844 .11714172 .0797526 .12398783 .08382162 .12920635 .08935547 .13279724 .09488932 .13638814 .10188802 .13875325 .11035156 .13989258 .1188151 .1410319 .12906902 .14160156 .14111328 .14160156 .15250652 .14160156 .16227214 .1410319 .17041016 .13989258 .17854817 .13875325 .18530274 .13638814 .19067383 .13279724 .19604492 .12920635 .19995117 .12398783 .20239258 .11714172 .20483399 .110295619 .20605469 .10132853 .20605469 .09024048Z"/>
<path id="font_1_87" d="M.50146487 .4401703C.50146487 .40472923 .495931 .37335206 .48486329 .34603883 .47379557 .3187256 .45768229 .29572044 .43652345 .27702333 .4153646 .2583364 .3894043 .24411519 .35864259 .23435974 .32788087 .2246043 .29166667 .21972656 .25 .21972656H.19726563V.017623902C.19726563 .0143585209 .19620769 .01141866 .1940918 .008804321 .1919759 .006200155 .18847656 .004079183 .18359375 .0024414063 .17871094 .00081380209 .17220052-.00048828127 .1640625-.0014648438 .15592449-.0024414063 .14550781-.0029296876 .1328125-.0029296876 .12044271-.0029296876 .11010742-.0024414063 .10180664-.0014648438 .09350586-.00048828127 .08691406 .00081380209 .08203125 .0024414063 .07714844 .0040690104 .07373047 .006184896 .071777347 .0087890629 .06982422 .0113932299 .068847659 .014322917 .068847659 .017578125V.5859375C.068847659 .601237 .07283529 .6127116 .08081055 .6203613 .088785808 .62801107 .09928385 .63183596 .11230469 .63183596H.26123048C.27620445 .63183596 .29044596 .6312663 .30395509 .63012698 .3174642 .6289876 .33365885 .6265462 .35253907 .62280276 .37141929 .6190694 .3905436 .6121623 .4099121 .6020813 .4292806 .5920003 .44580079 .5792389 .45947267 .563797 .47314454 .5483551 .4835612 .530309 .49072267 .5096588 .49788413 .48901878 .50146487 .46585594 .50146487 .4401703M.3671875 .4308777C.3671875 .4528605 .36328126 .47096253 .35546876 .48518373 .34765626 .49941508 .33805339 .5099233 .32666017 .5167084 .31526695 .52349349 .30330406 .52777609 .29077149 .5295563 .27823893 .5313365 .26529948 .53222659 .25195313 .53222659H.19726563V.31933595H.2548828C.27539063 .31933595 .29256187 .32208253 .30639649 .32757569 .3202311 .333079 .33154298 .34075929 .34033204 .35061646 .3491211 .36047364 .35579429 .37227378 .36035157 .38601686 .36490885 .39975993 .3671875 .41471354 .3671875 .4308777Z"/>
<path id="font_1_258" d="M.4326172 .015151978C.4326172 .010594686 .4309896 .0070088708 .42773438 .0043945314 .42447917 .0017903646 .4193522-.00008138021 .41235353-.0012207031 .40535484-.0023600262 .39501954-.0029296876 .38134767-.0029296876 .36669923-.0029296876 .35603843-.0023600262 .34936524-.0012207031 .34269206-.00008138021 .33797203 .0017903646 .33520509 .0043945314 .33243815 .0069986979 .3310547 .010579427 .3310547 .015136719V.049804689C.31315104 .030598959 .2927246 .01554362 .2697754 .004638672 .24682617-.006266276 .22135417-.01171875 .19335938-.01171875 .17024739-.01171875 .14900716-.00869751 .12963867-.0026550294 .11027018 .0033874512 .09350586 .012369792 .0793457 .024291993 .06518555 .03621419 .05419922 .050989789 .04638672 .068618778 .03857422 .086257938 .03466797 .10683695 .03466797 .13035584 .03466797 .15583802 .03963216 .17796834 .049560548 .19674683 .059488935 .21552532 .07430013 .2310384 .09399414 .24328614 .11368815 .25553385 .1381836 .26459757 .16748047 .2704773 .19677735 .27635703 .23079427 .27929688 .26953126 .27929688H.31201173V.305542C.31201173 .31915284 .31062828 .33105979 .30786134 .34126283 .3050944 .35147605 .3005371 .35998536 .29418946 .36679078 .2878418 .3735962 .27937828 .37861634 .26879884 .3818512 .2582194 .38509623 .24511719 .38671876 .22949219 .38671876 .20898438 .38671876 .19067383 .3844401 .17456055 .3798828 .15844727 .37532554 .14420574 .37027995 .13183594 .3647461 .11946615 .35921226 .10913086 .35416667 .10083008 .34960938 .0925293 .3450521 .08577474 .34277345 .080566409 .34277345 .07698568 .34277345 .07381185 .34391786 .07104492 .34620667 .06827799 .34849549 .06599935 .35176597 .064208988 .35601808 .06241862 .36027018 .061035158 .36550395 .060058595 .37171937 .05908203 .37794496 .05859375 .3848165 .05859375 .39233399 .05859375 .40247599 .05940755 .41049195 .061035158 .41638185 .06266276 .42227174 .06575521 .42758689 .0703125 .43232728 .07486979 .43707786 .082845058 .44230143 .09423828 .44799806 .10563151 .45369468 .11897787 .45898438 .13427735 .4638672 .14957683 .46875 .16625977 .47273765 .18432617 .47583009 .20239258 .47892253 .22102864 .48046876 .24023438 .48046876 .27441407 .48046876 .30362956 .47712709 .32788087 .47044374 .35213218 .46377055 .3720703 .45350648 .3876953 .4396515 .4033203 .42580668 .41471354 .40796916 .421875 .38613893 .42903648 .36430869 .4326172 .33840434 .4326172 .3084259V.015151978M.31201173 .20214844H.26513673C.24527996 .20214844 .22835286 .20067342 .21435547 .19772339 .20035808 .19477336 .18896485 .19034322 .18017578 .18443299 .17138672 .17853292 .16495769 .1713969 .16088867 .1630249 .15681966 .15466309 .15478516 .14507039 .15478516 .13424683 .15478516 .115875247 .16056316 .10144043 .17211914 .09094238 .18367513 .080444339 .19970703 .07519531 .22021485 .07519531 .23746746 .07519531 .25333659 .07962036 .26782228 .08847046 .28230796 .09733073 .29703776 .11029053 .31201173 .12734986V.20214844Z"/>
<path id="font_1_396" d="M.3413086 .41210938C.3413086 .40039063 .34098307 .39078776 .34033204 .38330079 .339681 .3758138 .33870445 .36995445 .33740235 .36572267 .33610026 .36149089 .33439128 .3585612 .3322754 .3569336 .33015953 .355306 .32747398 .3544922 .32421876 .3544922 .3216146 .3544922 .3186849 .35506187 .3154297 .35620118 .31217448 .35734049 .30851237 .3585612 .30444337 .35986329 .30037437 .36116538 .29589845 .36238609 .29101563 .3635254 .2861328 .3646647 .28076173 .36523438 .27490235 .36523438 .2680664 .36523438 .26123048 .36384074 .25439454 .36105348 .2475586 .35827638 .24047852 .35393778 .2331543 .34803773 .22583008 .34213767 .21818035 .3342743 .21020508 .32444764 .20222982 .31462098 .19368489 .3025004 .18457031 .28808595V.016601563C.18457031 .0133463549 .18359375 .010498047 .18164063 .008056641 .1796875 .0056152346 .1763509 .0035807293 .17163086 .001953125 .16691081 .00032552085 .16064453-.0008951823 .15283203-.0017089844 .14501953-.0025227864 .13509114-.0029296876 .123046878-.0029296876 .1110026-.0029296876 .10107422-.0025227864 .09326172-.0017089844 .08544922-.0008951823 .079182948 .00032552085 .07446289 .001953125 .069742839 .0035807293 .06640625 .0056152346 .064453128 .008056641 .0625 .010498047 .061523439 .0133463549 .061523439 .016601563V.45214845C.061523439 .45540367 .06233724 .45825196 .063964847 .46069337 .065592449 .46313478 .06852213 .46516929 .072753909 .46679688 .07698568 .46842448 .08243815 .46964518 .08911133 .47045899 .09578451 .4712728 .104166667 .4716797 .11425781 .4716797 .12467448 .4716797 .13330078 .4712728 .14013672 .47045899 .14697266 .46964518 .15226238 .46842448 .15600586 .46679688 .15974935 .46516929 .16243489 .46313478 .1640625 .46069337 .16569011 .45825196 .1665039 .45540367 .1665039 .45214845V.39794923C.17789714 .414327 .18863933 .4278361 .19873047 .43847657 .20882161 .44911704 .21842449 .45754496 .22753906 .46376039 .23665364 .46998597 .24576824 .47432456 .2548828 .47677613 .2639974 .47923789 .27311198 .48046876 .28222657 .48046876 .28645835 .48046876 .29101563 .4802246 .29589845 .47973634 .30078126 .47924806 .3058268 .47843424 .31103517 .47729493 .3162435 .4761556 .32080079 .47485353 .32470704 .47338868 .32861329 .47192384 .33146159 .4703776 .33325196 .46875 .33504234 .4671224 .3363444 .46533204 .3371582 .4633789 .33797203 .46142579 .33870445 .45874024 .33935548 .45532228 .3400065 .4519043 .34049479 .44677735 .3408203 .4399414 .34114585 .43310548 .3413086 .42382813 .3413086 .41210938Z"/>
<path id="font_1_4" d="M.5864258 .047851564C.59033206 .036132814 .59277346 .026855469 .59375 .020019532 .59472659 .013183594 .5934245 .008056641 .58984377 .004638672 .586263 .0012207031 .57991537-.0008951823 .5708008-.0017089844 .5616862-.0025227864 .5491536-.0029296876 .5332031-.0029296876 .51660159-.0029296876 .5036621-.0026855469 .49438478-.0021972657 .48510743-.0017089844 .47802735-.0007324219 .47314454 .0007324219 .46826173 .0021972657 .46484376 .004231771 .46289063 .0068359377 .4609375 .0094401049 .4593099 .012858073 .4580078 .017089844L.41552735 .14453125H.17822266L.1381836 .020507813C.13688152 .015950522 .13517253 .012125651 .13305664 .009033203 .13094075 .0059407555 .12752278 .0034993489 .122802738 .0017089844 .11808268-.00008138021 .11140951-.0013020834 .1027832-.001953125 .0941569-.0026041668 .082845058-.0029296876 .068847659-.0029296876 .0538737-.0029296876 .04215495-.0024414063 .033691408-.0014648438 .025227866-.00048828127 .01936849 .0018717448 .016113282 .0056152346 .012858073 .009358724 .01171875 .0146484379 .0126953129 .021484375 .013671875 .028320313 .016113282 .037434896 .020019532 .048828126L.21484375 .609375C.21679688 .6149089 .21907552 .61938479 .22167969 .62280276 .22428386 .6262207 .22843425 .6288249 .23413086 .63061526 .23982747 .6324056 .24772136 .6335449 .2578125 .6340332 .26790367 .6345215 .28125 .6347656 .29785157 .6347656 .31705729 .6347656 .33235679 .6345215 .34375 .6340332 .35514323 .6335449 .36401368 .6324056 .37036134 .63061526 .37670899 .6288249 .38126628 .62613937 .3840332 .6225586 .38680015 .61897787 .38916017 .61409506 .39111329 .60791018L.5864258 .047851564M.29638673 .51168826H.29589845L.20654297 .24316406H.3857422L.29638673 .51168826Z"/>
<path id="font_1_47" d="M.1977539 .017578125C.1977539 .014322917 .19669597 .0113932299 .19458008 .0087890629 .19246419 .006184896 .18896485 .0040690104 .18408203 .0024414063 .17919922 .00081380209 .1726888-.00048828127 .16455078-.0014648438 .15641277-.0024414063 .1459961-.0029296876 .13330078-.0029296876 .12093099-.0029296876 .1105957-.0024414063 .10229492-.0014648438 .09399414-.00048828127 .087402347 .00081380209 .08251953 .0024414063 .07763672 .0040690104 .07413737 .006184896 .072021488 .0087890629 .0699056 .0113932299 .068847659 .014322917 .068847659 .017578125V.6142578C.068847659 .617513 .0699056 .6204427 .072021488 .6230469 .07413737 .62565109 .0777181 .6277669 .08276367 .62939456 .08780924 .63102218 .09440104 .6323242 .10253906 .6333008 .110677089 .63427737 .12093099 .6347656 .13330078 .6347656 .1459961 .6347656 .15641277 .63427737 .16455078 .6333008 .1726888 .6323242 .17919922 .63102218 .18408203 .62939456 .18896485 .6277669 .19246419 .62565109 .19458008 .6230469 .19669597 .6204427 .1977539 .617513 .1977539 .6142578V.017578125Z"/>
<path id="font_1_455" d="M.31396485 0 .26123048-.15472412C.25830079-.16288249 .25032554-.16875713 .23730469-.17234802 .22428386-.17593892 .20524089-.17773438 .18017578-.17773438 .16715496-.17773438 .15673828-.17715962 .14892578-.17601013 .14111328-.1748708 .1352539-.17299398 .13134766-.17037964 .1274414-.16777547 .12532552-.16451518 .125-.16059876 .12467448-.15668233 .12565105-.15194702 .12792969-.14639282L.18603516 0C.18180339 .001953125 .17797852 .004964193 .17456055 .009033203 .17114258 .013102214 .1686198 .017415366 .16699219 .021972657L.017089844 .42236329C.012858073 .4337565 .0107421879 .4424642 .0107421879 .44848634 .0107421879 .45450846 .0126953129 .45922853 .016601563 .46264649 .020507813 .46606446 .02709961 .46842448 .036376954 .46972657 .045654298 .47102867 .057942708 .4716797 .07324219 .4716797 .087239589 .4716797 .09830729 .47143556 .10644531 .47094728 .114583339 .47045899 .12093099 .46923829 .12548828 .46728517 .13004558 .46533204 .13346355 .46232096 .13574219 .45825196 .13802083 .45418296 .14029949 .44840495 .14257813 .44091798L.24511719 .14941406H.24658203L.34033204 .44677735C.34228517 .45524089 .34480796 .4608561 .3479004 .46362306 .35099284 .46638999 .35611979 .46842448 .36328126 .46972657 .37044273 .47102867 .38297526 .4716797 .4008789 .4716797 .4148763 .4716797 .42651368 .47102867 .43579103 .46972657 .44506837 .46842448 .4519043 .46598307 .45629884 .46240235 .46069337 .45882163 .46289063 .45402018 .46289063 .44799806 .46289063 .44197593 .46158854 .43489585 .45898438 .4267578L.31396485 0Z"/>
<path id="font_1_437" d="M.47460938 .016601563C.47460938 .0133463549 .47379557 .010498047 .47216798 .008056641 .47054038 .0056152346 .46769206 .0035807293 .46362306 .001953125 .45955406 .00032552085 .45418296-.0008951823 .44750978-.0017089844 .44083659-.0025227864 .43245445-.0029296876 .42236329-.0029296876 .4116211-.0029296876 .40291343-.0025227864 .39624024-.0017089844 .38956706-.0008951823 .38427735 .00032552085 .3803711 .001953125 .37646485 .0035807293 .3736979 .0056152346 .3720703 .008056641 .37044273 .010498047 .3696289 .0133463549 .3696289 .016601563V.06689453C.34554038 .040690107 .32104493 .021036784 .29614259 .00793457 .27124024-.005167643 .2454427-.01171875 .21875-.01171875 .18880208-.01171875 .1636556-.006830851 .14331055 .0029449464 .12296549 .012720744 .106526698 .02607727 .09399414 .043014528 .081461589 .059961957 .072509769 .07959493 .06713867 .10191345 .061767579 .12424215 .05908203 .15202332 .05908203 .18525696V.45213319C.05908203 .4553884 .059977216 .4582367 .061767579 .4606781 .063557948 .46312968 .06681315 .46516929 .0715332 .46679688 .07625326 .46842448 .082600917 .46964518 .09057617 .47045899 .09855143 .4712728 .10839844 .4716797 .12011719 .4716797 .13216146 .4716797 .14208985 .4712728 .14990235 .47045899 .15771485 .46964518 .16398113 .46842448 .16870117 .46679688 .17342122 .46516929 .17675781 .46313478 .17871094 .46069337 .18066406 .45825196 .18164063 .45540367 .18164063 .45214845V.20605469C.18164063 .18326824 .18310547 .16585286 .18603516 .1538086 .18896485 .14176433 .19344075 .13142903 .19946289 .122802738 .20548503 .11417643 .21313477 .10750326 .22241211 .1027832 .23168946 .09806315 .24251302 .095703128 .2548828 .095703128 .2705078 .095703128 .2862142 .10139974 .30200196 .11279297 .3177897 .124186199 .3346354 .14078777 .35253907 .16259766V.45214845C.35253907 .45540367 .35343424 .45825196 .3552246 .46069337 .35701499 .46313478 .36027018 .46516929 .36499024 .46679688 .3697103 .46842448 .37597657 .46964518 .38378907 .47045899 .39160157 .4712728 .40152995 .4716797 .41357423 .4716797 .4256185 .4716797 .43554688 .4712728 .44335938 .47045899 .45117188 .46964518 .45735679 .46842448 .46191407 .46679688 .46647135 .46516929 .46972657 .46313478 .4716797 .46069337 .4736328 .45825196 .47460938 .45540367 .47460938 .45214845V.016601563Z"/>
<path id="font_1_400" d="M.36816407 .13946533C.36816407 .11467489 .3635254 .092819217 .35424806 .073898319 .3449707 .05498759 .3318685 .03916931 .3149414 .026443482 .2980143 .013727824 .27799479 .0041910808 .2548828-.002166748 .23177083-.008534749 .20670574-.01171875 .1796875-.01171875 .16341146-.01171875 .14786785-.010482788 .13305664-.008010864 .118245448-.0055389406 .10498047-.0024108887 .09326172 .001373291 .08154297 .005167643 .071777347 .009038289 .063964847 .0129852299 .056152345 .016942343 .05045573 .020650229 .046875 .024108887 .04329427 .027567545 .040527345 .03297933 .03857422 .04034424 .036621095 .04770915 .03564453 .05859375 .03564453 .07299805 .03564453 .08248901 .03597005 .09009806 .036621095 .095825199 .037272138 .10155233 .0382487 .10613505 .03955078 .109573367 .040852865 .11301168 .04248047 .1153005 .044433595 .11643982 .04638672 .11758932 .048828126 .11816406 .051757814 .11816406 .055338544 .11816406 .060628255 .116104129 .06762695 .11198425 .07462565 .10786438 .083333339 .10333252 .09375 .09838867 .104166667 .093444827 .11629232 .08883158 .13012696 .08454895 .1439616 .08026632 .15966797 .078125 .1772461 .078125 .1883138 .078125 .19816081 .07925924 .20678711 .08152771 .2154134 .08379618 .22290039 .08703613 .22924805 .09124756 .2355957 .095469158 .24039714 .10081991 .24365235 .107299808 .24690755 .1137797 .24853516 .12123617 .24853516 .12966919 .24853516 .13945516 .2455241 .14785259 .23950196 .15486145 .23347982 .1618805 .22550456 .16799927 .21557617 .17321778 .20564778 .17843628 .19441732 .18332927 .18188477 .18789673 .16935222 .19246419 .15649414 .19751995 .14331055 .20306397 .13012696 .20860799 .11726888 .21496582 .10473633 .22213745 .09220377 .22931926 .080973308 .23812866 .07104492 .24856568 .061116537 .2590027 .053141279 .27155558 .04711914 .28622438 .041097005 .30090333 .038085939 .31851707 .038085939 .33906556 .038085939 .35994975 .04215495 .37911479 .05029297 .39656068 .05843099 .41400657 .07014974 .42892457 .08544922 .4413147 .100748699 .453715 .119384769 .46333824 .14135742 .47018434 .16333008 .47704063 .18798828 .48046876 .21533203 .48046876 .2290039 .48046876 .24226888 .4794922 .25512696 .47753907 .26798503 .47558595 .2796224 .47314454 .29003907 .47021485 .30045573 .46728517 .30924479 .46411134 .31640626 .46069337 .32356773 .4572754 .32869468 .4543457 .3317871 .4519043 .33487956 .4494629 .3370768 .44702149 .3383789 .44458009 .339681 .44213868 .34065757 .43920899 .3413086 .43579103 .34195964 .43237306 .3425293 .42814128 .34301759 .4230957 .34350587 .41805015 .34375 .41178385 .34375 .40429688 .34375 .3955078 .34350587 .38834635 .34301759 .3828125 .3425293 .37727867 .34171549 .37288413 .34057618 .3696289 .33943687 .3663737 .33789063 .36417643 .3359375 .3630371 .33398438 .3618978 .33170573 .36132813 .32910157 .36132813 .32617188 .36132813 .3216146 .3630371 .3154297 .36645509 .30924479 .36987306 .30151368 .37353517 .29223634 .3774414 .28295899 .38134767 .2722168 .38500978 .26000978 .38842774 .24780274 .3918457 .23388672 .3935547 .21826172 .3935547 .20719402 .3935547 .19759114 .39240519 .18945313 .3901062 .18131511 .38781739 .17464192 .3845469 .1694336 .3802948 .16422527 .3760427 .16031902 .37105308 .15771485 .36532594 .15511067 .3595988 .1538086 .3534597 .1538086 .34690858 .1538086 .3367971 .15690105 .3283132 .16308594 .3214569 .16927083 .3146108 .17740886 .3085785 .1875 .30336 .19759114 .29814149 .20906575 .2932485 .22192383 .28868104 .2347819 .28411357 .24780274 .2791392 .26098634 .27375794 .27416993 .26837669 .28719078 .26210023 .30004884 .2549286 .3129069 .24775696 .3243815 .23894756 .33447267 .22850037 .3445638 .21806336 .3527018 .20558675 .35888673 .19107056 .36507163 .17656453 .36816407 .1593628 .36816407 .13946533Z"/>
<path id="font_1_346" d="M.47753907 .016616822C.47753907 .013361613 .4765625 .01050822 .47460938 .008056641 .47265626 .0056152346 .46940104 .0035807293 .46484376 .001953125 .46028648 .00032552085 .45402018-.0008951823 .44604493-.0017089844 .43806968-.0025227864 .42822267-.0029296876 .4165039-.0029296876 .40445964-.0029296876 .39444987-.0025227864 .3864746-.0017089844 .37849937-.0008951823 .37223307 .00032552085 .36767579 .001953125 .3631185 .0035807293 .35986329 .0056152346 .35791017 .008056641 .35595704 .010498047 .35498048 .0133463549 .35498048 .016601563V.26513673C.35498048 .28629557 .35343424 .30289714 .3503418 .3149414 .34724937 .3269857 .34277345 .33732096 .33691407 .34594728 .3310547 .35457359 .32348634 .36124674 .31420899 .3659668 .30493165 .37068687 .29410807 .37304688 .28173829 .37304688 .26611329 .37304688 .25032554 .36735026 .234375 .35595704 .21842449 .3445638 .20182292 .32796226 .18457031 .30615235V.016601563C.18457031 .0133463549 .18359375 .010498047 .18164063 .008056641 .1796875 .0056152346 .1763509 .0035807293 .17163086 .001953125 .16691081 .00032552085 .16064453-.0008951823 .15283203-.0017089844 .14501953-.0025227864 .13509114-.0029296876 .123046878-.0029296876 .1110026-.0029296876 .10107422-.0025227864 .09326172-.0017089844 .08544922-.0008951823 .079182948 .00032552085 .07446289 .001953125 .069742839 .0035807293 .06640625 .0056152346 .064453128 .008056641 .0625 .010498047 .061523439 .0133463549 .061523439 .016601563V.6586914C.061523439 .6619466 .0625 .6648763 .064453128 .66748049 .06640625 .67008468 .069742839 .6722819 .07446289 .67407229 .079182948 .6758626 .08544922 .6772461 .09326172 .67822268 .10107422 .6791992 .1110026 .6796875 .123046878 .6796875 .13509114 .6796875 .14501953 .6791992 .15283203 .67822268 .16064453 .6772461 .16691081 .6758626 .17163086 .67407229 .1763509 .67229208 .1796875 .6700999 .18164063 .6674957 .18359375 .66490176 .18457031 .6619771 .18457031 .6587219V.418396C.20572917 .43924967 .22729492 .45480857 .24926758 .46507264 .27124024 .4753367 .29410807 .48046876 .3178711 .48046876 .3474935 .48046876 .3724772 .47558085 .39282228 .46580506 .41316734 .45602928 .4296061 .44266764 .44213868 .4257202 .45467124 .40878297 .46370445 .3889872 .46923829 .366333 .47477214 .34368897 .47753907 .3162384 .47753907 .28398133V.016616822Z"/>
<path id="font_1_271" d="M.5 .24024964C.5 .20143128 .49576823 .16652934 .4873047 .13554383 .47884117 .10455831 .46663413 .07814026 .4506836 .056289674 .43473307 .034439088 .41512046 .01763916 .3918457 .0058898928 .36857096-.0058492028 .3421224-.01171875 .3125-.01171875 .29785157-.01171875 .2841797-.0103302 .27148438-.0075531008 .25878907-.0047861735 .2466634-.00030517579 .23510742 .0058898928 .22355144 .012095134 .2121582 .019922892 .20092774 .029373169 .18969727 .03883362 .17822266 .050252279 .1665039 .06362915V.01651001C.1665039 .012939453 .16560872 .009938558 .16381836 .007507324 .162028 .005086263 .15909831 .0030619305 .1550293 .0014343262 .15096028-.00018310547 .14550781-.0013122559 .13867188-.001953125 .13183594-.0026041668 .123535159-.0029296876 .11376953-.0029296876 .10367838-.0029296876 .09529623-.0026041668 .08862305-.001953125 .08194987-.0013020834 .07657877-.00016276042 .072509769 .0014648438 .06844076 .003092448 .065592449 .005126953 .063964847 .0075683596 .06233724 .010009766 .061523439 .013020833 .061523439 .016601563V.6586914C.061523439 .6619466 .0625 .6648763 .064453128 .66748049 .06640625 .67008468 .069742839 .6722819 .07446289 .67407229 .079182948 .6758626 .08544922 .6772461 .09326172 .67822268 .10107422 .6791992 .1110026 .6796875 .123046878 .6796875 .13509114 .6796875 .14501953 .6791992 .15283203 .67822268 .16064453 .6772461 .16691081 .6758626 .17163086 .67407229 .1763509 .67229208 .1796875 .6700999 .18164063 .6674957 .18359375 .66489157 .18457031 .661967 .18457031 .6587219V.41833497C.19563802 .429423 .20670574 .4388784 .21777344 .44670106 .22884114 .4545339 .23990886 .46097819 .25097657 .46603395 .26204429 .4710897 .2734375 .47475688 .28515626 .47703553 .296875 .47932435 .30924479 .48046876 .32226563 .48046876 .3544922 .48046876 .38183595 .47402445 .40429688 .46113587 .4267578 .44825746 .44506837 .43088786 .45922853 .4090271 .47338868 .3871765 .48372398 .36165367 .49023438 .3324585 .49674479 .30327354 .5 .27253724 .5 .24024964M.3725586 .23120117C.3725586 .24978638 .37117515 .26772056 .3684082 .28500367 .36564128 .30228678 .36083985 .3176117 .3540039 .3309784 .34716798 .3443451 .33829753 .35502116 .32739259 .3630066 .31648765 .3710022 .30273438 .375 .2861328 .375 .27799479 .375 .27001954 .3738607 .26220704 .37158204 .25439454 .36931358 .24633789 .36541749 .23803711 .3598938 .22973633 .35437013 .2211914 .34721885 .21240235 .33843995 .20361328 .32967124 .19433594 .31879173 .18457031 .3058014V.16098023C.20182292 .13873291 .2183431 .12180074 .23413086 .110183719 .24991863 .098576869 .2664388 .09277344 .2836914 .09277344 .29964195 .09277344 .31315104 .096847537 .32421876 .10499573 .33528648 .11315409 .34448243 .12375387 .35180665 .13679505 .35913087 .14983623 .36442057 .16467285 .36767579 .18130493 .370931 .19793701 .3725586 .21456909 .3725586 .23120117Z"/>
<path id="font_1_373" d="M.75439456 .016616822C.75439456 .013361613 .75341799 .01050822 .75146487 .008056641 .7495117 .0056152346 .74625656 .0035807293 .7416992 .001953125 .7371419 .00032552085 .73095706-.0008951823 .72314456-.0017089844 .71533206-.0025227864 .7054036-.0029296876 .6933594-.0029296876 .68098959-.0029296876 .67089846-.0025227864 .66308596-.0017089844 .65527346-.0008951823 .64900717 .00032552085 .6442871 .001953125 .6395671 .0035807293 .6363118 .0056152346 .6345215 .008056641 .63273116 .010498047 .63183596 .0133463549 .63183596 .016601563V.27490235C.63183596 .28955079 .63045248 .30289714 .62768557 .3149414 .62491866 .3269857 .6206868 .33732096 .61499026 .34594728 .60929366 .35457359 .60213217 .36124674 .59350588 .3659668 .5848796 .37068687 .57454428 .37304688 .5625 .37304688 .54785159 .37304688 .53304037 .36735026 .5180664 .35595704 .50309249 .3445638 .4868164 .32796226 .46923829 .30615235V.016601563C.46923829 .0133463549 .46826173 .010498047 .4663086 .008056641 .46435548 .0056152346 .4610189 .0035807293 .45629884 .001953125 .45157878 .00032552085 .4453125-.0008951823 .4375-.0017089844 .4296875-.0025227864 .41992188-.0029296876 .40820313-.0029296876 .39615885-.0029296876 .38623048-.0025227864 .37841798-.0017089844 .37060548-.0008951823 .3643392 .00032552085 .35961915 .001953125 .35489909 .0035807293 .3515625 .0056152346 .34960938 .008056641 .34765626 .010498047 .3466797 .0133463549 .3466797 .016601563V.27490235C.3466797 .28955079 .34529624 .30289714 .3425293 .3149414 .33976237 .3269857 .33561198 .33732096 .33007813 .34594728 .32454429 .35457359 .3173828 .36124674 .30859376 .3659668 .2998047 .37068687 .28955079 .37304688 .27783204 .37304688 .26285807 .37304688 .24788411 .36735026 .23291016 .35595704 .2179362 .3445638 .20182292 .32796226 .18457031 .30615235V.016601563C.18457031 .0133463549 .18359375 .010498047 .18164063 .008056641 .1796875 .0056152346 .1763509 .0035807293 .17163086 .001953125 .16691081 .00032552085 .16064453-.0008951823 .15283203-.0017089844 .14501953-.0025227864 .13509114-.0029296876 .123046878-.0029296876 .1110026-.0029296876 .10107422-.0025227864 .09326172-.0017089844 .08544922-.0008951823 .079182948 .00032552085 .07446289 .001953125 .069742839 .0035807293 .06640625 .0056152346 .064453128 .008056641 .0625 .010498047 .061523439 .0133463549 .061523439 .016601563V.45214845C.061523439 .45540367 .06233724 .45825196 .063964847 .46069337 .065592449 .46313478 .06852213 .46516929 .072753909 .46679688 .07698568 .46842448 .08243815 .46964518 .08911133 .47045899 .09578451 .4712728 .104166667 .4716797 .11425781 .4716797 .12467448 .4716797 .13330078 .4712728 .14013672 .47045899 .14697266 .46964518 .15226238 .46842448 .15600586 .46679688 .15974935 .46516929 .16243489 .46313478 .1640625 .46069337 .16569011 .45825196 .1665039 .45540367 .1665039 .45214845V.40185548C.19059246 .4280599 .21459961 .44771324 .23852539 .46081544 .26245118 .47391764 .2874349 .48046876 .31347657 .48046876 .33138023 .48046876 .3474935 .47858177 .3618164 .47480775 .3761393 .4710439 .38891603 .4656423 .40014649 .4586029 .41137696 .4515635 .4210612 .4431305 .42919923 .43330384 .43733726 .42347718 .4441732 .4125061 .44970704 .40039063 .46272788 .4144694 .47550456 .42658488 .4880371 .43673707 .50056967 .4468994 .51293948 .45516969 .5251465 .46154786 .5373535 .4679362 .54956057 .47268678 .5617676 .47579957 .5739746 .47891236 .5864258 .48046876 .5991211 .48046876 .62809249 .48046876 .65250656 .47558085 .6723633 .46580506 .69222006 .45602928 .70825198 .44274903 .720459 .42596437 .732666 .40918986 .7413737 .38955689 .74658206 .36706544 .75179037 .34458415 .75439456 .32080079 .75439456 .29571534V.016616822Z"/>
<path id="font_1_367" d="M.18457031 .016601563C.18457031 .0133463549 .18359375 .010498047 .18164063 .008056641 .1796875 .0056152346 .1763509 .0035807293 .17163086 .001953125 .16691081 .00032552085 .16064453-.0008951823 .15283203-.0017089844 .14501953-.0025227864 .13509114-.0029296876 .123046878-.0029296876 .1110026-.0029296876 .10107422-.0025227864 .09326172-.0017089844 .08544922-.0008951823 .079182948 .00032552085 .07446289 .001953125 .069742839 .0035807293 .06640625 .0056152346 .064453128 .008056641 .0625 .010498047 .061523439 .0133463549 .061523439 .016601563V.6586914C.061523439 .6619466 .0625 .6648763 .064453128 .66748049 .06640625 .67008468 .069742839 .6722819 .07446289 .67407229 .079182948 .6758626 .08544922 .6772461 .09326172 .67822268 .10107422 .6791992 .1110026 .6796875 .123046878 .6796875 .13509114 .6796875 .14501953 .6791992 .15283203 .67822268 .16064453 .6772461 .16691081 .6758626 .17163086 .67407229 .1763509 .6722819 .1796875 .67008468 .18164063 .66748049 .18359375 .6648763 .18457031 .6619466 .18457031 .6586914V.016601563Z"/>
<path id="font_1_393" d="M.5 .24073792C.5 .20191956 .4958496 .16693624 .48754884 .13578797 .47924806 .10463969 .4671224 .07814026 .45117188 .056289674 .43522135 .034439088 .4153646 .01763916 .39160157 .0058898928 .36783854-.0058492028 .34065757-.01171875 .3100586-.01171875 .29736329-.01171875 .28572593-.010492961 .27514649-.008041382 .26456706-.0055999758 .25431315-.0018513998 .24438477 .0032043458 .23445638 .008260091 .22460938 .01453654 .21484375 .022033692 .20507813 .029541016 .19498699 .038350423 .18457031 .048461915V-.15672302C.18457031-.15997823 .18359375-.16290792 .18164063-.16551209 .1796875-.16812642 .1763509-.17032878 .17163086-.17211914 .16691081-.1739095 .16064453-.17529297 .15283203-.17626953 .14501953-.1772461 .13509114-.17773438 .123046878-.17773438 .1110026-.17773438 .10107422-.1772461 .09326172-.17626953 .08544922-.17529297 .079182948-.1739095 .07446289-.17211914 .069742839-.17032878 .06640625-.16812642 .064453128-.16551209 .0625-.16290792 .061523439-.15997823 .061523439-.15672302V.45213319C.061523439 .4553884 .06233724 .4582367 .063964847 .4606781 .065592449 .46312968 .06844076 .46516929 .072509769 .46679688 .07657877 .46842448 .08194987 .46964518 .08862305 .47045899 .09529623 .4712728 .10367838 .4716797 .11376953 .4716797 .123535159 .4716797 .13175456 .4712728 .13842774 .47045899 .1451009 .46965537 .150472 .46843974 .15454102 .46681214 .15861003 .4651947 .16145833 .46317039 .16308594 .46073915 .16471355 .45831809 .16552735 .45548503 .16552735 .45224V.4012146C.17822266 .41425578 .19067383 .42575074 .20288086 .43569947 .21508789 .4456482 .22753906 .45396424 .24023438 .46064759 .2529297 .4673411 .2660319 .47231547 .27954103 .47557069 .29305015 .47883607 .30745445 .48046876 .3227539 .48046876 .35465495 .48046876 .38183595 .47418724 .40429688 .46162416 .4267578 .44907127 .44506837 .4318695 .45922853 .41001893 .47338868 .38816834 .48372398 .36272685 .49023438 .33369447 .49674479 .30466209 .5 .27367655 .5 .24073792M.3720703 .23168946C.3720703 .25027467 .37068687 .26812745 .36791993 .2852478 .36515299 .30236817 .36043296 .3176117 .35375978 .3309784 .34708659 .3443451 .33829753 .35502116 .32739259 .3630066 .31648765 .3710022 .30289714 .375 .2866211 .375 .27848307 .375 .27042643 .3737793 .26245118 .3713379 .25447593 .36890666 .24633789 .3649292 .23803711 .35940553 .22973633 .35388185 .2211914 .34673057 .21240235 .33795167 .20361328 .32918296 .19433594 .31830345 .18457031 .3053131V.16148377C.20182292 .13956197 .21826172 .1226298 .23388672 .110687259 .24951172 .09874471 .26578776 .09277344 .28271485 .09277344 .29866538 .09277344 .31225587 .096847537 .32348634 .10499573 .3347168 .11315409 .34391276 .12383524 .35107423 .13703919 .3582357 .15024312 .3635254 .16516114 .36694337 .18179322 .37036134 .1984253 .3720703 .21505738 .3720703 .23168946Z"/>
<path id="font_1_364" d="M.4663086 .016113282C.4663086 .012858073 .46541343 .010009766 .46362306 .0075683596 .46183268 .005126953 .45857749 .0031738282 .45385743 .0017089844 .44913737 .00024414063 .44270835-.0008951823 .4345703-.0017089844 .42643229-.0025227864 .41585288-.0029296876 .40283204-.0029296876 .3894857-.0029296876 .3786621-.0026041668 .37036134-.001953125 .36206056-.0013020834 .3552246-.00024414063 .34985353 .0012207031 .34448243 .0026855469 .34033204 .0047200524 .33740235 .0073242189 .33447267 .009928386 .3318685 .0133463549 .32958985 .017578125L.18457031 .24707031V.016601563C.18457031 .0133463549 .18359375 .010498047 .18164063 .008056641 .1796875 .0056152346 .1763509 .0035807293 .17163086 .001953125 .16691081 .00032552085 .16064453-.0008951823 .15283203-.0017089844 .14501953-.0025227864 .13509114-.0029296876 .123046878-.0029296876 .1110026-.0029296876 .10107422-.0025227864 .09326172-.0017089844 .08544922-.0008951823 .079182948 .00032552085 .07446289 .001953125 .069742839 .0035807293 .06640625 .0056152346 .064453128 .008056641 .0625 .010498047 .061523439 .0133463549 .061523439 .016601563V.6586914C.061523439 .6619466 .0625 .6648763 .064453128 .66748049 .06640625 .67008468 .069742839 .6722819 .07446289 .67407229 .079182948 .6758626 .08544922 .6772461 .09326172 .67822268 .10107422 .6791992 .1110026 .6796875 .123046878 .6796875 .13509114 .6796875 .14501953 .6791992 .15283203 .67822268 .16064453 .6772461 .16691081 .6758626 .17163086 .67407229 .1763509 .6722819 .1796875 .67008468 .18164063 .66748049 .18359375 .6648763 .18457031 .6619466 .18457031 .6586914V.2763672L.31347657 .44970704C.31608073 .45361329 .3190104 .45703126 .32226563 .45996095 .32552085 .46289063 .32983399 .46516929 .33520509 .46679688 .34057618 .46842448 .34724937 .46964518 .3552246 .47045899 .36319987 .4712728 .3733724 .4716797 .3857422 .4716797 .39778648 .4716797 .40795899 .4712728 .41625978 .47045899 .42456056 .46964518 .43123374 .46842448 .4362793 .46679688 .44132487 .46516929 .44482423 .46313478 .44677735 .46069337 .44873048 .45825196 .44970704 .45524089 .44970704 .45166017 .44970704 .44677735 .44848634 .441569 .44604493 .43603517 .44360353 .4305013 .4399414 .42464195 .4350586 .41845704L.3076172 .27392579 .45507813 .045898439C.45898438 .03938802 .46183268 .033772787 .46362306 .029052735 .46541343 .024332682 .4663086 .020019532 .4663086 .016113282Z"/>
<path id="font_1_449" d="M.72802737 .453125C.72802737 .44954429 .72753909 .44514976 .7265625 .4399414 .72558596 .43473307 .7237956 .4272461 .7211914 .41748048L.60498049 .0234375C.60335287 .017903647 .601237 .013427734 .5986328 .010009766 .5960286 .006591797 .592041 .00390625 .5866699 .001953125 .5812988 0 .5736491-.0013020834 .5637207-.001953125 .5537923-.0026041668 .54085287-.0029296876 .52490237-.0029296876 .50895187-.0029296876 .495931-.0025227864 .48583985-.0017089844 .4757487-.0008951823 .46785484 .00048828127 .4621582 .0024414063 .45646159 .0043945314 .4523112 .007080078 .44970704 .010498047 .44710288 .013916016 .44514976 .018229166 .44384767 .0234375L.37060548 .28808595 .3696289 .29248048 .36865235 .28808595 .30126954 .0234375C.29996745 .017903647 .2980957 .013427734 .2956543 .010009766 .2932129 .006591797 .2890625 .00390625 .28320313 .001953125 .27734376 0 .2693685-.0013020834 .25927735-.001953125 .2491862-.0026041668 .23616536-.0029296876 .22021485-.0029296876 .2039388-.0029296876 .1908366-.0025227864 .1809082-.0017089844 .17097982-.0008951823 .16316732 .00048828127 .1574707 .0024414063 .1517741 .0043945314 .1476237 .007080078 .14501953 .010498047 .14241536 .013916016 .14046224 .018229166 .13916016 .0234375L.023925782 .41748048C.020996094 .42692057 .01912435 .43432618 .018310547 .43969728 .017496745 .44506837 .017089844 .44954429 .017089844 .453125 .017089844 .45638023 .017985026 .45922853 .01977539 .46166993 .021565756 .46411134 .024820963 .46606446 .029541016 .4675293 .034261068 .46899415 .040608724 .4700521 .048583986 .47070313 .056559247 .47135417 .06656901 .4716797 .07861328 .4716797 .09163412 .4716797 .10221354 .47135417 .11035156 .47070313 .118489589 .4700521 .12483724 .46891276 .12939453 .46728517 .13395183 .46565757 .13712566 .4634603 .13891602 .46069337 .14070638 .45792643 .14208985 .45458985 .1430664 .4506836L.22949219 .13085938 .23046875 .125 .23144531 .13085938 .3125 .4506836C.31347657 .45458985 .3150228 .45792643 .31713868 .46069337 .31925456 .4634603 .32242839 .46565757 .32666017 .46728517 .33089195 .46891276 .33683268 .4700521 .34448243 .47070313 .35213218 .47135417 .36197917 .4716797 .37402345 .4716797 .38606773 .4716797 .39583335 .4712728 .4033203 .47045899 .41080729 .46964518 .41674806 .46850587 .42114259 .46704103 .4255371 .46557618 .42862956 .46362306 .43041993 .46118165 .4322103 .45874024 .43359376 .45589195 .4345703 .45263673L.5214844 .1303711 .5229492 .125 .5239258 .13085938 .6069336 .4506836C.60758468 .45458985 .6088867 .45792643 .61083987 .46069337 .61279299 .4634603 .61604818 .46565757 .62060549 .46728517 .6251628 .46891276 .63134768 .4700521 .63916018 .47070313 .64697268 .47135417 .65690109 .4716797 .6689453 .4716797 .68098959 .4716797 .6908366 .47135417 .6984863 .47070313 .70613607 .4700521 .7121582 .46899415 .71655276 .4675293 .72094729 .46606446 .7239583 .46411134 .72558596 .46166993 .72721359 .45922853 .72802737 .45638023 .72802737 .453125Z"/>
<path id="font_1_856" d="M.20605469 .07006836C.20605469 .03970337 .20076497 .019292197 .19018555 .008834839 .17960613-.0016123453 .16064453-.0068359377 .13330078-.0068359377 .10595703-.0068359377 .08707682-.0016937256 .076660159 .008590698 .06624349 .018885294 .061035158 .038401288 .061035158 .06713867 .061035158 .097829189 .06632487 .11839803 .0769043 .12884522 .08748373 .13930257 .10660807 .14453125 .13427735 .14453125 .16129558 .14453125 .18001302 .13938396 .19042969 .12908936 .20084636 .11880493 .20605469 .099131267 .20605469 .07006836Z"/>
<path id="font_1_24" d="M.59375 .3251953C.59375 .2672526 .58618167 .21769206 .5710449 .17651367 .5559082 .13533528 .5341797 .10172526 .5058594 .075683597 .47753907 .049641927 .44311524 .030517579 .4025879 .018310547 .36206056 .0061035158 .3138021 0 .2578125 0H.106933597C.096191409 0 .0871582 .0031738282 .079833988 .009521484 .072509769 .01586914 .068847659 .026204428 .068847659 .040527345V.5913086C.068847659 .60563156 .072509769 .6159668 .079833988 .62231448 .0871582 .6286621 .096191409 .63183596 .106933597 .63183596H.26904298C.32535807 .63183596 .37312828 .62524417 .41235353 .61206057 .45157878 .59887698 .48461915 .5793457 .5114746 .5534668 .5383301 .5275879 .55875656 .49560548 .5727539 .45751954 .5867513 .4194336 .59375 .37532554 .59375 .3251953M.4609375 .32080079C.4609375 .3507487 .45743815 .37858073 .45043946 .40429688 .44344078 .43001304 .4322103 .4523112 .41674806 .4711914 .4012858 .49007163 .38142906 .50480148 .35717774 .51538088 .33292643 .52596029 .30110679 .53125 .26171876 .53125H.19677735V.1015625H.26367188C.29882813 .1015625 .32845054 .10611979 .35253907 .115234378 .3766276 .12434896 .39672853 .13810222 .4128418 .15649414 .42895509 .17488607 .44099937 .1977539 .4489746 .22509766 .45694987 .2524414 .4609375 .28434245 .4609375 .32080079Z"/>
<path id="font_1_448" d="M.46240235 .45263673C.46240235 .45100913 .46232096 .449056 .4621582 .44677735 .46199546 .4444987 .46166993 .44197593 .46118165 .43920899 .46069337 .43644206 .46004234 .43326823 .45922853 .4296875 .4584147 .42610679 .45735679 .42203776 .4560547 .41748048L.3251953 .0234375C.32356773 .017903647 .32137046 .013427734 .31860353 .010009766 .31583659 .006591797 .3112793 .00390625 .30493165 .001953125 .29858399 0 .28995768-.0013020834 .27905274-.001953125 .2681478-.0026041668 .25390626-.0029296876 .23632813-.0029296876 .21907552-.0029296876 .20499675-.0025227864 .1940918-.0017089844 .18318685-.0008951823 .17464192 .00048828127 .16845703 .0024414063 .16227214 .0043945314 .15779622 .007080078 .1550293 .010498047 .15226238 .013916016 .15006511 .018229166 .1484375 .0234375L.017578125 .41748048C.015625 .42399089 .014078776 .42985026 .012939453 .4350586 .01180013 .44026695 .011149089 .4440104 .010986328 .44628907 .010823567 .44856773 .0107421879 .4506836 .0107421879 .45263673 .0107421879 .45589195 .01163737 .45874024 .013427734 .46118165 .015218099 .46362306 .018391928 .46565757 .022949219 .46728517 .02750651 .46891276 .033772787 .4700521 .041748048 .47070313 .04972331 .47135417 .059733076 .4716797 .071777347 .4716797 .085123699 .4716797 .09586588 .4712728 .104003909 .47045899 .11214193 .46964518 .11857096 .46850587 .123291019 .46704103 .12801107 .46557618 .13134766 .4634603 .13330078 .46069337 .1352539 .45792643 .13688152 .45458985 .1381836 .4506836L.23730469 .13085938 .24023438 .118652347 .24316406 .13085938 .3408203 .4506836C.34179688 .45458985 .3433431 .45792643 .34545899 .46069337 .34757487 .4634603 .35091148 .46557618 .35546876 .46704103 .36002604 .46850587 .36612956 .46964518 .3737793 .47045899 .38142906 .4712728 .3914388 .4716797 .4038086 .4716797 .41585288 .4716797 .42569987 .47135417 .4333496 .47070313 .44099937 .4700521 .4469401 .46891276 .45117188 .46728517 .45540367 .46565757 .45833335 .46362306 .45996095 .46118165 .46158854 .45874024 .46240235 .45589195 .46240235 .45263673Z"/>
<path id="font_1_454" d="M.4399414 .025390625C.44254557 .019856772 .44376628 .0152994799 .44360353 .01171875 .44344078 .0081380209 .44108073 .0052083337 .43652345 .0029296876 .43196617 .0006510417 .42496745-.0008951823 .41552735-.0017089844 .40608726-.0025227864 .3935547-.0029296876 .3779297-.0029296876 .36328126-.0029296876 .3514811-.0026855469 .3425293-.0021972657 .33357749-.0017089844 .32657878-.0007324219 .3215332 .0007324219 .31648765 .0021972657 .31274415 .0039876305 .31030274 .0061035158 .30786134 .008219401 .3059896 .010904948 .3046875 .014160156L.2241211 .16894531 .14355469 .014160156C.14225261 .010904948 .14046224 .008219401 .1381836 .0061035158 .13590496 .0039876305 .1324056 .0021972657 .12768555 .0007324219 .12296549-.0007324219 .116373699-.0017089844 .107910159-.0021972657 .09944662-.0026855469 .088378909-.0029296876 .07470703-.0029296876 .060384115-.0029296876 .048990888-.0025227864 .040527345-.0017089844 .0320638-.0008951823 .025878907 .0006510417 .021972657 .0029296876 .018066407 .0052083337 .0160319 .0081380209 .01586914 .01171875 .01570638 .0152994799 .017089844 .019856772 .020019532 .025390625L.140625 .2397461 .029296875 .44091798C.026367188 .44677735 .024820963 .45174156 .024658204 .45581056 .024495444 .45987956 .026529948 .46305339 .030761719 .46533204 .03499349 .4676107 .041748048 .46923829 .05102539 .47021485 .060302736 .4711914 .072916667 .4716797 .08886719 .4716797 .1031901 .4716797 .11466471 .47143556 .123291019 .47094728 .13191732 .47045899 .13867188 .46972657 .14355469 .46875 .1484375 .46777345 .15201824 .4662272 .15429688 .46411134 .15657552 .46199546 .15852864 .4593099 .16015625 .4560547L.23779297 .31054688 .3149414 .4560547C.31591798 .45865885 .3173828 .4609375 .31933595 .46289063 .32128907 .46484376 .3243815 .46647135 .32861329 .46777345 .33284507 .46907554 .33862306 .4700521 .34594728 .47070313 .35327149 .47135417 .36328126 .4716797 .37597657 .4716797 .39029948 .4716797 .40177409 .47135417 .4104004 .47070313 .4190267 .4700521 .42521159 .46858726 .42895509 .4663086 .43269859 .46402995 .43448893 .4608561 .43432618 .4567871 .43416343 .4527181 .43229167 .44742839 .42871095 .44091798L.3203125 .24316406 .4399414 .025390625Z"/>
</defs>
<use data-text="E" xlink:href="#font_1_28" transform="matrix(12.02352,0,0,-12,247.881,352.559)"/>
<use data-text="n" xlink:href="#font_1_374" transform="matrix(12.02352,0,0,-12,253.6435,352.559)"/>
<use data-text="d" xlink:href="#font_1_282" transform="matrix(12.02352,0,0,-12,260.12803,352.559)"/>
<use data-text=" " xlink:href="#font_1_3" transform="matrix(12.02352,0,0,-12,266.61259,352.559)"/>
<use data-text="o" xlink:href="#font_1_381" transform="matrix(12.02352,0,0,-12,269.2517,352.559)"/>
<use data-text="f" xlink:href="#font_1_296" transform="matrix(12.02352,0,0,-12,275.73655,352.559)"/>
<use data-text=" " xlink:href="#font_1_3" transform="matrix(12.02352,0,0,-12,279.5717,352.559)"/>
<use data-text="S" xlink:href="#font_1_94" transform="matrix(12.02352,0,0,-12,282.2108,352.559)"/>
<use data-text="e" xlink:href="#font_1_286" transform="matrix(12.02352,0,0,-12,287.97496,352.559)"/>
<use data-text="c" xlink:href="#font_1_272" transform="matrix(12.02352,0,0,-12,293.9699,352.559)"/>
<use data-text="t" xlink:href="#font_1_410" transform="matrix(12.02352,0,0,-12,299.0044,352.559)"/>
<use data-text="i" xlink:href="#font_1_349" transform="matrix(12.02352,0,0,-12,303.08824,352.559)"/>
<use data-text="o" xlink:href="#font_1_381" transform="matrix(12.02352,0,0,-12,305.97297,352.559)"/>
<use data-text="n" xlink:href="#font_1_374" transform="matrix(12.02352,0,0,-12,312.4578,352.559)"/>
<use data-text=" " xlink:href="#font_1_3" transform="matrix(12.02352,0,0,-12,318.94236,352.559)"/>
<use data-text="2" xlink:href="#font_1_1006" transform="matrix(12.02352,0,0,-12,321.58149,352.559)"/>
<use data-text="," xlink:href="#font_1_853" transform="matrix(12.02352,0,0,-12,327.58348,352.559)"/>
<use data-text=" " xlink:href="#font_1_3" transform="matrix(12.02352,0,0,-12,330.70576,352.559)"/>
<use data-text="P" xlink:href="#font_1_87" transform="matrix(12.02352,0,0,-12,333.34486,352.559)"/>
<use data-text="a" xlink:href="#font_1_258" transform="matrix(12.02352,0,0,-12,339.8221,352.559)"/>
<use data-text="r" xlink:href="#font_1_396" transform="matrix(12.02352,0,0,-12,345.82627,352.559)"/>
<use data-text="t" xlink:href="#font_1_410" transform="matrix(12.02352,0,0,-12,350.14064,352.559)"/>
<use data-text=" " xlink:href="#font_1_3" transform="matrix(12.02352,0,0,-12,354.22447,352.559)"/>
<use data-text="A" xlink:href="#font_1_4" transform="matrix(12.02352,0,0,-12,356.86357,352.559)"/>
<use data-text="I" xlink:href="#font_1_47" transform="matrix(12.02352,0,0,-12,105.56058,381.83909)"/>
<use data-text="f" xlink:href="#font_1_296" transform="matrix(12.02352,0,0,-12,108.68536,381.83909)"/>
<use data-text=" " xlink:href="#font_1_3" transform="matrix(12.02352,0,0,-12,112.52048,381.83909)"/>
<use data-text="y" xlink:href="#font_1_455" transform="matrix(12.02352,0,0,-12,115.159587,381.83909)"/>
<use data-text="o" xlink:href="#font_1_381" transform="matrix(12.02352,0,0,-12,120.923999,381.83909)"/>
<use data-text="u" xlink:href="#font_1_437" transform="matrix(12.02352,0,0,-12,127.40884,381.83909)"/>
<use data-text=" " xlink:href="#font_1_3" transform="matrix(12.02352,0,0,-12,133.89339,381.83909)"/>
<use data-text="f" xlink:href="#font_1_296" transform="matrix(12.02352,0,0,-12,136.53249,381.83909)"/>
<use data-text="i" xlink:href="#font_1_349" transform="matrix(12.02352,0,0,-12,140.3676,381.83909)"/>
<use data-text="n" xlink:href="#font_1_374" transform="matrix(12.02352,0,0,-12,143.25234,381.83909)"/>
<use data-text="i" xlink:href="#font_1_349" transform="matrix(12.02352,0,0,-12,149.7369,381.83909)"/>
<use data-text="s" xlink:href="#font_1_400" transform="matrix(12.02352,0,0,-12,152.62165,381.83909)"/>
<use data-text="h" xlink:href="#font_1_346" transform="matrix(12.02352,0,0,-12,157.42253,381.83909)"/>
<use data-text=" " xlink:href="#font_1_3" transform="matrix(12.02352,0,0,-12,163.90709,381.83909)"/>
<use data-text="b" xlink:href="#font_1_271" transform="matrix(12.02352,0,0,-12,166.54619,381.83909)"/>
<use data-text="e" xlink:href="#font_1_286" transform="matrix(12.02352,0,0,-12,173.03075,381.83909)"/>
<use data-text="f" xlink:href="#font_1_296" transform="matrix(12.02352,0,0,-12,179.02573,381.83909)"/>
<use data-text="o" xlink:href="#font_1_381" transform="matrix(12.02352,0,0,-12,182.86084,381.83909)"/>
<use data-text="r" xlink:href="#font_1_396" transform="matrix(12.02352,0,0,-12,189.34569,381.83909)"/>
<use data-text="e" xlink:href="#font_1_286" transform="matrix(12.02352,0,0,-12,193.66005,381.83909)"/>
<use data-text=" " xlink:href="#font_1_3" transform="matrix(12.02352,0,0,-12,199.65503,381.83909)"/>
<use data-text="t" xlink:href="#font_1_410" transform="matrix(12.02352,0,0,-12,202.29413,381.83909)"/>
<use data-text="h" xlink:href="#font_1_346" transform="matrix(12.02352,0,0,-12,206.37799,381.83909)"/>
<use data-text="e" xlink:href="#font_1_286" transform="matrix(12.02352,0,0,-12,212.86255,381.83909)"/>
<use data-text=" " xlink:href="#font_1_3" transform="matrix(12.02352,0,0,-12,218.85753,381.83909)"/>
<use data-text="t" xlink:href="#font_1_410" transform="matrix(12.02352,0,0,-12,221.49663,381.83909)"/>
<use data-text="i" xlink:href="#font_1_349" transform="matrix(12.02352,0,0,-12,225.58049,381.83909)"/>
<use data-text="m" xlink:href="#font_1_373" transform="matrix(12.02352,0,0,-12,228.4652,381.83909)"/>
<use data-text="e" xlink:href="#font_1_286" transform="matrix(12.02352,0,0,-12,238.29947,381.83909)"/>
<use data-text=" " xlink:href="#font_1_3" transform="matrix(12.02352,0,0,-12,244.29445,381.83909)"/>
<use data-text="l" xlink:href="#font_1_367" transform="matrix(12.02352,0,0,-12,246.93355,381.83909)"/>
<use data-text="i" xlink:href="#font_1_349" transform="matrix(12.02352,0,0,-12,249.81829,381.83909)"/>
<use data-text="m" xlink:href="#font_1_373" transform="matrix(12.02352,0,0,-12,252.70302,381.83909)"/>
<use data-text="i" xlink:href="#font_1_349" transform="matrix(12.02352,0,0,-12,262.5373,381.83909)"/>
<use data-text="t" xlink:href="#font_1_410" transform="matrix(12.02352,0,0,-12,265.42204,381.83909)"/>
<use data-text=" " xlink:href="#font_1_3" transform="matrix(12.02352,0,0,-12,269.50587,381.83909)"/>
<use data-text="f" xlink:href="#font_1_296" transform="matrix(12.02352,0,0,-12,272.14497,381.83909)"/>
<use data-text="o" xlink:href="#font_1_381" transform="matrix(12.02352,0,0,-12,275.9801,381.83909)"/>
<use data-text="r" xlink:href="#font_1_396" transform="matrix(12.02352,0,0,-12,282.46495,381.83909)"/>
<use data-text=" " xlink:href="#font_1_3" transform="matrix(12.02352,0,0,-12,286.77934,381.83909)"/>
<use data-text="t" xlink:href="#font_1_410" transform="matrix(12.02352,0,0,-12,289.41844,381.83909)"/>
<use data-text="h" xlink:href="#font_1_346" transform="matrix(12.02352,0,0,-12,293.50227,381.83909)"/>
<use data-text="i" xlink:href="#font_1_349" transform="matrix(12.02352,0,0,-12,299.98683,381.83909)"/>
<use data-text="s" xlink:href="#font_1_400" transform="matrix(12.02352,0,0,-12,302.87156,381.83909)"/>
<use data-text=" " xlink:href="#font_1_3" transform="matrix(12.02352,0,0,-12,307.67247,381.83909)"/>
<use data-text="p" xlink:href="#font_1_393" transform="matrix(12.02352,0,0,-12,310.31159,381.83909)"/>
<use data-text="a" xlink:href="#font_1_258" transform="matrix(12.02352,0,0,-12,316.7961,381.83909)"/>
<use data-text="r" xlink:href="#font_1_396" transform="matrix(12.02352,0,0,-12,322.80027,381.83909)"/>
<use data-text="t" xlink:href="#font_1_410" transform="matrix(12.02352,0,0,-12,327.11466,381.83909)"/>
<use data-text="," xlink:href="#font_1_853" transform="matrix(12.02352,0,0,-12,331.1985,381.83909)"/>
<use data-text=" " xlink:href="#font_1_3" transform="matrix(12.02352,0,0,-12,334.32078,381.83909)"/>
<use data-text="c" xlink:href="#font_1_272" transform="matrix(12.02352,0,0,-12,336.92018,381.83909)"/>
<use data-text="h" xlink:href="#font_1_346" transform="matrix(12.02352,0,0,-12,341.95466,381.83909)"/>
<use data-text="e" xlink:href="#font_1_286" transform="matrix(12.02352,0,0,-12,348.4392,381.83909)"/>
<use data-text="c" xlink:href="#font_1_272" transform="matrix(12.02352,0,0,-12,354.43418,381.83909)"/>
<use data-text="k" xlink:href="#font_1_364" transform="matrix(12.02352,0,0,-12,359.4687,381.83909)"/>
<use data-text=" " xlink:href="#font_1_3" transform="matrix(12.02352,0,0,-12,365.22895,381.83909)"/>
<use data-text="y" xlink:href="#font_1_455" transform="matrix(12.02352,0,0,-12,367.86808,381.83909)"/>
<use data-text="o" xlink:href="#font_1_381" transform="matrix(12.02352,0,0,-12,373.63249,381.83909)"/>
<use data-text="u" xlink:href="#font_1_437" transform="matrix(12.02352,0,0,-12,380.1173,381.83909)"/>
<use data-text="r" xlink:href="#font_1_396" transform="matrix(12.02352,0,0,-12,386.60188,381.83909)"/>
<use data-text=" " xlink:href="#font_1_3" transform="matrix(12.02352,0,0,-12,390.91624,381.83909)"/>
<use data-text="w" xlink:href="#font_1_449" transform="matrix(12.02352,0,0,-12,393.55534,381.83909)"/>
<use data-text="o" xlink:href="#font_1_381" transform="matrix(12.02352,0,0,-12,402.43394,381.83909)"/>
<use data-text="r" xlink:href="#font_1_396" transform="matrix(12.02352,0,0,-12,408.91877,381.83909)"/>
<use data-text="k" xlink:href="#font_1_364" transform="matrix(12.02352,0,0,-12,413.2331,381.83909)"/>
<use data-text=" " xlink:href="#font_1_3" transform="matrix(12.02352,0,0,-12,418.99336,381.83909)"/>
<use data-text="o" xlink:href="#font_1_381" transform="matrix(12.02352,0,0,-12,421.63246,381.83909)"/>
<use data-text="n" xlink:href="#font_1_374" transform="matrix(12.02352,0,0,-12,428.11729,381.83909)"/>
<use data-text=" " xlink:href="#font_1_3" transform="matrix(12.02352,0,0,-12,434.6019,381.83909)"/>
<use data-text="t" xlink:href="#font_1_410" transform="matrix(12.02352,0,0,-12,437.241,381.83909)"/>
<use data-text="h" xlink:href="#font_1_346" transform="matrix(12.02352,0,0,-12,441.32484,381.83909)"/>
<use data-text="i" xlink:href="#font_1_349" transform="matrix(12.02352,0,0,-12,447.80946,381.83909)"/>
<use data-text="s" xlink:href="#font_1_400" transform="matrix(12.02352,0,0,-12,450.69419,381.83909)"/>
<use data-text=" " xlink:href="#font_1_3" transform="matrix(12.02352,0,0,-12,455.4951,381.83909)"/>
<use data-text="p" xlink:href="#font_1_393" transform="matrix(12.02352,0,0,-12,458.1342,381.83909)"/>
<use data-text="a" xlink:href="#font_1_258" transform="matrix(12.02352,0,0,-12,464.6188,381.83909)"/>
<use data-text="r" xlink:href="#font_1_396" transform="matrix(12.02352,0,0,-12,470.62297,381.83909)"/>
<use data-text="t" xlink:href="#font_1_410" transform="matrix(12.02352,0,0,-12,474.9373,381.83909)"/>
<use data-text=" " xlink:href="#font_1_3" transform="matrix(12.02352,0,0,-12,479.02116,381.83909)"/>
<use data-text="o" xlink:href="#font_1_381" transform="matrix(12.02352,0,0,-12,481.66026,381.83909)"/>
<use data-text="n" xlink:href="#font_1_374" transform="matrix(12.02352,0,0,-12,488.14509,381.83909)"/>
<use data-text="l" xlink:href="#font_1_367" transform="matrix(12.02352,0,0,-12,494.6297,381.83909)"/>
<use data-text="y" xlink:href="#font_1_455" transform="matrix(12.02352,0,0,-12,497.51445,381.83909)"/>
<use data-text="." xlink:href="#font_1_856" transform="matrix(12.02352,0,0,-12,503.27888,381.83909)"/>
<use data-text="D" xlink:href="#font_1_24" transform="matrix(12.02352,0,0,-12,119.72029,411.11918)"/>
<use data-text="o" xlink:href="#font_1_381" transform="matrix(12.02352,0,0,-12,127.395839,411.11918)"/>
<use data-text=" " xlink:href="#font_1_3" transform="matrix(12.02352,0,0,-12,133.88066,411.11918)"/>
<use data-text="m" xlink:href="#font_1_373" transform="matrix(12.02352,0,0,-12,136.51976,411.11918)"/>
<use data-text="o" xlink:href="#font_1_381" transform="matrix(12.02352,0,0,-12,146.35404,411.11918)"/>
<use data-text="v" xlink:href="#font_1_448" transform="matrix(12.02352,0,0,-12,152.83887,411.11918)"/>
<use data-text="e" xlink:href="#font_1_286" transform="matrix(12.02352,0,0,-12,158.59712,411.11918)"/>
<use data-text=" " xlink:href="#font_1_3" transform="matrix(12.02352,0,0,-12,164.5921,411.11918)"/>
<use data-text="o" xlink:href="#font_1_381" transform="matrix(12.02352,0,0,-12,167.2312,411.11918)"/>
<use data-text="n" xlink:href="#font_1_374" transform="matrix(12.02352,0,0,-12,173.71605,411.11918)"/>
<use data-text=" " xlink:href="#font_1_3" transform="matrix(12.02352,0,0,-12,180.2006,411.11918)"/>
<use data-text="t" xlink:href="#font_1_410" transform="matrix(12.02352,0,0,-12,182.8397,411.11918)"/>
<use data-text="o" xlink:href="#font_1_381" transform="matrix(12.02352,0,0,-12,186.92357,411.11918)"/>
<use data-text=" " xlink:href="#font_1_3" transform="matrix(12.02352,0,0,-12,193.4084,411.11918)"/>
<use data-text="t" xlink:href="#font_1_410" transform="matrix(12.02352,0,0,-12,196.0475,411.11918)"/>
<use data-text="h" xlink:href="#font_1_346" transform="matrix(12.02352,0,0,-12,200.13137,411.11918)"/>
<use data-text="e" xlink:href="#font_1_286" transform="matrix(12.02352,0,0,-12,206.61592,411.11918)"/>
<use data-text=" " xlink:href="#font_1_3" transform="matrix(12.02352,0,0,-12,212.6109,411.11918)"/>
<use data-text="n" xlink:href="#font_1_374" transform="matrix(12.02352,0,0,-12,215.25,411.11918)"/>
<use data-text="e" xlink:href="#font_1_286" transform="matrix(12.02352,0,0,-12,221.73456,411.11918)"/>
<use data-text="x" xlink:href="#font_1_454" transform="matrix(12.02352,0,0,-12,227.72954,411.11918)"/>
<use data-text="t" xlink:href="#font_1_410" transform="matrix(12.02352,0,0,-12,233.24385,411.11918)"/>
<use data-text=" " xlink:href="#font_1_3" transform="matrix(12.02352,0,0,-12,237.32772,411.11918)"/>
<use data-text="p" xlink:href="#font_1_393" transform="matrix(12.02352,0,0,-12,239.96681,411.11918)"/>
<use data-text="a" xlink:href="#font_1_258" transform="matrix(12.02352,0,0,-12,246.45137,411.11918)"/>
<use data-text="r" xlink:href="#font_1_396" transform="matrix(12.02352,0,0,-12,252.45554,411.11918)"/>
<use data-text="t" xlink:href="#font_1_410" transform="matrix(12.02352,0,0,-12,256.7699,411.11918)"/>
<use data-text=" " xlink:href="#font_1_3" transform="matrix(12.02352,0,0,-12,260.85374,411.11918)"/>
<use data-text="u" xlink:href="#font_1_437" transform="matrix(12.02352,0,0,-12,263.49284,411.11918)"/>
<use data-text="n" xlink:href="#font_1_374" transform="matrix(12.02352,0,0,-12,269.9774,411.11918)"/>
<use data-text="t" xlink:href="#font_1_410" transform="matrix(12.02352,0,0,-12,276.46195,411.11918)"/>
<use data-text="i" xlink:href="#font_1_349" transform="matrix(12.02352,0,0,-12,280.54579,411.11918)"/>
<use data-text="l" xlink:href="#font_1_367" transform="matrix(12.02352,0,0,-12,283.4305,411.11918)"/>
<use data-text=" " xlink:href="#font_1_3" transform="matrix(12.02352,0,0,-12,286.31526,411.11918)"/>
<use data-text="y" xlink:href="#font_1_455" transform="matrix(12.02352,0,0,-12,288.95439,411.11918)"/>
<use data-text="o" xlink:href="#font_1_381" transform="matrix(12.02352,0,0,-12,294.71879,411.11918)"/>
<use data-text="u" xlink:href="#font_1_437" transform="matrix(12.02352,0,0,-12,301.2036,411.11918)"/>
<use data-text=" " xlink:href="#font_1_3" transform="matrix(12.02352,0,0,-12,307.68818,411.11918)"/>
<use data-text="a" xlink:href="#font_1_258" transform="matrix(12.02352,0,0,-12,310.32728,411.11918)"/>
<use data-text="r" xlink:href="#font_1_396" transform="matrix(12.02352,0,0,-12,316.33143,411.11918)"/>
<use data-text="e" xlink:href="#font_1_286" transform="matrix(12.02352,0,0,-12,320.64579,411.11918)"/>
<use data-text=" " xlink:href="#font_1_3" transform="matrix(12.02352,0,0,-12,326.64076,411.11918)"/>
<use data-text="t" xlink:href="#font_1_410" transform="matrix(12.02352,0,0,-12,329.27989,411.11918)"/>
<use data-text="o" xlink:href="#font_1_381" transform="matrix(12.02352,0,0,-12,333.3637,411.11918)"/>
<use data-text="l" xlink:href="#font_1_367" transform="matrix(12.02352,0,0,-12,339.84855,411.11918)"/>
<use data-text="d" xlink:href="#font_1_282" transform="matrix(12.02352,0,0,-12,342.73329,411.11918)"/>
<use data-text=" " xlink:href="#font_1_3" transform="matrix(12.02352,0,0,-12,349.21784,411.11918)"/>
<use data-text="t" xlink:href="#font_1_410" transform="matrix(12.02352,0,0,-12,351.85694,411.11918)"/>
<use data-text="o" xlink:href="#font_1_381" transform="matrix(12.02352,0,0,-12,355.94078,411.11918)"/>
<use data-text=" " xlink:href="#font_1_3" transform="matrix(12.02352,0,0,-12,362.4256,411.11918)"/>
<use data-text="b" xlink:href="#font_1_271" transform="matrix(12.02352,0,0,-12,365.0647,411.11918)"/>
<use data-text="y" xlink:href="#font_1_455" transform="matrix(12.02352,0,0,-12,371.48078,411.11918)"/>
<use data-text=" " xlink:href="#font_1_3" transform="matrix(12.02352,0,0,-12,377.2452,411.11918)"/>
<use data-text="t" xlink:href="#font_1_410" transform="matrix(12.02352,0,0,-12,379.8843,411.11918)"/>
<use data-text="h" xlink:href="#font_1_346" transform="matrix(12.02352,0,0,-12,383.96815,411.11918)"/>
<use data-text="e" xlink:href="#font_1_286" transform="matrix(12.02352,0,0,-12,390.4527,411.11918)"/>
<use data-text=" " xlink:href="#font_1_3" transform="matrix(12.02352,0,0,-12,396.44767,411.11918)"/>
<use data-text="t" xlink:href="#font_1_410" transform="matrix(12.02352,0,0,-12,399.08677,411.11918)"/>
<use data-text="e" xlink:href="#font_1_286" transform="matrix(12.02352,0,0,-12,403.1706,411.11918)"/>
<use data-text="s" xlink:href="#font_1_400" transform="matrix(12.02352,0,0,-12,409.16557,411.11918)"/>
<use data-text="t" xlink:href="#font_1_410" transform="matrix(12.02352,0,0,-12,413.96647,411.11918)"/>
<use data-text=" " xlink:href="#font_1_3" transform="matrix(12.02352,0,0,-12,418.0503,411.11918)"/>
<use data-text="a" xlink:href="#font_1_258" transform="matrix(12.02352,0,0,-12,420.6894,411.11918)"/>
<use data-text="d" xlink:href="#font_1_282" transform="matrix(12.02352,0,0,-12,426.69355,411.11918)"/>
<use data-text="m" xlink:href="#font_1_373" transform="matrix(12.02352,0,0,-12,433.17817,411.11918)"/>
<use data-text="i" xlink:href="#font_1_349" transform="matrix(12.02352,0,0,-12,443.01243,411.11918)"/>
<use data-text="n" xlink:href="#font_1_374" transform="matrix(12.02352,0,0,-12,445.89717,411.11918)"/>
<use data-text="i" xlink:href="#font_1_349" transform="matrix(12.02352,0,0,-12,452.38179,411.11918)"/>
<use data-text="s" xlink:href="#font_1_400" transform="matrix(12.02352,0,0,-12,455.2665,411.11918)"/>
<use data-text="t" xlink:href="#font_1_410" transform="matrix(12.02352,0,0,-12,460.0674,411.11918)"/>
<use data-text="r" xlink:href="#font_1_396" transform="matrix(12.02352,0,0,-12,464.15129,411.11918)"/>
<use data-text="a" xlink:href="#font_1_258" transform="matrix(12.02352,0,0,-12,468.4656,411.11918)"/>
<use data-text="t" xlink:href="#font_1_410" transform="matrix(12.02352,0,0,-12,474.46977,411.11918)"/>
<use data-text="o" xlink:href="#font_1_381" transform="matrix(12.02352,0,0,-12,478.55363,411.11918)"/>
<use data-text="r" xlink:href="#font_1_396" transform="matrix(12.02352,0,0,-12,485.03846,411.11918)"/>
<use data-text="." xlink:href="#font_1_856" transform="matrix(12.02352,0,0,-12,489.35285,411.11918)"/>
</svg>
